<?xml version="1.0" encoding="utf-8" ?>
<svg xmlns="http://www.w3.org/2000/svg" xmlns:xlink="http://www.w3.org/1999/xlink" width="512" height="512">
	<path fill="#231135" d="M205.877 121.048L302.535 121.293C305.33 121.296 309.18 120.853 311.824 121.642L312.125 121.738C320.155 124.12 318.838 133.191 311.882 135.544C307.018 135.792 302.026 135.569 297.151 135.563L208.858 135.459C199.305 135.174 195.626 124.245 205.877 121.048Z"/>
	<path fill="#231135" d="M337.246 154.431C354.301 152.714 351.893 167.247 343.579 168.532C341.455 168.86 339.105 168.715 336.952 168.775L259.071 173.343L230.126 173.473C226.969 173.721 222.331 174.114 219.69 172.073C214.91 168.378 217.014 159.943 223.014 159.275C224.779 159.078 226.731 159.222 228.515 159.216L262.367 158.601L337.246 154.431Z"/>
	<path fill="#231135" d="M192.059 14.5313L256.868 14.5515L306.812 16.0186L323 17.5929C339.669 19.2264 339.424 19.4998 352.52 30.5347L359.253 36.0434C377.002 52.086 395.641 74.0792 405.81 95.9571C412.666 110.706 411.316 128.677 411.307 144.505L411.221 175.668C411.16 178.24 410.535 180.704 410.503 183.261L410.416 209.282C410.398 211.131 410.415 213.178 409.697 214.914L409.112 216.222C405.921 222.255 396.786 218.871 395.746 212.754C395.472 211.144 395.581 209.438 395.611 207.812L396.264 181.003C396.331 179.029 396.674 177.09 396.707 175.11L396.752 142.186C396.755 131.671 397.595 120.451 395.155 110.156L373.063 110.005C342.653 109.928 335.583 106.229 335.501 76.2103L335.488 58.1748L335.373 49.625C335.284 47.9973 335.03 46.3791 334.983 44.7495L334.902 37.8853C334.857 34.8477 334.575 34.6217 331.633 33.6396C326.258 31.8455 320.019 31.8634 314.385 31.4299L292.005 30.208C290.163 30.1375 288.347 29.7648 286.5 29.7266L261.454 29.6307C258.807 29.5857 256.207 29.0599 253.596 29.02L192.168 28.9989L163.915 30.369C161.366 30.5377 162.472 33.0153 162.463 36.0625C162.411 53.6828 164.354 81.5877 150.928 94.8876C142.263 103.47 128.684 101.815 117.557 101.809L91.4217 101.785C91.0208 104.162 91.3202 106.961 91.3132 109.398L91.289 133.86C91.2856 137.648 91.6483 141.888 91.1583 145.629C90.4155 151.298 83.8656 153.182 79.625 149.45C76.5803 146.771 76.8136 141.249 76.6919 137.541L76.6137 119.012C76.6084 109.388 76.7216 99.7058 78.748 90.25C85.5423 58.547 122.198 24.7618 153 17.7573C158.295 16.5533 163.776 16.1265 169.175 15.707L192.059 14.5313Z"/>
	<path fill="#B8B8FF" d="M349.378 46.5969C364.771 60.604 379.098 77.8632 389.812 95.9451L362.146 95.6944C346.716 94.7405 349.531 81.6746 349.499 70.1808L349.378 46.5969Z"/>
	<path fill="#9381FF" d="M147.55 34.875L147.74 52.375C147.642 87.0642 145.028 87.339 114.24 87.2974L102.623 87.1098C100.267 87.0413 97.8682 87.0637 95.5402 86.6856L94.5269 85.8291C103.404 64.9257 126.061 43.5157 147.55 34.875Z"/>
	<path fill="#231135" d="M48.9896 353.313L48.7383 353.218C44.8361 351.716 42.0035 348.676 41.7959 344.446L41.8336 283.375L43.7118 240.5C43.7852 238.597 44.1576 236.741 44.2003 234.817C44.7016 212.215 38.7688 176.819 61.4658 163.434L61.8399 163.21C75.2041 155.34 90.336 156.229 105.172 156.244L132.366 156.421C134.743 156.505 137.093 157.05 139.5 157.137L161.648 158.206C187.084 160.119 199.263 166.434 212.655 189.744C222.65 207.142 225.311 215.05 246.683 220.824C255.655 223.249 264.737 224.664 274 225.327L290.205 226.127L413.982 226.206C418.911 226.218 424.527 225.833 429.339 226.854L437 227.946C445.438 229.589 455.644 232.951 460.772 240.387L461.016 240.75C475.304 261.75 470.254 303.94 466.247 327.375L460.088 359.772L449.245 406.25L441.862 431.375C428.85 474.287 425.818 483.722 378.625 485.979L346.083 486.97C344.837 487.018 343.623 487.291 342.373 487.34L332.125 487.61C329.936 487.761 327.794 488.105 325.589 488.174L291.776 488.272C289.926 488.291 288.099 488.639 286.247 488.709L271.405 488.849C269.389 488.909 267.396 489.275 265.375 489.324L203.5 490.334L188.571 491.316L139.75 492.923C137.811 493.006 135.903 493.339 133.949 493.395L94.1652 493.496C90.129 493.485 85.8778 493.67 81.8844 493.069L73.75 492.238C65.3618 491.062 56.2643 488.275 50.9798 481.164L50.518 480.5C43.8846 470.811 44.0816 458.747 43.482 447.5L42.4824 403.56C42.3197 398.046 41.8877 392.921 41.8313 387.125C41.7619 380 39.9257 375.522 48.4436 372.789C57.0667 373.969 56.6774 377.118 56.6882 383.972L56.7514 409.539C56.8659 411.912 57.3834 414.215 57.435 416.616L58.162 439.023C58.4846 448.008 58.2572 457.929 60.9808 466.592C64.2371 476.949 75.2496 478.036 84.6101 478.391L153.18 478.306L192.034 476.363L209.624 476.186C211.747 476.13 213.824 475.554 215.986 475.502L264.696 474.596L308.045 474.476C309.67 474.461 311.258 474.204 312.875 474.09L354.875 473.466C366.758 473.072 381.007 472.799 392.445 471.404C405.325 469.709 414.099 466.287 419.691 453.506C424.09 443.453 426.777 432.322 429.836 421.783C440.534 384.931 465.343 288.068 452.258 255C449.934 249.127 446.505 246.476 440.82 244.017C435.914 242.005 430.451 241.604 425.225 241.164L418.124 240.457L291.01 240.217L260.934 237.752C244.628 235.925 222.258 234.544 208.957 223.814C198.715 215.552 194.726 203.29 188.157 192.461C177.855 175.478 167.312 173.881 149.449 172.218L128.375 170.62L104.753 170.509C86.4043 170.501 65.4137 169.006 60.1742 190.926L58.7533 209.743L58.1972 228.063C58.1354 230.776 57.6001 233.422 57.5345 236.141L57.4383 266.374C57.4081 268.753 56.803 271.165 56.7476 273.59L56.6773 333.696C56.6792 337.982 57.0568 342.606 56.6132 346.835C56.3534 349.312 51.6346 353.445 49.336 353.343L48.9896 353.313Z"/>
	<defs>
		<linearGradient id="gradient_0" gradientUnits="userSpaceOnUse" x1="35.978401" y1="227.43201" x2="404.84" y2="450.879">
			<stop offset="0" stop-color="#8B77FE"/>
			<stop offset="1" stop-color="#CFD6FE"/>
		</linearGradient>
	</defs>
	<path fill="url(#gradient_0)" d="M60.1742 190.926C65.4137 169.006 86.4043 170.501 104.753 170.509L128.375 170.62L149.449 172.218C167.312 173.881 177.855 175.478 188.157 192.461C194.726 203.29 198.715 215.552 208.957 223.814C222.258 234.544 244.628 235.925 260.934 237.752L291.01 240.217L418.124 240.457L425.225 241.164C430.451 241.604 435.914 242.005 440.82 244.017C446.505 246.476 449.934 249.127 452.258 255C465.343 288.068 440.534 384.931 429.836 421.783C426.777 432.322 424.09 443.453 419.691 453.506C414.099 466.287 405.325 469.709 392.445 471.404C381.007 472.799 366.758 473.072 354.875 473.466L312.875 474.09C311.258 474.204 309.67 474.461 308.045 474.476L264.696 474.596L215.986 475.502C213.824 475.554 211.747 476.13 209.624 476.186L192.034 476.363L153.18 478.306L84.6101 478.391C75.2496 478.036 64.2371 476.949 60.9808 466.592C58.2572 457.929 58.4846 448.008 58.162 439.023L57.435 416.616C57.3834 414.215 56.8659 411.912 56.7514 409.539L56.6882 383.972C56.6774 377.118 57.0667 373.969 48.4436 372.789C49.3357 366.794 47.4589 359.768 49.299 354.026L48.9896 353.313L49.336 353.343C51.6346 353.445 56.3534 349.312 56.6132 346.835C57.0568 342.606 56.6792 337.982 56.6773 333.696L56.7476 273.59C56.803 271.165 57.4081 268.753 57.4383 266.374L57.5345 236.141C57.6001 233.422 58.1354 230.776 58.1972 228.063L58.4941 209.743L60.1742 190.926Z"/>
	<path fill="#9381FF" d="M281.735 269.125C284.896 268.806 292.988 271.753 291.625 275.455C289.109 277.011 280.591 272.74 281.735 269.125Z"/>
	<path fill="#231135" d="M247.179 351.313C256.76 350.82 256.403 362.097 247.717 364.36C238.343 363.535 237.859 354.053 247.179 351.313Z"/>
	<path fill="#231135" d="M286.908 376.715C260.788 379.41 258.979 339.397 284.75 337.753C295.961 337.038 304.208 346.762 304.763 357.393C303.627 366.644 298.939 372.2 290.478 375.539C289.593 375.888 287.566 376.202 286.908 376.715Z"/>
	<path fill="#F93A8F" d="M284.899 350.777L285.625 350.701C291.892 350.166 294.761 362.372 285.286 364.266C276.475 363.073 275.915 354.425 284.899 350.777Z"/>
	<defs>
		<linearGradient id="gradient_1" gradientUnits="userSpaceOnUse" x1="240.03999" y1="329.79199" x2="240.56599" y2="303.103">
			<stop offset="0" stop-color="#1E1E0D"/>
			<stop offset="1" stop-color="#171225"/>
		</linearGradient>
	</defs>
	<path fill="url(#gradient_1)" d="M234.153 302.856C240.713 302.627 257.868 301.846 263.047 306.856C266.489 310.187 267.916 322.098 264.375 325.728C260.258 329.948 251.723 329.651 246.265 329.825C239.41 330.502 222.375 331.353 217.551 327.182C212.132 322.496 214.242 313.906 218.489 309.184C222.619 304.591 228.216 303.203 234.153 302.856Z"/>
	<path fill="#F1D422" d="M225.212 316.908C227.914 317.705 230.786 316.704 233.5 316.518L233.951 316.491C232.3 318.28 227.618 319.156 225.675 317.368L225.212 316.908Z"/>
	<path fill="#F1D422" d="M246.978 310.546C249.135 310.37 253.607 309.922 255.298 311.44C256.525 312.542 255.968 313.651 254.651 314.144C252.576 314.604 243.941 315.109 245.375 310.889L246.978 310.546Z"/>
	<path fill="#FFF37E" d="M225.212 316.93C222.173 311.093 238.678 308.81 233.951 316.467L233.5 316.518C230.786 316.704 227.914 317.705 225.212 316.93Z"/>
	<path fill="#231135" d="M211.133 338.353C235.379 336.822 240.702 375.585 214.062 378.022C187.436 380.588 184.649 340.675 211.133 338.353Z"/>
	<path fill="#F1D422" d="M210.225 350.518C219.014 350.051 221.72 362.143 212.763 364.793C202.405 364.853 201.155 353.414 210.225 350.518Z"/>
	<path fill="#231135" d="M282.087 416.949L280.651 417.193C276.095 417.77 264.279 405.277 260.584 401.919L251.622 394.251L228.925 409.861C225.301 412.328 221.827 414.751 217.513 415.825C207.596 413.888 200.55 396.957 202.149 388.109L202.22 387.75C202.975 383.649 207.177 379.262 211.625 381.038C216.339 386.443 216.988 393.86 218.782 400.525C221.977 398.795 224.901 396.517 227.827 394.375L238.158 386.637C242.575 383.068 246.887 378.959 252.111 376.618C260.57 380.358 272.52 393.746 278.53 400.895C279.28 399.505 279.737 397.876 280.261 396.387L282.516 389.49C283.502 385.887 283.411 382.438 287.417 381.331C305.372 380.542 291.152 411.129 282.085 416.868L282.087 416.949Z"/>
	<path fill="#F8F7FF" d="M392.445 471.404C391.469 470.796 391.179 472.096 391.987 468.81L413.95 381.562L423.717 345.25L433.441 298.334C434.277 293.114 439.115 269.976 434.125 266.176C431.288 264.016 415.694 263.946 411.388 263.685L363.603 260.509C357.424 260.078 349.057 260.554 344.385 255.796L344.717 255.267C351.725 243.165 389.081 245.763 401.102 245.806L423.932 245.927C426.559 246.055 429.122 246.683 431.75 246.807L429.562 246.438C428.556 246.172 427.636 246.133 426.578 246.219L426.25 246.25C425.334 245.639 410.513 245.527 407.125 245.72L406.625 245.75C405.915 245.396 404.901 245.394 404.11 245.462L402.874 244.627L402.872 240.458C405.685 240.072 414.323 240.703 417.375 241.123L417.625 241.373C419.967 240.856 421.553 241.67 423.43 241.538L423.875 241.5C424.506 241.493 425.108 241.54 425.75 241.5L426.001 241.749C426.922 241.864 427.827 241.802 428.75 241.75C429.413 242.192 431.844 242.294 432.75 242.25L434 242.561C434.27 242.598 434.529 242.709 434.801 242.727L435.25 242.75C435.747 243.146 438.005 243.696 438.783 243.825L439.127 243.875C439.769 244.07 440.144 244.046 440.82 244.017C446.505 246.476 449.934 249.127 452.258 255C465.343 288.068 440.534 384.931 429.836 421.783C426.777 432.322 424.09 443.453 419.691 453.506C414.099 466.287 405.325 469.709 392.445 471.404Z"/>
	<path fill="#231135" d="M286.949 428.163C300.913 426.892 316.656 418.856 324.233 407.058C327.253 402.356 327.889 395.797 333.283 393.128C336.73 391.422 344.838 396.639 341.64 404.21C325.578 442.235 281.84 444.393 246.296 444.424L228.625 444.335C182.588 442.587 155.444 427.858 155.457 376.552C155.463 353.916 159.168 325.337 183.941 316.877L189.734 315.142C192.441 314.272 192.388 313.389 193.59 310.754C205.323 285.037 218.109 280.722 244.915 280.698C266.159 280.679 278.931 284.336 289.411 304.165C291.391 307.91 289.873 308.263 294.294 308.387C296.935 308.461 299.513 308.397 302.035 309.292C326.519 317.973 331.357 333.393 338.934 355.847C339.931 358.801 341.346 361.751 342.104 364.767C343.638 370.869 331.133 379.316 326.522 364.246C325.129 359.696 324.137 354.452 322.105 350.196C319.571 341.314 314.982 330.245 306.479 325.542C298.804 321.298 288.17 323.033 284.295 320.426C279.493 317.197 276.516 308.029 273.005 303.253C266.952 295.02 256.978 294.249 247.542 294.217C225.482 294.141 213.616 294.923 204.75 317.809C200.519 328.732 199.725 325.778 189.073 329.219C183.162 331.128 178.923 334.415 175.969 339.875C168.05 354.515 168.108 385.762 172.937 401.59C181.521 429.728 215.975 430.523 240.47 430.508L266.79 429.828C273.494 429.445 280.321 429.297 286.949 428.163Z"/>
</svg>
