<?xml version="1.0" encoding="utf-8" ?>
<svg xmlns="http://www.w3.org/2000/svg" xmlns:xlink="http://www.w3.org/1999/xlink" width="512" height="512">
	<path fill="#B8B8FF" d="M453.285 260.779C461.164 259.859 463.993 269.985 455.987 273.024C448.171 274.658 445.284 264.569 453.285 260.779Z"/>
	<path fill="#9381FF" d="M59.2173 142.401L59.4234 142.822C60.1356 144.223 61.4006 144.905 62.2383 146.125C63.135 147.432 63.6911 149.551 64.4828 151.018L64.3471 151.219C62.3482 154.228 62.254 156.848 58.755 158.964C54.4489 159.268 48.368 154.465 49.8389 149.913C51.1248 145.933 55.7519 144.012 59.2173 142.401Z"/>
	<path fill="#B8B8FF" d="M224.219 7.10175C218.518 12.9448 208.932 18.2783 204.544 23.3244L201.682 25.875C203.783 21.8472 205.976 20.0572 207.818 14.9062L187.46 25.0803C185.181 26.3379 183.207 28.063 180.902 29.2514L205.327 4.69407C208.092 2.28415 208.528 1.94326 212.152 1.94946L220.488 1.98972L221.964 2.75C219.29 5.78622 215.988 8.35309 212.619 10.5783C217.157 10.035 222.002 7.10473 224.219 7.10175Z"/>
	<path fill="#B8B8FF" d="M224.614 20.4805C228.273 13.8411 232.557 7.60906 238.444 2.71041C240.002 1.41326 251.84 1.9234 254.372 2.19458L254.226 3.625C252.957 11.1732 247.396 14.9741 241.626 19.2043C238.909 22.1569 236.33 24.8765 234.43 28.4498C235.308 24.3674 236.045 22.6843 239.142 19.6281L238.938 19.3843L234.763 20.7145C232.921 21.0259 231.212 21.8008 229.459 22.4209L229.037 21.7669L231.124 19.9908C228.86 19.8802 227.215 19.6545 225.129 20.6735L224.614 20.4805Z"/>
	<path fill="#B8B8FF" d="M461.251 136.127L461.447 154.625C462.122 175.237 462.666 194.356 460.853 215.125C460.462 219.597 460.46 224.527 459.302 228.875L459.217 229.203C458.864 230.492 458.35 231.14 457.187 231.806L455.977 232.355C454.963 232.025 453.947 231.746 453.031 231.187L453.064 230.974C454.408 221.884 454.26 212.605 454.263 203.447L454.219 181.689C454.16 179.476 453.824 177.322 453.703 175.125L453.267 161.945C452.874 153.524 452.034 146.578 452.407 137.732C455.487 137.546 458.156 137.183 461.251 136.127Z"/>
	<path fill="#9381FF" d="M64.9157 118.267C60.7193 119.315 50.5676 121.283 48.9815 115.15C48.4104 112.941 48.6148 110.224 48.6062 107.945L49.1308 89.1331C49.8075 74.697 53.0813 59.3767 64.2995 49.2999C69.4254 44.6955 85.7419 37.2239 91.6605 43.8006C92.6145 49.8455 91.7382 52.2377 86.2578 54.587C84.3812 55.33 81.9749 56.0847 80.3962 57.3475C69.894 62.2576 67.3146 74.7757 66.6384 85.3C65.6868 91.1993 65.4319 97.3348 65.5263 103.308L65.3661 112.478C65.2556 114.325 64.7711 116.448 64.9157 118.267Z"/>
	<path fill="#9381FF" d="M156.366 136.057C161.296 135.842 166.387 136.147 171.339 136.156L272.555 136.202C282.337 136.465 282.655 148.48 274.071 150.722L273.881 150.757C268.242 151.334 262.3 150.992 256.624 150.992L157.746 151.04C148.646 150.681 148.189 138.324 156.366 136.057Z"/>
	<path fill="#9381FF" d="M186.564 88.983L263.511 88.9861C266.83 88.9891 270.409 88.738 273.699 89.106C283.076 90.1549 281.636 102.941 272.979 104.554C269.932 105.122 266.13 104.417 263.007 104.353L244.687 104.292L167.737 104.302C164.506 104.302 161.078 104.522 157.866 104.184C148.738 103.225 149.296 90.352 157.19 89.1664C160.353 88.6915 163.917 88.9843 167.125 88.9825L186.564 88.983Z"/>
	<path fill="#9381FF" d="M223.479 182.708L310.588 182.754C314.296 182.76 318.207 182.517 321.887 182.886C327.804 183.479 329.351 191.315 325.625 195.219C322.48 198.515 316.937 197.734 312.815 197.736L255.063 197.742L168.562 197.798C164.773 197.805 160.914 197.987 157.136 197.737C148.069 197.135 148.735 184.516 156.983 182.966L157.375 182.899C159.687 182.492 162.25 182.702 164.599 182.702L223.479 182.708Z"/>
	<path fill="#9381FF" d="M454.631 292.29C458.349 292.088 460.956 292.583 463.068 296.105L463.392 296.649C464.868 298.706 464.562 302.978 464.576 305.491L464.481 443C464.214 448.222 463.55 453.712 462.745 458.875C458.948 483.223 452.383 497.12 428.264 504.704C418.399 507.805 410.395 508.313 400.235 508.254C395.079 507.424 387.705 505.155 391.293 498.544C395.661 490.498 405.334 491.241 413.052 490.436C438.139 487.821 442.584 478.308 445.978 456.052C447.61 445.358 447.976 436.499 447.97 425.678L448.01 305.386C448.011 302.997 447.519 299.085 448.677 296.948L448.864 296.625C450.202 294.295 452.118 293.085 454.631 292.29Z"/>
	<path fill="#9381FF" d="M167.483 355.205C162.655 358.363 158.438 359.763 152.897 361.118C148.655 352.601 147.484 340.59 147.409 331.021C146.966 275.035 191.798 226.616 247.844 222.374C260.711 221.4 274.878 222.34 287.017 226.636C297.819 230.458 324.036 243.428 329.406 254.663C328.449 257.064 327.078 258.663 325.425 260.593L333.38 258.84C336.057 260.023 338.618 262.379 339.689 265.163L339.812 265.5C341.015 268.734 338.108 270.996 336.021 273.081C340.159 278.51 341.827 286.716 342.758 293.396C346.315 290.215 350.193 286.722 354.695 284.979C359.54 298.782 361.48 312.943 361.489 327.479C361.52 375.615 336.289 409.905 290.45 425.856C274.426 431.433 257.816 432.492 241.02 430.839C201.082 426.909 168.432 406.495 154.483 368.512C158.748 365.925 163.291 363.793 167.956 362.044C168.821 362.266 168.93 362.26 169.546 362.966C171.393 367.372 179.774 385.619 183.374 388.404C189.631 384.922 196.543 379.958 202.141 375.554L207.16 371.612C208.18 370.826 209.701 369.23 211.025 370.008L212.802 370.179C213.747 370.269 214.368 370.833 215.092 371.399C215.222 370.94 215.393 370.65 215.635 370.244C216.626 373.583 218.94 376.546 221.062 379.25L230.26 386.812C233.491 388.544 236.711 390.062 240.233 391.105C245.046 392.264 249.771 393.051 254.728 393.203L259.703 393.14C260.023 393.126 260.859 392.967 261.114 393.099L261.376 393.137C265.072 393.644 268.132 391.087 268.125 394L267.751 394.562C267.229 395.66 265.942 396.622 265.079 397.484L256.649 405.615C256.045 406.219 256.739 405.577 256.001 406.001L255.544 406.493C253.079 409.233 249.146 410.816 247.037 413.695C241.182 418.402 234.026 421.191 228.396 426.253L240.271 427.289C240.711 427.306 241.677 427.249 242.044 427.466C259.795 429.104 282.436 422.973 296.899 413.201C313.813 401.773 330.498 381.928 338.46 362.787C339.693 359.824 340.94 357.019 341.567 353.853C342.882 350.691 343.542 347.537 344.137 344.183L344.19 344.154C344.876 340.301 344.937 336.423 344.973 332.522L344.973 324.959C345.121 321.137 344.369 316.787 343.655 313.019L342.914 307.708C342.374 303.968 341.786 299.93 340.654 296.322L341.779 294.576C339.899 292.819 339.11 290.632 337.755 288.5L332.545 281C332.219 279.588 331.258 277.992 330.594 276.689L327.612 272.283C323.458 265.874 313.503 258.48 307.343 254.357L302.516 251.084C298.071 247.996 293.217 245.327 288.243 243.2L283.586 241.19C275.637 237.726 267.579 236.979 258.995 237C231.624 237.068 209.543 246.7 190.164 266.496C171.786 285.271 164.398 306.33 164.441 332.552C164.449 336.869 164.3 341.454 165.292 345.695C166.012 348.777 167.296 351.898 167.566 355.059L167.483 355.205Z"/>
	<path fill="#B8B8FF" d="M186.272 392.575C187.18 392.564 187.988 392.482 188.874 392.284C190.238 394.897 191.661 396.019 193.602 398.035L193.765 398.179C193.24 398.728 192.677 399.474 191.988 399.782C189.809 397.838 188.366 394.753 186.272 392.575Z"/>
	<path fill="#F8F7FF" d="M215.635 370.244C216.626 373.583 218.94 376.546 221.062 379.25C217.384 380.779 214.118 383.726 210.887 386.038L193.765 398.179L193.602 398.035C191.661 396.019 190.238 394.897 188.874 392.284C192.475 390.003 215.019 373.777 215.092 371.399C215.222 370.94 215.393 370.65 215.635 370.244Z"/>
	<path fill="#F8F7FF" d="M203.505 412.323C206.277 411.159 212.167 404.246 214.513 402.001C219.81 396.933 225.431 392.345 230.26 386.812C233.491 388.544 236.711 390.062 240.233 391.105C236.233 392.537 233.756 395.42 230.751 398.268L221.398 407.129C218.724 409.577 215.834 411.853 212.922 414.011C209.971 416.199 207.584 414.278 203.943 412.551L203.505 412.323Z"/>
	<path fill="#9381FF" d="M452.229 137.732C451.393 137.503 450.189 137.768 449.32 137.881L430.625 140.265C423.256 140.826 415.177 140.815 407.827 140.309L397.766 139.158C367.08 135.842 350.06 127.386 342.634 96.5009C339.555 83.6935 338.223 70.4898 337.271 57.375L335.968 22.3246C332.811 21.3675 328.723 21.1923 325.43 20.7848L301.172 18.6697L259.103 18.7083C259.924 17.5794 259.955 16.3985 260.469 15.1545L263.358 8.81932C266.941 1.29513 267.211 1.97858 275.191 1.9713L286.52 2.07646C287.773 2.1505 288.999 2.41958 290.25 2.50705L306.835 3.17185C315.507 3.59316 324.333 4.71059 332.924 5.93196C363.887 10.3334 369.485 13.1469 391.171 36.2322L448.614 98.5505C459.403 110.522 462.006 120.747 461.256 136.127C458.156 137.183 455.487 137.546 452.229 137.732Z"/>
	<path fill="#F8F7FF" d="M353.451 38.0021C353.736 34.8737 353.061 31.2526 354.12 28.2491C357.184 26.5152 363.032 30.3406 365.245 32.3474C364.396 32.3618 363.546 32.4022 362.699 32.3072L354 38.5227L353.451 38.0021Z"/>
	<path fill="#B8B8FF" d="M365.245 32.3474L367.997 34.8852C370.812 37.6821 373.932 40.4766 376.226 43.7236C379.292 46.0527 381.392 49.8922 384.183 52.5586C386.797 55.6844 389.7 58.4707 392.437 61.4725L406.974 77.3214C410.19 80.6949 414.072 83.8498 416.749 87.6803L425.118 96.4562C433 104.349 441.509 112.045 445.72 122.644C427.078 126.245 400.38 127.903 383.17 120.857C379.163 119.54 375.466 117.61 372.025 115.193L370.648 114.182C359.954 105.116 356.468 86.9842 355.398 73.4086L354.689 62.8482L353.933 44.6721C353.888 42.5319 354.071 40.0919 353.654 38.0021L354 38.5227L362.699 32.3072C363.546 32.4022 364.396 32.3618 365.245 32.3474Z"/>
	<path fill="#B8B8FF" d="M167.566 355.059C167.296 351.898 166.012 348.777 165.292 345.695C164.3 341.454 164.449 336.869 164.441 332.552C164.398 306.33 171.786 285.271 190.164 266.496C209.543 246.7 231.624 237.068 258.995 237C267.579 236.979 275.637 237.726 283.586 241.19L288.243 243.2C293.217 245.327 298.071 247.996 302.516 251.084L307.343 254.357C313.503 258.48 323.458 265.874 327.612 272.283L330.594 276.689C331.258 277.992 332.219 279.588 332.545 281L337.755 288.5C339.11 290.632 339.899 292.819 341.779 294.576L340.654 296.322C341.786 299.93 342.374 303.968 342.914 307.708L343.655 313.019C344.369 316.787 345.121 321.137 344.973 324.959L344.971 332.522C344.937 336.423 344.876 340.301 344.19 344.154L344.137 344.183C343.542 347.537 342.882 350.691 341.567 353.853C340.94 357.019 339.693 359.824 338.46 362.787C330.498 381.928 313.813 401.773 296.899 413.201C282.436 422.973 259.795 429.104 242.044 427.315C241.677 427.249 240.711 427.306 240.271 427.289L228.396 426.253C234.026 421.191 241.182 418.402 247.037 413.695C249.146 410.816 253.079 409.233 255.544 406.493L256.001 406.001C256.739 405.577 256.045 406.219 256.649 405.615L265.079 397.484C265.942 396.622 267.229 395.66 267.751 394.562L268.125 394C268.132 391.087 265.072 393.644 261.376 393.137L261.114 393.099C260.859 392.967 260.023 393.126 259.703 393.14L254.728 393.203C249.771 393.051 245.046 392.264 240.233 391.105C236.711 390.062 233.491 388.544 230.26 386.812L221.062 379.25C218.94 376.546 216.626 373.583 215.635 370.244C215.393 370.65 215.222 370.94 215.092 371.399C214.368 370.833 213.747 370.269 212.802 370.179L211.025 370.008C209.701 369.23 208.18 370.826 207.16 371.612L202.141 375.554C196.543 379.958 189.631 384.922 183.374 388.404C179.774 385.619 171.393 367.372 169.546 362.966C168.93 362.26 168.821 362.266 167.956 362.044C169.549 361.601 168.843 359.259 168.439 357.924L167.483 355.205L167.566 355.059Z"/>
	<path fill="#F8F7FF" d="M342.914 307.708L343.655 313.019C342.964 313.807 342.726 314.431 342.485 315.45L331.901 321.123C329.62 322.285 327.398 323.677 325.007 324.596C327.578 321.957 330.478 319.806 333.254 317.402L337.875 312.988C338.99 311.942 340.2 310.994 341.176 309.811L342.914 307.708Z"/>
	<path fill="#F8F7FF" d="M344.971 332.522C338.565 335.125 333.382 339.033 326.466 341.444C328.239 339.392 330.568 337.932 332.625 336.187L344.973 324.959L344.971 332.522Z"/>
	<path fill="#F8F7FF" d="M341.567 353.853C337.277 354.927 331.952 359.053 325.479 360.687C328.554 356.717 332.604 353.256 336.436 350.03L344.137 344.183C343.542 347.537 342.882 350.691 341.567 353.853Z"/>
	<path fill="#F8F7FF" d="M302.516 251.084L307.343 254.357C305.07 256.159 302.499 257.218 299.982 258.613L276.229 272.958C273.759 274.723 271.592 276.617 268.855 277.999C272.527 274.225 276.882 270.5 281.158 267.41L292.313 259.513C296.033 256.897 299.694 254.74 302.516 251.084Z"/>
	<path fill="#9381FF" d="M267.71 327.576C277.341 327.429 276.346 344.274 264.832 345.843C253.465 343.192 257.008 329.273 267.71 327.576Z"/>
	<path fill="#525081" d="M213.155 286.833C238.468 284.199 248.506 320.159 228.495 317.464C218.562 316.126 229.287 302.233 216.543 301.024C209.638 301.594 207.258 305.471 205.479 311.875C202.279 323.399 192.184 319.148 191.277 312.266C189.57 299.318 201.232 288.615 213.155 286.833Z"/>
	<path fill="#525081" d="M281.108 309.463C280.737 311.072 280.483 313.096 279.625 314.523C275.425 321.508 259.285 314.045 271.483 297.043C280.28 284.783 292.907 282.784 304.872 291.666L306.164 292.817C310.626 297.791 314.958 303.586 314.584 310.641C313.969 322.232 301.074 329.767 298.766 316.507C293.512 312.985 291.859 313.573 285.937 311.164L281.108 309.463Z"/>
	<path fill="#F8F7FF" d="M281.108 309.463C281.499 306.37 281.337 305.327 284 303.266C287.463 300.587 294.995 299.594 297.818 303.839C298.966 305.566 298.738 307.542 298.744 309.516L298.745 316.507C293.512 312.985 291.859 313.573 285.937 311.164L281.108 309.463Z"/>
	<path fill="#525081" d="M218.464 365.778C219.981 364.4 221.422 363.385 223.43 362.877C227.769 364.728 231.304 367.91 235.225 370.476C266.732 391.094 280.838 359.268 290.559 363.405C299.202 367.084 293.567 376.217 288.67 380.526C283.411 385.152 275.766 390.109 268.812 391.891L261.114 393.099C260.859 392.967 260.023 393.126 259.703 393.14L254.728 393.203C249.771 393.051 245.046 392.264 240.233 391.105C236.711 390.062 233.491 388.544 230.26 386.812L221.062 379.25C218.94 376.546 216.626 373.583 215.635 370.244C216.35 368.645 217.471 367.212 218.464 365.778Z"/>
	<path fill="#9381FF" d="M95.4556 59.7905C96.1035 52.8169 96.7441 46.0873 98.625 39.3192C108.318 4.44195 139.155 1.5079 169.875 3.07226C172.941 3.22841 175.918 3.11631 178.913 3.93249L181.161 6.71973C179.765 10.8063 177.559 15.5938 174.083 18.3225C156.35 20.2667 134 13.6473 121.039 29.6449C108.617 44.9773 110.186 89.3772 109.884 108.356C109.847 110.683 109.439 112.969 109.404 115.313L109.343 131.5C109.296 133.208 108.963 134.916 108.883 136.634L108.344 169.88C108.28 172.251 107.803 174.559 107.77 176.956L107.799 416.132L109.5 442.053C110.947 455.121 113.12 478.615 125.766 485.784C126.528 485.495 127.319 485.209 128.017 484.784L137.311 478.552C141.439 475.993 139.155 477.915 137 479.419L127.508 486.91C138.788 494.298 162.955 494.744 177.117 495.364C179.051 495.448 180.888 496.013 182.871 496.08L300.935 496.111L313.724 495.251C315.167 495.203 316.57 495.416 318 495.414L325.833 495.219C329.664 495.195 333.539 495.306 337.361 495.034C344.497 494.527 360.854 490.348 366.603 491.158C374.079 492.211 377.19 506.97 365.548 508.27C356.98 509.227 349.589 506.871 341.549 507.37C336.806 507.664 332.492 509.64 327.787 509.895L160.75 509.977C149.324 509.946 138.115 507.752 126.617 508.13C120.642 508.327 115.029 509.683 109.055 509.776C96.159 509.977 82.4516 506.78 71.3334 500.087C52.1309 488.53 47.6235 463.658 47.0516 442.945L47.0466 388.25C47.0903 385.86 47.7321 383.525 47.7657 381.094L47.8417 332.874C47.8826 330.127 48.5202 327.419 48.5425 324.625L48.6314 206.529C48.765 201.456 52.5911 199.753 56.6198 197.65C56.1585 189.391 53.8982 187.254 52.3522 180.497C53.5113 178.689 55.2418 177.277 56.9775 176.04L58.0467 174.845C57.8424 171.254 57.8359 167.938 58.6563 164.421C58.9838 163.017 59.9856 160.605 59.5031 159.25L58.755 158.964C62.254 156.848 62.3482 154.228 64.3471 151.219L64.4828 151.018C63.6911 149.551 63.135 147.432 62.2383 146.125C61.4006 144.905 60.1356 144.223 59.4234 142.822L59.2173 142.401C67.3474 136.92 74.7843 130.748 82.4888 124.714C85.9367 122.014 87.9642 118.993 92.4939 118.225L92.6175 103.942L92.9064 103.942C93.866 99.4709 93.4958 94.2609 93.5113 89.7065L95.4556 59.7905Z"/>
	<path fill="#B8B8FF" d="M65.7157 217.785C68.4953 217.229 70.3083 215.281 72.5504 213.719L80.887 208.266C83.9842 206.22 87.7708 202.668 91.5131 202.125C91.5056 205.543 91.8425 233.515 91.37 234.423L90.8794 240.364L90.6487 243.368C83.2819 247.568 70.6105 261.538 66.7316 262.441L66.78 258.536L65.7157 217.785Z"/>
	<path fill="#F8F7FF" d="M66.78 258.536L67.0471 251.227C68.8534 249.365 72.8114 246.513 75.1531 244.458C77.5613 242.344 87.564 233.514 90.819 233.625L91.1086 234.423L90.8794 240.364L90.6487 243.368C83.2819 247.568 70.6105 261.538 66.7316 262.441L66.78 258.536Z"/>
	<path fill="#B8B8FF" d="M59.2173 142.401C67.3474 136.92 74.7843 130.748 82.4888 124.714C85.9367 122.014 87.9642 118.993 92.4939 118.225L92.5709 132.706C92.5671 135.583 92.7161 138.619 92.3385 141.471L92.0191 155.847L91.542 171.111L91.519 193.372L91.5071 202.125C87.7708 202.668 83.9842 206.22 80.887 208.266L72.5504 213.719C70.3083 215.281 68.4953 217.229 65.7224 217.785L65.5252 209.673L64.7171 200.99L60.2232 197.413C58.8753 198.321 57.809 198.75 56.8634 197.131L56.6198 197.65C56.1585 189.391 53.8982 187.254 52.3522 180.497C53.5113 178.689 55.2418 177.277 56.9775 176.04L58.0467 174.845C57.8424 171.254 57.8359 167.938 58.6563 164.421C58.9838 163.017 59.9856 160.605 59.5031 159.25L58.755 158.964C62.254 156.848 62.3482 154.228 64.3471 151.219L64.4828 151.018C63.6911 149.551 63.135 147.432 62.2383 146.125C61.4006 144.905 60.1356 144.223 59.4234 142.822L59.2173 142.401Z"/>
	<path fill="#F8F7FF" d="M65.5252 209.673C69.7105 209.476 76.5385 203.066 79.927 200.716L91.5297 193.372L91.5071 202.125C87.7708 202.668 83.9842 206.22 80.887 208.266L72.5504 213.719C70.3083 215.281 68.4953 217.229 65.7224 217.785L65.5252 209.673Z"/>
	<path fill="#F8F7FF" d="M65.5331 170.424C61.2933 168.377 69.2704 163.02 69.2034 160.375L68.4885 159.375C70.0355 158.832 71.4527 157.536 72.75 156.545L79.41 151.411C83.731 148.124 88.3294 145.236 92.2594 141.471L92.0191 155.847C87.5591 156.853 75.6001 165.93 69.7405 168.598C68.369 169.222 66.7972 169.611 65.5331 170.424Z"/>
	<path fill="#B8B8FF" d="M66.6438 262.441C70.6105 261.538 83.2819 247.568 90.6487 243.368L90.9578 240.364L90.83 322.831C90.7892 325.124 90.3095 327.751 90.7321 329.992L90.8534 375.059C90.8849 406.449 89.4323 438.751 97.1865 469.453C97.9035 472.292 99.2477 475.371 99.688 478.211C100.724 480.708 101.739 483.24 103.019 485.625L106.75 491.979L101.101 492.017C63.0262 491.096 64.4046 455.878 64.4215 426.886L64.5566 404.566L66.5331 327.334L66.6438 262.441Z"/>
</svg>
