<?xml version="1.0" encoding="utf-8" ?>
<svg xmlns="http://www.w3.org/2000/svg" xmlns:xlink="http://www.w3.org/1999/xlink" width="512" height="512">
	<path fill="#9381FF" d="M502.01 282.235C504.635 282.675 507.936 286.687 504.866 288.643L504.221 289.001C501.228 288.989 499.521 287.569 497.835 285.155C499.124 283.567 499.896 282.56 502.01 282.235Z"/>
	<path fill="#B8B8FF" d="M500.943 315.212L501.125 314.265C502.463 313.84 504.478 314.082 505.91 314.096C505.446 325.21 503.664 336.037 502.001 347.012L499.306 363.693C496.812 376.201 493.416 388.686 489.295 400.756C470.233 456.598 437.704 480.95 384.352 497.398C375.018 500.275 365.221 503.097 355.468 504.069C352.989 504.302 339.831 506.625 339.125 504.696C342.027 502.433 345.597 501.665 349.125 500.913L374.875 495.78C409.468 486.887 433.826 474.429 457.325 448.008C480.71 421.714 490.847 385.78 496.594 351.677C497.603 345.689 497.97 339.585 498.649 333.554L500.943 315.212Z"/>
	<defs>
		<linearGradient id="gradient_0" gradientUnits="userSpaceOnUse" x1="171.52699" y1="300.58801" x2="61.8256" y2="460.14499">
			<stop offset="0" stop-color="#7E68FC"/>
			<stop offset="1" stop-color="#B8BBFF"/>
		</linearGradient>
	</defs>
	<path fill="url(#gradient_0)" d="M8.31239 188.727L8.71253 188.625C8.84415 189.075 8.88964 189.406 8.8725 189.875L8.6225 190.25C8.3774 190.857 8.53693 191.754 8.6225 192.375L8.3725 195.875C8.13705 196.112 7.37345 204.986 7.6225 206.125L7.6225 207.75C7.62349 208.342 7.45005 209.073 7.8725 209.5L7.625 210.25L8 212.125L8.49875 212.251C8.60425 212.696 8.63299 212.985 8.5625 213.438L8.75 214.75C9.15445 215.055 9.49875 215.109 9.49875 215.688L9.3125 216.688L10.125 218.5L10.6725 218.798C10.8019 218.286 10.872 217.882 11.25 217.5C11.25 216.684 11.1355 215.97 11.5 215.25L11.5547 215.023C11.7422 214.273 12.2598 213.454 12.6875 212.812L11.8125 212.688C11.4405 212.167 11.3851 211.455 11.5625 210.812L11.75 210.375C11.9506 209.481 11.6381 208.907 12 208L12.3394 206.618C12.468 206.276 12.4141 206.405 12.6952 206.062L12.6055 206.367C12.0708 208.258 11.9362 210.174 11.9228 212.125C13.932 213.595 12.3735 213 11.3883 216.828L11.5235 217.273C12.2336 219.662 10.6685 222.107 11.7239 224.074L12.4985 224.559C11.8645 225.17 11.6401 225.51 11.4687 226.375L11.3956 226.696C10.9994 228.559 10.9725 233.124 10.9068 235.234L10.9333 281.156L14.3901 322.757C15.6481 332.442 17.7667 341.867 19.8434 351.388C29.3598 395.017 43.9452 437.343 81.3744 464.677C83.5691 466.28 86.2152 468.447 88.7229 469.446C114.005 485.841 143.395 493.206 172.875 497.506L198.625 500.757L243.875 503.165C252.376 503.547 264.8 503.338 272.282 504.724C264.941 506.388 257.258 505.85 249.763 505.849L214.888 505.069L168.629 501.34C167.827 501.257 166.606 500.965 165.826 501.087C150.824 499.068 134.832 497.055 120.507 491.853C111.935 490.017 93.1686 482.243 87.4326 477.429C85.1159 476.575 82.5388 474.457 80.5156 473.018C44.0411 447.09 28.3389 418.202 17.5293 374.408L11.4083 345.875C9.20498 333.075 7.84749 319.917 6.77297 306.971L5.98323 289.372C5.87057 287.13 5.46144 284.924 5.38023 282.67L5.4644 230.899L8.31239 188.727Z"/>
	<defs>
		<linearGradient id="gradient_1" gradientUnits="userSpaceOnUse" x1="142.166" y1="7.1642299" x2="314.52899" y2="370.45999">
			<stop offset="0" stop-color="#8676FF"/>
			<stop offset="1" stop-color="#D8E3FF"/>
		</linearGradient>
	</defs>
	<path fill="url(#gradient_1)" d="M172.563 8.41223C175.308 8.0304 178.435 7.74572 181.194 8.06894L181.457 8.46144C181.165 9.13022 180.889 9.78411 180.496 10.4019C184.04 8.98807 187.422 8.58581 191.189 8.15931L205.25 7.01794C222.961 5.7483 240.688 5.93156 258.449 5.97512L288.376 6.0925L311.06 7.57645C324.285 8.30218 337.486 8.76257 350.606 10.748L366.834 14.0328C408.565 23.1582 442.505 38.2642 467.96 74.8326C497.202 116.841 503.017 176.022 505.392 225.57L505.528 248.421C505.531 250.889 505.819 253.644 505.181 256.037L505.107 256.331C504.653 257.755 503.692 259.028 502.337 259.652L501.284 260.116C500.822 259.678 500.674 259.648 500.5 259.012L500.047 259.43C499.846 260.021 499.48 260.495 499.125 261L497.75 261.958C497.305 262.491 496.952 262.798 496.25 262.875L496.014 263.282C495.677 264.475 494.405 264.654 494.125 265.505L493.121 266.026C492.651 266.067 492.914 266.043 492.375 266.25L491.125 267.289C490.634 267.309 490.688 267.348 490.25 267.516L489.75 267.625C489.413 267.715 489.264 267.8 488.938 267.947L488.312 268.027C487.824 268.412 486.068 268.976 485.562 268.812L483.562 269.674L483.125 269.5C482.729 269.646 482.547 269.71 482.23 270L481.562 270.062C480.968 270.262 480.743 270.458 480.125 270.25L478.562 270.812C477.821 270.737 477.835 271.161 477.062 271.062L476.312 271.312C475.864 271.474 475.592 271.533 475.25 271.877L474.812 271.812C474.142 271.766 474.092 272.127 473.5 272.125L472.562 272.312C472.163 272.344 471.768 272.606 471.5 272.877L471.062 272.812C470.315 272.761 470.33 273.16 469.562 273.062L468.812 273.312C468.381 273.311 467.971 273.625 467.5 273.625L464.746 274.527C464.189 274.882 463.701 274.672 463.25 275.127L462.812 275.062C462.071 275.329 461.588 275.875 460.75 275.875L458 277.127C457.616 277.376 457.239 277.373 456.812 277.312L456.617 277.523C456.059 278.082 456.742 277.427 456 277.875L455.312 278.062C454.554 278.821 451.813 280.121 450.875 280.127L450.062 280.562C449.481 281.144 448.887 281.143 448.25 281.627L447.762 281.81C447.255 281.981 446.383 282.491 446 282.877L444.762 283.31C443.838 283.622 440.73 284.892 440 285.627L438.5 286.377C438.238 286.542 437.806 286.625 437.5 286.625L436.562 287.062C435.981 287.024 435.164 287.461 434.75 287.875L432.062 288.562C431.63 288.562 431.222 288.875 430.75 288.875L429.812 289.062C428.624 289.56 427.078 289.196 426.123 289.875L425.047 289.723C424.074 289.028 425.513 290.029 424.561 289.5L424.25 289.25C423.158 289.371 422.212 288.313 421.249 288.001L420.625 287.627C420.015 287.727 419.792 287.797 419.443 287.875L418.781 287.5C418.136 289.563 418.576 292.989 418.574 295.198L418.564 313.322C418.562 316.131 418.76 319.1 418.517 321.892L418.013 114.724C417.997 111.431 418.05 108.007 417.548 104.75L416.558 97.0931C409.084 54.2578 374.209 58.3815 340.209 58.2856C335.95 58.2736 331.865 57.8595 327.648 57.7174L297.122 56.5807L266.625 56.4604C263.981 56.4352 261.365 55.7831 258.684 55.7344L199.654 55.6847C175.462 55.7096 169.769 62.2634 152.699 77.1919L121.524 106.359C116.502 111.389 110.964 116.415 106.726 122.124L103.964 126.232C101.136 130.862 99.9785 127.48 95.4736 132.053C89.8306 137.781 91.5306 149.936 91.5363 157.164L91.5743 180.237C91.647 182.647 92.1543 185.023 92.2206 187.456L92.7782 241.934L92.8665 381.5C92.9496 383.794 93.529 386.033 93.5624 388.375C93.8223 406.611 91.0332 436.286 105.702 450.033L109.549 453.047L109.069 453.5C109.033 456.101 106.241 456.889 104.261 458.031L95.621 463.012C93.1374 464.44 90.7002 466.369 88.4988 467.749L87.625 468.377C88.0492 468.737 88.3797 469.007 88.7229 469.446C86.2152 468.447 83.5691 466.28 81.3744 464.677C43.9452 437.343 29.3598 395.017 19.8434 351.388C17.7667 341.867 15.6481 332.442 14.3901 322.757L10.9333 281.156L10.9068 235.234C10.9725 233.124 10.9994 228.559 11.3956 226.696L11.4687 226.375C11.6401 225.51 11.8645 225.17 12.4985 224.559L11.7239 224.074C10.6685 222.107 12.2336 219.662 11.5235 217.273L11.3883 216.828C12.3735 213 13.932 213.595 11.9228 212.125C11.9362 210.174 12.0708 208.258 12.6055 206.367L12.6952 206.062C12.4141 206.405 12.468 206.276 12.3394 206.618L12 208C11.6381 208.907 11.9506 209.481 11.75 210.375L11.5625 210.812C11.3851 211.455 11.4405 212.167 11.8125 212.688L12.6875 212.812C12.2598 213.454 11.7422 214.273 11.5547 215.023L11.5 215.25C11.1355 215.97 11.25 216.684 11.25 217.5C10.872 217.882 10.8019 218.286 10.6725 218.798L10.125 218.5L9.3125 216.688L9.49875 215.688C9.49875 215.109 9.15445 215.055 8.75 214.75L8.5625 213.438C8.63299 212.985 8.60425 212.696 8.49875 212.251L8 212.125L7.625 210.25L7.8725 209.5C7.45005 209.073 7.62349 208.342 7.6225 207.75L7.6225 206.125C7.37345 204.986 8.13705 196.112 8.3725 195.875L8.6225 192.375C8.53693 191.754 8.3774 190.857 8.6225 190.25L8.8725 189.875C8.88964 189.406 8.84415 189.075 8.71253 188.625L8.31239 188.727C8.40992 178.898 11.4036 169.911 12.968 160.381C13.3558 158.019 13.1949 155.569 13.4479 153.185C13.8918 149.002 15.9818 136.512 17.9026 132.586C18.7924 127.434 20.8417 121.984 22.538 117.051C42.9185 57.785 79.1286 29.4554 137.48 14.6607C149.109 11.7125 160.575 9.40322 172.563 8.41223Z"/>
	<defs>
		<linearGradient id="gradient_2" gradientUnits="userSpaceOnUse" x1="200.38699" y1="52.632099" x2="313.10001" y2="478.37399">
			<stop offset="0" stop-color="#5A2EA8"/>
			<stop offset="1" stop-color="#687EAB"/>
		</linearGradient>
	</defs>
	<path fill="url(#gradient_2)" d="M109.549 453.047L105.702 450.033C91.0332 436.286 93.8223 406.611 93.5624 388.375C93.529 386.033 92.9496 383.794 92.8665 381.5L92.7782 241.934L92.2206 187.456C92.1543 185.023 91.647 182.647 91.5743 180.237L91.5363 157.164C91.5306 149.936 89.8306 137.781 95.4736 132.053C99.9785 127.48 101.136 130.862 103.964 126.232L106.726 122.124C110.964 116.415 116.502 111.389 121.524 106.359L152.699 77.1919C169.769 62.2634 175.462 55.7096 199.654 55.6847L258.684 55.7344C261.365 55.7831 263.981 56.4352 266.625 56.4604L297.122 56.5807L327.648 57.7174C331.865 57.8595 335.95 58.2736 340.209 58.2856C374.209 58.3815 409.084 54.2578 416.558 97.0931L417.548 104.75C418.05 108.007 417.997 111.431 418.013 114.724L418.052 321.892L417.971 399.125C417.545 415.038 417.529 438.428 405.939 449.97C394.232 461.629 377.366 459.875 362.26 459.351L325.75 458.146L297.046 456.439L284.389 456.317C282.183 456.265 280.019 455.859 277.799 455.814L218.127 455.779C215.296 455.786 212.511 456.248 209.678 456.312L155.959 458.409C139.712 459.09 124.427 461.242 109.549 453.047Z"/>
	<path fill="#F8F7FF" d="M130.967 127.998L122.723 128.216L123.565 126.977C125.831 123.604 129.043 120.566 131.852 117.641L170.542 80.8393C172.226 79.3735 177.305 75.9628 178.113 75.0244L178.204 80.9736L178.056 85.6689C176.035 86.0381 173.888 86.3323 172.024 87.2275C161.453 92.3021 144.194 112.813 136.455 121.555C134.607 123.644 132.964 126.074 130.967 127.998Z"/>
	<path fill="#78E4FD" d="M178.191 80.9736C178.195 89.8469 179.372 114.912 172.82 121.38C165.619 128.487 153.108 127.956 143.747 127.993L130.967 127.998C132.964 126.074 134.607 123.644 136.455 121.555C144.194 112.813 161.453 92.3021 172.024 87.2275C173.888 86.3323 176.035 86.0381 178.056 85.6689L178.191 80.9736Z"/>
	<defs>
		<linearGradient id="gradient_3" gradientUnits="userSpaceOnUse" x1="411.71201" y1="438.37799" x2="300.14099" y2="102.434">
			<stop offset="0" stop-color="#B0B6FF"/>
			<stop offset="1" stop-color="#FEEDFE"/>
		</linearGradient>
	</defs>
	<path fill="url(#gradient_3)" d="M382.957 74.0686C404.095 78.7713 404.757 110.032 404.749 126.887L404.678 197.202C404.654 199.664 404.275 202.109 404.237 204.585L404.631 406.142L403.334 419.935C402.823 424.465 402.35 429.045 401.323 433.492C397.334 450.773 373.217 449.159 360.125 448.678L316.969 445.823C311.312 445.312 305.233 445.396 299.677 444.342L299.367 444.266L300.875 443.877C301.374 444.093 301.9 444.291 302.453 444.236L303.375 444.127C303.971 444.499 306.714 444.698 307.625 444.698L308.75 444.689C309.457 444.643 309.994 444.8 310.688 444.876L310.435 444.249C310.588 443.251 310.952 441.471 310.767 440.488L305.139 440.332C308.293 439.996 311.654 440.394 314.846 440.242C326.958 439.665 337.72 436.762 348 430.254C373.2 414.3 382.045 391.348 389.529 363.79L395.085 343.067C396.94 334.705 396.489 326.755 396.484 318.233L396.401 301.568C396.328 299.728 395.918 297.93 395.874 296.086L395.452 268.071C395.391 265.664 394.859 263.335 394.819 260.948L394.727 232.173C394.677 229.712 394.131 227.336 394.087 224.902L393.418 128.375C392.56 111.473 393.426 91.2429 383.913 76.5C383.438 75.7637 383.204 75.2003 383.013 74.336L382.957 74.0686Z"/>
	<path fill="#F8F7FF" d="M299.367 444.266L259.548 442.004L200.165 441.952C198.145 442.013 196.197 442.345 194.194 442.479L167.5 443.931C163.002 444.085 158.006 443.7 153.601 444.584C152.77 444.751 152.062 444.826 151.214 444.841L128.377 445.034C113.077 445.113 110.161 431.852 108.74 418.777C107.01 402.858 107.478 386.772 107.473 370.782L107.436 245.434C107.396 242.568 106.809 239.808 106.785 236.951L106.169 181.91C106.069 180.264 105.735 178.658 105.684 177L105.519 143.054C106.695 142.837 108.178 143.051 109.381 143.079L143.459 143.212C161.7 143.204 179.822 143.152 189.138 123.699C191.315 119.152 191.939 115.014 191.951 110.025L192.064 70.0448L296.335 70.1188C298.927 70.1628 301.458 70.6836 304.021 70.766L320.375 70.9743C322.631 71.0909 324.9 71.673 327.125 71.7235L369.125 72.2345C373.934 72.4975 378.306 72.7213 382.957 74.0686L383.013 74.336C383.204 75.2003 383.438 75.7637 383.913 76.5C393.426 91.2429 392.56 111.473 393.418 128.375L394.087 224.902C394.131 227.336 394.677 229.712 394.727 232.173L394.819 260.948C394.859 263.335 395.391 265.664 395.452 268.071L395.874 296.086C395.918 297.93 396.328 299.728 396.401 301.568L396.484 318.233C396.489 326.755 396.94 334.705 395.085 343.067L389.529 363.79C382.045 391.348 373.2 414.3 348 430.254C337.72 436.762 326.958 439.665 314.846 440.242C311.654 440.394 308.293 439.996 305.139 440.332L310.767 440.488C310.952 441.471 310.588 443.251 310.435 444.249L310.688 444.876C309.994 444.8 309.457 444.643 308.75 444.689L307.625 444.698C306.714 444.698 303.971 444.499 303.375 444.127L302.453 444.236C301.9 444.291 301.374 444.093 300.875 443.877L299.367 444.266Z"/>
	<path fill="#B8B8FF" d="M113.08 264.125L113.752 264.5C113.77 265.82 113.849 267.154 113.625 268.46L112.875 268.765L112.233 268.496C111.599 267.238 112.304 265.173 113.08 264.125Z"/>
	<path fill="#6B47E7" d="M114.94 164.625L116.125 164.489C117.783 165.758 117.126 170.556 114.298 170.125C111.167 168.434 112.127 165.823 114.94 164.625Z"/>
	<path fill="#6B47E7" d="M113.357 187.125L114.125 186.94C117.302 187.595 117.982 192.069 115.125 193.49L114.314 193.488C111.339 193.256 110.178 188.871 113.357 187.125Z"/>
	<path fill="#6B47E7" d="M114.652 232.467C115.217 232.425 115.562 232.412 116.092 232.625L116.32 233.275C117.022 236.103 115.98 238.544 112.875 238.839C110.832 238.53 110.707 236.722 110.775 235C111.497 233.747 113.364 233.026 114.652 232.467Z"/>
	<path fill="#6B47E7" d="M113.288 215.625C117.205 215.03 117.398 220.954 114.146 222.375C110.26 222.176 109.62 216.866 113.288 215.625Z"/>
	<path fill="#9381FF" d="M112.974 250.273L116.212 250.267C116.27 252.747 116.614 256.485 114.875 258.521L113.983 258.375L111.499 256.941C110.583 253.887 109.658 251.843 112.974 250.273Z"/>
	<path fill="#613BAA" d="M162.911 211.072L347.94 211.082C356.659 211.274 356.317 223.194 347.703 224.979L183.668 224.955C176.885 224.959 169.881 225.384 163.125 224.995C154.535 224.501 155.029 212.243 162.911 211.072Z"/>
	<path fill="#613BAA" d="M348.542 167.875C349.001 168.532 348.871 169.443 349.233 169.996C349.874 170.975 351.377 171.741 352.182 172.752C356.092 177.659 352.93 184.574 346.625 184.884C343.554 185.035 340.376 184.821 337.291 184.806L170.754 184.212C167.498 184.208 164.105 184.398 160.892 183.83L160.586 183.62C154.313 181.731 154.096 173.045 159.802 170.351L160.125 170.204C160.793 169.897 161.378 169.761 162.116 169.721L233.727 169.762C236.225 169.822 238.649 170.503 241.083 170.549L346.361 170.61C348.711 170.549 348.872 170.246 348.542 167.875Z"/>
	<defs>
		<linearGradient id="gradient_4" gradientUnits="userSpaceOnUse" x1="268.82901" y1="391.741" x2="244.45799" y2="235.351">
			<stop offset="0" stop-color="#606899"/>
			<stop offset="1" stop-color="#6232B1"/>
		</linearGradient>
	</defs>
	<path fill="url(#gradient_4)" d="M252.088 236.693C263.661 236.3 275.054 237.058 286.5 238.713C331.948 245.285 346.731 267.008 349.087 310.534C352.148 367.08 313.348 389.484 261.584 392.162L246.905 392.071C193.286 388.949 160.37 359.945 164.792 304.035C168.219 260.699 191.673 240.164 234.344 237.012C240.231 236.577 246.188 236.702 252.088 236.693Z"/>
	<path fill="#F8F7FF" d="M180.384 296.731C182.153 285.161 186.083 273.249 194.166 264.539C203.747 254.213 219.523 247.667 233.51 247.15L234.968 247.375C234.312 254.162 227.861 257.664 222.174 259.36L214.2 261.976C203.978 265.849 196.263 272.481 190.291 281.55C187.953 285.1 183.715 294.497 180.384 296.731Z"/>
	<path fill="#B8B8FF" d="M241.37 246.878C258.355 244.355 275.995 245.582 292.598 249.826C324.291 256.36 334.422 286.818 334.501 315.708C334.562 337.728 328.532 353.607 309.754 365.456C277.593 385.751 209.66 384.809 187.802 349.456C178.546 334.484 176.647 313.949 180.312 296.813L180.384 296.731C183.715 294.497 187.953 285.1 190.291 281.55C196.263 272.481 203.978 265.849 214.2 261.976L222.174 259.36C227.861 257.664 234.312 254.162 234.968 247.375L233.51 247.15L241.37 246.878Z"/>
	<path fill="#F8F7FF" d="M241.37 246.827C258.355 244.355 275.995 245.582 292.598 249.826C291.753 251.006 278.672 250.787 275.919 250.926L251.355 252.804C245.522 253.457 239.654 254.03 234.155 256.229L241.37 246.827Z"/>
	<path fill="#F8F7FF" d="M278.532 328.706C277.585 320.576 298.261 323.195 302.416 323.885L302.75 323.943C303.701 324.102 304.371 324.29 305.209 324.78L310.246 323.8L306.907 326.85C297.651 336.453 290.854 336.453 278.02 338.95L277.573 338.741L278.23 337.587C279.515 335.091 279.372 331.31 278.532 328.706Z"/>
	<path fill="#F8F7FF" d="M235.593 312.809L236.078 312.667C240.662 311.255 249.467 304.533 252.679 301.197C250.994 305.632 249.358 310.158 246.872 314.222L241.53 322.392C241.209 322.893 240.121 324.464 240.107 325.006L238.333 327.748C237.386 329.635 236.11 331.505 236.222 333.649L236.232 334.424L235.746 334.282C234.353 332.012 233.367 331.555 233.758 328.805C231.336 329.929 228.554 330.49 226.012 331.313C217.028 334.221 211.98 336.59 202.49 336.488C204.337 334.418 217.053 322.22 219.695 321.868C225.499 320.568 231.782 317.512 235.593 312.809Z"/>
	<path fill="#613BAA" d="M240.107 325.006C241.676 325.619 242.591 327.443 243.575 328.768C254.565 343.572 271.614 326.243 278.532 328.706C279.372 331.31 279.515 335.091 278.23 337.587L277.573 338.741C277.51 338.735 274.845 340.841 274.512 341.07C265.093 347.546 253.37 349.705 243.16 343.381C239.647 341.204 237.182 338.507 236.232 334.424L236.222 333.649C236.11 331.505 237.386 329.635 238.333 327.748L240.107 325.006Z"/>
	<path fill="#613BAA" d="M219.695 321.868L219.117 321.761C200.934 317.871 193.729 296.611 209.832 286.837C217.571 282.14 230.524 282.79 235.57 291.208C239.665 298.039 237.363 305.71 235.593 312.809C231.782 317.512 225.499 320.568 219.695 321.868Z"/>
	<path fill="#F8F7FF" d="M218.928 288.794C221.765 288.87 226.527 289.776 227.225 293.224L227.273 293.5C228.086 297.934 225.594 300.772 221.33 301.738C217.565 301.821 213.902 301.118 212.994 296.877L212.919 296.5C212.001 292.149 215.312 289.966 218.928 288.794Z"/>
	<path fill="#613BAA" d="M290.393 283.58C292.353 283.358 294.57 283.331 296.515 283.657L296.875 283.721C319.482 287.477 312.958 318.437 294.232 320.408C271.962 321.212 261.834 288.038 290.393 283.58Z"/>
	<path fill="#F8F7FF" d="M290.802 288.778C301.607 288.401 302.756 299.357 292.637 301.055C280.956 301.072 280.009 291.418 290.802 288.778Z"/>
</svg>
