<?xml version="1.0" encoding="utf-8" ?>
<svg xmlns="http://www.w3.org/2000/svg" xmlns:xlink="http://www.w3.org/1999/xlink" width="512" height="512">
	<path fill="#2B3254" d="M200.852 410.633C204.292 410.676 207.784 411.931 209.487 415.213L209.625 415.494C210.885 418.027 210.823 420.833 209.278 423.28C206.094 428.324 199.636 427.823 194.43 427.84L130.263 428.37C128.898 428.506 127.021 428.511 125.773 427.93L125.196 427.646C117.804 423.862 119.326 413.07 127.218 411.187L127.607 411.1C130.311 410.476 133.426 410.738 136.2 410.735L200.852 410.633Z"/>
	<path fill="#2B3254" d="M247.164 338.788C251.54 337.942 256.827 344.796 256.16 348.773C254.745 357.211 242.455 357.678 235.902 358.715C212.592 362.404 187.928 364.046 164.593 359.65C152.553 357.048 154.382 343.809 163.03 342.273L163.5 342.213C167.003 341.71 170.368 342.993 173.75 343.745C190.631 347.499 216.327 345.38 232.961 342.185L247.164 338.788Z"/>
	<path fill="#2B3254" d="M146.693 275.257L146.955 275.249C150.978 275.086 155.141 277.15 158.976 278.285C170.388 281.66 184.173 282.831 196.187 283.185L217.471 283.261C222.755 283.259 228.171 283.475 233.44 283.116L265.743 280.362C268.704 279.871 272.125 278.658 275.125 279.106C284.592 280.519 283.576 292.086 275.959 295.556L275.799 295.6C270.902 297.109 265.11 297.225 259.995 297.726L236 299.851L211.756 299.975C200.814 299.969 190.151 299.844 179.255 298.686L161.223 296.026C156.21 295.191 150.683 294.484 146.021 292.401C137.198 288.458 138.34 278.453 146.693 275.257Z"/>
	<path fill="#2B3254" d="M304.474 299.679C298.739 293.849 299.704 290.561 304.279 285.504C328.541 258.685 366.733 240.135 403.474 244.332C415.959 245.758 455.552 258.71 460.981 269.491C463.598 274.689 458.643 282.534 452.771 279.917C446.484 277.115 442.029 272.341 434.361 268.97C387.395 248.323 348.546 266.168 314.109 298.178C311.091 300.488 307.956 301.885 304.474 299.679Z"/>
	<path fill="#2B3254" d="M330.442 218.345L330.881 218.371C338.441 218.855 341.476 227.847 335.304 232.71C332.751 234.723 329.285 234.671 326.187 234.91L273.445 237.95C271.603 238.048 269.78 238.359 267.933 238.405L188.676 238.385L151.277 236.691C148.163 236.459 145.045 236.369 141.951 235.928L141.023 235.81C132.388 234.6 129.964 225.02 136.102 221.164L136.375 221C138.919 219.448 142.445 220.276 145.256 220.388L183.821 220.598C186.545 220.69 189.22 221.239 191.937 221.289L280.078 221.292C282.946 221.251 285.754 220.666 288.569 220.589L330.442 218.345Z"/>
	<defs>
		<linearGradient id="gradient_0" gradientUnits="userSpaceOnUse" x1="498.69601" y1="411.85101" x2="284.534" y2="335.353">
			<stop offset="0" stop-color="#283449"/>
			<stop offset="1" stop-color="#39278D"/>
		</linearGradient>
	</defs>
	<path fill="url(#gradient_0)" d="M490.849 356.316C489.545 340.277 483.43 324.581 475.211 310.883L468.653 300.981C466.835 298.323 463.813 294.726 463.315 291.5C462.351 285.25 471.084 280.575 475.895 284.502L476.236 284.788C479.527 287.495 482.293 291.751 484.72 295.266C512.806 335.94 517.469 387.888 489.263 430.25C467.278 463.267 425.516 484.206 386.033 484.821C357.72 485.262 337.741 475.697 318.164 454.586C290.362 424.607 278.603 388.151 282.574 347.25C283.244 340.347 284.089 332.357 288.127 326.539C291.706 326.288 301.248 325.467 301.476 331.02L301.433 332.069C300.968 333.052 300.863 334.42 300.686 335.497L298.764 352.048C296.766 389.54 308.728 425.771 337.6 450.864C365.298 474.936 401.552 469.822 433.363 458.489L440.997 455.873C447.851 453.556 453.601 448.253 458.43 443.037C461.416 440.061 465.13 436.908 467.587 433.515C486.149 416.427 496.573 381.417 490.849 356.316Z"/>
	<path fill="#B8B8FF" d="M314.109 298.178C315.343 298.604 316.403 297.543 317.538 297.079L332.691 290.375C358.021 277.981 387.994 269.204 415.697 278.618C450.648 290.495 466.106 315.316 483.923 345.821C484.905 347.503 489.61 356.036 490.646 356.702L490.849 356.316C496.573 381.417 486.149 416.427 467.587 433.515C467.429 432.312 468.925 430.179 469.418 428.948C467.787 424.83 464.906 421.467 462.132 418.064L453.721 407.192C452.126 405.073 450.3 402.947 449.075 400.592L448.929 400.305C448.061 398.662 448.558 396.691 448.869 394.943L450.232 387.379C452.181 373.683 452.966 359.698 451.743 345.91C449.581 321.545 438.439 312.291 414.85 305.53C393.742 299.481 373.424 303.862 354.828 315.125C347.079 319.818 339.815 325.44 331.854 329.761C326.718 332.548 307.687 334.181 301.736 332.232L301.433 332.126L301.476 331.02C301.248 325.467 291.706 326.288 288.127 326.539C290.528 316.43 296.289 306.272 304.474 299.679C307.956 301.885 311.091 300.488 314.109 298.178Z"/>
	<path fill="#9381FF" d="M301.433 332.069L301.736 332.232C307.687 334.181 326.718 332.548 331.854 329.761C339.815 325.44 347.079 319.818 354.828 315.125C373.424 303.862 393.742 299.481 414.85 305.53C438.439 312.291 449.581 321.545 451.743 345.91C452.966 359.698 452.181 373.683 450.232 387.379L448.869 394.943C448.558 396.691 448.061 398.662 448.929 400.305L449.075 400.592C450.3 402.947 452.126 405.073 453.721 407.192L462.132 418.064C464.906 421.467 467.787 424.83 469.418 428.948C468.925 430.179 467.429 432.312 467.587 433.515C465.13 436.908 461.416 440.061 458.43 443.037C453.601 448.253 447.851 453.556 440.997 455.873L433.363 458.489C401.552 469.822 365.298 474.936 337.6 450.864C308.728 425.771 296.766 389.54 298.764 352.048L300.686 335.497C300.863 334.42 300.968 333.052 301.433 332.069ZM407.512 417.847C408.352 417.765 409.598 417.082 410.375 416.724C426.823 409.135 436.686 391.936 437.787 374.096C438.237 367.706 438.55 361.206 437.388 354.867C434.137 337.137 421.182 322.737 402.594 322.624C365.571 322.399 325.602 355.822 346.632 394.938C357.583 415.308 385.699 426.434 407.512 417.847Z"/>
	<path fill="#F8F7FF" d="M440.997 455.873C442.446 453.436 445.796 452.176 448.015 450.533L454.025 445.841C455.456 444.661 456.517 443.23 458.43 443.037C453.601 448.253 447.851 453.556 440.997 455.873Z"/>
	<path fill="#2B3254" d="M381.168 395.584C375.67 394.629 371.018 390.758 367.546 386.559C353.08 369.061 368.781 358.08 378.379 370.871L378.625 371.209C379.656 372.606 380.274 374.051 380.939 375.644L399.212 357.581C403.385 353.3 408.297 347.784 414.935 349.163L415.812 349.344C417.46 349.754 419.146 351.162 419.942 352.657L420.082 352.932C421.559 355.703 421.009 358.122 419.271 360.632C416.881 363.446 414.151 365.978 411.579 368.625L396.106 384.037C392.255 387.741 387.736 394.117 382.25 395.342L381.168 395.584Z"/>
	<defs>
		<linearGradient id="gradient_1" gradientUnits="userSpaceOnUse" x1="246.47501" y1="6.86063" x2="104.152" y2="517.96198">
			<stop offset="0" stop-color="#29324D"/>
			<stop offset="1" stop-color="#3C2C8B"/>
		</linearGradient>
	</defs>
	<path fill="url(#gradient_1)" d="M183.712 490.835L217.797 489.485C223.236 488.83 230.297 489.04 236.25 488.692L260.355 487.581L306.455 487.478C312.659 487.48 324.625 486.534 318.126 497.668C315.486 502.19 307.615 501.364 303.182 501.401L253.67 503.565L211.351 504.932C209.35 505.038 207.376 505.348 205.368 505.388L135.674 506.024C103.764 506.059 20.3177 512.227 7.15986 474.801C4.23283 466.475 4.53016 457.941 4.54575 449.259L4.65138 434.539C4.75929 432.445 5.25235 430.413 5.29441 428.312L5.39089 365.351C5.44455 362.871 5.97441 360.438 6.04486 358L6.1373 277.709C6.18192 275.496 6.61865 273.319 6.66742 271.125L7.22122 238.367L7.18388 145.377C7.14225 143.4 6.7749 141.468 6.73062 139.498L6.62912 123.947C6.38303 117.117 6.10951 111.055 6.09442 104.062C6.06465 90.2715 5.60281 76.1376 15.6238 65.2319C24.5028 55.5692 32.8074 56.3022 45.0547 55.0806L73.1415 52.7331C76.8945 35.7573 78.3417 15.7998 99.1717 9.95866C104.41 8.48975 109.978 8.36651 115.375 8.02984L138.826 7.01925C140.458 6.92352 142.063 6.64941 143.701 6.59272L161.5 5.81129L211.597 5.92455C246.958 7.47467 285.147 13.5247 316.36 30.9852C337.681 42.9122 354.885 60.1316 372.159 77.0983C414.973 119.15 412.078 125.239 412.868 183.061L413.264 191.701C413.238 202.211 397.335 201.445 395.505 191.466L395.426 191C395.139 189.36 395.395 187.806 395.496 186.162L395.598 181.074C395.644 169.687 397.08 140.761 391.376 130.765C389.11 130.66 386.778 131.101 384.511 131.24L353.65 132.857L335.27 132.942C313.025 132.92 291.121 130.632 287.562 104.378L287.294 101.996C286.882 94.2338 288.008 67.0674 290.49 59.3258C292.851 51.9613 301.885 48.9757 307.741 54.6949C315.93 59.261 328.858 76.8351 337.57 84.6186L358.812 101.891C363.684 105.52 369.267 108.801 373.532 113.124L383.157 113.658C380.573 111.011 378.415 107.935 375.824 105.227L347.439 77.2586C336.64 66.8647 325.624 56.4489 313.016 48.2378C282.921 28.6383 237.564 21.9165 201.965 21.5071L159.466 21.5836C157.05 21.6534 154.709 22.2742 152.293 22.3409L124.625 23.6719C105.512 24.9181 96.8382 23.3787 91.5261 44.9534C90.11 50.7048 89.4942 56.6363 88.7496 62.5L84.7767 118.407C84.7195 119.694 84.4797 120.964 84.4394 122.25L84.2951 133C84.2377 134.403 83.9625 135.781 83.8846 137.18L83.2822 209.345C83.338 217.023 83.7701 224.671 82.6115 232.288L79.5828 261.288L78.3982 292.914L78.3372 327.08L78.3374 344.936C78.3075 351.944 77.7274 357.869 77.4823 364.682L77.3656 383.433C77.3251 385.49 76.8212 387.53 76.729 389.609L76.621 410.713C76.6041 421.509 75.1088 444.188 81.4881 452.977C83.5544 455.823 87.5102 456.691 90.8192 457.153L157.493 463.069L201.688 463.039C204.121 462.969 206.519 462.469 208.971 462.394L227.5 462.271C229.837 462.206 232.174 461.786 234.523 461.684L282.998 460.22C285.016 460.154 286.992 459.787 289 459.675L305.657 459.001C308.372 458.904 311.409 458.309 314.02 459.175L314.321 459.268C323.583 462.255 321.073 473.053 312.407 474.84C307.677 475.816 302.543 475.226 297.725 475.522L274.25 477.019L219.096 477.029L197.095 475.583C193.158 475.349 189.187 475.298 185.294 474.613L184.402 475.136C184.832 480.007 184.914 486.108 183.712 490.835Z"/>
	<path fill="#3E3BF3" d="M78.6056 230.586C80.6978 229.924 80.839 230.467 80.7918 232.406L81.375 231.373C81.6564 231.665 81.8885 231.842 82.2394 232.063L82.6115 232.288L79.5828 261.288L78.3982 292.914L78.3372 327.08C75.9528 327.008 73.6149 326.824 71.4516 325.962C70.5992 323.091 72.1301 312.958 72.3317 309.533L72.5139 303.301C72.5404 301.095 72.4358 297.572 73.2421 295.633L78.6056 230.586Z"/>
	<path fill="#9381FF" d="M78.6056 230.586C80.6978 229.924 80.839 230.467 80.7918 232.406C80.2032 233.907 80.5295 235.604 80.2573 237.184L74.5711 295.993C74.2608 294.233 73.422 298.22 73.3723 298.625L73.2421 295.633L78.6056 230.586Z"/>
	<path fill="#FF5EDE" d="M307.698 54.6949C315.93 59.261 328.858 76.8351 337.57 84.6186L358.812 101.891C363.684 105.52 369.267 108.801 373.532 113.124C361.784 112.235 349.72 115.354 337.945 115.493C319.061 115.717 303.3 117.777 304.099 93.5027C304.529 80.4605 307.676 67.753 307.698 54.6949Z"/>
	<defs>
		<linearGradient id="gradient_2" gradientUnits="userSpaceOnUse" x1="18.3277" y1="409.242" x2="181.425" y2="400.78">
			<stop offset="0" stop-color="#8475FF"/>
			<stop offset="1" stop-color="#C2C5FF"/>
		</linearGradient>
	</defs>
	<path fill="url(#gradient_2)" d="M22.786 319.154C24.7868 319.326 26.8831 320.423 28.8273 321.13L35.6621 323.286C43.6294 325.644 53.8033 328.032 62.0161 329.125C62.2898 328.557 62.3821 328.054 62.4965 327.44L62.3582 337.125C62.2318 340.286 61.7574 343.399 61.7029 346.6L61.7405 414.71C61.8191 416.665 62.2278 418.593 62.3306 420.557C63.6169 445.139 61.1235 463.82 92.5 466.783L159.915 472.18C161.884 472.318 164.01 472.342 165.94 472.745C168.097 472.819 184.043 473.942 185.294 474.613L184.402 475.136C184.832 480.007 184.914 486.108 183.712 490.835L182.871 490.794L73.0859 490.209C59.9898 488.959 33.4636 485.858 25.3703 475.685C19.7779 468.656 20.9724 456.975 20.9963 448.529L21.0986 433.419C21.1976 431.423 21.7688 429.464 21.8245 427.5L22.3655 334.653C22.3674 329.487 22.2384 324.299 22.786 319.154Z"/>
	<path fill="#B8B8FF" d="M22.7193 319.154L22.2245 95.125C23.5698 73.5713 29.6375 71.2025 48.875 69.4203L71.3448 68.0098L63.1789 230.816L62.4719 327.44C62.3821 328.054 62.2898 328.557 62.0161 329.125C53.8033 328.032 43.6294 325.644 35.6621 323.286L28.8273 321.13C26.8831 320.423 24.7868 319.326 22.7193 319.154Z"/>
</svg>
