<?xml version="1.0" encoding="utf-8" ?>
<svg xmlns="http://www.w3.org/2000/svg" xmlns:xlink="http://www.w3.org/1999/xlink" width="512" height="512">
	<path fill="#36215B" d="M151.867 7.5538C156.535 7.14672 158.745 10.6559 159.989 14.6646C167.671 13.0718 175.864 12.6313 183.675 11.8426L220.33 8.49903C225.568 8.15515 230.899 8.3056 236.149 8.29818L320.157 8.39994C322.503 8.46887 324.79 8.89787 327.125 9.02635L393.375 12.4723C408.108 13.1443 428.335 12.5086 440.136 22.9619L441.056 23.7725C451.863 33.4161 453.751 48.0003 454.536 61.62L471.805 61.5923C475.328 61.5326 479.161 60.3596 482.188 62.8298C485.439 65.4825 485.86 69.996 482.861 73.0168C479.456 76.4455 474.398 75.5991 470.006 75.5949L455.589 75.5639L455.663 101.177C456.774 101.546 458.72 101.287 459.921 101.283L471.889 101.186C476.638 101.107 484.622 100.259 484.537 107.789C484.447 115.81 477.788 115.286 472.439 115.345L455.509 115.291L455.44 140.485L471.476 140.43C473.793 140.391 476.176 140.007 478.48 140.238C486.233 141.016 484.556 151.735 478.322 153.496C476.09 154.127 473.006 153.767 470.652 153.769L454.784 153.812L454.713 179.03L469.113 178.88C471.829 178.82 474.679 178.395 477.375 178.746C480.714 179.182 483.366 183.136 482.832 186.358L482.762 186.75C481.369 194.914 475.845 193.038 469.213 193.073L453.371 193.176L452.761 213.195C452.685 215.129 452.401 217.073 452.368 219L452.292 241.527C452.23 244.09 451.606 246.539 451.571 249.091L451.627 436.172C451.706 438.348 452.207 440.524 452.262 442.671C452.402 448.223 450.299 454.512 448.752 459.75C445.175 471.855 440.879 479.935 430.799 487.455C418.317 495.74 399.092 497.103 384.569 498.809L348.374 502.196L304.046 503.631L287.41 504.48L171.816 504.442L129.607 503.462C127.42 503.407 125.291 503.055 123.125 502.945L99.2354 502.289L76.913 500.29C35.3785 494.484 29.9082 472.824 27.5815 435.408C26.9206 424.78 27.356 413.874 27.3646 403.217L27.4718 361.69C27.5245 359.805 27.9639 358.029 28.0442 356.184L29.6729 316.5C29.746 314.996 30.0387 313.508 30.1274 312L33.7267 248.936L41.1945 150.324C41.8351 141.932 41.5721 133.042 43.6006 124.847L42.5742 124.805C36.5266 124.235 33.168 117.034 37.8701 112.561L58.9702 92.6808L144.876 13.4378C147.118 11.1087 148.95 9.06264 151.867 7.5538ZM82.7712 89.6634C81.3944 90.2932 79.5851 92.3638 78.4304 93.4236L69.6657 101.584C66.7695 104.354 63.9811 107.151 60.6651 109.428L62.5633 109.144C66.036 108.433 69.7954 108.657 73.332 108.487L85.5771 108.077C87.6373 107.977 89.7352 107.632 91.7802 107.595L113.734 106.991C135.438 106.151 145.235 106.887 145.58 82.8161L145.672 68.7536L146.583 31.2515L82.7712 89.6634Z"/>
	<path fill="#9381FF" d="M140.549 490.239C138.007 490.331 135.486 490.025 132.956 489.943L86 487.287C44.61 482.763 43.1015 467.719 41.2035 431.25L40.471 410.768L71.7907 411.479C70.1651 422.734 70.8144 451.683 72.5395 462.166C74.2387 472.491 102.067 470.221 109.532 470.426C114.879 470.573 120.367 471.086 125.662 471.831C136.072 473.296 138.991 475.531 139.674 485.671C139.76 486.951 139.416 488.772 139.875 489.927L140.549 490.239Z"/>
	<defs>
		<linearGradient id="gradient_0" gradientUnits="userSpaceOnUse" x1="69.523804" y1="460.51401" x2="475.38599" y2="79.5411">
			<stop offset="0" stop-color="#C5C5FB"/>
			<stop offset="1" stop-color="white"/>
		</linearGradient>
	</defs>
	<path fill="url(#gradient_0)" d="M167.959 26.7258C178.243 24.8663 188.973 24.0825 199.395 23.3656L228.01 21.7975L323.072 21.7682C325.218 21.8163 327.342 22.1691 329.492 22.2433L346.197 22.537L397.293 25.5253C414.942 26.512 433.746 26.4586 439.839 46.2132C440.85 49.4897 441.196 59.7009 441.369 64.1452L441.42 116.375C441.347 118.739 440.865 121.077 440.815 123.476L440.72 168.25C440.666 170.484 440.287 172.696 440.238 174.947L440.153 190.625C440.086 192.657 439.702 194.662 439.642 196.712L438.29 239.531L433.755 301C433.625 303.694 433.668 306.434 433.379 309.114L432.365 322.419L431.379 353.955L431.289 362.7L430.171 391.982C430.138 395.17 430.351 398.629 429.91 401.776L429.44 419.375C429.362 421.087 429.016 422.802 428.926 424.533L427.272 459.533C426.35 472.606 427.59 477.421 414.125 480.516L404.766 482.402C393.829 484.318 382.842 485.414 371.8 486.477L326.894 489.676L286.206 490.528C283.443 490.563 280.785 491.153 278.016 491.192L218.257 491.233L140.549 490.483L139.875 489.927C139.416 488.772 139.76 486.951 139.674 485.671C138.991 475.531 136.072 473.296 125.662 471.831C120.367 471.086 114.879 470.573 109.532 470.426C102.067 470.221 74.2387 472.491 72.5395 462.166C70.8144 451.683 70.1651 422.734 71.7327 411.482C78.485 401.13 70.7773 397.821 61.9312 397.568L45.2659 396.991C44.51 396.98 41.8355 397.178 41.3634 396.765L41.4503 361.554C43.7834 361.471 46.2832 361.818 48.6389 361.897L61.5811 362.21C64.8906 362.356 69.8436 363.419 72.6786 361.134C76.9172 357.717 76.1149 350.606 70.5429 349.047C67.8358 348.289 64.0391 348.41 61.2292 348.358L44.2551 348.042L44.7196 309.748L65.5715 311.057C67.3515 311.218 70.2358 311.734 71.8493 310.901C77.3575 308.057 78.065 298.663 71.1781 297.326L70.75 297.246C67.0441 296.517 63.2075 296.566 59.4447 296.534L46.0721 296.397L47.6423 261.423C50.0421 261.018 52.9334 261.351 55.4086 261.362L73.1314 261.605C78.341 261.918 86.3388 264.024 87.454 255.824C87.7707 253.495 85.416 248.975 82.8553 248.532C81.5255 248.302 79.9838 248.435 78.625 248.433L57.375 247.76C48.0447 247.262 48.9349 249.454 49.1984 242.223L50.4852 216.762C50.694 213.539 51.8803 214.98 55.008 214.986L73.989 215.043C76.3678 215.068 79.5413 215.557 81.8114 215.034C88.6431 213.462 88.3745 202.771 81.0564 201.368C78.0417 200.79 74.4096 201.137 71.3312 201.126L52.6564 201.076C52.2439 199.266 52.6583 196.65 52.6954 194.718L53.4154 173.627C60.5856 173.306 77.2244 176.75 77.4798 167.152C77.6825 159.536 69.3675 159.618 63.9199 159.64L54.8256 159.697L57.5299 123.534L117.5 119.755C137.442 119.008 151.824 117.755 158.657 97.0739C158.048 94.6559 159.618 85.9321 159.641 82.9382L159.752 27.8524L167.959 26.7258Z"/>
	<path fill="#B8B8FF" d="M432.365 322.419L432.174 321.999C431.56 321.506 428.065 322.914 427.1 323.243C420.731 325.417 395.413 333.836 389.011 331.053C385.681 329.605 384.412 325.891 386.304 322.756C389.137 318.064 397.181 317.771 401.959 317.09L413.648 315.037C420.433 313.582 426.646 310.984 433.269 309.114L432.365 322.419Z"/>
	<path fill="#B8B8FF" d="M431.249 353.955L431.289 362.7L415.2 367.955C406.194 370.569 396.939 372.275 387.69 373.763C371.204 376.416 378.776 362.189 383.752 361.278C386.233 360.825 388.953 360.824 391.47 360.628C404.93 359.58 417.816 354.66 431.249 353.955Z"/>
	<path fill="#B8B8FF" d="M429.91 401.776C415.498 409.292 406.446 412.151 390.047 414.391C385.892 414.958 381.259 416.706 378.576 412.303L377.947 411.12C376.684 407.74 380.166 403.403 383.181 402.319C385.152 401.61 387.548 401.565 389.625 401.274L400 399.677C408.406 398.238 416.465 395.665 424.626 393.27C426.327 392.771 428.296 392.686 429.901 392.106L430.224 391.982C430.138 395.17 430.351 398.629 429.91 401.776Z"/>
	<path fill="#36215B" d="M262.2 70.6787L330.25 72.827C334.081 73.2046 338.168 73.3404 341.859 74.469C352.806 77.8163 346.096 88.6898 341.471 88.6925C337.06 88.6951 328.059 86.4543 322.574 85.9596L305.908 85.0503C305.04 84.9744 303.692 85.0672 302.891 84.8381L302.438 84.6496C301.631 84.8306 300.591 84.6647 299.74 84.6483L249.148 84.8015L234.387 85.7242C230.381 86.0277 225.885 86.8731 221.907 86.329L220.797 86.1561C211.636 84.1571 213.422 72.0654 221.886 71.59L241.75 71.4237C244.128 71.3799 246.418 70.9327 248.772 70.8177L262.2 70.6787Z"/>
	<path fill="#36215B" d="M215.9 115.05C218.852 114.791 222.196 115.427 225.213 115.449L382.23 115.32C390.663 115.531 390.905 127.432 382.34 129.488L220.857 129.624C219.386 129.667 217.605 129.877 216.196 129.38L215.875 129.256C208.153 126.378 207.435 117.151 215.9 115.05Z"/>
	<path fill="#36215B" d="M382.142 158.365L382.524 158.325C393.332 157.625 391.656 171.309 385.305 172.468C383.375 172.82 381.302 172.692 379.341 172.703L343.322 173.811C340.53 173.9 337.775 174.407 334.994 174.473L312.819 174.635C308.697 174.815 304.507 175.596 300.416 175.676L216.937 175.767C213.654 175.614 209.477 172.941 209.239 169.375C208.671 160.846 215.598 161.346 221.833 161.457L316.125 161.408C318.565 161.354 320.875 160.648 323.277 160.586L342.291 160.458C344.511 160.4 346.642 159.9 348.829 159.808L382.142 158.365Z"/>
	<path fill="#36215B" d="M276.469 214.737L276.566 214.464C280.727 203.318 288.196 208.989 295.738 212.604C351.512 239.345 372.43 288.852 363.317 347.544C353.833 408.619 304.942 448.476 243.885 448.53C182.091 448.584 128.371 399.432 123.639 337.946C123.329 333.917 123.487 329.761 123.477 325.717L123.476 316.556C123.482 314.345 123.053 311.981 124.317 310.036L124.539 309.682C125.974 307.441 127.921 306.079 130.238 304.84C140.181 306.127 137.626 312.075 137.279 319.211C135.875 348.052 143.185 376.059 163.099 397.884C181.457 418.005 208.253 434.032 236.105 435.222C265.999 436.5 296.069 428.606 318.427 407.914C339.661 388.262 351.263 356.012 352.206 327.625C353.657 283.918 337.566 251.527 298.554 229.673L288 224.265C283.381 222.012 275.936 220.327 276.469 214.737Z"/>
	<path fill="#9381FF" d="M134.006 288.465C135.432 278.849 139.896 270.614 144.994 262.5L155.661 247.019C157.47 244.653 159.331 241.891 161.621 239.983C165.211 236.994 170.985 238.758 174.088 235.324C176.007 233.201 176.6 230.129 178.357 227.848C185.333 218.79 219.87 207.739 230.804 206.496C243.917 205.005 266.574 206.791 276.469 214.737C275.936 220.327 283.381 222.012 288 224.265L298.554 229.673C337.566 251.527 353.657 283.918 352.206 327.625C351.263 356.012 339.661 388.262 318.427 407.914C296.069 428.606 265.999 436.5 236.105 435.222C208.253 434.032 181.457 418.005 163.099 397.884C143.185 376.059 135.875 348.052 137.279 319.211C137.626 312.075 140.181 306.127 130.238 304.84L132.595 303.125L132.017 302.022C126.819 299.089 127.115 288.844 134.006 288.465Z"/>
	<path fill="#614DD7" d="M280.627 367.56L285.004 371.028C282.555 370.91 279.724 370.802 277.335 371.35C275.981 371.66 273.934 373.163 272.795 373.125C275.047 370.896 278.192 369.641 280.627 367.56Z"/>
	<path fill="#36215B" d="M134.006 288.465C142.449 289.098 148.762 293.707 139.907 300.335C137.767 301.936 134.614 302.363 132.017 302.022C126.819 299.089 127.115 288.844 134.006 288.465Z"/>
	<path fill="#36215B" d="M185.251 270.683L190.327 265.746C195.263 261.772 200.217 260.577 206.496 261.301C232.877 268.54 227.129 298.997 206.875 303.472L205 303.763C187.287 305.853 172.525 286.656 184.83 271.207L185.251 270.683Z"/>
	<path fill="#FFCC2D" d="M200.848 272.791C211.482 271.788 214.313 287.467 203.311 290.447C192.376 291.065 190.638 276.907 200.848 272.791Z"/>
	<path fill="#36215B" d="M288.078 260.306C298.457 261.601 307.296 268.996 309.783 279.229C309.547 280.662 309.628 282.136 309.415 283.575C308.109 292.396 299.74 301.714 291.185 303.721L288.947 304.179C262.76 307.315 254.458 262.624 287.291 260.359L288.078 260.306Z"/>
	<path fill="#E82596" d="M285.943 272.292C298.121 271.546 298.885 289.28 288.534 291.751C276.45 291.935 273.803 275.454 285.943 272.292Z"/>
	<defs>
		<linearGradient id="gradient_1" gradientUnits="userSpaceOnUse" x1="277.35199" y1="363.293" x2="310.04199" y2="335.177">
			<stop offset="0" stop-color="#2D343F"/>
			<stop offset="1" stop-color="#342557"/>
		</linearGradient>
	</defs>
	<path fill="url(#gradient_1)" d="M280.627 367.56C274.388 361.304 270.318 352.126 272.92 343.244C278.115 325.518 304.802 322.541 313.312 338.858C315.016 342.127 316.201 347.132 315.303 350.75L315.22 351.1C312.017 364.051 299.726 377.452 285.004 371.028L280.627 367.56Z"/>
	<path fill="#6DFFB7" d="M292.75 340.576C304.786 339.782 306.112 358.337 295.243 360.163L295.022 360.132C282.541 358.252 281.576 342.777 292.75 340.576Z"/>
	<path fill="#36215B" d="M187.161 327.594C207.305 326.268 217.62 347.417 206.949 362.908C203.478 367.945 196.736 370.387 190.983 371.459C163.141 375.307 157.593 330.88 187.161 327.594Z"/>
	<path fill="#B8B8FF" d="M189.875 340.762C198.792 339.755 201.567 354.85 192.802 356.958C183.706 356.669 181.661 345.013 189.875 340.762Z"/>
	<defs>
		<linearGradient id="gradient_2" gradientUnits="userSpaceOnUse" x1="229.459" y1="371.82199" x2="257.08401" y2="406.02802">
			<stop offset="0" stop-color="#2C2F49"/>
			<stop offset="1" stop-color="#372256"/>
		</linearGradient>
	</defs>
	<path fill="url(#gradient_2)" d="M239.15 368.331C252.314 367.23 262.22 379.263 266.681 377.682L266.172 378.625C267.561 392.166 262.938 406.798 248.813 411.082C215.659 417.717 209.992 372.625 239.15 368.331Z"/>
	<path fill="#6DFFB7" d="M240.803 381.055C241.801 380.981 242.706 380.994 243.698 381.143L244.125 381.21C254.582 382.794 253.368 395.029 244.449 397.684C239.581 398.292 234.306 397.248 233.26 391.587L233.202 391.25C232.122 385.506 235.263 382.148 240.803 381.055Z"/>
	<path fill="#B8B8FF" d="M185.251 270.683L184.39 269.744C183.442 268.657 181.869 266.713 182.104 265.289C183.013 259.78 191.519 254.246 195.946 251.362C206.021 244.796 219.763 244.181 231.509 244.205L231.281 243.879C230.473 242.649 227.421 232.515 227.576 231.552C228.828 229.032 232.719 227.006 235.367 228.501C240.152 231.201 241.331 238.487 243.272 243.279C252.253 242.675 261.282 242.937 270.233 243.758C291.88 245.744 293.786 247.602 306.536 263.248C311.308 269.104 310.772 268.535 310.344 275.656C310.275 276.807 310.365 278.135 310.011 279.229C307.296 268.996 298.457 261.601 288.078 260.306C284.731 255.187 252.223 253.881 246.502 253.724L246.598 254.017C247.411 256.603 247.432 259.66 247.572 262.356C237.231 266.72 237.251 263.993 234.357 253.619C226.631 254.813 217.758 254.471 210.378 257.244C210.162 257.326 204.037 260.81 206.678 261.066L206.496 261.301C200.217 260.577 195.263 261.772 190.327 265.746L185.251 270.683Z"/>
</svg>
