<?xml version="1.0" encoding="utf-8" ?>
<svg xmlns="http://www.w3.org/2000/svg" xmlns:xlink="http://www.w3.org/1999/xlink" width="512" height="512">
	<path fill="#201427" d="M49.4909 264.795C46.9158 264.781 42.6898 261.778 42.1495 259.329C41.7428 257.487 41.8795 255.297 41.8743 253.404L41.7134 190.242C41.6354 188.316 41.2184 186.41 41.1496 184.5L41.1802 121.628C41.725 100.509 43.7926 76.9699 47.2947 56.229C50.5494 36.9533 55.5417 15.4768 75.5132 6.82143C87.3902 1.67403 96.2757 2.02812 108.789 2.02337L251.016 2.10552C254.111 2.22105 257.22 2.78575 260.319 3.02302L299.86 5.3358C310.53 6.34368 319.269 9.27527 329 10.4515L328.873 4.58897C328.84 3.79418 328.636 3.01398 329.049 2.32103L330.75 2.25479C338.124 2.57018 383.569 48.4512 389.826 55.0328L406.568 73.2229L443.613 116.809L448.794 123.773C449.998 125.52 451.104 127.584 452.467 129.195C453.654 130.598 455.886 130.942 456.526 132.763C457.949 136.815 458.295 141.743 458.912 146L464.684 197.375L470.786 295.86L471.445 328.25C471.509 330.52 471.889 332.769 471.935 335.053L471.927 401.104C471.237 431.635 471.58 480.594 444.609 499.921C429.849 510.499 417.709 509.929 400.934 509.931L117.141 509.927C97.114 509.92 65.9849 509.437 52.231 491.923C42.5755 479.627 42.3485 463.248 41.6845 448.375L41.1496 294.849C41.1539 292.116 41.0485 289.289 41.4205 286.577C41.8467 283.47 47.4507 281.44 50.0313 281.884L50.61 282.025C52.3372 283 55.8031 284.969 56.3147 287.097L56.4056 288.083C56.6292 291.301 56.4782 294.623 56.4764 297.853L55.5768 329.11L55.4649 414.039C55.4722 428.142 54.1963 472.681 63.4476 483.939L64.5304 485.375C72.5631 494.695 94.5546 497.612 107.25 498.23L153.789 499.793C155.499 499.869 157.174 500.232 158.891 500.281L302.547 500.8C308.751 501.184 315.181 500.851 321.404 500.845L388.322 500.904C405.682 500.924 426.703 502.014 440.582 489.503C452.598 478.67 455.963 461.429 457.778 446.077L459.31 429.949L460.741 401.612C460.817 399.347 461.236 397.108 461.287 394.85L461.256 320.488C461.2 318.319 460.814 316.195 460.743 314.04L457.288 236.146L447.831 147.199C447.452 144.726 447.26 142.183 446.726 139.744L372.629 139.773C355.988 139.814 339.002 135.959 332.104 118.505C329.95 113.054 329.892 107.576 329.886 101.816L330.591 68.9042L332.288 40.2104C332.302 33.822 332.696 27.2196 330.317 21.1619C323.136 18.1646 313.899 19.354 306.277 18.5123C301.259 16.7986 290.391 17.0826 284.97 16.7903L248 15.6433C245.498 15.5429 243.055 14.9828 240.505 14.9459L160.814 14.8766C157.92 14.8636 155.096 14.4625 152.211 14.3998L125.325 14.3399C119.047 14.3389 112.64 14.0965 106.375 14.4548C74.926 16.253 67.0059 24.7177 61.4046 56.726C59.6628 66.6794 58.5912 76.6858 57.7412 86.7474L56.6789 99.3775L55.5577 131.614L55.5398 169.611L56.5241 250.48C56.5496 257.428 59.007 260.062 51.7755 263.804L49.4909 264.795Z"/>
	<path fill="#F8F7FF" d="M344.485 29.4592L344.691 28.625C345.326 28.7641 345.884 29.4676 346.367 29.9033L349.692 32.9066L399.842 84.6762L431.394 121.48C432.293 122.602 435.401 127.263 436.182 127.79L436.365 127.909C431.534 128.253 426.535 128.028 421.687 128.035L376.408 128.09C348.771 128.112 342.954 120.959 342.945 91.9375L343.004 78.8943C343.078 77.0124 343.355 75.1526 343.38 73.2655L343.521 61.3926C343.612 55.724 344.378 50.222 344.442 44.5391L344.485 29.4592Z"/>
	<defs>
		<linearGradient id="gradient_0" gradientUnits="userSpaceOnUse" x1="4.7997699" y1="159.935" x2="343.27499" y2="329.45499">
			<stop offset="0" stop-color="#8572FF"/>
			<stop offset="1" stop-color="#AEB5FF"/>
		</linearGradient>
	</defs>
	<path fill="url(#gradient_0)" d="M49.6416 264.795L51.7755 263.804C59.007 260.062 56.5496 257.428 56.5241 250.48L55.5398 169.611L55.5577 131.614L56.6789 99.3775L57.7412 86.7474C58.5912 76.6858 59.6628 66.6794 61.4046 56.726C67.0059 24.7177 74.926 16.253 106.375 14.4548C112.64 14.0965 119.047 14.3389 125.325 14.3399L152.211 14.3998C155.096 14.4625 157.92 14.8636 160.814 14.8766L240.505 14.9459C243.055 14.9828 245.498 15.5429 248 15.6433L284.97 16.7903C290.391 17.0826 301.259 16.7986 306.277 18.446L306.387 18.915C307.98 19.6247 309.707 19.9719 311.336 20.5876C326.967 26.4959 321.593 46.7125 309.75 50.8075C304.396 52.6589 298.619 52.4564 293.036 52.8272L252.147 54.6536L191.528 58.526L158.407 59.5878C154.496 59.6941 150.571 60.274 146.651 60.4337L130.596 61.3326C102.366 63.5767 99.8136 72.8871 98.2292 99.8764C98.1286 101.591 97.7208 103.258 97.6424 104.992L97.5063 143.661L94.8904 213.324L81.7102 412.091C84.9602 411.827 112.329 407.894 114.447 406.245L114.723 406.039L292.543 405.352L295.591 405.513C293.811 406.906 292.107 408.598 290.61 410.293L288.657 413.739C286.257 419.65 281.285 436.721 282.478 443.353L352.794 442.88C357.896 442.864 364.769 442.355 364.252 450.246L364.212 450.732L424.58 452.017C425.623 451.975 426.771 452.011 427.604 451.298C430.664 448.679 431.129 433.456 431.378 429.293C440.161 429.875 451.125 428.724 459.31 429.811L457.778 446.077C455.963 461.429 452.598 478.67 440.582 489.503C426.703 502.014 405.682 500.924 388.322 500.904L321.404 500.845C315.181 500.851 308.751 501.184 302.547 500.8L158.891 500.281C157.174 500.232 155.499 499.869 153.789 499.793L107.25 498.23C94.5546 497.612 72.5631 494.695 64.5304 485.375L63.4476 483.939C54.1963 472.681 55.4722 428.142 55.4649 414.039L55.5768 329.11L56.4764 297.853C56.4782 294.623 56.6292 291.301 56.4056 288.083L56.3147 287.097C55.8031 284.969 52.3372 283 50.61 282.025C50.0457 280.438 50.1153 278.76 50.0808 277.141L49.9279 268.896C49.9018 267.607 50.0575 265.999 49.6416 264.795Z"/>
	<path fill="#B8B8FF" d="M292.543 405.426L295.591 405.513C293.811 406.906 292.107 408.598 290.61 410.293C291.469 407.345 294.684 406.593 291.028 405.625L292.543 405.426Z"/>
	<path fill="#B8B8FF" d="M215.762 443.785L243.188 443.438C242.693 443.404 242.235 443.356 241.751 443.249L241.438 442.999C241.109 442.671 241.233 442.859 241.062 442.438L241.625 442.25C241.702 441.646 241.79 441.884 241.5 441.5L241.188 441.749C240.858 441.749 240.726 441.475 240.5 441.25L240.125 441.623L239.627 440.375L240.875 439L240.877 436C240.453 435.363 240.559 433.702 240.689 432.905L240.377 432.375C240.337 431.039 240.533 430.412 240.83 429.231L241.251 427.812C241.419 427.31 241.424 427.313 241.377 426.75L242.627 423.75C242.822 423.377 243.001 423.027 243.134 422.626L244.375 419.377C244.323 418.74 245.159 416.719 245.625 416.25L245.877 415.25C246.426 414.199 246.75 413.256 247.251 412.251L247.876 411.188C247.386 409.317 259.904 407.973 263.49 409.301L263.757 409.41C268.772 411.368 271.737 419.468 282.5 417.545C284.741 417.145 286.468 418.662 287.251 416.001L287.377 415.5C287.735 414.809 287.991 414.294 288.657 413.739C286.257 419.65 281.285 436.721 282.478 443.353L215.762 443.785Z"/>
	<path fill="#201427" d="M282.467 443.576L352.794 442.88C357.896 442.864 364.769 442.355 364.252 450.246L364.212 450.732C360.062 456.779 352.65 455.019 346.277 455.03L315.146 455.092C312.665 455.235 310.263 455.658 307.75 455.679L247.594 455.748C243.645 455.739 239.876 456.267 236 456.373L148.688 457.047C146.351 457.09 144.068 457.486 141.75 457.558L121.256 457.629C116.416 457.663 109.576 459.117 106.568 454.115C104.571 450.793 106.817 447.62 109.85 445.868L111.144 445.132C114.32 443.575 119.838 444.557 123.313 444.552L215.762 444.417L282.467 443.576Z"/>
	<defs>
		<linearGradient id="gradient_1" gradientUnits="userSpaceOnUse" x1="262.75601" y1="423.42099" x2="260.08499" y2="502.99799">
			<stop offset="0" stop-color="#A7B2FE"/>
			<stop offset="1" stop-color="#F9F9FF"/>
		</linearGradient>
	</defs>
	<path fill="url(#gradient_1)" d="M364.212 450.732L424.58 452.017C425.623 451.975 426.771 452.011 427.604 451.298C430.664 448.679 431.129 433.456 431.378 429.293C440.161 429.875 451.125 428.724 459.31 429.811L457.778 446.077C455.963 461.429 452.598 478.67 440.582 489.503C426.703 502.014 405.682 500.924 388.322 500.904L321.404 500.845C315.181 500.851 308.751 501.184 302.547 500.8L158.891 500.281C157.174 500.232 155.499 499.869 153.789 499.793L107.25 498.23C94.5546 497.612 72.5631 494.695 64.5304 485.375L63.4476 483.939C68.3875 478.255 67.5892 478.314 75.5062 479.477L76.9453 483.233C79.4694 484.054 88.103 487.493 89.5921 489.207L89.7377 489.382C93.0041 489.97 95.1404 490.213 98.375 489.857C103.981 489.239 109.036 489.546 114.61 489.695L126.375 489.848C129.033 489.95 131.625 490.522 134.271 490.614L252.928 490.608C255.812 490.572 258.49 489.8 261.351 489.764L309.75 489.773L265.042 489.709C263.853 489.701 262.547 489.5 261.374 489.685L260.75 489.375L261.999 488.249C262.422 486.971 265.528 484.653 266.396 483.352L267.249 481.999C267.818 480.633 268.225 478.732 268.873 477.5L269.123 477.125C269.114 476.753 269.104 476.414 269.178 476.046L269.873 473.375C269.943 468.765 266.665 466.346 264.561 462.5C264.052 461.569 262.458 460.462 261.703 459.61L261.188 459.376C260.907 458.918 260.652 458.607 260.25 458.25L259.875 458.591C259.533 458.165 259.526 458.132 259.001 457.999L258.188 457.312C257.888 457.536 258.041 457.499 257.751 457.499L257.5 456.75L258.375 456.25L256.125 456.562C255.508 456.293 254.939 456.27 254.274 456.33L247.594 456.191L307.75 455.679C310.263 455.658 312.665 455.235 315.146 455.092L346.277 455.03C352.65 455.019 360.062 456.779 364.212 450.732Z"/>
	<path fill="#F8F7FF" d="M306.277 18.446C313.899 19.354 323.136 18.1646 330.317 21.1619C332.696 27.2196 332.302 33.822 332.288 40.2104L330.591 68.9042L329.886 101.816C329.892 107.576 329.95 113.054 332.104 118.505C339.002 135.959 355.988 139.814 372.629 139.773L446.726 139.744C447.26 142.183 447.452 144.726 447.831 147.199L457.288 236.146L460.743 314.04C460.814 316.195 461.2 318.319 461.256 320.488L461.287 394.85C461.236 397.108 460.817 399.347 460.741 401.612L459.31 429.949C451.125 428.724 440.161 429.875 431.378 429.293C431.129 433.456 430.664 448.679 427.604 451.298C426.771 452.011 425.623 451.975 424.58 452.017L364.212 451.278L364.252 450.246C364.769 442.355 357.896 442.864 352.794 442.88L282.467 442.935C281.285 436.721 286.257 419.65 288.657 413.739L290.61 410.293C292.107 408.598 293.811 406.906 295.591 405.513L292.543 405.426L114.723 406.005L114.447 406.245C112.329 407.894 84.9602 411.827 81.7102 412.091L94.8811 213.324L97.5063 143.661L97.6424 104.992C97.7208 103.258 98.1286 101.591 98.2292 99.8764C99.8136 72.8871 102.366 63.5767 130.596 61.3326L146.651 60.4337C150.571 60.274 154.496 59.6941 158.407 59.7402L191.528 58.526L252.147 54.6536L293.036 52.8272C298.619 52.4564 304.396 52.6589 309.75 50.8075C321.593 46.7125 326.967 26.4959 311.336 20.5876C309.707 19.9719 307.98 19.6247 306.387 18.915L306.277 18.446Z"/>
	<path fill="#201427" d="M161.446 152.98L135.189 153.052C131.058 153.075 124.758 152.159 124.71 146.689C124.643 139.099 135.496 140.45 140.251 140.453L161.242 140.468L210.683 140.462C215.306 140.448 221.653 140.344 221.473 147.001C221.293 153.621 214.423 152.921 209.793 152.937L161.446 152.98Z"/>
	<path fill="#201427" d="M155.143 66.1889L212.806 65.2211C227.848 65.1148 222.59 76.9701 216.72 77.6009C213.877 77.9065 210.874 77.7435 208.008 77.7487L160.676 78.3628C157.92 79.2733 154.551 79.0816 151.693 79.0943L139.608 79.1258C135.153 79.1318 130.198 79.5586 125.793 78.9844C119.556 78.1716 118.242 71.2136 123.158 67.8542L123.504 67.625C125.734 66.129 129.187 66.2536 131.777 66.2393L155.143 66.1889Z"/>
	<path fill="#201427" d="M167.865 239.266C178.05 218.687 195.247 203.487 217.03 196.114C239.415 188.537 269.003 189.933 289.915 200.338C336.171 223.353 355.374 275.274 331.837 322.009C324.356 336.864 309.712 351.618 294.44 358.882C273.858 367.125 265.292 369.341 243.875 369.005L238.904 368.839C238.166 368.81 237.207 368.689 236.5 368.931L236.078 369.109C232.683 370.44 219.296 364.935 215.844 363.489C185.423 350.749 162.368 321.292 159.607 288.15C157.907 267.744 160.272 257.235 167.865 239.266Z"/>
	<path fill="#FF6083" d="M320.025 318.357C318.986 320.97 317.376 323.266 315.725 325.524C288.521 362.718 225.629 366.759 194.56 332.414C205.902 331.017 218.179 326.61 229.689 328.659C231.132 328.916 233.549 330.027 234.875 329.794L235.272 328.752C251.946 334.086 265.444 331.658 279.504 321.424C290.222 323.001 309.614 321.935 320.025 318.357Z"/>
	<path fill="#F8F7FF" d="M194.56 332.414C155.282 294.727 169.668 221.205 225.076 207.355C247.603 201.723 271.868 204.095 291.875 216.309C326.872 237.673 342.192 282.128 320.025 318.357C309.614 321.935 290.222 323.001 279.504 321.465C265.444 331.658 251.946 334.086 235.272 328.752L234.875 329.794C233.549 330.027 231.132 328.916 229.689 328.659C218.179 326.61 205.902 331.017 194.56 332.414Z"/>
	<path fill="#201427" d="M279.556 248.832C288.392 248.286 296.272 255.08 299.362 263.007C301.959 269.669 297.974 278.167 290.915 273.875C286.746 271.34 290.027 265.792 284.377 262.277L284.071 262.091C276.949 258.729 277.438 269.127 275.555 272.49C271.052 280.535 256.306 271.614 269.213 254.667C271.967 251.051 275.1 249.461 279.556 248.832Z"/>
	<path fill="#201427" d="M220.891 248.077L222.645 248.038C238.401 247.969 244.749 274.933 232.213 274.268C223.731 273.817 228.575 260.126 221.205 260.004C212.05 263.402 218.097 267.848 214.683 273.454C211.853 278.102 204.99 274.883 204.104 270.189C202.09 259.518 210.596 249.656 220.891 248.077Z"/>
	<path fill="#201427" d="M235.272 328.752C226.819 326.134 217.71 317.721 215.564 309.202C214.583 305.31 214.797 299.305 219.772 298.455C225.753 297.432 226.541 303.681 228.901 307.605C238.723 323.929 264.199 321.164 274.936 305.96C276.248 304.101 277.181 301.946 278.55 300.148C283.037 294.251 298.053 302.918 279.504 321.424C265.444 331.658 251.946 334.086 235.272 328.752Z"/>
	<path fill="#B8B8FF" d="M94.8811 213.324L97.5063 143.661L97.6424 104.992C97.7208 103.258 98.1286 101.591 98.2292 99.8764C99.8136 72.8871 102.366 63.5767 130.596 61.3326L146.651 60.4337C150.571 60.274 154.496 59.6941 158.407 59.7402L158.073 59.8772C156.55 60.4688 155.644 60.1885 154.125 60.3335C147.59 60.9573 141.006 60.9359 134.5 61.6172C133.763 61.6944 132.987 61.4975 132.251 61.5803L128 62.1216C125.468 62.4162 122.894 62.4101 120.375 62.9184C120.194 65.0967 118.141 64.4901 120.675 68.2497L120.906 68.6003C121.247 68.3762 121.462 68.1291 121.877 68.125L122.142 67.9075C122.723 67.4431 123.206 67.1741 123.875 66.8775L124.25 66.6887C124.916 66.3992 125.681 66.4039 126.375 66.1275L126.75 66.1887C127.207 66.221 127.374 66.1271 127.75 65.8775L128.172 65.9081C129.865 66.0239 135.291 66.4307 136.5 65.6275L150.344 65.6887C151.9 65.6887 153.627 65.5737 155.143 65.975L131.777 66.2393C129.187 66.2536 125.734 66.129 123.504 67.625L123.158 67.8542C118.242 71.2136 119.556 78.1716 125.793 78.9844C130.198 79.5586 135.153 79.1318 139.608 79.1258L151.693 79.0943C154.551 79.0816 157.92 79.2733 160.676 78.4302L162.866 100.925C163.676 110.981 163.247 112.152 162.109 121.703C161.386 127.77 161.145 134.28 161.423 140.394L140.251 140.453C135.496 140.45 124.643 139.099 124.71 146.689C124.758 152.159 131.058 153.075 135.189 153.052L161.446 153.013L164.024 206.849L165.226 220.094C165.441 222.923 165.9 237.528 167.677 239.119L167.865 239.266C160.272 257.235 157.907 267.744 159.607 288.15C162.368 321.292 185.423 350.749 215.844 363.489C219.296 364.935 232.683 370.44 236.078 369.109L236.5 368.931C237.207 368.689 238.166 368.81 238.904 368.839L243.875 369.005C265.292 369.341 273.858 367.125 294.44 358.882L298.883 364.305C302.903 370.013 303.134 375.847 303.298 382.51L303.78 392.474C305.304 392.473 307.031 392.314 308.528 392.545L389.025 392.419C392.087 392.424 395.438 392.157 398.465 392.61C404.944 393.58 404.815 405.069 398.692 405.356L295.591 405.308L292.543 405.426L114.723 406.005L114.447 406.245C112.329 407.894 84.9602 411.827 81.7102 412.091L94.8811 213.324Z"/>
	<path fill="#201427" d="M114.723 406.005C112.579 405.4 109.507 403.949 109.465 401.282C109.315 391.94 120.727 392.957 126.25 392.741L308.528 392.749L389.025 392.419C392.087 392.424 395.438 392.157 398.465 392.61C404.944 393.58 404.815 405.069 398.692 405.356L295.591 405.308L292.543 405.426L114.723 406.005Z"/>
</svg>
