<?xml version="1.0" encoding="utf-8" ?>
<svg xmlns="http://www.w3.org/2000/svg" xmlns:xlink="http://www.w3.org/1999/xlink" width="512" height="512">
	<path fill="#1F1D28" d="M490.3 367.999C492.543 368.067 496.205 370.38 497.259 372.52C497.705 373.426 496.752 384.031 496.71 385.822L496.635 398.154L493.724 448.028C489.118 495.195 464.994 499.614 421.579 502.795L397.5 504.198L337.909 504.33L275.911 508.321L201.156 508.851L186.611 508.33C184.745 508.295 182.881 508.015 181.019 507.874L137.048 504.405C108.764 501.978 89.5355 499.607 89.5377 467.273L89.6874 458.095C89.8308 455.878 90.2577 453.754 90.3108 451.516C85.4143 451.452 80.4341 450.855 75.5558 450.443L60.5074 448.912C23.118 444.531 18.2489 425.594 16.4958 389.625L15.4686 312.817C15.4737 291.332 14.2595 265.101 27.5236 246.767C40.7444 228.494 61.4323 221.772 82.7405 218.429L81.0317 179.943C80.917 177.133 80.4509 174.374 80.3834 171.54L80.3557 84.8598L81.56 68.221C83.9164 26.548 86.4978 12.7042 134.41 5.70783L151.155 3.39762C154.642 2.9904 158.209 2.97851 161.67 2.34241L162.875 2.1585C166.469 1.86712 170.287 2.08792 173.903 2.07151L264.219 2.17964C266.609 2.26087 268.903 2.82269 271.25 2.95434L309 5.33474L357.387 11.9211C382.235 16.4117 387.727 18.185 405.761 36.7781L423.543 55.9274C427.161 59.8197 430.514 63.3434 434.516 66.8046C436.75 64.8473 439.472 63.2866 442.352 62.5397L442.75 62.4401C452.606 59.9211 468.455 65.6562 476.25 72.0305C488.157 81.7667 492.133 98.4636 493.285 113.081L494.504 139.677C494.551 141.207 494.817 142.719 494.85 144.25L495.866 243.875C495.924 246.127 496.55 248.275 496.598 250.521L496.73 347.909C496.567 351.688 492.27 353.254 489.238 354.236L488.558 354.284C488.146 356.667 489.197 365.861 490.3 367.999ZM291.377 456.494C291.378 457.242 291.211 458.125 291.627 458.75L291.625 459.627C281.169 469.097 266.946 475.108 254.625 481.656C249.862 484.188 245.333 487.152 240.38 489.317L227 495.657C225.792 496.224 223.549 495.902 222.785 497.086L223.019 497.268C223.33 497.516 223.217 497.403 223.438 497.688L223.001 497.751L221.965 498.708C221.207 498.782 219.857 498.993 219.125 499.25L218.595 499.363C219.802 499.681 221.134 499.531 222.375 499.5L217.125 499.75L216.75 499.25C214.599 499.293 212.019 499.018 209.613 499C208.461 499.019 207.329 499.16 206.25 498.75L206.016 498.695C205.426 498.548 204.942 498.324 204.374 498.188L203.874 497.307C203.875 497.011 203.851 496.746 203.817 496.453L205.543 495.958L203.812 495.688L208.426 493.642C209.059 493.375 210.163 492.588 210.648 492.059C212.32 490.235 215.464 488.857 217.644 487.751C219.614 486.751 228.68 479.897 229.916 477.927C226.368 480.932 222.419 483.12 218.346 485.317L198.25 496.012C196.448 496.893 189.697 498.31 189.48 499.241L189.454 499.789L209.315 500.557C214.835 500.234 220.572 500.555 226.114 500.558L266 500.505C268.754 500.462 271.401 500.028 274.125 499.87L317.692 496.701C336.407 494.95 347.283 490.918 365.219 486.243C397.587 477.806 437.675 468.603 450.917 434.125C452.051 431.173 451.581 426.928 451.582 423.803L451.655 409.734C451.713 407.476 452.092 405.254 452.169 403.001L452.768 366.75C452.814 364.372 453.209 362.012 453.242 359.625L453.345 310.613C453.4 306.06 456.58 305.304 459.493 302.463C459.674 300.615 459.341 292.55 458.749 291.277C452.627 288.951 453.174 284.629 453.229 279.375L453.229 266.414C453.153 260.917 452.274 255.328 452.76 249.818C452.95 247.664 457.051 245.483 458.746 244.236L458.715 236.896C458.745 235.631 459.357 234.144 458.778 232.957L458.546 232.903C450.187 230.809 451.63 221.154 451.614 214.937L451.57 190.375L447.829 123C447.2 116.875 446.967 109.492 444.087 103.935L443.906 103.575C443.488 102.892 442.861 102.467 442.095 102.364C426.245 100.242 410.324 107.857 394.617 104.625C374.135 100.41 370.761 85.3856 370.958 66.3385L372.15 41.6117C372.475 35.7921 372.26 29.8334 372.244 24.0003C367.412 22.1819 355.997 20.9067 350.776 20.1795L255.5 10.8613L239.28 10.301L173.251 10.8514C149.151 11.8183 107.528 12.5646 97.9552 38.903C96.4454 43.0571 96.029 47.8673 95.5915 52.2512L94.2777 72.5C94.2072 73.8245 93.9306 75.1265 93.8746 76.454L93.2902 160.089L94.2851 181.115L98.2562 258.155C98.4057 260.16 98.1625 262.719 98.7385 264.617L202.131 273.357L244.367 275.3C245.751 275.379 247.107 275.644 248.503 275.702L281.983 275.86C287.154 275.849 292.605 276.187 297.745 275.679C301.841 275.274 305.625 273.618 309.656 273.094C314.989 272.401 320.388 272.605 325.75 272.224C346.746 270.733 379.446 265.428 395.407 283.053C402.828 291.248 404.049 305.744 404.576 316.663L404.422 369.734C403.302 388.437 398.779 425.3 384.586 437.904C372.781 448.387 356.524 451.22 341.375 452.945L291.377 456.494ZM29.3185 291.745C28.6157 296.575 28.7806 301.334 28.6789 306.195L28.2973 324.846C28.3015 327.013 27.9629 329.829 28.7114 331.929L28.7241 337.667L28.7202 348.463L28.7308 353.307L29.1823 382.712L29.2637 387.505L30.4021 401.715L30.7716 404.52C31.2347 407.675 31.6037 411.594 32.8724 414.513C33.2898 416.443 33.9825 418.247 34.824 420.029L36.8774 424.057C40.0468 429.815 45.7588 435.887 52.25 437.758L54.8036 438.398L79.5017 441.415L90.9036 442.273L101.21 443.285L107.388 443.509L123.982 443.841L134.906 444.3L144.691 444.241L181.67 445.631L197.75 445.897L214.954 446.256L224.87 446.222L282.821 446.204L331.279 443.814C341.321 443.072 353.225 442.647 362.699 438.881L362.888 438.817C372.131 435.434 380.212 427.03 384.418 418.385C389.895 406.968 391.153 388.958 391.484 376.125L390.488 337.758C390.332 324.618 390.122 311.721 386.812 298.927C383.945 292.39 379.741 288.197 372.47 286.961C360.501 284.925 358.367 279.078 344.852 280.484L332.49 281.142C331.144 281.257 329.691 281.23 328.379 281.558C324.425 282.488 321.698 285.651 317.731 286.697L318.501 285.751L319.791 285.04C316.383 285.138 313.372 285.648 310.061 284.588L313.572 283.715C313.508 283.34 313.412 283.007 313.302 282.645L285.096 284.804C283.953 284.838 282.429 284.696 281.337 284.942L199.758 282.715L183.489 282.013L86.7274 274.775L51.1878 276.194C50.299 271.607 49.8382 267.017 55.4694 266.496L87.0759 265.444L84.0509 230.12C82.9734 230.485 81.7347 230.508 80.6084 230.724L73.3845 232.429C42.932 241.116 33.8715 257.301 29.8643 286.448C29.6539 287.979 29.1121 290.216 29.3185 291.745ZM149.31 496.886L168.726 498.024L189.454 499.707L189.48 499.241C189.697 498.31 196.448 496.893 198.25 496.012L218.346 485.317C222.419 483.12 226.368 480.932 229.916 477.927C228.68 479.897 219.614 486.751 217.644 487.751C215.464 488.857 212.32 490.235 210.648 492.059C210.163 492.588 209.059 493.375 208.426 493.642L203.812 495.688L205.543 495.958L203.817 496.453C203.851 496.746 203.875 497.011 203.874 497.307L204.374 498.188C204.942 498.324 205.426 498.548 206.016 498.695L206.25 498.75C207.329 499.16 208.461 499.019 209.613 499C212.019 499.018 214.599 499.293 216.75 499.25L217.125 499.75L222.375 499.5C221.134 499.531 219.802 499.681 218.595 499.363L219.125 499.25C219.857 498.993 221.207 498.782 221.965 498.708L223.001 497.751L223.438 497.688C223.217 497.403 223.33 497.516 223.019 497.268L222.785 497.086C223.549 495.902 225.792 496.224 227 495.657L240.38 489.317C245.333 487.152 249.862 484.188 254.625 481.656C266.946 475.108 281.169 469.097 291.625 459.627L291.627 458.75C291.211 458.125 291.378 457.242 291.377 456.4L104.296 453.765C103.235 456.721 103.654 461.013 103.646 464.131C103.589 486.424 110.702 493.215 131.334 495.415L149.31 496.886Z"/>
	<path fill="#B8B8FF" d="M313.302 282.645L322.25 281.721C324.27 281.522 326.416 280.986 328.379 281.558C324.425 282.488 321.698 285.651 317.731 286.697L318.501 285.751L319.791 285.04C316.383 285.138 313.372 285.648 310.061 284.588L313.572 283.715C313.508 283.34 313.412 283.007 313.302 282.645Z"/>
	<path fill="#B8B8FF" d="M384.803 34.6175C396.936 43.0034 415.28 62.2667 424.913 74.3267L439.422 93.6732L436.784 93.6285C406.948 93.5174 383.467 107.067 383.455 64.3828L384.803 34.6175Z"/>
	<defs>
		<linearGradient id="gradient_0" gradientUnits="userSpaceOnUse" x1="173.81" y1="420.09698" x2="214.62801" y2="503.242">
			<stop offset="0" stop-color="#D7D8F5"/>
			<stop offset="1" stop-color="#F3F3F6"/>
		</linearGradient>
	</defs>
	<path fill="url(#gradient_0)" d="M149.31 496.886L131.334 495.415C110.702 493.215 103.589 486.424 103.646 464.131C103.654 461.013 103.235 456.721 104.296 453.765L291.377 456.4C291.378 457.242 291.211 458.125 291.627 458.75L291.625 459.627C281.169 469.097 266.946 475.108 254.625 481.656C249.862 484.188 245.333 487.152 240.38 489.317L227 495.657C225.792 496.224 223.549 495.902 222.785 497.086L223.019 497.268C223.33 497.516 223.217 497.403 223.438 497.688L223.001 497.751L221.965 498.708C221.207 498.782 219.857 498.993 219.125 499.25L218.595 499.363C219.802 499.681 221.134 499.531 222.375 499.5L217.125 499.75L216.75 499.25C214.599 499.293 212.019 499.018 209.613 499C208.461 499.019 207.329 499.16 206.25 498.75L206.016 498.695C205.426 498.548 204.942 498.324 204.374 498.188L203.874 497.307C203.875 497.011 203.851 496.746 203.817 496.453L205.543 495.958L203.812 495.688L208.426 493.642C209.059 493.375 210.163 492.588 210.648 492.059C212.32 490.235 215.464 488.857 217.644 487.751C219.614 486.751 228.68 479.897 229.916 477.927C226.368 480.932 222.419 483.12 218.346 485.317L198.25 496.012C196.448 496.893 189.697 498.31 189.48 499.241L189.454 499.707L168.726 498.024L149.31 496.886ZM149.31 496.886L168.726 498.024C169.332 497.976 170.013 497.978 170.59 497.78L171.75 497.375L169.142 496.75C169.631 496.559 169.393 496.686 169.85 496.354L169.25 496.25C169.008 495.366 167.355 495.723 166.562 495.688C166.691 491.564 167.396 487.806 171.987 487.112L172.312 487.13C173.345 486.319 174.55 486.605 175.587 485.731C175.975 485.405 176.231 485.196 176.718 485.018L177.144 484.433C179.779 481.713 169.318 486.826 168.864 487.044L149.31 496.886Z"/>
	<path fill="#F8F7FF" d="M158.018 462.047C163.357 461.564 168.822 464.131 174.114 464.652C171.033 465.019 167.301 463.519 164.25 463L162.5 462.75C156.866 461.93 152.801 463.75 148.062 466.938L148.688 466.938C149.974 466.608 151.455 465.876 152.727 465.367L153 465.25C154.853 465.868 151.638 467.323 150.605 467.808L151.125 468C153.235 467.593 155.972 467.129 158.129 466.96L159.11 466.763C159.631 466.57 159.883 466.627 160.375 466.5L161.688 466.188C161.938 466.116 162.171 465.985 162.426 465.934L164.625 465.5C165.35 465.251 164.763 465.323 165.559 465.27L166 465.25C166.85 464.683 168.053 465.263 169.022 464.875L169.25 464.75C169.966 465.227 172.065 465.009 172.998 465.082L172.875 465.292C167.488 464.932 163.522 466.321 158.314 467.235L141.097 470.19C145.275 467.617 153.519 462.995 158.018 462.047Z"/>
	<path fill="#F8F7FF" d="M139.678 460.294L143.741 460.227C141.452 462.337 124.515 469.584 120.565 471.093L117.364 471.925C121.019 469.238 135.554 461.381 139.678 460.294Z"/>
	<path fill="#9381FF" d="M458.777 232.957C466.813 227.462 464.29 227.234 464.043 218.724L463.872 197.125C463.83 195.592 463.561 194.08 463.511 192.547L459.824 120.823C458.208 102.096 456.569 94.3551 444.874 78.6563C443.597 76.9418 442.108 75.4203 440.875 73.6849L439.224 71.9575C448.729 71.672 456.887 71.9653 464.23 78.8682C479.052 92.8017 479.554 115.506 480.8 134.421L482.957 184.625C483.05 187.146 483.427 189.616 483.451 192.155L483.533 249.375C483.594 251.715 484.095 254.024 484.148 256.394L484.208 277.75C484.285 280.166 484.844 282.537 484.875 285L484.967 328.713C484.966 334.975 483.466 347.415 486.385 352.817C487.242 353.106 487.995 353.328 488.727 353.875L489.238 354.236L488.558 354.284C488.146 356.667 489.197 365.861 490.3 367.999C488.318 369.256 486.546 370.888 484.974 372.625C483.022 374.781 484.084 375.326 484.176 378.07L484.106 404.542C484.038 406.151 483.694 407.721 483.626 409.327L483.249 422.125C482.58 433.622 481.233 445.536 479.11 456.852C475.071 478.381 469.701 485.656 447.588 490.394C436.526 492.765 425.387 493.283 414.137 493.701L377.797 494.652C404.661 485.793 447.628 468.525 458.875 440.264C462.009 432.388 461.456 424.071 462.104 415.793L464.127 384.056C464.227 382.035 464.59 380.008 464.664 378.009L464.815 356.001C464.862 353.919 465.302 351.901 465.345 349.833L465.43 334.032C465.666 325.864 465.743 315.31 466.887 307.65C464.852 305.582 462.49 303.932 460.121 302.279L459.493 302.463C459.674 300.615 459.341 292.55 459.037 291.277C452.627 288.951 453.174 284.629 453.229 279.375L453.229 266.414C453.153 260.917 452.274 255.328 452.76 249.818C452.95 247.664 457.051 245.483 458.744 244.236L458.715 236.896C458.745 235.631 459.357 234.144 458.777 232.957Z"/>
	<path fill="#1F1D28" d="M458.744 244.236C460.813 244.417 463.725 246.936 465.064 248.57C467.344 251.351 465.966 255.152 465.955 258.505L465.934 286.81C464.469 289.613 461.366 290.225 458.749 291.277C452.627 288.951 453.174 284.629 453.229 279.375L453.229 266.414C453.153 260.917 452.274 255.328 452.76 249.818C452.95 247.664 457.051 245.483 458.744 244.236Z"/>
	<defs>
		<linearGradient id="gradient_1" gradientUnits="userSpaceOnUse" x1="388.79999" y1="319.642" x2="25.711901" y2="354.20099">
			<stop offset="0" stop-color="#887AFF"/>
			<stop offset="1" stop-color="#C3C7FF"/>
		</linearGradient>
	</defs>
	<path fill="url(#gradient_1)" d="M29.3185 291.745C29.1121 290.216 29.6539 287.979 29.8643 286.448C33.8715 257.301 42.932 241.116 73.3845 232.429L80.6084 230.724C81.7347 230.508 82.9734 230.485 84.0509 230.12L87.0759 265.444L55.4694 266.496C49.8382 267.017 50.299 271.607 51.1878 276.194L86.7274 274.775L183.489 282.013L199.758 282.715L281.337 284.942C282.429 284.696 283.953 284.838 285.096 284.804L313.302 282.645C313.412 283.007 313.508 283.34 313.572 283.715L310.061 284.588C313.372 285.648 316.383 285.138 319.791 285.04L318.501 285.751L317.731 286.697C321.698 285.651 324.425 282.488 328.379 281.558C329.691 281.23 331.144 281.257 332.49 281.142L344.852 280.484C358.367 279.078 360.501 284.925 372.47 286.961C379.741 288.197 383.945 292.39 386.812 298.927C390.122 311.721 390.332 324.618 390.488 337.758L391.484 376.125C391.153 388.958 389.895 406.968 384.418 418.385C380.212 427.03 372.131 435.434 362.888 438.817L362.699 438.881C353.225 442.647 341.321 443.072 331.279 443.814L282.821 446.204L224.87 446.222L214.954 446.256L197.75 445.897L181.67 445.631L144.691 444.241L134.906 444.3L123.982 443.841L107.388 443.509L101.21 443.285L90.9036 442.273L79.5017 441.415L54.8036 438.398L52.25 437.758C45.7588 435.887 40.0468 429.815 36.8774 424.057L34.824 420.029C33.9825 418.247 33.2898 416.443 32.8724 414.513C31.6037 411.594 31.2347 407.675 30.7716 404.52L30.4021 401.715L29.2637 387.505L29.1823 382.712L28.7308 353.307L28.7202 348.463L28.7241 337.667L28.7114 331.929C27.9629 329.829 28.3015 327.013 28.2973 324.846L28.6789 306.195C28.7806 301.334 28.6157 296.575 29.3185 291.745ZM348.911 369.387C348.527 366.323 347.637 363.292 346.83 360.319L343.658 348.852C343.285 348.267 343.137 347.399 342.946 346.723L340.417 338.588L338.555 333.522L337.625 332.328C335.938 332.241 314.436 346.137 312.125 348.194C310.358 349.767 309.901 350.968 309.255 353.183C303.596 343.918 299.009 341.386 290.677 334.668C281.635 336.351 272.83 338.609 267.302 346.752C253.016 367.792 273.43 410.547 299.891 405.259C302.764 404.685 305.844 403.481 307.536 400.943C311.855 394.467 305.288 395.395 302.003 395.519C298.71 395.645 295.388 395.71 292.195 394.782C279.349 391.047 273.454 374.823 273.48 362.665C273.501 353.268 280.025 343 290.067 347.24C298.607 350.847 299.418 368.023 308.478 364.554C311.66 363.336 312.06 359.677 314.197 357.447C315.535 356.052 317.246 355.277 318.778 354.166C322.405 351.538 326.284 346.371 331.25 346.719C340.287 352.141 330.686 377.963 347.047 373.358C349.337 372.713 349.292 371.541 348.911 369.387ZM176.509 340.125C163.508 344.125 169.804 367.361 172.995 376.25C177.276 388.177 185.09 397.365 196.711 402.657C204.666 406.281 210.124 408.072 218.305 404.914C237.874 397.36 250.988 378.522 253.774 358.059C254.375 354.115 254.687 347.344 253.907 343.355C247.233 335.839 243.207 342.49 242.067 350.146L240.729 359.59C236.382 386.944 212.906 410.354 190.304 384.516C181.047 373.932 178.643 359.494 178.251 345.868L178.083 341.125C178.016 340.254 178.24 340.222 177.465 339.915L176.509 340.125ZM203.042 338.601C197.244 339.244 187.369 347.608 184.026 351.833C182.829 353.347 182.383 355.008 181.507 356.695C185.961 353.7 191.187 350.644 196.5 349.709L196.821 349.646C198.327 349.362 200.261 349.326 201.75 349.694L202.101 349.777C205.355 350.587 208.249 352.554 210.54 354.956C213.912 359.345 215.735 364.09 219.5 368.446C222.28 364.628 224.011 361.705 224.73 356.965C222.099 349.363 215.473 344.374 208.493 340.948L204.85 339.329C204.35 339.105 203.568 338.628 203.042 338.601ZM240.364 419.88C237.867 420.616 235.466 421.732 233.047 422.691L193.7 439.014C191.982 439.815 182.824 444.571 181.67 445.631L197.75 445.756L241.249 421.349C244.488 419.931 247.71 418.744 250.505 416.521C247.167 417.375 243.436 418.311 240.364 419.88ZM344.852 280.484L332.49 281.142C331.144 281.257 329.691 281.23 328.379 281.558C324.425 282.488 321.698 285.651 317.731 286.697C306.985 291.42 303.89 295.167 295.246 300.788L295.233 300.832C295.987 300.889 300.886 298.828 302 298.489L314.469 294.781C325.877 291.084 335.994 286.509 346.476 280.661L344.852 280.484ZM184.292 420.306L142.5 439.693C140.07 441.003 136.715 442.187 134.906 444.3L144.691 444.226L146.125 444.015C146.854 443.328 147.929 442.894 148.801 442.411L185.024 421.581C186.253 420.942 188.522 420.101 189.402 419.099C187.721 418.751 185.772 419.546 184.292 420.306ZM214.954 446.256L224.87 446.208C226.055 446.004 227.873 446.311 228.916 445.851C232.088 444.451 234.68 441.955 237.56 440.071L260.917 424.165C263.725 422.042 266.554 420.15 268.993 417.588C264.201 419.487 259.642 422.629 255.191 425.234L221.768 442.727C219.622 443.705 216.612 444.546 214.954 446.256Z"/>
	<path fill="#B8B8FF" d="M86.9791 387.216C87.4605 386.619 88.1359 386.329 88.75 385.884L92.125 383.627C93.3999 385.546 89.1136 387.048 87.2987 388.231C87.2313 387.846 87.128 387.574 86.9791 387.216Z"/>
	<defs>
		<linearGradient id="gradient_2" gradientUnits="userSpaceOnUse" x1="77.095596" y1="416.91" x2="82.282097" y2="422.81799">
			<stop offset="0" stop-color="#D9D7FD"/>
			<stop offset="1" stop-color="#BABBFF"/>
		</linearGradient>
	</defs>
	<path fill="url(#gradient_2)" d="M90.2259 411.827C91.0325 411.658 91.5089 411.55 92.3001 411.864L94.9876 413.006C81.2485 414.957 75.1183 416.11 70.0221 429.223C70.168 431.96 68.3993 432.116 68.7184 429.683L68.7637 429.375C70.2423 418.881 80.8463 413.735 90.2259 411.827Z"/>
	<defs>
		<linearGradient id="gradient_3" gradientUnits="userSpaceOnUse" x1="296.586" y1="285.90201" x2="310.67001" y2="282.87701">
			<stop offset="0" stop-color="#BEBFFF"/>
			<stop offset="1" stop-color="#E4E8FF"/>
		</linearGradient>
	</defs>
	<path fill="url(#gradient_3)" d="M281.337 284.999C282.429 284.696 283.953 284.838 285.096 284.804L313.302 282.645C313.412 283.007 313.508 283.34 313.572 283.715L310.061 284.588L295.828 287.892C293.949 287.931 291.476 287.574 289.53 287.573L281.625 287.719C285.637 286.586 292.438 287.971 297 287.394L297.127 287.036C296.728 286.416 296.367 285.896 296.365 285.132L296.377 284.625C296.035 284.795 296.199 284.758 295.77 284.758L292.875 284.873C290.98 285.292 284.452 285.183 282.02 285.339L281.337 284.999Z"/>
	<path fill="#B8B8FF" d="M362.699 438.881C364.246 435.762 368.932 433.555 371.443 431.16C374.346 428.392 381.058 417.596 384.418 418.385C380.212 427.03 372.131 435.434 362.888 438.817L362.699 438.881Z"/>
	<path fill="#9381FF" d="M175.461 330.313L176.375 330.267C178.711 330.41 179.466 334.052 177.561 335.407L177.32 335.571C174.471 337.574 170.289 338.756 166.808 338.715C155.986 335.477 171.997 331.203 175.461 330.313Z"/>
	<path fill="#9381FF" d="M223.372 302.375L223.959 302.375C221.433 304.088 219.044 304.853 216.32 306.063L203.975 311.978C202.384 312.822 196.664 317.38 195.337 317.375C192.226 313.013 195.247 310.241 199.374 308.833L205.25 306.852C211.088 304.7 217.573 304.648 223.372 302.375Z"/>
	<path fill="#B8B8FF" d="M36.4836 345.398C42.1201 341.798 47.7253 337.488 53.9731 334.978C54.3447 334.829 54.5673 334.622 54.875 334.373L56.9231 332.554C57.3221 332.163 56.8947 332.577 57.4988 332.249L58.375 331.373L58.625 332.127C58.1481 332.584 58.0269 332.678 57.7512 333.251L56.1275 335.5C53.9848 338.53 49.7879 340.736 46.75 342.736L33.9363 350.931C33.2546 351.361 32.3267 351.777 31.7337 352.302C30.6999 352.593 29.7103 352.873 28.7268 353.307L28.7202 348.463L29.2224 348.403C32.0088 348.122 34.1322 346.8 36.4836 345.398Z"/>
	<defs>
		<linearGradient id="gradient_4" gradientUnits="userSpaceOnUse" x1="52.161701" y1="372.62601" x2="56.284901" y2="400.01999">
			<stop offset="0" stop-color="#C9C4FF"/>
			<stop offset="1" stop-color="#E8ECFD"/>
		</linearGradient>
	</defs>
	<path fill="url(#gradient_4)" d="M41.2848 394.096L76.3237 369.107C76.873 369.125 76.7412 369.118 77.25 369.373L77.6275 369.5C76.753 370.442 75.5273 371.174 74.4899 371.935L42.3466 396.179C39.4379 398.31 34.0595 403.785 30.7716 404.52L30.4021 401.715L30.6119 400.125C34.2135 398.636 38.0887 396.331 41.2848 394.096Z"/>
	<path fill="#5048BD" d="M225.104 315.278C225.658 315.269 226.207 315.416 226.75 315.519L226.95 315.875C224.635 317.762 221.646 319.145 219.051 320.625L200.715 330.875L199.625 330.972C199.44 329.495 199.172 328.202 198.658 326.801L198.507 326.396C204.33 321.488 217.897 317.343 225.104 315.278Z"/>
	<path fill="#5048BD" d="M365.244 402.079L366.424 402.721C364.685 407.447 347.359 419.277 342.833 421.4C342.569 421.57 342.357 421.624 342.057 421.708L346.793 415.25C351.651 408.599 356.783 403.391 365.244 402.079Z"/>
	<path fill="#F8F7FF" d="M43.089 325.627C48.5954 321.808 66.3498 309.803 73.0486 309.319L41.1668 330.415C37.9732 332.627 34.408 334.508 31.4108 336.987C30.5545 337.58 29.7729 338.103 29.125 338.938L28.5049 337.667L28.7114 331.929C29.1859 332.273 29.8452 332.978 30.4633 333.523L43.089 325.627Z"/>
	<path fill="#F8F7FF" d="M86.9791 387.216C87.128 387.574 87.2313 387.846 87.2987 388.231L43.1964 419.499C41.0869 420.918 39.0836 422.875 36.8774 424.057L34.824 420.029L35.1973 419.95C37.411 419.56 38.9373 418.574 40.8377 417.443L86.9791 387.216Z"/>
	<path fill="#F8F7FF" d="M44.0022 374.186L67.8212 358.157C71.3573 355.969 74.5491 353.768 78.3523 352.011C74.0545 356.008 69.0405 359.4 64.3365 362.907L34.1582 384.969C33.6152 385.354 32.2541 386.073 31.9129 386.59L29.875 387.992C29.3999 387.822 29.6204 387.966 29.2538 387.505L29.1823 382.712C34.7527 380.505 39.0148 377.57 44.0022 374.186Z"/>
	<path fill="#F8F7FF" d="M64.5177 292.41L72.7972 288.173C75.2529 286.854 77.7807 285.132 80.4457 284.3L31.3023 321.195L30.938 321.433C30.0748 321.982 29.4337 322.386 28.8315 323.235L28.6966 323.433C28.4245 321.25 28.6116 318.869 28.6139 316.662C41.1884 314.059 48.1689 304.449 57.0103 297.232C59.2639 295.393 62.0179 294.277 64.3245 292.556L64.5177 292.41Z"/>
	<path fill="#9381FF" d="M114.267 338.607C118.462 336.716 128.95 329.947 133.125 330.555C139.271 335.141 119.265 341.679 116.605 342.712C112.821 344.182 102.558 348.851 98.75 348.656L98.0276 348.138C103.171 344.162 108.593 341.72 114.267 338.607Z"/>
	<path fill="#F8F7FF" d="M73.7649 339.134L73.916 339.602C74.1839 340.502 73.9049 341.384 73.875 342.3C75.2792 342.621 75.6039 342.732 75.9827 344.077L76.0805 344.336L75.85 344.413C73.9604 345.021 71.9044 344.885 70.0859 345.735C68.0081 346.707 66.2111 348.365 64.0638 349.206C59.9183 351.679 55.4133 353.506 51.3004 356.068C48.2497 357.97 45.5272 360.495 42.6617 362.662L35.1408 367.851C33.3261 369.199 30.6189 370.554 29.1743 371.842L28.8844 365.892C29.8918 365.038 32.1488 365.191 33.455 364.6L39.2135 361.373C40.1463 361.186 41.8479 359.867 42.6968 359.345L54.1232 352.046C56.6208 350.34 59.0089 348.349 61.68 346.918C63.2103 345.132 71.6674 339.774 73.7649 339.134Z"/>
	<path fill="#F8F7FF" d="M107.388 443.509C110.402 440.666 127.356 434.571 131.292 433.25L143.297 429.555C145.051 428.972 146.696 427.941 148.497 427.524C144.597 430.865 140.6 434.515 136.236 437.219L127.373 442.239C126.274 442.808 125.038 443.191 123.982 443.799L107.388 443.509Z"/>
	<path fill="#F8F7FF" d="M79.5017 441.415L79.2833 441C81.3355 438.044 86.2825 435.929 89.4605 434.429L101.411 429.038C110.904 424.827 120.458 420.005 130.74 418.049C127.138 420.484 122.613 421.811 118.744 423.865C116.173 425.23 113.809 426.886 111.374 428.47L100.791 435.622L94.2526 439.843C92.9822 440.61 91.5215 440.761 90.9036 442.227L79.5017 441.415Z"/>
	<path fill="#9381FF" d="M183.489 282.268L199.758 282.715L200.877 283.375C200.626 283.635 200.442 283.789 200.134 283.998L199.982 284.295C197.894 286.242 195.118 288.306 192.5 289.442C187.003 291.826 168.559 296.921 170.291 286.125C173.854 281.369 178.494 283.505 183.121 282.365L183.489 282.268Z"/>
	<path fill="#9381FF" d="M310.061 284.588C313.372 285.648 316.383 285.138 319.791 285.04L318.501 285.751L317.731 286.697C306.985 291.42 303.89 295.167 295.246 300.788L295.233 300.832C292.789 301.385 289.972 302.959 288.173 304.625L284.342 308.461C283.366 309.679 281.576 311.816 279.829 310.944L279.125 310.623C272.603 306.537 280.416 299.921 284.313 296.945C286.392 295.357 288.858 294.378 290.915 292.765C292.679 291.382 294.157 289.433 295.828 287.892L310.061 284.588Z"/>
	<path fill="#F8F7FF" d="M95.2567 339.055L95.8901 339.13C96.6356 341.977 96.3391 345.772 96.3588 348.73C96.8746 362.173 107.025 374.238 103.121 387.745L98.9061 380.166C96.1161 375.206 81.222 348.228 85.9734 343.081C87.7617 342.494 89.4972 340.814 91.1693 339.854C92.5809 339.676 93.8952 339.488 95.2567 339.055Z"/>
	<path fill="#F8F7FF" d="M160.694 344.375C161.854 344.003 163.119 344.368 164.273 344.603C164.532 354.07 161.03 358.155 158.316 366.665C155.119 376.687 157.778 389.803 143.053 389.498C138.803 388.147 138.861 386.546 140.147 382.911C142.383 376.592 146.389 371.801 149.379 365.992C150.506 363.801 151.306 361.475 152.351 359.243L157.043 350.265C158.117 348.263 159.123 346.032 160.694 344.375Z"/>
	<defs>
		<linearGradient id="gradient_5" gradientUnits="userSpaceOnUse" x1="105.994" y1="310.16299" x2="112.112" y2="336.33401">
			<stop offset="0" stop-color="#4447EC"/>
			<stop offset="1" stop-color="#6E6FFE"/>
		</linearGradient>
	</defs>
	<path fill="url(#gradient_5)" d="M73.7649 339.134C71.615 334.503 95.2401 327.082 99.012 325.103C104.651 322.146 109.433 317.873 114.965 314.76C120.831 311.46 132.823 308.365 134.569 302.575C139.108 306.923 140.422 306.521 145.81 307.373C142.724 309.817 139.266 311.348 135.71 312.966L121.722 318.996C114.962 321.863 103.786 327.22 97.6098 331.426L97.4369 331.546C97.2117 332.238 97.0584 332.678 96.6062 333.25L96.2967 333.726C94.9034 335.856 92.2528 337.722 91.1693 339.854C89.4972 340.814 87.7617 342.494 85.9734 343.081C85.0132 342.98 84.1991 342.745 83.2916 342.42C82.1134 343.356 79.5054 344.879 77.9788 344.724L76.0805 344.336L75.9827 344.077C75.6039 342.732 75.2792 342.621 73.875 342.3C73.9049 341.384 74.1839 340.502 73.916 339.602L73.7649 339.134Z"/>
	<path fill="#B8B8FF" d="M83.2916 342.42C87.2876 337.451 91.6931 334.257 97.4369 331.546C97.2117 332.238 97.0584 332.678 96.6062 333.25L96.2967 333.726C94.9034 335.856 92.2528 337.722 91.1693 339.854C89.4972 340.814 87.7617 342.494 85.9734 343.081C85.0132 342.98 84.1991 342.745 83.2916 342.42Z"/>
	<path fill="#F8F7FF" d="M137.585 338.558C147.981 338.012 135.741 360.791 133.897 364.958L120.293 391.949C118.449 395.717 117.431 399.803 115.625 403.56L111.882 404.58C110.533 404.507 108.264 403.813 107.846 402.357C106.299 396.969 126.128 353.88 131.862 343.599C133.316 340.991 134.635 339.392 137.585 338.558Z"/>
	<path fill="#9381FF" d="M383.401 304.463L383.75 304.125L385.125 304.5C385.627 304.017 386.163 303.552 386.539 302.961L387.062 301.688C386.102 298.302 383.771 300.797 382.188 302.438L381.627 302.375C382.427 301.563 383.186 300.748 384.14 300.112L384.5 299.877C385.238 299.347 385.95 299.188 386.812 298.927C390.122 311.721 390.332 324.618 390.488 337.758L390.373 338.625L360.642 357.827C357.948 359.644 350.904 365.793 349.093 368.25L348.911 369.387C348.527 366.323 347.637 363.292 346.83 360.319L343.658 348.852C343.285 348.267 343.137 347.399 342.946 346.723L340.417 338.588L338.555 333.522C346.273 329.601 353.558 325.171 360.837 320.493L371.243 313.715C375.406 310.772 379.172 307.279 383.401 304.463Z"/>
	<path fill="#B8B8FF" d="M342.946 346.723C344.709 344.635 349.682 343.966 352.515 342.144L385.25 319.238C385.898 319.578 385.946 319.842 386.375 320.377L386.69 320.687C381.976 323.185 377.625 326.606 373.235 329.645L350.735 345.226C350.214 345.587 344.821 349.741 344.5 350.125L344.4 349.783C344.285 349.421 344.181 349.217 343.964 348.917L343.658 348.852C343.285 348.267 343.137 347.399 342.946 346.723Z"/>
	<defs>
		<linearGradient id="gradient_6" gradientUnits="userSpaceOnUse" x1="354.73499" y1="315.20599" x2="366.29199" y2="324.98901">
			<stop offset="0" stop-color="#B8B7FF"/>
			<stop offset="1" stop-color="#E0DDFF"/>
		</linearGradient>
	</defs>
	<path fill="url(#gradient_6)" d="M383.401 304.463L383.875 305.165C382.148 307.945 369.63 316.769 366.677 318.751L346.929 332.326C344.453 334.192 342.764 336.702 340.417 338.588L338.555 333.522C346.273 329.601 353.558 325.171 360.837 320.493L371.243 313.715C375.406 310.772 379.172 307.279 383.401 304.463Z"/>
	<path fill="#1F1D28" d="M153.555 121.607L204.422 121.595C207.077 121.586 209.826 121.425 212.469 121.636C219.978 122.236 220.6 132.633 212.097 133.937L160.33 133.919C155.767 134.002 148.511 134.96 147.302 128.836C146.608 125.319 150.504 122.172 153.555 121.607Z"/>
	<path fill="#1F1D28" d="M156.732 166.617L352.188 166.675C355.941 166.571 359.022 166.27 360.974 170.235L361.125 170.556C363.565 175.64 359.268 178.571 354.778 178.939L162.82 178.916C158.643 178.936 150.439 179.776 149.772 173.802C149.332 169.851 153.115 166.806 156.732 166.617Z"/>
	<path fill="#1F1D28" d="M155.838 213.655C158.57 213.484 161.4 213.646 164.144 213.654L355.25 213.71C363.123 213.885 364.579 223.677 355.75 226.197L159.832 226.057C147.555 226.068 147.765 216.679 155.838 213.655Z"/>
</svg>
