<?xml version="1.0" encoding="utf-8" ?>
<svg xmlns="http://www.w3.org/2000/svg" xmlns:xlink="http://www.w3.org/1999/xlink" width="512" height="512">
	<path fill="#1D1828" d="M188.107 12.3458L220.736 12.5244L354.446 25.2788C357.787 25.5511 362.017 25.2128 365.139 26.377L365.5 26.5171C367.389 27.2312 368.734 28.7904 368.875 30.8407C371.699 29.1916 378.266 32.3205 380.621 33.7623L381 33.9976C388.984 38.8864 397.194 49.8029 403.125 56.9711L446.872 110.606C457.553 124.706 459.467 133.612 461.751 151.25L464.465 177.375L464.611 225.828L461.656 285.544L461.709 341.298L463.189 360.051C464.831 380.064 467.181 400.166 470.694 419.943C474.628 442.081 492.726 482.743 460.731 493.173C449.095 496.966 435.887 497.661 423.75 498.546L395.32 499.928C393.324 500.003 391.356 500.384 389.375 500.436L323.355 500.481C319.726 500.435 316.218 500.088 312.625 499.926L254.559 497.22L153.944 490.357L118.367 489.806C116.081 489.864 113.813 490.194 111.531 490.348L102.198 490.633C86.5498 490.782 76.0342 481.426 73.6178 465.594C72.6776 459.434 73.0956 452.651 73.1454 446.404L73.2239 441.086C73.4322 435.465 71.2556 436.287 68.1589 431.671C61.0538 421.081 57.8459 404.295 55.0244 392.034L45.9916 348.953C39.4746 316.686 34.3726 283.743 32.5141 250.875L31.9157 234.621C31.7501 221.765 33.6528 205.972 48.75 202.696C52.6404 201.851 56.585 202.426 60.5156 202.665L76.5028 203.621C80.7921 203.81 85.3522 203.3 89.5854 203.886L89.9389 162.9C89.9842 160.743 90.4687 158.639 90.5272 156.525L92.3331 116.381C92.6701 111.013 93.7451 106.818 94.1224 102.037C95.5361 84.121 96.812 44.6804 106.97 29.5C112.036 21.9308 120.846 17.9249 129.5 16.1471C135.352 14.9449 141.759 16.063 147.729 15.6403L188.107 12.3458ZM424.209 422.035C431.99 419.173 447.688 420.76 456.317 420.146L456.596 418.608L448.807 348.515C448.481 344.458 448.216 339.015 448.076 334.894L448.606 278.946C448.882 269.34 449.135 259.173 449.685 249.625L450.248 237.875C450.39 235.72 450.823 233.621 450.893 231.447L450.835 177.363C450.726 175.385 450.337 173.45 450.181 171.479L445.443 133.683L432.25 133.812C430.389 133.889 428.538 134.276 426.663 134.349L411.52 134.428C400.681 134.436 385.873 135.152 375.704 130.821L375.289 130.648C356.43 122.604 361.575 102.381 362.613 87.3232L364.377 47.6385C364.399 43.3689 364.619 40.7824 365.743 36.76C354.543 36.8108 343.403 35.4382 332.25 34.5165L226.938 26.2855C224.795 26.1931 222.712 25.7153 220.537 25.6498L170.192 25.5953C167.85 25.6715 165.61 26.2539 163.252 26.3225L143.006 26.3607C139.317 26.3353 135.215 25.926 131.594 26.6146L131.189 26.687C113.769 29.8967 112.522 48.0747 110.242 62.25C107.727 77.8899 106.42 93.6781 105.125 109.461L103.273 138.125C103.186 139.379 102.961 140.617 102.909 141.875L102.296 185.94C102.297 191.848 102.015 197.947 102.51 203.832C107.401 204.209 112.835 203.696 117.735 203.353L164.176 200.247C193.669 200.189 203.042 215.95 215.09 240.684L221.639 252.647C224.921 258.147 229.181 265.998 236.177 266.814L242.587 267.472L311.375 270.68C314.115 270.868 316.838 271.283 319.583 271.379L335.125 271.64C337.352 271.734 339.557 272.099 341.805 272.147C376.939 272.898 379.594 277.426 384.38 311.125L386.761 324.391C392.943 352.975 403.452 380.909 416.375 407.074C418.835 412.055 421.262 417.314 424.209 422.035Z"/>
	<path fill="#B8B8FF" d="M456.596 418.893L457.371 430.508C457.97 445.987 445.067 448.259 435.43 439.196C430.582 434.637 427.225 427.886 424.209 422.035C431.99 419.173 447.688 420.76 456.317 420.146L456.596 418.893Z"/>
	<path fill="#B8B8FF" d="M44.6393 229.53L44.8431 225.158C46.3968 213.04 54.3589 215.199 63.3396 215.994L77.1308 216.759C89.0392 216.877 101.183 217.178 113.077 216.476L167.257 213.936C178.577 213.983 185.201 217.119 191.974 226.837C191.069 227.647 190.408 228.104 189.25 228.467L188.938 228.567C185.606 229.606 181.458 229.209 178 229.133L118.01 229.782C116.396 229.908 114.824 230.247 113.193 230.316L54.9603 230.441C51.6155 230.432 48.1856 230.574 44.8512 230.33L44.6393 229.53Z"/>
	<path fill="#B8B8FF" d="M376.463 75.6474L377.757 47.7352L394.711 68.3505L438.165 120.597C428.299 121.482 418.049 120.974 408.135 120.947L396 120.897C391.26 120.873 384.164 121.335 380.374 118.102C372.185 111.118 374.903 95.9648 375.533 86.5605C375.767 83.0636 375.806 79.0729 376.463 75.6474Z"/>
	<path fill="#F8F7FF" d="M320.231 406.187L328.764 400.866C343.728 391.68 343.102 400.844 354.028 397.909L354.5 397.779C364.541 395.089 373.893 386.983 381.826 380.628C383.876 378.986 385.826 376.71 388.143 375.467L388.562 375.254C394.407 390.949 400.742 406.469 408.047 421.545L414.151 433.198C415.63 435.828 417.092 438.919 419.016 441.231L269.182 441.191L268.625 440.75L268.682 440.125C269.685 439.878 270.956 438.6 271.805 437.963L298.654 421.58C304.283 418.049 315.219 410.61 320.231 406.187Z"/>
	<path fill="#9381FF" d="M85.5833 445.778C93.9306 449.046 102.04 450.132 110.84 450.83L140.857 452.389L213.662 452.906C215.539 452.962 217.376 453.365 219.25 453.416L259.691 453.504C262.15 453.534 264.461 454.069 266.875 454.178L322.948 454.769L331.625 455.252L401.559 454.647L427.5 452.781C429.953 452.468 430.073 452.554 432.307 453.625C441.459 458.011 450.327 459.513 459.52 453.589C461.324 452.427 463.048 450.606 464.925 449.695C465.921 458.433 469.355 468.069 464.003 476.102C455.544 485.459 425.459 486.129 413.807 486.727L399.408 487.351C397.808 487.426 396.231 487.71 394.624 487.754L311.248 487.74C309.183 487.696 307.178 487.414 305.125 487.295L261.362 485.276L151.904 477.355L144.703 476.704C136.136 476.305 127.299 476.224 118.738 476.706C91.2522 478.252 84.5898 480.948 85.5833 445.778Z"/>
	<defs>
		<linearGradient id="gradient_0" gradientUnits="userSpaceOnUse" x1="35.603901" y1="243.19" x2="350.38101" y2="437.12201">
			<stop offset="0" stop-color="#8370FF"/>
			<stop offset="1" stop-color="#C7CEFF"/>
		</linearGradient>
	</defs>
	<path fill="url(#gradient_0)" d="M191.974 226.837C198.13 235.713 202.314 245.992 207.32 255.543C219.575 278.928 225.715 279.849 249.603 280.862L340 285.321C347.084 285.531 362.029 284.459 366.675 290.762C370.505 295.957 371.233 304.214 372.126 310.461L374.169 323.861C375.656 332.618 377.597 341.246 380.157 349.754L388.562 375.254L388.143 375.467C385.826 376.71 383.876 378.986 381.826 380.628C373.893 386.983 364.541 395.089 354.5 397.779L354.028 397.909C343.102 400.844 343.728 391.68 328.764 400.866L320.231 406.187C315.219 410.61 304.283 418.049 298.654 421.58L271.805 437.963C270.956 438.6 269.685 439.878 268.682 440.125L268.625 440.75L269.182 441.151L259.925 441L170.321 439.785L151.581 439.789L137.084 439.454C127.602 439.495 117.331 439.712 107.955 437.942L95.9572 435.88C76.4896 433.022 72.5338 409.681 69.011 393.963L63.6967 369.421C57.2001 338.172 50.948 307.052 47.3898 275.292L44.9709 247.735L44.6855 228.716L44.8512 230.33C48.1856 230.574 51.6155 230.432 54.9603 230.441L113.193 230.316C114.824 230.247 116.396 229.908 118.01 229.782L178 229.133C181.458 229.209 185.606 229.606 188.938 228.567L189.25 228.467C190.408 228.104 191.069 227.647 191.974 226.837Z"/>
	<path fill="#280B30" d="M286.842 310.125C292.515 308.849 296.221 314.869 290.626 318.393C284.275 319.971 281.564 312.266 286.842 310.125Z"/>
	<path fill="#280B30" d="M318.994 311.513C325.646 310.853 328.609 318.436 321.987 321.462C314.999 321.753 312.484 314.944 318.994 311.513Z"/>
	<path fill="#F8F7FF" d="M194.427 254.829C195.491 252.617 197.57 250.718 200.125 251.005L200.711 251.5C200.547 253.186 199.738 255.368 198.512 256.59L198.429 256.64C194.284 264.282 183.426 269.188 175.455 270.837C174.963 270.939 175.213 270.961 174.702 270.625C175.732 269.71 178.119 269.183 179.431 268.614C185.587 265.948 191.352 261.135 194.334 255.027L194.427 254.829Z"/>
	<path fill="#F8F7FF" d="M148.841 422.972C150.62 421.799 152.33 420.623 154.309 419.805L155.762 422.968C150.777 430.075 141.058 434.057 137.234 439.117L137.118 439.231L130.894 439.115C134.426 435.304 135.274 434.152 139.608 430.537L148.841 422.972Z"/>
	<path fill="#F8F7FF" d="M126.825 371.875L127.102 371.913C128.619 373.586 130.45 374.614 132.372 375.759C130.413 379.357 127.493 382.388 124.619 385.266L109.578 399.274C107.588 400.598 105.404 396.412 104.733 394.905L126.825 371.875Z"/>
	<path fill="#F8F7FF" d="M152.413 394.396C153.518 395.959 154.158 398.222 154.879 400.005C153.15 407.51 132.952 426.528 127.186 431.263C122.394 435.198 119.743 436.773 113.438 436.821C112.722 436.829 112.084 436.765 111.375 436.659L111.461 436.488C122.107 432.249 143.382 403.709 152.413 394.396Z"/>
	<path fill="#F8F7FF" d="M96.2526 434.97C96.8178 433.929 97.8597 433.093 98.7096 432.292L107.807 422.548C116.582 411.932 125.6 394.773 137.017 387.019C138.893 388.027 139.984 389.172 141.277 390.833C136.212 401.519 118.233 421.263 109.714 429.308C102.7 435.617 105.404 434.157 96.8566 435.074C96.468 435.116 96.6273 435.127 96.2526 434.97Z"/>
	<path fill="#1D1828" d="M173.082 394.259C169.938 384.898 180.78 385.171 186.929 385.219L272.37 385.203C279.619 385.106 290.715 382.528 289.311 393.773C288.724 395.883 288.157 397.015 286.269 398.158C282.956 398.476 279.884 398.658 276.524 398.664L235.392 398.691L180.239 398.558C177.043 398.234 175.078 396.625 173.082 394.259Z"/>
	<path fill="#1D1828" d="M318.572 348.378L328.322 348.018C334.62 348.564 336.964 356.327 331.549 360.09L331.25 360.293C330.048 361.124 328.812 361.087 327.402 361.13L172.066 361.25L134.993 361.763C129.478 362.165 119.875 362.703 119.513 354.969C119.244 349.213 125.838 349.137 129.662 349.24L171.989 349.227C174.575 349.186 177.099 348.559 179.629 348.523L318.572 348.378Z"/>
	<defs>
		<linearGradient id="gradient_1" gradientUnits="userSpaceOnUse" x1="236.826" y1="396.85999" x2="248.782" y2="443.51001">
			<stop offset="0" stop-color="#C0CFFE"/>
			<stop offset="1" stop-color="white"/>
		</linearGradient>
	</defs>
	<path fill="url(#gradient_1)" d="M308.935 399.68C312.855 397.728 320.997 395.705 314.412 401.981L303.414 410.02C296.664 414.484 264.153 433.733 262.291 440.125L259.925 440.783L170.321 439.785L151.581 439.789L151.598 439.53L166.25 439.442C167.784 439.451 167.781 438.127 169.875 438.127L170.125 437.877C170.574 437.936 171.053 437.982 171.5 437.877L172 437.689C173.354 437.642 171.639 437.909 173.004 437.664L173.562 437.562C175.249 437.411 176.696 436.755 178.344 436.428L179.375 436.25C180.49 435.512 183.232 434.477 184.562 434.251L184.875 434.25C185.145 433.991 185.392 433.74 185.626 433.447L186.377 432.5C187.673 430.384 189.337 428.188 190.977 426.305L191.516 426.403C192.398 424.722 190.665 424.41 193.336 422.7C199.397 418.819 206.115 415.831 212.489 412.499L225.426 405.181C226.335 403.796 227.036 400.799 227.383 399.127L226.441 398.931C226.946 398.665 228.227 398.795 228.831 398.786L235.392 398.708L276.524 398.664C279.884 398.658 282.956 398.476 286.269 398.158C287.962 398.29 287.602 397.499 289.278 398.811C293.569 402.172 299.826 401.415 302.688 402.938L302.43 403.043C301.937 403.263 302.273 403.108 301.75 403.5L300.652 404.238C299.711 404.866 298.685 405.36 297.75 406L297.359 406.254C294.994 407.831 301.808 403.812 302.326 403.486L308.935 399.68Z"/>
	<path fill="#B8B8FF" d="M200.121 424.643C199.34 425.649 197.008 426.038 195.755 426.255L193.041 427.026C193.136 427.481 193.063 427.89 193.013 428.347L191.402 429.758C189.097 430.759 191.263 431.471 189.625 433.5C193.174 433.327 196.696 432.942 200.25 432.625L201.547 432.344C202.603 432.025 203.733 431.871 204.812 431.562L206.887 430.98C209.129 430.369 211.283 428.877 213.41 427.91L217.625 425.91C202.968 434.469 201.717 431.438 186.51 434.218C186.247 434.266 170.168 438.766 170.091 438.801L168.762 439.363L170.321 439.752L151.581 439.789L151.598 439.53L166.25 439.442C167.784 439.451 167.781 438.127 169.875 438.127L170.125 437.877C170.574 437.936 171.053 437.982 171.5 437.877L172 437.689C173.354 437.642 171.639 437.909 173.004 437.664L173.562 437.562C175.249 437.411 176.696 436.755 178.344 436.428L179.375 436.25C180.49 435.512 183.232 434.477 184.562 434.251L184.875 434.25C185.145 433.991 185.392 433.74 185.626 433.447L186.377 432.5C187.673 430.384 189.337 428.188 190.977 426.305L191.516 426.403C193.898 426.907 197.907 425.371 200.121 424.643Z"/>
	<path fill="#F8F7FF" d="M225.426 405.181C228.641 404.031 231.707 404.156 235.077 404.261C227.153 410.94 218.124 416.191 208.81 420.776C207.695 421.325 200.362 424.286 200.121 424.643C197.907 425.371 193.898 426.907 191.516 426.403C192.398 424.722 190.665 424.41 193.336 422.7C199.397 418.819 206.115 415.831 212.489 412.499L225.426 405.181Z"/>
	<path fill="#1D1828" d="M278.639 102.57C282.989 102.471 287.766 106.418 285.018 111C283.463 113.594 281.168 115.781 279.116 117.98L272.744 125.139C269.113 129.292 260.201 142.099 255.125 143.33C252.036 143.168 248.557 139.671 247.828 136.828C247.24 134.537 255.96 125.122 257.515 123.25L268.686 110.266C271.55 107.199 274.368 103.575 278.639 102.57Z"/>
	<defs>
		<linearGradient id="gradient_2" gradientUnits="userSpaceOnUse" x1="199.084" y1="165.466" x2="200.625" y2="134.62">
			<stop offset="0" stop-color="#FFD300"/>
			<stop offset="1" stop-color="#FFEB5C"/>
		</linearGradient>
	</defs>
	<path fill="url(#gradient_2)" d="M222.418 136.565C225.628 135.819 228.272 135.476 231.208 137.32C237.84 141.486 231.641 149.237 227.594 153.048C226.337 155.142 224.853 159.185 222.4 159.948C218.34 161.21 213.749 153.576 209.963 151.538C205.579 163.106 197.15 164.696 185.864 164.761C174.768 164.825 169.971 163.366 166.034 151.95L174.678 154.163C187.592 156.345 201.025 152.705 211.557 145.165C214.208 143.029 216.424 140.374 218.575 137.754C219.25 138.645 221.218 137.032 222.163 136.663L222.418 136.565Z"/>
	<path fill="#FDEF92" d="M218.575 137.754C219.25 138.645 221.218 137.032 222.163 136.663L222.418 136.565L228.024 143.411C226.55 146.011 224.354 147.778 222.026 149.582C218.843 147.293 215.381 145.954 211.557 145.165C214.208 143.029 216.424 140.374 218.575 137.754Z"/>
	<path fill="#1D1828" d="M273.29 146.589C275.43 146.435 277.722 146.835 279.875 146.921L332.803 147.099C342.2 147.517 344.013 158.648 336.133 160.725L289.208 160.705C283.949 160.685 278.91 160.658 273.75 159.511C265.84 157.754 265.93 148.573 273.29 146.589Z"/>
	<path fill="#1D1828" d="M254.993 212.774C259.521 212.202 264.381 213.478 268.875 214.077L284.5 215.989C299.167 217.32 313.89 217.141 328.5 215.466C331.129 215.164 335.256 214.06 337.756 214.919L338 215.013C344.366 217.369 344.234 224.503 335.825 227.101C325.576 229.498 314.909 229.789 304.424 229.797L268.807 228.031C263.662 227.502 257.523 227.739 252.741 225.433L252.496 225.312C245.503 221.92 249.398 214.708 254.993 212.774Z"/>
	<path fill="#1D1828" d="M255.291 178.761C269.039 177.276 291.115 184.484 307.064 184.726L336.048 184.681C340.389 184.519 350.762 181.958 354.033 183.416C356.754 184.629 359.387 189.349 357.75 192.222C356.451 194.503 353.734 195.439 351.381 196.174C325.83 202.032 296.134 196.877 270.5 193.501L259.631 192.117C247.133 190.426 244.585 182.152 255.291 178.761Z"/>
	<path fill="#1D1828" d="M166.034 151.95C159.045 149.522 152.789 143.532 148.638 137.585C131.621 113.204 137.315 78.5897 161.643 61.3926C164.063 59.6819 166.893 58.2899 169.765 57.5194L170.125 57.4258C183.293 53.8881 203.161 65.178 213.125 72.6008C213.851 73.1419 214.627 74.0338 215.5 74.2692L216.625 73.2805C217.363 74.6872 219.165 75.9054 220.221 77.1533C233.622 92.9778 230.58 117.176 220.99 134.046L218.575 137.754C216.424 140.374 214.208 143.029 211.557 145.165C201.025 152.705 187.592 156.345 174.678 154.163L166.034 151.95Z"/>
	<path fill="#FFD3D9" d="M176.28 71.842C187.463 69.7363 204.754 80.2711 211.29 88.4958C219.57 98.9148 216.497 115.34 210.627 126.192C206.236 134.311 199.798 139.478 190.978 142.105L188.268 142.598C146.854 149.4 137.255 77.6713 176.28 71.842Z"/>
	<path fill="#280B30" d="M171.014 91.0455C176.625 91.5581 177.718 99.4213 172.375 99.9723C165.786 99.2409 165.902 92.5569 171.014 91.0455Z"/>
	<path fill="#280B30" d="M193.118 94.3031C203.503 93.9585 197.221 106.613 190.248 109.43C180.73 108.913 185.217 96.8827 193.118 94.3031Z"/>
	<path fill="#280B30" d="M169.029 111.625C173.28 111.054 175.892 120 184.001 121.273C189.807 122.184 190.785 118.437 194.819 115.712C199.592 112.488 199.807 121.747 197.524 126.001C194.009 130.441 188.881 131.605 183.352 130.849L182.875 130.781C171.107 129.254 159.892 114.888 169.029 111.625Z"/>
</svg>
