<?xml version="1.0" encoding="utf-8" ?>
<svg xmlns="http://www.w3.org/2000/svg" xmlns:xlink="http://www.w3.org/1999/xlink" width="512" height="512">
	<path fill="#201F23" d="M136.989 8.28921C137.988 8.25255 139.17 8.10906 140.132 8.41285L140.375 8.49786C145.446 10.2429 142.97 16.2877 138.197 17.0564C131.947 16.0188 128.419 10.5471 136.989 8.28921Z"/>
	<path fill="#201F23" d="M442.412 81.6072C443.722 81.548 445.214 81.5897 446.502 81.8345L461.117 84.6613C464.458 85.3862 469.741 85.8328 471.386 89.3871L471.922 90.5975C473.583 94.9941 470.566 99.4828 466.453 100.972C460.364 101.218 448.259 98.3798 442.875 96.2078C434.961 93.0154 433.939 84.6045 442.412 81.6072Z"/>
	<path fill="#201F23" d="M451.888 36.5555C460.425 36.1171 464.12 44.1259 457.875 49.5868C454.992 52.1081 451.563 53.9738 448.522 56.2929C443.684 59.9812 439.506 64.6938 433.866 67.1524C425.321 68.0409 422.838 59.1592 428.927 53.4609C432.414 50.1972 447.943 37.7683 451.888 36.5555Z"/>
	<path fill="#201F23" d="M419.5 11.0314C424.306 10.7348 429.099 15.0583 427.198 20.1094C425.345 25.0331 422.126 29.7707 419.503 34.332L412.773 46C411.199 48.443 409.693 50.0604 406.738 50.6969C403.276 50.6768 399.334 48.0932 398.725 44.5164L398.684 44.25C397.905 39.4604 402.195 34.9244 404.396 31.0156C407.758 25.0453 412.066 12.7571 419.5 11.0314Z"/>
	<path fill="#201F23" d="M120.749 88.0983L217.337 88.1404C221.75 88.1255 226.379 87.8257 230.765 88.1943C240.072 88.9762 238.123 101.698 229.975 102.381L130.22 102.263C122.159 102.255 115.419 104.031 113.13 94.5303C114.319 90.6708 116.745 88.5498 120.749 88.0983Z"/>
	<path fill="#201F23" d="M151.509 135.835L231.04 135.865C237.344 136.431 238.779 145.214 234.067 148.913L233.792 149.125C230.936 151.475 223.959 150.225 220.51 150.227L198.875 150.244L126.375 150.255C124.358 150.258 121.754 150.568 119.793 150.134C111.529 148.303 111.406 137.578 120.293 136.111C123.784 135.535 127.761 135.864 131.306 135.858L151.509 135.835Z"/>
	<path fill="#201F23" d="M168.282 495.04C166.705 496.838 166.27 500.013 164.15 500.943L163.802 501.091C160.553 502.514 154.81 501.877 151.28 501.895L97.125 501.346C56.6563 498.717 42.8848 487.036 40.0371 447.047L39.3494 394.757C39.4115 391.418 39.3778 387.87 39.9445 384.574C40.6991 380.186 40.055 375.146 40.201 370.658L42.6823 303.851C42.7634 301.668 43.1572 299.503 43.2019 297.327L44.0942 235.25L45.6574 175.183L50.467 78.6226C51.2342 64.0937 50.9079 48.963 57.9267 35.7317C68.9576 14.9368 91.1731 10.2031 112.623 9.04566C117.595 8.77734 119.926 8.18253 121.452 13.5542C119.677 19.0826 115.332 18.0536 110.457 18.4831C74.9447 21.6118 68.5522 35.9929 66.105 69.4598L62.6106 133.253L61.8225 165.192C61.7632 167.317 61.3303 169.395 61.279 171.516L61.1559 191.47C61.0942 194.153 60.5356 196.761 60.4877 199.422L60.4229 239C60.3998 241.469 59.842 243.82 59.756 246.25L59.71 263.155L59.6674 284.375C59.5896 286.836 59.0704 289.228 59.0322 291.72L58.9411 313.97C58.8912 316.245 58.4959 318.477 58.4628 320.767L58.3918 336C58.3304 337.685 57.9482 339.343 57.8652 341.039L57.1635 368.524C57.1104 369.817 56.7728 371.825 57.1358 373.034L55.709 413.589L55.7326 421.017L55.76 433.747C55.77 436.229 55.6544 438.852 55.969 441.314L56.6229 451.377C56.799 454.12 56.9644 457.278 57.6118 459.941C58.1334 463.836 58.8665 467.667 60.2974 471.336C64.6462 484.353 77.9858 490.748 90.8932 491.923L98.9718 492.754C103.829 493.563 108.872 493.323 113.781 493.325L127.89 493.281L142.621 492.815L158.15 492.752C159.972 492.746 165.23 491.851 166.51 493.375L167.041 494.462C167.512 494.611 167.938 494.671 168.282 495.04Z"/>
	<path fill="#201F23" d="M423.721 315.181L413.472 141.809L406.204 141.991C404.241 142.122 402.259 142.432 400.296 142.456L385.675 142.538C376.245 142.581 367.496 143.697 357.77 143.747C344.697 143.813 321.824 144.604 309.617 139.172C283.183 127.411 286.162 87.0305 289.111 63.125C290.891 48.6901 293.081 33.2 299.159 19.8843C292.1 17.8157 279.922 17.125 271.983 16.8182L197.007 16.782C194.977 16.8529 193.109 17.3773 191.118 17.5121C185.996 17.8589 170.662 18.3219 165.61 17.5842C161.887 17.0404 162.181 10.6717 164.945 9.08393C167.237 7.76709 179.6 8.36162 182.817 8.35434L286.678 9.07886C330.406 11.6526 341.54 28.9594 370.985 56.9065L380.875 66.0885C383.239 68.2624 386.089 71.8012 389.21 72.7254L391.87 73.7029C392.83 75.7159 395.2 80.2619 393.333 82.385L393.125 82.608C392.026 83.81 390.582 84.8617 389.639 86.1602L389.271 86.6928L389.569 87.0435C392.288 88.5711 397.598 92.8802 399.04 95.875L399.435 95.899C403.745 91.9079 408.299 88.917 412.787 93.8796C423.203 105.397 424.38 118.786 426.03 133.375L435.276 238.25L437.6 290.382L437.73 308.25C437.817 311.486 438.439 314.699 438.539 317.956L438.681 347.173C438.764 349.85 439.329 352.485 439.39 355.175L440.388 399.821L440.352 448.164C440.158 451.641 439.624 455.124 439.196 458.578C433.757 502.451 378.613 500.991 345.403 501.012L295.91 501.063C293.181 501.109 290.514 501.808 287.75 501.848L196.651 501.852C190.07 501.843 178.258 504.437 177.799 495.973C178.77 493.02 181.469 491.291 184.267 490.283L185.625 491C190.097 493.388 202.26 493.176 207.865 492.826L208.211 492.803L216.471 492.813L264.752 493.268C265.535 493.255 266.936 493.404 267.639 493.141L311.94 491.98L315.978 491.497L343.724 491.426L350.722 491.454L366.855 491.383L374.66 490.426C377.146 489.916 394.641 471.119 400.227 467.153L413.652 458.459C415.671 457.273 417.777 455.687 420.066 455.105L420.248 455.201C421.115 455.433 422.887 455.346 423.708 454.984L424.31 433.342C424.499 431.568 424.689 428.928 424.33 427.186L424.228 396.366L424.255 391.058L424.205 352.201C424.247 351.216 424.021 349.707 424.009 348.668C423.935 347.839 424.04 346.73 424.014 345.835L423.754 340.595L423.728 332.77L423.726 323.306L423.721 315.181Z"/>
	<path fill="#B8B8FF" d="M303.235 94.8199C304.157 94.945 304.87 94.9658 305.791 94.8159L306.8 96.6857L303.514 99.565L303.235 94.8199Z"/>
	<path fill="#9381FF" d="M304.775 59.1285C305.113 53.057 309.839 28.2079 315.314 26.8181C321.181 28.8503 326.359 32.2633 331.083 36.2516L333.28 38.0502C332.491 38.9018 331.772 39.7531 330.743 40.3261L329.39 39.3186C325.552 41.9835 321.725 45.1994 318.41 48.4947L312.017 54.7575C310.274 56.4126 307.488 59.4421 304.775 59.1285Z"/>
	<path fill="#B8B8FF" d="M331.083 36.2516L333.28 38.0502C332.491 38.9018 331.772 39.7531 330.743 40.3261L329.39 39.3186L331.083 36.2516Z"/>
	<path fill="#9381FF" d="M420.066 455.105L420.248 455.201C421.115 455.433 422.887 455.346 423.708 454.984C421.481 481.226 398.238 489.916 374.66 490.392C377.146 489.916 394.641 471.119 400.227 467.153L413.652 458.459C415.671 457.273 417.777 455.687 420.066 455.105Z"/>
	<path fill="#9381FF" d="M333.28 38.0502L351.524 55.1548L351.314 55.4685C345.374 64.5012 342.513 66.3608 333.795 73.2893L315.89 87.203C312.65 89.6666 309.294 92.8149 305.791 94.8159C304.87 94.9658 304.157 94.945 303.235 94.8199C302.479 86.5097 302.134 72.4651 304.144 64.7339L304.775 59.1285C307.488 59.4421 310.274 56.4126 312.017 54.7575L318.41 48.4947C321.725 45.1994 325.552 41.9835 329.39 39.3186L330.743 40.3261C331.772 39.7531 332.491 38.9018 333.28 38.0502Z"/>
	<defs>
		<linearGradient id="gradient_0" gradientUnits="userSpaceOnUse" x1="314.802" y1="44.636501" x2="319.42401" y2="58.7897">
			<stop offset="0" stop-color="#DACCFF"/>
			<stop offset="1" stop-color="#F7EFFF"/>
		</linearGradient>
	</defs>
	<path fill="url(#gradient_0)" d="M329.39 39.3186L330.743 40.3261C327.873 42.0688 325.497 44.2861 323.038 46.5433L307.101 62.3485C306.2 63.2409 305.35 64.2812 304.144 64.7339L304.775 59.1285C307.488 59.4421 310.274 56.4126 312.017 54.7575L318.41 48.4947C321.725 45.1994 325.552 41.9835 329.39 39.3186Z"/>
	<path fill="#9381FF" d="M351.524 55.1548L355.203 58.4788L370.484 72.1297L373.448 74.7248C376.23 76.9417 386.045 86.8228 388.986 86.8318L389.271 86.6928L389.569 87.0435C392.288 88.5711 397.598 92.8802 399.04 95.875L399.435 95.899C408.739 108.199 411.383 117.098 412.642 131.965C402.434 133.269 392.134 133.325 381.875 133.728L357.065 134.308C346.867 134.309 319.75 135.057 311.326 128.347C306.247 124.301 302.943 106.784 303.393 99.565L306.8 96.6857L305.791 94.8159C309.294 92.8149 312.65 89.6666 315.89 87.203L333.795 73.2893C342.513 66.3608 345.374 64.5012 351.314 55.4685L351.524 55.1548Z"/>
	<defs>
		<linearGradient id="gradient_1" gradientUnits="userSpaceOnUse" x1="389.63599" y1="95.603401" x2="356.05899" y2="100.789">
			<stop offset="0" stop-color="#A4A2FF"/>
			<stop offset="1" stop-color="#DCDEFF"/>
		</linearGradient>
	</defs>
	<path fill="url(#gradient_1)" d="M388.986 86.8318L389.271 86.6928L389.569 87.0435C389.315 87.3914 389.156 87.6374 389.124 88.0784L389.06 89.125C388.768 90.987 385.254 92.3182 383.856 93.1917L349.711 114.687C346.495 117.077 343.623 119.9 340.286 122.115C343.551 117.55 348.849 114.065 353.388 110.841L381.183 91.949C383.194 90.4811 385.388 89.5611 387.201 87.8025L388.986 86.8318Z"/>
	<defs>
		<linearGradient id="gradient_2" gradientUnits="userSpaceOnUse" x1="344.80099" y1="88.467697" x2="346.98099" y2="92.089699">
			<stop offset="0" stop-color="#C1BFFF"/>
			<stop offset="1" stop-color="white"/>
		</linearGradient>
	</defs>
	<path fill="url(#gradient_2)" d="M370.484 72.1297L373.448 74.7248C372.1 76.9356 368.823 77.8415 366.747 79.2063L343.611 94.402C334.295 100.439 325.32 105.922 314.869 109.89C317.488 107.454 320.775 106.184 323.902 104.548L331.75 100.201C338.933 96.1762 366.253 79.1608 370.484 72.1297Z"/>
	<defs>
		<linearGradient id="gradient_3" gradientUnits="userSpaceOnUse" x1="327.56" y1="73.272202" x2="331.18701" y2="78.299103">
			<stop offset="0" stop-color="#D1C9FF"/>
			<stop offset="1" stop-color="white"/>
		</linearGradient>
	</defs>
	<path fill="url(#gradient_3)" d="M351.524 55.1548L355.203 58.4788C353.75 61.0422 350.432 62.5859 348.128 64.2851L306.8 96.6857L305.791 94.8159C309.294 92.8149 312.65 89.6666 315.89 87.203L333.795 73.2893C342.513 66.3608 345.374 64.5012 351.314 55.4685L351.524 55.1548Z"/>
	<path fill="#201F23" d="M184.547 248.453C204.467 233.362 222.962 226.118 248.018 223.205C299.055 217.27 342.681 254.047 346.772 305.733C348.338 325.514 345.644 346.651 336.606 364.403L331.607 374.136C324.867 385.664 315.709 393.401 305.32 401.274L299.972 404.732C258.948 429.704 206.995 421.02 176.841 383.042C173.2 378.457 170.059 373.418 167.027 368.414C147.287 335.002 149.657 287.634 174.982 257.668C177.918 254.195 181.144 251.434 184.547 248.453ZM265.455 236.235L263.722 237.467C265.802 237.55 268.255 237.848 270.29 237.538C271.845 237.307 273.304 236.301 274.646 235.535C273.49 235.125 270.478 234.019 269.408 234.428L269.14 234.538C267.831 235.032 266.675 235.548 265.455 236.235Z"/>
	<path fill="#DA2E41" d="M263.722 237.452C265.802 237.55 268.255 237.848 270.29 237.551C271.387 239.03 274.627 239.238 276.292 240.272C270.547 239.461 262.417 238.214 256.75 240.004C254.12 240.834 249.478 240.266 247.783 237.802L248.875 237.764C250.001 238.557 251.197 238.95 252.541 239.217L253 239.306C256.773 240.089 260.335 239.055 263.722 237.452Z"/>
	<path fill="#F8F7FF" d="M247.783 237.802C249.478 240.266 254.12 240.834 256.75 240.004C262.417 238.214 270.547 239.461 276.292 240.272C306.103 246.155 329.488 274.779 332.908 304.289C333.974 313.492 333.635 324.15 331.838 333.183L328.957 343.672C328.527 346.211 327.757 348.588 326.66 350.917L320.942 362.875C310.424 381.443 291.403 395.776 270.965 401.334C228.422 412.901 184.834 382.904 173.719 341.567C168.027 320.398 169.88 295.551 181.118 276.418C194.072 254.365 213.84 243.242 238.25 239.249C241.258 238.757 244.658 238.658 247.563 237.866L247.783 237.802Z"/>
	<path fill="#FF7DA2" d="M221.017 249.578C220.142 250.931 218.961 251.763 219.125 253.5L220.375 253.127C220.767 253.174 221.03 253.228 221.411 253.359C220.519 253.918 217.529 254.641 216.6 253.906L216.618 253.643C216.937 252.159 219.76 250.341 221.017 249.578Z"/>
	<path fill="#FF7DA2" d="M248.228 246.992C248.174 247.493 248.234 247.994 247.894 248.375L247.498 250.009C245.654 250.13 243.948 250.535 242.31 251.424C241.793 251.125 241.889 251.12 241.692 250.598L248.228 246.992Z"/>
	<path fill="#B8B8FF" d="M325.166 348.53C326.143 346.726 327.264 344.878 328.957 343.672C328.527 346.211 327.757 348.588 326.66 350.917C326.628 350.428 326.607 350.597 326.686 350.159L325.275 350.032C325.416 349.317 325.416 349.213 325.166 348.53Z"/>
	<path fill="#C7B9BF" d="M325.166 348.53C325.416 349.213 325.416 349.317 325.275 350.032C323.807 354.234 313.715 362.099 310.375 365.123L318.364 356.37C320.825 353.784 323.134 351.495 325.166 348.53Z"/>
	<path fill="#FFCFD9" d="M281.623 244.625C282.892 245.257 277.167 247.856 276.437 248.304L256.875 260.127L256.445 260.126C258.353 257.151 278.422 245.896 281.623 244.625Z"/>
	<path fill="#FF73A3" d="M248.228 246.992C251.711 244.916 255.453 243.017 259.625 244.271C262.782 245.221 255.593 250.427 252.955 250.466C251.983 250.48 248.016 249.779 247.498 250.151L247.894 248.375C248.234 247.994 248.174 247.493 248.228 246.992Z"/>
	<path fill="#FF73A3" d="M221.017 249.578C223.712 247.677 231.635 243.721 235.125 244.472L235.58 244.625C234.728 247.659 224.582 252.714 221.411 253.359C221.03 253.228 220.767 253.174 220.375 253.127L219.125 253.5C218.961 251.763 220.142 250.931 221.017 249.578Z"/>
	<path fill="#FF73A3" d="M204.87 264.271C210.879 264.253 206.999 270.819 204.733 272.966C202.496 275.085 200.029 274.818 197.155 274.777C195.341 274.283 194.416 273.61 193.106 272.318L193.24 272.082C195.707 267.838 200.3 265.521 204.87 264.271Z"/>
	<path fill="#201F23" d="M193.559 312.597C206.446 311.715 209.993 323.897 195.565 327.578C181.786 329.59 178.635 314.044 193.559 312.597Z"/>
	<path fill="#201F23" d="M310.89 312.835C325.268 311.868 326.4 324.26 312.74 328.118C300.721 329.288 294.924 314.716 310.89 312.835Z"/>
	<path fill="#201F23" d="M253.187 280.354C295.797 277.739 309.189 347.082 254.062 352.974C236.249 353.827 217.565 344.761 215.603 325.25C213.244 301.777 229.858 282.621 253.187 280.354Z"/>
	<path fill="#9381FF" d="M252.026 287.095L253 286.996C285.34 285.416 290.35 340.683 252.636 341.734C241.299 340.782 227.02 331.355 225.376 319.36C223.442 305.248 237.966 288.998 252.026 287.095Z"/>
	<path fill="#040621" d="M251.634 314.081C262.803 313.385 263.34 322.839 253.334 325.285C242.43 325.399 239.654 315.603 251.634 314.081Z"/>
	<path fill="#B8B8FF" d="M314.661 409.004C317.288 407.719 319.676 405.962 322.282 404.609L347.75 391.303L390.783 365.449L411.435 354.681C415.519 352.525 419.546 349.932 424.009 348.668C424.021 349.707 424.247 351.216 424.037 352.201L424.255 391.058L424.244 396.366L424.297 427.186C424.689 428.928 424.499 431.568 424.252 433.342L423.709 454.984C422.887 455.346 421.115 455.433 420.248 455.201L420.066 455.105C417.777 455.687 415.671 457.273 413.652 458.459L400.227 467.153C394.641 471.119 377.146 489.916 374.66 490.426L366.855 491.041L350.722 491.497L343.724 491.448L315.978 491.524L311.94 491.837L267.639 492.781C266.936 493.404 265.535 493.255 264.752 493.268L216.471 493.194L208.211 492.787L207.865 492.826C202.26 493.176 190.097 493.388 185.625 491L184.267 490.283C181.469 491.291 178.77 493.02 177.799 495.973L177.625 495.061C174.681 495.055 171.126 495.643 168.282 495.04C167.938 494.671 167.512 494.611 167.041 494.462L166.51 493.375C165.23 491.851 159.972 492.746 158.15 492.752L142.621 492.787L127.89 493.262L113.781 493.325C108.872 493.323 103.829 493.563 98.9718 492.759L90.8932 491.923C77.9858 490.748 64.6462 484.353 60.2974 471.336C58.8665 467.667 58.1334 463.836 57.6338 459.941C56.9644 457.278 56.799 454.12 56.7553 451.377L56.3009 441.314C55.6544 438.852 55.77 436.229 55.76 433.747L55.7256 421.017L55.7255 413.589L56.7175 373.034L69.8983 373.005C72.1035 372.922 74.2682 372.587 76.4826 372.567L100.723 372.469L161.897 369.344C163.521 369.265 165.693 369.421 167.027 368.414C170.059 373.418 173.2 378.457 176.841 383.042C206.995 421.02 258.948 429.704 299.972 404.732L305.32 401.274L314.661 409.004Z"/>
	<path fill="#F8F7FF" d="M119.083 432.625L119.645 432.625C115.637 435.829 110.965 438.475 106.697 441.341L90.7502 451.66C88.1144 453.306 85.6607 455.067 82.875 456.473L82.3306 456.375C86.8296 451.446 93.2852 448.084 98.9015 444.576L119.083 432.625Z"/>
	<defs>
		<linearGradient id="gradient_4" gradientUnits="userSpaceOnUse" x1="352.36899" y1="413.89801" x2="351.82101" y2="422.55099">
			<stop offset="0" stop-color="#FAFFFB"/>
			<stop offset="1" stop-color="#DBCCFF"/>
		</linearGradient>
	</defs>
	<path fill="url(#gradient_4)" d="M368.982 415.145L376.028 414.953C362.965 418.884 349.12 417.854 335.831 421.077C333.723 421.552 331.378 422.723 330.307 420.375L330.5 420.032C334.946 420.275 338.676 418.613 342.999 417.994C351.656 416.756 360.244 415.641 368.982 415.145Z"/>
	<path fill="#F8F7FF" d="M126.123 442.875C129.224 442.491 121.579 446.633 121.152 446.903L109.5 454.363C103.66 458.355 93.743 467.566 87.125 468.75L86.0005 468.5C87.866 463.731 100.487 457.715 104.828 455.167L126.123 442.875Z"/>
	<path fill="#F8F7FF" d="M314.289 489.206C320.965 484.15 348.478 469.433 353.979 471.083C351.614 472.764 349.059 473.94 346.5 475.278L338.09 479.729C332.425 482.653 326.676 486.032 320.729 488.309C318.776 488.982 316.953 489.428 314.88 489.518L314.289 489.206Z"/>
	<path fill="#F8F7FF" d="M55.7255 413.589L55.9987 413.678C59.8297 414.67 64.4398 409.963 67.3932 407.991L83.3379 398.187C85.1915 397.16 87.2899 395.823 89.3324 395.251C87.4554 397.14 85.1607 398.681 83.0747 400.344L67.2712 412.55C63.5805 415.336 60.1007 419.383 55.6877 421.017L55.7255 413.589Z"/>
	<path fill="#F8F7FF" d="M424.252 433.342C415.642 437.677 396.901 449.925 390.417 457.221C388.169 459.751 386.634 461.548 383.857 463.569L384.481 462.424C392.856 449.413 405.751 442.409 417.193 433.254C418.815 431.955 422.636 427.606 424.495 427.186C424.689 428.928 424.499 431.568 424.252 433.342Z"/>
	<path fill="#F8F7FF" d="M57.6338 459.941L58.1249 459.714C60.349 461.573 66.0185 456.739 68.0039 455.407C72.4112 452.451 76.4536 449.881 81.5466 448.229C77.0499 455.726 61.8853 464.741 60.5625 470.723C60.4847 471.075 60.5164 470.942 60.2974 471.336C58.8665 467.667 58.1334 463.836 57.6338 459.941Z"/>
	<path fill="#F8F7FF" d="M424.275 391.058L424.244 396.366C423.863 397.626 424.003 399.218 423.971 400.529C419.475 401.535 415.521 404.277 411.587 406.546L400.945 412.618C396.967 414.929 392.819 418.193 388 417.953L387.932 417.717C396.069 412.881 401.715 410.204 409.606 403.803L420.421 394.218C421.725 393.113 422.811 391.974 424.275 391.058Z"/>
	<path fill="#F8F7FF" d="M56.3009 441.314L56.5602 441.36C60.0101 441.823 62.8111 439.322 65.6484 437.686L100.568 419.383C104.587 417.467 103.554 418.333 100.533 420.29L92.5951 425.103C86.1918 429.065 61.0036 445.564 56.7553 451.377L56.3009 441.314Z"/>
	<path fill="#F8F7FF" d="M318.806 465.195L319.187 465.07C321.31 464.343 323.286 463.093 325.25 462.031L340.675 452.819C334.987 458.559 332.101 460.554 325.016 464.097L311.437 471.298L280.528 490.656C279.918 491.071 278.709 491.294 278.375 491.627L277.25 492.377C276.634 492.44 276.114 492.486 275.5 492.439L269.623 492.625L269.781 491.953C271.352 491.142 274.266 489.858 275.224 488.316L318.806 465.195Z"/>
	<path fill="#F8F7FF" d="M90.8932 491.923L91.1835 491.534C93.5368 488.693 104.965 483.366 108.552 481.382L132.427 467.808C135.831 466.022 156.983 455.828 160.5 455.569L160.721 455.924C156.826 457.8 153.086 460.108 149.295 462.193L111.17 483.829C107.772 485.803 104.266 487.735 101.18 490.181L100.898 490.399C100.051 491.064 99.509 491.828 98.9718 492.754L90.8932 491.923Z"/>
	<path fill="#F8F7FF" d="M423.11 370.375L424.152 377.375C422.879 378.024 421.392 377.996 420.084 378.589C413.13 381.741 406.257 385.516 399.601 389.253L387.871 395.766C382.258 398.853 377.444 401.115 371.125 402.254C370.625 402.317 370.553 402.325 370.061 402.125C374.547 398.208 380.647 395.622 385.755 392.598L423.11 370.375Z"/>
	<path fill="#F8F7FF" d="M194.781 459.078L205.103 454.122C206.948 453.216 210.228 451.842 206.444 453.782L208.125 453.5C208.431 453.187 208.598 452.977 209.038 452.866L209.044 453.286L147.268 488.439C145.785 489.343 144.08 490.131 142.783 491.283L142.621 492.82L127.89 493.262C129.139 491.939 131.38 491.316 132.983 490.498L194.781 459.078Z"/>
	<path fill="#9381FF" d="M364.562 475.853C367.727 474.746 370.951 473.789 374.037 472.47C376.529 471.406 379.069 469.805 381.625 469.024C386.413 467.562 391.24 467.226 395.906 465.134C402.246 462.292 413.858 452.078 420.21 454.837L420.066 455.105C417.777 455.687 415.671 457.273 413.652 458.459L400.227 467.153C394.641 471.119 377.146 489.916 374.66 490.426L366.855 491.041L350.722 491.497L343.724 491.448L315.978 491.524C316.96 491.535 318.549 491.723 319.375 491.25L315.625 491.25L315.625 490.167C316.5 489.744 317.29 490.018 318.185 489.788L318.572 489.661C319.532 489.365 319.998 489.007 320.729 488.309C326.676 486.032 332.425 482.653 338.09 479.729L346.5 475.278C349.059 473.94 351.614 472.764 353.979 471.083C355.537 471.998 357.798 471.904 359.527 472.655C361.333 473.439 362.813 475.164 364.562 475.853Z"/>
	<path fill="#F8F7FF" d="M364.562 475.853C367.727 474.746 370.951 473.789 374.037 472.47C376.529 471.406 379.069 469.805 381.625 469.024C386.413 467.562 391.24 467.226 395.906 465.134C402.246 462.292 413.858 452.078 420.21 454.837L420.066 455.105C417.777 455.687 415.671 457.273 413.652 458.459L400.227 467.153C394.641 471.119 377.146 489.916 374.66 490.426L366.855 491.041L364.024 490.904C364.4 490.506 364.257 490.584 364.654 490.373C370.348 487.346 379.293 478.572 382.746 473.543C381.106 473.665 379.36 473.466 377.75 473.761C370.861 475.022 360.086 484.254 351.837 488.035C350.354 487.967 347.198 488.706 346.074 488.197L364.562 475.853Z"/>
	<defs>
		<linearGradient id="gradient_5" gradientUnits="userSpaceOnUse" x1="368.89001" y1="378.05301" x2="374.91599" y2="388.64401">
			<stop offset="0" stop-color="#C0C6FF"/>
			<stop offset="1" stop-color="white"/>
		</linearGradient>
	</defs>
	<path fill="url(#gradient_5)" d="M314.661 409.004C317.288 407.719 319.676 405.962 322.282 404.609L347.75 391.303L390.783 365.449L411.435 354.681C415.519 352.525 419.546 349.932 424.009 348.668C424.021 349.707 424.247 351.216 424.037 352.201L424.037 359.123C418.318 361.288 418.567 361.43 413.27 364.853L354.85 400.123C351.493 402.118 329.934 415.629 327.582 415.558C327.287 415.549 324.511 414.133 324.125 413.858L323.875 413.606C323.469 413.212 317.341 411.033 314.661 409.004Z"/>
	<path fill="#9381FF" d="M209.044 453.286L242.378 432.91C250.883 442.392 253.097 447.989 265.584 451.94L279.112 455.986C285.131 457.876 291.041 460.123 297.185 461.614C300.083 462.317 318.394 464.887 318.806 465.151L275.224 488.316C273.581 489.003 272.305 490.155 270.75 490.983C269.423 491.689 268.321 491.513 267.639 493.039C266.936 493.404 265.535 493.255 264.752 493.268L216.471 493.194L208.211 492.787L207.865 492.826C202.26 493.176 190.097 493.388 185.625 491L184.267 490.283C181.469 491.291 178.77 493.02 177.799 495.973L177.625 495.061C174.681 495.055 171.126 495.643 168.282 495.04C167.938 494.671 167.512 494.611 167.041 494.462L166.51 493.375C165.23 491.851 159.972 492.746 158.15 492.752L142.621 492.787L142.783 491.283C144.08 490.131 145.785 489.343 147.268 488.439L209.044 453.286Z"/>
	<path fill="#B8B8FF" d="M281.829 466.125L281.941 466.276C281.341 467.175 277.565 468.681 276.5 469.251C272.237 471.533 268.485 474.184 264.75 477.246L265.188 476.438C266.773 475.542 268.214 473.946 269.75 472.875L269.78 472.741C268.257 472.459 265.8 476.233 263.79 476.088C269.322 472.481 275.224 467.529 281.829 466.125Z"/>
	<path fill="#F8F7FF" d="M247.072 453.125C248.23 452.981 249.206 453.766 249.445 454.875C248.11 456.386 246.37 457.5 244.665 458.55C244.069 458.879 243.519 459.075 242.875 459.281L242.742 458.875C243.61 456.627 245.211 454.624 247.072 453.125Z"/>
	<defs>
		<linearGradient id="gradient_6" gradientUnits="userSpaceOnUse" x1="229.81" y1="470.87799" x2="241.19099" y2="482.366">
			<stop offset="0" stop-color="#C5C4FF"/>
			<stop offset="1" stop-color="#FEFFFF"/>
		</linearGradient>
	</defs>
	<path fill="url(#gradient_6)" d="M212.217 489.32C216.078 487.046 220.474 485.832 224.38 483.511C234.169 477.695 253.148 462.152 264.227 460.971C260.083 463.889 255.226 465.922 250.951 468.743C244.091 473.268 238.108 478.922 231.315 483.484C229.383 484.782 220.224 489.562 219.43 490.978C218.812 491.764 218.072 492.114 217.375 492.75L216.471 493.036L208.211 492.787C204.394 491.997 210.52 490.017 212.217 489.32Z"/>
	<path fill="#B8B8FF" d="M208.211 492.787C204.394 491.997 210.52 490.017 212.217 489.32L211.975 489.635C211.133 490.654 208.752 490.812 210.016 492.428C212.127 493.341 215.369 492.877 217.25 491.627L217.852 491.316C218.36 491.04 218.867 491.025 219.43 490.978C218.812 491.764 218.072 492.114 217.375 492.75L216.471 493.036L208.211 492.787Z"/>
</svg>
