<?xml version="1.0" encoding="utf-8" ?>
<svg xmlns="http://www.w3.org/2000/svg" xmlns:xlink="http://www.w3.org/1999/xlink" width="512" height="512">
	<path fill="#FFEA0F" d="M456.454 244.496L456.248 230.464C456.253 228.235 456.004 225.633 456.422 223.444C457.552 217.515 465.935 218.462 465.569 227.636L464.79 244.523C462.245 243.926 458.859 243.864 456.454 244.496Z"/>
	<path fill="#9381FF" d="M99.5673 121.676C102.741 121.917 105.812 121.688 109.02 121.223C109.639 122.334 109.374 123.339 109.287 124.5L109.022 146.283L96.7973 145.589C100.159 137.87 99.9874 129.88 99.5673 121.676Z"/>
	<path fill="#1D1743" d="M305.036 108.715C314.558 107.801 317.07 122.766 307.216 123.807C303.412 124.209 299.243 123.855 295.411 123.839L194.8 123.833C183.884 124.288 183.308 110.069 192.013 108.919C195.71 108.43 199.817 108.766 203.564 108.765L305.036 108.715Z"/>
	<path fill="#1D1743" d="M203.343 69.5769L281.048 69.5639C283.63 69.5566 286.646 69.2615 289.181 69.6144C294.539 70.3603 296.333 78.7877 292.783 82.4016C289.127 86.1239 283.816 84.8715 279.111 84.8682L257.871 84.8488L179.824 84.8787C177.343 84.8787 174.136 85.2275 171.734 84.6465C165.109 83.044 165.008 73.5468 171.157 70.3384L171.745 70.0245C173.548 69.0527 199.333 69.5779 203.343 69.5769Z"/>
	<path fill="#1D1743" d="M96.7973 145.565L108.991 146.283C111.213 147.421 110.131 151.125 110.083 153.175L108.965 191.414C108.912 193.295 108.464 195.111 108.401 196.992L108.316 213.375L107.334 251.625C107.272 253.206 106.931 254.756 106.868 256.336L106.756 269.375C106.702 271.029 106.392 272.659 106.334 274.314L106.296 385.625C106.335 387.55 106.693 389.449 106.747 391.374L108.19 426.71C108.863 434.218 110.127 442.037 109.776 449.581C107.39 451.249 104.68 452.054 102.076 453.121L102.074 453.148C93.0547 453.935 93.7105 440.424 93.2675 434.25L91.3429 390.375C91.1868 386.837 90.5272 383.247 90.4452 379.727L90.4198 296.519C90.5122 292.752 90.9104 288.91 91.083 285.125L91.5084 251.189C91.5686 248.764 92.1529 246.39 92.2121 244L92.3278 214.357C92.3782 212.434 92.7161 210.539 92.7622 208.616L92.8975 197.047C92.9949 195.236 93.3781 193.425 93.4214 191.625L93.5696 163.673C93.7295 159.361 93.8877 147.208 96.7973 145.565Z"/>
	<path fill="#9381FF" d="M109.701 449.581C113.142 467.736 123.817 466.457 139.503 467.453L151.5 468.013C153.557 468.122 155.57 468.401 157.641 468.44L193.785 469.434L290.388 469.442C293.106 469.404 295.836 468.579 298.625 468.54L340.822 468.446C345.061 468.361 349.294 467.756 353.528 467.52L366.764 467.148C369.567 467.022 372.373 466.674 375.18 466.729L379.537 466.641L381.825 491.014L360.629 492.211L331.7 492.983C329.811 493.1 327.972 493.363 326.069 493.411L305.417 493.523C302.778 493.614 300.178 494.183 297.5 494.214L258.284 494.297C256.696 494.301 254.918 494.186 253.358 494.473C249.985 495.091 247.492 500.568 247.434 503.554L228.862 503.306C228.368 491.594 222.244 493.502 213.214 493.465C207.215 493.441 201.172 493.472 195.223 492.571L194.98 492.532L193.152 492.483C190.866 492.491 188.411 492.31 186.11 492.3L112.161 488.224C109.307 488.006 106.371 487.903 103.553 487.391L104.29 487.125C104.298 483.126 103.593 479.097 103.376 475.095L102.886 455.44C102.845 454.484 103.012 453.926 102.442 453.148L102.076 453.121C104.68 452.054 107.39 451.249 109.701 449.581Z"/>
	<path fill="#F8F7FF" d="M193.152 492.483L192.51 491.904C195.146 488.677 192.742 483.931 192.617 480.203C194.329 484.032 196.666 488.233 197.158 492.431C196.462 492.629 195.697 492.546 194.98 492.532L193.152 492.483Z"/>
	<path fill="#1D1743" d="M456.454 244.496C458.859 243.864 462.245 243.926 464.641 244.523C465.79 245.343 466.507 246.092 467.218 247.303L467.24 264.192C467.205 270.404 466.748 275.52 466.533 281.437L466.403 295.766C466.36 297.673 466.046 299.556 465.975 301.461L464.317 346.55C464.218 348.419 463.89 350.258 463.835 352.141L463.342 380.917C463.295 382.566 462.984 384.178 462.899 385.819L461.343 445.588C461.176 453.703 460.781 462.565 459.062 470.5C455.826 485.439 444.511 498.857 429.032 501.615C422.153 502.841 414.975 503.063 408.004 503.543L316.224 508.935C314.015 509.02 311.833 509.488 309.596 509.569L258.95 509.749C252.866 509.757 249.566 510.616 247.434 503.554C247.492 500.568 249.985 495.091 253.358 494.473C254.918 494.186 256.696 494.301 258.284 494.297L297.5 494.214C300.178 494.183 302.778 493.614 305.417 493.523L326.069 493.411C327.972 493.363 329.811 493.1 331.7 492.983L360.629 492.211L381.825 491.107L379.537 466.641L375.18 466.719C377.148 466.276 379.264 466.331 381.258 466.314L408.25 465.734C423.561 465.129 431.352 465.734 445.396 459.616C446.756 450.118 446.711 438.88 447.12 429L447.973 409.038L450.86 321.39C450.931 319.362 451.296 317.377 451.391 315.359L451.642 302.359L453.293 255.339C453.347 251.268 452.703 247.05 456.454 244.496Z"/>
	<path fill="#B8B8FF" d="M375.18 466.719C377.148 466.276 379.264 466.331 381.258 466.314L408.25 465.734C423.561 465.129 431.352 465.734 445.396 459.616C443.598 486.45 429.319 487.482 406.152 489.223L381.825 491.014L379.537 466.641L375.18 466.719Z"/>
	<path fill="#1D1743" d="M56.4461 195.849C60.3041 196.23 62.6185 196.99 65.3387 199.913L65.5634 200.146C67.3546 202.063 66.2784 208.438 66.2776 210.94L66.2358 249.146C66.2213 254.684 65.8933 258.753 65.6114 264.042L65.514 394.449C65.5666 397.029 66.1315 399.559 66.1839 402.163L67.2491 455.967C68.2206 478.381 64.8279 483.467 91.2072 486.199L103.553 487.367C106.371 487.903 109.307 488.006 112.161 488.224L186.11 492.3C188.411 492.31 190.866 492.491 193.152 492.28L194.98 492.532L195.223 492.571C201.172 493.472 207.215 493.441 213.214 493.465C222.244 493.502 228.368 491.594 228.862 503.299L228.626 504.036C227.124 508.105 224.569 508.589 220.684 508.558L179.694 507.324L108.324 502.452C82.2826 500.544 55.1297 503.108 51.25 468.875L46.6551 403L45.6578 361.243L46.1038 280.875L47.2061 232.316L48.5318 205.416C48.9529 199.378 50.3068 197.836 56.4461 195.849Z"/>
	<path fill="#B8B8FF" d="M59.8548 179.713C65.1219 176.945 66.2202 175.434 66.2277 169.78L66.2722 108.964C66.3761 87.6665 73.975 81.5368 95.1821 81.4785C95.2538 84.3162 94.9751 87.2599 94.9325 90.1097L94.8387 108.263C94.8287 113.341 93.0824 119.743 99.2292 121.597L99.5028 121.676C99.9874 129.88 100.159 137.87 96.7973 145.565C93.8877 147.208 93.7295 159.361 93.5696 163.673L93.4214 191.625C93.3781 193.425 92.9949 195.236 92.8975 197.047L92.7622 208.616C92.7161 210.539 92.3782 212.434 92.3278 214.357L92.2121 244C92.1529 246.39 91.5686 248.764 91.5084 251.189L91.083 285.125C90.9104 288.91 90.5122 292.752 90.4198 296.519L90.4452 379.727C90.5272 383.247 91.1868 386.837 91.3429 390.375L93.2675 434.25C93.7105 440.424 93.0547 453.935 102.074 453.148C103.012 453.926 102.845 454.484 102.886 455.44L103.376 475.095C103.593 479.097 104.298 483.126 104.29 487.125L103.553 487.367L91.2072 486.199C64.8279 483.467 68.2206 478.381 67.2491 455.967L66.1839 402.163C66.1315 399.559 65.5666 397.029 65.514 394.449L65.6114 264.042C65.8933 258.753 66.2213 254.684 66.2358 249.146L66.2776 210.94C66.2784 208.438 67.3546 202.063 65.5634 200.146L65.3387 199.913C62.6185 196.99 60.3041 196.23 56.4461 195.849C57.79 195.577 57.7495 195.438 57.7349 194.057C57.6895 189.763 58.1771 183.642 59.8548 179.713Z"/>
	<path fill="#1D1743" d="M357.259 362.464C359.011 365.092 360.353 367.659 361.531 370.587L360.201 372.822C357.867 376.147 354.705 378.83 351.595 381.395C310.839 415.017 243.104 416.618 199.877 386.46C176.627 370.238 158.797 344.443 150.625 317.377C131.359 253.568 168.048 189.282 233.108 171.866C242.824 169.266 253.011 167.865 263.056 167.675C312.658 166.734 358.77 190.358 380.414 235.697C396.02 268.389 399.699 308.588 381.516 340.963C379.001 345.442 378.257 346.282 373.213 345.219C366.437 339.591 368.932 338.115 371.403 331.005C373.955 323.661 376.812 316.363 378.564 308.774C370.871 301.796 372.481 294.936 370.791 285.125L368.038 272.559C361.344 243.899 342.51 216.331 318.083 199.6C313.572 196.51 293.391 187.235 292.625 183.917C293.087 183.984 293.438 183.98 293.893 183.889L294.359 183.791C291.44 182.861 288.381 182.613 285.362 182.18C236.821 175.21 184.012 201.391 168.852 249.968C160.013 278.293 162.86 313.242 176.625 339.398C182.823 351.175 192.018 361.024 201.991 369.709C241.355 403.993 299.285 404.048 340.766 372.85C346.396 368.616 348.903 363.527 356.735 362.252L357.259 362.464Z"/>
	<path fill="#F8F7FF" d="M294.359 183.791C297.66 184.209 301.051 185.325 304.238 186.272C350.677 200.076 386.323 252.611 380.232 300.875L378.564 308.774C370.871 301.796 372.481 294.936 370.791 285.125L368.038 272.559C361.344 243.899 342.51 216.331 318.083 199.6C313.572 196.51 293.391 187.235 292.625 183.917C293.087 183.984 293.438 183.98 293.893 183.889L294.359 183.791Z"/>
	<path fill="#1D1743" d="M59.8548 179.713C53.3408 180.295 50.5537 176.249 50.2753 170.461L50.9772 106.327C51.2322 101.66 51.0693 97.3687 52.2304 92.778C55.1001 81.4315 64.3844 71.3619 75.6161 67.875C81.5335 66.0379 88.1981 65.9213 94.3598 65.6985L94.8643 57.125C95.6612 14.5727 107.538 8.93664 148.867 5.7057L174.69 3.65278L207.71 2.1054L267.845 2.11002C298.211 2.99302 351.54 8.01468 375.571 25.6349C383.731 31.6183 390.724 38.8202 397.867 45.9375L426.818 75.9291C435.317 85.0728 443.852 94.1052 451.508 103.979C457.147 111.252 458.865 113.194 460.384 122.11L466.295 172.651L467.315 192.723C467.391 195.016 467.983 197.33 466.515 199.25C462.937 203.93 454.692 203.094 453.43 197.029C452.856 194.269 453.192 190.834 453.125 187.99L448.252 134.444C448.207 133.654 448.434 130.304 447.867 129.83C447.41 129.446 438.313 129.5 437.03 129.492L388.328 127.802C370.828 126.53 356.221 120.645 351.062 102.042C350.151 98.7566 350.523 95.0934 350.581 91.7251L350.691 31.7325C350.7 26.6926 351.395 27.4107 346.639 26.0503C326.684 20.3416 300.606 17.1349 279.625 16.4595L218.213 16.4707C215.729 16.5239 213.33 17.0282 210.875 17.1385L196.875 17.438L137.086 21.8691C119.777 23.6878 115.578 24.4986 114.203 41.3081L112.336 83.3808C112.293 85.3197 111.948 87.2 111.874 89.125L111.476 104.613C111.319 108.228 112.91 118.593 109.407 120.975L109.02 121.223C105.812 121.688 102.741 121.917 99.5028 121.676L99.2292 121.597C93.0824 119.743 94.8287 113.341 94.8387 108.263L94.9325 90.1097C94.9751 87.2599 95.2538 84.3162 95.1821 81.4785C73.975 81.5368 66.3761 87.6665 66.2722 108.964L66.2277 169.78C66.2202 175.434 65.1219 176.945 59.8548 179.713Z"/>
	<path fill="#F8F7FF" d="M364.171 37.9173L361.43 30.1211L389.375 56.9946L438.959 108.92C440.499 110.704 442.026 113.64 443.809 115.019L438.397 114.888L405.962 113.392C396.801 112.853 387.659 112.976 378.631 111.001C367.259 108.936 364.906 100.126 364.927 90.4961L364.959 80.1057C365.004 66.0563 365.589 51.9047 364.171 37.9173Z"/>
	<path fill="#B8B8FF" d="M382.433 64.5925C386.919 70.5903 390.264 77.3928 394.688 83.4637C402.244 93.8343 413.212 100.964 424.253 107.138L435.036 112.883C435.42 113.102 435.683 113.318 435.996 113.625L438.397 114.94L405.962 113.392C396.801 112.853 387.659 112.976 378.631 111.001C380.828 109.253 387.699 107.714 390.732 107.086C389.273 101.477 386.975 96.3083 385.927 90.5611C384.61 83.3435 385.357 75.6246 383.038 68.625C382.701 67.6078 382.236 66.8014 382.338 65.6827L382.433 64.5925Z"/>
	<path fill="#9381FF" d="M364.171 37.9173C369.797 41.3439 379.254 58.7118 382.433 64.5925L382.338 65.6827C382.236 66.8014 382.701 67.6078 383.038 68.625C385.357 75.6246 384.61 83.3435 385.927 90.5611C386.975 96.3083 389.273 101.477 390.732 107.086C387.699 107.714 380.828 109.253 378.631 111.001C367.259 108.936 364.906 100.126 364.927 90.4961L364.959 80.1057C365.004 66.0563 365.589 51.9047 364.171 37.9173Z"/>
	<defs>
		<linearGradient id="gradient_0" gradientUnits="userSpaceOnUse" x1="205.283" y1="371.88199" x2="335.29901" y2="213.839">
			<stop offset="0" stop-color="#9990FF"/>
			<stop offset="1" stop-color="#B7BBFE"/>
		</linearGradient>
	</defs>
	<path fill="url(#gradient_0)" d="M357.259 362.464L356.735 362.252C348.903 363.527 346.396 368.616 340.766 372.85C299.285 404.048 241.355 403.993 201.991 369.709C192.018 361.024 182.823 351.175 176.625 339.398C162.86 313.242 160.013 278.293 168.852 249.968C184.012 201.391 236.821 175.21 285.362 182.18C288.381 182.613 291.44 182.861 294.359 183.791L293.893 183.889C293.438 183.98 293.087 183.984 292.625 183.917C293.391 187.235 313.572 196.51 318.083 199.6C342.51 216.331 361.344 243.899 368.038 272.559L370.791 285.125C372.481 294.936 370.871 301.796 378.564 308.774C376.812 316.363 373.955 323.661 371.403 331.005C368.932 338.115 366.437 339.591 373.213 345.219C371.919 345.759 371.665 346.828 370.825 347.891L361.473 358.099C360.37 359.154 357.959 360.898 357.338 362.228L357.259 362.464Z"/>
	<path fill="#1D1743" d="M273.333 286.314C290.43 285.222 282.122 315.394 256.598 305.341L255.879 304.986C248.526 301.098 243.252 290.823 252.748 287.513C256.055 286.361 258.253 288.19 261.125 289.495C264.644 291.094 268.977 287.104 273.333 286.314Z"/>
	<path fill="#1D1743" d="M300.624 290.728C297.025 273.997 313.977 256.779 330.196 267.49C339.344 273.532 340.175 283.701 339.239 293.647C336.282 294.159 332.253 295.654 329.324 295.149C328.022 293.503 327.392 273.49 317.794 278.371C309.976 282.348 315.476 299.98 304.703 295.588C302.435 294.663 301.53 292.837 300.624 290.728Z"/>
	<path fill="#1D1743" d="M201.318 297.065C191.562 297.008 190.54 289.342 192.62 281.067C199.046 255.494 237.796 258.447 233.127 290.803C232.372 292.511 231.611 293.607 229.78 294.259C222.197 296.963 221.838 292.041 221.072 287.121C219.89 279.53 212.094 272.91 206.701 281.809C203.958 286.336 206.326 294.353 201.318 297.065Z"/>
	<path fill="#F8F7FF" d="M201.318 297.065C206.326 294.353 203.958 286.336 206.701 281.809C212.094 272.91 219.89 279.53 221.072 287.121C221.838 292.041 222.197 296.963 229.78 294.259C231.611 293.607 232.372 292.511 233.127 290.803L234.057 292.234C236.765 293.481 239.14 290.779 241.569 298.086C242.77 301.698 227.718 315.905 224.889 317.464C217.771 317.576 205.096 316.01 201.076 308.961C198.429 308.97 181.256 309.505 188.875 303.37C194.889 302.836 192.458 304.492 199.394 301.878C199.819 299.486 199.764 298.87 201.318 297.065Z"/>
	<path fill="#1D1743" d="M239.601 316.546C243.853 316.347 244.592 318.628 246.736 321.693C257.132 336.552 281.807 337.067 293.727 323.856C295.266 322.149 298.019 317.678 300.286 317.256C302.765 316.794 309.261 320.295 309.678 323.065C310.169 326.329 306.98 330.414 305.055 332.792C290.441 347.936 267.914 353.2 248.827 342.854C243.059 339.728 236.155 334.669 234.335 327.987C233.1 323.456 234.716 317.904 239.601 316.546Z"/>
	<path fill="#F8F7FF" d="M300.624 290.728C301.53 292.837 302.435 294.663 304.703 295.588C315.476 299.98 309.976 282.348 317.794 278.371C327.392 273.49 328.022 293.503 329.324 295.149C332.253 295.654 336.282 294.159 339.239 293.647L355 291.911C359.291 291.296 363.876 290.607 363.835 296.386C363.584 332.154 324.617 323.664 306.518 305.403C304.641 303.509 302.632 301.378 301.563 298.898L300.757 296.875C300.211 295.051 299.691 292.42 300.624 290.728Z"/>
</svg>
