<?xml version="1.0" encoding="utf-8" ?>
<svg xmlns="http://www.w3.org/2000/svg" xmlns:xlink="http://www.w3.org/1999/xlink" width="512" height="512">
	<path fill="#2C2A2E" d="M196.454 64.383L208.949 64.3916C211.248 64.4042 216.14 63.7789 213.875 67.9414C211.59 69.1621 207.411 68.6677 204.8 68.8494C201.152 68.6444 197.382 68.8794 193.715 68.8901C191.703 68.896 184.626 68.8347 187.565 64.7143C190.319 64.1292 193.62 64.407 196.454 64.383Z"/>
	<path fill="#2C2A2E" d="M239.09 95.7128L270.875 95.7465C273.849 95.8982 273.336 99.9425 270.748 100.18C265.791 100.636 260.447 100.25 255.454 100.252L224.625 100.25L198.179 100.243C197.062 100.24 195.549 100.321 194.472 99.9761L194 99.809C191.939 99.1135 188.292 96.0719 192.75 95.7303C197.7 95.351 202.942 95.7193 207.93 95.7205L239.09 95.7128Z"/>
	<path fill="#2C2A2E" d="M94.9182 270.868L129.898 270.853C141.461 270.983 140.996 280.3 132.067 281.653L105.144 281.655C101.288 281.655 96.9918 282.057 93.1814 281.61C87.0384 280.888 85.4524 272.186 94.9182 270.868Z"/>
	<path fill="#2C2A2E" d="M97.6761 143.616L143.75 143.58C147.17 143.564 153.749 142.91 153.983 147.99C154.262 154.083 148.833 153.909 144.59 153.937L133.221 153.983C128.838 153.759 124.322 153.981 119.927 153.989L86.1647 154.088C84.6443 154.115 82.9163 154.301 81.4128 154.064C76.3505 153.266 76.5021 146.362 80.478 144.172C82.4131 143.106 94.6476 143.619 97.6761 143.616Z"/>
	<path fill="#2C2A2E" d="M94.2241 372.06L229.481 372.217C233.341 372.215 237.349 371.879 241.185 372.043C248.735 372.366 248.578 382.148 241.299 382.934L94.544 383.021C86.7959 382.744 87.078 373.399 94.2241 372.06Z"/>
	<path fill="#2C2A2E" d="M158.082 270.786L323.449 270.797C325.616 270.797 327.879 270.673 330.037 270.846C337.33 271.43 335.105 280.704 328.813 281.232C322.81 280.7 316.61 280.98 310.582 280.979L162.993 281.058C161.006 281.08 156.813 281.708 155.134 280.883C148.314 277.536 152.966 272.19 158.082 270.786Z"/>
	<path fill="#2C2A2E" d="M294.848 319.52L306.791 319.467C308.702 319.453 310.938 319.217 312.797 319.525C317.954 320.379 316.97 329.617 311.25 329.927C308.138 330.095 304.957 329.958 301.837 329.957L110.125 329.977C107.99 330.178 94.4451 330.475 92.375 330.137C86.3436 329.152 88.0327 320.259 93.125 319.674C95.4157 319.411 97.8684 319.566 100.179 319.564L294.848 319.52Z"/>
	<path fill="#2C2A2E" d="M324.73 168.746C327.294 168.553 330.96 167.988 332.958 169.818C336.229 172.817 334.48 178.75 329.662 178.771L307.121 178.84C304.975 178.882 302.88 179.225 300.75 179.303L263.294 180.325L250.008 180.437C248.498 180.477 247.008 180.736 245.5 180.786L207.125 181.897L163.375 183.669L101.641 184.246C90.0037 186.991 89.9915 176.946 94.5948 174.809L94.875 174.687C97.3395 173.532 101.917 174.041 104.674 174.037L157.163 173.941C159.738 173.89 162.222 173.335 164.75 173.23L212.643 172.172C214.703 172.106 216.707 171.679 218.763 171.606L231.075 171.401C233.375 171.31 235.699 170.893 237.991 170.851L289.452 169.7C291.577 169.65 293.584 169.259 295.675 169.116C305.319 168.457 315.047 169.496 324.73 168.746Z"/>
	<path fill="#2C2A2E" d="M260.65 218.759L323.701 218.751C325.965 218.749 328.376 218.551 330.625 218.751C336.368 219.261 335.239 228.353 329.394 228.651L201.688 229.283C199.055 229.301 196.48 229.699 193.875 229.765L160.313 229.794L149.553 229.928C148.238 229.982 146.936 230.238 145.625 230.264L97.6585 230.375C95.7119 230.409 93.4673 230.699 91.5638 230.393C86.5137 229.578 85.7388 223.376 90.783 220.528L91.1304 220.339C92.026 219.843 93.0341 219.819 94.0399 219.787L219.397 219.651C222.457 219.626 225.335 218.856 227.909 218.803L260.65 218.759Z"/>
	<path fill="#2C2A2E" d="M89.0927 85.8698C87.8225 85.9683 86.6283 86.0149 85.3522 85.9093C79.9418 80.1439 84.7335 78.4273 89.2039 74.9456L97.3786 68.2139C103.148 63.1962 108.426 57.5783 114.134 52.4851C111.473 52.5866 108.763 52.6018 106.115 52.8933L89.25 54.7568C84.9378 55.2094 76.936 56.8072 76.9903 49.9058C77.0456 42.8666 90.3304 43.4353 95.086 43.1057L111.375 42.0701C123.431 41.4651 125.341 38.6686 134.121 46.7981L151.596 62.5047C154.447 64.9895 168.786 76.5478 168.234 80.1517L166.208 87.0332C163.536 97.6413 173.566 116.155 163.25 119.525L162.8 119.678C161.195 120.174 158.984 119.983 157.311 119.987L110.353 120.075C106.093 120.18 101.437 121.885 97.25 120.568L96.9891 120.492C94.7417 119.797 92.7016 117.994 91.395 116.093L91.3932 116.081L92.0257 114.25C93.3246 111.893 99.6187 111.36 101.954 111.157L157.819 110.495C156.548 107.654 155.929 95.7083 155.866 92.5292C155.605 79.1001 158.609 82.8334 148.571 74.0912L137.049 63.8471C133.699 60.736 130.468 57.522 126.935 54.6134L99.6649 81.1065C96.0807 81.7799 92.6215 84.3706 89.1852 85.7229L89.0927 85.8698Z"/>
	<path fill="#B8B8FF" d="M99.6649 81.1065L126.935 54.6134C130.468 57.522 133.699 60.736 137.049 63.8471L148.571 74.0912C158.609 82.8334 155.605 79.1001 155.866 92.5292C155.929 95.7083 156.548 107.654 157.819 110.495L101.954 110.688C99.6187 111.36 93.3246 111.893 92.0257 114.25L91.3932 116.081C88.7452 111.919 89.5156 104.074 89.5038 99.3024L89.4103 85.8698L89.1852 85.7229C92.6215 84.3706 96.0807 81.7799 99.6649 81.1065Z"/>
	<path fill="#32094C" d="M127.228 77.2902C135.767 77.0316 142.057 86.0715 130.245 89.2309C118.976 90.5854 116 79.6994 127.228 77.2902Z"/>
	<path fill="#48079B" d="M89.4103 85.8698L89.1852 85.7229C92.6215 84.3706 96.0807 81.7799 99.6649 81.1065L100.028 83.238C100.732 86.2069 100.453 89.7671 100.479 92.8297L100.65 110.943L101.451 111.157C99.6187 111.36 93.3246 111.893 92.0257 114.25L91.3932 116.081C88.7452 111.919 89.5156 104.074 89.5038 99.3024L89.4103 85.8698Z"/>
	<path fill="#2C2A2E" d="M16.9917 268.7C26.4575 268.125 23.0749 281.069 22.787 286.12L21.4225 328.753C21.3527 330.899 20.8024 332.975 20.7301 335.148L20.7498 403.902L22.3157 426.071C23.1919 437.818 23.9583 450.254 27.125 461.634C33.0682 482.991 48.1136 485.644 68.2747 488.597L107.716 492.384L130.086 493.503L213.203 493.462C215.184 493.403 217.156 493.168 219.031 493.96L219.312 494.709C219.547 496.9 219.406 498.867 219.097 501.041C216.593 504.843 207.457 503.595 203.7 503.603L126.875 502.969C103.046 501.586 65.3207 498.947 42.75 491.012C25.3383 484.89 19.9676 477.157 16.0979 459.243C12.9334 444.593 12.2691 429.053 11.551 414.125L10.4545 396.567L10.3769 345.96C10.4181 339.478 10.994 333.095 11.1771 326.625L13.2407 274.378C13.2687 270.496 13.1948 270.05 16.9917 268.7Z"/>
	<path fill="#2C2A2E" d="M18.6838 249.073C12.6757 248.192 12.7944 245.255 13.1482 240.257L13.2189 195.695C13.193 193.067 12.7283 190.474 12.6952 187.881L12.1601 145.818C12.0932 144.245 11.7767 142.698 11.7065 141.125L11.0601 115.262C10.9937 113.19 10.4711 111.18 10.4465 109.108L10.3299 75.5393C10.3076 39.5832 11.4417 13.9988 51.0479 4.58991L60.625 2.4626C66.46 1.42906 73.0629 2.00898 79.0141 2.00631L189.87 2.06816C192.335 2.11664 194.749 2.67752 197.171 2.72312L222.5 2.84263L268.41 5.20952C291.894 6.77841 309.094 10.9534 326.587 27.0572L377.23 80.5035C399.114 105.927 403.606 126.503 405.902 159.428L406.845 184.385C406.899 186.612 407.297 188.792 407.396 191L407.443 259.447C407.435 264.432 407.626 269.501 407.25 274.467C402.801 281.087 396.359 277.733 397.169 270.328L397.671 189.469L396.288 163.287C395.023 144.071 392.414 121.335 381.978 104.676C375.006 91.586 364.621 80.7132 354.529 70.0173L319.064 33.6977C317.582 36.6041 318.328 40.2418 318.408 43.3689L318.509 53.7077C318.524 63.0662 318.022 72.7092 318.719 82.0328C319.201 88.4837 321.051 95.3441 328.25 96.2851L328.59 96.3323C331.559 96.7055 334.844 96.3085 337.858 96.2781L357.52 96.1988C359.51 96.1955 361.451 95.3627 362.752 97.2078L363.488 98.4962C364.086 99.4179 364.527 100.274 364.834 101.332C365.712 102.054 366.09 102.721 366.549 103.75L366.677 104.033C367.037 104.882 366.895 105.789 366.819 106.684C363.915 113.859 362.094 111.781 355.03 111.733L338.696 111.715C320.383 111.682 304.043 108.495 300.298 87.91C299.375 82.8359 300.062 77.582 300.074 72.4474C300.088 65.8912 299.672 24.3126 295.002 20.0408C290.317 15.7558 252.753 13.791 245.839 13.668L227.15 13.6006C221.379 13.5825 215.837 13.2152 210.109 12.6398L149.045 7.48893L119.406 7.34328C101.048 7.35637 76.4343 5.536 63.548 21.5045C58.8438 27.3339 58.4957 36.5604 58.4665 43.6753L58.5504 81.2261C58.6204 82.8341 59.0064 84.412 59.089 86.0359L60.3448 117.625L60.4595 130.564C60.5064 132.124 60.8242 133.658 60.8939 135.216L61.2198 153.833L61.0873 206.666L61.027 244.25C60.9275 246.728 60.4879 249.161 60.4567 251.675L60.4029 277.528C60.3378 279.421 60.0173 281.297 59.9209 283.189L59.8034 296.245C59.7604 298.231 59.417 300.182 59.3665 302.168L59.2326 324.526C59.1663 326.917 58.6056 329.239 58.5447 331.655L58.4872 372.573C58.4897 379.761 58.098 387.25 58.7201 394.409L59.4679 401C63.2685 439.703 82.8092 436.767 114.934 438.601L160 440.91C162.373 441.026 164.696 441.483 167.099 441.538L307.855 441.156C305.781 438.592 303.607 425.828 304.676 422.498L304.781 422.144C304.952 421.75 305.424 421.473 305.754 421.232L306.605 421.152L311.755 421.002C312.882 422.906 313.556 425.194 314.225 427.293L316.78 435.254C326.224 464.529 349.391 489.545 380.302 496.089C433.097 507.268 478.016 475.452 488.834 423.252C493.864 398.984 492.198 373.033 478.253 351.863C468.047 336.37 447.574 318.675 428.702 314.832L428.5 315.153C418.616 314.049 413.592 314.502 404.101 316.81C372.843 324.412 350.374 340.77 329.03 363.875C327.599 365.424 323.598 371.704 323.13 371.994L322.576 371.768L322.44 372.028C319.206 378.31 319.114 391.531 309.815 386.727L309.641 386.475C306.734 382.168 310.483 376.303 312.019 372.072C326.613 331.866 364.318 301.38 408.133 301.498C455.581 301.626 496.498 341.281 500.756 388.21C503.227 415.45 495.376 446.74 479.231 468.819C449.464 509.527 396.711 518.84 353.369 495.55L343.709 489.986L335.248 482.79C327.137 475.176 318.111 464.435 313.185 454.258C311.902 451.609 312.709 450.772 309.844 450.869L180.174 450.903C177.969 450.841 175.813 450.457 173.625 450.379L143.879 449.522L93.0068 443.88C52.6504 438.022 53.8392 416.643 52.6377 382.107C52.5691 380.136 52.1749 378.2 52.0965 376.25L52.1118 322.453C52.1682 320.405 52.6299 318.398 52.6941 316.375L52.79 261.75C52.8246 258.901 53.4347 256.15 53.4796 253.324L53.4683 172.875C53.446 170.081 52.8436 167.399 52.7948 164.637L52.6942 141.056C52.6485 138.993 52.2869 137.039 52.151 135L51.4828 100.216C51.4262 97.8944 50.8257 95.6985 50.7376 93.4184L50.676 45.25C51.0163 36.8626 52.8001 27.9964 56.1469 20.3327C54.3799 18.7186 53.2252 18.7106 50.9204 18.5221C41.5571 20.7534 32.9068 28.662 28.0267 36.7704C20.313 49.5869 21.451 64.6973 21.4396 79.0963L21.4373 122.8C21.4272 124.607 21.6267 126.759 21.2152 128.507C20.6782 133.156 21.1316 137.616 21.3426 142.24L21.5622 156.583C21.6216 158.459 22.0256 160.321 22.0953 162.22L22.7593 207.279C22.7934 209.364 23.3099 211.394 23.3827 213.494L23.4778 234.232C23.4885 238.107 23.8164 242.148 23.5376 246C23.3647 248.389 20.4072 248.385 18.6838 249.073ZM322.576 371.768L323.13 371.994C323.598 371.704 327.599 365.424 329.03 363.875C350.374 340.77 372.843 324.412 404.101 316.81C413.592 314.502 418.616 314.049 428.5 315.153L428.702 314.832C383.57 303.75 339.488 329.412 322.576 371.768ZM56.8373 12.2284L51.8915 13.3052C41.2129 16.4127 31.5927 20.0016 25.8908 30.2843C17.6782 45.095 19.5168 63.9844 19.5235 80.2603L19.6391 108.465C19.8984 115.073 21.2208 121.896 21.2152 128.507C21.6267 126.759 21.4272 124.607 21.4373 122.8L21.4396 79.0963C21.451 64.6973 20.313 49.5869 28.0267 36.7704C32.9068 28.662 41.5571 20.7534 50.9204 18.5221C53.2252 18.7106 54.3799 18.7186 56.1469 20.3327C57.3477 18.1627 58.879 16.3145 60.4648 14.4251C61.9848 12.8393 63.5957 11.5074 65.3346 10.1681L56.8373 12.2284Z"/>
	<defs>
		<linearGradient id="gradient_0" gradientUnits="userSpaceOnUse" x1="307.14001" y1="70.998398" x2="353.82199" y2="59.374599">
			<stop offset="0" stop-color="#A4ABB4"/>
			<stop offset="1" stop-color="#CED1D7"/>
		</linearGradient>
	</defs>
	<path fill="url(#gradient_0)" d="M364.834 101.332L338.661 101.194C314.764 101.202 310.209 97.5019 310.212 74.6609L310.141 56.9491C309.962 47.5402 308.952 33.7179 307.764 24.2653C311.883 26.7521 315.832 30.1462 319.064 33.6977C317.582 36.6041 318.328 40.2418 318.408 43.3689L318.509 53.7077C318.524 63.0662 318.022 72.7092 318.719 82.0328C319.201 88.4837 321.051 95.3441 328.25 96.2851L328.59 96.3323C331.559 96.7055 334.844 96.3085 337.858 96.2781L357.52 96.1988C359.51 96.1955 361.451 95.3627 362.752 97.2078L363.488 98.4962C364.086 99.4179 364.527 100.274 364.834 101.332Z"/>
	<path fill="#9381FF" d="M322.576 371.768L323.13 371.994C323.598 371.704 327.599 365.424 329.03 363.875C350.374 340.77 372.843 324.412 404.101 316.81C413.592 314.502 418.616 314.049 428.5 315.153L428.702 314.832C447.574 318.675 468.047 336.37 478.253 351.863C492.198 373.033 493.864 398.984 488.834 423.252C478.016 475.452 433.097 507.268 380.302 496.089C349.391 489.545 326.224 464.529 316.78 435.254L314.225 427.293C313.556 425.194 312.882 422.906 311.755 421.002L306.605 421.152L305.754 421.232C305.723 413.211 305.833 405.406 307.118 397.463C307.833 393.898 308.456 390.105 309.815 386.727C319.114 391.531 319.206 378.31 322.44 372.028L322.576 371.768ZM414.033 356.05L410.445 362.409C408.807 365.467 409.305 367.646 408.959 368.238L400.869 368.479C394.429 368.753 372.615 376.214 369.808 379.207C383.059 389.477 387.391 392.383 404.508 397.754C412.213 400.172 429.391 403.2 430.722 413.325L430.831 414.185C431.347 418.513 429.882 422.783 427.179 426.143C417.611 438.037 396.101 437.443 383.031 432.855C375.821 430.323 362.499 423.496 356.454 418.538C354.597 425.019 354.323 426.092 359.572 428.832L365.832 432.177C375.289 437.412 382.58 440.998 393.735 441.539C413.238 442.484 404.705 438.571 404.131 454.133C404.355 455.428 405.195 457.317 406.289 458.116L406.494 458.233C410.69 456.184 416.108 448.133 418.76 443.875C421.581 439.347 417.407 442.786 423.12 439.385C431.414 434.449 436.917 425.384 436.718 415.625C436.201 390.279 397.103 394.807 381.789 380.426C389.138 375.272 397.321 375.971 405.823 376.044C405.895 376.155 407.005 376.178 407.216 376.192C421.302 377.129 425.28 378.087 437.126 384.185L434.235 379.5C431.381 375.396 427.017 372.658 423.782 368.92C420.433 365.049 417.863 360.38 414.033 356.05Z"/>
	<path fill="#5867FF" d="M406.494 458.233C407.062 458.698 407.112 458.66 407.218 459.375C398.724 468.781 398.747 456.098 402.875 451.681L403.293 452.625C403.64 453.058 403.835 453.088 404.001 453.66L404.131 454.133C404.355 455.428 405.195 457.317 406.289 458.116L406.494 458.233Z"/>
	<path fill="#B8B8FF" d="M407.523 353.922C409.621 353.809 413.008 353.724 414.033 356.05L410.445 362.409C408.807 365.467 409.305 367.646 408.959 368.205C408.947 362.072 408.525 362.936 406.567 358.18L406.431 357.845C406.943 356.573 407.221 355.255 407.523 353.922Z"/>
	<path fill="#3E4360" d="M406.431 357.845C402.867 363.431 400.208 353.35 400.021 350.625C399.46 342.438 407.674 346.61 407.977 347.106C408.848 348.533 407.833 352.275 407.523 353.922C407.221 355.255 406.943 356.573 406.431 357.845Z"/>
	<path fill="#B8B8FF" d="M50.9204 18.5221C53.2252 18.7106 54.3799 18.7186 56.1469 20.3327C52.8001 27.9964 51.0163 36.8626 50.676 45.25L50.7376 93.4184C50.8257 95.6985 51.4262 97.8944 51.4828 100.216L52.151 135C52.2869 137.039 52.6485 138.993 52.6942 141.056L52.7948 164.637C52.8436 167.399 53.446 170.081 53.4683 172.875L53.4796 253.324C53.4347 256.15 52.8246 258.901 52.79 261.75L52.6941 316.375C52.6299 318.398 52.1682 320.405 52.1118 322.453L52.0965 376.25C52.1749 378.2 52.5691 380.136 52.6377 382.107C53.8392 416.643 52.6504 438.022 93.0068 443.88L143.879 449.522L173.625 450.379C175.813 450.457 177.969 450.841 180.174 450.903L309.844 450.869C312.709 450.772 311.902 451.609 313.185 454.258C318.111 464.435 327.137 475.176 335.248 482.79L343.709 489.986C337.813 495.144 315.814 497.6 306.925 497.209C306.046 499.54 304.558 500.342 302.25 500.746L301.824 500.825C300.511 501.039 299.345 500.701 298.307 499.857L297.788 499.403C286.106 500.985 272.179 500.363 259.948 500.782L237.125 500.872C231.149 500.892 225.064 501.208 219.097 500.902C219.406 498.867 219.547 496.9 219.312 494.709L219.031 493.96C217.156 493.168 215.184 493.403 213.203 493.462L130.086 493.503L107.716 492.384L68.2747 488.597C48.1136 485.644 33.0682 482.991 27.125 461.634C23.9583 450.254 23.1919 437.818 22.3157 426.071L20.7498 403.902L20.7301 335.148C20.8024 332.975 21.3527 330.899 21.4225 328.753L22.787 286.12C23.0749 281.069 26.4575 268.125 16.9917 268.7C16.1588 264.187 16.898 253.323 18.6838 249.073C20.4072 248.385 23.3647 248.389 23.5376 246C23.8164 242.148 23.4885 238.107 23.4778 234.232L23.3827 213.494C23.3099 211.394 22.7934 209.364 22.7593 207.279L22.0953 162.22C22.0256 160.321 21.6216 158.459 21.5622 156.583L21.3426 142.24C21.1316 137.616 20.6782 133.156 20.7551 128.507C21.6267 126.759 21.4272 124.607 21.4373 122.8L21.4396 79.0963C21.451 64.6973 20.313 49.5869 28.0267 36.7704C32.9068 28.662 41.5571 20.7534 50.9204 18.5221Z"/>
	<path fill="#2C2A2E" d="M297.718 492.718C301.151 488.259 308.081 491.893 306.925 497.209C306.046 499.54 304.558 500.342 302.25 500.746L301.824 500.825C300.511 501.039 299.345 500.701 298.307 499.857L297.788 499.403C297.579 497.133 297.505 494.993 297.718 492.718Z"/>
	<path fill="#7DE2E0" d="M219.312 494.709C222.048 494.521 222.655 494.162 226.178 494.221L261.904 492.7L292.455 492.569C294.19 492.53 296.012 492.331 297.718 492.695C297.505 494.993 297.579 497.133 297.788 499.403C286.106 500.985 272.179 500.363 259.948 500.782L237.125 500.872C231.149 500.892 225.064 501.208 219.097 500.902C219.406 498.867 219.547 496.9 219.312 494.709Z"/>
</svg>
