<?xml version="1.0" encoding="utf-8" ?>
<svg xmlns="http://www.w3.org/2000/svg" xmlns:xlink="http://www.w3.org/1999/xlink" width="512" height="512">
	<path fill="#1F1E23" d="M48.4749 194.254L48.2444 194.309C44.5051 195.145 39.5279 192.716 37.4424 189.5L37.2954 189.281C35.7619 186.88 36.7008 177.634 36.6698 174.514L36.2046 148.625C36.1241 146.258 35.6454 143.914 35.5959 141.53L35.4699 113.335C35.3989 111.136 35.001 108.96 34.9319 106.75L35.3753 58.2075C36.2878 31.5449 39.7807 19.8882 71.265 19.9989L76.1452 20.0842C77.6194 20.1334 77.4476 20.1692 78.2508 18.8273L78.6365 18.1028C84.2276 7.58291 96.0511 6.14684 106.594 6.12036L243.077 6.14261C244.886 6.17038 246.662 6.49503 248.474 6.54307L265.5 6.65539C267.081 6.69303 268.657 6.95157 270.239 7.04094L329.125 9.88166C346.33 11.6194 351.12 14.7036 364.251 24.9609L398.138 54.2017L434.663 87.8762C442.758 95.5554 450.74 103.265 458.003 111.75C471.273 127.253 470.434 136.538 470.425 156.457L470.342 173.101L468.339 230.873C468.278 233.182 467.742 235.462 467.68 237.799L467.678 296.875C467.742 299.068 468.191 301.261 468.292 303.463L468.424 316.375L470.816 378.747C471.107 386.566 471.14 394.656 472.194 402.413C472.749 406.492 475.545 411.443 476.629 415.734C482.284 438.126 486.508 464.822 471.707 484.754C456.297 505.505 436.004 504.843 412.897 504.889L322.5 504.826C320.453 504.752 318.421 504.397 316.352 504.344L293.007 504.211C290.494 504.146 288.065 503.593 285.529 503.555L244.182 503.451C239.459 503.344 234.762 502.515 230.051 502.418L126.459 502.366C117.582 502.377 109.242 503.084 101.375 497.999L101.018 497.771C99.2208 496.591 97.4778 494.805 96.1884 493.084C94.187 490.412 95.3306 490.533 92 490.573L61.4634 490.896C34.8033 489.431 30.991 468.649 29.7228 445.553L30.1062 411.361L34.5872 351.375L35.6431 322.06C35.733 320.215 36.0804 318.404 36.1472 316.552L36.71 237.331C36.712 234.694 36.4128 231.612 36.8159 229.021C37.4606 224.878 43.962 223.458 47.3301 223.865C47.7633 222.049 47.5028 219.786 47.5018 217.927L47.5949 204.592C47.6899 201.114 48.4177 197.709 48.4749 194.254ZM94.257 217.349C93.9032 217.925 93.9172 218.434 93.8882 219.088L92.7512 220.062C90.9371 220.138 89.3313 220.316 87.5 220.127C86.8127 220.808 83.7964 220.876 82.875 220.877L82.3391 220.25C82.4935 219.065 82.1628 218.353 81.7013 217.294L81.5155 216.873L91.4545 447.399L91.4423 479.265C95.53 480.692 99.7423 480.828 104.02 480.987L105.188 486.595C107.237 491.02 117.255 492.227 121.371 491.313L140.38 490.691L170.953 490.49L194.287 490.499L415.696 493.135C414.645 492.13 414.499 491.242 413.84 489.996L380.986 422.79C380.15 420.78 379.102 418.745 378.554 416.636L378.461 416.25C377.845 413.804 379.283 410.918 378.893 408.303C378.39 404.929 375.892 407.499 373.42 406.704C370.016 405.608 363.719 398.096 361.341 395.383C350.936 383.506 344.558 372.028 356.289 358.096L341.62 345.279C340.105 343.904 336.591 347.385 334.645 348.63C318.748 358.804 299.146 364.31 280.243 362.156C252.319 358.975 211.72 338.681 194.038 316.281C192.347 317.68 191.584 319.019 189.368 319.863L189 319.999C183.203 322.221 176.347 320.582 170.332 320.519L148.732 320.336L147.059 320.243L146.075 319.011C145.176 317.129 145 314.58 144.748 312.518L145.042 312.593C146.188 312.109 147.305 312.234 148.522 312.271L148.767 311.901C151.947 307.339 170.767 307.604 172.713 317.985C175.748 313.888 182.189 305.095 187.686 308.267L185.084 305.422C174.324 292.55 170.232 275.578 170.212 259.145L171.263 238.335L172.803 225.837L125.814 226.145C124.041 226.227 121.939 226.533 120.195 226.128L119.488 225.952C113.771 224.547 114.773 218.323 119.686 216.294L119.997 216.174C122.934 214.987 127.417 216.086 130.567 216.101L156.607 216.133C162.752 216.129 168.956 216.28 175.082 215.733C177.071 209.698 185.613 193.068 189.527 187.658L134.042 187.646C131.577 187.67 128.655 188.186 126.337 187.154C120.744 180.434 138.219 178.394 142.727 178.15L190.319 178.077C194.96 178.081 195.781 178.859 199.092 175.418L203.88 170.622C218.687 156.908 237.394 148.598 256.495 142.681C271.399 138.065 282.435 136.859 298 139.497C316.357 142.607 334.404 150.459 348.874 162.264C346.591 164.649 341.453 169.844 337.662 168.526L337.408 168.434C332.765 162.691 311.829 153.953 304.739 152.122L288.049 149.604C275.742 147.524 258.012 153.301 246.591 157.123C235.814 161.445 227.213 165.67 218.385 173.159C201.235 187.71 187.589 208.115 185.35 230.957C183.145 243.207 184.666 262.27 189.657 273.24C198.893 273.616 207.2 273.143 215.856 269.51C214.381 264.613 212.791 249.8 212.743 244.979C212.544 224.535 221.661 203.207 238.451 191.076C248.841 183.569 266.309 176.625 279.375 175.329C292.653 174.013 305.189 178.66 316.821 184.538C321.488 187.631 325.655 190.945 329.374 195.146C330.595 196.525 331.942 198.914 333.312 200.026C336.632 204.801 342.357 212.401 343.379 218.308L344.026 217.881C354.292 217.601 362.286 207.222 369.539 205.079L360.998 186.736L360.922 186.045C362.328 178.517 369.917 173.943 374.863 181.055L377.212 184.763L377.291 191.742L381.511 205.75C383.662 211.982 385.095 217.039 386.903 223.199L421.499 221.939C421.541 224.662 421.441 227.399 420.419 229.949C415.987 232.105 409.502 231.534 404.763 231.575L387.913 232.344C388.274 233.609 388.246 235.127 388.319 236.439L388.513 244.878C388.591 267.432 384.684 286.029 374.256 306.491C378.641 310.604 382.818 315.316 386.731 319.885L393.007 327.343C396.902 331.786 396.349 332.177 401.874 330.348C406.303 328.883 411.422 326.774 416.148 326.95C430.453 327.483 450.733 348.879 455.323 361.134L455.328 328.382L454.238 303.019C454.12 300.771 453.436 298.583 453.381 296.387L453.325 215.847C453.34 206.232 454.233 197.379 454.39 187.997L454.441 157.01C454.408 148.148 454.786 137.909 451.375 129.641L450.875 129.469C448.19 130.342 440.097 130.611 436.256 131.446C433.542 130.018 428.825 131.947 425.901 132.254C423.211 132.536 420.397 132.251 417.751 132.721C413.169 132.455 408.755 133.01 404.206 133.281L392.429 133.404C377.107 133.369 365.789 132.91 354.061 121.936C352.381 120.364 350.86 118.462 349.063 117.039C347.768 116.013 345.346 115.562 344.542 114.247C336.503 101.093 338.204 77.2725 338.192 62.1999L338.542 24.5643C338.64 22.7604 339.082 22.7498 337.203 22.2498C333.398 21.2377 328.811 21.0652 324.875 20.7372L269.812 17.6673C267.016 17.5599 264.238 16.8971 261.375 16.8217L106.846 16.7229C86.6735 16.7975 87.5495 24.1068 86.8461 40.3939L86.2849 116.084C86.3439 118.192 86.6937 120.257 86.7972 122.357L92.9283 201.189C93.3737 206.539 94.1095 211.995 94.257 217.349ZM212.672 244.979C212.791 249.8 214.381 264.613 215.856 269.51C207.2 273.143 198.893 273.616 189.657 273.234C196.526 292.394 207.044 313.874 224.164 325.986C226.358 329.478 246.67 340.461 250.831 342.222C289.959 358.781 321.082 353.5 349.823 320.81C377.769 289.024 385.92 244.688 369.539 205.079C362.286 207.222 354.292 217.601 344.026 217.881L343.379 218.308C342.357 212.401 336.632 204.801 333.312 200.026C331.942 198.914 330.595 196.525 329.374 195.146C325.655 190.945 321.488 187.631 316.821 184.538C305.189 178.66 292.653 174.013 279.375 175.329C266.309 176.625 248.841 183.569 238.451 191.076C221.661 203.207 212.544 224.535 212.672 244.979Z"/>
	<path fill="#FFF695" d="M420.074 473.789C421.134 473.442 421.751 473.616 422.79 473.959L422.902 474.064C423.651 474.964 424.41 475.773 425.28 476.557C424.317 477.089 423.387 477.56 422.351 477.936L420.074 473.789Z"/>
	<path fill="#495167" d="M148.462 312.698C148.575 315.264 149.262 317.777 148.732 320.336L147.059 320.243L146.075 319.011C146.864 317.809 148.192 314.212 148.462 312.698Z"/>
	<path fill="#FEF5B6" d="M397.732 428.873L399 428.437C399.911 429.576 401.245 430.218 402.324 431.553C401.613 432.306 400.889 433.263 399.93 433.687L397.732 428.873Z"/>
	<path fill="#999DB8" d="M144.748 312.518L145.042 312.593C146.188 312.109 147.305 312.234 148.522 312.271L148.462 312.698C148.192 314.212 146.864 317.809 146.075 319.011C145.176 317.129 145 314.58 144.748 312.518Z"/>
	<path fill="#B8B8FF" d="M428.863 106.299L440.877 118.15C432.865 119.639 424.661 120.904 416.506 120.963L416.339 120.205C418.754 115.565 427.973 111.114 428.863 106.299Z"/>
	<defs>
		<linearGradient id="gradient_0" gradientUnits="userSpaceOnUse" x1="410.83401" y1="361.474" x2="418.90701" y2="375.79901">
			<stop offset="0" stop-color="#FFF86A"/>
			<stop offset="1" stop-color="#FFFFC5"/>
		</linearGradient>
	</defs>
	<path fill="url(#gradient_0)" d="M400.192 382.119C400.432 381.588 401.365 380.874 401.816 380.417L423.251 357.39L431.051 350.169L437.851 357.015C437.258 358.409 436.293 358.806 435.011 359.523L434.623 358.956C433.852 358.722 432.954 358.992 432.177 359.133C430.077 360.366 427.995 362.395 425.467 361.794C422.205 364.053 417.344 367.953 414.951 371.25C412.136 375.13 410.19 378.511 406.484 381.692C405.235 382.764 403.906 383.637 402.742 384.823C400.355 386.678 398.803 386.891 395.65 386.925L400.192 382.119Z"/>
	<path fill="#FEF5B6" d="M425.467 361.794C428.354 357.888 428.994 355.443 432.177 359.133C430.077 360.366 427.995 362.395 425.467 361.794Z"/>
	<path fill="#F8F7FF" d="M432.177 359.133C432.954 358.992 433.852 358.722 434.623 358.956L435.011 359.523C428.981 363.421 415.678 375.174 411.137 380.478C409.623 382.246 408.836 384.686 407.331 386.375C405.673 388.235 403.407 389.69 401.599 391.449L390.687 401.95C389.508 403.122 388.492 404.466 387.265 405.592C386.756 404 386.337 402.469 386.058 400.821C387.529 395.605 392.132 390.9 395.65 386.925C398.803 386.891 400.355 386.678 402.742 384.823C403.906 383.637 405.235 382.764 406.484 381.692C410.19 378.511 412.136 375.13 414.951 371.25C417.344 367.953 422.205 364.053 425.467 361.794C427.995 362.395 430.077 360.366 432.177 359.133Z"/>
	<path fill="#67AEFF" d="M416.583 94.4433C420.402 97.4666 424.03 101.295 427.38 104.829L428.863 106.299C427.973 111.114 418.754 115.565 416.339 120.205L416.506 120.811L406.431 121.026C402.815 122.13 381.384 119.7 377.48 118.894L379.375 117.781C381.557 117.218 384.016 115.13 385.944 113.93L395.2 108.375C399.918 105.526 413.939 98.7553 416.583 94.4433Z"/>
	<path fill="#F8F7FF" d="M427.38 104.829L428.863 106.299C427.973 111.114 418.754 115.565 416.339 120.205L416.506 120.811L406.431 121.026C407.017 120.203 407.8 119.45 408.508 118.685L409.19 117.908C411.558 115.24 424.195 105.022 427.38 104.829Z"/>
	<path fill="#67AEFF" d="M402.617 80.7076C404.702 82.4795 409.115 86.1179 410.443 88.5297L416.583 94.4433C413.939 98.7553 399.918 105.526 395.2 108.375L385.944 113.93C384.016 115.13 381.557 117.218 379.375 117.781L377.48 118.894L373.435 117.719C369.589 116.511 365.665 114.176 362.706 111.449C370.082 107.719 376.612 102.376 382.943 97.125L395.062 87.3599C397.739 85.8525 400.524 82.9462 402.617 80.7076Z"/>
	<path fill="#F8F7FF" d="M373.435 117.719C379.571 113.833 388.84 106.603 394.267 102.047C399.591 97.5781 404.804 92.5816 410.443 88.5297L416.583 94.4433C413.939 98.7553 399.918 105.526 395.2 108.375L385.944 113.93C384.016 115.13 381.557 117.218 379.375 117.781L377.48 118.894L373.435 117.719Z"/>
	<path fill="#FFE34B" d="M425.28 476.557C430.803 474.958 441.103 469.468 446 466.473L462.397 456.395C464.838 454.963 467.291 453.367 469.909 452.279C465.104 466.826 464.792 480.764 449 488.748C443.579 491.488 437.067 493.229 430.982 493.286L422.351 477.936C423.387 477.56 424.317 477.089 425.28 476.557Z"/>
	<path fill="#FFF695" d="M432.952 483.699L431.7 483.894C430.57 484.03 430.031 483.827 429.151 483.125C429.853 482.279 431.752 482.083 432.849 481.825C432.409 482.447 432.395 482.731 432.381 483.462L432.952 483.699Z"/>
	<path fill="#FEF5B6" d="M432.849 481.825C440.767 479.3 441.933 477.201 448.058 474.327C444.968 478.239 442.129 479.997 437.619 481.767L432.952 483.699L432.381 483.462C432.395 482.731 432.409 482.447 432.849 481.825Z"/>
	<path fill="#FFE34B" d="M437.851 357.015C440.087 359.402 447.873 368.52 448.4 371.654C443.505 375.984 438.373 379.594 433.04 383.335L399.017 407.34C396.458 409.369 393.527 412.526 390.303 413.428L387.265 405.592C388.492 404.466 389.508 403.122 390.687 401.95L401.599 391.449C403.407 389.69 405.673 388.235 407.331 386.375C408.836 384.686 409.623 382.246 411.137 380.478C415.678 375.174 428.981 363.421 435.011 359.523C436.293 358.806 437.258 358.409 437.851 357.015Z"/>
	<path fill="#FFE34B" d="M411.782 458.317C414.605 455.242 419.317 452.845 422.791 450.538L440.039 438.933C446.462 435.043 453.67 431.338 460.583 428.404L466.784 426.048C467.424 428.805 467.833 431.559 468.155 434.368L469.124 443.63C469.246 444.697 469.279 446.308 469.787 447.253C470.176 448.868 470.739 450.709 469.97 452.238L469.909 452.279C467.291 453.367 464.838 454.963 462.397 456.395L446 466.473C441.103 469.468 430.803 474.958 425.28 476.557C424.41 475.773 423.651 474.964 422.902 474.064L422.79 473.959C421.751 473.616 421.134 473.442 420.074 473.789C419.667 473.375 419.295 472.405 419.008 471.879L416.589 467.388L413.774 462.061L411.782 458.317Z"/>
	<path fill="#FFF695" d="M447.994 448.901C451.577 446.187 456.503 443.628 460.62 441.819C457.366 445.046 452.701 448.261 448.464 450.181C449.168 449.113 450.217 448.569 451.298 447.938L451.416 447.416C450.399 447.804 449.59 448.822 448.456 448.894L447.994 448.901Z"/>
	<path fill="#F8F7FF" d="M447.994 448.901L448.456 448.894C449.59 448.822 450.399 447.804 451.416 447.416L451.298 447.938C450.217 448.569 449.168 449.113 448.464 450.181L417.474 467.017C417.187 467.195 416.912 467.298 416.589 467.388L413.774 462.061L414.134 461.995C424.037 461.287 439.321 453.289 447.994 448.901Z"/>
	<defs>
		<linearGradient id="gradient_1" gradientUnits="userSpaceOnUse" x1="445.53299" y1="459.05399" x2="448.49799" y2="465.35699">
			<stop offset="0" stop-color="#FEFFB9"/>
			<stop offset="1" stop-color="white"/>
		</linearGradient>
	</defs>
	<path fill="url(#gradient_1)" d="M469.787 447.253C470.176 448.868 470.739 450.709 469.97 452.238L469.909 452.279C467.291 453.367 464.838 454.963 462.397 456.395L446 466.473C441.103 469.468 430.803 474.958 425.28 476.557C424.41 475.773 423.651 474.964 422.902 474.064L438.062 467.42C443.403 464.812 448.465 461.817 453.447 458.586L462.663 452.311C465.037 450.565 467.077 448.493 469.787 447.253Z"/>
	<path fill="#B8B8FF" d="M359.183 108.429L358.055 106.907C352.45 99.1666 353.294 87.4423 353.277 78.3682L353.282 47.8312C353.29 44.7197 353.237 41.6219 353.731 38.5408L353.932 38.5084C358.056 41.2043 361.638 44.6757 365.297 47.9477L402.617 80.7076C400.524 82.9462 397.739 85.8525 395.062 87.3599L382.943 97.125C376.612 102.376 370.082 107.719 362.706 111.449C361.372 110.556 360.192 109.689 359.183 108.429Z"/>
	<path fill="#F8F7FF" d="M359.183 108.429C361.09 106.067 363.744 104.545 366.235 102.88L391.893 85.9265C391.09 86.8143 389.953 87.5005 389.04 88.2979L389.515 88.677C389.977 89.0386 390.42 89.322 390.705 89.8531L390.874 90.1875L394.062 87.5012C394.59 87.4116 394.627 87.2487 394.994 86.8827L395.062 87.3599L382.943 97.125C376.612 102.376 370.082 107.719 362.706 111.449C361.372 110.556 360.192 109.689 359.183 108.429Z"/>
	<path fill="#B8B8FF" d="M367.733 317.807L386.585 336.778C394.612 343.568 395.74 344.116 405.674 339.907C412.261 337.116 412.065 338.393 417.116 343.133C414.482 351.125 407.381 358.324 401.705 364.377L386.45 380.18L376.38 391.384C375.987 391.277 376.191 391.369 375.76 390.996C361.798 378.933 357.651 370.773 371.339 355.73L351.647 337.3C358.013 331.561 363.509 325.315 367.733 317.807Z"/>
	<path fill="#FFE34B" d="M390.303 413.428C393.527 412.526 396.458 409.369 399.017 407.34L433.04 383.335C438.373 379.594 443.505 375.984 448.4 371.654L450.977 376.711C453.769 381.911 458.771 398.216 460.384 404.228C461.175 406.418 461.82 408.51 462.131 410.822C462.574 413.992 463.021 418.232 464.815 420.955C466.031 422.424 466.378 424.235 466.784 426.048L460.583 428.404C453.67 431.338 446.462 435.043 440.039 438.933L422.791 450.538C419.317 452.845 414.605 455.242 411.782 458.317L408.115 450.935C406.855 449.189 405.956 446.464 405.036 444.47L401.789 437.619C401.029 436.615 400.476 434.861 399.93 433.687C400.889 433.263 401.613 432.306 402.324 431.553C401.245 430.218 399.911 429.576 399 428.437L397.732 428.873L393.717 420.808L390.303 413.428Z"/>
	<path fill="#F8F7FF" d="M399 428.437L428.772 408.391C432.381 405.927 449.88 391.819 453.535 392.625C452.726 396.215 446.384 398.165 443.59 399.921C431.58 407.471 411.91 421.681 402.324 431.553C401.245 430.218 399.911 429.576 399 428.437Z"/>
	<path fill="#F8F7FF" d="M401.789 437.619C406.797 438.271 412.024 433.936 416.187 431.733L436.807 420.11C445.235 415.199 453.106 410.729 460.384 404.228C461.175 406.418 461.82 408.51 462.131 410.822L417.5 437.283C413.397 439.669 409.507 442.815 405.036 444.47L401.789 437.619Z"/>
	<path fill="#F8F7FF" d="M390.303 413.428C393.527 412.526 396.458 409.369 399.017 407.34L433.04 383.335C438.373 379.594 443.505 375.984 448.4 371.654L450.977 376.711C450.046 378.12 446.909 379.217 445.362 380.262L429.636 391.229C422.532 396.345 415.41 401.603 408.836 407.391C403.855 411.777 399.409 416.861 393.933 420.634L393.717 420.808L390.303 413.428Z"/>
	<path fill="#FFE34B" d="M462.131 410.822C462.574 413.992 463.021 418.232 464.815 420.955C466.031 422.424 466.378 424.235 466.784 426.048L460.583 428.404C453.67 431.338 446.462 435.043 440.039 438.933L422.791 450.538C419.317 452.845 414.605 455.242 411.782 458.317L408.115 450.935C406.855 449.189 405.956 446.464 405.036 444.47C409.507 442.815 413.397 439.669 417.5 437.283L462.131 410.822Z"/>
	<path fill="#F8F7FF" d="M464.815 420.955C466.031 422.424 466.378 424.235 466.784 426.048L460.583 428.404C453.67 431.338 446.462 435.043 440.039 438.933L422.791 450.538C419.317 452.845 414.605 455.242 411.782 458.317L408.115 450.935L409.846 450.703C412.623 450.143 415.659 448.3 418.28 447.147L441.942 435.9C448.896 432.395 460.414 427.645 464.815 420.955Z"/>
	<path fill="#9381FF" d="M48.4749 194.254C51.5826 191.202 53.3844 188.649 53.3872 184.125L52.316 157.075L52.1977 126.87C52.154 124.7 51.6959 122.561 51.6273 120.383L52.152 64.9948C52.4872 57.8528 52.8228 50.3692 54.4033 43.3828C56.1808 35.526 58.696 31.7686 67.126 31.7273L74.2748 32.0901L73.4682 45.9207L73.4894 121.44C73.5472 123.613 74.0624 125.755 74.1415 127.946L74.3456 143.428L81.5155 216.873L91.4575 447.399L91.4453 479.265C84.6272 479.288 57.5565 480.343 53.5126 477.179C47.7963 472.707 47.483 437.238 47.4836 430.289L49.6201 384L50.7812 330.869C50.8417 328.465 51.4595 326.188 51.5162 323.805L51.6403 239.918C51.8943 231.93 55.0815 228.675 47.3301 223.865C47.7633 222.049 47.5028 219.786 47.5018 217.927L47.5949 204.592C47.6899 201.114 48.4177 197.709 48.4749 194.254Z"/>
	<defs>
		<linearGradient id="gradient_2" gradientUnits="userSpaceOnUse" x1="261.98099" y1="189.881" x2="317.60501" y2="345.75">
			<stop offset="0" stop-color="#8478FF"/>
			<stop offset="1" stop-color="#B8B8FF"/>
		</linearGradient>
	</defs>
	<path fill="url(#gradient_2)" d="M212.672 244.979C212.544 224.535 221.661 203.207 238.451 191.076C248.841 183.569 266.309 176.625 279.375 175.329C292.653 174.013 305.189 178.66 316.821 184.538C321.488 187.631 325.655 190.945 329.374 195.146C330.595 196.525 331.942 198.914 333.312 200.026C336.632 204.801 342.357 212.401 343.379 218.308L344.026 217.881C354.292 217.601 362.286 207.222 369.539 205.079C385.92 244.688 377.769 289.024 349.823 320.81C321.082 353.5 289.959 358.781 250.831 342.222C246.67 340.461 226.358 329.478 224.164 325.986C207.044 313.874 196.526 292.394 189.657 273.234C198.893 273.616 207.2 273.143 215.856 269.51C214.381 264.613 212.791 249.8 212.672 244.979ZM320.456 208.234C318.763 209.524 317.46 211.137 316.077 212.735L310.454 219.143C302.74 227.746 289.544 238.327 278.5 242.773C276.097 243.74 275.764 243.208 275.368 245.794L274.909 250.442C279.772 249.232 283.884 246.764 288.095 244.112L313.175 227.836C318.333 224.402 323.241 220.962 328.631 217.881C326.002 214.002 324.312 210.92 320.456 208.234Z"/>
	<path fill="#9381FF" d="M244.556 308.295C245.42 308.861 246.275 309.472 247.208 309.919L246.8 310.046C245.71 310.401 244.828 311.124 243.751 311.516L243 311.877C241.832 312.43 239.657 312.667 238.375 312.627L236.943 312.79C239.918 311.746 242.291 310.58 244.556 308.295Z"/>
	<path fill="#9381FF" d="M232.467 297.693L234.176 299.43L213.782 302.691C215.035 301.716 217.197 301.295 218.725 300.911L227.895 298.889C229.248 298.587 230.763 298.403 232.044 297.876L232.467 297.693Z"/>
	<path fill="#F8F7FF" d="M296.001 271.375L296.752 271.252C300.21 272.94 297.887 276.615 296.304 278.755C290.858 286.116 279.515 293.054 270.296 293.773C269.659 293.822 268.722 293.975 268.12 293.728L266.516 292.785C256.226 285.511 267.845 284.412 273.874 282.148C282.288 278.988 288.384 274.638 296.001 271.375Z"/>
	<path fill="#F8F7FF" d="M281.655 197.313C290.58 196.072 294.916 204.553 297.311 205.223C299.836 205.928 301.601 203.89 304.131 205.127L309.446 207.797C308.289 212.518 296.708 220.583 292.461 217.697L292.25 217.55C291.621 217.644 291.892 217.573 291.327 217.769L288.994 218.498C295.066 212.13 286.965 215.073 284.166 216.327C283.736 215.055 283.244 214.098 282.397 213.061L282.181 212.802C277.015 207.392 275.921 208.31 269.5 212.261C263.604 215.889 255.774 222.528 251.899 212.199L252.009 212.006C256.195 205.622 274.803 198.614 281.655 197.313Z"/>
	<path fill="#1D1C2D" d="M212.672 244.979C212.544 224.535 221.661 203.207 238.451 191.076C248.841 183.569 266.309 176.625 279.375 175.329C292.653 174.013 305.189 178.66 316.821 184.538C321.488 187.631 325.655 190.945 329.374 195.146C330.595 196.525 331.942 198.914 333.312 200.026C336.632 204.801 342.357 212.401 343.379 218.308C344.237 221.848 346.171 227.841 343.125 230.829C340.771 233.138 335.283 234.585 332.692 231.875C331.238 227.691 336.286 225.372 330.616 217.127L330.422 216.85C329.834 217.212 329.261 217.597 328.631 217.881C326.002 214.002 324.312 210.92 320.456 208.234C321.444 207.256 322.04 206.152 323.359 205.603C316.764 195.718 307.299 189.539 295.641 187.18C259.417 179.85 226.531 205.644 219.687 240.885L218.126 251.742C217.802 254.88 217.718 258.216 216.766 261.233C224.939 258.676 223.729 259.175 226.576 266.809L229.785 274.7C241.07 299.209 265.061 311.257 291.717 309.455C314.096 307.942 329.683 286.035 336.261 266.508L338.221 259.835C338.563 258.56 338.933 256.648 339.767 255.603C341.455 253.49 347.347 250.075 349.931 252.26C350.657 255.239 348.769 259.871 347.851 262.723C339.57 288.443 326.963 312.088 298.22 319.083C285.637 322.145 272.291 320.441 260.333 315.75L247.208 309.919C246.275 309.472 245.42 308.861 244.556 308.295L234.176 299.43L232.467 297.693C225.117 289.392 220.017 279.703 215.856 269.51C214.381 264.613 212.791 249.8 212.672 244.979Z"/>
	<path fill="#B8B8FF" d="M323.359 205.603L330.422 216.85C329.834 217.212 329.261 217.597 328.631 217.881C326.002 214.002 324.312 210.92 320.456 208.234C321.444 207.256 322.04 206.152 323.359 205.603Z"/>
	<path fill="#999DB8" d="M377.212 184.763C380.227 184.624 384.249 186.504 386.281 188.685C383.322 190.73 380.942 191.735 377.291 191.742L377.212 184.763Z"/>
	<defs>
		<linearGradient id="gradient_3" gradientUnits="userSpaceOnUse" x1="418.508" y1="131.424" x2="433.79199" y2="135.16499">
			<stop offset="0" stop-color="#374448"/>
			<stop offset="1" stop-color="#406264"/>
		</linearGradient>
	</defs>
	<path fill="url(#gradient_3)" d="M417.751 132.721C420.397 132.251 423.211 132.536 425.901 132.254C428.825 131.947 433.542 130.018 436.256 131.446C433.952 132.509 415.501 141.84 417.751 132.721Z"/>
	<path fill="#1F1E23" d="M406.21 181.361L408.375 181.348C414.046 181.626 419.013 186.547 412.959 190.326L412.547 190.562C410.268 191.9 407.459 191.917 404.886 192.154C402.206 192.252 396.783 192.716 395.153 190C395.303 183.838 400.909 182.06 406.21 181.361Z"/>
	<path fill="#1D1C2D" d="M147.059 320.243L134.335 320.452C132.482 320.44 130.503 320.523 128.67 320.252C117.51 318.605 124.873 304.475 138.624 308.589L139 308.71C141.425 309.454 143.187 310.453 144.748 312.518C145 314.58 145.176 317.129 146.075 319.011L147.059 320.243Z"/>
	<path fill="#1F1E23" d="M124.948 268.458C118.86 265.691 121.056 260.124 126.387 258.481C128.132 257.943 130.272 258.27 132.077 258.326L139.632 258.4L149.2 258.496C164.813 258.752 156.327 268.209 152.469 268.8C147.717 269.527 129.523 269.43 125.238 268.528L124.948 268.458Z"/>
	<path fill="#1D1C2D" d="M131.765 357.296L181.186 357.448C185.446 357.416 191.759 356.988 192.506 362.807C193.112 367.516 189.978 370.036 185.522 370.268L150.58 370.284C144.21 370.281 137.526 370.683 131.202 369.975C119.698 368.687 123.497 359.04 131.765 357.296Z"/>
	<path fill="#1D1C2D" d="M141.353 447.532L130.559 447.511C128.539 447.5 126.458 447.606 124.456 447.336C127.945 434.57 129.684 435.367 140.637 435.544L184.253 435.629C188.499 435.615 199.458 433.742 200.904 437.908L202.136 437.098C202.036 439.123 197.849 445.342 196.536 446.633L196.217 446.96C193.89 447.644 191.116 447.515 188.706 447.528L141.353 447.532Z"/>
	<path fill="#FA8DBA" d="M334.885 174.556C345.289 174.571 356.243 185.886 360.922 186.045L360.998 186.736L369.539 205.079C362.286 207.222 354.292 217.601 344.026 217.881L343.379 218.308C342.357 212.401 336.632 204.801 333.312 200.026C331.942 198.914 330.595 196.525 329.374 195.146C325.655 190.945 321.488 187.631 316.821 184.538C321.492 180.464 328.707 175.756 334.885 174.556Z"/>
	<path fill="#F8F7FF" d="M360.998 186.736L369.539 205.079C362.286 207.222 354.292 217.601 344.026 217.881L343.379 218.308C342.357 212.401 336.632 204.801 333.312 200.026C334.407 199.206 337.061 198.967 338.472 198.589C346.366 196.475 355.779 193.356 360.998 186.736Z"/>
	<path fill="#1F1E23" d="M130.195 62.6131L213.987 62.5724C214.921 62.6188 215.78 62.736 216.651 63.1052L217 63.2625C218.339 63.8452 219.594 64.8376 220.197 66.2059L220.315 66.4962C222.114 70.8178 218.947 75.2775 214.661 75.952L140.072 76.0387C132.777 76.0627 125.962 78.3012 124.283 68.806C125.298 65.6035 126.821 63.3861 130.195 62.6131Z"/>
	<defs>
		<linearGradient id="gradient_4" gradientUnits="userSpaceOnUse" x1="136.60899" y1="452.526" x2="165.597" y2="482.17801">
			<stop offset="0" stop-color="#94A8FF"/>
			<stop offset="1" stop-color="#C4D8FE"/>
		</linearGradient>
	</defs>
	<path fill="url(#gradient_4)" d="M188.706 447.528C191.116 447.515 193.89 447.644 196.217 446.96L196.814 447.279C197.059 448.5 198.297 449.058 199.303 449.734C198.935 450.029 197.416 451.364 196.989 451.351L163.749 473.158L143.512 487.599C142.421 488.445 141.042 489.522 140.38 490.745L121.371 491.313C117.255 492.227 107.237 491.02 105.188 486.595C122.145 480.792 137.498 470.066 152.662 460.679C153.964 459.874 167.172 451.925 168.004 451.86L168.323 451.874C169.143 450.835 170.547 449.629 169.987 448.123L141.353 447.535L188.706 447.528Z"/>
	<path fill="#F8F7FF" d="M188.457 450.886L189.957 450.619C191.558 450.346 195.502 450.664 196.989 451.351L163.749 473.158L143.512 487.599C142.421 488.445 141.042 489.522 140.38 490.745L121.371 491.313C124.487 488.647 128.476 486.37 131.936 484.211L167.123 462.511C174.181 458.008 180.681 454.038 188.457 450.886Z"/>
	<path fill="#B8B8FF" d="M207.642 436.195C213.081 444.505 219.807 449.907 229.463 452.552C230.067 452.717 232.585 453.066 232.916 453.375C228.199 457.148 222.247 459.734 216.981 462.673L194.921 476.416C192.575 477.917 189.889 479.128 187.696 480.825L178.807 485.793C176.359 487.092 173.05 488.465 170.953 490.225L140.38 490.691C141.042 489.522 142.421 488.445 143.512 487.599L163.749 473.158L196.989 451.351C197.416 451.364 198.935 450.029 199.303 449.734C198.297 449.058 197.059 448.5 196.814 447.279L196.217 446.96L196.536 446.633C197.849 445.342 202.036 439.123 202.136 437.098L202.52 436.814C203.964 436.493 206.51 436.723 207.642 436.195Z"/>
	<path fill="#1F1E23" d="M116.553 109.326C120.099 109.185 123.753 109.427 127.313 109.432L281.586 109.441C283.582 109.444 285.817 109.262 287.771 109.633L288.125 109.71C293.651 110.881 293.457 119.789 285.189 122.417C280.962 123.151 276.027 122.653 271.722 122.651L125.643 122.691C120.283 122.724 112.276 124.286 110.732 117.048L110.677 116.75C109.941 112.952 113.395 110.368 116.553 109.326Z"/>
	<defs>
		<linearGradient id="gradient_5" gradientUnits="userSpaceOnUse" x1="61.215698" y1="356.71399" x2="124.56" y2="341.15701">
			<stop offset="0" stop-color="#130F7F"/>
			<stop offset="1" stop-color="#2E3196"/>
		</linearGradient>
	</defs>
	<path fill="url(#gradient_5)" d="M81.5155 216.873L81.7013 217.294C82.1628 218.353 82.4935 219.065 82.3391 220.25L82.875 220.877C83.7964 220.876 86.8127 220.808 87.5 220.127C89.3313 220.316 90.9371 220.138 92.7512 220.062L93.8882 219.088C93.9172 218.434 93.9032 217.925 94.257 217.349L96.0986 240.071L96.9897 253.305L97.8091 264.489C97.92 265.162 98.3117 266.54 98.1925 267.155C98.4891 270.044 98.8452 272.99 98.7434 275.895L99.5004 289.216L103.521 447.005L103.509 468.087C103.51 472.009 103.119 476.429 103.88 480.288L104.02 480.987C99.7423 480.828 95.53 480.692 91.4423 479.265L91.4545 447.399L81.5155 216.873Z"/>
	<path fill="#999DB8" d="M97.8238 264.489C97.92 265.162 98.3117 266.54 98.1925 267.155L97.8101 267.03C97.2927 267.582 96.8176 268.146 96.1631 268.539C96.06 267.865 95.8043 267.2 95.603 266.548C96.2843 265.767 97.0209 265.142 97.8238 264.489Z"/>
	<path fill="#A07DB2" d="M95.603 266.548C95.8043 267.2 96.06 267.865 96.1631 268.539C94.493 268.866 92.5146 270.498 91.1442 271.457C92.4633 269.635 94.0055 268.118 95.603 266.548Z"/>
	<path fill="#4442B0" d="M99.5004 289.216C97.7548 288.92 95.3404 290.356 94.1275 289.875L94.1275 287.5C94.8604 286.397 95.1268 280.756 98.0982 280.166C98.5472 280.077 98.2452 280.232 98.6875 279.876L98.5325 279.602C98.1042 278.564 98.3055 276.905 98.7309 275.895L99.5004 289.216Z"/>
	<path fill="#4442B0" d="M96.0986 240.071L96.9897 253.305C96.6724 252.932 96.5446 252.684 96.4565 252.208L96.3775 251.75C93.4343 249.832 92.0193 253.524 91.8961 249.792C91.8498 248.39 92.4567 245.41 91.125 244.526L91.7126 242.987C92.5909 241.984 94.5534 240.652 95.8648 240.583L96.0986 240.071Z"/>
	<path fill="#1D1C2D" d="M204.486 414.283C204.026 411.735 204.522 408.984 204.925 406.449C208.155 386.123 228.318 370.937 248.829 374.293C279.427 379.298 295.436 413.652 275.442 439.454C264.739 453.266 248.873 454.372 232.916 453.475C232.585 453.066 230.067 452.717 229.463 452.552C219.807 449.907 213.081 444.505 207.642 436.195C206.925 434.703 206.292 433.422 205.875 431.806L205.232 423.771L199.489 423.463C200.515 421.928 201.542 420.542 202.818 419.206L204.404 416.344L204.486 414.283Z"/>
	<path fill="#B8B8FF" d="M204.404 416.344C204.969 417.106 205.544 417.623 206.288 418.208L202.818 419.206L204.404 416.344Z"/>
	<path fill="#9381FF" d="M204.486 414.283L208.305 414.677C208.491 415.74 208.328 416.519 207.651 417.418L207.135 417.992L206.288 418.208C205.544 417.623 204.969 417.106 204.404 416.344L204.486 414.283Z"/>
	<path fill="#4442B0" d="M214.847 408.654C215.722 410.764 215.833 414.18 215.722 416.468L215.25 416.098C212.758 417.264 209.913 418.074 207.135 417.992L207.651 417.418C208.328 416.519 208.491 415.74 208.305 414.677C209.928 413.018 211.659 414.909 214.847 408.654Z"/>
	<path fill="#9381FF" d="M214.847 408.654C218.274 398.226 225.772 388.605 236.75 385.722L237.205 385.598C259.738 379.703 281.312 407.67 267.541 430.025C262.241 438.629 253.192 442.364 243.504 442.833C226.202 443.671 215.676 435.016 215.722 416.468C215.833 414.18 215.722 410.764 214.847 408.654Z"/>
	<path fill="#1A044D" d="M243.468 409.049C252.729 408.864 252.565 421.661 243.813 422.939C234.4 423.614 234.533 410.952 243.468 409.049Z"/>
</svg>
