<?xml version="1.0" encoding="utf-8" ?>
<svg xmlns="http://www.w3.org/2000/svg" xmlns:xlink="http://www.w3.org/1999/xlink" width="512" height="512">
	<path fill="#3D3C6D" d="M423.942 245.551C434.625 243.975 438.998 260.811 430.283 262.184L429.293 261.945C422.072 260.024 415.249 249.865 423.942 245.551Z"/>
	<path fill="#3D3C6D" d="M455.621 273.875L456.014 273.782C460.895 272.864 469.892 282.134 470.456 286.625C469.785 288.342 468.196 289.469 466.656 290.369C465.884 290.683 465.071 290.845 464.262 291.036C459.691 288.887 445.372 278.036 455.621 273.875Z"/>
	<path fill="#3D3C6D" d="M406.922 259.353C416.074 258.28 413.769 270.428 396.458 272.814L396.185 272.764C392.787 272.188 389.152 268.867 391.538 265.246C393.375 262.458 399.987 260.663 403.173 259.967L406.922 259.353Z"/>
	<path fill="#3D3C6D" d="M439.15 276.625C446.153 276.388 445.223 282.936 446.259 285.883C448.116 291.167 451.703 296.804 443.955 298.558C438.417 297.552 434.087 287.567 434.694 282.744L434.745 282.375C435.078 279.874 436.691 277.433 439.15 276.625Z"/>
	<path fill="#3D3C6D" d="M421.566 207.875C429.374 206.386 429.309 230.65 428.389 232.359C427.806 233.441 425.389 233.77 424.313 233.974C416.841 233.645 418.157 224.428 417.776 219.01C417.391 213.544 415.505 209.833 421.566 207.875Z"/>
	<path fill="#3D3C6D" d="M392.873 226.503C398.03 225.891 410.58 238.255 412.999 242.069C412.693 244.605 411.682 245.985 409.375 247.225C407.188 247.755 379.728 232.795 392.873 226.503Z"/>
	<path fill="#3D3C6D" d="M454.605 224.104L455.13 224.152C457.486 224.406 459.989 227.349 459.506 229.75C459.005 232.24 442.881 243.078 440.051 244.842C439.016 245.351 438.23 245.591 437.125 245.036C432.717 238.462 438.775 233.992 443.452 230.258C446.708 227.66 450.309 224.58 454.605 224.104Z"/>
	<path fill="#3D3C6D" d="M463.628 255.598L470.36 255.467C471.806 255.469 473.384 255.354 474.782 255.787L475.25 255.943C480.313 257.557 479.406 264.462 474.527 265.578L474.25 265.633C471.471 266.254 468.423 266.191 465.576 266.257C462.05 266.541 454.927 267.958 452.126 265.46C450.629 264.125 449.504 260.925 451.065 259.246C453.914 256.18 459.744 255.818 463.628 255.598Z"/>
	<path fill="#3D3C6D" d="M414.473 23.5647C424.236 23.9343 415.825 37.7359 413.929 43.7488L411.392 52.313C410.286 56.2637 410.175 59.2793 405.802 60.3564L404.781 60.293C401.429 59.9145 400.258 57.1578 400.691 54.0988L400.745 53.75C401.838 46.271 408.112 25.8132 414.473 23.5647Z"/>
	<path fill="#3D3C6D" d="M447.913 57.8055L451.768 57.7587C454.353 59.165 456.127 61.5168 455.412 64.625C454.858 67.0363 449.327 67.9731 447.429 68.5161C434.173 72.309 432.444 76.2154 422.711 82.3183L422.396 82.4522C421.239 82.9161 419.974 83.1556 418.81 82.6035C411.794 79.2761 417.255 73.7141 420.96 70.9388C429.041 64.8838 437.967 59.8633 447.913 57.8055Z"/>
	<path fill="#3D3C6D" d="M480.68 115.116C487.208 114.721 495.109 118.129 497.05 124.902C498.852 131.189 496.202 138.969 494.169 144.929C488.549 161.405 484.693 167.163 468.655 157.668C459.43 152.186 445.785 145.657 447.678 133.291L447.744 132.875C448.881 125.447 456.233 116.956 463.934 116.245L464.25 116.218C467.126 115.902 469.655 116.171 472.354 117.253C472.387 117.266 479.336 115.208 480.68 115.116Z"/>
	<path fill="#37C5CA" d="M482.634 122.931C483.593 123.382 484.661 123.836 485.492 124.507C491.34 129.23 483.166 148.442 478.938 153.058C474.394 151.057 470.177 148.063 465.99 145.403C463.053 143.503 459.186 141.512 457.093 138.679C454.306 134.907 459.029 129.05 461.992 126.953C467.502 123.053 468.254 127.277 473.481 127.887C476.524 128.243 480.381 124.642 482.634 122.931Z"/>
	<path fill="#3D3C6D" d="M254.124 24.4098L293.625 25.2391C349.326 29.1196 357.498 52.7348 355.682 105.5L355.415 115.75L352.437 167.043L351.301 207.401C351.228 209.698 350.751 211.94 350.704 214.231L349.685 251.125L349.596 273.925C349.563 276.567 349.069 279.144 348.99 281.75L348.856 313.249C381.382 313.06 411.448 324.487 433.33 349.375C463.163 383.306 459.595 437.653 424.001 466.591C396.802 488.703 354.924 493.454 322.283 481.686C312.504 478.16 304.152 473.961 297.469 465.722C295.84 465.923 294.152 466.674 292.532 467.051L235.307 475.842L162.56 481.481L103.625 481.489L71.25 479.005C49.0709 476.616 28.399 472.253 17.8347 449.375C12.5517 437.934 13.1236 424.602 13.1128 412.3L12.6352 311.168L13.6315 278.875L13.6961 260.172C13.7351 258.512 14.0873 256.902 14.1544 255.25L15.21 193.624L16.7326 158.045C17.8775 143.348 17.4002 139.816 25.7408 128C33.2686 117.335 42.2064 107.651 51.5 98.5118L64.0201 86.6004C74.561 77.3536 80.8958 73.0903 90.0021 62.118L99.5742 51.3611C111.474 39.1512 114.636 35.3483 130.989 33.4401L209.813 26.3232L254.124 24.4098ZM61.1093 145.927C48.3435 147.082 39.1302 144.859 27.1938 144.647L26.6659 153.208L25.8438 176.836L24.2301 237.04L24.1995 239.868C23.3952 245.861 23.4008 252.151 23.5001 258.2L23.4681 263.569L22.9334 278.589L22.9407 282.679C22.0616 288.538 22.5876 294.208 22.7033 300.082L22.3483 301.136L22.2702 312.662C22.2764 314.372 22.1156 316.256 22.2668 317.931L22.3776 322.69L22.2146 333.508L22.2509 334.988L22.4639 377.831L22.2853 378.048L22.9741 404.227C25.9777 405.474 35.4656 408.922 38.6594 407.93L70.875 409.106C73.2726 409.245 75.6288 409.621 78.0467 409.686L92.3769 409.73C97.2172 409.737 104.126 408.537 103.133 415.904L102.958 416.734C103.943 417.297 105.099 417.005 106.196 417.036L113.857 417.355C115.06 417.428 116.227 417.705 117.428 417.779C118.092 415.38 118.67 413.089 119.745 410.831L182.682 410.909C184.95 410.834 187.137 410.283 189.366 410.201L242.625 407.004L265.777 403.922C263.644 384.357 273.689 359.143 284.727 343.811C297.276 326.38 317.792 316.934 338.553 313.57L338.728 299.875C338.821 297.966 339.249 296.112 339.303 294.199L339.446 267.929L340.371 232.509C340.425 230.148 340.905 227.863 340.989 225.528L341.144 206.041C341.188 204.132 341.492 202.269 341.558 200.375L343.75 141.625L345.436 114.979C345.869 107.38 346.244 99.9821 346.251 92.3673C346.303 39.2929 321.906 32.8614 271.8 32.9394L252.5 33.1427L135.627 42.3972C133.019 42.5989 130.363 42.5954 127.781 42.9953L127.848 58.9083C127.91 60.4509 128.229 61.9623 128.286 63.5L129.428 93.625C129.502 95.4241 129.844 97.2237 129.951 99.0303L130.247 112.271C130.244 124.818 125.885 137.295 112.93 141.921C102.852 145.519 92.2251 144.333 81.75 144.854C75.0398 145.187 68.0937 146.269 61.3714 145.842L61.1093 145.927ZM335.832 324.649C326.903 325.818 306.221 333.674 299.79 340.427L299.713 340.555C297.381 342.112 295.272 344.29 293.467 346.42C280.934 360.893 274.141 386.802 275.865 406.099L276.006 406.912C276.88 440.731 300.785 466.269 332.834 475.053C374.632 486.508 429.02 468.823 441.221 423.315C445.408 407.697 445.13 388.753 436.884 374.368C435.133 370.529 433.17 367.277 430.762 363.834C428.62 359.942 424.91 355.718 421.444 352.907L410.887 344.105C388.709 326.356 363.248 322.353 335.832 324.649Z"/>
	<path fill="#B8B8FF" d="M117.71 47.625L118.596 73.875C118.684 76.8048 119.234 79.6629 119.381 82.5969C119.97 94.3183 121.34 105.936 120.419 117.7C119.743 126.324 112.983 134.282 104.351 135.682C101.523 136.142 98.4655 135.936 95.5992 135.939L56.7515 136.039C49.986 136.046 43.3439 136.074 36.5963 135.463L32.3984 134.989C32.6108 131.019 66.1314 97.4481 70.2795 93.9024L80.1737 85.9193C86.7867 80.9714 87.4435 80.6723 92.3575 74.1142L97.8661 67.4702L117.71 47.625Z"/>
	<path fill="#9381FF" d="M117.428 417.779L117.97 421.308C129.274 422.093 146.947 422.025 158.375 421.417C160.379 421.311 162.34 420.869 164.375 420.809L184.625 420.658L228.696 418.266L266.697 413.629C269.886 429.781 274.942 447.347 287.053 459.192L218.577 468.03L160.271 472.293L106 472.286L84.8465 470.851C67.6905 469.557 45.4736 469.368 33.0758 455.36C30.9819 453.753 29.3564 450.892 28.1241 448.586C26.0965 444.46 24.6158 440.166 23.8444 435.625L22.9658 428.51C22.3284 424.507 22.3853 420.256 22.49 416.215C29.3591 417.353 33.4279 417.441 40.5351 417.44L79.514 418.402C84.0245 418.549 88.7345 418.261 93.1973 418.837L96.2018 419.212C99.6778 419.528 100.34 418.975 102.958 416.734C103.943 417.297 105.099 417.005 106.196 417.036L113.857 417.355C115.06 417.428 116.227 417.705 117.428 417.779Z"/>
	<path fill="#9381FF" d="M335.832 324.649C363.248 322.353 388.709 326.356 410.887 344.105L421.444 352.907C424.91 355.718 428.62 359.942 430.762 363.834C433.17 367.277 435.133 370.529 436.884 374.368C445.13 388.753 445.408 407.697 441.221 423.315C429.02 468.823 374.632 486.508 332.834 475.053C300.785 466.269 276.88 440.731 276.006 406.912L275.865 406.099C274.141 386.802 280.934 360.893 293.467 346.42C295.272 344.29 297.381 342.112 299.713 340.555L299.79 340.427C306.221 333.674 326.903 325.818 335.832 324.649ZM335.832 324.649L335.719 325.871C337.307 325.775 339.469 325.343 340.794 326.453L342.172 327.833C342.2 329.855 343.82 339.957 339.109 334.625L336.262 331.297C321.684 336.446 315.901 350.858 308.948 353.755L304.21 351.529C298.121 353.614 294.758 356.587 293.258 362.727C296.435 362.789 299.397 363.334 302.47 362.193C304.089 361.592 308.062 358.953 309.587 359.667C313.016 372.305 306.896 369.294 300.854 371.036C300.187 371.228 299.969 371.205 299.34 370.924C298.062 370.355 296.438 371.256 295.082 371.41L294.229 370.588C292.424 371.076 290.829 371.931 289.19 372.805C290.387 378.36 291.326 377.061 296.479 378.545C304.493 375.939 312.739 369.427 316.535 361.75L317.016 360.638C314.894 356.387 315.392 356.122 319.433 354.384L323.823 352.257C332.868 347.483 336.279 343.783 343.625 338.078C346.228 336.056 349.521 334.582 352.298 332.728C356.454 329.953 358.606 326.628 364 327.741C364.522 328.664 366.665 333.897 366.402 334.59C365.502 336.96 360.762 338.322 358.773 339.545C349.986 344.949 339.196 352.394 333.842 361.067C334.203 361.302 333.989 361.222 334.504 361.241C343.839 355.179 354.85 339.944 367.5 340.284C369.98 340.35 370.046 343.49 371.485 345.047L371.831 345.406C372.827 344.388 374.144 343.417 374.123 341.875L374.482 341.036C379.584 337.283 385.906 328.914 393.215 335.925C390.75 342.028 385.227 345.107 379.308 346.82C377.752 345.999 376.503 345.193 375.25 343.932L374.399 344.461C373.693 344.936 372.937 345.199 372.238 345.714C371.77 346.627 371.183 347.572 370.964 348.579C377.031 353.579 383.314 358.708 388.719 364.419C397.181 373.359 403.527 382.095 412.657 391.022C417.147 387.014 421.402 383.909 426.536 380.709L436.884 374.368C435.133 370.529 433.17 367.277 430.762 363.834C428.62 359.942 424.91 355.718 421.444 352.907L410.887 344.105C388.709 326.356 363.248 322.353 335.832 324.649ZM437.433 384.875C431.461 387.286 426.137 392.297 421.452 396.609C422.791 398.955 424.357 401.274 426.625 402.837L427.25 403.215C433.179 399.172 435.429 397.444 442.038 394.201C441.39 391.191 440.268 387.124 438.166 384.837L437.433 384.875Z"/>
	<path fill="#F8F7FF" d="M334.951 361.736L335.639 361.875C335.297 363.582 330.669 367.923 329.317 369.137C328.792 368.907 328.572 368.509 328.243 368.061C330.096 366.437 333.292 362.312 334.951 361.736Z"/>
	<path fill="#B8B8FF" d="M291.09 384.375L291.22 384.675C287.826 387.655 284.484 391.432 280.125 392.931L279.625 392.503C278.836 387.163 287.303 385.375 291.09 384.375Z"/>
	<defs>
		<linearGradient id="gradient_0" gradientUnits="userSpaceOnUse" x1="312.884" y1="381.59299" x2="325.436" y2="373.86401">
			<stop offset="0" stop-color="#BDBEFF"/>
			<stop offset="1" stop-color="#DBDCFF"/>
		</linearGradient>
	</defs>
	<path fill="url(#gradient_0)" d="M328.243 368.061C328.572 368.509 328.792 368.907 329.317 369.137L295.812 400.749C296.135 400.107 304.061 393.143 304.562 392.812C307.095 391.142 310.103 386.689 312.562 385.312L314.142 383.733L313.096 381.891C311.677 382.774 310.339 384.098 309.084 385.219L306.782 387.005C305.923 387.652 305.186 388.418 304.312 389.062L294.501 396.501L306.342 386.86C310.732 383.777 314.53 379.685 318.571 376.168C321.774 373.381 325.178 371.046 328.243 368.061Z"/>
	<defs>
		<linearGradient id="gradient_1" gradientUnits="userSpaceOnUse" x1="302.64401" y1="329.55701" x2="326.664" y2="342.54901">
			<stop offset="0" stop-color="#ABC1FB"/>
			<stop offset="1" stop-color="#EDEFFF"/>
		</linearGradient>
	</defs>
	<path fill="url(#gradient_1)" d="M299.713 340.555L299.79 340.427C306.221 333.674 326.903 325.818 335.832 324.649L335.719 325.871L333.978 326.454C319.949 330.441 309.246 344.899 298.473 348.374L298.258 348.525C296.369 349.503 294.216 348.196 293.467 346.42C295.272 344.29 297.381 342.112 299.713 340.555Z"/>
	<defs>
		<linearGradient id="gradient_2" gradientUnits="userSpaceOnUse" x1="370.521" y1="450.638" x2="352.414" y2="360.47299">
			<stop offset="0" stop-color="#3B385E"/>
			<stop offset="1" stop-color="#372471"/>
		</linearGradient>
	</defs>
	<path fill="url(#gradient_2)" d="M360.237 358.443C365.973 363.094 370.779 368.744 375.849 374.088L385.766 384.777C389.517 388.862 393.324 392.724 395.78 397.746C391.131 407.933 384.606 398.72 380.808 394.033L371.778 383.288C370.045 381.246 366.038 377.33 364.933 375.304L364.783 404.839C364.904 414.125 366.811 446.324 365.053 450C364.195 451.796 362.936 452.525 361.174 453.22L360.856 453.235C353.75 453.509 355.373 447.384 355.524 442.728L355.531 374.504C351.36 380.008 344.904 386.42 340.141 391.93C336.227 396.459 329.761 405.529 324.176 397.938L324.697 396.254C325.645 393.762 327.681 391.61 329.421 389.639L336.019 382.196C342.675 374.61 350.932 362.869 360.237 358.443Z"/>
	<path fill="#9381FF" d="M406.139 343.061C408.197 343.313 408.865 344.332 410.125 345.82C410.736 349.498 400.299 356.146 397.053 357.574L396.312 357.906C395.143 358.399 394.502 358.434 393.329 357.935C391.179 356.549 389.379 355.377 387.643 353.456C390.458 350.554 402.072 343.582 406.139 343.061Z"/>
	<path fill="#9381FF" d="M421.444 352.907C424.91 355.718 428.62 359.942 430.762 363.834C425.603 369.447 417.712 375.795 410.327 378.077C409.021 376.279 408.411 374.091 407.029 372.337C405.681 370.625 399.989 367.024 401.836 365.317C404.856 362.524 417.778 352.771 421.444 352.907Z"/>
	<path fill="#B8B8FF" d="M23.4681 263.569L23.625 264.445C26.6511 264.268 41.1614 260.431 44.389 258.668L44.4362 271.145C43.4753 271.93 42.4293 271.972 41.297 272.346L28.9782 276.875C27.036 277.641 25.058 278.53 22.9373 278.589L23.4681 263.569Z"/>
	<path fill="#B8B8FF" d="M22.9407 282.679L23.0178 286.137L46.0784 279.823L46.7521 291.592C39.0918 294.298 32.835 295.621 24.6862 298.997L22.8513 297.625L22.7033 300.082C22.5876 294.208 22.0616 288.538 22.9407 282.679Z"/>
	<path fill="#B8B8FF" d="M24.1995 239.868L24.5 242.114C33.152 240.129 41.5492 236.886 50.4199 235.942C49.4013 240.965 48.1071 247.475 43.5137 250.442C40.9692 252.085 26.8749 258.427 24.3594 257.768L23.7587 257.865C23.6118 258.152 23.6986 258.063 23.5001 258.2C23.4008 252.151 23.3952 245.861 24.1995 239.868Z"/>
	<path fill="#B8B8FF" d="M131.808 333.168C134.745 332.757 138.299 332.308 141.125 333.187L141.447 333.282C143.197 333.813 144.214 334.732 145.185 336.25L145.18 336.932C142.761 338.908 122.035 340.156 116.149 340.365L96.9219 340.449C92.812 340.453 88.4576 340.736 84.3743 340.341C77.326 339.658 78.927 334.598 84.8366 333.648C87.9874 333.142 91.8359 333.635 95.0655 333.629C95.3328 333.713 96.1356 333.629 96.4934 333.638L118.418 333.738C122.834 333.744 127.443 333.928 131.808 333.168Z"/>
	<path fill="#B8B8FF" d="M22.3483 301.136L22.7345 305.7C25.1903 304.33 27.7316 303.836 30.3714 302.957L39.2891 299.619C42.1677 298.627 45.1968 297.923 47.9931 296.727L48.5148 308.624C43.5544 311.914 32.024 314.696 25.233 318.248C24.6168 319.339 25.0079 321.093 25.5043 322.204L49.8785 314.515C52.8278 317.827 52.3571 321.518 51.608 325.456C44.2394 328.548 31.5761 330.891 25.5351 334.334L25.1087 334.171C24.0901 333.771 23.3151 333.549 22.2146 333.508L22.3776 322.69L22.2668 317.931C22.1156 316.256 22.2764 314.372 22.2702 312.662L22.3483 301.136Z"/>
	<path fill="#B8B8FF" d="M25.1523 338.845L36.5209 334.618C42.1965 332.241 57.0865 324.242 63.2273 325.375C64.2138 326.401 64.7984 327.554 64.7828 329.001L64.3294 333.191C63.9251 336.51 57.6458 337.648 55.3429 339.073L34.543 347.783C32.4676 348.673 30.2871 349.497 28.2958 350.564C24.9753 352.345 23.397 356.868 26.625 356.686C34.8101 356.224 48.8861 344.363 56.5982 343.256L56.9313 343.204C66.4777 348.349 63.637 353.462 66.6269 358.878C66.3243 359.266 66.0531 359.841 65.5 359.891L61.7995 359.678C50.8339 359.745 41.4575 363.871 31.9756 369.228C28.8955 370.968 25.8841 372.933 22.5549 374.164C22.5409 375.35 22.6442 376.665 22.4639 377.831L22.2509 334.988L22.3235 335.249C22.5897 336.979 22.4467 338.78 22.3878 340.525C23.2625 339.955 24.1828 339.229 25.1523 338.845Z"/>
	<path fill="#3D3C6D" d="M78.8462 363.78L79.2516 361.499C79.4158 360.036 79.8401 358.811 80.5276 357.517L131.563 357.7C133.905 357.723 136.294 358.282 138.69 358.321L214.754 358.404C230.737 358.374 225.415 368.598 220.82 368.679L161.128 367.899L89.5906 367.31C86.2252 367.175 82.6103 366.998 79.3535 366.117C78.8291 365.406 78.9138 364.644 78.8462 363.78Z"/>
	<defs>
		<linearGradient id="gradient_3" gradientUnits="userSpaceOnUse" x1="44.754299" y1="367.978" x2="61.643902" y2="413.76901">
			<stop offset="0" stop-color="#AFB5FF"/>
			<stop offset="1" stop-color="#DCDDFF"/>
		</linearGradient>
	</defs>
	<path fill="url(#gradient_3)" d="M58.0912 363.057C59.8397 363.196 61.6413 363.226 63.3753 362.915L65.7504 362.623L60.7512 365.501C60.1401 365.779 59.8131 365.996 59.125 366.127L58.25 366.75C57.1832 367.306 56.2785 367.239 55.2339 368.077L48.6419 370.153C52.5323 370.683 55.9624 369.368 59.7112 368.677L72.5534 366.256C74.5585 365.942 76.6521 365.917 78.6803 365.912L78.8462 363.78C78.9138 364.644 78.8291 365.406 79.3535 366.117C80.2758 373.114 73.6423 376.312 68.0246 378.122L35.375 390.005C32.6491 391.024 29.6497 391.655 27.0095 392.824C24.1939 394.07 24.5885 396.661 28.3 395.903C31.4447 395.261 34.5465 394.011 37.6016 393.021L64.2781 384.104C67.0681 383.271 69.8158 382.592 72.7231 382.327L74.875 382.29C76.1648 382.435 77.5608 383.346 78.6977 383.958C73.9197 389.056 67.6129 389.844 62.1026 393.556L82.2 388.86C82.7172 392.525 83.3328 403.967 78.75 404.503C76.7607 404.735 69.6606 403.949 68.5 404.743C70.4751 404.927 79.4246 403.167 76.6275 405.956L76.6875 406.368C76.3675 406.991 76.0775 407.575 75.875 408.25L75.375 409L71.1253 408.861C69.3396 408.732 67.625 408.89 65.875 408.576L43.75 407.682C42.2331 407.578 40.111 407.325 38.6594 407.753C35.4656 408.922 25.9777 405.474 22.9741 404.227L22.2853 378.048C22.8432 377.984 22.7229 378.032 23.0418 377.888L37.8937 371.716C41.4298 370.334 56.0067 365.355 58.0912 363.057Z"/>
	<path fill="#3D3C6D" d="M81.8088 311.623L264.867 311.743C271.21 311.997 275.967 322.086 266.377 322.344L84.1403 322.136C74.8706 321.69 75.1354 312.505 81.8088 311.623Z"/>
	<path fill="#3D3C6D" d="M82.8088 188.373L272.407 188.55C275.331 188.552 278.367 188.382 281.274 188.586C286.88 188.978 289.806 198.506 278.695 198.496L81.625 198.492C75.6933 198.203 72.2586 189.068 82.8088 188.373Z"/>
	<path fill="#3D3C6D" d="M81.5585 270.628L225.013 270.899C230.546 271.221 234.342 271.703 240.251 271.705L279.347 271.715C281.181 271.708 283.179 271.221 284.595 272.629C288.473 276.483 286.258 281.558 281.252 282.088C277.954 282.069 274.685 281.502 271.374 281.487L211.125 281.411C208.056 281.386 205.053 280.84 202.005 280.816L81.5627 281.061C76.4385 281.078 74.0249 271.685 81.5585 270.628Z"/>
	<path fill="#3D3C6D" d="M79.9019 227.576L277.793 227.821C281.576 227.734 287.458 228.548 286.186 234.183C285.757 236.085 284.153 237.137 282.584 238.034C280.91 238.229 279.029 238.023 277.328 238.015L84.9848 237.959C83.6612 237.964 82.1695 238.087 80.875 237.779C75.127 236.411 75.3329 230.126 79.9019 227.576Z"/>
	<path fill="#B8B8FF" d="M68.7092 150.962L69.3391 151.382C68.7774 154.811 67.8433 158.273 66.2587 161.375C65.4441 161.497 64.5722 161.7 63.7498 161.694C59.0066 162.734 54.1946 165.112 49.6676 166.905L26.4498 175.946C26.293 176.227 26.1328 176.484 26.0309 176.791C26.0584 177.902 26.0691 178.92 26.3712 180C27.4515 180.542 46.9046 172.555 49.1552 171.857L62.6554 168.245L63.1141 168.182C63.9085 168.065 64.6587 167.647 65.4447 167.616C64.6791 173.139 64.9104 179.114 58.7273 180.919C50.6359 183.733 34.7921 187.449 27.9772 191.996L27.9056 192.375C31.0203 194.302 38.38 190.715 41.5 189.733L55.1785 185.872C55.5648 185.762 57.5611 185.346 57.7259 185.099L62.0867 184.415C61.8307 187.099 61.556 189.727 60.5516 192.25L60.4327 192.559C60.1066 193.356 59.4501 194.041 58.7474 194.533L58.6366 194.575L45.7999 198.489C43.0106 199.366 40.2543 200.489 37.4124 201.181C35.6732 201.605 26.905 202.056 27.625 204.661C29.5958 204.842 31.9227 203.887 33.875 203.506L50.4798 200.212C52.9566 199.721 55.8355 199.558 58.2092 198.742C59.1403 200.225 58.3014 204.892 57.8959 206.561C57.2057 209.403 55.7484 209.452 53.2578 210.247L37.6225 214.476C34.2121 215.55 31.0026 217.146 27.6233 218.314L25.1843 217.977C24.6551 221.548 24.4196 222.75 27.8178 220.671L56.8899 215.644C55.2692 225.124 54.6482 229.508 45.625 231.979L28.5 237.019C27.6161 237.311 26.7007 237.695 25.75 237.509L24.2301 237.04L25.8438 176.836L26.6659 153.208C26.7177 154.028 26.6357 154.94 26.875 155.727L68.7092 150.962Z"/>
</svg>
