<?xml version="1.0" encoding="utf-8" ?>
<svg xmlns="http://www.w3.org/2000/svg" xmlns:xlink="http://www.w3.org/1999/xlink" width="512" height="512">
	<path fill="#D0AC36" d="M427.594 44.7621C428.295 45.3845 428.625 45.2577 429.541 45.302L428.825 46.1602C428.767 47.9081 427.996 51.146 427.019 52.486C425.834 52.0525 424.186 52.34 422.934 52.4119C420.032 50.8803 419.079 49.0063 419.825 45.6802L420.456 45.5523C422.486 45.1063 426.25 46.2946 427.594 44.7621Z"/>
	<path fill="#E6C840" d="M427.725 29.8197C425.614 34.3621 424.695 40.3502 427.594 44.7621C426.25 46.2946 422.486 45.1063 420.456 45.5523L419.825 45.6802L421.909 37.2881C423.001 33.9607 424.516 31.4384 427.725 29.8197Z"/>
	<path fill="#B8B8FF" d="M72.1552 180.764C81.8096 180.184 91.7957 181.069 101.44 181.525C105.642 181.723 110.086 181.28 114.215 182.031C114.01 184.67 113.197 194.928 111.936 196.711C110.702 196.317 109.267 196.452 108 196.453L75.412 196.412L101.25 195.904L100.717 194.845C100.331 194.036 100.547 191.049 100.715 190.115L100.806 189.75C101.033 188.66 101.627 187.683 101.823 186.624C102.093 185.168 101.685 183.204 102.607 181.989L101.875 181.89C97.8044 181.215 93.4103 182.04 89.34 181.48C86.6927 181.116 83.6758 181.001 81.0024 180.998L75.303 181.034C74.4202 181.038 73.4086 181.154 72.5618 180.898L72.1552 180.764Z"/>
	<path fill="#B8B8FF" d="M21.4704 415.144C21.443 410.022 22.4469 388.385 23.843 383.767C25.6937 377.646 37.574 378.983 40.0245 384.699C41.7075 388.625 38.9492 406.438 37.5383 410.233C32.6253 410.663 25.5776 412.063 21.4704 415.144Z"/>
	<path fill="#B8B8FF" d="M249.205 400.073L271.048 400.487C269.313 400.929 267.23 400.755 265.44 400.778L266.249 429.82C266.315 438.029 269.019 450.254 256.5 448.745L255.789 448.647C254.152 448.313 252.14 447.091 251.285 445.664L251.125 445.383C250.102 443.615 249.55 433.35 249.426 430.404L249.205 400.073Z"/>
	<path fill="#9381FF" d="M37.3289 122.14C49.4605 120.504 55.5801 141.455 53.4226 150.354L53.1709 151.342C49.4905 164.068 27.2154 167.959 16.9804 162.251C13.4371 160.275 12.013 156.938 10.9768 153.228C9.46964 148.913 9.45934 127.64 17.3678 129.806C26.8174 132.393 20.1707 147.905 27.187 149.695L27.5 149.771C30.7476 150.579 36.0318 150.224 38.5207 147.937C46.1314 140.94 25.1971 126.923 37.3289 122.14Z"/>
	<path fill="#9381FF" d="M415.637 247.751L491 247.669C494.925 247.589 499.185 246.658 503 247.942L503.464 248.093C509.929 250.412 509.082 260.514 502.071 262.926C499.986 263.643 497.206 263.309 495.006 263.292L423.901 263.217C421.109 263.22 418.233 263.082 415.455 263.304C415.43 264.339 415.446 265.383 415.284 266.407C414.786 260.716 414.548 253.773 415.637 247.751Z"/>
	<path fill="#B8B8FF" d="M404.071 177.318C409.778 176.601 415.464 176.701 421.188 176.609L465.279 175.611C469.02 175.608 472.944 175.382 476.657 175.772C485.714 176.724 489.389 184.548 483.251 191.079C479.135 195.46 472.174 195.708 466.554 195.814L408.907 195.853L404.071 177.318Z"/>
	<path fill="#4641D8" d="M254.437 463.099C257.146 462.893 260.118 462.891 262.545 464.283C269.139 468.064 276.163 480.553 278.13 487.767C281.029 498.401 266.649 507.61 258.058 509.694C256.246 509.947 254.18 510.076 252.396 509.587L252.125 509.509C244.28 507.386 234.958 499.816 233.826 491.5C233.196 486.875 236.013 481.835 238.201 477.936C242.021 471.128 245.887 464.084 254.437 463.099ZM255.809 477.941C252.811 481.811 250.557 486.257 248.696 490.769C250.73 491.673 252.631 492.286 254.807 492.743C265.372 491.449 260.986 482.889 255.809 477.941Z"/>
	<path fill="#B8B8FF" d="M245.225 100.781C245.252 99.417 245.396 97.7898 245.395 96.3219L245.548 65.625C245.611 63.6422 246.021 61.7027 246.102 59.75L246.191 45.4445C246.22 43.6178 246.517 41.8189 246.553 40L246.574 21.1084C246.574 17.501 246.112 12.9672 247.085 9.49713C249.437 1.10854 261.401 2.22068 262.049 10.8186C262.336 14.6238 262.231 18.4747 262.235 22.2884L261.966 96.2898C261.902 97.2238 261.413 98.8992 261.836 99.6877L263.757 99.7948L245.225 100.781Z"/>
	<path fill="#3A61B2" d="M427.725 29.8197C435.175 25.0156 454.257 29.8345 458.964 37.25C462.825 43.3332 462.687 53.1793 461.08 59.9917C457.986 73.1103 445.823 75.3716 434 72.993C429.264 72.0402 421.568 71.138 418.477 66.9571C414.684 61.828 416.937 54.3308 422.934 52.4119C424.186 52.34 425.834 52.0525 427.019 52.486C427.996 51.146 428.767 47.9081 428.825 46.1602L429.541 45.302C428.625 45.2577 428.295 45.3845 427.594 44.7621C424.695 40.3502 425.614 34.3621 427.725 29.8197Z"/>
	<path fill="#FAAE01" d="M429.541 45.302C433.223 44.0698 438.287 41.401 442.125 43.3203C454.913 49.7161 439.522 67.3578 427.019 52.486C427.996 51.146 428.767 47.9081 428.825 46.1602L429.541 45.302Z"/>
	<defs>
		<linearGradient id="gradient_0" gradientUnits="userSpaceOnUse" x1="502.556" y1="148.20399" x2="458.38599" y2="137.939">
			<stop offset="0" stop-color="#423FE5"/>
			<stop offset="1" stop-color="#9D8FFF"/>
		</linearGradient>
	</defs>
	<path fill="url(#gradient_0)" d="M472.242 124.343C501.414 109.257 510.234 152.019 495.437 162.017C488.246 166.875 470.49 166.639 463.433 160.516C458.366 156.058 455.77 148.509 457.605 141.926L458.254 139.75C460.574 132.962 465.831 127.447 472.242 124.343ZM475.236 148.66C486.45 153.481 486.86 149.529 485.656 138.494C484.472 137.511 482.647 135.684 481 135.796C476.571 136.098 471.9 141.73 472.296 146.125C473.183 147.212 474.083 147.887 475.236 148.66Z"/>
	<path fill="#9381FF" d="M108.492 261.494L17.6902 263.783C13.6588 263.794 9.73358 264.147 6.55035 261.125C1.90677 256.716 3.63678 248.621 10.5664 247.942C15.1001 247.498 19.8564 247.759 24.4203 247.757L79.2551 247.113C81.4449 247.084 83.5814 246.721 85.75 246.662L108.152 246.591L108.492 261.494Z"/>
	<path fill="#B8B8FF" d="M130.995 454.041C127.829 445.556 126.978 437.45 126.944 428.365C126.875 410.057 138.326 411.225 152.751 412.317C153.509 412.375 157.541 412.876 157.949 412.578C160.648 410.604 161.381 396.677 167.538 394.573C170.795 393.46 177.41 394.745 180.411 396.341C182.89 397.659 182.1 399.654 181.701 401.905C180.275 409.937 177.091 425.685 169.25 430.239L168.849 430.479C165.206 432.635 161.064 432.48 156.985 432.361L148.929 432.141C147.964 432.113 146.444 431.844 145.582 432.158C145.369 437.808 146.56 448.933 142.705 453.585C142.465 453.875 142.555 453.756 142.375 454.171L143.201 454.466L130.995 454.041Z"/>
	<path fill="#4641D8" d="M37.5383 410.233C38.45 410.26 39.8265 410.113 40.6672 410.398C46.0577 410.975 50.0178 412.369 53.0466 417.25L53.2935 417.643C56.7077 423.213 57.7604 432.739 56.3074 439L56.225 439.366C52.1893 456.65 23.4801 460.7 14.2651 445.718C10.9659 440.354 9.70873 421.739 16.1283 418.332L16.4978 418.166C18.0529 417.063 20.3691 416.726 21.4704 415.144C25.5776 412.063 32.6253 410.663 37.5383 410.233Z"/>
	<path fill="#9381FF" d="M37.5383 410.233C38.45 410.26 39.8265 410.113 40.6672 410.398L40.125 410.797C40.3983 417.062 41.8376 424.026 40.6175 430.181C40.2785 431.4 40.6763 432.82 40.2422 434.102C38.9694 437.861 33.8257 439.749 30.25 438.264C25.7631 436.401 23.2762 425.65 21.4631 421.556C20.4034 419.871 21.5971 418.364 19.7735 417.132C18.7513 417.656 17.9204 418.099 16.742 418.16L16.4978 418.166C18.0529 417.063 20.3691 416.726 21.4704 415.144C25.5776 412.063 32.6253 410.663 37.5383 410.233Z"/>
	<path fill="#645BED" d="M37.5383 410.233C38.45 410.26 39.8265 410.113 40.6672 410.398L40.125 410.797C40.3983 417.062 41.8376 424.026 40.6175 430.181L38.9753 427.87C35.6303 424.005 30.2897 421.29 26.0162 418.524C19.386 414.231 21.5855 416.365 21.4631 421.556C20.4034 419.871 21.5971 418.364 19.7735 417.132C18.7513 417.656 17.9204 418.099 16.742 418.16L16.4978 418.166C18.0529 417.063 20.3691 416.726 21.4704 415.144C25.5776 412.063 32.6253 410.663 37.5383 410.233Z"/>
	<path fill="#9381FF" d="M77.1849 28.8508L77.4433 28.8186C91.3495 27.4915 94.946 38.6527 95.9844 50.7051C97.7778 71.5216 85.4974 72.2635 68.3121 73.3976C57.0081 74.3409 51.0134 71.7576 49.3853 60.0182C46.8354 41.6314 59.953 31.2467 77.1849 28.8508Z"/>
	<path fill="#E6C8E7" d="M74.1843 44.0867C79.6996 43.5422 84.9131 55.9998 70.8979 57.9886C64.015 58.1164 63.1478 52.2151 66.3536 47.7898C68.2234 45.2087 71.2204 44.5322 74.1843 44.0867Z"/>
	<path fill="#B8B8FF" d="M332.262 391.645L350.883 384.511L350.965 384.785C353.391 393.121 352.254 406.265 354.314 412.018L367.166 412.071C381.163 412.078 385.291 415.912 385.281 429.875L385.1 438.602C384.765 443.825 384.743 450.72 382.027 455.305L369.653 454.692L369.367 454.091C368.981 453.47 368.767 453.145 368.758 452.372L368.298 442.014C368.176 438.875 368.458 434.738 367.491 431.762L354.225 431.743C351.564 431.743 348.65 432.023 346.101 431.144L345.75 431.019C333.818 427.212 332.254 402.367 332.262 391.645Z"/>
	<path fill="#4641D8" d="M478.594 408.226L485.957 408.695C508.345 408.908 504.814 450.164 484.947 454.242L484.5 454.331C468.662 457.765 455.35 449.042 455.246 432.028C455.126 412.234 461.691 408.689 478.594 408.226Z"/>
	<path fill="#9381FF" d="M475.266 422.823C488.542 421.619 486.628 434.025 481.342 437.898L480.929 438.035C469.973 441.79 468.973 424.571 475.266 422.823Z"/>
	<path fill="#3A61B2" d="M369.653 454.56L382.027 455.259L383.04 455.599C388.661 457.25 393.487 459.608 396.385 464.96C402.025 475.377 401.615 492.271 389.948 498.384L389.57 498.579C379.753 503.738 360.517 503.812 354.375 492.556C351.879 487.982 351.925 483.108 352.168 478.044C352.775 465.393 355.657 455.331 369.653 454.56Z"/>
	<path fill="#11E372" d="M373.228 469.849C374.93 469.651 378.601 469.793 380.113 470.617C383.404 472.411 385.662 483.778 377.595 485.507C374.274 485.599 371.556 485.319 368.437 484.087C367.083 479.829 367.598 474.905 368.53 470.597L373.228 469.849Z"/>
	<path fill="#3A61B2" d="M130.995 454.041L143.201 454.41C158.857 456.005 159.978 468.399 159.846 482.307C159.702 497.583 147.546 502.276 133.842 502.258C119.504 502.239 112.791 490.034 112.743 476.716C112.697 463.927 117.401 456.257 130.995 454.041Z"/>
	<path fill="#FAAE01" d="M135.908 468.587C140.578 468.348 143.646 468.766 144.643 473.863C145.892 480.252 143.353 485.557 136.81 486.712C127.133 487.145 125.312 476.16 129.304 471.125C130.792 469.249 133.667 468.849 135.908 468.587Z"/>
	<path fill="#B8B8FF" d="M113.667 312.635C115.378 317.455 117.504 324.421 118.238 329.519C108.6 333.433 87.8221 332.851 77.3221 333.326L66.9384 333.385C60.6308 333.386 53.6351 332.855 47.4423 334.006L44.713 334.478C43.3914 339.625 42.9948 345.723 40.6188 350.461L40.4709 350.75C39.8331 352.032 38.8447 353.309 37.633 354.107L37.375 354.27C35.6863 355.354 32.2212 356.727 30.3564 355.596L30.125 355.443C25.7254 352.744 25.4207 348.882 25.6683 344.168C25.9907 338.032 28.1515 324.234 31.0627 318.818L31.2376 318.5C34.3789 312.669 59.2221 314.753 64.9944 314.738L113.375 313.169L113.667 312.635Z"/>
	<path fill="#B8B8FF" d="M331.717 107.368L331.87 106.875C331.284 106.724 329.175 106.373 328.897 105.903C326.926 102.57 333.229 86.3469 334.271 82.3933L335.94 75.1755C338.531 62.276 344.903 62.5554 357.555 62.5265L372.369 62.5227C373.365 62.5234 377.493 62.8574 378.136 62.3609L377.923 56.0669C377.872 54.7802 377.93 53.3967 377.469 52.1802C371.616 52.4135 363.862 53.3268 359.125 49.0093C355.511 45.7156 356.727 41.2816 359.936 38.1407C365.113 33.0721 372.767 33.5496 379.431 33.604L390.19 33.6935C395.036 33.773 401.562 34.5938 405.829 36.9161L406.125 37.073C409.588 38.9489 411.336 43.5131 409.125 47.0465C405.775 52.4013 393.66 49.5279 392.264 56.125C390.891 62.6165 399.346 60.7627 402.659 63.0107C407.818 66.5108 404.248 76.1987 396.875 78.4545L394.807 78.9688C391.133 79.8383 386.326 79.3113 382.554 79.3111L353.949 79.4035C352.901 81.2748 352.587 83.6886 351.967 85.7606C349.41 94.3039 346.668 105.472 337.483 108.921C336.238 109.162 332.835 108.062 331.717 107.368Z"/>
	<path fill="#B8B8FF" d="M407.74 314.631L421.966 314.681L447.134 313.698L461.482 313.651C468.33 313.657 477.236 312.901 481.144 319.875L481.301 320.149C485.058 326.811 485.042 336.365 485.525 343.75L486.315 354.587C486.729 365.303 486.545 376.084 488.457 386.686C489.601 393.026 489.105 403.321 485.957 408.705L478.594 408.257C478.273 395.333 468.249 388.989 467.275 378.22C466.755 372.47 469.276 366.979 469.51 361.241C469.765 354.97 469.335 348.139 467.229 342.195C464.256 333.804 461.098 334.375 453.64 334.389C448.249 334.399 443.942 334.915 438.875 335.119L402.146 335.263C402.419 332.758 403.551 330.07 404.274 327.625L407.74 314.631Z"/>
	<path fill="#B8B8FF" d="M167.804 113.303C166.851 111.474 166.533 109.337 166.164 107.327L163.029 84.6951C162.733 82.6395 163.424 79.6437 160.825 79.5461L124.635 78.9906C119.166 78.7851 109.016 79.7117 106.05 73.5874L105.788 73.0312C104.666 70.6412 104.712 67.7993 105.622 65.3469L105.755 65C107.266 61 112.226 60.2445 115.938 59.7389C116.799 57.1473 116.509 54.3912 116.956 51.7432L117.002 51.4841C114.307 51.3841 110.592 51.6886 108.101 50.6972L107.75 50.5499C102.668 48.4546 96.4148 41.8825 100.581 36.245L100.769 36C106.083 28.8513 122.656 28.2844 130.822 28.5833L134.538 34.8436C137.042 33.7929 139.672 32.3852 142.468 32.4296C149.83 32.5463 154.598 43.9067 148.122 49.4654C144.066 52.9469 137.078 51.2212 132.121 50.9439L133.136 61.8295L156.745 61.5802C174.772 61.5691 176.101 62.4832 179.624 81.1729L182.558 96.4789C183.392 100.612 184.327 104.677 184.824 108.87L167.804 113.303Z"/>
	<defs>
		<linearGradient id="gradient_1" gradientUnits="userSpaceOnUse" x1="315.94501" y1="321.901" x2="430.095" y2="166.577">
			<stop offset="0" stop-color="#413ECD"/>
			<stop offset="1" stop-color="#8E8BFF"/>
		</linearGradient>
	</defs>
	<path fill="url(#gradient_1)" d="M401.043 230.75C400.609 228.961 400.545 226.962 400.302 225.123L398.677 214.916C393.619 187.455 385.428 155.966 364.159 136.596C362.809 135.367 360.776 133.999 359.954 132.371C357.943 128.39 360.452 118.54 368.93 122.115C381.555 127.439 395.915 154.261 400.286 166.087C401.622 169.701 402.528 173.539 403.975 177.088L404.071 177.318L408.907 195.74C411.453 204.984 416.031 228.324 415.476 238.25L415.677 247.751C414.548 253.773 414.786 260.716 415.326 266.859C415.002 283.097 411.312 298.876 407.74 314.631L404.274 327.625C403.551 330.07 402.419 332.758 402.146 335.283C398.931 343.307 389.747 364.15 381.098 367.861C378.877 368.814 373.046 363.785 371.765 362.46C370.907 350.773 377.444 349.53 383.303 341.216C387.13 335.784 392.714 321.901 393.018 314.817C393.434 313.608 393.553 312.235 393.813 310.981L399.549 281C402.229 264.397 402.962 247.505 401.043 230.75Z"/>
	<defs>
		<linearGradient id="gradient_2" gradientUnits="userSpaceOnUse" x1="367.88101" y1="369.444" x2="133.429" y2="133.27901">
			<stop offset="0" stop-color="#4B42D9"/>
			<stop offset="1" stop-color="#9C94FF"/>
		</linearGradient>
	</defs>
	<path fill="url(#gradient_2)" d="M263.757 99.7948C290.078 99.8143 306.705 101.184 331.717 107.368C332.835 108.062 336.238 109.162 337.483 108.921C340.241 110.047 343.753 115.356 342.459 118.427C341.458 120.802 337.679 122.825 335.326 123.61C332.088 124.689 324.209 120.697 320.047 119.808C304.579 116.506 289.205 115.218 273.437 115.214L258.5 115.289L209.764 120.296C184.602 123.861 152.078 126.465 138.849 151.194C128.291 170.93 123.989 211.036 122.846 234.552L122.873 263.855C124.033 290.744 128.546 323.437 140.625 347.419C141.717 349.586 143.383 351.771 144.134 354.056C144.219 354.787 144.378 355.193 144.674 355.875L144.824 356.265C151.488 372.968 197.418 377.324 212.154 380.084L212.185 380.157L250.263 384.979C255.338 385.366 260.466 385.27 265.553 385.273L280.993 385.065C300.838 383.918 326.609 379.455 344.874 370.588C352.742 366.768 351.099 364.545 359.311 370.013C364.002 379.257 355.621 379.67 350.883 384.511L332.257 391.645C312.86 397.895 291.326 400.9 271.048 400.457L249.159 400.405L214.521 395.879C197.618 394.202 168.715 388.947 154.859 381.518C139.117 373.078 127.305 357.109 121.237 340.42C119.953 336.887 119.302 333.126 118.238 329.519C117.504 324.421 115.378 317.455 113.667 312.567C112.663 308.497 112.162 304.141 111.634 299.986L109.351 276.736C108.935 271.653 108.528 266.591 108.5 261.494L108.193 246.476C108.481 229.974 109.066 212.999 111.936 196.711C113.197 194.928 114.01 184.67 114.215 182.069C121.227 148.75 131.205 122.35 167.804 113.303L184.824 108.87C185.718 108.47 187.027 108.378 188 108.184L220.625 103.256C228.346 102.28 237.51 100.869 245.225 100.863L263.757 99.7948Z"/>
	<defs>
		<linearGradient id="gradient_3" gradientUnits="userSpaceOnUse" x1="261.03699" y1="384.76099" x2="262.42499" y2="121.423">
			<stop offset="0" stop-color="#867BFF"/>
			<stop offset="1" stop-color="#B7BEF8"/>
		</linearGradient>
	</defs>
	<path fill="url(#gradient_3)" d="M144.134 354.056C144.414 352.2 142.606 348.717 142.054 346.806L134.759 319.75C132.747 310.47 131.513 301.209 130.308 291.801L127.123 258.326L127.231 229.554C128.551 209.256 133.795 171.547 143.049 154.809C153.772 135.415 180.713 131.19 200.484 128.068L253.226 121.223C270.504 120.091 288.58 121.296 305.285 125.767L314.25 128.309C321.468 130.433 321.648 130.235 328.846 128.421C334.184 127.075 345.376 130.878 350.165 132.826C358.075 136.043 356.602 137.29 360.754 144.57C373.441 166.815 381.228 188.12 388.611 212.603C390.787 219.817 393.125 226.943 394.811 234.299L396.297 242.566C397.129 246.562 396.76 251.032 396.756 255.097L396.382 274.375L393.018 314.817C392.714 321.901 387.13 335.784 383.303 341.216C377.444 349.53 370.907 350.773 371.765 362.46L370.636 363.501C367.089 366.73 362.497 367.535 359.311 370.013C351.099 364.545 352.742 366.768 344.874 370.588C326.609 379.455 300.838 383.918 280.993 385.065L265.553 385.273C260.466 385.27 255.338 385.366 250.263 384.979L212.185 380.157L212.154 380.084C197.418 377.324 151.488 372.968 144.824 356.265L144.674 355.875C144.378 355.193 144.219 354.787 144.134 354.056Z"/>
	<path fill="#645BED" d="M352.748 248.036C353.636 248.171 354.692 248.34 355.343 249.01C357.522 251.292 359.908 254.951 360.727 258L359.943 259.625C362.304 261.915 363.129 261.755 365.998 265.488C365.397 268.948 363.893 271.591 361.013 273.7C356.924 276.694 350.821 273.487 347.122 276.345L346.934 276.184C347.429 267.131 349.556 256.606 352.748 248.036Z"/>
	<path fill="#4641D8" d="M346.558 278.734L346.842 278.839C350.051 280.253 352.902 284.536 358.067 283.535C357.892 290.774 355.355 296.964 352.153 303.419C332.976 342.085 304.355 354.258 263.8 354.276C242.67 354.286 219.823 351.562 202.479 338.375C201.478 337.614 199.768 336.563 199.043 335.56L199.26 335.264C199.764 334.626 200.116 334.169 200.382 333.374L202.749 324.749C202.846 324.239 203.052 323.93 203.331 323.493C207.562 325.198 210.942 327.805 214.925 329.878C228.677 337.038 251.248 339.24 266.328 339.247C302.477 339.263 326.481 325.747 341.731 292.534C343.776 288.08 345.652 283.571 346.558 278.734Z"/>
	<defs>
		<linearGradient id="gradient_4" gradientUnits="userSpaceOnUse" x1="278.79199" y1="308.23099" x2="224.72701" y2="145.04601">
			<stop offset="0" stop-color="#5D52E9"/>
			<stop offset="1" stop-color="#8C86FF"/>
		</linearGradient>
	</defs>
	<path fill="url(#gradient_4)" d="M199.043 335.56C190.133 329.333 181.817 323.143 175.037 314.507C159.994 295.347 151.088 266.899 154.103 242.371L155.606 230.153C159.857 205.551 171.553 170.424 193.375 156.727C200.63 152.173 208.754 149.997 217.004 148.1C276.321 134.462 327.636 140.103 353.846 200.415C356.608 206.772 369.42 240.601 365.897 245.646L365.723 245.875C363.399 249.062 359.367 250.007 355.562 249.066L355.343 249.01C354.692 248.34 353.636 248.171 352.748 248.036L352.496 247.854C350.853 246.287 349.736 234.651 349.344 232.086L347.595 222.187C341.67 194.928 323.312 171.704 296.598 162.074C280.67 156.333 263.791 155.876 247.171 157.886L212.618 164.189C208.44 164.992 204.19 165.228 200 165.93L199.681 165.981C196.151 166.65 192.414 175.617 190.738 178.432C187.714 183.511 184.401 188.255 181.727 193.566C161.434 233.877 161.6 281.693 194.449 315.834C196.984 318.469 199.652 321.179 202.756 323.138L203.331 323.493C203.052 323.93 202.846 324.239 202.749 324.749L200.382 333.374C200.116 334.169 199.764 334.626 199.26 335.264L199.043 335.56Z"/>
	<path fill="#F8F7FF" d="M203.331 323.493L202.756 323.138C199.652 321.179 196.984 318.469 194.449 315.834C161.6 281.693 161.434 233.877 181.727 193.566C184.401 188.255 187.714 183.511 190.738 178.432C192.414 175.617 196.151 166.65 199.681 165.981L200 165.93C204.19 165.228 208.44 164.992 212.618 164.189L247.171 157.886C263.791 155.876 280.67 156.333 296.598 162.074C323.312 171.704 341.67 194.928 347.595 222.187L349.344 232.086C349.736 234.651 350.853 246.287 352.496 247.854L352.748 248.036C349.556 256.606 347.429 267.131 346.934 276.184C346.661 277.022 346.626 277.861 346.558 278.734C345.652 283.571 343.776 288.08 341.731 292.534C326.481 325.747 302.477 339.263 266.328 339.247C251.248 339.24 228.677 337.038 214.925 329.878C210.942 327.805 207.562 325.198 203.331 323.493Z"/>
	<path fill="#4641D8" d="M298.296 209.552C308.598 208.922 307.437 220.325 307.459 227.283L307.443 258.328C307.426 263.041 308.058 268.672 306.334 273.162L305.931 274.125C304.801 276.368 303.33 277.922 300.924 278.747C299.606 278.765 298.205 278.875 296.953 278.4L296.625 278.266C290.516 275.819 292.022 270.217 292.048 265.004L292.109 227.969C292.122 221.164 290.42 212.655 298.296 209.552Z"/>
	<path fill="#4641D8" d="M239.078 212.312L240.75 212.288C246.687 212.473 248.53 218.324 250.707 222.915L255.864 233.81C260.717 244.02 266.224 254.294 269.989 264.964C272.298 271.506 270.494 279.264 262.226 278.213C254.051 277.174 255.371 267.186 252.454 264.231C250.921 262.678 243.925 263.273 241.523 263.255L233.25 263.739C231.583 263.787 229.395 263.513 227.814 263.967L225.253 269.75C218.249 284.857 205.924 276.419 209.263 266.5C211.769 259.055 215.876 251.73 219.346 244.682C222.541 238.193 232.394 213.944 239.078 212.312Z"/>
	<path fill="#F8F7FF" d="M239.931 238.875L241.708 239.875C245.275 243.809 245.381 246.816 239.961 247.726C232.444 247.076 236.249 241.784 239.931 238.875Z"/>
</svg>
