<?xml version="1.0" encoding="utf-8" ?>
<svg xmlns="http://www.w3.org/2000/svg" xmlns:xlink="http://www.w3.org/1999/xlink" width="512" height="512">
	<path fill="#9381FF" d="M351.141 108.375C353.206 108.012 354.853 109.411 356.009 111.043L356.185 111.3C358.537 114.687 357.761 118.388 353.895 119.884L352 119.739C345.991 118.74 346.306 110.884 351.141 108.375Z"/>
	<path fill="#9381FF" d="M395.07 81.0565C403.446 80.4432 413.39 113.307 401.065 114.906L399.272 114.258C392.904 111.231 393.635 104.358 392.222 98.5732C390.521 91.6116 385.21 84.3379 395.07 81.0565Z"/>
	<path fill="#9381FF" d="M94.0207 387.756C100.803 387.372 100.922 397.557 101.391 401.997C102.504 412.545 112.635 425.306 99.827 429.538C93.657 429.618 90.7304 413.466 89.6414 408.947C87.7468 401.086 83.5766 391.05 94.0207 387.756Z"/>
	<defs>
		<linearGradient id="gradient_0" gradientUnits="userSpaceOnUse" x1="373.14001" y1="390.14099" x2="305.23599" y2="420.54901">
			<stop offset="0" stop-color="#919BFD"/>
			<stop offset="1" stop-color="#BAB6FF"/>
		</linearGradient>
	</defs>
	<path fill="url(#gradient_0)" d="M287.292 380.487C288.378 380.28 289.837 380.324 291.004 380.259L302.797 380.19C327.187 408.237 352.791 421.363 390.192 424.772C387.622 426.74 381.295 430.863 382.567 434.747L383.667 435.175L383.495 435.219C381.116 435.31 378.354 434.717 375.961 434.487C352.999 432.279 329.626 420.84 312.27 406.125C305.756 400.602 300.434 394.209 294.359 388.267C291.941 385.902 287.468 384.055 287.292 380.487Z"/>
	<defs>
		<linearGradient id="gradient_1" gradientUnits="userSpaceOnUse" x1="502.24899" y1="149.058" x2="462.23001" y2="161.371">
			<stop offset="0" stop-color="#6A4CD4"/>
			<stop offset="1" stop-color="#8883FF"/>
		</linearGradient>
	</defs>
	<path fill="url(#gradient_1)" d="M491.908 197.792C494.359 177.783 491.609 159.461 485.477 140.205C483.967 135.463 483.327 127.057 477.496 130.724C483.134 143.792 489.26 189.204 480.301 196.07L480.01 196.311C479.072 196.889 476.617 196.615 475.647 196.243C469.328 193.821 470.977 187.507 471.001 182.164L470.797 167.164C470.304 159.326 469.253 151.33 467.308 143.715C465.762 137.659 462.003 132.886 464.919 126.581C468.946 117.876 478.719 114.092 487.396 118.394C493.254 121.297 496.457 128.495 498.35 134.384C506.231 158.9 508.586 186.221 501.592 211.2C500.561 214.881 499.553 219.165 497.817 222.574L497.377 222C497.643 221.68 497.785 221.526 497.875 221.127L498.875 218.377C498.992 218.026 499.428 217.22 499.438 216.876L500.188 214.438C500.109 213.864 500.156 213.954 500.439 213.5L500.877 211.375L501.688 209.126C501.608 208.463 501.638 208.612 502 208.125L502.5 206.125L502.877 203L503.127 201.75C503.549 201.116 503.499 201.118 503.377 200.375L503.688 200.188C503.68 199.12 504.007 198.304 503.877 197.25L504.127 195.5C504.589 194.944 504.726 192.143 504.658 191.312L504.627 191C505.958 189.288 505.583 178.548 505.278 175.17C504.933 171.345 503.799 164.546 504 161.5C503.626 161.021 503.653 160.858 503.689 160.25L503.19 161.19L499.462 162.75C498.625 163.017 497.933 163.424 497.176 163.866L497.097 165.361C496.727 165.821 496.505 166.07 496.353 166.658L495.785 165.221L495.42 165.331C495.379 165.888 495.326 166.395 495.461 166.946L495.556 167.246C495.355 168.044 495.095 168.244 494.496 168.757L494.154 168.374C493.871 169.222 493.822 169.427 493.014 169.848C491.621 172.629 495.602 192.169 492.034 197.609L491.908 197.792Z"/>
	<path fill="#9381FF" d="M491.908 197.792L492.034 197.609C495.602 192.169 491.621 172.629 493.014 169.848C493.822 169.427 493.871 169.222 494.154 168.374L494.496 168.757C495.095 168.244 495.355 168.044 495.556 167.246L495.461 166.946C495.326 166.395 495.379 165.888 495.42 165.331L495.785 165.221L496.353 166.658C496.505 166.07 496.727 165.821 497.097 165.361L497.176 163.866C497.933 163.424 498.625 163.017 499.462 162.75L503.19 161.19L503.689 160.25C503.653 160.858 503.626 161.021 504 161.5C503.799 164.546 504.933 171.345 505.278 175.17C505.583 178.548 505.958 189.288 504.627 191L504.658 191.312C504.726 192.143 504.589 194.944 504.127 195.5L503.877 197.25C504.007 198.304 503.68 199.12 503.688 200.188L503.377 200.375C503.499 201.118 503.549 201.116 503.127 201.75L502.877 203L502.5 206.125L502 208.125C501.638 208.612 501.608 208.463 501.688 209.126L500.877 211.375L500.439 213.5C500.156 213.954 500.109 213.864 500.188 214.438L499.438 216.876C499.428 217.22 498.992 218.026 498.875 218.377L497.875 221.127C497.785 221.526 497.643 221.68 497.377 222L497.817 222.574C489.6 246.522 475.284 266.643 454.432 280.895C448.701 284.812 440.696 292.942 436.93 284.256L435.826 281.526C434.881 280.398 433.086 280.559 431.822 279.456C430.889 274.836 434.314 273.451 437.752 271.116C455.818 258.844 470.895 244.023 481.173 224.563L486.081 214.318C486.948 212.259 487.641 209.608 488.76 207.726L488.949 207.423L491.34 199.737L491.908 197.792Z"/>
	<path fill="#B8B8FF" d="M488.949 207.423C489.796 206.875 489.989 205.425 490.305 204.448C490.769 203.015 491.903 203.717 491.127 204.5L490.877 205.25C490.876 205.835 490.791 207.082 490.377 207.5L490.44 208.91C483.015 235.511 468.288 259.834 445.031 275.311C441.928 277.376 438.758 279.199 435.826 281.526C434.881 280.398 433.086 280.559 431.822 279.456C430.889 274.836 434.314 273.451 437.752 271.116C455.818 258.844 470.895 244.023 481.173 224.563L486.081 214.318C486.948 212.259 487.641 209.608 488.76 207.726L488.949 207.423Z"/>
	<path fill="#9381FF" d="M78.0617 112.473L119.319 106.984C122.88 106.593 126.764 105.523 130.335 105.726L131.48 107.74C132.152 109.223 132.278 111.42 131.667 112.946L131.537 113.25C129.406 118.322 124.337 119.175 119.442 119.845L79.0859 125.095L55.75 130.038C52.0246 130.863 48.294 132.021 44.4911 132.401C34.8869 133.361 27.615 121.787 29.9336 113.125C32.0554 105.199 39.9622 102.617 46.4715 99.192C65.4076 89.2289 100.79 72.3826 123.043 78.2951L123.025 78.6912C122.968 80.106 123.156 81.2888 123.511 82.6534C124.345 85.8568 123.121 87.1747 119.25 88.0096L105.256 90.9032C97.7939 92.6995 90.3407 95.1127 83.0603 97.5429L72.3945 101.143C65.2499 103.927 50.7778 110.177 44.1715 114.375C41.9508 115.786 39.5244 119.223 43.3899 119.623C45.4217 119.834 48.1003 118.979 50.1087 118.532L78.0617 112.473Z"/>
	<path fill="#6938BF" d="M398.231 415.793C394.862 416.146 391.307 416.844 388 415.791L387.713 415.704C384.307 414.63 382.1 411.731 383.708 408.221C385.926 403.379 392.611 403.32 397.123 402.563L409.25 400.252C425.997 396.611 442.341 391.399 457.826 384.007C463.428 381.332 471.146 376.118 477.302 379.225C483.351 382.278 486.643 390.926 483.188 397.001C479.092 404.202 469.769 408.513 462.805 412.345L440.312 423.628C426.875 429.62 410.335 433.984 395.799 435.197C391.773 435.533 387.656 434.998 383.667 435.34L382.567 434.747C381.295 430.863 387.622 426.74 390.192 424.772L395.215 423.38C421.609 417.302 436.852 412.665 461.006 398.536C464.918 396.268 469.798 394.142 473.069 391.032C468.05 392.567 462.745 395.271 458.158 397.851L457.964 397.917C447.823 401.498 439.778 405.82 428.596 409.006L408.5 413.747C405.126 414.418 401.522 414.826 398.231 415.793Z"/>
	<defs>
		<linearGradient id="gradient_2" gradientUnits="userSpaceOnUse" x1="-2.4498999" y1="390.47101" x2="93.177101" y2="292.354">
			<stop offset="0" stop-color="#6031C9"/>
			<stop offset="1" stop-color="#C3CDFF"/>
		</linearGradient>
	</defs>
	<path fill="url(#gradient_2)" d="M12.8378 327.034C16.801 307.54 38.9202 273.907 54 262.528L54.3258 262.278C59.1632 258.608 62.4927 260.235 63.7522 266.25L63.815 266.526C65.0983 272.564 58.226 276.541 54.5139 280.375C43.2391 292.02 33.8714 306.061 27.9922 321.15C26.4109 325.209 25.3689 329.606 23.6768 333.573L22.1631 339.284C17.6245 356.676 20.5783 373.937 25.8486 390.692C27.2254 395.069 28.8061 400.299 31.2774 404.198C33.418 407.575 36.1961 406.119 35.5457 402.289C34.8795 398.367 33.3853 394.394 32.2089 390.589C30.1185 383.829 21.4532 346.661 33.2152 345.026L33.625 344.973C42.3205 343.776 40.7891 349.279 40.379 355.329C39.6884 365.515 40.995 375.671 44.1708 385.368L48.3095 397.25C48.9272 399.342 48.9253 401.821 48.6124 403.975L48.0334 406.859C43.5781 422.163 25.8717 424.049 18.203 408.766C4.9473 382.347 3.57165 354.615 12.8378 327.034Z"/>
	<path fill="#6938BF" d="M116.871 400.568C120.04 400.563 120.991 402.02 122.513 404.5C143.382 438.521 164.365 462.565 198.111 485.618L207.137 491.897C218.786 499.544 219.901 491.079 222.972 481.23L242.187 415.433C243.869 409.821 251.807 407.421 254.787 413.5C256.761 417.527 254.409 422.047 253.125 425.981L236.125 482.964C234.343 488.368 232.967 494.409 230.242 499.411C227.027 505.312 218.276 510.353 211.59 509.077C203.991 507.625 196.845 501.448 190.75 496.939C163.863 477.05 127.148 443.902 113.747 412.075C111.543 406.839 109.526 401.747 116.871 400.568Z"/>
	<defs>
		<linearGradient id="gradient_3" gradientUnits="userSpaceOnUse" x1="363.99799" y1="51.957199" x2="254.231" y2="90.374603">
			<stop offset="0" stop-color="#8F75FD"/>
			<stop offset="1" stop-color="#C3C4FF"/>
		</linearGradient>
	</defs>
	<path fill="url(#gradient_3)" d="M342.331 51.8229C341.841 51.6114 341.113 50.4794 340.744 50.0315L336.345 45.0027C330.454 38.7319 309.547 17.8166 300.91 16.2536C289.941 14.2685 288.342 31.1149 286.164 39.2099L272.265 88.4591C271.37 91.4907 270.511 94.6024 269.236 97.5C264.694 107.818 255.139 103.182 257.501 93.3635L273.375 37.143C275.55 28.8634 277.504 19.3557 281.816 11.8991C286.14 4.42313 296.691 0.174187 304.953 2.40959C315.308 5.21135 350.434 37.9448 356.091 47.7669C368.002 61.369 378.371 89.659 382.146 106.547C383.469 112.467 385.173 123.017 374.925 121.241C370.319 120.442 369.203 108.913 368.236 105.425C363.678 88.989 357.891 73.99 348.215 59.8051L344.717 54.9952C343.898 53.9614 342.974 52.9783 342.331 51.8229Z"/>
	<defs>
		<linearGradient id="gradient_4" gradientUnits="userSpaceOnUse" x1="296.811" y1="406.245" x2="178.754" y2="59.2794">
			<stop offset="0" stop-color="#5E26B8"/>
			<stop offset="1" stop-color="#AAB0FF"/>
		</linearGradient>
	</defs>
	<path fill="url(#gradient_4)" d="M123.043 78.2951L125.023 78.6439C155.779 80.6395 179.669 94.0691 199.886 117.172L207.579 126.796C208.495 128.031 211.482 133.195 212.324 133.747L286.335 134.401C288.688 134.487 291.028 134.975 293.401 135.087L344.501 137.748C360.893 138.782 380.892 138.835 396.731 143.576C412.369 148.257 420.377 164.546 421.863 179.773L423.489 205.29L423.617 226.895L423.497 292.244C423.441 294.211 423.039 296.121 422.933 298.085L422.001 318.681C420.677 341.591 422.17 364.46 394.518 373.16C386.605 375.65 378.026 376.265 369.796 376.871L317.474 379.991L302.797 380.169L291.004 380.259C289.837 380.324 288.378 380.28 287.292 380.735L143.037 378.915L116.076 377.032C97.6557 375.326 80.5056 371.046 74.125 350.627C71.4984 342.222 71.0141 331.67 70.9776 322.881L71.0753 286.503C71.1274 284.188 71.5442 281.919 71.6054 279.625L71.6768 253.378C71.7148 251.701 71.9819 250.048 72.0473 248.375L72.7061 224.875C72.7906 223.787 73.0258 222.717 73.0716 221.625L75.0331 187.625C78.446 148.755 89.5331 142.063 129.245 137.935L174.312 134.517L197.38 134.147C196.46 133.432 196.2 132.777 195.515 131.881L185.635 119.984C172.478 106.796 149.705 92.5464 131.292 92.5112C129.225 92.9056 127.289 93.6646 125.246 94.1443L76.25 107.729C74.753 108.159 73.2045 108.251 71.7512 108.831L71.2512 109.501L72.5 110.873L73.1562 110.674C73.4407 110.844 73.7299 110.908 74 111.061L75.0012 111.438C75.2618 112.023 75.3202 112.04 75.875 112.373L76.9631 112.542C77.3428 112.478 77.6752 112.446 78.0617 112.473L50.1087 118.532C48.1003 118.979 45.4217 119.834 43.3899 119.623C39.5244 119.223 41.9508 115.786 44.1715 114.375C50.7778 110.177 65.2499 103.927 72.3945 101.143L83.0603 97.5429C90.3407 95.1127 97.7939 92.6995 105.256 90.9032L119.25 88.0096C123.121 87.1747 124.345 85.8568 123.511 82.6534C123.156 81.2888 122.968 80.106 123.025 78.6912L123.043 78.2951ZM88.9203 349.166C89.7116 348.892 90.1936 348.551 91.0201 348.909L92.0467 349.611L91.3734 353.292C93.9449 360.382 109.719 362.997 115.975 363.915L154.104 367.151L198.464 368.71C200.141 368.792 201.829 369.05 203.5 369.093L257.148 369.097L295.798 367.986C298.64 367.878 301.451 367.416 304.291 367.354L357.669 365.105L376.16 363.481C385.908 362.364 397.658 360.911 403.047 351.451C407.787 344.57 407.904 336.649 408.481 328.606L409.708 297.268C409.76 294.665 410.219 292.113 410.259 289.517L410.287 221.025L408.94 187.111C409.022 186.826 409.008 186.955 408.99 186.618C407 149.174 378.987 153.407 349.985 151.607L286.315 148.837C284.592 148.703 282.869 148.395 281.14 148.443L259.823 147.743L186.09 147.782L131.022 150.932L117.75 152.475C96.8819 155.45 89.8674 163.67 88.1791 185.3L86.3069 232.63C86.2595 234.625 85.8983 236.583 85.8563 238.586L85.7765 256C85.7062 258.339 85.3344 260.645 85.295 262.999L85.1982 341.263C85.2247 344.805 87.1984 346.257 88.9203 349.166ZM88.9203 349.166L91.3734 353.292L92.0467 349.611L91.0201 348.909C90.1936 348.551 89.7116 348.892 88.9203 349.166Z"/>
	<defs>
		<linearGradient id="gradient_5" gradientUnits="userSpaceOnUse" x1="264.35101" y1="377.642" x2="233.96201" y2="145.549">
			<stop offset="0" stop-color="#8578FF"/>
			<stop offset="1" stop-color="#BFC5FF"/>
		</linearGradient>
	</defs>
	<path fill="url(#gradient_5)" d="M88.9203 349.166C87.1984 346.257 85.2247 344.805 85.1982 341.263L85.295 262.999C85.3344 260.645 85.7062 258.339 85.7765 256L85.8563 238.586C85.8983 236.583 86.2595 234.625 86.3069 232.63L88.1791 185.3C89.8674 163.67 96.8819 155.45 117.75 152.475L131.022 150.932L186.09 147.782L259.823 147.743L281.14 148.443C282.869 148.395 284.592 148.703 286.315 148.837L349.985 151.607C378.987 153.407 407 149.174 408.99 186.618C409.008 186.955 409.022 186.826 408.94 187.111L410.287 221.025L410.259 289.517C410.219 292.113 409.76 294.665 409.708 297.268L408.481 328.606C407.904 336.649 407.787 344.57 403.047 351.451C397.658 360.911 385.908 362.364 376.16 363.481L357.669 365.105L304.291 367.354C301.451 367.416 298.64 367.878 295.798 367.986L257.148 369.097L203.5 369.093C201.829 369.05 200.141 368.792 198.464 368.71L154.104 367.151L115.975 363.915C109.719 362.997 93.9449 360.382 91.3734 353.292L92.0467 349.611L91.0201 348.909C90.1936 348.551 89.7116 348.892 88.9203 349.166ZM170.729 218.805C166.855 219.59 165.346 221.26 163.229 224.449C155.075 236.732 148.551 250.012 141.563 262.97L130.231 284.367C128.566 287.786 126.771 291.283 125.612 294.912C121.769 306.938 137.568 317.286 147.597 299.99L148.915 297.164C149.466 295.871 163.173 296.271 164.688 297.382L183.832 297.643C185.981 300.558 186.379 312.322 195.008 313.659C199.793 314.4 205.966 310.81 206.433 305.657C206.804 301.579 205.58 296.962 204.76 292.958C202.421 281.522 186.685 219.201 171.375 218.776L170.729 218.805ZM88.9203 349.166C89.7116 348.892 90.1936 348.551 91.0201 348.909L92.0467 349.611C93.2141 343.637 93.2538 338.18 93.2692 332.113L93.6371 308.46C93.7718 306.97 94.069 305.499 94.0882 304L94.1732 261.569L98.1875 193.181C98.7429 185.374 98.7659 175.388 103.027 168.496L103.262 168.125C109.222 158.46 136.248 158.4 146.579 157.643L183.388 155.152L229.816 154.725C237.025 154.735 243.514 156.251 249.153 161.274C252.201 167.936 260.118 167.3 266.33 167.292C269.412 167.288 272.604 167.569 275.456 166.186L276.144 165.827C276.441 165.671 276.308 165.702 276.593 165.7C282.457 165.277 282.169 157.24 281.644 153.084C281.443 151.489 278.737 149.999 277.529 148.799C278.674 148.791 279.783 148.794 280.914 148.576L281.14 148.443L259.823 147.743L186.09 147.782L131.022 150.932L117.75 152.475C96.8819 155.45 89.8674 163.67 88.1791 185.3L86.3069 232.63C86.2595 234.625 85.8983 236.583 85.8563 238.586L85.7765 256C85.7062 258.339 85.3344 260.645 85.295 262.999L85.1982 341.263C85.2247 344.805 87.1984 346.257 88.9203 349.166Z"/>
	<path fill="#F8F7FF" d="M403.047 351.451L404.154 336.604L405.35 298.518C405.403 296.24 406.102 294.082 406.158 291.834L406.189 215.134L405.18 191C405.172 190.434 404.955 188.603 405.232 188.204C405.242 191.364 405.111 204.876 406.461 207.028L407.402 207.079C407.826 206.857 408.245 206.736 408.704 206.604L409.034 206.842C409.938 204.313 409.271 195.66 409.009 192.999L409 191.375C408.821 189.836 408.63 188.709 408.94 187.111L410.287 221.025L410.259 289.517C410.219 292.113 409.76 294.665 409.708 297.268L408.481 328.606C407.904 336.649 407.787 344.57 403.047 351.451Z"/>
	<path fill="#F8F7FF" d="M317.006 217.031C330.746 216.426 329.359 232.165 328.593 241.636L325.817 283.369C325.059 291.89 324.941 305.065 316.488 309.892L316.018 310.036C307.428 312.718 304.054 304.295 304.704 297.115L308.626 251.897C308.914 243.423 308.641 234.961 309.376 226.504C309.8 221.617 312.093 218.338 317.006 217.031Z"/>
	<path fill="#9381FF" d="M254.846 154.445C259.399 154.469 269.118 154.023 273.153 155.531C278.175 157.408 279.359 161.559 276.593 165.7C276.308 165.702 276.441 165.671 276.144 165.827L275.456 166.186C272.604 167.569 269.412 167.288 266.33 167.292C260.118 167.3 252.201 167.936 249.153 161.274L249.766 159.625C250.885 157.23 252.309 155.381 254.846 154.445Z"/>
	<path fill="#9381FF" d="M171.117 258.375L171.337 258.435C172.094 259.857 172.454 261.686 173.009 263.224L176.541 272.651C177.001 273.966 177.07 275.314 177.723 276.573L165.642 276.531L158.64 276.261C158.658 275.643 160.262 273.799 160.667 273.264L167.74 263.875C168.965 262.108 170.047 260.238 171.117 258.375Z"/>
	<path fill="#F8F7FF" d="M242.296 218.096L257.414 218.192C287.573 219.29 308.198 248.189 283.064 270.459C271.508 280.698 255.264 283.115 240.375 282.237L239.582 282.268C238.994 283 239.284 283.738 239.273 284.638L239.125 292.024C238.95 295.428 238.777 299.435 237.868 302.707L237.746 303.125C234.582 314.181 221.575 314.363 219.585 302.645C218.172 294.326 218.634 285.523 218.326 277.115L217.204 247.088C217.207 227.678 220.947 218.87 242.296 218.096Z"/>
	<path fill="#9381FF" d="M239.513 237.236C246.622 237.093 275.682 237.398 270.916 251.167L270.794 251.5C269.944 253.858 268.389 255.384 266.446 256.865C258.914 262.285 248.429 261.532 239.639 261.503L239.513 237.236Z"/>
</svg>
