<?xml version="1.0" encoding="utf-8" ?>
<svg xmlns="http://www.w3.org/2000/svg" xmlns:xlink="http://www.w3.org/1999/xlink" width="512" height="512">
	<path fill="#242432" d="M314.725 502.516C308.731 504.137 302.945 504.377 296.804 504.771L258.263 505.661C254.018 505.681 249.922 506.288 245.688 506.42L208.75 508.754L184.289 509.413C181.889 509.485 179.502 509.865 177.11 509.901L124.915 509.935C88.1581 509.765 80.6447 473.779 78.4152 443.99C77.9995 438.435 77.4203 433.067 77.5253 427.478C34.727 423.619 26.1408 400.509 24.5236 359.675L24.695 298C25.6768 279.719 28.5013 261.305 33.2512 243.617C40.541 216.471 51.1725 198.045 81.5921 193.902L76.8673 157.73C74.0309 133.709 78.7458 108.297 81.1947 84.441C85.5996 41.5307 82.9473 12.1966 135.286 3.30478L140.799 2.25692C144.053 1.80513 147.556 2.00502 150.839 2.00269L302.097 1.99226C335.028 1.99369 375.809 -1.21446 404.445 17.8795C411.664 22.693 417.723 28.8311 423.845 34.9172L470.918 82.5213C475.168 86.8951 479.571 91.195 483.484 95.875C486.337 99.2869 486.062 100.98 485.817 105.296L477.753 177.75L473.971 226.219L469.314 334.794C469.209 337.093 468.833 339.339 468.803 341.653L468.853 374.143C468.908 375.613 469.243 377.039 469.304 378.5L469.504 388.87C471.434 421.784 482.362 484.662 443.954 500.625C436.455 503.742 428.379 504.943 420.402 506.085L415.25 506.741C413.338 506.946 412.619 507.237 411.042 508.165C411.109 507.585 411.69 507.29 411.875 506.685C408.531 505.17 404.366 505.65 400.74 505.633L388.75 505.573C384.53 505.526 380.5 504.646 376.274 504.625L351.388 504.578C344.288 504.576 333.395 505.974 327.248 501.486L327.016 501.312C324.016 503.131 318.286 503.303 314.887 502.549L314.725 502.516ZM402.699 354.121C405.751 353.031 408.546 350.965 411.162 349.09L427.428 336.17C430.441 333.852 433.614 332.128 436.781 330.03C437.769 324.991 437.43 319.723 437.651 314.625C437.735 312.701 438.342 310.892 438.503 308.988C438.963 303.573 438.883 298.19 439.46 292.738C446.396 291.093 453.545 281.425 459.655 280.569L460.705 260.735L461.69 242.497L462.114 238.115C462.321 237.078 462.256 235.821 462.377 234.747L463.391 223.814L463.602 222.031C463.72 221.099 463.535 220.25 463.375 219.331C462.947 218.186 462.941 216.758 462.832 215.548L464.786 194.111C465.27 191.578 465.238 188.839 465.316 186.261C465.676 185.82 465.696 183.27 465.745 182.61L466.514 170.453L467.093 164.061C467.413 163.487 467.4 162.296 467.482 161.632L468.417 152.758L469.293 142.67L469.314 142.65C469.649 140.908 469.844 139.213 469.846 137.439C470.474 134.814 473.935 107.715 473.397 106.66C465.877 106.263 457.907 106.236 450.396 106.787L434.544 108.286C386.182 111.612 374.785 90.0301 386.868 45.1049L391.395 28.7612C391.741 27.3272 392.392 25.4451 392.302 23.9827C380.645 16.5851 359.503 12.7688 346.211 11.1883L324.5 9.56505C322.736 9.45265 321.01 9.18105 319.236 9.1271L174.062 9.13601L157.577 10.7117C130.465 13.0867 103.289 15.8537 97.099 46.6777C94.7515 58.3672 94.4685 70.577 93.2144 82.4219C90.0751 112.073 85.9954 134.518 89.3024 164.508L93.1432 194.571L96.2369 240.548L316.41 240.449C321.23 240.227 328.712 239.651 333.365 239.101C331.678 237.824 326.183 239.539 323.578 237.999L357.454 240.216C366.278 240.932 374.811 240.157 383.375 243.089C401.983 249.46 406.092 265.481 406.149 282.699L402.699 354.121ZM38.041 284.957L37.6226 288.919L35.4924 328.891L35.4848 333.826L35.4192 348.735L35.503 352.534L36.7691 371.185C36.8658 371.975 37.5927 378.493 37.8483 378.705C38.9187 385.232 41.4669 398.316 46.3716 403.254C49.0911 408.412 57.2742 412.508 62.5844 414.178L72.4775 416.428L79.5762 417.088C83.8359 417.574 87.9875 417.314 92.25 417.23L116.656 415.983L134.055 415.443C137.33 415.461 140.957 415.744 144.174 415.19C145.8 415.226 148.226 415.333 149.744 414.848L247.121 414.538L248.764 414.74L267.392 414.845L273.89 414.825L293.265 414.848L301.03 414.846L329.25 415.422L353.987 415.434C363.248 415.448 372.159 416.253 379.625 409.71C387.678 402.651 389.177 391.394 389.855 381.344L390.784 363.171L391.561 348.917L391.528 348.491C392.697 343.84 392.793 329.624 392.98 324.553L393.185 323.276C393.832 318.792 393.679 313.973 393.744 309.442L394.636 292.105L394.582 279.528L394.252 274.701C393.506 268.176 390.551 260.798 385.334 256.585L385.303 256.509C380.568 250.935 370.887 252.795 364.319 251.788L364.113 251.74C360.084 251.162 356.021 251.259 351.961 251.249L286.372 251.332C282.811 251.397 274.372 253.19 271.401 252.235C270.125 251.825 268.362 251.903 267 251.847L86.6632 250.842C73.1016 250.209 57.8453 247.059 47.642 237.32C45.8657 243.737 43.6999 249.986 42.2516 256.5C40.1584 265.914 39.2341 275.412 38.041 284.957ZM459.587 280.569C453.545 281.425 446.396 291.093 439.46 292.738C438.883 298.19 438.963 303.573 438.503 308.988C438.342 310.892 437.735 312.701 437.651 314.625C437.43 319.723 437.769 324.991 436.742 330.03C433.614 332.128 430.441 333.852 427.428 336.17L411.162 349.09C408.546 350.965 405.751 353.031 402.533 354.121L402.24 360.845L401.66 376.064L401.252 381.926C401.146 385.557 400.993 389.703 400.211 393.247L399.629 396.408C396.773 407.693 392.676 414.39 382.271 420.591C373.122 426.043 368.396 425.773 358.076 425.789L124.501 425.866C122.236 425.885 120.014 426.403 117.74 426.482L108.016 426.599C106.18 426.653 104.381 427.026 102.546 427.093L88.8263 427.211C88.7287 428.583 89.0183 436.131 89.6346 437.472L90.2889 445.876L90.8805 452.489L92.5942 463.792L93.3375 467.62L95.1383 474.538L96.0514 477.221C96.9214 479.683 97.9985 482.725 99.5223 484.853C100.738 486.716 102.135 488.483 103.685 490.081C106.218 492.71 108.827 494.696 112.074 496.368C114.382 497.685 116.627 498.589 119.213 499.226C127.705 500.984 135.839 500.752 144.458 500.736L156.105 500.544L157.773 500.736C158.525 500.516 159.537 500.63 160.337 500.621L165.948 500.448C167.298 500.361 168.562 500.045 169.887 499.879L177.968 499.178L191.198 499.015L218.322 497.043L279.743 495.298L288.709 495.288L303.461 495.257C309.093 495.265 315.365 494.933 320.603 497.41L320.996 497.593C319.226 499.872 317.15 501.05 314.725 502.516L314.887 502.549C318.286 503.303 324.016 503.131 327.016 501.312C326.538 500.725 326.42 500.201 326.248 499.485C327.837 494.37 332.722 493.451 337.226 493.465L350.467 493.976L365.048 494.06C366.657 494.07 368.991 494.377 370.505 494.069L381.886 494.208C387.074 489.59 393.243 482.956 398.481 479.044C401.953 478.509 408.151 470.121 410.693 471.26C412.379 472.014 414.664 469.993 415.581 468.658C426.74 461.925 439.863 458.006 441.333 443.395C442.098 441.266 440.989 437.608 440.787 435.363L441.179 434.654L459.375 424.905L459.482 422.889L459.398 418.744L458.885 410.075C459.098 407.616 458.822 404.973 458.726 402.498L457.082 353.812L457.075 340.274C457.544 334.496 457.496 327.697 457.818 321.551L458.801 294.5C459.03 289.956 459.826 285.097 459.587 280.569Z"/>
	<path fill="#635BBA" d="M470.089 218.375C470.314 218.421 470.612 218.581 470.827 218.672L471.049 219.25C470.844 220.196 470.582 220.617 469.875 221.274L469.125 221.143C469.153 220.07 469.342 219.164 470.089 218.375Z"/>
	<path fill="#9381FF" d="M398.022 46.5877C398.817 40.9211 401.207 35.5077 401.803 29.8324L401.835 29.5076C404.327 31.3721 406.53 33.333 408.575 35.6835C404.219 37.5592 402.217 44.416 398.022 46.5877Z"/>
	<path fill="#B8B8FF" d="M398.022 46.5877C402.217 44.416 404.219 37.5592 408.575 35.6835L413.498 40.6442C411.662 42.3612 398.399 52.5393 396.398 52.8015L398.022 46.5877Z"/>
	<path fill="#31335B" d="M81.1904 203.82C81.9581 203.777 82.2409 203.677 82.92 204.068C84.4369 212.61 85.9492 234.056 84.962 242.288C78.6006 242.264 68.7972 237.539 63.6751 233.464C58.9815 230.096 53.7375 226.73 50.9633 221.461C53.9336 211.509 72.2062 205.605 81.1904 203.82Z"/>
	<path fill="#9381FF" d="M413.498 40.6442L419.103 46.4763L425.738 52.9204L430.827 57.9877C428.339 59.7779 426.121 63.3281 423.698 65.5527L406.49 80.1579C403.787 82.2705 398.545 84.2689 397.566 87.8299C395.994 84.9011 394.989 82.2831 394.52 78.9761C393.999 74.689 394.37 70.3136 394.649 66.0242C394.862 61.5541 395.314 57.1601 396.398 52.8015C398.399 52.5393 411.662 42.3612 413.498 40.6442Z"/>
	<path fill="#9381FF" d="M397.566 87.8299C398.545 84.2689 403.787 82.2705 406.49 80.1579L423.698 65.5527C426.121 63.3281 428.339 59.7779 430.827 57.9877L434.304 61.4598L466.842 94.8145C467.748 95.6915 468.37 96.3385 469.502 97.0482L431.708 98.08C420.421 98.1343 406.894 99.2433 398.879 89.5544L398.068 88.477L397.566 87.8299Z"/>
	<path fill="#B8B8FF" d="M397.566 87.8299C398.545 84.2689 403.787 82.2705 406.49 80.1579L423.698 65.5527C426.121 63.3281 428.339 59.7779 430.827 57.9877L434.304 61.4598C433.303 64.049 429.893 65.0484 427.758 66.5369C421.158 71.1399 414.497 75.8311 408.377 81.0661C406.52 82.655 401.699 90.717 398.989 89.125L398.068 88.477L397.566 87.8299Z"/>
	<path fill="#9381FF" d="M459.538 422.889C460.241 436.998 461.015 461.851 455.181 474.989C449.295 488.247 433.655 495.349 419.826 495.816L406.396 495.87C402.274 495.868 397.935 496.111 393.88 495.335L381.886 494.208C387.074 489.59 393.243 482.956 398.481 479.044C401.953 478.509 408.151 470.121 410.693 471.26C412.379 472.014 414.664 469.993 415.581 468.658C426.74 461.925 439.863 458.006 441.304 443.395C442.098 441.266 440.989 437.608 440.904 435.363L441.179 434.654L459.375 424.905L459.538 422.889Z"/>
	<path fill="#B8B8FF" d="M459.587 280.569C459.826 285.097 459.03 289.956 458.801 294.5L457.818 321.551C457.496 327.697 457.544 334.496 457.075 340.274L457.082 353.812L458.726 402.498C458.822 404.973 459.098 407.616 458.885 410.075L459.398 418.744L459.482 422.889L459.375 424.905L441.179 434.654L440.787 435.363C440.989 437.608 442.098 441.266 441.333 443.395C439.863 458.006 426.74 461.925 415.581 468.658C414.664 469.993 412.379 472.014 410.693 471.26C408.151 470.121 401.953 478.509 398.481 479.044C393.243 482.956 387.074 489.59 381.886 494.208L370.505 494.069C368.991 494.377 366.657 494.07 365.048 494.06L350.467 493.976L337.226 493.465C332.722 493.451 327.837 494.37 326.248 499.485C326.42 500.201 326.538 500.725 327.016 501.312C324.016 503.131 318.286 503.303 314.887 502.549L314.725 502.516C317.15 501.05 319.226 499.872 320.996 497.593L320.603 497.41C315.365 494.933 309.093 495.265 303.461 495.257L288.709 495.288L279.743 495.298L218.322 497.043L191.198 499.015L177.968 499.178L169.887 499.879C168.562 500.045 167.298 500.361 165.948 500.448L160.337 500.621C159.537 500.63 158.525 500.516 157.773 500.736L156.105 500.544L144.458 500.736C135.839 500.752 127.705 500.984 119.213 499.226C116.627 498.589 114.382 497.685 112.074 496.368C108.827 494.696 106.218 492.71 103.685 490.081C102.135 488.483 100.738 486.716 99.5223 484.853C97.9985 482.725 96.9214 479.683 96.0514 477.221L95.1383 474.538L93.3375 467.62L92.5942 463.792L90.8805 452.489L90.2889 445.876L89.6346 437.472C89.0183 436.131 88.7287 428.583 88.8263 427.211L102.546 427.093C104.381 427.026 106.18 426.653 108.016 426.599L117.74 426.482C120.014 426.403 122.236 425.885 124.501 425.866L358.076 425.789C368.396 425.773 373.122 426.043 382.271 420.591C392.676 414.39 396.773 407.693 399.629 396.408L400.211 393.247C400.993 389.703 401.146 385.557 401.252 381.926L401.66 376.064L402.24 360.845L402.533 354.121C405.751 353.031 408.546 350.965 411.162 349.09L427.428 336.17C430.441 333.852 433.614 332.128 436.742 330.03C437.769 324.991 437.43 319.723 437.651 314.625C437.735 312.701 438.342 310.892 438.503 308.988C438.963 303.573 438.883 298.19 439.46 292.738C446.396 291.093 453.545 281.425 459.587 280.569ZM157.88 497.279C156.14 497.981 154.516 498.462 153.203 499.875L156.105 500.544L157.773 500.736C158.525 500.516 159.537 500.63 160.337 500.621L165.948 500.448C167.298 500.361 168.562 500.045 169.887 499.879L177.968 499.233C178.481 499.055 178.995 498.972 179.528 498.875L179.713 498.5C180.109 496.576 184.099 494.713 185.648 493.621L212.18 473.427C213.458 472.364 233.483 454.462 221.36 459.078L221 459.218C218.108 460.319 215.41 461.901 212.75 463.468L164.167 494.022C162.225 495.152 160.346 496.365 158.232 497.15L157.88 497.279ZM191.198 499.015L218.322 497.023L218.242 496.715C216.38 489.236 228.459 481.776 233.438 478.446L242.161 472.181C245.06 469.988 247.778 467.864 249.754 464.75L250.018 464.344C250.761 463.183 251.24 461.975 251.801 460.728C245.742 462.05 224.822 473.851 219.039 477.929C211.546 483.214 200.568 494.95 191.646 495.875L192.876 496.062L192.127 497.125L192.625 497.877C192.03 498.469 191.323 498.283 190.503 498.312L190.785 498.401C191.12 498.51 191.003 498.439 191.198 499.015ZM190.534 459.772C180.994 462.704 149.571 484.466 142.034 494.25L142.188 494.438C143.327 494.438 143.88 495.071 144.875 495.458L147.864 497.005C149.974 497.994 151.691 496.041 153.392 494.926L179.835 475.851C185.356 471.679 191.975 467.421 195.472 461.261C193.911 460.538 192.298 459.612 190.534 459.772ZM401.252 381.926C401.146 385.557 400.993 389.703 400.211 393.247L399.629 396.408C400.445 396.388 401.227 396.008 401.984 395.725C406.984 394.586 411.526 390.698 415.626 387.819L431.533 375.978C433.324 374.573 435.405 373.35 436.958 371.689L437.007 369.645L437.069 364.178L436.21 353.815L436 354.156C434.754 356.285 434.899 358.743 433.244 360.796C431.484 362.98 428.572 364.655 426.319 366.359C420.178 371.004 409.149 380.98 401.252 381.926ZM402.24 360.845L401.649 376.064L401.875 376.802C412.313 373.066 424.807 358.386 436.425 353.036C436.292 352.667 436.325 352.873 436.383 352.386L436.531 349.224L436.472 341.162C434.086 341.973 431.644 343.584 429.491 344.891L414.958 354.29C410.182 357.383 407.588 358.866 402.24 360.845Z"/>
	<path fill="#F8F7FF" d="M119.213 499.226C121.642 496.723 125.336 497.24 128.33 495.947C130.428 495.04 133.832 491.078 136.123 493.5C136.124 494.211 135.974 494.9 136.373 495.5L136.342 495.828C136.265 496.77 136.45 499.791 135.875 500.377C137.699 500.528 143.55 501.05 144.75 500.25L145.727 500.312L144.458 500.751C135.839 500.752 127.705 500.984 119.213 499.226Z"/>
	<path fill="#F8F7FF" d="M432.02 387.538C433.236 386.549 434.931 385.923 435.989 384.807C437.565 383.143 436.012 380.614 437.122 379.125L437.472 380.64C437.446 382.07 437.349 383.515 437.601 384.927L437.815 387.672L436.73 388.008L436.095 387.653C434.59 388.781 433.064 389.532 431.375 390.35L416.25 399.998C410.955 402.279 407.277 407.427 401.554 409.291L416.994 397.339C417.341 396.564 429.985 388.803 432.02 387.538Z"/>
	<path fill="#F8F7FF" d="M89.6346 437.472L109.69 431.617C111.78 431.031 113.815 431.187 115.948 431.399L99.5 439.223C92.6889 442.641 94.9421 440.811 90.2889 445.876L89.6346 437.472Z"/>
	<path fill="#F8F7FF" d="M90.8805 452.489C92.1612 452.464 93.2693 452.449 94.5 452.054L94.891 451.936C100.614 450.145 112.937 444.342 118.238 441.69L124.75 438.058C126.348 437.201 129.784 435.803 126.509 438.011L101.59 455.187C97.7255 457.796 95.1947 459.845 92.5942 463.792L90.8805 452.489Z"/>
	<path fill="#F8F7FF" d="M384.21 457.234C387.676 457.514 390.666 459.72 393.268 461.839C391.075 467.124 387.29 470.163 382.098 472.625C378.442 473.465 374.183 468.32 372.877 465.503C374.904 461.734 380.393 458.782 384.21 457.234Z"/>
	<path fill="#F8F7FF" d="M415.581 468.658C412.91 463.693 422.49 457.048 425.708 454.283L441.049 441.076L441.304 443.395C439.863 458.006 426.74 461.925 415.581 468.658Z"/>
	<path fill="#F8F7FF" d="M93.3375 467.62L93.812 467.522C94.8281 467.285 95.7658 466.601 96.6675 466.088L115.25 455.475C122.619 451.729 130.074 448.808 137.887 446.123C135.902 447.992 133.854 449.897 131.625 451.477L99.2815 471.375C97.805 472.322 96.5786 473.567 95.1383 474.538L93.3375 467.62Z"/>
	<path fill="#F8F7FF" d="M96.0514 477.221C96.6423 477.026 97.0293 477.023 97.653 477.056C101.362 477.252 105.262 474.573 108.356 472.872L128.219 460.929C133.874 457.639 140.647 454.611 146.949 452.661C141.558 459.572 115.959 476.706 106.375 481.925C104.197 483.112 101.786 483.84 99.5223 484.853C97.9985 482.725 96.9214 479.683 96.0514 477.221Z"/>
	<path fill="#F8F7FF" d="M437.544 421.089C438.377 420.07 439.013 418.7 439.864 417.613L440.482 417.742L440.732 421.794L440.742 427.074L441.255 430.727C441.59 432.028 441.374 433.341 441.179 434.654L440.787 435.363C440.157 435.508 438.677 436.952 438.07 437.392L422.782 448.723C420.67 450.305 410.646 458.161 408.196 458.365C407.415 458.43 400.496 455.347 399.103 454.949C401.825 452.763 404.716 451.054 407.607 449.121L424.078 438.143C428.847 434.96 433.432 431.856 437.399 427.679C436.405 425.433 436.804 423.328 437.544 421.089Z"/>
	<path fill="#F8F7FF" d="M103.685 490.081C106.65 488.843 109.185 487.248 112 485.758L149.844 463.271C153.612 461.124 156.789 458.8 161.25 460.193L163.926 461.147C154.017 472.95 138.252 481.485 124.89 488.969C120.663 491.336 116.212 493.282 112.334 496.195L112.074 496.368C108.827 494.696 106.218 492.71 103.685 490.081Z"/>
	<defs>
		<linearGradient id="gradient_0" gradientUnits="userSpaceOnUse" x1="325.08899" y1="436.082" x2="328.966" y2="491.62299">
			<stop offset="0" stop-color="#AFB7FF"/>
			<stop offset="1" stop-color="#DFDCFF"/>
		</linearGradient>
	</defs>
	<path fill="url(#gradient_0)" d="M279.743 495.298C283.682 490.624 288.557 487.891 293.403 484.402L314 469.623C314.54 469.238 315.101 468.979 315.649 468.614L322.249 463.749C323.916 462.799 325.708 461.749 327.25 460.623L327.749 460.249C329.638 459.159 331.424 457.781 333.374 456.804L343.25 451.35C343.548 451.156 343.778 450.975 344.101 450.81L345.999 449.749C346.556 449.447 347.074 449.083 347.633 448.802L348.368 448.372C348.655 448.198 348.934 448.075 349.219 447.883L355.125 443.75C356.245 443.03 357.538 441.517 358.875 441.25L359 440.875C359.567 440.746 360.003 440.558 360.5 440.25L360.875 440C363.622 438.235 366.657 434.496 369.312 433.062L372.5 435.25C373.217 435.722 373.578 435.763 373.75 436.625L372.938 437.438C371.437 440.011 368.517 442.887 365.951 444.433L361.516 447.533C360.72 448.052 359.93 448.601 359.141 449.132L356.5 450.883C355.846 451.346 355.084 451.839 354.368 452.197L340.644 460.625C340.262 460.862 339.962 461.033 339.609 461.325L329.101 468.643C328.351 469.144 327.67 469.796 326.868 470.197L326.5 470.377C324.936 471.281 323.365 470.627 321.75 470.627L321.5 470.875C320.982 470.867 320.503 470.852 320.001 471.001L319.625 471.127C319.282 471.221 318.963 471.261 318.619 471.376L318.251 471.501C317.915 471.599 317.72 471.635 317.391 471.799L317.001 472.001C309.792 475.602 297.564 486.224 291.981 492.17C291.035 493.177 290.024 494.533 288.709 494.988L279.743 495.298Z"/>
	<defs>
		<linearGradient id="gradient_1" gradientUnits="userSpaceOnUse" x1="203.411" y1="430.379" x2="224.24001" y2="236.661">
			<stop offset="0" stop-color="#8377FF"/>
			<stop offset="1" stop-color="#B9BBFE"/>
		</linearGradient>
	</defs>
	<path fill="url(#gradient_1)" d="M38.041 284.957C39.2341 275.412 40.1584 265.914 42.2516 256.5C43.6999 249.986 45.8657 243.737 47.642 237.32C57.8453 247.059 73.1016 250.209 86.6632 250.842L267 251.847C268.362 251.903 270.125 251.825 271.401 252.235C274.372 253.19 282.811 251.397 286.372 251.332L351.961 251.249C356.021 251.259 360.084 251.162 364.113 251.74L364.319 251.788C370.887 252.795 380.568 250.935 385.303 256.509L385.334 256.585C390.551 260.798 393.506 268.176 394.252 274.701L394.582 279.528L394.636 292.105L393.744 309.442C393.679 313.973 393.832 318.792 393.185 323.276L392.98 324.553C392.793 329.624 392.697 343.84 391.528 348.491L391.561 348.917L390.784 363.171L389.855 381.344C389.177 391.394 387.678 402.651 379.625 409.71C372.159 416.253 363.248 415.448 353.987 415.434L329.25 415.422L301.03 414.846L293.265 414.848L273.89 414.825L267.392 414.845L248.764 414.74L247.121 414.538L149.744 414.848C148.226 415.333 145.8 415.226 144.174 415.19C140.957 415.744 137.33 415.461 134.055 415.443L116.656 415.983L92.25 417.23C87.9875 417.314 83.8359 417.574 79.5762 417.088L72.4775 416.428L62.5844 414.178C57.2742 412.508 49.0911 408.412 46.3716 403.254C41.4669 398.316 38.9187 385.232 37.8483 378.705C37.5927 378.493 36.8658 371.975 36.7691 371.185L35.503 352.534L35.4192 348.735L35.4848 333.826L35.4924 328.891L37.6226 288.919L38.041 284.957ZM198.532 289.36C183.237 290.267 162.949 299.978 170.435 318.279L170.595 318.679C174.364 327.904 184.851 334.229 193.69 337.894L204.108 341.718C210.598 343.921 220.314 345.837 222.066 353.625L222.137 353.929C225.02 367.532 189.169 377.946 180.387 359.719L177.767 352.538C173.905 353.882 170.247 355.342 166.835 357.63C172.075 367.041 177.852 374.352 188.863 377.398L190.058 377.684C204.628 381.561 227.447 374.84 231.614 358.432C239.24 328.405 174.332 335.321 180.34 309.626C183.772 294.947 209.863 293.767 218.002 305.639C220.957 309.949 226.778 307.429 228.629 303.545C221.188 292.881 211.991 288.377 198.532 289.36ZM118.621 287.605C107.979 288.073 97.0786 292.397 89.8141 300.375L88.3046 302.269C75.4148 319.593 71.2038 356.087 90.0584 369.843C98.8447 376.253 113.496 379.824 124 375.812C132.633 372.514 141.51 366.782 146.749 359.043C144.527 356.444 137.895 349.865 134.052 352.875C133.23 356.165 133.221 359.825 131.268 362.679C129.554 364.432 127.965 365.691 125.75 366.759L125.38 366.941C118.954 370.03 111.149 369.789 104.55 367.406C75.292 356.841 84.1954 302.846 113.622 297.343C126.568 294.922 135.851 299.645 140.714 311.595C143.198 310.828 145.29 310 147.041 307.959C145.544 293.084 132.017 287.957 118.621 287.605ZM307.306 292.625L306.918 292.83C304.913 293.965 302.966 299.069 301.929 301.181L279.218 355.013C278.277 357.328 276.383 363.985 273.625 364.729C272.364 363.711 268.711 351.902 267.744 349.295C265.839 344.157 263.503 339.173 261.235 334.188L245.498 300.142C244.952 298.842 243.883 295.401 242.813 294.524C242.148 293.979 230.08 293.568 233.625 301.143L238.247 309.141C242.06 315.64 245.19 322.636 248.254 329.511L264.186 366.51C274.922 390.344 282.923 369.892 288.476 357.54L310.028 306.769C311.707 302.836 313.755 299.082 315.279 295.084C313.207 293.369 310.051 291.797 307.306 292.625ZM326.531 395.299C328.294 395.241 329.983 394.706 331.739 394.823L332.266 395.766C337.757 391.11 343.649 390.602 348.538 383.272L348.103 383.016C340.267 378.326 339.385 378.569 329.59 378.483C322.75 378.424 315.86 378.665 314.334 386.457L315.55 389.796C316.717 392.479 320.567 394.812 323.5 395.036L326.531 395.299ZM256.264 393.08C255.381 393.249 254.25 393.983 253.421 394.375L246.119 397.755C240.98 399.862 240.053 398.481 236.6 394.981C233.505 391.844 228.279 387.478 223.512 389.657C220.679 390.952 218.115 390.558 215.165 391.057C209.053 392.438 204.927 395.127 199.963 398.918L189.034 407.481C185.456 410.335 185.574 410.718 189.978 411.286C193.068 409.23 195.841 406.702 198.875 404.562L214.332 394.594C216.105 393.536 217.904 392.181 219.886 391.573C223.22 391.368 232.571 399.04 234.159 401.697C229.57 406.999 228.363 406.164 223.375 408.752L224.121 409.211C224.752 409.335 225.03 409.574 225.5 409.993C235.125 404.674 244.882 402.223 254.934 396.088C259.454 394.321 263.851 391.486 268.125 389.182L268 388.794C265.162 388.422 258.738 391.853 256.264 393.08ZM90.6463 273.125C84.1774 273.682 81.6532 276.163 76.25 279.19C69.8587 282.769 62.0772 284.886 57.0341 290.391L60.5614 290.192C69.7083 288.201 78.9585 281.309 87.9112 287.103L88.0864 287.219C89.1982 286.148 90.2119 285.223 91.5474 284.428L91.7156 273.375L90.6463 273.125ZM249.716 408.852C250.891 410.321 253.425 410.765 255.241 411.181C257.647 409.389 260.489 408.18 263.122 406.759L275.67 399.775C280.787 396.662 285.743 393.866 290.32 389.962C288.336 389.924 286.277 389.77 284.32 390.125L283.934 390.193C275.057 391.818 259.302 404.455 249.716 408.852ZM326.531 395.299L325.467 396.082C324.417 396.656 323.609 397.284 322.715 398.075L302.573 408.829L293.273 414C293.28 414.3 293.341 414.728 293.265 414.848L301.03 414.843C302.873 413.675 304.911 412.967 306.778 411.683L328.695 398.882C329.851 398.095 331.56 396.979 332.266 395.766L331.739 394.823C329.983 394.706 328.294 395.241 326.531 395.299ZM301.906 396.091C298.894 397.336 286.615 403.556 283.741 405.705C284.186 406.645 284.906 407.421 285.25 408.375L286.917 408.506C286.397 408.835 286.032 409.058 285.713 409.606C288.339 408.486 290.717 406.784 293.173 405.342L301 400.728C302.886 399.588 304.867 398.471 306.436 396.903C307.642 396.501 310.185 394.594 310.191 393.125L309.978 393.032C308.411 392.606 303.349 395.245 301.906 396.091ZM348.494 396.814C347.386 397.695 346.277 398.707 345.054 399.419L329.183 411.629C330.419 412.275 333.956 412.257 335.403 411.77L348.236 401.682C348.763 400.786 349.652 400.146 349.817 399.125L349.082 398.375C348.971 397.715 348.932 397.348 348.494 396.814ZM348.494 396.814C348.932 397.348 348.971 397.715 349.082 398.375L349.817 399.125C349.652 400.146 348.763 400.786 348.236 401.682L365.272 389.308C357.396 390.717 354.884 391.858 348.494 396.814Z"/>
	<path fill="#635BBA" d="M144.174 415.19C146.27 412.77 149.486 410.511 152.387 409.312L152.066 409.652C150.507 411.315 149.704 412.662 149.744 415.005C148.226 415.333 145.8 415.226 144.174 415.19Z"/>
	<path fill="#B8B8FF" d="M329.25 414.997L325.328 415.023C326.557 413.775 327.724 412.609 329.183 411.629C330.419 412.275 333.956 412.257 335.403 411.77C333.936 413.048 332.744 413.808 330.927 414.472L329.25 414.997Z"/>
	<path fill="#9381FF" d="M386.751 366.1C385.596 366.185 387.045 365.214 387.625 364.75L388 364.5C388.345 364.229 388.528 363.963 388.946 363.777L389.626 362.876L388.75 362.311C387.385 362.258 385.902 363.29 384.612 362.875C386.678 362.379 389.748 360.715 390.125 360.64L390.377 359.75C390.47 359.639 391.035 355.632 391 355.125L391.125 351.377C391.329 350.857 391.243 350.148 391.127 349.625L390.999 349.688C390.569 349.859 390.293 349.931 389.953 350.269L389.375 350.5C389.007 351.046 388.106 351.543 387.5 351.811L385.938 352.749C384.786 353.547 383.521 354.056 382.422 355.031L379.875 356.5L377.375 358.373L387.296 351.473C388.785 350.702 390.011 349.593 391.561 348.917L390.784 363.171C389.485 363.788 388.107 364.496 387.231 365.681L386.751 366.1Z"/>
	<path fill="#B8B8FF" d="M247.121 414.538L241.375 414.46C241.375 412.263 248.071 409.618 249.716 408.852C250.891 410.321 253.425 410.765 255.241 411.181C254.469 411.661 249.357 414.54 248.764 414.603L247.121 414.538Z"/>
	<path fill="#B8B8FF" d="M35.4924 328.891L35.8619 328.811C40.1726 327.791 48.3488 322.184 53.433 319.843C49.2553 323.775 40.1518 331.07 35.4781 333.826L35.4924 328.891Z"/>
	<path fill="#B8B8FF" d="M387.231 365.681L387.713 365.543C388.163 365.409 388.339 365.308 388.688 364.999L390.127 364.25C390.342 368.479 386.829 368.338 382.973 370.825L365.046 381.817C362.034 383.643 358.918 385.805 355.736 387.269C359.473 383.218 368.981 377.102 374.158 374.076C377.732 371.987 384.166 369.388 386.751 366.1L387.231 365.681Z"/>
	<path fill="#B8B8FF" d="M35.4192 348.735L35.6805 348.662C38.2755 347.874 40.733 345.641 43.059 344.236C44.4064 343.421 57.0543 336.59 58.083 336.219C55.3255 339.388 39.9677 352.025 35.5084 352.534L35.4192 348.735Z"/>
	<defs>
		<linearGradient id="gradient_2" gradientUnits="userSpaceOnUse" x1="268.82401" y1="414.966" x2="286.427" y2="406.987">
			<stop offset="0" stop-color="#BFBDFF"/>
			<stop offset="1" stop-color="#E1E4FF"/>
		</linearGradient>
	</defs>
	<path fill="url(#gradient_2)" d="M283.591 405.771L283.741 405.705C284.186 406.645 284.906 407.421 285.25 408.375L286.917 408.506C286.397 408.835 286.032 409.058 285.713 409.606L276.631 414.361C275.886 414.704 274.707 414.56 273.89 414.708L267.392 414.845C270.254 411.706 275.943 409.037 279.741 407.589C280.183 407.158 280.955 406.926 281.521 406.67L283.591 405.771Z"/>
	<path fill="#F8F7FF" d="M281.521 406.67L283.591 405.771L281.377 407.875L281.854 409.634L280.966 409.797C280.146 409.157 279.201 409.116 278.51 408.555L278.919 408.325C279.286 408.113 279.5 407.945 279.741 407.589C280.183 407.158 280.955 406.926 281.521 406.67Z"/>
	<path fill="#F8F7FF" d="M160.666 402.185C167.963 396.693 176.1 390.97 185 388.455L185.449 388.324C186.64 387.985 187.748 387.865 188.973 387.789L166.883 400.334C165.096 401.444 162.952 402.428 161.315 403.723C158.159 405.207 155.896 408.163 152.558 409.313C154.351 406.313 157.929 404.324 160.666 402.185Z"/>
	<path fill="#B8B8FF" d="M149.352 292.875C154.326 293.306 161.356 292.1 165.539 292.869L165.875 292.937C170.849 293.88 169.381 295.449 166.834 297.45C165.278 298.715 163.604 299.578 161.708 300.218C157.253 298.265 153.316 295.866 149.196 293.291L149.352 292.875Z"/>
	<path fill="#F8F7FF" d="M38.041 284.957L68.25 272.065C68.9051 271.79 69.5276 271.497 70.2493 271.625C69.5746 272.367 68.0467 272.923 67.1562 273.447L59.125 278.27C53.6317 281.796 47.222 288.436 40.3066 288.793L37.6226 288.919L38.041 284.957Z"/>
	<path fill="#9381FF" d="M116.656 415.983C119.664 410.176 126.731 400.68 133.303 398.469L133.851 398.233C135.645 397.343 138.566 398.897 140.298 399.326L140.501 399.751C140.378 400.51 131.023 408.594 129.519 410.873C128.518 412.39 127.98 414.085 126.784 415.423L134.055 415.454L116.656 415.983Z"/>
	<path fill="#B8B8FF" d="M72.4775 416.428L73.0187 415.692C75.677 412.372 79.4419 410.17 82.7351 407.559L96.6453 396.819C102.867 392.205 108.106 390.769 115.655 390.013C112.689 392.08 110.431 392.913 106.871 395.629L102.006 399.091L90.284 408.17C86.6291 410.617 82.5218 413.821 79.5762 417.076L72.4775 416.428Z"/>
	<path fill="#9381FF" d="M36.7691 371.185C37.9923 371.116 38.7069 370.554 39.7488 369.999L56.7079 359.503C59.6662 357.502 62.2139 355.234 65.403 353.551L65.5042 353.73C66.1409 354.823 66.957 355.8 67.7393 356.791C65.6309 359.386 63.3674 361.229 60.8295 363.379C57.236 366.423 50.7132 370.503 47.9842 373.268C47.6461 373.611 46.9569 374.172 46.2512 374.501L45.3912 375.189C45.0033 375.513 44.6976 375.663 44.25 375.877L42.3755 376.822C41.5752 377.222 40.0373 377.958 39.125 377.877L38.875 378.127C38.2743 378.247 38.254 378.248 37.8483 378.705C37.5927 378.493 36.8658 371.975 36.7691 371.185Z"/>
	<path fill="#9381FF" d="M46.3716 403.254L46.8086 403.133C47.6602 404.915 49.8275 406.935 51.5625 407.938L52.1875 408.438C55.2506 406.784 60.0274 399.864 64.875 396.75L69.1406 394.047C69.803 393.69 70.4018 393.202 71.0625 392.812L73.25 391.5C77.0339 389.237 81.0981 386.529 85.75 388.129L86.0984 388.065C87.9501 387.749 85.5617 389.338 84.9375 389.688C83.6603 390.402 79.1221 395.146 76.625 396.75L64.168 405.27C63.6497 405.684 64.1177 405.341 63.4375 405.688L63 406C61.729 406.901 55.3911 409.663 55 410.25C55.3233 410.573 55.394 410.492 55.75 410.689L56.2148 411.047C57.1838 411.773 58.3777 412.205 59.5 412.625L61.6225 413.375C62.053 413.554 62.0916 413.477 62.5 413.375L62.6875 412.938C63.0093 412.389 68.4196 407.804 68.8125 407.562L70.3725 406.625C68.9387 408.099 62.9586 412.41 62.5844 414.178C57.2742 412.508 49.0911 408.412 46.3716 403.254Z"/>
	<defs>
		<linearGradient id="gradient_3" gradientUnits="userSpaceOnUse" x1="378.46799" y1="289.03699" x2="385.32599" y2="298.26199">
			<stop offset="0" stop-color="#8D89FA"/>
			<stop offset="1" stop-color="#AEA8FE"/>
		</linearGradient>
	</defs>
	<path fill="url(#gradient_3)" d="M394.551 279.528L394.636 292.105C389.675 294.269 385.512 297.216 381.209 300.252C373.971 305.358 370.431 307.408 369.395 316.772C368.743 312.845 370.622 309.242 370.624 305.414L372.034 304.62C372.722 304.301 373.395 303.963 374 303.5L374.688 302.938C376.183 302.056 377.473 300.729 378.957 299.785L384.188 295.938C384.926 295.508 387.375 293.611 387.375 292.877C385.372 294.617 375.529 302.551 373.243 303.497C372.409 303.842 371.392 304.085 370.761 304.767L370.488 305.085C370.49 301.832 370.281 298.361 370.804 295.152C372.238 293.729 373.877 292.281 375.5 291.123L385.616 283.875C388.221 282.264 391.573 280.387 394.551 279.528Z"/>
	<path fill="#9381FF" d="M391.528 348.491C391.361 347.793 391.448 346.797 391.431 346.067C389.199 345.847 386.087 348.798 384.245 349.883C378.768 353.108 370.473 357.812 364.999 360.142L365.841 349.125C366.102 343.894 369.772 341.829 373.667 338.917L386.752 329.263C388.754 327.8 390.86 326.528 392.684 324.831L392.98 324.553C392.793 329.624 392.697 343.84 391.528 348.491Z"/>
	<path fill="#9381FF" d="M394.508 292.105L393.744 309.442C393.679 313.973 393.832 318.792 393.185 323.276C392.714 319.496 390.662 322.158 388.797 323.558C386.488 325.29 383.753 326.201 381.375 327.803C378.489 329.748 369.373 336.071 367.204 338.045L368.773 326.576C369.761 325.447 371.572 324.469 372.841 323.572L382.059 317.006C384.841 315.007 387.321 312.763 390.257 310.967C389.52 311.154 389.011 311.309 388.375 311.75L385.203 314.18C384.052 315.329 380.798 317.586 379.375 318.5L378.062 319.251C377.396 320.016 376.304 320.742 375.5 321.189L374.387 321.988C372.92 322.966 370.771 324.147 369.625 325.5L368.877 325.625C368.779 325.141 368.715 324.981 368.875 324.5L371.625 321.127L368.873 324.125C368.728 321.867 369.883 318.85 369.395 316.772C370.431 307.408 373.971 305.358 381.209 300.252C385.512 297.216 389.675 294.269 394.508 292.105Z"/>
	<path fill="#9381FF" d="M364.113 251.889L364.319 251.788C370.887 252.795 380.568 250.935 385.303 256.509L385.334 256.585C390.551 260.798 393.506 268.176 394.252 274.701L394.582 279.528C391.573 280.387 388.221 282.264 385.616 283.875L375.5 291.123C373.877 292.281 372.238 293.729 370.848 295.152L370.942 294.469C370.899 293.847 370.625 293.178 370.581 292.512L370.331 285.375C370.302 283.703 370.034 283.357 371.122 282.125L370.375 282.25C370.39 280.631 370.065 279.181 369.867 277.593L369.033 269.52L367.895 265.654C366.318 261.067 364.764 256.721 364.113 251.889Z"/>
	<path fill="#B8B8FF" d="M367.895 265.654C371.694 264.275 383.184 257.696 385.794 258.029C385.354 258.65 385.05 259.145 384.309 259.423C380.603 260.813 372.085 266.454 369.033 269.52L367.895 265.654Z"/>
	<path fill="#B8B8FF" d="M469.293 142.67L468.577 143.556C467.367 145.234 465.424 146.363 463.675 147.434L456.188 152.1C453.825 153.73 451.618 155.637 449.401 157.46C449.183 155.182 449.209 153.051 449.695 150.81C455.148 144.633 462.857 141.62 469.487 137.657L469.846 137.439C469.844 139.213 469.649 140.908 469.314 142.65L469.293 142.67Z"/>
	<path fill="#B8B8FF" d="M467.093 164.061C463.768 164.412 452.013 174.418 449.567 176.67C449.667 172.735 449.627 168.91 450.387 165.027L456.621 160.368C460.446 157.525 464.1 154.819 468.417 152.758L467.482 161.632C467.4 162.296 467.413 163.487 467.093 164.061Z"/>
	<path fill="#242432" d="M152.104 57.9057C153.084 57.8268 154.205 57.5962 155.125 58.0038C164.986 68.0317 147.982 70.7127 141.121 70.9447C138.627 70.4376 133.33 66.5866 135.698 63.7156C139.28 59.3724 146.912 58.5105 152.104 57.9057Z"/>
	<path fill="#B8B8FF" d="M465.316 186.261C460.784 187.697 451.803 196.831 447.867 201.021C447.992 198.647 448.614 183.286 450.079 182.056L466.514 170.453L465.745 182.61C465.696 183.27 465.676 185.82 465.316 186.261Z"/>
	<path fill="#242432" d="M163.541 57.625L164.147 57.5483C171.628 57.0685 197.226 58.6305 185.11 71.2938L182.768 72.8084C177.63 71.6567 172.673 69.9573 167.394 69.501C165.735 69.3577 163.296 69.5735 161.875 68.6821C160.811 66.3985 161.722 59.1371 163.541 57.625Z"/>
	<path fill="#B8B8FF" d="M445.164 228.661C445.559 224.809 446.499 208.415 448.598 206.031C452.597 201.488 459.056 196.174 464.803 194.111L462.832 215.548C462.941 216.758 462.947 218.186 463.375 219.331C463.535 220.25 463.72 221.099 463.602 222.031L463.391 223.814L462.377 234.747C462.256 235.821 462.321 237.078 462.114 238.115L461.69 242.497L460.705 260.735L459.655 280.569C453.545 281.425 446.396 291.093 439.46 292.738C439.704 286.036 440.577 282.34 441.411 276.032L441.589 275.899C441.645 269.426 441.602 262.746 443.375 256.463C444.872 254.958 446.34 253.617 448.106 252.422L448.133 251.1C445.295 254.515 448.086 249.016 448.159 248.639L448.182 248.348C446.211 249.498 444.992 251.064 443.312 252.515C443.173 250.292 443.463 248.051 443.663 245.838L444.7 233.999L445.164 228.661ZM463.375 219.331C462.595 219.773 461.858 220.228 460.993 220.48C460.291 220.726 459.844 220.971 459.246 221.414L459.688 221.882C461.069 221.663 462.209 222.08 463.602 222.031C463.72 221.099 463.535 220.25 463.375 219.331Z"/>
	<path fill="#635BBA" d="M460.993 220.48L460.665 219.871C461.585 218.518 462.189 217.045 462.832 215.548C462.941 216.758 462.947 218.186 463.375 219.331C462.595 219.773 461.858 220.228 460.993 220.48Z"/>
	<path fill="#F8F7FF" d="M452.273 245.209C454.639 243.52 460.574 237.613 461.709 237.032C461.413 237.913 460.656 238.5 460 239.125L460.289 239.17C460.744 239.261 460.58 239.216 461.004 239.534L460.499 240.499C459.566 240.83 458.829 241.482 458.021 242.031L452.273 245.209Z"/>
	<defs>
		<linearGradient id="gradient_4" gradientUnits="userSpaceOnUse" x1="445.72299" y1="269.27802" x2="454.246" y2="284.16901">
			<stop offset="0" stop-color="#989AFF"/>
			<stop offset="1" stop-color="#B6B6FF"/>
		</linearGradient>
	</defs>
	<path fill="url(#gradient_4)" d="M441.411 276.032C442.859 275.057 444.054 273.605 445.4 272.476L457.269 263.018C458.364 262.118 459.297 261.083 460.713 260.735L459.655 280.569C453.545 281.425 446.396 291.093 439.46 292.738C439.704 286.036 440.577 282.34 441.411 276.032Z"/>
	<path fill="#242432" d="M251.102 155.47L282.263 155.453C287.136 155.458 292.254 155.108 297.085 155.51C303.648 156.057 303.729 166.216 296.91 166.728C292.868 167.031 288.593 166.755 284.531 166.753L207.653 167.301L184.459 168.455L146.624 170.812C141.493 170.975 137.846 171.552 136.14 165.73C138.563 158.174 146.819 159.703 153.161 159.228L218.915 156.205C220.957 156.106 222.982 155.616 225 155.524L251.102 155.47Z"/>
	<path fill="#242432" d="M317.959 116.005C320.652 115.876 323.722 115.58 326.39 115.945L327.881 116.18C333.498 117.478 333.471 124.404 328.406 126.722L328.058 126.876C326.576 127.542 324.437 127.263 322.828 127.263L212.833 127.845C211.123 127.896 209.452 128.229 207.75 128.287L149.702 131.274C146.944 131.536 143.558 132.012 140.843 131.576L140.5 131.514C134.416 130.507 135.126 121.741 140.856 120.611L141.125 120.56C144.67 119.784 148.726 120.008 152.361 119.81L198.677 117.423C201.255 117.332 203.845 116.851 206.41 116.802L231.004 116.7C233.49 116.645 235.922 116.118 238.375 116.063L317.959 116.005Z"/>
	<path fill="#242432" d="M240.421 193.816L330.817 193.811C334.494 193.816 338.322 193.592 341.973 193.936C349.275 194.625 349.539 204.069 342.729 205.065C339.925 205.475 336.55 205.01 333.684 204.985L241.625 204.961L186.149 205.048C183.843 205.108 181.631 205.665 179.375 205.757L168.011 205.824C166.072 205.886 164.174 206.264 162.25 206.334L149.611 206.445C146.313 206.483 133.554 207.775 135.593 200.48C136.064 198.793 137.567 197.202 139.092 196.389L139.375 196.243C140.936 195.417 154.087 194.846 157.258 194.752L187.873 194.599C190.493 194.559 193.038 193.914 195.6 193.871L240.421 193.816Z"/>
</svg>
