<?xml version="1.0" encoding="utf-8" ?>
<svg xmlns="http://www.w3.org/2000/svg" xmlns:xlink="http://www.w3.org/1999/xlink" width="512" height="512">
	<path fill="#271740" d="M133.75 35.1211C145.973 33.9126 143.328 42.6358 139.114 43.8251L138.625 43.9376C135.374 44.8097 131.578 44.4978 128.21 44.5186L112.15 44.5392C99.782 44.8018 101.683 37.375 109.28 35.8403C112.475 35.1947 116.142 35.3403 119.415 35.3081L133.75 35.1211Z"/>
	<path fill="#271740" d="M105.439 138.252C108.319 138.204 110.404 140.584 111.778 142.863C111.225 143.935 110.445 144.838 109.591 145.681L85.6067 167.62C82.693 170.396 79.8492 173.402 76.3178 175.39C73.8668 176.177 71.6358 175.915 70.5504 173.296C69.2253 170.098 71.9606 167.836 74.0145 165.842L92.5197 148.294C96.3372 144.706 100.338 139.992 105.439 138.252Z"/>
	<path fill="#271740" d="M84.5361 70.5536L86.75 70.4095C91.0466 70.5289 92.645 74.7317 89.956 77.9221C86.9446 81.4951 82.9259 84.4643 79.586 87.7576L53.2882 113.114C49.9578 116.055 46.6231 119.111 42.8998 121.554L41.5 122.191C38.1083 123.333 37.3371 119.772 36.7392 117.275C38.8306 112.736 43.7065 109.323 47.2957 106.015L81.0191 72.853C82.0994 71.8604 83.2222 71.1941 84.5361 70.5536Z"/>
	<path fill="#271740" d="M93.3741 26.1129C98.5985 26.4247 98.2225 30.3835 94.6289 33.1713C90.2699 36.5528 84.4231 39.1225 79.3396 43.0547L49.064 68.3277C46.3911 70.6728 43.7094 73.3611 40.4016 74.7648C34.2311 75.475 36.1857 68.4526 39.3866 64.8376C44.2986 59.2901 50.1144 54.4549 55.7009 49.6066C65.287 41.287 79.8077 26.9234 93.3741 26.1129Z"/>
	<path fill="#281737" d="M297.884 463.276L297.653 464.585C296.771 468.375 290.121 467.187 287.398 467.175L158.846 467.192C146.548 467.231 128.447 467.709 120.566 456.108C114.591 447.312 114.089 431.774 124.169 425.647C127.318 423.732 132.769 422.175 136.459 422.802L136.861 423.719C136.347 424.716 135.458 426.003 136.959 426.33L137.203 426.468C138.132 426.868 139.301 426.767 140.25 426.5L140.438 426.688C139.488 427.1 139.025 426.981 138.156 427.802C129.723 430.784 123.353 437.98 126.925 447.185C131.807 459.765 148.337 459.5 159.164 459.503L228.5 459.419C230.611 459.341 232.707 458.731 234.875 458.647L296.835 458.468C297.265 459.876 297.275 462.079 297.884 463.276Z"/>
	<path fill="#271740" d="M249.623 54.84C283.285 52.9892 313.072 67.4071 335.249 91.9677C337.748 94.7357 341.218 97.3415 338.795 101.15L338.615 101.427C343.117 101.397 346.531 109.442 348.247 112.815C383.531 182.177 331.221 254.329 257.438 256.27C252.391 256.25 247.248 256.565 242.218 256.194C182.778 251.807 139.472 207.274 146.648 146.771C153.371 90.084 195.292 57.9426 249.623 54.84ZM248.266 64.1356C207.94 66.2265 170.465 90.458 159.838 130.575C146.991 179.075 175.122 231.55 225.259 243.461C236.375 246.102 247.221 247.139 258.629 246.618L258.688 246.542C312.358 243.36 353.474 202.884 350.213 147.394L349.81 144.006C347.87 133.034 345.386 121.994 340.297 112C338.866 109.19 336.772 106.271 336.274 103.131C328.74 103.939 329.926 101.434 325.817 96.3285C307.576 73.6665 276.763 62.7136 248.266 64.1356Z"/>
	<defs>
		<linearGradient id="gradient_0" gradientUnits="userSpaceOnUse" x1="299.40799" y1="145.653" x2="201.59399" y2="155.47099">
			<stop offset="0" stop-color="#271E3D"/>
			<stop offset="1" stop-color="#260D48"/>
		</linearGradient>
	</defs>
	<path fill="url(#gradient_0)" d="M246.315 85.3471C248.538 85.1009 250.878 85.2369 253.112 85.234C273.357 85.2079 278.694 91.5416 278.646 112.802L276.264 162.125C276.141 164.167 274.899 169.681 276.001 171.45C281.788 173.004 287.337 165.532 291.399 162.583C295.133 159.872 301.846 159.256 301.811 164.668C301.785 168.71 292.062 176.691 289.312 179.371L273.897 194.866C268.107 200.98 263.611 207.653 258.309 213.346C248.16 222.805 237.921 206.769 231.241 199.899C227.641 196.195 192.33 164.46 205.607 160.305C211.08 158.592 217.1 167.412 221.938 169.883L222.375 170.105C226.848 172.434 228.474 170.576 228.39 165.889L228.297 127.361C228.301 111.208 225.544 87.4943 246.315 85.3471ZM243.203 96.1339C251.565 107.324 256.519 108.882 268.308 115.863L268.369 103.922C268.304 102.294 268.322 100.151 267.41 98.7483L267.237 98.5C266.516 97.4262 265.718 96.7075 264.479 96.2732L264.096 96.1444C258.683 94.275 248.709 95.012 243.203 96.1339Z"/>
	<path fill="#FE1861" d="M268.227 115.863C268.639 119.377 268.478 122.976 268.466 126.512L268.339 139.121C268.272 140.606 267.949 142.058 267.88 143.54L267.327 161.342C267.117 168.693 265.036 178.371 274.481 180.72L266.082 189.429C261.021 194.893 256.659 200.757 252.532 206.942L240.481 194.513C235.641 189.527 230.948 184.73 225.345 180.587C230.335 180.365 236.266 178.22 237.747 172.911L237.845 172.545C238.42 170.522 238.129 168.286 238.083 166.199L237.986 133.245C237.985 126.489 236.907 99.821 243.203 96.1339C251.565 107.324 256.519 108.882 268.227 115.863Z"/>
	<path fill="#271740" d="M169.814 368.782C168.216 374.622 154.997 372.71 150.157 372.715L103.647 372.792C97.0722 372.955 92.7621 373.012 86.125 372.8L75.5627 372.693C58.9942 371.915 37.7733 368.728 26.6158 355.369C14.3859 340.727 11.8707 320.823 11.1888 302.453C10.9803 296.836 7.97685 283.47 17.9746 286.679L13.8432 250.063L8.74277 169.967L7.51453 124.875L7.46401 100.67C7.46549 84.73 7.29374 68.3058 10.1496 52.5722C17.5482 11.8108 49.1055 8.69711 83.25 5.00747L119.04 2.52754C120.749 2.45362 122.432 2.13892 124.146 2.08585L248.335 2.10544L374.659 7.99769C378.932 8.22494 386.48 7.34873 383.996 14.3398L383.889 14.625C382.574 18.2124 379.893 17.5024 376.61 17.3034L318.75 14.2887L294.609 13.0231C292.993 12.9366 291.407 12.6037 289.795 12.5327L274.75 12.3717C272.435 12.3338 270.183 11.9321 267.893 11.8651L237.206 11.2818C235.088 11.1914 232.996 10.7986 230.875 10.7661L151.847 10.7713C149.823 10.8216 147.876 11.2078 145.875 11.2945L123.375 11.872C121.733 11.9203 120.132 12.2461 118.5 12.3276L90.0167 14.1334C16.4973 19.9973 17.653 34.1924 17.7043 104.438L17.7919 138.514L18.9285 164.711L27.8964 286.567C29.2193 286.887 31.0765 286.657 32.461 286.644L45.5459 286.324L91.3909 283.529L121 283.406C123.769 283.377 126.467 282.819 129.203 282.771L177.589 282.925C181.119 283.168 183.231 287.149 185.599 289.546C188.752 287.969 190.12 284.888 193.782 284.3C197.051 283.776 204.341 283.572 208.125 283.485L252.078 283.374C254.453 283.31 256.771 282.843 259.144 282.794L275.029 282.629L374.422 277.408L390.041 277.332C392.256 277.282 394.428 276.853 396.625 276.788L470.134 276.754L468.114 226.265C468.037 224.314 467.545 222.4 467.488 220.474L467.47 75.6275C467.432 39.6863 460.039 23.702 421.691 20.8024C418.328 20.5481 414.86 20.5698 411.523 20.1473C404.856 19.303 404.341 10.5692 410.375 10.5531C417.268 10.5346 424.283 11.5435 431.153 12.1248L453.375 13.8691C492.885 18.1081 502.615 40.5645 502.818 76.8341C502.84 80.6522 503.159 84.7354 502.354 88.4899L502.248 115.973C502.703 118.042 503.721 120.963 503.443 122.939C502.614 125.541 502.752 128.051 502.753 130.735L502.774 140.385L504.882 180.095C505.507 186.037 504.978 192.327 504.967 198.323L504.894 234.875C504.813 237.496 504.327 240.077 504.295 242.734L504.262 286.649C504.264 298.67 504.439 311.096 502.627 323.011C495.54 369.609 468.79 373.314 425.74 373.345L404.5 373.299C402.602 373.244 400.736 372.869 398.834 372.813L360.814 372.687C359.4 372.653 358.008 372.417 356.598 372.353L346.893 372.213C345.315 372.163 343.751 371.888 342.17 371.822L310.25 371.854C311.822 385.569 316.423 399.893 322.458 412.297C323.119 413.656 323.386 415.101 324.29 416.322C328.174 416.698 332.214 416.516 336.117 416.527C361.963 416.605 399.47 411.398 395.237 448.43C392.972 468.25 369.207 468.456 353.809 468.472L325.824 468.45C323.89 468.437 321.733 468.582 319.821 468.299L318.486 468.011C316.841 467.59 315.753 465.231 315.267 463.737C313.515 463.183 311.502 463.331 309.713 463.307L297.884 463.273C297.275 462.079 297.265 459.876 296.835 458.468L234.875 458.647C232.707 458.731 230.611 459.341 228.5 459.419L159.164 459.503C148.337 459.5 131.807 459.765 126.925 447.185C123.353 437.98 129.723 430.784 138.156 427.802C139.025 426.981 139.488 427.1 140.438 426.688L140.25 426.5C139.301 426.767 138.132 426.868 137.203 426.468L136.959 426.33C135.458 426.003 136.347 424.716 136.861 423.719L136.459 422.802L136.783 422.681C144.031 418.265 151.71 417.507 160.105 417.081L167 416.638C169.215 416.568 171.388 416.726 173.604 416.494C180.542 403.854 184.848 389.631 186.957 375.394C187.361 372.662 187.62 371.762 186.225 369.474C184.699 367.446 171.267 367.726 169.814 368.782ZM136.861 423.719C136.347 424.716 135.458 426.003 136.959 426.33C141.559 426.223 139.034 425.451 136.861 423.719Z"/>
	<path fill="#B8B8FF" d="M229.431 371.708L301.147 371.884C301.653 385.828 308.461 403.438 313.592 416.131C310.956 415.681 308.136 415.728 305.466 415.707L293.016 415.627C290.63 415.585 288.365 415.049 286.008 414.939L270.625 414.709L185.659 415.643C188.29 411.731 195.27 387.245 196.45 382.438L197.878 375.658C198.092 374.382 198.129 373.122 198.464 371.86L229.431 371.708Z"/>
	<path fill="#B8B8FF" d="M504.882 180.095L501.79 179.796C498.678 179.655 494.67 182.407 494.453 185.719C494.322 187.718 495.111 189.635 495.253 191.625C495.532 195.536 495.394 199.523 495.396 203.443L495.244 277.793C493.568 278.08 491.581 277.857 489.855 277.848L478.588 277.782L478.334 254.948C478.307 252.522 477.875 250.15 477.815 247.75L477.762 224.375C477.737 221.72 477.167 219.113 477.135 216.5L477.099 88.1328C477.108 66.1206 478.823 38.9024 458.989 24.1251C467.069 26.509 474.473 28.2503 481.052 33.8576C496.557 47.073 491.698 71.1253 497.146 88.8331C499.057 89.0135 500.535 89.2774 502.354 88.4899L502.248 115.973C502.703 118.042 503.721 120.963 503.443 122.939C502.614 125.541 502.752 128.051 502.753 130.735L502.774 140.385L504.882 180.095Z"/>
	<path fill="#9381FF" d="M502.774 140.385L502.65 141.625C502.123 140.052 502.055 138.206 501.883 136.562L500.906 127.25C500.087 126.339 498.19 126.773 499.992 125.63C501.537 124.651 502.502 123.983 503.046 122.15L503.443 122.939C502.614 125.541 502.752 128.051 502.753 130.735L502.774 140.385Z"/>
	<path fill="#586C97" d="M497.146 88.8331C499.057 89.0135 500.535 89.2774 502.354 88.4899L502.248 115.973C501.329 115.926 500.118 115.867 499.049 115.413C499.061 106.455 498.95 97.6533 497.146 88.8331Z"/>
	<path fill="#9381FF" d="M205.218 424.667L219.026 423.235L305.625 423.16C306.934 423.201 308.213 423.481 309.516 423.562L357.608 424.675C365.29 425.143 374.707 425.068 380.812 430.43L383.75 433.435C387.95 438.46 386.242 450.521 381.401 454.61C373.941 460.911 346.193 459.509 336.662 459.503L325.427 459.463C323.097 459.428 320.835 459.584 318.571 458.982L317.741 458.824C316.576 460.436 315.783 461.782 315.267 463.737C313.515 463.183 311.502 463.331 309.713 463.307L297.884 463.273C297.275 462.079 297.265 459.876 296.835 458.468L234.875 458.647C232.707 458.731 230.611 459.341 228.5 459.419L159.164 459.503C148.337 459.5 131.807 459.765 126.925 447.185C123.353 437.98 129.723 430.784 138.156 427.802C144.608 426.373 150.6 426.478 157.199 426.268L183.669 425.655C186.069 425.624 188.353 425.229 190.725 425.091L205.218 424.667Z"/>
	<path fill="#B8B8FF" d="M205.218 424.553L219.026 423.235L305.625 423.16C306.934 423.201 308.213 423.481 309.516 423.562L357.608 424.675C365.29 425.143 374.707 425.068 380.812 430.43L383.75 433.435C378.552 434.993 371.702 433.104 366.395 432.921L308.883 432.882C302.066 432.993 296.554 433.878 289.708 433.898L244.479 433.973C234.558 433.971 208.963 436.024 205.218 424.553Z"/>
	<path fill="#9381FF" d="M169.814 368.782C169.596 365.351 169.96 364.197 165.951 364.097L136.128 364.196C134.496 364.255 132.912 364.593 131.289 364.684L103.006 364.754C54.7447 364.789 24.0937 365.627 21.4149 309.351L21.0297 294.696L455.272 286.674L494.407 287.659L494.351 305.19C494.078 351.983 477.428 364.138 432.843 364.143L364.249 364.06C361.868 364.025 359.604 363.466 357.231 363.373L331.5 362.7C329.339 362.493 327.285 362.142 325.099 362.093L196.289 362.128C190.43 362.42 187.061 362.859 186.225 369.474C184.699 367.446 171.267 367.726 169.814 368.782Z"/>
	<path fill="#F8F7FF" d="M376.746 338.524C378.293 338.403 381.134 339.082 381.956 340.423L382.094 340.659C386.017 347.044 382.971 351.545 376.308 352.985L375.855 352.976C373.594 352.735 371.432 351.255 370.162 349.428L369.921 349.071C366.878 344.598 372.912 339.617 376.746 338.524Z"/>
	<path fill="#271740" d="M279.642 320.476C290.552 319.928 285.98 329.652 282.147 330.183C280.535 330.407 278.704 330.234 277.07 330.236L231.057 330.236C227.688 330.253 224.332 329.047 224.259 325.1C224.166 320.021 231.233 320.555 234.513 320.555L279.642 320.476Z"/>
	<path fill="#B8B8FF" d="M455.272 286.954L494.407 287.659L494.351 305.19C490.294 306.03 485.773 305.649 481.735 305.655C472.085 305.671 462.281 305.352 452.654 306.033L450.62 287.02L455.272 286.954Z"/>
</svg>
