<?xml version="1.0" encoding="utf-8" ?>
<svg xmlns="http://www.w3.org/2000/svg" xmlns:xlink="http://www.w3.org/1999/xlink" width="512" height="512">
	<path fill="#1E1C1F" d="M327.259 500.263C329.99 493.464 333.002 493.189 339.061 493.167L367.651 492.367C385.378 491.835 403.076 491.217 420.638 488.448C452.908 483.36 459.277 476.12 462.706 443.65L464.277 426L465.733 393.693L468.352 353.399L470.408 299.861C470.701 295.258 476.644 291.327 481.021 291.682C491.209 294.137 487.73 302.625 487.429 310.5L486.324 344.14L480.246 439.375C476.033 485.863 461.4 498.177 414.732 503.271L389.217 505.471L352.394 507.228L338.05 507.406C335.221 507.415 333.283 507.832 330.77 506.439L330.385 506.255C329.09 505.437 327.557 501.709 327.259 500.263Z"/>
	<path fill="#1E1C1F" d="M307.8 502.943L307.586 503.778C306.801 505.887 304.212 508.037 302.166 508.944L301.819 509.094C300.557 509.677 299.381 509.783 298.006 509.836L102.837 509.862C101.25 509.817 99.7039 509.54 98.125 509.407L86.25 508.258C80.8959 507.545 75.3758 506.859 70.1239 505.576C27.9211 495.269 22.7181 469.06 22.9292 430.152L23.0719 411.871C23.1393 409.738 23.5465 407.614 23.6138 405.5L23.6567 385.962L25.6687 333.75C25.7497 331.912 26.1028 330.093 26.1916 328.25L27.2338 292.209C27.3214 290.14 27.6615 288.061 27.7143 286L27.7022 216.083C27.6531 213.671 27.2226 211.303 27.1683 208.916L27.0566 184.161C27.0021 181.57 26.4146 179.032 26.348 176.513L26.3846 119.195L30.2447 78.9541C33.6085 55.3983 42.3537 28.5792 62.0952 13.7778C76.6364 2.87545 100.547 2.64232 118.496 2.11944L244.162 2.12615C246.605 2.17353 248.992 2.59307 251.417 2.65883L270.623 2.84912L338.952 6.40806C349.1 6.86687 359.448 7.17115 369.511 8.60544C403.305 13.4222 424.146 32.2435 447.809 54.8419C456.06 62.7221 465.026 70.7146 471.834 79.9182C485.668 98.6204 486.277 108.431 487.489 130.608L488.244 227.094C488.241 232.643 488.525 238.37 487.778 243.875C487.435 246.397 484.508 247.354 482.487 248.3C480.037 250.081 481.838 259.468 481.528 262.48C483.021 262.91 485.633 263.396 486.69 264.414C488.083 269.688 488.746 272.434 483.246 274.733C482.612 274.998 481.969 275.284 481.457 275.747C480.386 280.383 480.166 286.569 480.618 291.374L480.876 291.682C476.644 291.327 470.701 295.258 470.408 299.861L468.352 353.399L465.733 393.693L464.277 426L462.706 443.65C459.277 476.12 452.908 483.36 420.638 488.448C403.076 491.217 385.378 491.835 367.651 492.367L339.061 493.167C333.002 493.189 329.99 493.464 327.259 500.263C325.264 500.601 323.258 501.082 321.241 501.251C317.869 501.533 310.06 500.253 307.8 502.943ZM54.4074 435.805C54.9625 435.012 56.7716 435.498 57.6794 435.499L108.815 434.828C115.368 434.498 154.484 432.947 157.986 430.649C176.297 444.648 184.187 446.285 204.315 455.199C204.771 454.966 204.819 454.74 205.082 454.315C206.139 454.467 207.017 454.623 208.07 454.315C210.273 455.373 212.493 456.962 214.306 458.592C254.804 477.455 310.436 469.929 347.643 447.175C404.465 412.425 427.562 343.844 405.095 282.025L402.778 275.905C400.13 268.829 395.705 266.187 388.989 270.758L388.771 270C387.761 266.415 386.476 264.401 383.757 261.921C383.341 262.198 382.963 262.434 382.5 262.623L382.127 262.375C380.998 259.465 378.375 259.167 376.754 256.728C377.374 256.389 378.098 256.297 378.783 256.152C377.676 252.805 375.891 252.028 373.36 249.946C372.267 249.047 372.339 250.385 371.745 251.174L370.535 251.22L370.607 250.675C372.998 248.046 373.41 245.02 374.289 241.74L385.412 231.445C408.156 208.494 436.906 173.251 440.859 140.046L442.639 120.266C442.754 119.192 442.781 117.766 443.222 116.774L443.388 116.425C443.508 115.528 443.424 114.559 443.415 113.653L416.413 110.302C416.742 119.781 411.327 120.491 403.576 120.495C386.587 120.502 370.712 115.938 364.783 98.0428C362.54 91.2739 362.711 84.5622 362.702 77.5281L362.686 54.4645C362.68 49.9476 362.849 45.3285 362.292 40.8272C353.771 39.5873 345.401 39.3662 336.822 39.0356L224.198 38.565C222.453 38.6078 220.742 38.9435 219 39.0006L170.077 40.6347L148.818 41.875C131.025 43.1432 112.346 44.7054 97.5478 55.7679L94.5249 58.2102C68.497 79.7724 71.9374 116.814 69.7318 147.005L69.4811 169.205C69.459 173.83 69.0597 178.213 68.7966 182.804L68.075 211.103C67.999 212.749 67.6846 214.36 67.6414 216.009L67.1225 241.875C67.081 243.551 66.7438 245.202 66.6868 246.875L64.4054 293.883L54.5812 413.1L54.2711 431.993C54.2734 432.764 54.0074 435.627 54.4074 435.805ZM79.977 490.589L80.0463 490.217C59.5857 477.823 54.4117 459.441 54.3091 436.197C54.0074 435.627 54.2734 432.764 54.2711 431.993L54.5812 413.1L64.4054 293.883L66.6868 246.875C66.7438 245.202 67.081 243.551 67.1225 241.875L67.6414 216.009C67.6846 214.36 67.999 212.749 68.075 211.103L68.7966 182.804C69.0597 178.213 69.459 173.83 69.4811 169.205L69.7318 147.005C71.9374 116.814 68.497 79.7724 94.5249 58.2102L97.5478 55.7679C112.346 44.7054 131.025 43.1432 148.818 41.875L170.077 40.6347L219 39.0006C220.742 38.9435 222.453 38.6078 224.198 38.565L336.822 39.0356C345.401 39.3662 353.771 39.5873 362.175 40.8272L362.042 29.7972C361.971 27.421 361.677 24.9114 361.925 22.5525L304.125 19.2904C302.267 19.2139 300.462 18.8484 298.583 18.8058L284.375 18.7378C282.118 18.6339 279.917 18.0875 277.606 18.0417L137.625 18.0345C135.359 18.1039 133.099 18.66 130.793 18.7285C114.482 19.2132 87.5472 17.6666 73.5322 27.3023L73.1854 27.5374C51.6847 42.3123 47.711 84.1464 46.1023 107.508L45.2251 123.899C45.1221 125.577 44.7881 127.21 44.7335 128.901L44.6813 218.505C44.7315 221.139 45.2905 223.709 45.3225 226.365L45.3125 280.625C45.2373 282.727 44.759 284.8 44.6991 286.944L43.6569 345.3L42.6963 371.382C42.6404 381.809 41.6097 391.933 41.3195 402.12L41.2139 435.562C41.2032 449.144 40.2227 463.297 49.0045 474.743C56.4072 484.391 68.3106 488.953 79.977 490.589Z"/>
	<path fill="#302F43" d="M470.6 90.375C473.315 89.7495 472.953 94.2875 472.482 95.875L471.904 95.9092C470.693 94.6147 469.794 92.0335 470.6 90.375Z"/>
	<path fill="#302F43" d="M238.393 495.476L241.668 495.49C241.018 499.835 240.78 504.16 240.984 508.545C240.453 507.578 239.934 506.674 239.705 505.582L238.671 500.75C238.313 499.046 238.406 497.214 238.393 495.476Z"/>
	<path fill="#FA79D0" d="M437.192 68.3141L468.342 97.5005L467.293 103.228C465.062 104.365 462.504 104.446 460.047 104.525L451.122 104.625C445.247 104.679 443.767 107.149 443.415 113.653L416.413 110.302L416.282 109.961C418.309 106.837 421.003 104.325 422.979 101.079C426.09 95.9687 428.803 90.4586 431.012 84.9009L437.192 68.3141Z"/>
	<path fill="#FFB4E6" d="M416.282 109.961C414.108 106.039 412.223 106.522 408.221 106.538C400.14 106.571 391.345 106.876 385.105 100.76C375.924 91.7617 377.475 71.9054 377.46 59.9424L377.373 27.957C378.26 28.6652 379.336 28.753 380.389 29.0889C402.369 36.1018 420.769 52.8513 437.192 68.3141L431.012 84.9009C428.803 90.4586 426.09 95.9687 422.979 101.079C421.003 104.325 418.309 106.837 416.282 109.961Z"/>
	<path fill="#9381FF" d="M374.289 241.74L385.412 231.445C408.156 208.494 436.906 173.251 440.859 140.046L442.639 120.266C442.754 119.192 442.781 117.766 443.222 116.774L443.388 116.425C451.753 120.381 462.79 120.496 471.916 119.259C472.304 119.207 472.149 119.203 472.527 119.321L472.79 128.916C472.898 130.944 473.2 132.934 473.246 134.972L473.346 228.773C473.353 237.144 470.567 247.963 482.487 248.3C480.037 250.081 481.838 259.468 481.528 262.48C483.021 262.91 485.633 263.396 486.69 264.414C488.083 269.688 488.746 272.434 483.246 274.733C482.612 274.998 481.969 275.284 481.457 275.747C480.386 280.383 480.166 286.569 480.618 291.374L480.876 291.682C476.644 291.327 470.701 295.258 470.408 299.861L468.352 353.399L465.733 393.693L464.277 426L462.706 443.65C459.277 476.12 452.908 483.36 420.638 488.448C403.076 491.217 385.378 491.835 367.651 492.367L339.061 493.167C333.002 493.189 329.99 493.464 327.259 500.263C325.264 500.601 323.258 501.082 321.241 501.251C317.869 501.533 310.06 500.253 307.8 502.943C307.789 499.396 306.086 496.404 304.06 493.569C302.681 493.407 301.189 493.647 299.804 493.771L278.625 495.11L241.668 495.197L238.393 495.476L155.85 495.122L118.25 493.765L87.6043 491.665C85.1819 491.466 82.2584 491.422 79.977 490.589L80.0463 490.217C59.5857 477.823 54.4117 459.441 54.2929 436.197C54.9625 435.012 56.7716 435.498 57.6794 435.499L108.815 434.828C115.368 434.498 154.484 432.947 157.986 430.649C176.297 444.648 184.187 446.285 204.315 455.199C204.771 454.966 204.819 454.74 205.082 454.315C206.139 454.467 207.017 454.623 208.07 454.315C210.273 455.373 212.493 456.962 214.306 458.592C254.804 477.455 310.436 469.929 347.643 447.175C404.465 412.425 427.562 343.844 405.095 282.025L402.778 275.905C400.13 268.829 395.705 266.187 388.989 270.758L388.771 270C387.761 266.415 386.476 264.401 383.757 261.921C383.341 262.198 382.963 262.434 382.5 262.623L382.127 262.375C380.998 259.465 378.375 259.167 376.754 256.728C377.374 256.389 378.098 256.297 378.783 256.152C377.676 252.805 375.891 252.028 373.36 249.946C372.267 249.047 372.339 250.385 371.745 251.174L370.535 251.22L370.607 250.675C372.998 248.046 373.41 245.02 374.289 241.74Z"/>
	<path fill="#514599" d="M208.07 454.315C210.273 455.373 212.493 456.962 214.306 458.592C211.591 458.984 206.771 456.427 204.315 455.199C204.771 454.966 204.819 454.74 205.082 454.315C206.139 454.467 207.017 454.623 208.07 454.315Z"/>
	<path fill="#1E1C1F" d="M481.594 262.48C483.021 262.91 485.633 263.396 486.69 264.414C488.083 269.688 488.746 272.434 483.246 274.733C482.612 274.998 481.969 275.284 481.457 275.747C468.45 270.836 472.949 262.46 481.594 262.48Z"/>
	<path fill="#B8B8FF" d="M54.4074 435.805C54.0074 435.627 54.2734 432.764 54.2711 431.993L54.5812 413.1L64.4054 293.883L66.6868 246.875C66.7438 245.202 67.081 243.551 67.1225 241.875L67.6414 216.009C67.6846 214.36 67.999 212.749 68.075 211.103L68.7966 182.804C69.0597 178.213 69.459 173.83 69.4811 169.205L69.7318 147.005C71.9374 116.814 68.497 79.7724 94.5249 58.2102L97.5478 55.7679C112.346 44.7054 131.025 43.1432 148.818 41.875L170.077 40.6347L219 39.0006C220.742 38.9435 222.453 38.6078 224.198 38.565L336.822 39.0356C345.401 39.3662 353.771 39.5873 362.292 40.8272C362.849 45.3285 362.68 49.9476 362.686 54.4645L362.702 77.5281C362.711 84.5622 362.54 91.2739 364.783 98.0428C370.712 115.938 386.587 120.502 403.576 120.495C411.327 120.491 416.742 119.781 416.413 110.302L443.415 113.653C443.424 114.559 443.508 115.528 443.388 116.425L443.222 116.774C442.781 117.766 442.754 119.192 442.639 120.266L440.859 140.046C436.906 173.251 408.156 208.494 385.412 231.445L374.289 241.74C373.41 245.02 372.998 248.046 370.607 250.675L370.535 251.22L371.745 251.174C372.339 250.385 372.267 249.047 373.36 249.946C375.891 252.028 377.676 252.805 378.783 256.152C378.098 256.297 377.374 256.389 376.754 256.728C378.375 259.167 380.998 259.465 382.127 262.375L382.5 262.623C382.963 262.434 383.341 262.198 383.757 261.921C386.476 264.401 387.761 266.415 388.771 270L388.989 270.758C395.705 266.187 400.13 268.829 402.778 275.905L405.095 282.025C427.562 343.844 404.465 412.425 347.643 447.175C310.436 469.929 254.804 477.455 214.306 458.592C212.493 456.962 210.273 455.373 208.07 454.315C207.017 454.623 206.139 454.467 205.082 454.315C204.819 454.74 204.771 454.966 204.315 455.199C184.187 446.285 176.297 444.648 157.986 430.649C154.484 432.947 115.368 434.498 108.815 434.828L57.6794 435.499C56.7716 435.498 54.9625 435.012 54.4074 435.805ZM193.537 445.902L208.07 454.315C210.273 455.373 212.493 456.962 214.306 458.592C254.804 477.455 310.436 469.929 347.643 447.175C404.465 412.425 427.562 343.844 405.095 282.025L402.778 275.905C400.13 268.829 395.705 266.187 388.989 270.758L388.771 270C387.761 266.415 386.476 264.401 383.757 261.921C383.341 262.198 382.963 262.434 382.5 262.623L382.127 262.375C380.998 259.465 378.375 259.167 376.754 256.728C377.374 256.389 378.098 256.297 378.783 256.152C377.676 252.805 375.891 252.028 373.36 249.946C372.267 249.047 372.339 250.385 371.745 251.174L370.535 251.22L370.607 250.675C372.998 248.046 373.41 245.02 374.289 241.74L374.274 241.253C373.946 238.903 372.478 236.23 370.7 234.717C368.763 234.005 367.29 233.889 365.938 235.545L365.747 235.369C364.645 234.336 363.773 233.12 362.694 232.067L355.493 225.692C298.641 178.82 222.251 186.935 172.04 240.118C143.552 270.293 128.937 313.313 134.485 354.511L136.414 365.296C142.593 392.586 156.729 415.334 177.679 433.498L192.488 445.07C192.769 445.285 193.377 445.631 193.537 445.902Z"/>
	<path fill="#1E1C1F" d="M165.069 152.855C168.39 152.676 173.508 153.579 174.047 157.695C175.18 166.363 166.917 166.562 161.25 166.899L110.864 170.244C97.8871 170.421 98.9576 159.018 107.393 157.213C111.514 156.331 115.982 156.578 120.186 156.213L165.069 152.855Z"/>
	<path fill="#1E1C1F" d="M216.478 85.3319C220.901 85.003 227.431 84.0091 230.946 87.0673C235.209 90.7765 233.206 99.2419 227.407 99.7888C225.139 100.003 222.697 99.8151 220.413 99.8086L204.934 99.7037C202.979 99.652 201.042 99.3579 199.088 99.3422L135.796 99.2595C130.662 99.2222 125.67 98.4867 120.115 98.502C116.34 98.5046 112.113 98.7888 108.379 98.3081L108 98.253C100.916 97.276 99.3114 88.9737 106.764 86.0823L107.125 85.9464C109.927 84.8723 114.421 85.4574 117.425 85.4579L138.651 85.5328C140.331 85.5765 141.961 85.8886 143.632 85.9857L216.478 85.3319Z"/>
	<path fill="#1E1C1F" d="M275.919 119.081L287.375 118.756C289.61 118.752 292.493 118.413 294.631 119.107L295.736 119.487C298.999 120.746 300.73 124.951 299.417 128.183L299.278 128.5C296.369 135.267 288.632 133.674 282.651 133.682L211.399 133.743C207.542 133.756 203.752 134.402 199.954 134.428L151.449 134.53L124.082 135.529L113.582 135.576C110.705 135.586 107.379 136.039 104.75 134.692C98.4624 131.473 99.4137 124.309 106.39 122.456C108.28 121.954 110.906 122.231 112.877 122.224L127 122.084C131.999 121.99 136.832 121.316 141.817 121.289L151.648 121.204C154.431 121.154 157.135 120.655 159.875 120.552L179.65 120.451C182.025 120.422 184.282 120.03 186.631 119.874C192.518 119.484 200.379 119.31 206.443 119.236L275.919 119.081Z"/>
	<path fill="#9381FF" d="M155.791 428.869L155.59 428.792C154.17 427.976 152.707 426.446 151.521 425.322C134.222 408.934 124.403 387.687 119.87 364.503L117.33 348.196C116.616 343.276 116.987 337.853 116.979 332.869C116.85 259.995 169.955 190.142 243.266 179.072L255.375 177.552C256.303 177.41 257.505 177.267 258.078 176.5L258.375 175.986C262.136 176.109 267.458 175.4 271.875 175.4C291.435 175.397 309.92 178.752 328.434 185.315C340.891 189.732 371.318 205.391 377.481 218.348C377.027 224.201 374.69 230.362 370.7 234.717C368.763 234.005 367.29 233.889 365.938 235.545L365.747 235.369C364.645 234.336 363.773 233.12 362.694 232.067L355.493 225.692C298.641 178.82 222.251 186.935 172.04 240.118C143.552 270.293 128.937 313.313 134.485 354.511L136.414 365.296C142.593 392.586 156.729 415.334 177.679 433.498L192.488 445.07C192.769 445.285 193.377 445.631 193.537 445.902L208.07 454.315C207.017 454.623 206.139 454.467 205.082 454.315C204.819 454.74 204.771 454.966 204.315 455.199C184.187 446.285 176.297 444.648 157.986 430.649L155.791 428.869Z"/>
	<defs>
		<linearGradient id="gradient_0" gradientUnits="userSpaceOnUse" x1="182.158" y1="439.45401" x2="178.44099" y2="444.76199">
			<stop offset="0" stop-color="#372DA0"/>
			<stop offset="1" stop-color="#5248B8"/>
		</linearGradient>
	</defs>
	<path fill="url(#gradient_0)" d="M155.791 428.869C156.581 428.857 157.072 429.128 157.768 429.485L167.846 435.146C170.208 436.446 191.085 447.573 192.484 447.143C196.678 449.444 200.68 452.466 205.082 454.315C204.819 454.74 204.771 454.966 204.315 455.199C184.187 446.285 176.297 444.648 157.986 430.649L155.791 428.869Z"/>
	<path fill="#1E1C1F" d="M318.433 288.617C330.423 288.044 338.64 304.686 341.251 314.25C342.357 318.305 341.787 321.402 338.928 324.625L337.875 322.738C335.404 323.671 332.846 325.99 330.721 327.602L262.371 380.871C254.98 386.067 246.001 391.068 236.587 389.331L236.25 389.266C229.279 388.071 223.646 383.226 219.313 377.886L208.691 364.616C205.381 360.181 202.376 355.572 199.779 350.682C190.549 333.304 200.292 315.958 219.188 315.512C230.705 315.24 237.663 321.877 245.44 329.328L302.769 294.979C307.851 291.922 312.294 288.939 318.433 288.617ZM319.51 303.435C314.628 307.371 309.354 310.78 304.123 314.227L258.469 342.998C254.082 345.847 245.523 353.328 239.875 350.715L239.503 350.547C231.304 346.754 230.236 334.712 220.678 332.936C215.706 332.013 214.569 336.418 215.932 340.5C217.468 345.1 220.401 348.882 223.339 352.675C227.478 357.873 237.117 372.683 244.25 371.336L244.632 371.267C247.609 370.692 250.681 369.057 253.312 367.576L263.53 361.292L319.841 319.841C321.974 318.13 324.839 316.241 326.334 313.946L326.47 313.708C324.409 309.967 322.363 306.628 319.51 303.435Z"/>
	<path fill="#1E1C1F" d="M193.537 445.902C193.377 445.631 192.769 445.285 192.488 445.07L177.679 433.498C156.729 415.334 142.593 392.586 136.414 365.296L134.485 354.511C128.937 313.313 143.552 270.293 172.04 240.118C222.251 186.935 298.641 178.82 355.493 225.692L362.694 232.067C363.773 233.12 364.645 234.336 365.747 235.369L365.938 235.545C363.59 239.006 361.21 242.714 357.25 244.494L356.872 244.67C351.191 247.27 350.785 244.287 346.344 240.68C311.887 212.691 269.018 205.173 226.783 220.203C180.584 236.644 148.394 282.849 146.806 331.612C145.104 383.86 179.179 434.122 229.423 449.682C241.879 453.54 254.478 454.652 267.437 454.636C312.137 454.58 356.15 435.616 380.794 397.5C402.036 364.644 405.532 324.422 392.462 287.746C391.671 285.524 390.931 283.217 389.912 281.087C387.949 276.983 385.128 275.037 388.989 270.758C395.705 266.187 400.13 268.829 402.778 275.905L405.095 282.025C427.562 343.844 404.465 412.425 347.643 447.175C310.436 469.929 254.804 477.455 214.306 458.592C212.493 456.962 210.273 455.373 208.07 454.315L193.537 445.902Z"/>
</svg>
