<?xml version="1.0" encoding="utf-8" ?>
<svg xmlns="http://www.w3.org/2000/svg" xmlns:xlink="http://www.w3.org/1999/xlink" width="512" height="512">
	<path fill="#181717" d="M493.648 230.282C496.705 230.142 499.512 231.34 500.963 234.204L501.213 234.681C503.138 238.288 502.267 243.735 498.366 245.705L498.125 245.82C497.237 246.258 496.424 246.455 495.451 246.637C485.728 245.302 483.635 234.08 493.648 230.282Z"/>
	<path fill="#181717" d="M425.31 266.654L428.096 266.546C428.754 267.133 429.458 267.701 429.942 268.447L430.083 268.671C439.302 282.968 408.884 282.853 401.021 280.766C392.512 278.022 391.517 268.214 399.932 267.212L400.25 267.179C403.569 266.818 407.074 267.468 410.422 267.511C415.477 267.577 420.292 267.097 425.31 266.654Z"/>
	<path fill="#181717" d="M422.678 395.787L423.009 395.292C435.02 393.937 437.648 408.182 415.452 409.828L402.242 410.217C398.036 409.835 393.069 408.159 392.547 403.222C391.856 396.686 399.134 395.96 403.863 395.988L411.714 396.02C415.273 396.023 418.755 395.788 422.295 395.431L422.678 395.787Z"/>
	<path fill="#181717" d="M421.623 183.624C423.798 183.196 427.247 182.87 429.261 183.63C432.033 184.675 433.308 189.209 432.155 191.745L432.034 192C429.548 197.811 422.336 197.321 417.132 197.331L402.437 197.347C389.753 197.528 388.7 186.239 396.226 184.09C398.648 183.398 402.108 183.832 404.672 183.821L421.623 183.624Z"/>
	<path fill="#181717" d="M428.814 305.592C435.522 304.947 436.997 316.29 426.057 320.654C421.607 322.429 405.066 321.291 400.426 320.347C395.32 318.411 391.149 314.465 395.25 309.11C398.163 305.305 415.106 307.305 420.75 306.844C423.443 306.625 426.126 305.946 428.814 305.592Z"/>
	<path fill="#181717" d="M426.722 227.238C429.564 227.641 431.856 229.511 432.642 232.352L432.82 233.186C435.098 244.404 413.251 243.298 406.719 243.306C403.507 243.31 399.701 243.675 396.75 242.233C389.266 238.577 390.163 229.744 396.732 229.164L409.441 229.252C415.331 229.25 421.102 229.22 426.722 227.238Z"/>
	<path fill="#181717" d="M425.164 349.661L426.41 349.536C432.573 349.305 435.525 356.713 431.066 361.065C426.843 365.188 417.744 364.611 412.157 364.648L400.687 364.662C390.862 363.488 387.447 353.083 396.285 351.055L396.576 350.991C398.922 350.404 401.411 350.481 403.82 350.453L425.164 349.661Z"/>
	<path fill="#181717" d="M228.197 103.608C231.284 103.385 241.047 102.432 243.444 104.035C246.459 106.052 248.163 110.138 245.791 113.382L245.625 113.596C244.75 114.75 243.783 115.72 242.355 116.126L242 116.222C239.812 116.865 237.416 116.739 235.149 116.745L199.996 116.798C196.819 116.807 193.723 117.285 190.594 117.341L158.938 117.368C154.904 117.483 149.909 118.092 146.008 117.173C139.402 115.616 139.408 107.658 144.997 104.916L145.375 104.733C149.297 102.764 155.657 103.671 159.902 103.66L228.197 103.608Z"/>
	<path fill="#181717" d="M260.76 71.7697C263.307 71.5514 266.401 72.1934 267.817 74.5462L268.061 74.9816C270.329 78.9885 267.656 85.0107 262.878 85.3606L148.687 86.8916C138.582 87.148 138.531 74.3978 145.694 73.4123C148.993 72.9583 152.73 73.2653 156.075 73.2607L177.625 73.2054C180.278 73.172 182.864 72.5104 185.472 72.4847L260.76 71.7697Z"/>
	<path fill="#181717" d="M144.466 436.148C139.923 432.488 139.951 423.313 146.867 423.065C152.911 422.849 159.074 423.267 165.109 423.542L203.37 425.209L224.625 425.303C226.614 425.379 228.569 425.967 230.606 426.035L258.385 426.719L356.74 426.762C361.052 426.761 366.709 425.726 369.995 429C373.944 432.935 372.2 437.455 367.743 440.017L367.424 440.168C364.932 441.241 309.482 440.647 302.45 440.638L253.125 440.544C250.934 440.481 248.789 440.026 246.625 439.936L210.935 438.76C209.41 438.662 207.903 438.386 206.375 438.334L188.329 438.154C186.08 438.071 183.9 437.536 181.673 437.463L150.685 437.333C149.191 437.318 147.444 437.394 146.045 436.828L144.466 436.148Z"/>
	<path fill="#B8B8FF" d="M369.296 460.504L418.469 458.564C435.862 457.534 444.082 455.829 450.562 437.25C454.431 426.158 455.747 414.392 457.542 402.842L463.663 358.865L468.731 283.676C468.81 281.822 469.165 280.006 469.214 278.138L469.661 249.125C469.734 247.193 470.117 245.295 470.217 243.375L470.266 211.503C470.27 207.83 470.059 204.039 470.385 200.388C470.889 194.725 474.777 195.147 475.994 199.969C476.497 201.958 476.514 204.37 476.645 206.423L477.327 215.625C477.684 220.785 478.388 225.955 478.465 231.123L478.556 244.409C478.611 249.03 478.794 257.237 482.225 260.631C483.819 262.209 485.174 263.306 486.625 265.066C486.642 264.135 486.738 263.272 486.904 262.357L487.735 343.073C487.754 346.094 488.42 349.068 488.462 352.12L488.434 443.428C488.39 444.97 487.771 456.471 487.054 457.473C486.216 458.401 486.127 459.302 485.732 460.435L483.987 465C480.003 474.176 477.646 474.146 472.721 480.223L453.875 480.224C452.53 480.259 451.206 480.547 449.864 480.63L409.135 480.844L347.332 484.334C337.571 484.573 328.485 485.054 318.782 485.572L281.922 487.512L249.639 487.613C246.715 487.637 243.826 488.186 240.875 488.215L152.204 488.222C150.098 488.18 148.05 487.746 145.947 487.666L133.926 487.461L135.423 487.062C134.462 486.908 133.367 486.778 132.405 486.935L132.125 487C130.916 486.459 128.557 486.553 127.164 486.463L126.375 486.377C125.005 486.377 123.768 486.194 122.375 486.127L122 486.125C118.476 485.549 119.799 485.721 123.205 483.116L120.197 480.93C123.758 480.97 127.348 481.745 130.926 481.4C125.061 480.902 119.019 480.874 113.4 478.941C109.907 477.178 106.347 475.981 103.271 473.404L103.02 473.191C99.5278 470.272 97.9532 466.949 96.08 462.932L96 461.324C99.502 461.334 102.932 461.954 106.396 462.398L120.707 463.9C121.18 463.894 121.52 464.018 122.057 464.05L369.296 460.504Z"/>
	<path fill="#181717" d="M140.059 9.95006L323.47 10.5248C365.628 11.6929 384.098 16.0596 418.81 43.7542L453.05 73.7089C467.537 87.4105 500.327 116.128 496.18 138.25C495.715 140.731 497.215 142.866 497.985 145.14C499.774 150.424 499.445 156.195 499.865 161.688L502.269 201.925C502.441 204.439 503.004 212.62 502.163 214.904L501.997 215.25C501.171 217.104 499.721 218.593 497.839 219.423L497.516 219.56C496.652 219.94 495.896 220.242 494.943 220.266C485.776 220.492 486.883 209.438 486.899 203.835L486.779 184.949L484.677 142.949C482.1 141.098 468.203 140.957 464.946 140.962L435.652 142.342C421.306 143.488 407.444 144.676 393.196 141.264C363.313 132.825 359.291 114.376 359.26 86.5386L359.243 27.88L354.158 27.0662C342.439 24.9044 330.453 24.6791 318.577 24.6672L221.709 24.7798C219.475 24.833 217.313 25.3981 215.125 25.4649L160.388 26.0274C144.935 26.4124 116.814 26.3642 103.469 35.4687C89.5007 44.9981 87.7092 65.9906 86.2017 81.25L84.3217 105.633L84.2915 132.646C84.324 134.83 84.7616 137.833 84.1734 139.902L83.8306 140.766C82.078 144.437 75.6974 145.44 72.4242 143.625C68.0579 141.204 68.2302 122.917 68.036 116.378L67.8558 85.8197C67.8596 70.2703 67.2561 52.9403 74.5811 38.7266C86.4027 15.7873 116.718 10.8038 140.059 9.95006Z"/>
	<path fill="#9381FF" d="M372.546 36.2994C379.538 40.8642 385.887 45.8757 392.283 51.0469L426.097 80.287C442.873 95.2969 459.841 110.057 474.875 126.847C474.42 127.101 473.356 126.837 472.807 126.772L416.216 128.483C370.836 128.939 372.523 111.629 372.533 74.7166L372.546 36.2994Z"/>
	<path fill="#181717" d="M16.3524 231.398L16.1179 231.308C7.37267 227.812 10.0061 221.82 10.2091 214.442C10.5174 203.239 10.2449 181.057 16.2296 171.993C23.8698 160.421 40.4924 159.206 53 157.753L81.8301 155.106L146.625 151.564C148.876 151.383 151.05 150.94 153.322 150.867L239.6 150.807C245.202 150.895 252.772 150.596 258.127 151.051L314.693 154.302C326.228 155.262 343.791 155.706 353.547 162.375L353.92 162.625C357.301 164.945 359.951 168.484 361.506 172.25L361.675 172.65C363.078 176.018 363.871 179.928 364.57 183.499L367.333 198.851L372.393 249.451L372.632 268.75C372.714 271.864 373.209 274.929 373.207 278.073C373.204 281.229 372.67 284.313 372.611 287.473L372.476 306.65L370.23 344.99C368.595 373.946 357.482 378.712 329.79 380.789L286.125 383.311L215.875 385.429C213.65 385.571 211.489 386.034 209.233 386.101L111.022 386.112C109.064 386.075 107.196 385.623 105.25 385.495L85.9734 384.754L85.9024 451.79C86.5232 471.438 94.1345 480.067 112.437 485.083L129.423 487.245C130.787 487.351 132.69 487.092 133.926 487.596L145.947 487.666C148.05 487.746 150.098 488.18 152.204 488.222L240.875 488.215C243.826 488.186 246.715 487.637 249.639 487.613L281.922 487.512L318.782 485.572C328.485 485.054 337.571 484.573 347.332 484.334L409.135 480.844L449.864 480.63C451.206 480.547 452.53 480.259 453.875 480.224L472.721 480.207C477.646 474.146 480.003 474.176 483.987 465L485.732 460.435C486.127 459.302 486.216 458.401 487.054 457.473C487.771 456.471 488.39 444.97 488.434 443.428L488.462 352.12C488.42 349.068 487.754 346.094 487.735 343.073L486.893 262.357C488.12 258.939 491.947 254.18 496.134 255.871L497.153 256.376C501.059 258.328 501.516 261.346 501.519 265.188L501.569 381.484C501.62 383.962 502.254 386.359 502.335 388.864L502.387 419.082C502.368 457.594 500.533 493.834 453.628 498.037C443.957 498.903 434.295 498.745 424.59 498.749L364.084 499.252L310 499.79L272.202 500.927C270.667 500.964 269.165 501.252 267.627 501.295L228.412 502.335L159.375 502.338C156.974 502.267 154.598 501.865 152.172 501.822L99.379 500.722C66.6212 498.619 65.6914 473.135 65.7489 445.582L65.9481 423.261L68.6133 383.5L52.4092 381.982C15.4455 377.666 12.7532 363.305 9.75744 331.375C9.02846 323.605 8.39814 315.853 8.34078 308.053L8.28 288.143C8.24482 284.565 6.37381 279.376 8.6138 276.349C10.4731 273.836 14.1204 272.084 15.3245 269.282C15.8363 266.903 14.1841 263.818 15.3935 261.505C15.5774 261.153 15.5258 261.194 15.461 260.792L15.1791 260.719C12.5267 259.829 9.22888 254.977 8.08925 252.604C9.08161 247.872 11.6712 245.767 15.2992 243.012C15.8887 241.565 15.8764 239.601 16.0532 238.041L16.3524 231.398ZM146.315 182.885C137.922 184.336 127.08 184.929 118.3 185.352L95.1064 186.495L58.5461 189.518C52.7543 190.055 46.9937 191.315 41.191 191.738C36.0882 192.11 31.2123 191.684 26.127 191.416C25.5029 196.466 24.9628 201.504 24.848 206.595L24.6672 219.988C24.4256 225.904 23.7044 230.603 16.3524 231.398L16.0532 238.041C15.8764 239.601 15.8887 241.565 15.2992 243.012C11.6712 245.767 9.08161 247.872 8.08925 252.604C9.22888 254.977 12.5267 259.829 15.1791 260.719L15.461 260.792C15.5258 261.194 15.5774 261.153 15.3935 261.505C14.1841 263.818 15.8363 266.903 15.3245 269.282L15.5094 269.412C24.0762 275.559 22.7477 277.239 22.7584 286.746L22.7853 306.765C22.8599 315.785 24.0484 324.501 25.0899 333.435L55.8024 307.125L106.757 267.114C111.295 263.864 119.195 257.462 124.203 263.46C126.772 266.535 125.931 270.408 123.492 273.239C126.676 284.469 129.373 307.414 140.375 313.672L141.875 314.443C142.325 314.289 142.713 314.155 143.11 313.891L143.517 314.136C147.243 316.458 148.474 320.306 153.703 319.187C166.204 316.51 185.608 297.886 195.463 289.919L233.472 258.878C236.32 256.36 238.698 253.495 241.442 250.904C247.988 256.454 253.81 262.875 259.876 268.932L321.56 332.452C326.904 337.804 334.774 346.865 343.151 346.162C346.366 345.892 351.767 343.624 351.813 339.729C352.665 340.88 354.517 341.055 355.751 341.868L358.424 303.142C358.534 300.976 359.036 298.815 359.128 296.676L359.256 282.555C359.344 272.477 359.304 262.545 358.437 252.5L357.77 243.196C357.568 243.734 357.489 244.312 357.377 244.875L356.75 244.877C356.529 244.229 356.438 243.553 356.168 242.918C352.547 234.421 350.25 225.384 347.76 216.5L343.405 201.744C342.009 196.705 338.906 181.33 334.52 178.25L334.22 178.049C331.66 176.307 329.051 176.572 326.05 176.555L309.168 176.078C307.807 175.944 306.502 175.644 305.125 175.591L266.448 175.59L209.384 178.642L159.437 181.149L146.315 182.885ZM26.127 191.46C31.2123 191.684 36.0882 192.11 41.191 191.738C46.9937 191.315 52.7543 190.055 58.5461 189.518L95.1064 186.495L118.3 185.352C127.08 184.929 137.922 184.336 146.315 182.885L159.437 181.149L209.384 178.642L266.448 175.59L305.125 175.591C306.502 175.644 307.807 175.944 309.168 176.078L326.05 176.555C329.051 176.572 331.66 176.307 334.22 178.049L334.52 178.25C338.906 181.33 342.009 196.705 343.405 201.744L347.76 216.5C350.25 225.384 352.547 234.421 356.168 242.918C356.438 243.553 356.529 244.229 356.75 244.877L357.377 244.875C357.489 244.312 357.568 243.734 357.751 243.196C357.34 225.262 355.124 206.331 351.244 188.828C348.033 174.341 345.925 171.943 330.625 169.24L330.25 169.157C325.84 168.212 320.886 168.083 316.393 167.685L267.681 164.236C265.95 164.13 264.317 163.694 262.55 163.634L186.758 163.6C181.663 163.76 176.877 164.326 171.397 164.411L150.593 164.886C149.105 164.942 147.646 165.256 146.161 165.323L131.689 165.785C105.482 167.026 79.1026 168.891 53.1235 172.605L40.2676 174.366C27.2832 176.297 28.6568 178.888 26.127 191.46ZM487.054 457.473C486.216 458.401 486.127 459.302 485.732 460.435L483.987 465C480.003 474.176 477.646 474.146 472.721 480.223C482.486 480.889 483.956 478.638 485.57 468.875L487.054 457.473Z"/>
	<path fill="#9381FF" d="M143.11 313.891L143.517 314.136C147.243 316.458 148.474 320.306 153.703 319.187C166.204 316.51 185.608 297.886 195.463 289.919L233.472 258.878C236.32 256.36 238.698 253.495 241.442 250.904C247.988 256.454 253.81 262.875 259.876 268.932L321.56 332.452C326.904 337.804 334.774 346.865 343.151 346.162C346.366 345.892 351.767 343.624 351.813 339.729C352.665 340.88 354.517 341.055 355.751 341.868C355.846 361.865 350.87 364.405 330.913 366.289L309.875 367.709L235.5 371.437L213.695 371.597C211.812 371.65 209.996 372.085 208.125 372.154L126.463 372.681C124.269 372.641 122.113 372.319 119.929 372.228L109.929 372.023C108.41 371.935 106.881 371.652 105.375 371.602L84.8911 371.377C76.4647 370.988 67.813 369.868 59.4746 368.632C47.272 366.823 31.9133 365.808 28.009 351.76C29.4495 349.528 31.6351 347.648 33.5396 345.816L45.812 334.69L53.0501 328.298L123.492 273.239C126.676 284.469 129.373 307.414 140.375 313.672L141.875 314.443C142.325 314.289 142.713 314.155 143.11 313.891Z"/>
	<defs>
		<linearGradient id="gradient_0" gradientUnits="userSpaceOnUse" x1="43.958099" y1="362.09698" x2="332.259" y2="174.258">
			<stop offset="0" stop-color="#A69EFF"/>
			<stop offset="1" stop-color="#E9FDFC"/>
		</linearGradient>
	</defs>
	<path fill="url(#gradient_0)" d="M146.315 182.885L159.437 181.149L209.384 178.642L266.448 175.59L305.125 175.591C306.502 175.644 307.807 175.944 309.168 176.078L326.05 176.555C329.051 176.572 331.66 176.307 334.22 178.049L334.52 178.25C338.906 181.33 342.009 196.705 343.405 201.744L347.76 216.5C350.25 225.384 352.547 234.421 356.168 242.918C356.438 243.553 356.529 244.229 356.75 244.877L357.377 244.875C357.489 244.312 357.568 243.734 357.77 243.196L358.437 252.5C359.304 262.545 359.344 272.477 359.256 282.555L359.128 296.676C359.036 298.815 358.534 300.976 358.424 303.142L355.751 341.868C354.517 341.055 352.665 340.88 351.813 339.729C351.767 343.624 346.366 345.892 343.151 346.162C334.774 346.865 326.904 337.804 321.56 332.452L259.876 268.932C253.81 262.875 247.988 256.454 241.442 250.904C238.698 253.495 236.32 256.36 233.472 258.878L195.463 289.919C185.608 297.886 166.204 316.51 153.703 319.187C148.474 320.306 147.243 316.458 143.517 314.136L143.11 313.891C142.713 314.155 142.325 314.289 141.875 314.443L140.375 313.672C129.373 307.414 126.676 284.469 123.492 273.239C125.931 270.408 126.772 266.535 124.203 263.46C119.195 257.462 111.295 263.864 106.757 267.114L55.8024 307.125L25.0899 333.435C24.0484 324.501 22.8599 315.785 22.7853 306.765L22.7584 286.746C22.7477 277.239 24.0762 275.559 15.5094 269.412L15.3245 269.282C15.8363 266.903 14.1841 263.818 15.3935 261.505C15.5774 261.153 15.5258 261.194 15.461 260.792L15.1791 260.719C12.5267 259.829 9.22888 254.977 8.08925 252.604C9.08161 247.872 11.6712 245.767 15.2992 243.012C15.8887 241.565 15.8764 239.601 16.0532 238.041L16.3524 231.398C23.7044 230.603 24.4256 225.904 24.6672 219.988L24.848 206.595C24.9628 201.504 25.5029 196.466 26.127 191.416C31.2123 191.684 36.0882 192.11 41.191 191.738C46.9937 191.315 52.7543 190.055 58.5461 189.518L95.1064 186.495L118.3 185.352C127.08 184.929 137.922 184.336 146.315 182.885ZM249.718 231.421C258.58 236.421 274.618 251.607 281.935 258.592L316.162 294.237L316.179 293.7C314.771 291.68 312.215 290.935 312.695 288.341L312.245 287.774C310.903 285.833 310.149 285.778 309.945 283.204L309.688 283.188C309.093 282.725 305.643 279.622 305.143 279.122L292.385 265.615C291.05 264.279 289.209 262.655 288.613 260.845L288.438 261.188C287.735 260.719 288.208 260.694 287.909 260.091C287.43 259.128 285.738 257.506 285.008 256.555L284.836 256.336C285.45 256.302 286.013 256.284 286.6 256.081L285.812 255.938C284.606 255.828 284.642 255.065 283.438 254.812L282.716 253.534C281.633 252.631 281.666 251.944 280.875 251L280.879 250.688C280.392 249.965 279.257 249 278.312 248.938C278.884 247.661 281.041 248.56 282.238 248.05L278.125 247.75C277.854 247.361 277.673 247.142 277.269 246.873L276.938 246.67C276.73 246.121 276.321 245.9 275.944 245.483L274.562 244.938L274.688 244.438C273.667 243.825 273.603 242.959 272.25 243.5L271.5 243.125C270.986 242.962 270.326 242.619 269.844 242.539L269.5 242.5C268.821 241.893 267.618 241.248 266.75 241L266.435 240.69C266.214 240.543 265.948 240.473 265.723 240.333L265.125 240.25C263.553 239.115 261.782 238.263 260.312 236.938L260.106 236.086C259.297 236.055 258.456 235.534 257.794 235.089L255.938 233.812C255.536 232.699 253.588 230.891 256.139 231.1L256.319 230.194L258.428 229.303C259.294 229.524 260.193 229.363 261.029 229.721C262.477 230.34 264.124 229.676 265.597 230.111L266.64 229.765C267.856 230.166 268.842 230.674 269.991 231.156L270.626 231.562C273.294 233.586 273.37 234.357 274.836 236.601L275.125 237C275.351 237.326 275.477 237.538 275.789 237.789L276.024 237.976C276.296 238.263 276.333 238.422 276.68 238.702L277.024 238.976C277.521 239.492 278.819 240.361 278.938 241.188L279.178 241.947C280.032 242.631 279.646 242.81 280.04 243.585C280.646 244.777 282.904 247.405 284 247.875C283.791 248.294 283.791 248.375 283.803 248.822L285.125 249.75C285.393 250.071 285.551 250.357 285.865 250.659L286.178 250.947C287.947 252.594 289.411 252.501 290.75 255.625L290.125 255.75C289.575 255.935 289.668 255.935 289.125 255.877L291.375 256.25C292.491 257.31 297.334 262.202 296.351 263.438L296.875 264.25C297.275 266.01 297.998 265.339 298.951 266.292C302.214 269.555 310.936 278.923 311.188 282.188L311.188 282.562C311.835 282.895 312.04 283.188 312.387 283.797L312.5 284C315.291 285.213 315.102 289.379 317.076 291.171C314.314 280.179 276.343 231.969 267.64 229.005L267.231 228.875C264.304 227.922 252.252 228.798 249.718 231.421Z"/>
	<path fill="#181717" d="M15.2992 243.012C25.1368 244.156 29.3164 258.692 15.4893 260.792L15.1791 260.719C12.5267 259.829 9.22888 254.977 8.08925 252.604C9.08161 247.872 11.6712 245.767 15.2992 243.012Z"/>
	<path fill="#F8F7FF" d="M170.792 199.088C173.54 197.224 191.134 206.561 192.689 209.125C193.85 211.041 195.968 224.438 193.871 225.313C190.597 226.679 186.481 225.201 183.333 224.211C185.767 213.843 178.388 205.165 170.792 199.088Z"/>
	<path fill="#181717" d="M156.143 194.524C162.235 194.117 165.659 195.649 170.792 199.088C178.388 205.165 185.767 213.843 183.333 224.211C181.841 227.544 179.864 230.394 177.381 233.071C171.979 238.995 163.72 241.553 155.784 240.357L155.375 240.291C146.04 238.95 137.507 232.002 135.747 222.485L135.524 221.259C133.037 206.723 142.268 196.864 156.143 194.524Z"/>
	<path fill="#FFC505" d="M159.742 208.085C171.868 208.863 174.103 223.952 160.971 226.486C146.302 227.441 147.684 209.749 159.742 208.085Z"/>
	<path fill="#181717" d="M204.081 264.506L238.679 233.189C241.803 230.746 245.963 230.968 249.718 231.421C258.58 236.421 274.618 251.607 281.935 258.592L316.162 294.237L336.541 319.488C340.264 323.99 349.878 334.371 351.813 339.729C351.767 343.624 346.366 345.892 343.151 346.162C334.774 346.865 326.904 337.804 321.56 332.452L259.876 268.932C253.81 262.875 247.988 256.454 241.442 250.904C238.698 253.495 236.32 256.36 233.472 258.878L195.463 289.919C185.608 297.886 166.204 316.51 153.703 319.187C148.474 320.306 147.243 316.458 143.517 314.136L143.11 313.891C145.842 309.121 150.769 306.515 155.2 303.549L204.081 264.506Z"/>
</svg>
