<svg width="512" height="512" viewBox="0 0 512 512" fill="none" xmlns="http://www.w3.org/2000/svg">
<path d="M235.809 3.63599L258.125 3.66242C274.602 4.49547 291.061 6.90655 307.087 10.822C376.768 27.8459 409.245 70.0643 419.904 138.875C421.291 147.823 422.699 156.861 422.754 165.931C456.156 171.975 464.084 201.182 467.84 230.999L470.285 254.42L471.38 292.848C471.386 298.517 472.097 304.034 472.188 309.695L472.147 361.777L469.348 408.04C464.068 472.883 456.205 493.613 383.163 501.726C358.472 504.468 333.652 505.006 308.875 506.283L275.214 507.546L184.57 508.375L177.9 507.874C146.882 506.798 120.07 503.718 90.75 492.997C82.7397 490.068 74.3984 487.122 68.083 481.158C52.39 466.34 48.9799 436.044 46.4332 415.713L42.2745 373.225L40.5036 341.838C40.38 339.448 39.9343 337.122 39.8691 334.705L39.8465 284.06L41.241 264C43.6449 231.756 48.4019 184.926 85.914 174.661C86.758 174.43 86.3468 172.855 86.3761 172.069L88.3885 146.11C91.8777 113.319 99.1895 78.6485 122.706 53.9771C150.344 24.982 195.295 4.53828 235.809 3.63599ZM348.054 178.959L347.845 179.078C345.545 180.363 347.053 179.339 345.875 181C345.73 181.204 345.573 180.432 345.229 181.479L345.688 183.183L335.185 183.581L265.891 191.46C263.66 191.785 261.036 191.929 258.906 192.638C258.082 192.913 257.604 193.695 256.8 194.001L257.063 194.488C257.349 197.44 251.635 204.758 248.5 205.072C245.32 205.39 241.898 205.015 238.697 205L219.75 204.986C209.049 205 194.774 204.348 185.186 209.666L184.768 209.894C176.951 214.256 167.237 232.796 161.03 232.138L146.583 230.782C140.014 230.567 133.198 230.736 126.934 232.96C106.796 240.111 96.481 264.32 91.2221 283.502C82.2757 316.133 77.2427 347.303 80.2582 381.125L83.1436 410.903C83.6821 415.782 83.2753 420.759 83.8652 425.625C85.6042 439.971 87.2686 454.951 91.125 468.905C91.5076 470.289 94.3177 476.621 93.5736 477.155C96.6448 477.826 99.7439 479.092 102.739 480.075L118.839 484.963C126.532 487.011 134.289 488.621 142.172 489.74L162.02 491.888C169.019 492.634 176.429 492.209 183.475 492.213L280.393 492.132C282.862 492.075 285.207 491.378 287.638 491.307L307.268 491.171L366.925 488.95C392.746 487.724 431.475 483.591 444.383 456.994C448.674 448.153 450.609 437.909 452.195 428.273L459.129 373.37C452.02 379.495 448.618 386.671 444.377 394.918C442.454 398.656 440.101 402.498 435.828 403.776C431.805 404.979 425.654 403.042 424.784 398.375C423.844 393.326 429.947 389.406 432.393 385.575C430.31 378.417 431.654 376.568 437.297 371.933L440.813 369.109C439.922 368.369 439.333 367.605 438.692 366.643C440.994 362.017 435.311 358.776 434.796 354.853L434.791 354.817C430.974 351.441 430.154 347.169 433.064 342.968C432.534 341.404 433.716 339.278 434.375 337.821C438.578 327.978 444.634 318.298 451.284 309.904C453.19 308.102 455.769 305.897 456.862 303.5C456.186 297.106 457.746 301.596 453.228 300.146L448.719 304.161L445.539 306.116C444.116 306.859 442.124 307.655 440.538 307.115L440.125 306.962C429.208 303.101 433.771 298.374 439.146 293.114L441.812 289.812C442.406 288.923 443.074 288.398 443.742 287.582L446.377 284.125C447.389 283.366 447.852 282.111 448.77 281.305L449.875 280C450.047 279.484 450.377 279.268 450.715 278.855L451.5 277.875C451.734 277.518 451.792 277.317 452.113 276.996L453.5 274.875L452.428 274.006C451.477 273.268 450.932 272.452 450.233 271.485C447.786 273.823 444.346 277.279 441.112 278.027L440.836 278.086C439.575 278.368 438.531 278.344 437.289 277.975L437.34 277.662L436.971 277.378C433.75 275.23 430.98 272.091 430.224 268.194C436.555 258.573 452.126 254.636 452.379 241.196L436.194 244.93C429.838 245.92 428.051 240.342 429.806 236.539C430.49 235.904 438.082 233.324 440.584 231.88L451.989 225.046C451.99 223.514 451.384 221.698 451.078 220.165C448.431 206.898 442.759 193.434 430.412 186.49C421.444 181.445 409.994 181.517 399.976 180.406L399.92 180.308C395.471 179.278 385.921 178.792 381.301 179.473C380.089 179.911 377.098 179.532 375.684 179.525L348.054 178.959ZM171.507 90.2914L158.586 106.751C157.687 107.968 152.284 114.247 154.067 114.835C164.594 118.279 159.054 129.038 157.779 136.018L153.839 164.786L348.951 162.193L346.748 147.375C345.384 139.309 343.777 131.175 340.974 123.472C318.664 62.1723 253.012 43.089 199.125 80.0913L189.142 87.5002C182.429 92.9312 180.092 96.7108 171.507 90.2914ZM115.262 169.239L136.474 166.762C137.858 166.469 137.397 163.677 137.529 162.492C138.757 151.515 140.49 140.491 143.167 129.767C144.769 123.351 146.4 116.21 154.067 114.835C152.284 114.247 157.687 107.968 158.586 106.751L171.507 90.2914C170.684 88.7987 169.31 86.8026 169.656 85.0251L169.716 84.75C170.993 78.785 186.188 68.0622 190.9 64.9096C213.09 50.0612 241.998 42.1784 268.76 44.793C275.446 45.4462 281.686 47.3222 288.224 48.6249C317.46 57.4619 335.428 75.5299 349.982 102.5C359.769 120.637 363.853 141.471 366.459 161.747L388.51 162.874C389.127 163.138 390.397 163.143 391.083 163.178L396.75 163.398C400.233 163.553 403.778 163.732 407.223 164.262L407.199 163.403C405.77 118.256 388.506 72.1116 350.015 46.1119C332.726 34.4337 312.381 27.8129 291.975 24.2047L278.121 22.3809C275.671 22.1289 273.118 21.7195 270.659 21.7274C265.087 21.2236 259.572 21.2023 253.982 21.2004L232.211 21.9875C223.636 22.7155 215.161 23.4578 206.711 25.1827C169.174 32.8451 132.204 57.725 117.117 93.7929C109.984 110.844 106.065 129.524 104.514 147.904L103.174 170.873L115.262 169.239ZM93.5736 477.155C94.3177 476.621 91.5076 470.289 91.125 468.905C87.2686 454.951 85.6042 439.971 83.8652 425.625C83.2753 420.759 83.6821 415.782 83.1436 410.903L80.2582 381.125C77.2427 347.303 82.2757 316.133 91.2221 283.502C96.481 264.32 106.796 240.111 126.934 232.96C133.198 230.736 140.014 230.567 146.583 230.782L161.03 232.138C167.237 232.796 176.951 214.256 184.768 209.894L185.186 209.666C194.774 204.348 209.049 205 219.75 204.986L238.697 205C241.898 205.015 245.32 205.39 248.5 205.072C251.635 204.758 257.349 197.44 257.063 194.453C254.573 193.864 251.916 193.981 249.369 193.872L207.927 192.476C201.494 192.476 194.978 192.294 188.558 192.774L164.273 194.698C160.768 194.98 145.166 197.146 143.175 193.689C141.189 190.241 141.451 189.04 141.595 185.461C141.639 184.385 143.825 183.985 144.546 182.886L144.084 182.674L127.826 183.576C110.552 184.909 85.1789 188.633 72.9691 202.566C60.5232 216.769 58.1306 252.808 56.6069 271.375L55.3299 285.75L55.2192 313.759C55.224 321.128 54.944 328.681 55.4763 336.022L57.6939 372.109L62.7284 419.047C65.809 440.895 68.2635 470.13 93.5736 477.155ZM453.228 300.146C457.746 301.596 456.186 297.106 456.862 303.5C455.769 305.897 453.19 308.102 451.284 309.904C444.634 318.298 438.578 327.978 434.375 337.821C433.716 339.278 432.534 341.404 433.064 342.968L436.662 339.976C443.208 333.736 449.505 326.136 454.828 318.817C456.08 317.096 455.918 315.541 456.232 313.5L457.663 304.533C458.055 300.583 458.358 296.591 459.286 292.73C457.659 295.598 455.471 297.764 453.228 300.146Z" fill="#292342"/>
<path d="M437.34 277.662L437.695 277.736C444.042 278.969 451.486 269.897 454.713 265.517C455.642 264.256 456.692 262.015 457.809 261.032L457.44 266.447C457.383 267.68 457.412 269.054 457.046 270.24C455.61 274.885 442.524 290.084 439.146 293.114L441.812 289.812C442.406 288.923 443.074 288.398 443.742 287.582L446.377 284.125C447.389 283.366 447.852 282.111 448.77 281.305L449.875 280C450.047 279.484 450.377 279.268 450.715 278.855L451.5 277.875C451.734 277.518 451.792 277.317 452.113 276.996L453.5 274.875L452.428 274.006C451.477 273.268 450.932 272.452 450.233 271.485C447.786 273.823 444.346 277.279 441.112 278.027L440.836 278.086C439.575 278.368 438.531 278.344 437.289 277.975L437.34 277.662Z" fill="url(#paint0_linear_1_77)"/>
<path d="M434.796 354.853L435.075 354.978C445.501 359.524 456.045 345.594 459.479 337.685L459.294 344.362C459.2 348.038 458.993 348.611 456.757 351.431L447.763 361.799C445.509 364.28 443.305 366.862 440.813 369.109C439.922 368.369 439.333 367.605 438.692 366.643C440.994 362.017 435.311 358.776 434.796 354.853Z" fill="#F8F7FF"/>
<path d="M144.084 182.674C146.114 182.113 148.635 182.185 150.75 182.012L205.603 177.774L272.75 177.777C275.56 177.829 278.257 178.481 281.049 178.517L348.054 178.64L347.845 179.078C345.545 180.363 347.053 179.339 345.875 181C345.73 181.204 345.573 180.432 345.229 181.479L345.688 183.086L335.185 183.581L265.891 191.46C263.66 191.785 261.036 191.929 258.906 192.638C258.082 192.913 257.604 193.695 256.8 194.001L257.063 194.488C254.573 193.864 251.916 193.981 249.369 193.872L207.927 192.476C201.494 192.476 194.978 192.294 188.558 192.774L164.273 194.698C160.768 194.98 145.166 197.146 143.175 193.689C141.189 190.241 141.451 189.04 141.595 185.461C141.639 184.385 143.825 183.985 144.546 182.886L144.084 182.674Z" fill="#B8B8FF"/>
<path d="M146.173 202.104C153.463 201.796 162.117 201.437 166.909 208.146L167.298 208.695C170.199 212.778 167.396 216.772 163.052 218.114C158.85 219.414 153.635 218.76 149.25 218.905L128.295 220.203C119.506 220.754 108.644 219.991 100.75 224.511L100.19 224.836C91.9038 230.274 87.6091 249.269 86.6717 258.208C86.2154 262.559 86.6712 267.091 85.8245 271.381L85.4987 273.096C83.1243 281.666 72.3353 281.623 70.3308 272.676C69.3902 268.477 70.4184 262.886 71.0614 258.673C73.2523 244.319 77.6402 220.494 90.7076 211.445C94.3034 208.955 99.138 207.605 103.311 206.495L117.37 203.38C120.608 205.956 126.476 204.303 130.266 203.846L146.173 202.104Z" fill="#292342"/>
<path d="M115.262 169.239L103.174 170.873L104.514 147.904C106.065 129.524 109.984 110.844 117.117 93.7929C132.204 57.725 169.174 32.8451 206.711 25.1827C215.161 23.4578 223.636 22.7155 232.211 21.9875L253.982 21.2004C259.572 21.2023 265.087 21.2236 270.659 21.7274C273.118 21.7195 275.671 22.1289 278.121 22.3809L291.975 24.2047C312.381 27.8129 332.726 34.4337 350.015 46.1119C388.506 72.1116 405.77 118.256 407.199 163.403L407.223 164.262C403.778 163.732 400.233 163.553 396.75 163.398L391.083 163.178C390.397 163.143 389.127 163.138 388.51 162.874L366.459 161.747C363.853 141.471 359.769 120.637 349.982 102.5C335.428 75.5299 317.46 57.4619 288.224 48.6249C281.686 47.3222 275.446 45.4462 268.76 44.793C241.998 42.1784 213.09 50.0612 190.9 64.9096C186.188 68.0622 170.993 78.785 169.716 84.75L169.656 85.0251C169.31 86.8026 170.684 88.7987 171.507 90.2914L158.586 106.751C157.687 107.968 152.284 114.247 154.067 114.835C146.4 116.21 144.769 123.351 143.167 129.767C140.49 140.491 138.757 151.515 137.529 162.492C137.397 163.677 137.858 166.469 136.474 166.762L115.262 169.239ZM115.23 169.239C115.157 165.45 115.066 161.604 115.281 157.82L116.287 148.03C118.76 120.993 126.062 93.8724 145.253 73.7461C169.454 48.3655 206.492 37.8063 239.954 32.3927L252.732 30.0713C258.048 29.3385 263.514 29.0089 268.875 28.876L265.125 28.75C264.24 28.9586 262.409 29.1633 261.494 28.9489L260.125 28.25C260.053 27.8364 259.94 27.504 259.766 27.1248L259.913 26.2397C259.03 25.1063 257.876 24.2609 257.25 22.8775L256.312 23.0625C256.283 23.4641 256.253 23.7407 256.125 24.1275L255.843 22.0923L257.399 21.612C261.591 21.2267 266.507 22.9901 270.449 21.8663L270.659 21.7274C265.087 21.2236 259.572 21.2023 253.982 21.2004L232.211 21.9875C223.636 22.7155 215.161 23.4578 206.711 25.1827C169.174 32.8451 132.204 57.725 117.117 93.7929C109.984 110.844 106.065 129.524 104.514 147.904L103.174 170.873L115.23 169.239ZM288.224 48.6249C317.46 57.4619 335.428 75.5299 349.982 102.5C359.769 120.637 363.853 141.471 366.459 161.747L388.51 162.831C385.105 157.416 384.057 151.491 382.83 145.327L380.513 134.5C370.699 88.6458 347.062 47.4062 294.817 47.7405C292.953 47.7524 289.821 47.6237 288.224 48.6249Z" fill="#B8B8FF"/>
<path d="M348.054 178.959L375.684 179.525C377.098 179.532 380.089 179.911 381.301 179.473C385.921 178.792 395.471 179.278 399.92 180.308L399.976 180.406C409.994 181.517 421.444 181.445 430.412 186.49C442.759 193.434 448.431 206.898 451.078 220.165C451.384 221.698 451.99 223.514 451.989 225.046L440.584 231.88C438.082 233.324 430.49 235.904 429.806 236.539C428.051 240.342 429.838 245.92 436.194 244.93L452.379 241.196C452.126 254.636 436.555 258.573 430.224 268.194C430.98 272.091 433.75 275.23 436.971 277.378L437.34 277.662L437.289 277.975C438.531 278.344 439.575 278.368 440.836 278.086L441.112 278.027C444.346 277.279 447.786 273.823 450.233 271.485C450.932 272.452 451.477 273.268 452.428 274.006L453.5 274.875L452.113 276.996C451.792 277.317 451.734 277.518 451.5 277.875L450.715 278.855C450.377 279.268 450.047 279.484 449.875 280L448.77 281.305C447.852 282.111 447.389 283.366 446.377 284.125L443.742 287.582C443.074 288.398 442.406 288.923 441.812 289.812L439.146 293.114C433.771 298.374 429.208 303.101 440.125 306.962L440.538 307.115C442.124 307.655 444.116 306.859 445.539 306.116L448.719 304.161L453.228 300.146C457.746 301.596 456.186 297.106 456.862 303.5C455.769 305.897 453.19 308.102 451.284 309.904C444.634 318.298 438.578 327.978 434.375 337.821C433.716 339.278 432.534 341.404 433.064 342.968C430.154 347.169 430.974 351.441 434.791 354.817L434.796 354.853C435.311 358.776 440.994 362.017 438.692 366.643C439.333 367.605 439.922 368.369 440.813 369.109L437.297 371.933C431.654 376.568 430.31 378.417 432.393 385.575C429.947 389.406 423.844 393.326 424.784 398.375C425.654 403.042 431.805 404.979 435.828 403.776C440.101 402.498 442.454 398.656 444.377 394.918C448.618 386.671 452.02 379.495 459.129 373.37L452.195 428.273C450.609 437.909 448.674 448.153 444.383 456.994C431.475 483.591 392.746 487.724 366.925 488.95L307.268 491.171L287.638 491.307C285.207 491.378 282.862 492.075 280.393 492.132L183.475 492.213C176.429 492.209 169.019 492.634 162.02 491.888L142.172 489.74C134.289 488.621 126.532 487.011 118.839 484.963L102.739 480.075C99.7439 479.092 96.6448 477.826 93.5736 477.155C94.3177 476.621 91.5076 470.289 91.125 468.905C87.2686 454.951 85.6042 439.971 83.8652 425.625C83.2753 420.759 83.6821 415.782 83.1436 410.903L80.2582 381.125C77.2427 347.303 82.2757 316.133 91.2221 283.502C96.481 264.32 106.796 240.111 126.934 232.96C133.198 230.736 140.014 230.567 146.583 230.782L161.03 232.138C167.237 232.796 176.951 214.256 184.768 209.894L185.186 209.666C194.774 204.348 209.049 205 219.75 204.986L238.697 205C241.898 205.015 245.32 205.39 248.5 205.072C251.635 204.758 257.349 197.44 257.063 194.488L256.8 194.001C257.604 193.695 258.082 192.913 258.906 192.638C261.036 191.929 263.66 191.785 265.891 191.46L335.185 183.581L345.688 183.183L345.229 181.479C345.573 180.432 345.73 181.204 345.875 181C347.053 179.339 345.545 180.363 347.845 179.078L348.054 178.959ZM138.759 316.792C137.474 319.968 137.968 327.593 138.359 330.866C138.541 332.387 139.138 334.336 139.044 335.847C135.591 337.438 132.45 339.386 131.034 343.125C129.148 348.105 129.126 352.001 133.895 354.662C135.116 354.996 139.461 355.455 140.205 355.857C140.514 358.128 142.139 356.761 141.321 360.848L141.097 360.929C140.116 361.268 139.187 361.365 138.159 361.451C133.226 370.164 135.299 372.119 137.125 380.664C137.613 381.006 138.007 381.042 138.582 381.134L140.261 381.996C143.16 378.526 146.447 375.668 150.203 373.16C153.828 375.11 156.221 379.202 158.437 382.554L173.29 402.795C195.021 427.708 229.67 445.275 263.156 438.984C304.724 431.176 337.462 398.842 347.459 357.818L349.194 349.541C350.446 343.33 352.045 340.922 358.791 340C359.466 338.42 360.859 325.592 360.51 324.125L359.764 323.848C353.27 322.122 352.613 311.143 351.002 305.875C342.354 277.596 318.704 257.397 292.406 245.782C258.094 230.627 222.089 234.589 192.898 258.003C177.523 270.336 164.693 287.674 157.234 305.83C154.965 311.354 153.369 321.651 145.38 320.337L145 320.27C142.516 319.846 140.637 318.417 138.759 316.792ZM348.054 178.959L347.845 179.078C345.545 180.363 347.053 179.339 345.875 181C345.73 181.204 345.573 180.432 345.229 181.479L345.688 183.064C348.833 182.911 351.978 182.441 355.125 182.398L370.773 182.345C375.309 182.33 379.247 182.147 383.706 181.425C383.755 180.92 383.795 180.599 383.596 180.125L381.301 179.473C380.089 179.911 377.098 179.532 375.684 179.525L348.054 178.959Z" fill="url(#paint1_linear_1_77)"/>
<path d="M419.442 194.124C420.989 194.768 422.981 195.324 423.951 196.75L423.653 197.155C421.466 197.026 419.345 197.615 417.154 197.03L419.625 197C420.071 197.001 420.311 196.852 420.797 196.931L421.125 197C421.854 196.637 421.506 196.453 421.406 195.798L420.627 195.125C420.061 194.814 419.878 194.595 419.442 194.124Z" fill="#4037C7"/>
<path d="M438.692 366.643C439.333 367.605 439.922 368.369 440.813 369.109L437.297 371.933L437.125 371.625C436.728 370.477 438.205 367.773 438.692 366.643Z" fill="#B8B8FF"/>
<path d="M431.604 203.283C440.215 202.016 440.698 216.49 434.548 220.125C429.444 221.651 423.367 208.146 431.604 203.283Z" fill="#3C2484"/>
<path d="M429.806 236.539C429.584 236.247 429.446 236.149 429.116 235.975C425.283 233.954 417.77 226.878 414.933 223.181C418.038 224.206 421.009 225.051 424.312 225.226C428.377 225.441 434.931 223.889 437.738 227.676L440.584 231.88C438.082 233.324 430.49 235.904 429.806 236.539Z" fill="#9381FF"/>
<path d="M381.301 179.82C385.921 178.792 395.471 179.278 399.92 180.308L399.976 180.406C401.215 181.429 402.804 181.894 404.105 182.854C409.728 187.004 412.889 190.264 419.442 194.124C419.878 194.595 420.061 194.814 420.627 195.125L421.406 195.798C421.506 196.453 421.854 196.637 421.125 197L420.797 196.931C420.311 196.852 420.071 197.001 419.625 197L417.154 197.03C405.735 196.441 404.457 189.014 395.776 184.64C393.844 183.666 384.358 182.521 383.706 181.425C383.755 180.92 383.795 180.599 383.596 180.125L381.301 179.82Z" fill="#3C2484"/>
<path d="M431.666 419.525C437.944 418.797 438.579 424.872 437.385 429.634L437.259 430.125C436.094 434.953 432.776 442.413 426.935 442.468C413.876 439.624 423.343 422.243 431.666 419.525Z" fill="#292342"/>
<path d="M276.821 296.875L276.985 296.857C278.118 296.846 279.315 297.011 280.185 297.784L279.89 298.375C278.479 298.628 277.587 298.594 276.66 297.375L276.821 296.875Z" fill="#3C2484"/>
<path d="M257.164 383.617L260.979 383.619C262.704 383.622 264.412 383.371 265.831 384.568C268.073 386.459 267.773 391.425 264.309 391.515L241.543 391.508C240.448 391.519 239.266 391.625 238.183 391.499C233.182 390.918 235.285 385.792 235.273 385.743L235.918 385.043C238.179 382.761 243.133 383.624 246.029 383.622L257.164 383.617Z" fill="#3F32A3"/>
<path d="M250.823 234.904L254.98 235.097L255.101 235.119C257.098 235.457 259.195 235.477 261.215 235.755C267.281 236.591 273.153 237.973 278.888 240.129L287.123 243.605C289.631 244.772 292.301 246.329 294.997 246.951L295.833 246.225C296.466 247.179 296.33 247.524 297.46 248.876L301.134 253.188C301.833 254.016 302.432 254.922 303.196 255.691C300.979 256.469 297.348 254.823 295.021 254.7L288.241 250.952C274.634 244.024 262.595 241.104 247.553 241.462C244.721 241.53 241.946 242.084 239.129 242.211C237.79 241.391 236.914 240.421 236.351 238.951C238.211 234.497 243.965 235.06 247.947 234.941C248.876 234.913 249.902 234.791 250.823 234.904Z" fill="#4A43BA"/>
<path d="M250.823 234.851L251.094 233.997C251.136 233.846 251.151 233.7 251.21 233.554L251.285 233.386C251.766 232.261 252.199 232.385 252.751 230.632L252.854 230.281C252.92 230.012 253.39 229.632 253.596 229.42H254.023C254.561 229.062 255.414 229.495 256.043 229.152L258.907 227.771C259.103 227.673 259.272 227.589 259.456 227.467L259.273 226.702L259.547 226.734C259.636 226.897 259.703 227.025 259.74 227.21L260.371 227.345C260.905 226.988 261.962 227.203 262.569 227.039L261.653 226.702L259.761 226.306C259.503 226.134 259.501 226.196 259.211 226.243L258.479 225.97C258.012 226.002 257.83 225.804 257.38 225.877L256.831 225.755C256.577 225.545 256.416 225.578 256.099 225.543V225.452C256.21 225.415 265.084 227.039 266.545 227.416C273.477 228.662 280.433 230.15 287.166 232.232L300.645 236.786C300.937 236.869 307.281 237.635 307.75 237.615C312.97 239.868 322.308 249.194 326.168 253.257C325.398 254.121 312.633 257.682 309.855 257.843L309.847 257.859C309.394 257.914 308.83 257.792 308.406 257.886L308.178 257.983C306.479 257.915 304.439 256.779 303.196 255.691C302.432 254.922 301.833 254.016 301.134 253.188L297.46 248.876C296.33 247.524 296.466 247.179 295.833 246.225L294.997 246.951C292.301 246.329 289.631 244.772 287.123 243.605L278.888 240.129C273.153 237.973 267.281 236.591 261.215 235.755C259.195 235.477 257.098 235.457 255.101 235.119L254.98 235.097L250.823 234.851Z" fill="#B8B8FF"/>
<path d="M168.795 277.84C168.873 277.802 169.142 277.385 169.21 277.293L170.7 275.26C183.643 258.15 197.136 249.396 216.253 241.358L220.133 239.653C220.897 239.294 221.662 238.835 222.455 238.553C224.891 237.685 227.735 241.227 226.101 243.863C224.902 245.797 222.127 246.256 220.089 246.744L220.332 246.998C221.491 247.009 222.768 246.912 223.884 247.247C234.124 250.319 238.312 262.122 228.648 268.356C224.531 271.013 219.923 272.844 215.804 275.542C192.918 290.533 180.924 313.094 180.951 340.265C180.967 356.188 186.488 371.001 195.056 384.323L198.103 388.907C201.243 393.411 206.58 400.187 199.824 404.186L198.737 404.709C189.947 400.627 182.458 392.813 176.727 385.141C173.996 381.484 172.358 375.038 167.667 379.414L167.903 378.894L165.493 372.546C165.33 372.133 165.172 371.683 165.032 371.26L164.12 368.823C163.95 368.477 163.819 368.164 163.701 367.797L163.676 367.378C162.829 364.665 162.2 361.392 160.242 359.259C159.709 358.598 157.058 356.886 157.357 356.144C158.262 353.901 157.553 345.914 156.927 343.763C156.551 343.045 156.118 342.442 155.613 341.812L154.902 341.883C154.234 341.56 153.882 341.209 153.407 340.638L154.437 339.386C151.412 338.7 151.847 335.539 151.839 332.988L152.184 325.488C153.503 309.957 158.042 293.882 166.821 280.823C167.46 279.873 168.195 278.951 168.739 277.946L168.795 277.84Z" fill="#B8B8FF"/>
<path d="M157.338 337.894C157.521 338.491 157.23 339.327 157.187 339.956C157.058 339.965 157.119 339.949 156.979 340.025L156.869 340.088C156.296 339.712 155.957 339.448 155.626 338.819L157.338 337.894Z" fill="#F8F7FF"/>
<path d="M168.795 277.84C168.873 277.802 169.142 277.385 169.21 277.293L170.7 275.26C183.643 258.15 197.136 249.396 216.253 241.358L220.133 239.653C220.897 239.294 221.662 238.835 222.455 238.553C224.891 237.685 227.735 241.227 226.101 243.863C224.902 245.797 222.127 246.256 220.089 246.744C218.813 246.978 217.587 247.429 216.365 247.855L210.758 250.056C184.205 261.727 163.683 287.895 158.969 316.567C158.504 319.397 158.313 322.274 158.054 325.13L157.641 334.731C157.63 335.71 157.672 336.706 157.401 337.654L157.338 337.894L155.626 338.819L154.437 339.386C151.412 338.7 151.847 335.539 151.839 332.988L152.184 325.488C153.503 309.957 158.042 293.882 166.821 280.823C167.46 279.873 168.195 278.951 168.739 277.946L168.795 277.84Z" fill="url(#paint2_linear_1_77)"/>
<path d="M211.768 364.08C210.397 362.94 209.502 361.946 209.217 360.095L209.182 359.881C208.391 354.665 210.847 350.732 215.396 348.48L213.451 341.467C210.365 331.628 200.741 304.928 201.648 295.24C201.944 292.083 205.183 289.852 208.194 290.696C213.915 292.3 224.812 299.807 229.854 303.069L230.745 303.635C231.167 303.894 231.212 303.43 231.464 303.086L238.796 291.687L247.278 276.415C248.758 273.498 251.152 267.448 255.646 270.392C256.907 271.218 257.683 272.75 258.375 274.04L271.967 298.048C273.081 299.824 274.371 302.015 276.075 303.292C286.246 300.23 313.243 277.721 307.959 304.122L305.777 313.278L298.595 337.084L295.204 346.451C294.733 347.737 293.663 349.24 294.031 350.573C294.133 350.944 293.978 351.774 293.943 352.2L293.379 357.211C293.187 359.496 293.155 361.868 292.749 364.123L292.715 364.323C292.387 366.122 290.918 367.551 289.241 368.164L289.069 368.227C287.842 368.647 286.306 368.502 285.02 368.476L263.715 367.601L247.664 367.178C247.027 367.158 246.298 367.071 245.67 367.159L230.268 366.651C224.553 366.407 216.874 366.969 211.768 364.08Z" fill="#3F32A3"/>
<path d="M229.771 353.458C233.856 352.865 237.905 352.936 242.02 352.942L249.852 353.007L284.468 356.343C284.413 357.476 284.46 358.824 284.071 359.901L228.995 358.288C225.241 358.294 219.741 358.872 216.714 356.081C218.26 354.477 220.512 354.505 222.59 354.237L229.771 353.458Z" fill="#F8F7FF"/>
<path d="M216.37 328.678L208.816 299.012C211.293 300.632 214.16 301.819 216.765 303.243L224.088 307.392C225.542 308.215 231.388 311.604 233.078 310.708L233.21 310.631C236.574 308.749 240.77 300.598 242.878 297.274C246.35 291.8 250.023 286.432 253.119 280.73L255.696 285.107L255.56 285.191C254.942 285.56 254.359 285.684 253.661 285.82C252.707 286.783 252.02 287.899 251.211 288.977L246.907 294.979C244.14 299.157 238.98 308.231 234.858 311.03L229.192 315.55C228.813 315.829 228.162 315.9 227.707 316.073L229.129 316.038C228.256 317.547 227.374 319.189 226.147 320.446C223.769 321.998 221.642 323.664 219.566 325.604L219.625 327.586C220.105 332.768 221.7 337.945 223.153 342.924L224.148 346.133L221.815 346.585L216.37 328.678Z" fill="#F8F7FF"/>
<path d="M255.696 285.107C256.671 286.416 257.497 287.859 258.378 289.235L263.047 296.781C265.99 301.914 269.292 309.835 275.996 310.771L277.536 310.823C279.385 310.384 281.127 309.359 282.799 308.477L291.615 303.668C292.752 303.073 298.497 299.92 299.454 300.219L299.369 300.845C297.391 314.344 291.735 336.078 285.863 348.7C280.77 347.631 275.483 347.18 270.304 346.671L260.127 345.695L239.91 345.174L225.132 346.053C224.914 346.073 224.338 346.189 224.148 346.133L223.153 342.924C221.7 337.945 220.105 332.768 219.626 327.586L219.566 325.604C221.642 323.664 223.769 321.998 226.147 320.446C227.374 319.189 228.256 317.547 229.129 316.038L227.707 316.073C228.162 315.9 228.813 315.829 229.192 315.55L234.858 311.03C238.98 308.231 244.14 299.157 246.907 294.979L251.211 288.977C252.02 287.899 252.707 286.783 253.661 285.82C254.359 285.684 254.942 285.56 255.56 285.191L255.696 285.107Z" fill="#B8B8FF"/>
<path d="M277.536 310.823C279.385 310.384 281.127 309.359 282.799 308.477L291.615 303.668C292.752 303.073 298.497 299.92 299.454 300.219L299.369 300.845C297.573 301.464 296.377 302.452 294.774 303.436L282.353 309.719C280.791 310.475 279.205 311.159 277.766 312.141L277.767 311.969C277.935 311.811 278.042 311.785 278.224 311.663L278.092 310.933C277.683 310.959 277.249 311.078 276.851 310.96C277.082 310.92 277.31 310.886 277.536 310.823Z" fill="#F8F7FF"/>
<path d="M253.802 303.731C257.701 303.204 258.167 306.794 258.175 309.915L258.173 314.661C258.167 317.699 258.914 321.54 255.466 322.955C250.053 323.252 251.085 316.527 251.084 313.064L251.09 309.055C251.098 306.64 251.28 304.77 253.802 303.731Z" fill="#3F32A3"/>
<path d="M226.147 320.446C227.299 320.431 229.269 319.919 230.115 320.825C234.188 325.186 237.18 338.645 236.794 344.618L236.719 345.116L239.91 345.151L225.132 346.053C224.914 346.073 224.338 346.189 224.148 346.133L223.153 342.924C221.7 337.945 220.105 332.768 219.626 327.586L219.566 325.604C221.642 323.664 223.769 321.998 226.147 320.446Z" fill="#9381FF"/>
<path d="M326.168 253.257C333.438 260.258 341.223 272.382 345.547 281.834C346.177 282.851 346.606 284.02 347.097 285.111L349.8 291.362C357.909 311.422 360.235 336.119 355.28 357.214C350.408 377.952 344.435 391.714 329.871 407.499C326.339 411.326 322.565 415.113 318.538 418.421C300.964 432.857 277.95 442.688 255.267 444.046L248.43 444.121C227.218 444.095 202.187 436.041 185.145 423.882C175.003 416.646 163.931 402.871 157.575 392.535L154.055 386.34C153.891 386.03 153.358 385.232 153.352 384.912C152.131 382.773 151.177 380.398 150.198 378.14L148.027 372.681C147.775 371.969 147.46 371.3 147.273 370.564L147.389 370.35C147.231 370.081 147.208 369.81 147.103 369.521L144.114 358.81C143.309 355.39 143.045 352.33 143.04 348.847L143.534 337.637C143.903 332.724 144.226 327.806 144.989 322.935C147.582 306.375 152.792 292.416 161.667 278.43L161.836 278.163C162.014 277.834 162.181 277.566 162.41 277.271L162.531 277.453C162.282 277.983 161.904 278.639 161.535 279.101L161.555 279.528L161.921 279.102L162.104 279.284H162.837L163.936 279.65L164.451 279.72C164.673 279.696 165.368 280.048 165.584 280.205L165.736 280.322C165.909 280.236 165.923 280.277 166.102 280.322L166.499 280.505C166.741 280.344 166.887 280.207 167.05 279.963L167.537 279.224C167.939 278.672 168.24 278.249 168.795 277.84L168.739 277.946C168.195 278.951 167.46 279.873 166.821 280.823C158.042 293.882 153.503 309.957 152.184 325.488L151.839 332.988C151.847 335.539 151.412 338.7 154.437 339.386L153.407 340.638C153.882 341.209 154.234 341.56 154.902 341.883L155.613 341.812C156.118 342.442 156.551 343.045 156.927 343.763C157.553 345.914 158.262 353.901 157.357 356.144C157.058 356.886 159.709 358.598 160.242 359.259C162.2 361.392 162.829 364.665 163.676 367.378L163.701 367.797C163.819 368.164 163.95 368.477 164.12 368.823L165.032 371.26C165.172 371.683 165.33 372.133 165.493 372.546L167.903 378.894L167.667 379.414C172.358 375.038 173.996 381.484 176.727 385.141C182.459 392.813 189.947 400.627 198.737 404.709C200.358 405.655 201.745 408.126 200.208 409.798C200.989 410.698 209.021 413.175 210.299 413.426L211.178 412.832C214.339 410.857 213.012 410.608 215.294 412.175C217.048 413.379 219.137 414.176 221.13 414.892C243.801 423.028 270.46 421.423 291.106 408.49C292.901 407.688 294.718 406.389 296.352 405.289C305.178 399.396 311.181 392.547 318.317 384.871L321.528 381.416C325.145 377.498 322.468 378.433 323.246 376.325L323.343 376.147C323.936 374.97 324.893 373.97 325.63 372.873C326.68 371.312 327.533 369.622 328.36 367.935C337.431 349.422 340.332 323.251 333.539 303.407C332.686 301.096 332.044 298.736 331.074 296.466C325.809 284.147 317.367 273.166 307.214 264.454L295.021 254.7C297.348 254.823 300.979 256.469 303.196 255.697C304.439 256.779 306.479 257.915 308.178 257.983L308.406 257.886C308.83 257.792 309.394 257.914 309.847 257.859L309.855 257.843C312.633 257.681 325.398 254.121 326.168 253.257Z" fill="#9381FF"/>
<path d="M163.676 367.378C163.07 367.619 162.471 368.023 161.873 368.306L157.304 370.468C154.586 371.83 151.815 373.562 148.781 374.022L159.692 368.39C159.213 365.546 158.403 362.714 158.427 359.82C158.96 359.682 159.536 359.562 160.043 359.347L160.242 359.259C162.2 361.392 162.829 364.665 163.676 367.378Z" fill="#524FDB"/>
<path d="M167.667 379.414C172.358 375.038 173.996 381.484 176.727 385.141C182.459 392.813 189.947 400.627 198.737 404.709C200.358 405.655 201.745 408.126 200.208 409.798C196.43 411.59 196.359 411.588 192.594 409.06C183.654 403.056 175.999 395.12 169.251 386.783C166.857 383.826 165.05 382.895 167.667 379.414Z" fill="#3F32A3"/>
<path d="M333.539 303.407L337.204 302.171C337.891 301.914 338.54 301.346 339.301 301.557L339.455 301.597C342.387 302.433 342.646 309.142 343.048 311.505C346.809 333.616 343.848 357.08 331.823 376.355C329.27 380.446 330.255 378.269 327.757 379.81L327.625 382.722C327.607 383.303 327.63 384 327.406 384.544C325.373 389.466 312.972 401.697 309.013 404.951C280.716 428.209 248.088 434.108 214.261 420.657C210.333 419.095 209.219 418.911 210.075 414.298L210.299 413.426L211.178 412.831C214.339 410.857 213.012 410.608 215.294 412.175C217.048 413.379 219.137 414.176 221.13 414.892C243.801 423.028 270.46 421.423 291.106 408.49C292.901 407.688 294.718 406.389 296.352 405.289C305.178 399.396 311.181 392.547 318.317 384.871L321.528 381.416C325.145 377.498 322.468 378.433 323.246 376.325L323.343 376.147C323.936 374.97 324.893 373.97 325.63 372.873C326.68 371.311 327.533 369.622 328.36 367.935C337.431 349.422 340.332 323.251 333.539 303.407Z" fill="#3F32A3"/>
<path d="M307.75 237.615L303.157 234.811C290.45 227.7 277.086 222.992 262.588 221.426L256.178 220.764C220.135 218.751 184.572 233.565 162.397 262.519C160.97 264.381 159.696 266.406 158.194 268.197C156.284 270.475 153.104 269.736 152.38 266.899C151.855 264.843 153.955 262.939 155.065 261.444C164.892 248.211 176.734 237.217 191.174 229.293L199.031 225.217C207.349 221.406 216.468 218.635 225.398 216.781L239.934 214.719C240.593 214.649 241.221 214.512 241.889 214.47L250.811 214.336C268.6 214.351 284.641 217.965 300.645 225.847C306.813 228.885 312.473 232.696 318.325 236.277C320.748 237.76 323.422 238.63 325.833 240.224C340.953 250.217 357.679 267.621 366.571 283.617C370.503 290.691 374.513 301.518 376.138 309.521L378.108 319.386C378.855 323.438 379.029 326.417 379.033 330.546L379.033 354.108C379.032 357.16 379.337 360.631 378.631 363.615C377.459 368.563 377.004 373.666 375.662 378.591C371.415 394.178 364.972 409.298 354.852 421.984C347.93 430.661 339.193 439.307 329.721 445.236C316.823 453.309 299.975 460.526 284.548 461.905C281.907 462.142 279.129 461.986 276.475 461.991L271.469 461.994C270.327 461.993 269.185 462.035 268.051 461.876C267.774 460.076 267.278 458.13 269.322 457.483C270.465 457.467 271.682 457.208 272.829 457.104L289.332 454.79L292.055 454.168C291.476 453.4 291.017 452.623 290.57 451.771L287.115 443.858C279.576 446.363 266.839 449.949 258.724 450.097L261.21 458.624L261.194 458.722C261.019 459.933 258.857 461.604 257.686 461.88C255.706 462.347 246.584 461.985 244.642 461.763L234.342 460.221C232.08 459.821 229.823 459.45 227.592 458.887C211.897 454.925 190.651 443.076 180.535 430.348L178.531 428.299L171.227 421.128C155.162 404.292 145.322 387.875 138.84 365.832L136.137 355.748C131.268 333.179 132.772 309.457 140.988 287.829C141.586 286.254 142.272 284.109 143.954 283.41C145.747 282.666 148.059 283.856 148.073 285.912C148.087 287.978 147.035 290.057 146.383 291.986L144.655 297.444C137.637 320.88 138.539 347.612 147.273 370.564C147.46 371.3 147.775 371.969 148.027 372.681L150.198 378.14C151.177 380.398 152.131 382.773 153.352 384.912C153.358 385.232 153.891 386.03 154.055 386.34L157.575 392.535C163.931 402.871 175.003 416.646 185.145 423.882C202.187 436.041 227.218 444.095 248.43 444.121L255.267 444.046C277.95 442.688 300.964 432.857 318.538 418.421C322.565 415.113 326.339 411.326 329.871 407.499C344.435 391.714 350.408 377.952 355.28 357.214C360.235 336.119 357.909 311.422 349.8 291.362L347.097 285.111C346.606 284.02 346.177 282.851 345.547 281.834C341.223 272.382 333.438 260.258 326.168 253.257C322.308 249.194 312.97 239.868 307.75 237.615ZM343.155 404.731C346.209 408.03 349.716 410.78 353.145 413.668C353.419 413.61 353.392 413.596 353.576 413.412C353.011 412.655 352.273 412.106 351.619 411.435L345.342 404.984C344.732 404.382 344.087 403.813 343.62 403.088C343 401.602 345.582 399.069 346.373 397.917L348.689 394.241C349.345 393.267 350.082 392.383 350.705 391.375C352.518 392.007 354.345 393.262 355.923 394.35C356.404 394.681 356.481 394.754 356.812 394.222L351.882 389.349C353.973 385.716 353.085 381.563 357.603 384.96C357.401 384.027 357.088 383.277 357.094 382.279L357.106 382.279C357.937 379.136 361.22 376.45 362.064 373.205C363.661 373.709 365.849 374.419 367.528 374.061L367.629 374.037C368.334 373.479 368.32 373.93 368.709 372.942L368.415 372.464C366.06 370.795 362.275 369.37 360.813 366.789C360.532 366.184 360.198 365.582 360.1 364.917L360.008 364.292C359.115 365.979 358.744 367.742 358.221 369.563L352.392 385.939C349.818 392.276 345.75 397.603 341.35 402.778L343.155 404.731ZM325.01 429.196C324.998 428.605 324.718 428.064 324.493 427.53L324.629 427.256C325.367 425.937 326.562 424.924 327.652 423.902L331.525 420.209C333.468 418.278 337.69 412.468 339.693 411.915C339.13 411.296 338.652 410.847 338.742 409.96L338.94 409.146C339.06 408.701 337.84 403.975 337.44 405.289C335.649 411.174 330.51 416.56 326.034 420.662L320.937 424.958L325.01 429.196ZM364.503 325.395C364.519 328.318 364.624 331.373 364.134 334.262C367.87 334.739 371.54 337.016 374.349 339.439C374.023 336.962 373.547 334.344 372.809 331.958L372.741 331.733C372.386 330.919 370.268 329.87 369.468 329.351L366.754 327.461C365.92 326.831 365.202 326.18 364.503 325.395ZM344.885 266.772C345.275 268.034 346.586 269.36 347.253 270.533L353.783 282.478C354.814 281.863 355.867 281.455 357.058 281.271L358.27 281.171C356.875 279.916 355.606 278.521 354.315 277.162L348.786 271.166C347.651 269.88 346.6 267.59 345.138 266.754L344.885 266.772Z" fill="#3F32A3"/>
<path d="M317.444 240.325C317.784 240.129 318.173 240.143 318.556 240.115C318.251 240.824 317.925 241.527 317.439 242.133C317.318 241.481 317.678 241.078 317.444 240.325Z" fill="#524FDB"/>
<path d="M201.742 441.213C202.545 441.392 203.301 441.591 204.068 441.888L204.089 441.92C203.92 442.046 203.754 442.165 203.6 442.308C203.177 442.283 202.931 442.353 202.542 442.513C202.345 441.957 201.867 441.813 201.742 441.213Z" fill="#5875D0"/>
<path d="M362.305 360.47C361.326 361.763 361.073 363.373 359.937 364.576C360.563 362.558 360.9 361.706 361.307 359.603C361.593 359.988 361.81 360.357 362.305 360.47Z" fill="#4A43BA"/>
<path d="M317.444 240.325L317.411 240.326C317.167 239.796 316.818 238.436 317.194 237.963C317.587 238.067 318.117 238.532 318.477 238.536C319.721 238.549 318.907 239.331 318.556 240.115C318.173 240.143 317.784 240.129 317.444 240.325Z" fill="#4A43BA"/>
<path d="M202.542 442.513C201.996 442.981 201.779 443.348 201.524 444.007L201.446 444.214C200.146 443.687 198.374 441.84 196.776 440.83C198.412 440.923 200.131 440.814 201.742 441.103C201.867 441.813 202.345 441.957 202.542 442.513Z" fill="#524FDB"/>
<path d="M204.089 441.92L206.904 442.886C211.662 444.377 217.49 446.081 220.991 449.785L206.689 443.486L203.6 442.308C203.754 442.165 203.92 442.046 204.089 441.92Z" fill="#F8F7FF"/>
<path d="M178.531 428.299L178.647 428.209C179.245 427.73 179.537 427.136 179.993 426.54L181.893 424.26C183.365 422.521 184.133 423.31 185.682 425.073C185.455 425.703 185.239 426.222 184.839 426.769L184.722 426.931C183.714 428.283 182.1 429.679 180.535 430.348L178.531 428.299Z" fill="#4A43BA"/>
<path d="M356.717 290.506L362.037 290.533C362.341 290.736 362.484 290.869 362.652 291.193L367.942 304.222C361.043 298.137 359.414 300.885 356.717 290.506Z" fill="#7CCFFE"/>
<path d="M362.172 308.749C362.024 307.847 361.642 307.001 361.265 306.175C362.059 306.896 362.741 307.686 363.578 308.387C368.604 312.414 370.989 314.237 372.052 320.835L372.056 320.892L372.083 321.071C372.175 321.654 372.8 322.87 372.743 323.35C372.269 322.952 371.806 322.53 371.276 322.208C369.095 321.483 364.498 317.062 364.315 320.605L364.192 320.606C364.195 319.624 363.946 318.652 363.798 317.684L362.172 308.749Z" fill="#F8F7FF"/>
<path d="M232.913 453.193L229.373 452.089C228.219 451.623 227.856 451.135 227.396 450.027L233.405 450.688L251.481 451.372C252.077 452.592 252.307 454.303 252.491 455.649C245.926 455.247 239.333 454.684 232.913 453.193Z" fill="#F8F7FF"/>
<path d="M360.813 366.789C362.275 369.37 366.06 370.795 368.415 372.464L368.709 372.942C368.32 373.93 368.334 373.479 367.629 374.037L367.528 374.061C365.849 374.419 363.661 373.709 362.064 373.205C361.22 376.45 357.937 379.136 357.106 382.279L357.094 382.279L356.746 382.25C356.426 382.645 357.017 382.059 356.556 382.494L356.379 382.364C356.253 382.759 356.126 383.043 355.646 382.952L355.952 382.128L355.586 382.067C355.426 382.26 355.453 382.198 355.369 382.386L355.098 382.739C355.07 381.935 355.136 381.279 355.948 380.889L356.379 380.114C356.432 379.92 356.447 379.849 356.551 379.656L356.654 379.474C356.617 379.285 356.618 379.198 356.674 379.008L356.99 378.039C357.161 376.932 357.638 375.566 357.943 374.401C358.215 373.361 358.96 370.958 359.019 370.241L359.454 369.506C359.539 369.323 359.68 369.182 359.767 368.981L360.042 368.396C360.163 368.189 360.645 367.213 360.75 366.963L360.813 366.789Z" fill="url(#paint3_linear_1_77)"/>
<path d="M368.415 372.464C368.913 372.802 369.418 373.121 369.852 373.543L370.09 373.767C369.441 377.988 366.746 387.426 364.341 391.232L362.227 389.166C361.689 388.674 357.712 385.397 357.603 384.96C357.401 384.027 357.088 383.277 357.094 382.279L357.106 382.279C357.937 379.136 361.22 376.45 362.064 373.205C363.661 373.708 365.849 374.419 367.528 374.061L367.629 374.037C368.334 373.479 368.32 373.93 368.709 372.942L368.415 372.464Z" fill="#7CCFFE"/>
<path d="M368.415 372.464C368.913 372.802 369.418 373.121 369.852 373.543L367.629 374.037C368.334 373.479 368.32 373.93 368.709 372.942L368.415 372.464Z" fill="#B8B8FF"/>
<path d="M363.872 341.754C363.903 341.051 363.855 340.311 363.947 339.614C364.737 340.609 365.846 341.376 366.802 342.226L372.415 346.93C372.979 347.438 373.748 348.008 374.149 348.636L373.094 359.969C372.832 362.052 372.556 364.126 371.989 366.151L365.323 361.98C365.093 361.833 363.819 361.111 363.741 360.923L362.305 360.47C361.81 360.357 361.593 359.988 361.307 359.603C362.341 356.703 362.641 353.335 363.074 350.296C363.031 350.094 363.123 349.66 363.143 349.44L363.872 341.754Z" fill="#F8F7FF"/>
<path d="M350.705 391.375C352.518 392.007 354.345 393.262 355.923 394.35C356.404 394.681 356.481 394.754 356.812 394.222L361.496 398.235L353.576 413.412C353.011 412.655 352.273 412.106 351.619 411.435L345.342 404.984C344.732 404.382 344.087 403.813 343.62 403.088C343 401.602 345.582 399.069 346.373 397.917L348.689 394.241C349.345 393.267 350.082 392.383 350.705 391.375Z" fill="#7CCFFE"/>
<path d="M339.693 411.915C341.23 413.229 342.584 414.733 344.033 416.142L346.368 418.405C346.836 418.864 347.454 419.411 347.735 420.003C344.7 425.221 339.915 429.538 335.334 433.387C333.855 434.629 332.135 435.798 330.802 437.186L325.01 429.196C324.998 428.605 324.718 428.064 324.493 427.53L324.629 427.256C325.367 425.937 326.562 424.924 327.652 423.902L331.525 420.208C333.468 418.278 337.69 412.468 339.693 411.915Z" fill="#7CCFFE"/>
<path d="M315.317 427.645L324.855 440.384C317.921 445.068 310.022 448.684 302.214 451.646L298.406 452.978C297.634 449.576 295.421 444.147 293.628 441.254C301.04 437.901 309.833 434.141 315.168 427.823L315.317 427.645Z" fill="#7CCFFE"/>
<defs>
<linearGradient id="paint0_linear_1_77" x1="451.624" y1="273.296" x2="458.88" y2="264.26" gradientUnits="userSpaceOnUse">
<stop stop-color="#C7B8FF"/>
<stop offset="1" stop-color="#E3D5FF"/>
</linearGradient>
<linearGradient id="paint1_linear_1_77" x1="458.456" y1="335.22" x2="79.0278" y2="338.114" gradientUnits="userSpaceOnUse">
<stop stop-color="#8977FF"/>
<stop offset="1" stop-color="#B8B9FF"/>
</linearGradient>
<linearGradient id="paint2_linear_1_77" x1="197.428" y1="297.527" x2="172.369" y2="272.254" gradientUnits="userSpaceOnUse">
<stop stop-color="#4A45AE"/>
<stop offset="1" stop-color="#5557DA"/>
</linearGradient>
<linearGradient id="paint3_linear_1_77" x1="357.129" y1="375.335" x2="366.963" y2="378.415" gradientUnits="userSpaceOnUse">
<stop stop-color="#FFFDF8"/>
<stop offset="1" stop-color="#B6E5FF"/>
</linearGradient>
</defs>
</svg>
