<?xml version="1.0" encoding="utf-8" ?>
<svg xmlns="http://www.w3.org/2000/svg" xmlns:xlink="http://www.w3.org/1999/xlink" width="512" height="512">
	<path fill="#50485A" d="M455.852 172.076L456.058 173.568C455.704 175.195 455.885 176.114 456.437 177.64C455.733 178.523 455.53 179.72 456.148 180.7C455.161 181.55 455.077 182.274 454.689 183.487C453.446 179.615 451.685 176.096 449.832 172.49L452.386 173.216C453.907 173.573 454.579 172.884 455.852 172.076Z"/>
	<path fill="#311A40" d="M49.8752 129.326C52.5427 129.199 55.2335 130.059 56.4351 132.691L56.999 134.006C58.4319 138.001 56.2482 141.533 52.3495 142.635C49.4688 142.885 46.9577 141.383 45.5697 138.863L45.375 138.498C44.4873 136.876 44.1515 134.057 45.2791 132.53L45.5051 132.25C46.7169 130.656 48.028 129.955 49.8752 129.326Z"/>
	<path fill="#311A40" d="M449.832 172.49C444.662 164.39 438.615 156.465 432.582 148.983C429.927 145.69 415.83 131.739 426.875 129.322C431.459 130.107 434.617 134.488 437.541 137.727C448.571 149.948 454.088 155.99 455.852 172.076C454.579 172.884 453.907 173.573 452.386 173.216L449.832 172.49Z"/>
	<path fill="#311A40" d="M93.3483 75.2762C100.603 74.8766 102.144 81.8417 97.6147 86.5251C94.507 89.7386 90.7951 92.4767 87.5 95.516C82.3652 100.252 77.1451 107.112 70.5995 109.903C65.5637 111.551 63.662 105.393 63.7375 101.514C65.9683 98.0506 69.2238 96.084 72.2271 93.3572L83.1946 83.2929C86.4111 80.3163 89.3043 77.1069 93.3483 75.2762Z"/>
	<path fill="#311A40" d="M359.201 460.548C363.471 459.956 368.064 464.245 366.123 468.61L365.729 469.416C363.634 473.008 335.391 489.717 328.687 491.259C323.731 491.405 319.789 487.499 321.77 482.5C323.02 479.345 327.069 478.492 329.892 477.255C336.058 474.554 342.04 471.267 347.731 467.674C351.481 465.306 355.133 462.292 359.201 460.548Z"/>
	<path fill="#311A40" d="M172.443 16.5579L172.777 16.5641C175.658 16.5738 179.814 17.9609 179.831 21.4998L179.824 21.875C179.753 27.1608 175.277 29.7082 171.475 32.6869C161.054 40.851 149.902 47.518 138.609 54.3585L130.335 59.3573C127.415 61.1454 124.502 63.0106 121.251 64.1314L118.166 64.4264C114.19 62.5296 111.064 53.0438 118.216 50.9029C129.986 47.3795 155.792 31.3005 165.037 22.7997C167.31 20.7091 169.509 17.6613 172.443 16.5579Z"/>
	<path fill="#311A40" d="M450.48 381.255C452.499 381.182 454.381 381.939 455.196 383.942L455.311 384.25C457.684 390.456 452.057 394.86 448.484 399.053L432.649 416.914C425.405 424.499 394.994 454.889 384.787 457.098L382.818 456.391C373.275 451.973 385.527 443.48 389.123 440.735L396.805 434.595C409.705 423.718 421.727 412.319 433.063 399.819L441.754 389.586C444.447 386.211 446.217 382.773 450.48 381.255Z"/>
	<path fill="#311A40" d="M456.058 173.568C456.977 174.598 458.057 175.646 458.825 176.786C475.02 192.345 479.365 225.209 479.806 247.5L479.723 265.427C479.432 270.768 478.742 276.207 477.999 281.5L475.803 295.615C473.593 306.387 470.328 316.866 466.351 327.107C465.32 329.762 458.778 347.62 454.588 343.753C453.402 342.078 449.694 338.753 450.253 336.494C453.701 332.723 459.362 315.173 460.956 309.839C469.672 280.674 471.427 248.455 465.246 218.625C462.752 206.589 458.563 195.123 454.689 183.487C455.077 182.274 455.161 181.55 456.148 180.7C455.53 179.72 455.733 178.523 456.437 177.64C455.885 176.114 455.704 175.195 456.058 173.568Z"/>
	<path fill="#9D9AA1" d="M456.437 177.64C456.976 178.691 457.109 179.034 458.077 179.677L458.549 178.812C459.387 180.487 458.278 182.848 456.148 180.7C455.53 179.72 455.733 178.523 456.437 177.64Z"/>
	<path fill="#B3AEB3" d="M456.058 173.568C456.977 174.598 458.057 175.646 458.825 176.786C458.29 177.573 458.466 177.886 458.549 178.812L458.077 179.677C457.109 179.034 456.976 178.691 456.437 177.64C455.885 176.114 455.704 175.195 456.058 173.568Z"/>
	<defs>
		<linearGradient id="gradient_0" gradientUnits="userSpaceOnUse" x1="383.228" y1="193.351" x2="424.58801" y2="170.57899">
			<stop offset="0" stop-color="#C4F7FC"/>
			<stop offset="1" stop-color="#9FFFFB"/>
		</linearGradient>
	</defs>
	<path fill="url(#gradient_0)" d="M337.636 106.214C343.122 105.375 347.487 109.216 352.26 111.447C363.848 116.864 376.637 121.41 386.996 129.027C414.409 149.179 434.694 181.008 444.777 213.167C447.217 220.948 448.796 228.853 450.393 236.834L454.865 265.578C454.417 269.249 446.149 258.525 442.6 257.081L442.25 256.945C441.006 256.456 440.028 256.425 438.72 256.453L437.928 255.012C437.422 250.592 436.172 246.043 435.008 241.75L427.016 216.644C414.722 182.621 389.503 140.015 359.169 120.987C352.288 116.67 344.433 114.635 337.145 111.215C337.448 109.66 337.879 108.052 337.676 106.462L337.636 106.214Z"/>
	<path fill="#311A40" d="M413.004 387.205L414.298 387.671C416.574 388.654 417.634 391.068 418.446 393.242C416.807 396.88 413.412 398.935 410.381 401.357L399.512 409.894C366.82 435.299 331.025 450.766 289.625 454.768L275.466 456.01C255.877 456.753 236.073 455.695 216.625 453.244L173.625 447.001L117.124 441.618C83.3679 439.329 58.4482 435.997 53.9448 397.875L49.7837 357.454C46.4208 333.578 39.0608 310.286 38.2168 286.034C37.3115 260.021 40.2657 235.16 46.5414 209.997C55.4451 174.297 67.356 150.907 92.1719 124.329C114.213 100.723 152.804 73.3009 183.755 61.0745C253.259 33.6192 334.069 54.0396 392.741 97.0571L410.704 111.236C412.256 112.546 414.108 113.714 415.533 115.129C418.109 117.686 418.683 125.603 413.653 125.512C409.253 125.433 404.595 120.471 401.353 117.767C331.243 59.2821 234.244 38.4169 154.238 89.3513C148.496 91.7729 140.433 97.5697 135.787 101.476L120.521 113.442C89.3816 139.653 70.7441 166.033 59.7499 206.125C53.4519 229.091 49.7087 252.376 49.7048 276.224C49.7 304.808 57.6194 332.265 61.7494 360.375L63.9665 380.036C66.0238 408.992 66.1165 424.862 102.25 429.001L180.882 436.486C183.945 430.173 188.889 423.81 194.247 419.182C195.839 417.807 198.315 416.463 198.891 414.389C205.319 415.87 212.471 416.172 219.022 416.884L237.514 418.625L277.478 418.588L303.378 415.646L329.702 410.091C344.811 405.442 371.861 396.016 382.586 384.871L383.742 383.383C393.708 383.121 398.815 376.67 404.718 369.737L410.151 363.846C433.232 336.242 443.571 304.172 440.268 267.875C439.935 264.217 439.846 259.938 438.72 256.453C440.028 256.425 441.006 256.456 442.25 256.945L442.6 257.081C446.149 258.525 454.417 269.249 454.865 265.578C456.402 280.886 453.195 318.584 444.696 332.169L444.96 332.313C447.083 333.496 448.404 335.029 450.253 336.494C449.694 338.753 453.402 342.078 454.588 343.753C452.392 348.989 448.27 353.853 444.997 358.5L442.082 362.583C440.841 364.381 439.989 366.013 438.031 367.129C441.309 370.117 440.456 373.509 436.807 375.799C434.935 375.319 433.458 374.913 431.738 373.982C430.088 374.818 428.641 376.773 427.257 378.035C422.914 381.996 418.524 385.1 413.004 387.205Z"/>
	<path fill="#B8B8FF" d="M438.72 256.453C440.028 256.425 441.006 256.456 442.25 256.945L442.6 257.081C446.149 258.525 454.417 269.249 454.865 265.578C456.402 280.886 453.195 318.584 444.696 332.169L444.96 332.313C447.083 333.496 448.404 335.029 450.253 336.494C449.694 338.753 453.402 342.078 454.588 343.753C452.392 348.989 448.27 353.853 444.997 358.5L442.082 362.583C440.841 364.381 439.989 366.013 438.031 367.129C441.309 370.117 440.456 373.509 436.807 375.799C434.935 375.319 433.458 374.913 431.738 373.982C430.088 374.818 428.641 376.773 427.257 378.035C422.914 381.996 418.524 385.1 413.004 387.205C407.47 386.42 402.126 393.637 397.817 397.246C364.152 425.438 323.242 441.866 279.238 444.582L247.768 444.609L216.125 441.493L180.882 436.486C183.945 430.173 188.889 423.81 194.247 419.182C195.839 417.807 198.315 416.463 198.891 414.389C205.319 415.87 212.471 416.172 219.022 416.884L237.514 418.625L277.478 418.588L303.378 415.646L329.702 410.091C344.811 405.442 371.861 396.016 382.586 384.871L383.742 383.383C393.708 383.121 398.815 376.67 404.718 369.737L410.151 363.846C433.232 336.242 443.571 304.172 440.268 267.875C439.935 264.217 439.846 259.938 438.72 256.453Z"/>
	<path fill="#311A40" d="M431.738 373.982C429.338 370.582 429.405 367.093 429.975 363.176C432.952 363.901 435.445 365.568 438.031 367.129C441.309 370.117 440.456 373.509 436.807 375.799C434.935 375.319 433.458 374.913 431.738 373.982Z"/>
	<defs>
		<linearGradient id="gradient_1" gradientUnits="userSpaceOnUse" x1="355.91699" y1="397.15302" x2="358.198" y2="402.422">
			<stop offset="0" stop-color="#CED0FE"/>
			<stop offset="1" stop-color="#FFFFFE"/>
		</linearGradient>
	</defs>
	<path fill="url(#gradient_1)" d="M382.586 384.871C382.859 385.321 383.492 386.176 383.355 386.702C381.335 394.443 338.818 412.641 330.306 410.919L329.702 410.091C344.811 405.442 371.861 396.016 382.586 384.871Z"/>
	<path fill="#9381FF" d="M135.787 101.476L136.266 102.147C137.949 101.978 139.216 101.313 140.813 100.991L137.332 110.054C132.201 124.102 129.709 138.978 129.706 153.925C129.7 184.647 142.892 199.608 171.283 208.959C172.316 209.299 173.163 209.414 174.249 209.386C174.876 225.036 188.486 224.826 189.694 227.54C190.487 229.323 190.479 235.88 190.891 238.253C193.369 252.516 201.381 264.836 211.778 274.627C209.227 277.212 202.082 283.839 202.033 287.75C202.021 288.717 201.979 288.57 200.927 288.206C196.139 286.547 178.542 299.504 174.913 302.247C155.213 317.136 140.409 336.274 132.657 359.884L130.802 366.999C129.839 370.369 129.262 382.127 130.899 385.156L131.159 385.569C136.431 395.153 155.972 402.311 165.964 405.916L198.891 414.389C198.315 416.463 195.839 417.807 194.247 419.182C188.889 423.81 183.945 430.173 180.882 436.486L102.25 429.001C66.1165 424.862 66.0238 408.992 63.9665 380.036L61.7494 360.375C57.6194 332.265 49.7 304.808 49.7048 276.224C49.7087 252.376 53.4519 229.091 59.7499 206.125C70.7441 166.033 89.3816 139.653 120.521 113.442L135.787 101.476Z"/>
	<path fill="#311A40" d="M154.238 89.3513C156.385 89.7363 158.456 88.1578 160.5 87.5262C164.535 86.2796 168.989 85.9465 173.166 85.4897L220.641 80.6256C224.973 80.2932 229.194 79.6269 233.508 79.3646L244.723 79.0885C274.969 78.9682 305.746 84.2694 332.39 99.375C334.238 100.423 335.899 101.713 337.192 103.41L337.636 106.214L337.676 106.462C337.879 108.052 337.448 109.66 337.145 111.215C344.433 114.635 352.288 116.67 359.169 120.987C389.503 140.015 414.722 182.621 427.016 216.644L435.008 241.75C436.172 246.043 437.422 250.592 437.928 255.012L438.72 256.453C439.846 259.938 439.935 264.217 440.268 267.875C443.571 304.172 433.232 336.242 410.151 363.846L404.718 369.737C398.815 376.67 393.708 383.121 383.742 383.383L382.586 384.871C371.861 396.016 344.811 405.442 329.702 410.091L303.378 415.646L277.478 418.588L237.514 418.625L219.022 416.884C212.471 416.172 205.319 415.87 198.891 414.389L165.964 405.916C155.972 402.311 136.431 395.153 131.159 385.569L130.899 385.156C129.262 382.127 129.839 370.369 130.802 366.999L132.657 359.884C140.409 336.274 155.213 317.136 174.913 302.247C178.542 299.504 196.139 286.547 200.927 288.206C201.979 288.57 202.021 288.717 202.033 287.75C202.082 283.839 209.227 277.212 211.778 274.627C201.381 264.836 193.369 252.516 190.891 238.253C190.479 235.88 190.487 229.323 189.694 227.54C188.486 224.826 174.876 225.036 174.249 209.386C173.163 209.414 172.316 209.299 171.283 208.959C142.892 199.608 129.7 184.647 129.706 153.925C129.709 138.978 132.201 124.102 137.332 110.054L140.813 100.991C139.216 101.313 137.949 101.978 136.266 102.147L135.787 101.476C140.433 97.5697 148.496 91.7729 154.238 89.3513ZM200.995 113.095L201.425 113.131C202.942 113.206 208.571 111.707 211.879 111.704L228.565 112.094C229.93 112.172 231.269 112.47 232.625 112.544L240.25 112.709C257.058 113.333 272.503 115.589 288.331 121.414L295.564 124.355C296.163 124.607 296.972 125.165 297.576 125.248C299.733 117.823 298.937 117.259 291.67 112.674C271.851 100.172 246.71 99.4272 224.375 104.246C216.175 106.015 207.926 108.158 200.995 113.095Z"/>
	<path fill="#F8F7FF" d="M344.504 308.574C349.026 306.596 352.793 312.24 354.923 315.25L354.699 316.177C353.906 315.553 353.146 314.916 352.25 314.442L350.625 315.22C348.154 314.777 345.877 313.227 345.866 310.415L344.504 308.574Z"/>
	<path fill="#9381FF" d="M256.123 301.125C259.562 299.603 271.245 314.727 272.527 317.316C269.083 321.037 265.483 323.174 260.368 323.653C253.897 323.901 247.679 318.886 244.593 313.511C242.549 309.949 253.704 302.393 256.123 301.125Z"/>
	<path fill="#F8F7FF" d="M219.483 281.539C228.691 286.863 238.949 292.63 249.811 293.122C245.327 295.748 241.539 298.966 237.959 302.704L233.601 308.227C226.363 303.779 216.553 295.403 212.68 287.527C214.614 285.123 217.015 283.345 219.483 281.539Z"/>
	<path fill="#F8F7FF" d="M293.116 282.24C295.562 284.612 297.171 287.804 298.519 290.878C295.659 297.046 288.468 302.735 284.841 309.637C281.565 315.873 281.348 311.968 277.368 307.549L265.682 295.194C275.588 292.017 284.085 287.255 293.116 282.24Z"/>
	<path fill="#9381FF" d="M265.526 333.375L276.825 396.067C277.593 399.669 277.338 403.631 277.352 407.3C274.003 407.934 270.422 407.866 267.026 407.881L253.308 407.914C249.905 408.288 246.384 408.075 242.971 407.938L242.444 406.067C238.771 392.196 245.104 360.189 249.731 344.5C250.782 340.938 251.651 337.289 253.504 334.042C257.342 334.406 261.722 334.012 265.526 333.375Z"/>
	<path fill="#B8B8FF" d="M200.995 113.095L201.425 113.131C202.942 113.206 208.571 111.707 211.879 111.704L228.565 112.094C229.93 112.172 231.269 112.47 232.625 112.544L240.25 112.709C257.058 113.333 272.503 115.589 288.331 121.414L295.564 124.355C296.163 124.607 296.972 125.165 297.576 125.248L297.585 125.699C298.06 133.43 306.798 131.187 310.519 131.446C322.348 132.271 322.382 161.152 321.118 169.64C320.672 172.637 319.891 175.565 319.177 178.506C318.293 171.967 310.017 143.598 300.597 145.13L299.917 145.246C297.084 145.76 294.523 148.067 293.468 150.711C292.882 150.655 293.029 150.585 292.508 150.925C290.615 152.16 284.077 151.398 282.123 150.828C280.489 148.201 278.267 146.986 275.455 146.161L267.075 151.723C252.555 159.775 233.874 162.148 217.6 162.128C210.569 162.12 191.708 161.686 187.863 154.138C181.6 141.844 187.892 119.426 200.995 113.095Z"/>
	<path fill="#F8F7FF" d="M305.966 299.428C310.39 301.098 315.077 301.955 319.379 303.945C342.457 314.62 376.782 353.958 373.196 378.677C364.402 388.562 344.927 393.875 332.812 397.588C323.304 400.263 313.708 402.599 303.944 404.144L288.506 406.008C287.856 388.358 283.391 371.287 280.245 353.993L278.084 341.479C277.334 336.629 276.615 331.478 274.93 326.856L274.807 326.526C277.675 323.379 279.522 319.862 284 320.552L284.914 320.677C291.103 320.782 291.447 316.434 294.463 312.468C297.934 307.906 301.92 303.495 305.966 299.428Z"/>
	<path fill="#F8F7FF" d="M202.861 292.847C204.337 294.926 205.462 297.199 207.042 299.234C213.228 307.2 221.825 312.762 230.125 318.279C232.604 319.927 242.149 325.6 243.115 328.364C243.439 329.29 238.455 352.016 237.92 355.125C236.066 365.918 234.349 377.006 233.748 387.953L233.651 405.776L188.947 399.537C176.853 396.583 164.714 392.527 153.287 387.585C144.009 383.572 140.6 383.487 141.891 372.858C145.199 345.635 163.605 324.364 184.661 308.469L193.305 302.043C197.245 299.139 200.227 297.007 202.861 292.847Z"/>
	<path fill="#F8F7FF" d="M282.123 150.749C284.077 151.398 290.615 152.16 292.508 150.925C293.029 150.585 292.882 150.655 293.468 150.711C293.544 152.448 293.823 152.895 295.041 154.252L299.189 158.643C305.327 165.249 307.673 173.741 309.144 182.393L310.435 191.371C311.366 197.268 314.982 204.999 321.704 198.987C323.143 197.7 325.651 193.156 327.875 194.496C332.048 197.011 330.298 207.465 327.923 210.428C325.328 213.664 320.558 213.966 318.239 217.717C316.228 220.97 315.714 225.609 314.839 229.272C310.569 247.126 301.264 261.373 286.655 272.41C280.31 277.204 272.871 281.481 264.875 282.552L264.436 282.614C237.27 286.147 204.91 260.744 201.503 233.375C201.024 229.524 201.611 221.734 198.313 219.244C194.378 216.273 187.921 217.168 186.916 210.963C186.23 206.735 186.443 202.489 188.123 198.535C203.043 216.012 203.756 181.325 203.939 173.036L204.299 173.078C222.94 175.15 252.252 171.387 268.804 164.082C273.853 161.854 284.152 157.894 282.123 150.749Z"/>
	<path fill="#311A40" d="M234.228 199.326C243.15 199.039 244.269 210.295 235.311 212.49C225.944 212.843 224.619 200.796 234.228 199.326Z"/>
	<path fill="#311A40" d="M282.859 196.808C291.752 196.248 293.652 208.225 285.294 210.79C275.484 210.898 273.91 199.851 282.859 196.808Z"/>
	<path fill="#311A40" d="M278.807 239.546C288.604 238.954 283.791 251.733 279.72 255.958C269.267 266.806 250.828 264.743 240.552 254.822L238.693 252.495C236.822 249.661 235.695 243.721 239.41 241.737C244.338 239.106 247.564 245.482 250.588 248.179C256.659 253.594 266.055 253.9 271.391 247.444C273.695 244.656 275.131 241.432 278.483 239.709L278.807 239.546Z"/>
	<path fill="#9381FF" d="M344.504 308.574L332.42 299.24C322.697 291.588 322.529 291.952 310.93 291.068C310.642 290.782 310.689 290.905 310.59 290.57C308.751 284.342 305.406 279.955 300.725 275.569C302.44 273.663 304.742 272.226 306.523 270.294C315.304 260.769 321.337 249.38 324.685 236.916L326.669 228.365C327.787 223.289 330.491 224.482 334.625 221.173C337.414 218.941 338.886 215.988 340.283 212.784C341.484 213.727 342.944 214.047 344.38 214.502L383.05 228.174L422.554 246.94C427.726 249.554 432.531 252.847 437.928 255.012L438.72 256.453C439.846 259.938 439.935 264.217 440.268 267.875C443.571 304.172 433.232 336.242 410.151 363.846L404.718 369.737C398.815 376.67 393.708 383.121 383.742 383.383C391.658 362.371 367.826 330.18 354.699 316.177L354.923 315.25C352.793 312.24 349.026 306.596 344.504 308.574Z"/>
	<path fill="#B8B8FF" d="M154.238 89.3513C156.385 89.7363 158.456 88.1578 160.5 87.5262C164.535 86.2796 168.989 85.9465 173.166 85.4897L220.641 80.6256C224.973 80.2932 229.194 79.6269 233.508 79.3646L244.723 79.0885C274.969 78.9682 305.746 84.2694 332.39 99.375C334.238 100.423 335.899 101.713 337.192 103.41L337.636 106.214L337.676 106.462C337.879 108.052 337.448 109.66 337.145 111.215C344.433 114.635 352.288 116.67 359.169 120.987C389.503 140.015 414.722 182.621 427.016 216.644L435.008 241.75C436.172 246.043 437.422 250.592 437.928 255.012C432.531 252.847 427.726 249.554 422.554 246.94L383.05 228.174L344.38 214.502C342.944 214.047 341.484 213.727 340.283 212.784C344.338 200.036 342.245 188.985 330.379 182.057C334.93 165.985 334.977 138.481 324.236 125.245C320.242 120.323 316.671 119.498 310.777 118.847C310.005 115.706 308.79 109.72 305.375 108.502C303.115 107.696 300.895 105.512 298.884 104.152C281.807 92.603 259.773 89.662 239.606 90.7756C205.584 92.6543 173.645 106.641 173.729 144.875C173.754 156.408 176.659 161.876 181.43 171.851C183.95 177.122 184.682 182.632 185.038 188.39L181.233 191.393C175.579 196.34 174.74 202.216 174.249 209.386C173.163 209.414 172.316 209.299 171.283 208.959C142.892 199.608 129.7 184.647 129.706 153.925C129.709 138.978 132.201 124.102 137.332 110.054L140.813 100.991C139.216 101.313 137.949 101.978 136.266 102.147L135.787 101.476C140.433 97.5697 148.496 91.7729 154.238 89.3513Z"/>
</svg>
