<?xml version="1.0" encoding="utf-8" ?>
<svg xmlns="http://www.w3.org/2000/svg" xmlns:xlink="http://www.w3.org/1999/xlink" width="512" height="512">
	<path fill="#9381FF" d="M84.0386 127.323C94.6572 128.194 94.8363 143.454 84.711 145.802C73.9981 144.034 73.527 129.201 84.0386 127.323Z"/>
	<path fill="#B8B8FF" d="M86.028 93.0636C97.4833 91.7937 97.71 111.939 87.5962 114.238L85.5 113.774C75.6303 110.819 76.678 96.7122 86.028 93.0636Z"/>
	<path fill="#20122D" d="M320.415 319.102C324.211 318.817 342.305 318.463 344.518 319.837L345.355 320.305C351.249 323.642 349.033 332.933 342.405 333.779L339.583 333.979L324.216 333.759C319.367 333.747 311.37 334.291 310.568 327.55C309.884 321.792 315.638 319.53 320.415 319.102Z"/>
	<path fill="#20122D" d="M278.239 107.341C282.231 107.326 286.939 106.882 290.867 107.613C295.591 108.492 296.723 114.31 293.375 117.569C291.049 119.833 287.27 119.278 284.344 119.281L272.774 119.331C272.398 120.306 272.521 121.588 272.502 122.625L272.488 129.233C275.4 128.608 278.767 128.701 281.762 128.602C286.503 128.446 294.018 129.01 291.288 136.465C290.711 138.04 289.429 138.912 287.949 139.568L287.592 139.721C285.928 140.45 283.99 140.37 282.203 140.385L275.351 140.424C274.514 140.429 273.267 140.279 272.491 140.559L272.269 140.668C272.247 146.333 273.452 156.587 272.971 160.542C272.127 167.484 260.978 169.433 260.532 158.366C260.272 151.901 260.26 145.137 260.692 138.677L262.043 124.985C263.308 111.465 262.411 107.656 278.239 107.341Z"/>
	<path fill="#20122D" d="M180.606 102.587C201.579 103.455 218.407 124.416 203.68 140.652C198.697 146.144 193.367 147.433 186.241 147.803L186.615 153.004C186.979 155.936 188.4 161.683 186.937 164.254C183.506 170.28 176.771 168.012 175.16 161.51L174.831 160.035C174.406 157.399 174.369 154.664 174.163 152L173.399 120.53C173.421 113.631 171.286 104.021 180.606 102.587Z"/>
	<path fill="#F8F7FF" d="M185.453 115.043L192.412 118.698C194.275 119.907 196.374 121.738 196.796 124.001L196.976 125.062C197.391 128.362 196.642 131.291 194.568 133.889C191.996 136.438 188.98 136.487 185.586 136.571L185.453 115.043Z"/>
	<path fill="#20122D" d="M272.286 318.911C274.298 318.444 276.81 318.328 278.798 318.655L279.125 318.715C286.285 319.984 285.077 331.787 277.407 332.565C272.252 333.087 266.732 332.667 261.536 332.708L175.881 337.269L173.73 337.404C160.42 337.972 161.594 324.579 170.3 323.242C173.61 322.734 177.497 323.137 180.875 323.078L196.644 322.283C198.429 322.185 200.179 321.833 201.94 321.722L272.286 318.911Z"/>
	<path fill="#20122D" d="M221.993 102.059C243.772 99.6442 273.373 135.995 238.669 157.709C234.182 160.422 221.107 166.818 216 164.211C210.137 161.22 214.224 152.679 214.408 146.323L214.474 119.838C214.481 112.222 212.513 104.423 221.993 102.059Z"/>
	<path fill="#F8F7FF" d="M226.427 114.578C239.537 119.368 250.655 133.338 237.273 144.647C234.186 146.871 228.149 149.256 226.717 150.379L226.427 114.578Z"/>
	<path fill="#9381FF" d="M69.509 316.159C69.2361 310.937 69.3263 305.379 69.5885 300.148L75.4767 182.747C75.721 179.069 75.8677 175.315 76.397 171.668C78.0331 160.399 89.7975 159.487 90.8662 169.486C91.2204 172.799 90.6912 176.56 90.4827 179.908L88.3378 228.25L87.572 246.902C87.1037 259.034 86.2405 271.112 86.7615 283.269L85.4442 301.576C85.2948 303.859 85.1425 314.08 84.8993 315.09C80.0601 309.92 74.4131 312.478 69.509 316.159Z"/>
	<path fill="#20122D" d="M324.865 243.385C327.802 243.017 333.196 242.286 335.622 243.823C340.818 247.113 340.489 256.054 334.261 257.159C333.035 257.377 331.626 257.245 330.38 257.23L289.626 257.315L254.625 258.603L222.156 260.295C212.02 260.438 202.477 261.37 192.533 261.397L175.875 261.425L169.358 261.446C158.605 261.416 160.071 249.844 167.036 247.946L167.328 247.875C170.341 247.123 174.258 247.727 177.398 247.734L203.102 247.653L266.562 244.323L285.264 244.182C287.6 244.124 289.86 243.567 292.17 243.5L324.865 243.385Z"/>
	<path fill="#20122D" d="M289.314 353.012L330.902 353.02C332.845 353.024 335.006 352.913 336.903 353.337L337.25 353.42C343.949 354.878 344.94 366.917 338.087 367.447C335.311 367.662 332.305 367.298 329.5 367.262L278.752 367.296L218.755 370.518L183.111 372.917C179.935 373.124 176.475 373.574 173.306 373.209C165.167 372.271 165.685 361.393 173.378 359.529C175.706 358.965 178.478 359.126 180.871 359.055L258.693 354.143C265.644 353.815 273.07 353.146 279.911 353.083L289.314 353.012Z"/>
	<path fill="#20122D" d="M286.065 281.433L324.055 281.43C328.41 281.438 343.038 280.317 346.357 282.205L346.75 282.454C349.51 284.123 351.202 286.906 350.349 290.224L350.272 290.5C348.268 297.773 337.696 295.022 332.313 294.818L250.615 295.483L223.812 297.149L177.933 299.37C174.465 299.398 170.693 299.901 167.268 299.441C162.132 298.749 159.552 292.238 163.318 288.375C166.908 284.692 172.102 285.526 176.754 285.519L196.324 285.38L259.118 282.108C261.205 282.001 263.289 281.571 265.375 281.49L286.065 281.433Z"/>
	<path fill="#20122D" d="M286.803 205.593L333.616 205.612C335.754 205.62 338.005 205.495 340.125 205.783C348.542 206.928 348.302 219.09 340.369 219.782C337.189 220.06 333.768 219.041 330.548 218.935L267.22 219.511L257.296 220.298L218.289 221.882C217.076 221.715 213.845 222.194 212.387 222.229L199.915 222.425C198.067 222.538 196.233 222.925 194.391 222.965L168.398 223.413C156.662 224.032 155.703 209.953 165.845 208.806C167.385 208.632 169.063 208.752 170.613 208.754L210.843 208.616C213.319 208.554 215.681 208.172 218.125 208L262.198 206.384C264.307 206.329 266.296 205.764 268.375 205.678L286.803 205.593Z"/>
	<path fill="#20122D" d="M417.157 188.558L417.193 178.241C417.209 175.884 417.091 173.058 417.727 170.781C419.678 163.8 428.085 163.136 431.962 168.75L432.124 168.978C432.836 170.003 433.145 171.263 433.15 172.505L432.431 206.252L430.935 238.072L430.321 271.844C430.274 273.982 429.846 276.085 429.781 278.237L429.741 372.325C429.781 374.997 430.238 377.659 430.305 380.341L430.947 421.055C430.942 430.336 430.968 439.988 429.177 449.132L429.052 449.717C419.644 493.383 393.21 495.713 353.316 495.781L134.43 495.761C114.756 495.777 83.3665 495.734 71.4102 477.055C63.2045 464.235 65.0507 449.013 66.1039 434.625L66.7159 419C66.7972 417.125 67.1388 415.299 67.1822 413.402L67.6519 344.625C67.6896 342.908 68.0066 341.213 68.0539 339.492L68.2045 326.928C68.2531 323.491 68.0288 319.362 69.4829 316.159C74.4131 312.478 80.0601 309.92 84.8993 315.09L84.958 315.309C86.7557 319.595 85.2598 324.054 84.9983 328.563L84.7358 342.17C84.6903 343.818 84.4151 345.454 84.3354 347.102L84.2058 414.367L83.4554 437.433C82.9178 448.085 80.1739 461.101 88.4687 469.519C98.9068 480.112 125.09 479.246 138.812 479.247L226.516 479.253C229.631 479.281 232.719 479.777 235.812 479.8L357.625 479.246C382.95 477.846 400.272 478.326 408.447 451.359C413.815 433.654 414.477 415.01 414.472 396.644L414.417 379.62C414.355 377.01 413.77 374.505 413.74 371.888L413.839 293.804C413.954 291.816 414.394 289.868 414.433 287.875L414.543 266.48C414.608 264.503 415.032 262.592 415.103 260.629L417.157 188.558Z"/>
	<path fill="#9381FF" d="M133.459 19.1396L164.581 15.2459C166.963 15.0321 169.383 15.1247 171.773 15.0025L203.5 13.0379L231.417 12.5025L300.149 12.8401C313.473 13.1104 328.053 12.0577 339.188 20.568C352.547 30.7776 364.376 43.1021 376.505 54.7092L411.921 88.8944C419.477 96.8345 429.609 108.081 435.479 117.5C440.598 125.715 433.548 133.138 425.923 133.897C422.242 134.263 419.172 130.497 417.54 127.637C403.554 131.478 390.174 133.131 375.672 133.764C349.243 134.917 330.996 135.259 328.287 105.25L327.302 81.9094C327.192 79.2489 326.63 76.6414 326.49 73.9739L326.293 51.6495C326.288 45.7077 325.96 39.45 326.634 33.5424L268.181 29.6082C265.822 29.5298 263.534 29.0165 261.154 28.9553L204.668 28.9128C196.969 28.9802 189.102 29.4552 181.375 29.7957L146.926 32.5094C142.086 33.039 136.692 33.2427 132.08 34.8751C127.809 36.3868 128.235 40.6437 127.668 44.4529L124.799 69.6339L117.575 174.98L117.5 301.879C117.513 305.24 117.992 308.486 118.085 311.832L118.181 340.285C118.183 340.643 118.275 341.4 118.127 341.699C118.04 344.085 118.134 346.539 118.124 348.936L118.134 427.435C118.132 431.747 117.689 436.289 118.304 440.552L131.524 439.169C131.577 442.538 132.171 446.872 130.815 449.959L135.249 450.336L130.75 450.527C130.099 451.319 128.865 452.564 127.999 452.999L127.625 453.123C122.29 455.192 116.889 454.446 111.25 454.395L110.877 454.125C110.443 454.16 110.284 454.159 109.887 453.943L109.562 453.749C108.638 453.283 108.072 452.922 107.412 452.109L107.127 451.75C106.866 451.43 106.749 451.326 106.666 450.906L106.627 450.625C105.295 449.293 105.189 444.338 105.061 442.229L104.807 431.875C104.592 427.215 104.715 424.843 104.862 420.25L104.862 408.316C104.826 405.65 104.393 403.002 104.407 400.344C104.442 393.647 105.146 386.945 104.573 380.237C103.59 386.839 104.912 393.803 104.432 400.438C103.46 398.166 104.437 380.725 104.429 375.354L104.352 287.418C104.298 278.353 103.249 269.77 103.19 260.383L102.897 244.157C102.894 236.274 103.183 228.2 102.286 220.358L102.382 196.154L105.245 147.275C105.411 144.623 105.98 142.032 106.126 139.365L108.505 88L113.277 44.6551C113.36 43.5526 113.601 42.1782 113.287 41.125C111.399 40.4741 108.571 41.1175 106.816 41.9247L106.353 42.2748C98.8303 47.9266 98.3463 59.0582 96.864 67.6421C95.7538 74.0706 91.8573 83.7666 84.0789 78.0179C79.6298 74.7297 82.028 69.2797 82.6927 64.6323C84.9131 49.1085 86.4983 31.4438 106.328 29.1521C106.881 28.8796 107.995 28.7927 108.622 28.6728L115.392 27.5211L126.313 23.6689C122.925 22.0338 116.578 25.2404 113.44 26.5119L111.375 26.4558C110.8 26.1056 110.665 26.1358 110.48 25.5L110.733 25.125C115.863 22.2008 127.657 19.9954 133.459 19.1396ZM342.138 71.5507C343.151 73.9272 363.073 87.6231 365.692 89.3082L379 97.5062C383.367 100.221 392.213 105.17 391.046 111.5L391.001 111.761C390.305 115.546 387.439 117.591 384.006 118.627C380.991 118.887 371.984 118.538 370.804 119.007C374.93 119.624 378.985 120.031 383.158 119.648L383.196 119.587L389.311 119.056L413.298 116.97L342.566 46.8629C342.008 49.518 342.306 52.7936 342.295 55.5275L342.138 71.5507Z"/>
	<path fill="#F8F7FF" d="M341.38 91.3731C346.01 94.9398 350.64 98.4317 355.675 101.416L365.094 106.743C368.388 108.54 371.499 110.121 374.298 112.663C373.788 114.351 373.685 115.626 373.613 117.375L373.506 117.566C372.502 119.02 367.708 118.343 366.17 118.302C342.539 117.67 344.166 111.185 341.38 91.3731Z"/>
	<defs>
		<linearGradient id="gradient_0" gradientUnits="userSpaceOnUse" x1="63.688202" y1="410.64401" x2="443.18799" y2="259.06601">
			<stop offset="0" stop-color="#9A99FF"/>
			<stop offset="1" stop-color="#BFC0FF"/>
		</linearGradient>
	</defs>
	<path fill="url(#gradient_0)" d="M118.273 341.699L130.351 344.148C133.497 339.895 133.004 335.932 139.574 332.951C146.615 337.018 145.784 341.809 145.797 348.888C145.819 361.575 145.028 377.103 152.584 387.925L152.801 388.232C155.06 391.473 158.259 393.982 162.067 395.139L162.5 395.267C171 397.851 192.942 395.16 202.375 394.409L297.387 387.152L317.729 386.433C330.554 386.02 345.563 386.059 356.914 379.277C366.773 373.386 367 363.353 369.184 353.053L373.489 334C381.6 300.108 391.032 266.673 396.408 232.179L398.65 216.956C399.255 211.017 398.098 202.045 403.028 197.625C406.396 194.605 411.888 191.549 416.527 191.884L417.156 188.558L415.103 260.629C415.032 262.592 414.608 264.503 414.543 266.48L414.433 287.875C414.394 289.868 413.954 291.816 413.839 293.804L413.74 371.888C413.77 374.505 414.355 377.01 414.417 379.62L414.472 396.644C414.477 415.01 413.815 433.654 408.447 451.359C400.272 478.326 382.95 477.846 357.625 479.246L235.812 479.8C232.719 479.777 229.631 479.281 226.516 479.253L138.812 479.247C125.09 479.246 98.9068 480.112 88.4687 469.519C80.1739 461.101 82.9178 448.085 83.4554 437.433L84.2058 414.367L84.3354 347.102C84.4151 345.454 84.6903 343.818 84.7358 342.17L84.9983 328.563C85.2598 324.054 86.7557 319.595 84.958 315.309L84.8993 315.09C85.1425 314.08 85.2948 303.859 85.4442 301.576L86.7673 283.269L87.25 283.66C91.7612 281.71 91.4784 275.493 91.9624 271.402L95.1797 232.946C96.216 220.094 98.0113 212.635 100.644 200.214C100.729 202.497 101.267 222.184 101.898 222.873L102.282 220.358C103.183 228.2 102.894 236.274 102.897 244.157L103.19 260.383C103.249 269.77 104.298 278.353 104.352 287.418L104.429 375.354C104.437 380.725 103.46 398.166 104.432 400.438C104.912 393.803 103.59 386.839 104.573 380.237C105.146 386.945 104.442 393.647 104.407 400.344C104.393 403.002 104.826 405.65 104.862 408.316L104.862 420.25C104.715 424.843 104.592 427.215 104.807 431.875L105.061 442.229C105.189 444.338 105.295 449.293 106.627 450.625L106.666 450.906C106.749 451.326 106.866 451.43 107.127 451.75L107.412 452.109C108.072 452.922 108.638 453.283 109.562 453.749L109.887 453.943C110.284 454.159 110.443 454.16 110.877 454.125L111.25 454.395C116.889 454.446 122.29 455.192 127.625 453.123L127.999 452.999C128.865 452.564 130.099 451.319 130.75 450.527L135.249 450.336L130.815 449.959C132.171 446.872 131.577 442.538 131.524 439.169L118.304 440.552C117.689 436.289 118.132 431.747 118.134 427.435L118.124 348.936C118.134 346.539 118.04 344.085 118.273 341.699Z"/>
	<path fill="#9381FF" d="M191.391 435.762L285.491 435.83C287.918 435.842 291.054 435.449 293.388 435.913C296.817 436.593 300.781 441.302 300.062 444.936L299.994 445.25C298.352 453.198 287.563 451.903 281.495 451.937L264.893 452.01L264.871 459.875L264.831 452.412L253.375 452.022C250.007 451.56 246.276 451.93 242.835 451.676C219.29 449.941 195.502 450.602 171.876 450.641L158.442 450.72C155.861 450.803 150.705 451.836 148.254 450.833L146.35 449.529C142.75 446.389 142.527 438.834 147.756 437.342C152.692 435.932 158.973 436.515 164.125 436.363L191.391 435.762Z"/>
</svg>
