<?xml version="1.0" encoding="utf-8" ?>
<svg xmlns="http://www.w3.org/2000/svg" xmlns:xlink="http://www.w3.org/1999/xlink" width="512" height="512">
	<path fill="#3F32A3" d="M260.431 349.423L268.245 349.427C271.777 349.434 275.276 348.92 278.182 351.372C282.773 355.245 282.159 365.414 275.064 365.598L228.441 365.584C226.197 365.606 223.777 365.825 221.559 365.567C211.317 364.377 215.624 353.879 215.6 353.778L216.921 352.345C221.55 347.67 231.697 349.439 237.627 349.433L260.431 349.423Z"/>
	<path fill="#4A43BA" d="M247.445 44.8595L255.96 45.2549L256.207 45.2991C260.296 45.9915 264.592 46.0328 268.729 46.6027C281.151 48.3141 293.178 51.1453 304.923 55.5595L321.788 62.6785C326.924 65.0698 332.392 68.2578 337.913 69.5323L339.625 68.0455C340.923 69.9986 340.644 70.705 342.958 73.4734L350.483 82.3053C351.913 84 353.14 85.8556 354.705 87.4318C350.164 89.0252 342.728 85.6536 337.963 85.4017L324.077 77.7267C296.211 63.5366 271.554 57.557 240.749 58.2905C234.948 58.4287 229.265 59.5645 223.496 59.824C220.753 58.1444 218.96 56.1577 217.806 53.1474C221.617 44.0261 233.4 45.1795 241.555 44.9354C243.459 44.8784 245.56 44.6276 247.445 44.8595Z"/>
	<path fill="#B8B8FF" d="M247.445 44.75L248.001 43.0012C248.086 42.6931 248.117 42.394 248.238 42.0937L248.392 41.75C249.377 39.4474 250.264 39.6994 251.394 36.1108L251.605 35.3912C251.74 34.841 252.702 34.0621 253.125 33.6275L254 33.6275C255.1 32.8945 256.847 33.7814 258.137 33.08L264.001 30.2512C264.403 30.0505 264.75 29.8774 265.125 29.6275L264.751 28.0625L265.312 28.1262C265.495 28.4612 265.631 28.7223 265.707 29.1015L267 29.3775C268.094 28.648 270.259 29.0873 271.501 28.7512L269.626 28.0625L265.75 27.25C265.223 26.8986 265.218 27.0257 264.625 27.1225L263.126 26.5625C262.168 26.6281 261.795 26.2222 260.875 26.3725L259.75 26.1225C259.23 25.6912 258.9 25.7596 258.251 25.6875L258.251 25.5012C258.479 25.4259 276.652 28.7517 279.644 29.5242C293.841 32.0759 308.087 35.1222 321.875 39.3873L349.482 48.7144C350.078 48.8838 363.072 50.453 364.031 50.4117C374.722 55.0251 393.847 74.1246 401.752 82.446C400.176 84.2153 374.033 91.5077 368.343 91.8385L368.327 91.8709C367.398 91.9847 366.244 91.7346 365.375 91.926L364.909 92.125C361.429 91.9854 357.251 89.6594 354.705 87.4318C353.14 85.8556 351.913 84 350.483 82.3053L342.958 73.4734C340.644 70.705 340.923 69.9986 339.625 68.0455L337.913 69.5323C332.392 68.2578 326.924 65.0698 321.788 62.6785L304.923 55.5595C293.178 51.1453 281.151 48.3141 268.729 46.6027C264.592 46.0328 260.296 45.9915 256.207 45.2991L255.96 45.2549L247.445 44.75Z"/>
	<path fill="#B8B8FF" d="M79.4521 132.792C79.6111 132.715 80.162 131.86 80.3022 131.672L83.3546 127.509C109.86 92.4679 137.495 74.5383 176.646 58.0767L184.593 54.5858C186.158 53.8504 187.723 52.9109 189.347 52.3322C194.336 50.5541 200.162 57.8092 196.815 63.2081C194.36 67.1679 188.676 68.1081 184.503 69.1069L185 69.6275C187.373 69.6496 189.989 69.4527 192.274 70.1381C213.246 76.4288 221.822 100.602 202.031 113.37C193.6 118.81 184.163 122.56 175.726 128.086C128.857 158.788 104.292 204.993 104.348 260.638C104.38 293.25 115.688 323.586 133.235 350.87L139.474 360.258C145.905 369.482 156.835 383.36 143 391.548L140.774 392.621C122.772 384.26 107.435 368.258 95.6979 352.544C90.1047 345.056 86.7488 331.853 77.1417 340.815L77.625 339.75L72.6887 326.75C72.3557 325.905 72.0331 324.982 71.7448 324.117L69.8775 319.125C69.5302 318.416 69.2605 317.775 69.019 317.025L68.9682 316.166C67.2344 310.609 65.9463 303.907 61.9348 299.539C60.844 298.184 55.4143 294.678 56.0273 293.159C57.8813 288.566 56.4289 272.208 55.1466 267.803C54.3755 266.333 53.4903 265.097 52.4563 263.807L51 263.952C49.6315 263.291 48.9096 262.573 47.9373 261.402L50.0465 258.839C43.8517 257.434 44.7417 250.96 44.7271 245.735L45.4334 230.375C48.1337 198.567 57.4297 165.646 75.4094 138.901C76.7172 136.956 78.2231 135.067 79.3374 133.01L79.4521 132.792Z"/>
	<path fill="#F8F7FF" d="M55.9874 255.782C56.3631 257.006 55.7673 258.717 55.6783 260.006C55.4156 260.024 55.539 259.992 55.2525 260.148L55.0277 260.276C53.8542 259.507 53.1591 258.965 52.4823 257.678L55.9874 255.782Z"/>
	<defs>
		<linearGradient id="gradient_0" gradientUnits="userSpaceOnUse" x1="138.093" y1="173.11099" x2="86.771698" y2="121.352">
			<stop offset="0" stop-color="#4A45AE"/>
			<stop offset="1" stop-color="#5557DA"/>
		</linearGradient>
	</defs>
	<path fill="url(#gradient_0)" d="M79.4521 132.792C79.6111 132.715 80.162 131.86 80.3022 131.672L83.3546 127.509C109.86 92.4679 137.495 74.5383 176.646 58.0767L184.593 54.5858C186.158 53.8504 187.723 52.9109 189.347 52.3322C194.336 50.5541 200.162 57.8092 196.815 63.2081C194.36 67.1679 188.676 68.1081 184.503 69.1069C181.889 69.5878 179.378 70.5109 176.875 71.3835L165.392 75.8898C111.011 99.7937 68.9825 153.385 59.3285 212.105C58.3753 217.902 57.9855 223.794 57.4538 229.642L56.6081 249.306C56.5869 251.311 56.6732 253.349 56.1175 255.292L55.9874 255.782L52.4823 257.678L50.0465 258.839C43.8517 257.434 44.7417 250.96 44.7271 245.735L45.4334 230.375C48.1337 198.567 57.4297 165.646 75.4094 138.901C76.7172 136.956 78.2231 135.067 79.3374 133.01L79.4521 132.792Z"/>
	<path fill="#3F32A3" d="M167.461 309.411C164.653 307.078 162.82 305.042 162.236 301.25L162.164 300.812C160.544 290.129 165.575 282.075 174.892 277.463L170.908 263.1C164.587 242.95 144.877 188.269 146.736 168.428C147.342 161.961 153.974 157.392 160.141 159.121C171.857 162.406 194.175 177.78 204.5 184.461L206.325 185.621C207.191 186.151 207.282 185.201 207.798 184.496L222.814 161.15L240.185 129.874C243.217 123.9 248.119 111.509 257.322 117.538C259.905 119.23 261.494 122.367 262.913 125.01L290.749 174.179C293.029 177.816 295.672 182.303 299.161 184.918C319.992 178.647 375.281 132.548 364.461 186.618L359.991 205.369L345.283 254.123L338.337 273.308C337.374 275.942 335.182 279.02 335.936 281.75C336.145 282.509 335.827 284.209 335.756 285.082L334.6 295.344C334.207 300.024 334.141 304.882 333.31 309.5L333.24 309.909C332.568 313.594 329.561 316.521 326.125 317.775L325.774 317.905C323.261 318.765 320.114 318.468 317.48 318.414L273.848 316.622L240.976 315.756C239.672 315.715 238.178 315.538 236.892 315.718L205.349 314.677C193.645 314.177 177.917 315.329 167.461 309.411Z"/>
	<path fill="#F8F7FF" d="M204.332 287.659C212.697 286.443 220.989 286.589 229.416 286.601L245.456 286.735L316.351 293.567C316.237 295.887 316.334 298.647 315.537 300.853L202.742 297.549C195.053 297.563 183.79 298.746 177.59 293.03C180.757 289.745 185.369 289.802 189.625 289.253L204.332 287.659Z"/>
	<path fill="#F8F7FF" d="M176.886 236.909L161.415 176.152C166.488 179.471 172.359 181.902 177.694 184.817L192.693 193.314C195.669 195 207.643 201.94 211.103 200.107L211.375 199.949C218.263 196.094 226.856 179.4 231.174 172.593C238.284 161.382 245.808 150.389 252.148 138.712L257.425 147.675L257.146 147.848C255.882 148.602 254.688 148.857 253.257 149.136C251.304 151.107 249.897 153.393 248.241 155.601L239.425 167.894C233.759 176.45 223.191 195.033 214.75 200.765L203.145 210.022C202.368 210.594 201.035 210.74 200.103 211.093L203.017 211.021C201.228 214.113 199.422 217.475 196.91 220.05C192.038 223.228 187.683 226.64 183.431 230.614L183.553 234.672C184.535 245.284 187.801 255.887 190.778 266.085L192.815 272.656L188.037 273.582L176.886 236.909Z"/>
	<path fill="#B8B8FF" d="M257.425 147.675C259.423 150.355 261.114 153.311 262.919 156.129L272.48 171.583C278.507 182.095 285.27 198.319 299 200.234L302.154 200.341C305.941 199.443 309.509 197.343 312.933 195.537L330.988 185.688C333.317 184.469 345.082 178.012 347.041 178.625L346.868 179.906C342.817 207.552 331.234 252.063 319.208 277.913C308.776 275.725 297.95 274.801 287.342 273.759L266.501 271.76L225.096 270.693L194.831 272.493C194.383 272.534 193.205 272.771 192.815 272.656L190.778 266.085C187.801 255.887 184.535 245.284 183.555 234.672L183.431 230.614C187.683 226.64 192.038 223.228 196.91 220.05C199.422 217.475 201.228 214.113 203.017 211.021L200.103 211.093C201.035 210.74 202.368 210.594 203.145 210.022L214.75 200.765C223.191 195.033 233.759 176.45 239.425 167.894L248.241 155.601C249.897 153.393 251.304 151.107 253.257 149.136C254.688 148.857 255.882 148.602 257.146 147.848L257.425 147.675Z"/>
	<path fill="#F8F7FF" d="M302.154 200.341C305.941 199.443 309.509 197.343 312.933 195.537L330.988 185.688C333.317 184.469 345.082 178.012 347.041 178.625L346.868 179.906C343.19 181.175 340.74 183.197 337.457 185.212L312.019 198.08C308.82 199.629 305.572 201.03 302.625 203.041L302.626 202.688C302.971 202.366 303.189 202.311 303.562 202.062L303.293 200.567C302.455 200.621 301.566 200.864 300.75 200.622C301.223 200.541 301.691 200.471 302.154 200.341Z"/>
	<path fill="#3F32A3" d="M253.546 185.817C261.532 184.737 262.486 192.09 262.503 198.482L262.498 208.202C262.486 214.424 264.016 222.29 256.955 225.188C245.868 225.795 247.983 212.023 247.981 204.93L247.993 196.721C248.009 191.774 248.381 187.945 253.546 185.817Z"/>
	<path fill="#9381FF" d="M196.91 220.05C199.269 220.019 203.303 218.971 205.036 220.826C213.377 229.756 219.505 257.321 218.714 269.554L218.56 270.574L225.096 270.646L194.831 272.493C194.383 272.534 193.205 272.771 192.815 272.656L190.778 266.085C187.801 255.887 184.535 245.284 183.555 234.672L183.431 230.614C187.683 226.64 192.038 223.228 196.91 220.05Z"/>
	<path fill="#9381FF" d="M401.752 82.446C416.641 96.7845 432.584 121.614 441.44 140.972C442.73 143.055 443.61 145.449 444.614 147.684L450.15 160.486C466.757 201.568 471.522 252.148 461.373 295.35C451.396 337.821 439.163 366.006 409.335 398.334C402.102 406.172 394.373 413.928 386.125 420.703C350.134 450.267 303.002 470.402 256.546 473.183L242.544 473.335C199.102 473.282 147.839 456.788 112.937 431.887C92.1659 417.068 69.491 388.855 56.4727 367.688L49.264 355C48.9297 354.366 47.8371 352.732 47.8242 352.075C45.3252 347.695 43.3713 342.832 41.3656 338.207L36.9202 327.027C36.4025 325.569 35.7576 324.198 35.3743 322.691L35.6128 322.253C35.2889 321.702 35.2427 321.146 35.0273 320.555L28.9064 298.619C27.2564 291.615 26.7162 285.347 26.7053 278.214L27.717 255.256C28.4736 245.195 29.1342 235.123 30.6966 225.146C36.0081 191.231 46.6776 162.644 64.8544 134L65.1998 133.454C65.5653 132.781 65.9068 132.232 66.375 131.627L66.6225 132C66.1131 133.085 65.3403 134.429 64.5834 135.375L64.625 136.25L65.375 135.377L65.75 135.75L67.25 135.75L69.5 136.5L70.5547 136.642C71.0111 136.593 72.434 137.315 72.8751 137.635L73.1875 137.876C73.5413 137.699 73.5702 137.784 73.9375 137.876L74.75 138.25C75.2449 137.92 75.5451 137.639 75.8777 137.141L76.875 135.627C77.6995 134.496 78.3159 133.63 79.4521 132.792L79.3374 133.01C78.2231 135.067 76.7172 136.956 75.4094 138.901C57.4297 165.646 48.1337 198.567 45.4334 230.375L44.7271 245.735C44.7417 250.96 43.8517 257.434 50.0465 258.839L47.9373 261.402C48.9096 262.573 49.6315 263.291 51 263.952L52.4563 263.807C53.4903 265.097 54.3755 266.333 55.1466 267.803C56.4289 272.208 57.8813 288.566 56.0273 293.159C55.4143 294.678 60.844 298.184 61.9348 299.539C65.9463 303.907 67.2344 310.609 68.9682 316.166L69.019 317.025C69.2605 317.775 69.5302 318.416 69.8775 319.125L71.7448 324.117C72.0331 324.982 72.3557 325.905 72.6887 326.75L77.625 339.75L77.1417 340.815C86.7488 331.853 90.1047 345.056 95.6979 352.544C107.435 368.258 122.772 384.26 140.774 392.621C144.093 394.557 146.934 399.619 143.785 403.043C145.385 404.885 161.834 409.958 164.453 410.473L166.253 409.255C172.726 405.212 170.008 404.701 174.683 407.911C178.274 410.377 182.553 412.009 186.634 413.474C233.064 430.138 287.663 426.85 329.946 400.364C333.621 398.721 337.343 396.06 340.689 393.808C358.765 381.74 371.059 367.713 385.674 351.992L392.25 344.916C399.656 336.892 394.174 338.806 395.768 334.49L395.966 334.125C397.181 331.714 399.14 329.666 400.651 327.419C402.801 324.222 404.548 320.761 406.241 317.306C424.819 279.392 430.759 225.795 416.847 185.154C415.1 180.421 413.787 175.588 411.8 170.938C401.017 145.709 383.728 123.219 362.935 105.378L337.963 85.4017C342.728 85.6536 350.164 89.0252 354.705 87.4426C357.251 89.6594 361.429 91.9854 364.909 92.125L365.375 91.926C366.244 91.7346 367.398 91.9847 368.327 91.8709L368.343 91.8385C374.033 91.5077 400.176 84.2153 401.752 82.446Z"/>
	<path fill="#524FDB" d="M68.9682 316.166C67.7274 316.66 66.5001 317.487 65.275 318.067L55.9193 322.495C50.3512 325.283 44.6776 328.831 38.4643 329.773L60.8091 318.238C59.8273 312.414 58.1688 306.614 58.2185 300.688C59.3099 300.404 60.4902 300.16 61.5282 299.719L61.9348 299.539C65.9463 303.907 67.2344 310.609 68.9682 316.166Z"/>
	<path fill="#3F32A3" d="M77.1417 340.815C86.7488 331.853 90.1047 345.056 95.6979 352.544C107.435 368.258 122.772 384.26 140.774 392.621C144.093 394.557 146.934 399.619 143.785 403.043C136.049 406.713 135.903 406.708 128.192 401.53C109.883 389.235 94.2069 372.981 80.3851 355.908C75.4822 349.852 71.7823 347.946 77.1417 340.815Z"/>
	<path fill="#3F32A3" d="M416.847 185.154L424.354 182.622C425.761 182.096 427.09 180.933 428.649 181.364L428.963 181.446C434.969 183.158 435.5 196.899 436.323 201.738C444.024 247.022 437.961 295.076 413.333 334.551C408.105 342.93 410.122 338.471 405.006 341.628L404.736 347.59C404.7 348.781 404.746 350.209 404.287 351.322C400.124 361.402 374.726 386.451 366.618 393.116C308.666 440.749 241.845 452.829 172.566 425.281C164.521 422.082 162.241 421.705 163.994 412.258L164.453 410.473L166.253 409.255C172.726 405.212 170.008 404.701 174.683 407.911C178.274 410.377 182.553 412.009 186.634 413.474C233.064 430.138 287.663 426.85 329.946 400.364C333.621 398.721 337.343 396.06 340.689 393.808C358.765 381.74 371.059 367.713 385.674 351.992L392.25 344.916C399.656 336.892 394.174 338.806 395.768 334.49L395.966 334.125C397.181 331.714 399.14 329.666 400.651 327.419C402.801 324.222 404.548 320.761 406.241 317.306C424.819 279.392 430.759 225.795 416.847 185.154Z"/>
	<path fill="#3F32A3" d="M364.031 50.4117L354.626 44.6696C328.601 30.1051 301.232 20.4627 271.54 17.2563L258.413 15.901C184.597 11.779 111.764 42.1161 66.3485 101.414C63.4264 105.229 60.8175 109.376 57.7418 113.044C53.8298 117.709 47.3168 116.195 45.8344 110.385C44.7598 106.174 49.0592 102.276 51.333 99.2138C71.4592 72.1131 95.7113 49.5954 125.284 33.3672L141.375 25.0197C158.411 17.2157 177.087 11.5405 195.375 7.74449L225.145 3.52104C226.494 3.37728 227.781 3.0975 229.148 3.01046L247.421 2.73624C283.853 2.76767 316.705 10.1676 349.481 26.3111C362.114 32.5334 373.705 40.3384 385.689 47.672C390.652 50.709 396.128 52.4912 401.065 55.7544C432.032 76.2204 466.286 111.864 484.497 144.624C492.551 159.111 500.763 181.285 504.09 197.676L508.125 217.878C509.655 226.176 510.011 232.278 510.02 240.734L510.019 288.989C510.017 295.24 510.643 302.349 509.196 308.459C506.796 318.592 505.865 329.044 503.116 339.131C494.417 371.053 481.222 402.019 460.496 428C446.321 445.769 428.427 463.476 409.028 475.619C382.613 492.153 348.108 506.934 316.515 509.758C311.106 510.242 305.417 509.924 299.98 509.933L289.729 509.939C287.39 509.937 285.05 510.024 282.728 509.698C282.161 506.012 281.145 502.026 285.331 500.701C287.672 500.669 290.165 500.137 292.513 499.925L326.311 495.186L331.889 493.913C330.702 492.34 329.762 490.748 328.847 489.003L321.772 472.798C306.331 477.927 280.246 485.272 263.626 485.575L268.718 503.037L268.686 503.238C268.327 505.718 263.9 509.141 261.5 509.707C257.446 510.663 238.765 509.922 234.787 509.467L213.693 506.309C209.06 505.489 204.438 504.73 199.869 503.577C167.725 495.462 124.213 471.195 103.495 445.129L99.3907 440.932L84.4333 426.246C51.532 391.765 31.3803 358.145 18.1038 313L12.5678 292.348C2.5969 246.127 5.67759 197.544 22.5036 153.25C23.7288 150.025 25.1328 145.631 28.5778 144.2C32.2491 142.676 36.9844 145.114 37.0136 149.324C37.043 153.555 34.8887 157.812 33.5534 161.763L30.0136 172.942C15.6415 220.939 17.4878 275.686 35.3743 322.691C35.7576 324.198 36.4025 325.569 36.9202 327.027L41.3656 338.207C43.3713 342.832 45.3252 347.695 47.8242 352.075C47.8371 352.732 48.9297 354.366 49.264 355L56.4727 367.688C69.491 388.855 92.1659 417.068 112.937 431.887C147.839 456.788 199.102 473.282 242.544 473.335L256.546 473.183C303.002 470.402 350.134 450.267 386.125 420.703C394.373 413.928 402.102 406.172 409.335 398.334C439.163 366.006 451.396 337.821 461.373 295.35C471.522 252.148 466.757 201.568 450.15 160.486L444.614 147.684C443.61 145.449 442.73 143.055 441.44 140.972C432.584 121.614 416.641 96.7845 401.752 82.446C393.847 74.1246 374.722 55.0251 364.031 50.4117ZM436.542 392.666C442.796 399.422 449.978 405.053 457 410.969C457.563 410.85 457.506 410.821 457.884 410.443C456.727 408.893 455.216 407.77 453.875 406.395L441.021 393.184C439.771 391.951 438.45 390.785 437.493 389.301C436.224 386.257 441.512 381.07 443.131 378.709L447.875 371.182C449.218 369.187 450.728 367.376 452.004 365.311C455.717 366.607 459.458 369.177 462.69 371.404C463.675 372.083 463.833 372.232 464.51 371.143L454.415 361.163C458.696 353.723 456.878 345.218 466.131 352.174C465.717 350.263 465.077 348.728 465.089 346.684L465.113 346.683C466.815 340.247 473.539 334.746 475.267 328.1C478.537 329.131 483.019 330.586 486.457 329.852L486.664 329.803C488.108 328.66 488.079 329.584 488.876 327.562L488.273 326.582C483.45 323.165 475.699 320.246 472.706 314.96C472.13 313.72 471.446 312.487 471.245 311.125L471.056 309.847C469.227 313.301 468.468 316.912 467.396 320.642L455.458 354.18C450.187 367.157 441.856 378.067 432.845 388.666L436.542 392.666ZM399.381 442.769C399.355 441.56 398.782 440.452 398.322 439.357L398.6 438.797C400.112 436.094 402.558 434.021 404.791 431.927L412.724 424.363C416.703 420.41 425.35 408.511 429.452 407.377C428.299 406.11 427.32 405.191 427.503 403.375L427.91 401.707C428.155 400.795 425.656 391.116 424.837 393.808C421.17 405.861 410.645 416.89 401.477 425.292L391.038 434.089L399.381 442.769ZM480.262 230.185C480.294 236.171 480.51 242.428 479.506 248.344C487.157 249.321 494.673 253.985 500.427 258.948C499.759 253.874 498.785 248.512 497.273 243.625L497.133 243.165C496.407 241.499 492.069 239.35 490.431 238.287L484.872 234.416C483.165 233.126 481.693 231.792 480.262 230.185ZM440.085 110.125C440.884 112.709 443.569 115.426 444.934 117.828L458.307 142.29C460.419 141.031 462.576 140.195 465.014 139.818L467.497 139.614C464.641 137.044 462.041 134.188 459.397 131.403L448.073 119.124C445.75 116.49 443.596 111.8 440.603 110.088L440.085 110.125Z"/>
	<path fill="#524FDB" d="M383.886 55.9624C384.582 55.5608 385.379 55.5882 386.163 55.5313C385.539 56.9841 384.871 58.4226 383.875 59.6643C383.628 58.329 384.365 57.5031 383.886 55.9624Z"/>
	<path fill="#5875D0" d="M146.927 467.381C148.572 467.746 150.12 468.154 151.692 468.762L151.734 468.828C151.389 469.086 151.048 469.329 150.732 469.623C149.866 469.572 149.363 469.715 148.566 470.042C148.162 468.903 147.184 468.61 146.927 467.381Z"/>
	<path fill="#4A43BA" d="M475.761 302.019C473.755 304.667 473.237 307.963 470.911 310.427C472.193 306.294 472.884 304.549 473.717 300.242C474.303 301.032 474.746 301.788 475.761 302.019Z"/>
	<path fill="#4A43BA" d="M383.886 55.9624L383.817 55.964C383.319 54.8774 382.603 52.0932 383.373 51.125C384.179 51.3381 385.263 52.2892 386 52.2973C388.549 52.3251 386.881 53.9259 386.163 55.5313C385.379 55.5882 384.582 55.5608 383.886 55.9624Z"/>
	<path fill="#524FDB" d="M148.566 470.042C147.448 471.002 147.004 471.752 146.482 473.102L146.321 473.526C143.659 472.447 140.03 468.665 136.757 466.596C140.108 466.786 143.628 466.563 146.927 467.155C147.184 468.61 148.162 468.903 148.566 470.042Z"/>
	<path fill="#F8F7FF" d="M151.734 468.828L157.5 470.806C167.243 473.86 179.18 477.349 186.349 484.935L157.059 472.035L150.732 469.623C151.048 469.329 151.389 469.086 151.734 468.828Z"/>
	<path fill="#4A43BA" d="M99.3907 440.932L99.6289 440.747C100.854 439.766 101.451 438.551 102.386 437.329L106.277 432.66C109.291 429.098 110.865 430.714 114.037 434.326C113.572 435.615 113.13 436.679 112.311 437.798L112.071 438.13C110.006 440.9 106.701 443.759 103.495 445.129L99.3907 440.932Z"/>
	<path fill="#7CCFFE" d="M464.317 158.732L475.212 158.787C475.834 159.203 476.127 159.475 476.472 160.139L487.306 186.823C473.177 174.36 469.84 179.988 464.317 158.732Z"/>
	<path fill="#F8F7FF" d="M475.489 196.094C475.185 194.247 474.403 192.515 473.63 190.822C475.256 192.3 476.654 193.917 478.367 195.352C488.662 203.599 493.546 207.333 495.722 220.847L495.731 220.963L495.786 221.329C495.974 222.523 497.255 225.014 497.137 225.997C496.166 225.181 495.219 224.318 494.133 223.657C489.667 222.174 480.252 213.118 479.878 220.375L479.625 220.377C479.631 218.365 479.121 216.376 478.819 214.392L475.489 196.094Z"/>
	<path fill="#F8F7FF" d="M210.766 491.916L203.515 489.655C201.152 488.699 200.41 487.701 199.467 485.432L211.774 486.785L248.794 488.186C250.013 490.685 250.485 494.189 250.861 496.945C237.417 496.122 223.914 494.968 210.766 491.916Z"/>
	<defs>
		<linearGradient id="gradient_1" gradientUnits="userSpaceOnUse" x1="465.16" y1="332.46301" x2="485.29999" y2="338.76901">
			<stop offset="0" stop-color="#FFFDF8"/>
			<stop offset="1" stop-color="#B6E5FF"/>
		</linearGradient>
	</defs>
	<path fill="url(#gradient_1)" d="M472.706 314.96C475.699 320.246 483.45 323.165 488.273 326.582L488.876 327.562C488.079 329.584 488.108 328.66 486.664 329.803L486.457 329.852C483.019 330.586 478.537 329.131 475.267 328.1C473.539 334.746 466.815 340.247 465.113 346.683L465.089 346.684L464.375 346.623C463.721 347.433 464.93 346.232 463.987 347.124L463.625 346.857C463.367 347.667 463.106 348.249 462.124 348.062L462.75 346.375L462 346.25C461.672 346.645 461.727 346.517 461.555 346.903L461 347.625C460.943 345.978 461.078 344.635 462.741 343.837L463.625 342.25C463.733 341.853 463.764 341.707 463.977 341.312L464.188 340.938C464.112 340.552 464.113 340.373 464.229 339.984L464.875 338C465.225 335.733 466.203 332.935 466.828 330.549C467.385 328.419 468.911 323.499 469.03 322.029L469.922 320.525C470.096 320.149 470.385 319.86 470.563 319.449L471.127 318.25C471.373 317.827 472.361 315.829 472.576 315.316L472.706 314.96Z"/>
	<path fill="#7CCFFE" d="M488.273 326.582C489.294 327.275 490.329 327.928 491.217 328.792L491.705 329.25C490.375 337.895 484.855 357.225 479.93 365.02L475.6 360.787C474.499 359.781 466.354 353.07 466.131 352.174C465.717 350.263 465.077 348.728 465.089 346.684L465.113 346.683C466.815 340.247 473.539 334.746 475.267 328.1C478.537 329.131 483.019 330.586 486.457 329.852L486.664 329.803C488.108 328.66 488.079 329.584 488.876 327.562L488.273 326.582Z"/>
	<path fill="#B8B8FF" d="M488.273 326.582C489.294 327.275 490.329 327.928 491.217 328.792L486.664 329.803C488.108 328.66 488.079 329.584 488.876 327.562L488.273 326.582Z"/>
	<path fill="#F8F7FF" d="M478.97 263.689C479.034 262.249 478.935 260.733 479.124 259.306C480.742 261.343 483.012 262.915 484.97 264.654L496.466 274.288C497.622 275.329 499.195 276.496 500.017 277.782L497.857 300.992C497.319 305.258 496.754 309.506 495.594 313.654L481.942 305.112C481.47 304.81 478.862 303.331 478.702 302.946L475.761 302.019C474.746 301.788 474.303 301.032 473.717 300.242C475.834 294.304 476.448 287.407 477.336 281.182C477.248 280.768 477.435 279.88 477.477 279.43L478.97 263.689Z"/>
	<path fill="#7CCFFE" d="M452.004 365.311C455.717 366.607 459.458 369.177 462.69 371.404C463.675 372.083 463.833 372.232 464.51 371.143L474.104 379.362L457.884 410.443C456.727 408.893 455.216 407.77 453.875 406.395L441.021 393.184C439.771 391.951 438.45 390.785 437.493 389.301C436.224 386.257 441.512 381.07 443.131 378.709L447.875 371.182C449.218 369.187 450.728 367.376 452.004 365.311Z"/>
	<path fill="#7CCFFE" d="M429.452 407.377C432.6 410.069 435.373 413.149 438.339 416.035L443.121 420.669C444.08 421.609 445.346 422.73 445.922 423.942C439.706 434.628 429.906 443.469 420.523 451.353C417.495 453.897 413.972 456.29 411.243 459.133L399.381 442.769C399.355 441.56 398.782 440.452 398.322 439.357L398.6 438.797C400.112 436.094 402.558 434.021 404.791 431.927L412.724 424.363C416.703 420.41 425.35 408.511 429.452 407.377Z"/>
	<path fill="#7CCFFE" d="M379.53 439.592L399.064 465.682C384.863 475.275 368.685 482.68 352.695 488.746L344.895 491.475C343.314 484.507 338.782 473.39 335.111 467.465C350.29 460.597 368.297 452.896 379.224 439.958L379.53 439.592Z"/>
</svg>
