<?xml version="1.0" encoding="utf-8" ?>
<svg xmlns="http://www.w3.org/2000/svg" xmlns:xlink="http://www.w3.org/1999/xlink" width="512" height="512">
	<path fill="#B8B8FF" d="M364.6 381.259C366.457 381.358 366.524 381.456 365.054 382.75C366.466 383.504 367.789 381.01 371.938 381.312L370.47 382.411C368.481 383.162 366.661 385.243 364.251 385.251L364 385.5C363.627 385.819 363.257 386.046 362.816 386.256L362.783 386.429L353.571 389.619C359.464 389.692 365.535 389.765 368.255 395.739C362.115 406.284 340.062 417.628 328.25 411.271C322.414 408.13 323.901 396.604 330.259 393.119L330.5 392.989C340.507 387.33 353.303 383.043 364.6 381.259Z"/>
	<path fill="#1B1A23" d="M255.827 415.59C264.334 415.816 263.727 423.673 263.731 430.174L263.733 465.363C263.727 472.844 266.05 484.01 257.253 486.128C254.019 485.942 251.321 484.882 250.198 481.57L250.064 481.167C248.708 477.407 249.452 472.357 249.444 468.411L249.385 424.532C249.388 419.291 249.933 416.842 255.827 415.59Z"/>
	<path fill="#1B1A23" d="M61.0989 248.391L77.8354 248.355C80.657 248.339 83.7898 248.06 86.5789 248.398C94.9635 249.412 96.9477 259.951 88.3265 262.507L87.9033 262.625C83.8665 263.778 78.728 263.227 74.5366 263.233L56.2232 263.242L37.7983 263.251C34.9499 263.25 29.1168 264.25 26.7179 262.389L25.4151 261.375C23.9782 260.016 22.9865 258.278 23.0228 256.25C23.1557 248.833 33.3068 249.497 38.25 249.249L61.0989 248.391Z"/>
	<path fill="#1B1A23" d="M424.21 248.28L471.541 248.408C474.865 248.412 478.279 248.281 481.587 248.583C491.758 249.511 493.115 261.387 482.549 263.158L444.611 263.241C440.697 263.238 424.329 264.372 421.758 262.401L421.565 262.243C416.872 258.854 415.012 253.894 420.404 250.089L421.695 249.239C422.473 248.807 423.366 248.552 424.21 248.28Z"/>
	<path fill="#1B1A23" d="M256.144 21.7634C265.782 23.0901 263.698 32.4864 263.712 39.6438L263.728 81.5517C263.725 85.3128 263.993 89.3574 263.488 93.08L263.428 93.5C263.069 96.2654 259.728 98.0342 257.286 98.4403C254.322 98.2799 252.104 97.4541 250.521 94.6812L250.316 94.3141C249.096 92.1854 249.554 89.4413 249.518 87.0883L249.49 29.9213C249.662 25.1563 251.321 23.0972 256.144 21.7634Z"/>
	<path fill="#1B1A23" d="M448.902 425.136C456.831 424.649 462.814 431.606 454.583 436.072C450.51 438.282 444.965 438.878 440.448 439.691C420.466 443.289 400.784 444.064 380.946 438.592C377.916 437.781 372.953 436.645 371.065 433.956C369.534 431.775 371.104 428.13 373.019 426.726L373.266 426.553C376.169 424.463 380.192 425.493 383.49 426.018C395.771 427.973 408.364 428.941 420.793 428.029L448.902 425.136Z"/>
	<path fill="#1B1A23" d="M183.518 154.402C179.349 153.467 176.737 151.845 177.901 147.039C179.143 141.91 188.095 139.694 192.25 137.752C209.424 129.72 228.65 123.475 247.682 122.265C286.02 119.826 329.588 135.423 356.625 162.652C363.025 169.097 370.128 172.94 363.855 181.242L361.625 182.598C360.482 182.528 359.71 182.775 358.685 183.243L350.212 175.382L348.74 173.888L342.773 167.909L337.738 163.615L326.432 155.109L320.251 151.556C318.054 149.839 315.068 148.644 312.524 147.527L310.147 146.603L302.128 143.566L292.591 140.742L280.364 138.428L266.235 137.236L261.811 137.209L257.65 137.214C252.162 137.184 244.235 136.925 238.866 138.276C228.534 138.769 217.187 142.265 207.61 145.86C203.065 147.249 187.079 155.16 183.518 154.402Z"/>
	<path fill="#1B1A23" d="M399.399 367.136C400.138 366.962 401.331 367.107 402.123 367.104L436.75 368.162C455.414 369.536 489.894 371.605 500.423 389.876C507.976 402.984 506.252 420.651 506.258 435.159C506.274 472.048 505.093 495.162 465.193 503.371C450.127 506.471 435.01 506.684 419.693 506.668L407.952 506.582C401.82 506.462 394.373 505.818 388.295 505.214L365.455 501.843C334.47 495.967 325.889 486.589 323.142 454.625C322.527 447.469 321.619 439.463 324.14 432.592C328.002 425.362 337.443 426.725 337.486 434.939L337.501 440.513C337.546 475.636 341.32 485.78 375.875 491.254C382.04 492.23 388.226 493.03 394.462 493.381L405.173 493.613C407.199 493.702 409.187 494.099 411.202 494.18L440.625 494.164C447.289 493.868 454.162 493.108 460.75 492.093C495.519 486.732 493.334 465.953 493.274 438.375L492.711 415.315C492.309 409.037 492.118 402.514 489.01 396.875L488.561 396.052C480.512 381.998 438.318 380.357 421.806 379.799L403.344 379.739C396.833 379.739 390.091 380.088 383.606 379.692C375.902 379.221 374.979 368.644 382.825 367.221C384.621 366.895 386.75 367.089 388.591 367.092L399.399 367.136Z"/>
	<path fill="#1B1A23" d="M179.617 438.979C188.852 436.79 188.976 442.326 189.02 449.627C189.198 478.951 183.144 494.715 151 501.804C141.472 503.905 131.205 505.109 121.423 505.498L103.633 505.621C85.5979 505.648 72.2064 504.746 54.163 501.763C16.0979 495.469 8.80914 481.733 6.51895 445.25L6.02725 406.031C7.8628 373.323 30.9682 370.19 59.3085 368.623L88.375 367.177L125.335 367.159C128.948 367.165 133.464 366.849 136.817 368.31C142.402 370.745 141.517 379.082 133.86 380.314C131.297 380.727 128.236 380.461 125.625 380.47L96.75 380.636C93.9937 380.796 91.262 381.238 88.5 381.332L73.3068 381.6C61.2948 382.073 26.463 383.919 20.6311 395.343L20.4964 395.625C18.6214 399.48 18.5188 403.953 18.4984 408.137L18.4805 418.328L19.0314 443.932C19.6929 455.548 20.4771 471.133 29.1526 479.88C43.5243 494.371 91.6957 493.493 112.197 493.451C116.832 493.442 143.062 492.436 146.542 490.535C146.866 489.322 149.027 488.914 150 488.253C158.525 482.463 166.828 474.413 173.236 466.434L173.573 466.522C174.083 466.163 174.077 463.675 174.105 463.075L174.206 447.163C174.225 441.487 173.944 441.446 179.617 438.979ZM146.542 490.535C163.525 488.209 171.914 484.795 173.573 466.522L173.236 466.434C166.828 474.413 158.525 482.463 150 488.253C149.027 488.914 146.866 489.322 146.542 490.535Z"/>
	<path fill="#1B1A23" d="M128.598 131.154C133.662 133.113 139.066 141.758 132.074 144.614L131.75 144.737C129.547 145.59 127.269 145.468 124.946 145.479L88.3096 145.002C66.5634 143.985 27.9459 143.674 14.117 124.637C4.25783 111.065 5.71571 92.4451 5.75631 76.5121C5.77072 70.8594 5.29483 64.4976 6.22634 58.9275L6.803 52C10.2246 18.4541 26.6991 10.7997 57.875 7.74394L73.0303 6.35649L121.375 6.40849L148.49 8.37799C161.588 9.90901 176.92 13.3632 185.373 24.3911C194.876 36.7885 193.11 54.5234 192.979 69.2132C192.938 73.8245 193.559 82.1088 191.892 86.4482L191.771 86.75C191.05 88.6809 190.11 89.7776 188.68 91.2212C176.338 93.8228 177.281 87.0491 177.393 78.4293L177.563 57.8698C177.583 46.8148 177.838 37.0195 167.688 29.904C157.692 22.0605 142.079 21.7807 130.054 20.3881C120.846 19.3218 111.364 18.0321 102.107 17.7025L73.5 17.6931C67.0386 17.89 60.2345 18.6809 53.8047 19.4568C36.999 21.4849 27.5408 21.1333 22.2724 38.5364C18.1945 49.4778 18.4638 71.9436 18.465 83.5584C18.4662 96.2103 17.787 113.419 28.6634 122.082C30.6084 123.74 32.853 125.208 35.2681 126.086C44.9003 129.797 55.609 130.393 65.7969 131.21L106.059 132.579C113.423 132.575 121.493 133.251 128.598 131.154Z"/>
	<path fill="#1B1A23" d="M361.824 124.291C357.628 127.866 351.181 127.629 346.25 126.008C322.667 118.258 320.387 92.9451 319.968 71.625C319.08 26.4434 328.759 10.3805 372.359 6.03989C404.444 2.84569 439.249 4.86436 469.947 14.9471C504.829 26.4039 504.797 43.7478 504.798 75.8973C504.798 88.4346 505.101 100.749 503.374 113.198C501.426 127.245 490.033 142.574 474.781 143.149C470.049 143.328 465.171 142.573 460.451 143.297C456.744 143.866 454.161 146.617 450.47 147.24C447.815 147.688 445.054 147.783 442.375 148.071L404.02 149.506C399.933 149.503 385.24 150.2 381.835 147.959C378.057 145.471 380.058 141.614 383.851 140.882C386.443 140.383 389.641 140.722 392.301 140.719L423.797 140.588C425.979 140.486 428.087 140.144 430.25 139.944L459.503 136.691C482.973 133.017 489.371 129.003 491.261 103.991C491.969 101.295 491.597 97.9046 491.742 95.1186L492.24 73.4464C492.239 53.4959 492.885 36.3321 470.514 29.7393C457.203 25.5186 443.379 23.4102 429.425 22.9616C425.531 22.0909 420.957 22.4546 416.974 22.3447L389.625 21.8111C380.016 21.9417 359.747 23.1584 350.544 25.0974C333.749 28.6361 334.639 56.3912 334.656 69.75C334.675 84.8123 334.893 104.53 349.081 113.593C351.919 115.405 362.502 119.416 361.991 123.446L361.824 124.291Z"/>
	<path fill="#1B1A23" d="M369.63 200.837C372.859 199.395 377.714 197.138 380.141 200.97C383.291 205.94 385.171 212.018 386.874 217.61C401.925 267.006 385.865 323.57 346.973 357.532C310.487 389.394 264.963 399.017 217.755 387.54C184.956 379.566 156.711 358.839 139.35 330.084C107.8 277.83 112.107 213.43 150.419 165.793C153.301 162.211 157.399 155.033 162.865 157.078L163.25 157.23C166.182 158.351 168.326 159.904 170.475 162.151C167.871 166.315 164.571 169.577 161.349 173.233C136.221 201.75 128.227 247.647 136.758 284.488C138.004 289.867 139.393 295.984 141.829 300.954L143.035 304.007C150.282 321.522 161.548 337.706 175.717 350.338C177.634 352.047 179.759 354.272 181.927 355.597L181.995 355.616L186.925 359.452C190.061 363.098 199.656 368.384 204.171 369.722L210.544 372.199C231.662 380.956 261.727 383.952 283.942 376.43C286.954 375.363 290.062 374.753 293.121 373.849C321.928 365.333 347.858 344.778 363.235 319.15C365.862 314.772 368.72 309.986 370.42 305.18L370.678 304.759C376.824 293.084 378.999 271.627 379.008 258.897C379.014 249.321 374.822 212.013 365.455 206.94L365.205 206.811C366.205 204.35 367.638 202.562 369.63 200.837Z"/>
	<defs>
		<linearGradient id="gradient_0" gradientUnits="userSpaceOnUse" x1="392.504" y1="213.03" x2="251.75" y2="340.383">
			<stop offset="0" stop-color="#A1A1FF"/>
			<stop offset="1" stop-color="#FAFAFF"/>
		</linearGradient>
	</defs>
	<path fill="url(#gradient_0)" d="M312.524 147.527C315.068 148.644 318.054 149.839 320.251 151.556L326.432 155.109L337.738 163.615L342.773 167.909L348.74 173.888L350.212 175.382L358.685 183.243C359.71 182.775 360.482 182.528 361.625 182.598L363.855 181.242C364.505 184.197 366.201 186.985 367.122 189.922C368.253 193.529 368.664 197.21 369.63 200.837C367.638 202.562 366.205 204.35 365.205 206.811L365.455 206.94C374.822 212.013 379.014 249.321 379.008 258.897C378.999 271.627 376.824 293.084 370.678 304.759L370.42 305.18C368.72 309.986 365.862 314.772 363.235 319.15C347.858 344.778 321.928 365.333 293.121 373.849C290.062 374.753 286.954 375.363 283.942 376.43C283.875 376.125 283.922 376.276 283.76 375.914L283.627 375.625C285.522 372.608 290.438 370.19 293.395 368.472L303.95 362.242C324.12 349.605 356.716 325.408 367.186 302.998C367.366 302.431 367.537 301.911 367.625 301.32L362.363 301.8C355.564 302.751 345.042 306.844 338.687 309.294C336.004 310.328 329.614 314.023 326.856 312.141L345.42 249.311L347.473 236.425C347.846 233.097 348.539 229.441 346.497 226.528C343.351 222.041 336.827 218.509 331.52 217.562L328.303 217.918C322.1 222.056 316.266 225.912 310.821 231.069L318.124 230.186C314.83 232.106 311.93 233.58 308.151 234.214L296.309 241.387L294.2 237.697L285.249 223.585L281.123 216.899C279.776 215.235 278.73 213.148 277.701 211.274L272.369 203.698L266.113 194.652L260.884 187.515C259.717 186.187 257.672 185.56 256.026 185.036L275.294 169.796L283.816 165.295C289.209 162.362 293.656 158.122 299.037 155.141C303.273 153.277 309.975 151.557 312.524 147.527Z"/>
	<path fill="#F8F7FF" d="M294.2 237.697C296.786 235.017 298.409 232.063 301.359 229.585C306.085 225.617 311.249 222.048 316.227 218.399L338.379 202.008C340.448 200.365 342.51 198.611 344.392 196.755C345.396 195.765 345.987 193.972 347.438 193.625C346.37 197.264 339.228 202.953 336.64 205.95C333.917 209.102 331.257 212.462 328.877 215.88C330.015 216.271 330.883 216.456 331.52 217.562L328.303 217.918C322.1 222.056 316.266 225.912 310.821 231.069L318.124 230.186C314.83 232.106 311.93 233.58 308.151 234.214L296.309 241.387L294.2 237.697Z"/>
	<path fill="#F8F7FF" d="M348.74 173.888L350.212 175.382C345.455 184.366 307.871 210.568 298.673 216.271L291.75 220.229C289.541 221.353 287.287 222.126 285.249 223.585L281.123 216.899C284.648 215.833 287.943 213.641 291.162 211.879L316.844 196.305L344.493 177.189C345.93 176.114 347.15 174.745 348.74 173.888Z"/>
	<path fill="#B8B8FF" d="M337.738 163.615L342.773 167.909L348.74 173.888C347.15 174.745 345.93 176.114 344.493 177.189L316.844 196.305L291.162 211.879C287.943 213.641 284.648 215.833 281.123 216.899C279.776 215.235 278.73 213.148 277.701 211.274L272.369 203.698C276.631 202.957 283.5 198.163 287.184 195.947L327.563 171.098C331.445 168.639 334.528 166.933 337.738 163.615Z"/>
	<path fill="#F8F7FF" d="M337.738 163.615L342.773 167.909C340.382 170.446 336.431 172.27 333.5 174.241L287.882 203.155C284.191 205.589 281.174 208.607 277.701 211.274L272.369 203.698C276.631 202.957 283.5 198.163 287.184 195.947L327.563 171.098C331.445 168.639 334.528 166.933 337.738 163.615Z"/>
	<path fill="#B8B8FF" d="M312.524 147.527C315.068 148.644 318.054 149.839 320.251 151.556L326.432 155.109L337.738 163.615C334.528 166.933 331.445 168.639 327.563 171.098L287.184 195.947C283.5 198.163 276.631 202.957 272.369 203.698L266.113 194.652L260.884 187.515C259.717 186.187 257.672 185.56 256.026 185.036L275.294 169.796L283.816 165.295C289.209 162.362 293.656 158.122 299.037 155.141C303.273 153.277 309.975 151.557 312.524 147.527Z"/>
	<path fill="#F8F7FF" d="M260.884 187.515C265.268 186.06 269.346 183.173 273.24 180.732L309.971 158.42C315.844 155.181 315.287 156.079 320.251 151.556L326.432 155.109C322.762 158.547 318.724 160.939 314.442 163.51L284.758 182.298C277.815 186.787 272.594 189.274 266.113 194.652L260.884 187.515Z"/>
	<defs>
		<linearGradient id="gradient_1" gradientUnits="userSpaceOnUse" x1="257.043" y1="167.3" x2="319.211" y2="167.45399">
			<stop offset="0" stop-color="#9CA1FF"/>
			<stop offset="1" stop-color="#C6C7FF"/>
		</linearGradient>
	</defs>
	<path fill="url(#gradient_1)" d="M312.524 147.527C315.068 148.644 318.054 149.839 320.251 151.556C315.287 156.079 315.844 155.181 309.971 158.42L273.24 180.732C269.346 183.173 265.268 186.06 260.884 187.515C259.717 186.187 257.672 185.56 256.026 185.036L275.294 169.796L283.816 165.295C289.209 162.362 293.656 158.122 299.037 155.141C303.273 153.277 309.975 151.557 312.524 147.527Z"/>
	<path fill="#9381FF" d="M175.13 274.629L175.872 277.339L176.016 277.638C177.41 280.597 178.373 283.757 179.42 286.851L184.073 300.642C185.907 305.994 187.857 311.981 191.815 316.188C193.869 318.371 195.054 317.658 197.933 317.578C215.029 317.105 232.019 313.703 249.123 313.521C258.772 313.418 268.588 313.213 278.204 313.998L311.52 317.65C318.258 318.553 324.004 319.897 326.856 312.141C329.614 314.023 336.004 310.328 338.687 309.294C345.042 306.844 355.564 302.751 362.363 301.8L367.625 301.32C367.537 301.911 367.366 302.431 367.186 302.998C356.716 325.408 324.12 349.605 303.95 362.242L293.395 368.472C290.438 370.19 285.522 372.608 283.627 375.625L283.76 375.914C283.922 376.276 283.875 376.125 283.942 376.43C261.727 383.952 231.662 380.956 210.544 372.199L204.171 369.722C199.656 368.384 190.061 363.098 186.925 359.452L181.995 355.616L181.927 355.597C179.759 354.272 177.634 352.047 175.717 350.338C161.548 337.706 150.282 321.522 143.035 304.007L141.829 300.954C142.345 300.406 143.41 300.697 144.236 300.235C147.99 294.91 160.755 285.429 165.983 281.453L175.13 274.629Z"/>
	<path fill="#B8B8FF" d="M141.829 300.954C142.345 300.406 143.41 300.697 144.236 300.235C144.449 300.788 144.712 301.038 145.144 301.435C144.391 302.269 143.67 303.076 143.035 304.007L141.829 300.954Z"/>
	<path fill="#B8B8FF" d="M275.999 320.125L276.439 320.289C274.844 320.762 270.927 321.695 270.623 323.625C271.258 323.415 271.943 323.122 272.5 322.75L272.812 322.501C273.205 322.5 273.393 322.42 273.75 322.25L276.312 321.001C276.778 320.999 277.139 320.884 277.477 320.548L268.896 325.118L260.561 329.87C263.984 326.244 271.429 321.678 275.999 320.125Z"/>
	<path fill="#B8B8FF" d="M177.466 297.625C179.836 297.89 169.6 303.389 168.847 303.846C162.964 307.422 156.994 311.282 151.875 315.901L151.7 315.854C150.388 312.835 173.536 299.202 177.466 297.625Z"/>
	<path fill="#6E5DDC" d="M301.322 323.799C303.505 323.479 305.242 324.223 307.323 324.709C302.113 331.004 296.369 334.19 288.388 335.091L282.603 335.403C289.636 332.158 294.898 326.993 301.322 323.799Z"/>
	<path fill="#F8F7FF" d="M175.13 274.629L175.872 277.339C174.876 279.464 170.989 281.664 169.036 283.144L145.144 301.435C144.712 301.038 144.449 300.788 144.236 300.235C147.99 294.91 160.755 285.429 165.983 281.453L175.13 274.629Z"/>
	<path fill="#F8F7FF" d="M181.995 355.616L229.068 328.872C225.047 334.746 200.388 348.406 193.663 352.619L189.273 355.68C188.571 356.209 187.708 357.03 186.82 357.179L186.375 357.236C186.469 358.377 187.295 357.809 186.925 359.452L181.995 355.616Z"/>
	<path fill="#F8F7FF" d="M204.171 369.722C206.945 367.966 209.939 366.647 212.869 365.185L231.069 356.174C246.057 348.606 260.771 339.411 276.781 334.177C275.042 336.36 272.479 337.523 270.117 338.928L215.501 368.6C213.659 369.604 211.598 369.852 210.727 371.872L210.544 372.199L204.171 369.722Z"/>
	<defs>
		<linearGradient id="gradient_2" gradientUnits="userSpaceOnUse" x1="137.53799" y1="211.07899" x2="292.827" y2="229.10699">
			<stop offset="0" stop-color="#8476FF"/>
			<stop offset="1" stop-color="#B6B9FF"/>
		</linearGradient>
	</defs>
	<path fill="url(#gradient_2)" d="M261.811 137.216L266.235 137.216L280.364 138.428L292.591 140.742L302.128 143.566L310.147 146.603L312.524 147.527C309.975 151.557 303.273 153.277 299.037 155.141C293.656 158.122 289.209 162.362 283.816 165.295L275.294 169.796L256.026 185.036C248.364 188.047 245.677 196.292 240.544 202.105L233.294 211.819L220.339 223.972L217.428 226.777C216.062 230.287 213.37 232.82 212.565 236.584L212.204 236.929L205.002 231.38L203.243 230.257C199.613 227.885 182.999 215.717 180.324 216.334C175.003 217.561 168.077 223.295 165.248 227.9C162.702 232.043 167.685 248.378 168.363 253.491L169.408 257.577L175.13 274.629L165.983 281.453C160.755 285.429 147.99 294.91 144.236 300.235C143.41 300.697 142.345 300.406 141.829 300.954C139.393 295.984 138.004 289.867 136.758 284.488C128.227 247.647 136.221 201.75 161.349 173.233C164.571 169.577 167.871 166.315 170.475 162.151C172.474 160.1 174.253 157.946 176.934 156.787C178.231 156.047 179.745 155.623 181.125 155.054L182.116 155.675C182.634 155.276 183.066 154.87 183.518 154.402C187.079 155.16 203.065 147.249 207.61 145.86C217.187 142.265 228.534 138.769 238.866 138.276C244.235 136.925 252.162 137.184 257.65 137.215L261.811 137.216Z"/>
	<path fill="#B8B8FF" d="M176.934 156.787C178.231 156.047 179.745 155.623 181.125 155.054L182.116 155.675C180.824 156.654 179.989 157.24 178.375 157.455L176.934 156.787Z"/>
	<path fill="#F8F7FF" d="M169.408 257.577C169.197 258.331 169.096 258.382 168.351 258.631C160.9 261.115 154.378 265.112 147.814 269.375C154.091 263.454 161.913 259.356 168.363 253.491L169.408 257.577Z"/>
	<path fill="#B8B8FF" d="M292.591 140.742L302.128 143.566C298.05 148.45 285.039 154.83 279.167 157.554C279.758 156.706 281.469 155.886 282.407 155.416L284.251 154.501C284.902 154.236 284.362 154.559 285 154.127L286.25 153.377C286.738 153.107 287.263 152.942 287.75 152.627L294.625 148.627C294.663 146.658 295.12 143.686 293.886 142.586L293.438 141.374C292.977 141.573 293.139 141.544 292.701 141.6L292.424 141.628C291.375 142.761 289.284 144.231 287.714 144.374L287.216 144.4C289.284 143.339 290.991 142.471 292.591 140.742Z"/>
	<defs>
		<linearGradient id="gradient_3" gradientUnits="userSpaceOnUse" x1="220.892" y1="200.63699" x2="193.689" y2="216.50301">
			<stop offset="0" stop-color="#BBBCFF"/>
			<stop offset="1" stop-color="#F2F3FF"/>
		</linearGradient>
	</defs>
	<path fill="url(#gradient_3)" d="M219.348 200.625C220.258 200.324 221.558 200.878 222.491 201.118C218.65 204.917 212.413 206.886 207.538 209.168L200 213.008C197.636 214.208 195.253 215.337 193.036 216.801C192.255 217.402 191.488 217.793 190.585 218.185C194.823 212.255 203.283 209.535 209.5 206.239C212.839 204.469 215.965 202.31 219.348 200.625Z"/>
	<path fill="#B8B8FF" d="M238.866 138.276C244.235 136.925 252.162 137.184 257.65 137.215C254.449 140.659 242.93 146.844 237.934 148.159C239.183 146.772 241.617 146.01 243.359 145.287L247.627 143.19C247.744 142.588 246.827 139.737 246.45 139.195L245.696 138.265C245.128 137.829 243.808 138.201 243.091 138.231L242.618 138.249L242.315 138.366C240.884 138.936 239.836 140.486 238.505 140.845C235.233 141.73 231.604 141.736 228.281 142.559L213.816 146.094C213.012 146.269 206.784 147.718 210.75 146.625L211.626 146.34C212.759 145.914 212.758 145.929 212.282 144.613C211.041 145.092 209.066 146.107 207.774 146L207.61 145.86C217.187 142.265 228.534 138.769 238.866 138.276Z"/>
	<path fill="#F8F7FF" d="M280.364 138.428L292.591 140.742C290.991 142.471 289.284 143.339 287.216 144.4L268.217 153.658L212.425 184.213C207.021 187.254 184.335 203.77 179.5 203.485L179.384 203.154C183.227 199.826 187.475 196.982 191.452 193.811C196.232 190.001 200.648 185.639 205.563 182.013C211.613 177.55 218.752 174 225.391 170.488L238.25 163.982C242.804 161.868 247.588 159.939 251.944 157.441C255.367 156.232 258.615 154.179 261.657 152.237L269.992 146.692C272.254 145.039 275.061 142.525 277.609 141.47L277.875 141.377C278.328 140.119 279.405 139.317 280.364 138.428Z"/>
	<path fill="#F8F7FF" d="M261.811 137.216L266.235 137.216C265.443 139.109 264.695 139.713 262.993 140.788L255.582 145.113C254.09 145.983 252.354 146.836 251.017 147.923L224.736 161.458C212.246 167.354 199.34 172.698 187.875 180.533C182.357 184.303 177.179 188.873 171.375 192.178C166.183 195.133 153.144 200.241 146.794 202.627C150.048 199.328 153.412 197.766 157.411 195.573L164.744 191.082C168.698 188.477 172.285 185.388 176.042 182.516C187.881 173.47 201.015 166.949 214.245 160.221L237.934 148.159C242.93 146.844 254.449 140.659 257.65 137.208L261.811 137.216Z"/>
	<path fill="#F8F7FF" d="M302.128 143.566L310.147 146.603L312.524 147.527C309.975 151.557 303.273 153.277 299.037 155.141C293.656 158.122 289.209 162.362 283.816 165.295L275.294 169.796L256.026 185.036C248.364 188.047 245.677 196.292 240.544 202.105L233.294 211.819L220.339 223.972L217.428 226.777C216.062 230.287 213.37 232.82 212.565 236.584L212.204 236.929L205.002 231.38L203.243 230.257C207.898 225.215 213.447 220.978 218.714 216.593L228.281 208.526C231.951 205.726 234.786 204.069 238.604 200.872C236.463 199.138 228.341 201.092 225.25 202.038L224.873 201.875C225.699 201.732 226.469 201.343 227.196 200.936L227.5 200.764C238.355 194.717 245.559 183.579 257.678 176.818C260.781 175.593 264.325 174.135 267.18 172.437L268.127 171.907C270.113 170.951 271.982 169.519 273.89 168.37C278.441 164.57 284.618 162.767 289.76 159.889C292.384 158.421 294.655 156.286 297.254 154.873C298.648 153.807 300.165 153.074 301.769 152.392L301.745 151.491C298.755 152.808 296.03 154.44 293.164 155.982L268.665 168.299C264.861 170.12 260.006 171.868 256.963 174.878C255.545 175.11 250.909 178.892 249.247 179.764C246.897 180.998 244.377 181.886 241.986 183.043C237.805 185.064 217.679 195.133 215.103 193.5C215.987 192.438 218.462 191.505 219.738 190.774L236.867 181.247C238.905 180.218 241.056 179.463 243.05 178.338L264.621 164.938C269.302 162.192 274.312 159.977 279.167 157.554C285.039 154.83 298.05 148.45 302.128 143.566Z"/>
	<path fill="#B8B8FF" d="M309.906 147.032C309.81 150.562 304.507 151.68 301.769 152.392L301.745 151.491C304.865 150.246 307.083 148.832 309.906 147.032Z"/>
	<path fill="#B8B8FF" d="M205.002 231.38C205.729 231.604 206.363 231.776 207.125 231.816C209.908 229.23 210.6 230.15 213.389 229.166C214.683 228.709 216.186 227.472 217.428 226.777C216.062 230.287 213.37 232.82 212.565 236.584L212.204 236.929L205.002 231.38Z"/>
	<path fill="#B8B8FF" d="M18.4803 418.328C20.7707 415.482 18.9153 410.19 24.875 405.317C27.934 402.816 51.4987 393.641 53.4729 396.375C53.8077 396.839 53.365 397.62 54.046 397.846C66.8429 391.57 84.8385 383.628 99.2827 386.856C92.765 393.326 92.686 393.723 84.2571 396.568C78.5792 398.485 71.4543 401.139 66.8982 405.063C70.2919 404.234 73.1371 402.794 76.337 401.475L90 395.992C94.4827 394.237 99.23 393.275 103.677 391.345L112.618 387.288C118.366 384.526 121.372 382.893 127.721 384.974C127.13 389.85 125.63 391.809 122.153 394.917C125.616 393.254 132.959 387.55 135.821 385.138C139.027 382.435 140.909 380.101 145.125 379.18L145.466 379.101C147.807 378.585 150.505 378.606 152.899 378.579C180.048 378.267 179.461 388.043 179.454 409.948C179.453 413.992 179.777 418.418 178.866 422.369C173.447 427.467 162.319 431.192 154.713 432.459C153.098 434.803 150.264 435.862 147.736 436.928C148.762 438.241 150.647 438.135 152.167 437.658L152.625 438.57C158.965 435.558 166.243 433.576 173.253 432.986C175.807 435.049 176.29 436.585 179.617 438.979C173.944 441.446 174.225 441.487 174.206 447.163L174.105 463.075C174.077 463.675 174.083 466.163 173.795 466.522L173.236 466.434C166.828 474.413 158.525 482.463 150 488.253C149.027 488.914 146.866 489.322 146.542 490.535C143.062 492.436 116.832 493.442 112.197 493.451C91.6957 493.493 43.5243 494.371 29.1526 479.88C20.4771 471.133 19.6929 455.548 19.0314 443.932L18.4803 418.328Z"/>
	<path fill="#F8F7FF" d="M71.9273 461.625L72.4406 461.963L51.3252 478.829C48.0798 481.056 45.4224 483.525 41.2476 482.875L40.6529 482.479C48.0774 478.674 53.562 475.492 60.4099 470.388C64.176 467.581 67.6438 463.647 71.9273 461.625Z"/>
	<path fill="#F8F7FF" d="M98.711 456.125L99.1861 456.262C95.323 463.571 79.9695 472.1 73.2056 476.962L64.625 483.783L64.0933 483.125C71.7307 475.047 89.239 461.397 98.711 456.125Z"/>
	<path fill="#F8F7FF" d="M137.336 466.375L105.125 484.876C99.789 487.545 94.8427 489.921 89.0121 491.374L88.875 491L88.584 490.387C92.1994 487.69 97.1922 486.185 101.225 484.12L116.523 475.561C123.192 472.143 130.404 469.232 137.336 466.375Z"/>
	<path fill="#F8F7FF" d="M162.461 384.85C163.587 384.547 165.02 384.719 166.195 384.723C151.759 395.065 125.422 406.978 107.925 413.241C103.383 414.866 99.554 416.291 94.6883 416.567L91.5515 416.84C95.0212 414.136 99.3491 412.732 103.338 410.976L136.18 397.165C144.527 393.251 154.262 385.77 162.461 384.85Z"/>
	<path fill="#1B1A23" d="M147.736 436.928C129.684 442.815 118.536 442.569 99.5 442.572L78.8787 442.462C67.8413 441.909 55.2925 438.417 47.6683 429.95C49.1324 425.064 50.5941 423.748 55.1246 424.821L75.6742 428.641C91.8055 430.547 111.621 429.938 127.571 427.667L141.867 425.157C152.947 423.201 154.949 421.356 154.708 432.459C153.098 434.803 150.264 435.862 147.736 436.928Z"/>
	<path fill="#B8B8FF" d="M361.824 124.291L361.991 123.446C362.502 119.416 351.919 115.405 349.081 113.593C334.893 104.53 334.675 84.8123 334.656 69.75C334.639 56.3912 333.749 28.6361 350.544 25.0974C359.747 23.1584 380.016 21.9417 389.625 21.8111L416.974 22.3447C420.957 22.4546 425.531 22.0909 429.425 22.7999C443.379 23.4102 457.203 25.5186 470.514 29.7393C492.885 36.3321 492.239 53.4959 492.24 73.4464L491.742 95.1186C491.597 97.9046 491.969 101.295 491.349 103.991L477.774 113.676C464.728 124.02 467.131 126.814 449.742 129.107L424.375 130.987C404.462 131.719 391.247 131.098 371.959 126.695C369.998 126.247 363.243 124.121 361.824 124.291Z"/>
	<path fill="#F8F7FF" d="M404.333 102.125L404.841 102.314C402.474 104.691 400.164 107.433 397.294 109.182L394.438 107.865L391.517 106.556C396.013 105.456 400.226 104.315 404.333 102.125Z"/>
	<path fill="#F8F7FF" d="M394.485 85.875L395.375 85.6585C397.085 86.364 398.855 86.5797 400.673 86.8252L382.801 100.023L377.034 99.1489L386.981 91.6792C389.418 89.6953 391.793 87.5085 394.485 85.875Z"/>
	<path fill="#F8F7FF" d="M388.314 34.625L389.047 34.7699C385.883 36.6432 382.577 38.222 379.5 40.2517C366.509 48.8223 362.338 52.1281 347.125 57.2779L346.375 57.3968C347.014 56.4692 348.635 55.6969 349.634 55.1227L357.408 50.7029C367.395 44.6975 377.031 38.0561 388.314 34.625Z"/>
	<path fill="#F8F7FF" d="M441.489 98.375C444.32 98.0305 435.578 100.981 434.411 101.559C435.725 102.66 436.794 103.837 438.332 102.473L438.562 102.251C439.129 102.155 439.577 101.891 440.035 101.547L440.875 101C443.361 99.5969 439.856 102.022 439.123 102.454L411.197 118.391C408.303 119.818 405.722 120.743 402.56 121.365C407.576 115.661 434.799 100.526 441.489 98.375Z"/>
	<path fill="#F8F7FF" d="M429.425 22.9616C443.379 23.4102 457.203 25.5186 470.514 29.7393L442.682 44.9324C447.115 40.8533 456.74 34.2802 458.954 30.2662C451.541 27.9556 450.514 27.313 443.565 30.651C439.371 32.6652 432.727 35.719 428.054 34.5865L426.757 34.3125C428.527 34.1311 430.149 34.8111 431.978 34.4453L432.875 34.25C433.352 34.0859 433.724 34.07 434.188 33.9375L437.5 32.875C438.583 32.5695 440.085 32.0199 441.094 31.4766L448.125 28.0746C448.258 23.4817 444.628 24.9794 441.233 24.191C437.502 23.3244 432.921 24.356 429.425 22.9616Z"/>
	<path fill="#1B1A23" d="M374.577 61.0451C380.008 60.5055 385.799 62.4423 391.151 63.3118C405.176 65.5902 419.163 65.5027 433.33 65.2027L448.578 64.4161C454.576 64.1088 461.579 63.7486 457.333 72.3799C456.048 74.9922 454.084 76.2673 451.416 77.1843C447.957 78.1686 444.276 78.4311 440.709 78.7984C422.172 80.7072 378.864 81.9776 368.2 67.6901L368.765 66.3901C370.022 63.6928 371.784 62.049 374.577 61.0451Z"/>
	<defs>
		<linearGradient id="gradient_4" gradientUnits="userSpaceOnUse" x1="326.04501" y1="202.916" x2="191.98599" y2="315.673">
			<stop offset="0" stop-color="#1B1C23"/>
			<stop offset="1" stop-color="#1B182C"/>
		</linearGradient>
	</defs>
	<path fill="url(#gradient_4)" d="M256.026 185.036C257.672 185.56 259.717 186.187 260.884 187.515L266.113 194.652L272.369 203.698L277.701 211.274C278.73 213.148 279.776 215.235 281.123 216.899L285.249 223.585L294.2 237.697L296.309 241.387L308.151 234.214C311.93 233.58 314.83 232.106 318.124 230.186L310.821 231.069C316.266 225.912 322.1 222.056 328.303 217.918L331.52 217.562C336.827 218.509 343.351 222.041 346.497 226.528C348.539 229.441 347.846 233.097 347.473 236.425L345.42 249.311L326.856 312.141C324.004 319.897 318.258 318.553 311.52 317.65L278.204 313.998C268.588 313.213 258.772 313.418 249.123 313.521C232.019 313.703 215.029 317.105 197.933 317.578C195.054 317.658 193.869 318.371 191.815 316.188C187.857 311.981 185.907 305.994 184.073 300.642L179.42 286.851C178.373 283.757 177.41 280.597 176.016 277.638L175.872 277.339L175.13 274.629L169.408 257.577L168.363 253.491C167.685 248.378 162.702 232.043 165.248 227.9C168.077 223.295 175.003 217.561 180.324 216.334C182.999 215.717 199.613 227.885 203.243 230.257L205.002 231.38L212.204 236.929L212.565 236.584C213.37 232.82 216.062 230.287 217.428 226.777L220.339 223.972L233.294 211.819L240.544 202.105C245.677 196.292 248.364 188.047 256.026 185.036ZM255.613 202.028C253.707 206.293 251.209 210.381 248.786 214.374L234.07 237.462C230.633 242.995 226.319 254.528 220.658 257.837C215.096 256.271 209.791 251.686 205.169 248.295L191.777 238.899C187.905 236.287 184.12 233.675 179.783 231.89C179.057 247.24 188.634 272.152 193.875 286.632L199.803 303.631C200.561 304.288 201.82 303.775 202.762 303.732L257.557 300.734L270.163 300.784L309.343 304.106C316.986 305.199 315.161 306.378 317.814 298.065L329.151 262.193C331.85 252.631 334.049 242.515 333.456 232.534C318.811 237.31 301.095 255.027 289.509 256.494C286.064 253.571 284.12 249.807 281.997 245.895L257.264 205.362C256.689 204.288 256.225 203.064 255.613 202.028Z"/>
	<defs>
		<linearGradient id="gradient_5" gradientUnits="userSpaceOnUse" x1="229.77499" y1="227.711" x2="215.63499" y2="223.755">
			<stop offset="0" stop-color="#665EE2"/>
			<stop offset="1" stop-color="#9C9EFF"/>
		</linearGradient>
	</defs>
	<path fill="url(#gradient_5)" d="M233.294 211.819C233.671 212.652 234.114 213.097 233.726 214L216.967 241.131L215.233 239.42L212.204 236.929L212.565 236.584C213.37 232.82 216.062 230.287 217.428 226.777L220.339 223.972L233.294 211.819Z"/>
	<path fill="#111132" d="M211.903 274.6C218.423 274.751 220.541 282.087 213.718 282.982C207.272 282.498 206.009 276.796 211.903 274.6Z"/>
	<path fill="#1B1A23" d="M264.02 244.314L268.206 244.281C274.618 245.004 267.685 253.044 265.361 254.577L265.158 254.656C255.542 258.703 258.814 246.267 264.02 244.314Z"/>
	<path fill="#111132" d="M211.421 288.614C212.443 288.596 214.592 288.477 215.393 289.091L217.242 290.636C217.273 292.091 217.502 293.957 216.903 295.306L216.749 295.625C215.587 298.179 214.378 298.59 211.588 298.9C210.296 298.829 208.888 298.898 207.807 298.086C204.412 295.538 203.984 289.21 211.421 288.614Z"/>
	<path fill="#1B1A23" d="M301.037 287.798C308.903 287.391 310.616 296.861 303.72 298.727C302.401 298.755 300.941 298.891 299.651 298.59L299.375 298.519C293.971 297.247 296.53 289.639 301.037 287.798Z"/>
	<path fill="#1B1A23" d="M252.929 238.375C258.793 236.675 263.873 256.506 251.274 253.367L251.136 253.347C239.353 250.534 246.101 242.41 252.929 238.375Z"/>
	<path fill="#111132" d="M246.216 283.642L275.125 283.574C277.802 283.622 280.79 283.631 283.404 284.206C290.549 285.779 291.514 291.095 287.203 296.301C286.166 296.682 284.88 296.628 283.775 296.704L248.692 295.595C246.878 295.568 244.123 295.798 242.508 294.977L241.148 294.22C240.271 292.591 239.864 290.202 240.41 288.39L240.716 287.378C241.553 284.865 243.784 283.917 246.216 283.642Z"/>
	<path fill="#B8B8FF" d="M22.2724 38.5364C27.5408 21.1333 36.999 21.4849 53.8047 19.4568C60.2345 18.6809 67.0386 17.89 73.5 17.6931L102.107 17.7025C111.364 18.0321 120.846 19.3218 130.054 20.3881C142.079 21.7807 157.692 22.0605 167.688 29.904C177.838 37.0195 177.583 46.8148 177.563 57.8698L177.393 78.4293C177.281 87.0491 176.338 93.8228 188.68 91.2212C186.18 97.5184 178.811 107.673 172.622 110.296C168.915 111.866 164.84 112.278 161.119 113.819C156.945 115.548 152.993 118.241 148.988 120.355L137.39 126.243C134.505 127.669 131.024 129.009 128.598 131.154C121.493 133.251 113.423 132.575 106.059 132.579L65.7969 131.21C55.609 130.393 44.9003 129.797 35.2681 126.086C32.853 125.208 30.6084 123.74 28.6634 122.082C17.787 113.419 18.4662 96.2103 18.465 83.5584C18.4638 71.9436 18.1945 49.4778 22.2724 38.5364ZM22.2724 38.5364C26.2223 38.8009 33.4829 35.5156 37.1433 34.125L46.2988 30.9294C55.7291 27.9026 65.1723 26.0572 75.1004 26.5187C72.0684 29.0719 69.3564 31.891 66.2407 34.4193L60.9813 38.8867C59.2286 40.2958 56.3419 42.0198 55.1526 43.8803L57.6179 42.4232C62.1725 39.3211 64.1686 38.4926 68.8621 36.0182C82.203 28.9852 87.6045 24.6696 102.818 24.0531C99.8273 28.3208 95.2273 31.6467 90.5039 33.8369C90.8812 33.8149 91.3794 33.689 91.7061 33.9315L91.9851 34.216C100.437 29.3049 113.005 22.7209 122.913 25.2986L112.625 37.2681C115.639 36.411 118.827 36.5081 121.894 35.5459C129.809 33.0632 138.402 27.4238 146.84 28.2412C149.341 28.4835 151.357 29.5707 153.719 30.2735C152.47 32.9252 150.727 35.3364 148.156 36.8473C145.666 38.5544 143.295 40.1498 141.394 42.5325C143.972 41.0314 146.893 39.6092 149.113 37.5941C154.841 33.3937 161.079 31.8175 167.688 29.904C157.692 22.0605 142.079 21.7807 130.054 20.3881C120.846 19.3218 111.364 18.0321 102.107 17.7025L73.5 17.6931C67.0386 17.89 60.2345 18.6809 53.8047 19.4568C36.999 21.4849 27.5408 21.1333 22.2724 38.5364Z"/>
	<path fill="#F8F7FF" d="M170.587 39.375L170.594 39.4118C170.479 41.2492 166.585 43.2543 165.314 44.5054L166.188 45.1875C166.996 44.7844 168.206 43.6784 168.812 43.0012L170.875 41.75C171.181 41.4374 171.435 41.228 171.812 41.0012L172.125 41C172.601 40.5131 172.78 40.2701 173.478 40.375L159.751 50.2917C156.611 52.3539 153.398 53.8904 149.953 55.3543C155.002 49.9569 165.245 46.2607 170.587 39.375Z"/>
	<path fill="#9381FF" d="M125.302 102.241L119.342 96.816L121.133 95.5909C123.209 94.1894 133.069 96.1536 135.77 96.3009L145.711 96.4018C148.831 96.4226 150.624 96.1822 153.125 98.2122L153.307 98.625C150.669 102.345 136.167 103.59 135.426 104.704C133.066 105.012 130.845 104.631 128.562 104.069C127.429 103.977 126.215 102.872 125.302 102.241Z"/>
	<path fill="#F8F7FF" d="M124.966 104.557C125.743 104.553 126.757 104.656 127.495 104.415L128.562 104.069C130.845 104.631 133.066 105.012 135.426 104.704L135.443 105.098C131.789 107.561 127.249 109.176 123.291 111.186L99.2027 123.204C95.1427 125.057 91.214 126.926 86.9194 128.209L86.625 128.293C84.2702 128.982 80.5014 127.379 78.2826 126.535C91.6932 124.608 103.327 117.404 114.723 110.541C118.033 108.548 121.43 106.087 124.966 104.557Z"/>
	<path fill="#9381FF" d="M28.6634 122.082L57.1309 106.775C63.2187 103.524 68.402 101.572 75.3733 102.073C71.8819 104.531 67.8748 105.869 64.2072 108.049C58.3574 111.527 52.9714 115.726 46.9965 119.012L39.248 123.169C37.5375 124.019 35.7901 123.982 35.2681 126.086C32.853 125.208 30.6084 123.74 28.6634 122.082Z"/>
	<path fill="#1B1A23" d="M123.61 62.875C126.188 62.5471 129.552 62.407 132.079 63.1058L132.5 63.2291C137.739 64.7059 142.064 69.8873 136.119 74.1965C131.723 77.3825 113.072 79.1728 107.525 79.5348L95.0616 79.7471C85.7079 79.7501 76.5513 79.1892 67.345 77.443C63.6848 76.6789 52.158 74.9108 51.5494 69.875C50.4158 60.4966 64.1395 63.294 69.0737 63.9079L82.0538 65.1116C95.968 65.8386 109.794 64.2888 123.61 62.875Z"/>
</svg>
