<?xml version="1.0" encoding="utf-8" ?>
<svg xmlns="http://www.w3.org/2000/svg" xmlns:xlink="http://www.w3.org/1999/xlink" width="512" height="511">
	<path fill="#2F2F3B" d="M121.231 13.3425L155.037 14.9901L188.601 15.0003C190.99 14.9508 193.289 14.4012 195.625 14.3102L234.685 13.7425L320.5 14.1222C327.158 14.4129 333.705 14.6121 340.25 16.0165C372.151 22.8615 380.21 52.4497 385.684 80.8916C388.169 93.807 389.996 106.768 391.128 119.875L393.901 178.013C393.96 179.777 394.286 181.513 394.349 183.273L395.771 229L395.81 246.543C395.812 250.015 395.69 253.553 396.127 257.001C412.138 258.834 429.011 251.699 446.579 255.931C471.479 261.929 479.006 289.475 480.262 312.069L480.764 328.125C481.27 335.071 480.791 342.222 480.784 349.193C480.767 368.288 481.845 394.571 468.214 409.942C458.543 420.847 437.81 426.072 423.383 428.375C420.481 428.838 398.053 430.617 397.65 430.989C397.617 431.019 397.491 431.924 397.481 432C394.546 453.262 397.898 469.73 381.138 485.935C369.475 496.409 357.815 496.95 343.235 496.869L314 496.311L104.855 496.749C83.5217 497.459 58.9542 497.002 44.2245 478.96L39.8123 472.974C30.8118 459.355 30.8433 443.771 30.8504 428.203L31.6041 383.221L31.5758 321.719C31.5437 319.064 30.9964 316.486 30.9283 313.887L30.9272 282.94C30.9395 280.001 31.4817 277.2 31.5678 274.31L31.6733 251.879C31.7321 248.599 32.2295 245.414 32.2362 242.112L32.2066 185.329C32.1647 183.216 31.8598 181.175 31.7302 179.079L31.1365 165.838C30.661 157.058 31.6526 149.219 31.6472 140.323C31.6388 126.641 30.6351 104.259 38.7466 92.313C40.3798 89.9078 42.5127 87.8286 44.556 85.7755L96.1705 33.7047C103.117 25.8657 110.265 15.4594 121.231 13.3425ZM268.636 21.5004L268.011 21.5409L250.642 21.5525L241.367 21.5547L222.049 23.1169L218.52 23.3937L205.712 24.4824L193.916 25.0141C192.3 25.0898 189.669 25.528 188.183 25.3351L182.407 25.7455C181.976 25.7752 181.054 25.729 180.72 25.9978L177.355 26.3398C172.168 27.1576 166.673 26.4497 161.439 26.8996C160.384 28.319 158.691 29.4434 157.315 30.5596L131.731 50.8223C130.847 51.0823 129.952 51.321 129.116 51.7138L129.169 53.7671L129.172 72.2437C129.178 81.7085 130.454 91.2071 123.253 98.473C114.5 107.305 102.278 107.447 90.7491 108.073C87.2103 108.378 82.9803 107.291 79.6052 107.715C77.5436 110.087 64.9354 113.122 62.1842 114.036C59.6476 114.879 48.358 120.14 46.7232 120.151L46.709 126.771L46.6882 149.758L46.6923 155.447L47.0955 171.048C47.2254 172.772 47.1856 174.578 47.4593 176.281L47.4733 179.211L47.5049 188.219C47.8655 189.844 47.685 192.557 47.4514 194.213L47.9743 240.132L47.6667 243.558L47.4747 268.947L47.4517 271.495L47.4754 309.586L47.4531 312.295L47.4765 336.074L47.4557 338.978L47.5048 353.768C51.4376 353.797 55.4058 351.636 58.8695 349.972L90.3532 335.13C91.0009 334.614 91.8038 334.279 92.4981 333.914L96.3507 273.884C96.437 273.051 96.5272 272.32 96.8565 271.545L98.3438 268.037C102.11 261.636 105.499 255.103 110.021 249.171C127.111 226.754 149.383 225.731 174.566 225.707L263.003 225.783C266.104 225.82 269.146 226.325 272.238 226.347L310.493 226.437C314.754 226.558 334.78 227.695 335.332 228.117C335.84 229.597 336.057 231.628 334.875 232.847C333.135 234.641 318.616 234.792 315.641 234.239C314.038 234.449 312.406 234.36 310.8 234.465L307.603 234.535C306.552 235.907 305.365 237.316 304.527 238.828C302.612 240.533 300.491 241.917 298.424 243.422L285.226 252.355C283.061 253.161 280.789 254.912 278.971 256.332C278.013 256.677 277.756 257.591 277.143 258.585L362.76 258.751C369.945 258.751 376.096 258.899 383.088 257.137L381.293 236.634L381.254 235.234L380.436 224.675C380.679 223.169 380.449 221.266 380.471 219.718C381 214.423 380.347 208.214 379.757 202.963L379.433 195.156L378.749 175.828L378.617 171.538L377.928 154.129L377.761 144.913C378.014 141.065 377.586 131.872 377.035 128.12L376.413 122.746L374.323 102.77C374.297 100.638 373.863 98.4816 373.546 96.375L371.689 85.2536C371.48 84.1207 371.348 82.2163 370.733 81.2461L370.257 80.4825L369.108 72.1733C368.702 66.9661 364.852 55.1283 362.418 51.0084C361.914 49.3916 361.066 47.8895 360.233 46.4247L359.581 45.2096C358.673 43.5644 357.636 41.8638 356.341 40.4968C355.641 38.5981 352.657 36.228 351.162 34.7607C349.663 33.1746 347.827 31.7782 346.014 30.568C344.027 29.2208 342.018 28.0902 339.843 27.074C333.285 23.9793 325.591 23.0459 318.436 22.4147L307.505 21.5409C304.831 22.0215 301.409 21.5895 298.65 21.5828L276.758 21.5046L268.636 21.5004Z"/>
	<path fill="#F8F7FF" d="M423.924 423.625L424.133 423.573C424.834 423.496 426.362 424.138 426.922 424.536L426.625 425.063C425.544 425.566 424.314 425.44 423.681 424.375L423.924 423.625Z"/>
	<path fill="#B8B8FF" d="M135.99 431.34L140.378 432.51C139.397 433.038 138.388 433.25 137.314 433.508C136.851 433.275 136.448 433.072 136.057 432.728L135.99 431.34Z"/>
	<path fill="#9381FF" d="M315.068 432.093L327.373 432.113C326.553 432.302 325.608 432.363 324.867 432.742C322.595 433.109 320.417 433.439 318.111 433.249L317.383 432.905C316.567 432.424 315.681 432.591 315.068 432.093Z"/>
	<path fill="#B8B8FF" d="M145.37 421.461C145.973 420.315 147.191 419.425 148.186 418.627L155.329 413.366C156.284 412.6 156.911 411.614 157.76 410.75L158.068 410.44C160.492 412.978 169.508 422.111 172.585 423.633L172.752 423.746C162.609 423.781 155.382 423.611 145.37 421.461Z"/>
	<path fill="#F8F7FF" d="M158.228 233.165C157.762 235.765 147.194 242.83 144.74 244.852L131.696 255.625C128.838 257.953 120.369 265.248 117.067 265.357L116.811 265.385L117.088 264.912C126.541 250.068 140.846 237.399 158.228 233.165Z"/>
	<path fill="#9381FF" d="M46.7731 120.151L46.6479 102.951C47.6643 103.243 48.8132 103.281 49.8672 103.428L79.6052 107.715C77.5436 110.087 64.9354 113.122 62.1842 114.036C59.6476 114.879 48.358 120.14 46.7731 120.151Z"/>
	<path fill="#B8B8FF" d="M129.116 51.7138L128.357 24.5342C139.354 26.4279 150.308 26.8008 161.439 26.791C160.384 28.319 158.691 29.4434 157.315 30.5596L131.731 50.8223C130.847 51.0823 129.952 51.321 129.116 51.7138Z"/>
	<path fill="#9381FF" d="M142.611 296.736L139.602 318.654L139.445 317.311C138.316 317.604 137.043 318.595 135.975 319.146C129.136 322.677 115.329 333.124 109.173 334.237L109.374 315.806L142.611 296.736Z"/>
	<path fill="#B8B8FF" d="M240.139 233.318L252.871 233.294C256.612 233.312 260.948 233.315 264.598 234.176C261.564 234.858 260.658 235.52 258.305 237.466L253.617 241.08C248.658 244.66 232.462 254.626 233.245 256.354L233.396 257.065L209.168 257.258C208.119 257.332 205.905 257.794 204.994 257.383C204.457 257.328 204.129 257.177 203.812 256.625C207.251 252.727 212.63 250.574 217 247.966L229.339 240.204C231.059 239.074 233.098 238.18 234.542 236.696C234.935 235.929 235.76 235.07 236.33 234.364L240.139 233.318Z"/>
	<path fill="#F8F7FF" d="M234.542 236.696L241.711 237.156L219.75 250.625C216.607 252.661 212.859 256.643 209.168 257.229C208.119 257.332 205.905 257.794 204.994 257.383C204.457 257.328 204.129 257.177 203.812 256.625C207.251 252.727 212.63 250.574 217 247.966L229.339 240.204C231.059 239.074 233.098 238.18 234.542 236.696Z"/>
	<path fill="#9381FF" d="M143.615 385.867C146.665 395.356 151.904 402.757 158.068 410.44L157.76 410.75C156.911 411.614 156.284 412.6 155.329 413.366L148.186 418.627C147.191 419.425 145.973 420.315 145.37 421.461C139.266 420.198 132.284 416.839 127.558 412.798C124.348 410.651 121.844 407.941 119.352 405.031C122.228 404.153 124.424 402.489 126.909 400.875L135.216 395.933C137.909 394.485 140.805 393.641 143.458 392.098C143.628 390.898 143.412 389.571 143.093 388.422L143.627 387.75C143.462 387.161 143.515 386.705 143.585 386.11L143.615 385.867Z"/>
	<path fill="#F8F7FF" d="M119.352 405.031C122.228 404.153 124.424 402.489 126.909 400.875L135.216 395.933C137.909 394.485 140.805 393.641 143.458 392.098L143.538 392.322C143.874 393.204 145.695 395.368 145.69 396.062C145.649 401.862 131.525 407.729 127.558 412.798C124.348 410.651 121.844 407.941 119.352 405.031Z"/>
	<path fill="#9381FF" d="M267.118 234.286L310.8 234.3L307.603 234.535C306.552 235.907 305.365 237.316 304.527 238.828C302.612 240.533 300.491 241.917 298.424 243.422L285.226 252.355C283.061 253.161 280.789 254.912 278.971 256.332C278.013 256.677 277.756 257.591 277.143 258.321L233.396 257.132L233.245 256.354C232.462 254.626 248.658 244.66 253.617 241.08L258.305 237.466C260.658 235.52 261.564 234.858 264.598 234.194L267.118 234.286Z"/>
	<path fill="#B8B8FF" d="M284.286 240.125L276.253 245.827C276.678 246.187 277.067 246.541 277.602 246.731L278.838 247.1C279.44 247.153 279.617 246.884 280.001 246.501L280.375 246.5C280.779 246.096 280.576 246.242 281.09 245.965L282.438 245.188C282.818 244.985 283.189 244.807 283.535 244.547L284 244.189C284.349 243.999 284.473 244.04 284.812 243.739L285.062 243.501C286.377 243.278 287.337 242.002 288.701 241.812C287.182 243.162 284.749 244.211 283 245.261L272.37 251.95C270.043 253.49 267.641 255.287 265.097 256.431L264.801 256.561C262.741 257.482 260.953 257.167 258.755 257.025L258.786 256.79C260.036 253.199 268.046 249.712 271.125 247.975L284.286 240.125Z"/>
	<path fill="#F8F7FF" d="M264.598 234.194L267.118 234.286L267.36 234.323C269.143 234.57 270.996 234.496 272.794 234.501C270.213 236.055 267.864 237.836 265.198 239.277L253.155 245.572C251.077 246.624 248.873 247.564 246.867 248.74C241.997 251.595 239.053 255.419 233.245 256.354C232.462 254.626 248.658 244.66 253.617 241.08L258.305 237.466C260.658 235.52 261.564 234.858 264.598 234.194Z"/>
	<path fill="#B8B8FF" d="M109.166 372.692L109.363 371.856C114.813 370.626 119.899 366.221 124.65 363.341L133.283 358.358C135.188 357.163 137.523 355.194 139.625 354.467L139.992 356.132L140.023 357.741L141.508 374.894L142.406 381.751L143.615 385.867L143.585 386.11C143.515 386.705 143.462 387.161 143.627 387.75L143.093 388.422C143.412 389.571 143.628 390.898 143.458 392.098C140.805 393.641 137.909 394.485 135.216 395.933L126.909 400.875C124.424 402.489 122.228 404.153 119.352 405.031C117.818 403.254 116.58 401.38 115.492 399.301C113.4 395.625 112.1 391.898 110.908 387.86C110.148 385.225 109.781 382.691 109.556 379.959C109.791 379.263 109.213 373.944 109.166 372.692Z"/>
	<path fill="#F8F7FF" d="M109.166 372.692L109.363 371.856C114.813 370.626 119.899 366.221 124.65 363.341L133.283 358.358C135.188 357.163 137.523 355.194 139.625 354.467L139.992 356.132L140.023 357.741C140.027 358.539 140.046 359.331 139.953 360.125L121.731 371.884C120.536 372.659 109.934 379.912 109.556 379.959C109.791 379.263 109.213 373.944 109.166 372.692Z"/>
	<path fill="#F8F7FF" d="M140.028 375.574C140.508 377.523 140.401 379.751 140.747 381.778L139.764 383.705C136.334 386.663 120.251 397.122 115.492 399.301C113.4 395.625 112.1 391.898 110.908 387.86C114.483 387.654 117.805 385.307 120.897 383.68L129.702 379.333C133.075 377.835 136.528 376.728 140.028 375.574Z"/>
	<path fill="#B8B8FF" d="M109.197 334.237C115.329 333.124 129.136 322.677 135.975 319.146C137.043 318.595 138.316 317.604 139.445 317.311L139.602 318.654L139.449 321.456L139.45 329.158C139.423 330.03 139.501 331.294 139.263 332.127L139.696 344.084L139.792 351.628C139.819 353.069 140.003 354.723 139.744 356.132L139.625 354.467C137.523 355.194 135.188 357.163 133.283 358.358L124.65 363.341C119.899 366.221 114.813 370.626 109.363 371.856L109.136 372.692C108.015 368.969 108.75 362.716 108.78 358.829L108.794 342.558L109.197 334.237Z"/>
	<path fill="#F8F7FF" d="M109.197 334.237C115.329 333.124 129.136 322.677 135.975 319.146C137.043 318.595 138.316 317.604 139.445 317.311L139.602 318.654L139.449 321.456C139.111 322.816 139.05 322.883 137.843 323.625L108.905 342.558L109.197 334.237Z"/>
	<path fill="#F8F7FF" d="M108.97 358.853C109.037 356.966 108.484 356.473 110.092 355.404L126.1 343.473C132.342 338.893 133.976 338.138 138.976 332.446L139.263 332.127L139.696 344.084C134.81 345.997 130.698 349.262 126.274 351.881C124.761 352.777 110.22 360.491 109.07 360.24L108.97 358.853Z"/>
	<path fill="#B8B8FF" d="M381.968 433.502C382.011 443.868 382.155 453.555 380.219 463.766C377.259 472.819 370.405 481.581 361.835 485.962C354.883 489.517 346.969 489.281 339.362 489.226L326.013 489.041C325.659 487.664 325.287 488.24 324.81 487.375L324.973 487.038C326.968 483.073 331.006 480.086 334.263 477.243L354.584 456.375C359.897 451.002 377.33 435.104 381.968 433.502Z"/>
	<path fill="#F8F7FF" d="M339.362 489.226L333.829 488.895C338.985 486.591 345.859 482.3 351.04 479.429L358.75 475.211C360.614 474.151 362.391 472.973 364.357 472.106L362.336 477.285L375 466.733C376.745 465.395 377.91 463.878 380.219 463.766C377.259 472.819 370.405 481.581 361.835 485.962C354.883 489.517 346.969 489.281 339.362 489.226Z"/>
	<path fill="#B8B8FF" d="M363.132 432.456C367.026 432.011 370.764 432.547 374.643 432.54C377.018 432.523 379.513 432.304 381.875 432.549L381.968 433.502C377.33 435.104 359.897 451.002 354.584 456.375L334.263 477.243C331.006 480.086 326.968 483.073 324.973 487.038L324.81 487.375C325.287 488.24 325.659 487.664 326.013 489.014C322.15 488.018 316.974 488.479 312.932 488.464L278.883 488.426C279.743 487.139 281.444 486.574 282.611 485.794L316 465.501L363.154 434.457C363.886 433.952 365.081 433.373 365.44 432.598L363.132 432.456Z"/>
	<path fill="#F8F7FF" d="M374.643 432.537C377.018 432.523 379.513 432.304 381.875 432.549L381.968 433.502C377.33 435.104 359.897 451.002 354.584 456.375L334.263 477.243C331.006 480.086 326.968 483.073 324.973 487.038L324.81 487.375C325.287 488.24 325.659 487.664 326.013 489.014C322.15 488.018 316.974 488.479 312.932 488.464C315.24 484.09 325.261 477.163 329.242 474.253C338.523 467.468 345.336 458.187 353.281 450.022C357.773 445.407 363.078 441.496 368.033 437.392L371.567 434.264C372.843 433.105 372.976 432.9 374.643 432.537Z"/>
	<defs>
		<linearGradient id="gradient_0" gradientUnits="userSpaceOnUse" x1="116.07" y1="80.058998" x2="74.044098" y2="59.184898">
			<stop offset="0" stop-color="#FF7678"/>
			<stop offset="1" stop-color="#F696AF"/>
		</linearGradient>
	</defs>
	<path fill="url(#gradient_0)" d="M114.251 35.375L114.665 35.362C114.651 37.3413 114.349 39.3166 114.307 41.3031L114.236 60.1419C114.226 67.7993 114.838 75.9999 113.766 83.5788L113.123 86.9654C109.464 100.768 84.0009 96.4419 72.7074 94.7851C68.1759 94.1203 63.314 94.4184 58.7271 94.4176L55.989 93.9578L114.251 35.375Z"/>
	<path fill="#FEB9D2" d="M99.2337 68.875L99.7298 68.7544C100.575 69.619 101.546 74.2506 101.79 75.5316C97.169 80.8933 96.4459 79.8788 91.2157 83.3268L75.5333 94.3044C75.0392 94.5098 74.2912 94.4643 73.75 94.5034L73.5292 94.25C74.851 92.3026 77.0644 90.5234 78.7962 88.9217L85.3882 82.5524C87.4389 80.7129 89.6977 79.106 91.6562 77.1704C94.323 74.535 96.2357 71.1266 99.2337 68.875Z"/>
	<path fill="#B8B8FF" d="M327.373 432.171L345.761 431.98C349.75 431.988 353.899 431.826 357.863 432.335C359.309 432.469 361.82 432.144 363.132 432.567L365.44 432.598C365.081 433.373 363.886 433.952 363.154 434.457L316 465.501L282.611 485.794C281.444 486.574 279.743 487.139 278.883 488.236L260.412 488.456L252.802 488.482L247.065 488.387L247.17 488.198C247.547 487.783 247.215 488.252 247.591 487.675L247.782 487.375C249.077 486.844 249.884 486.148 250.9 485.208C253.488 482.256 256.528 480.117 259.671 477.817L270.715 469.987C282.484 461.921 294.068 453.921 306.546 446.955L319.371 439.929C323.108 437.902 327.126 435.954 330.335 433.127L324.867 432.742C325.608 432.363 326.553 432.302 327.373 432.171Z"/>
	<path fill="#F8F7FF" d="M357.863 432.419C359.309 432.469 361.82 432.144 363.132 432.567L365.44 432.598C365.081 433.373 363.886 433.952 363.154 434.457L316 465.501L282.611 485.794C281.444 486.574 279.743 487.139 278.883 488.236L260.412 488.456C263.235 485.574 266.745 483.891 270.338 482.025L327.432 451.676L345.258 440.071C348.863 437.598 353.361 432.919 357.863 432.419Z"/>
	<path fill="#B8B8FF" d="M291.876 431.967L315.068 431.997C315.681 432.591 316.567 432.424 317.383 432.905L318.111 433.249C320.417 433.439 322.595 433.109 324.867 432.742L330.335 433.127C327.126 435.954 323.108 437.902 319.371 439.929L306.546 446.955C294.068 453.921 282.484 461.921 270.715 469.987L259.671 477.817C256.528 480.117 253.488 482.256 250.9 485.208C249.884 486.148 249.077 486.844 247.782 487.375L247.591 487.675C247.215 488.252 247.547 487.783 247.17 488.198L247.065 488.343L234.823 488.436L201.194 488.365L182.682 488.456C187.166 483.178 196.949 479.749 203.077 476.737L220.779 467.449C234.262 459.904 273.943 433.661 287.884 432.043L291.876 431.967Z"/>
	<path fill="#F8F7FF" d="M324.867 432.742L330.335 433.127C327.126 435.954 323.108 437.902 319.371 439.929L306.546 446.955C294.068 453.921 282.484 461.921 270.715 469.987L259.671 477.817C256.528 480.117 253.488 482.256 250.9 485.208C249.884 486.148 249.077 486.844 247.782 487.375L247.591 487.675C247.215 488.252 247.547 487.783 247.17 488.198L247.065 488.343L234.823 488.436L230.625 488.124C230.666 487.031 230.257 486.716 230.125 485.888L230.5 486.023C231.044 485.885 245.548 477.641 247.341 476.567L293.752 446.891L318.111 433.249C320.417 433.439 322.595 433.109 324.867 432.742Z"/>
	<path fill="#F8F7FF" d="M287.884 432.043L291.876 431.967L297.625 432.407C277.127 438.772 260.375 453.78 242.141 464.524C237.098 467.496 231.843 469.818 226.593 472.375L212.47 479.875C209.45 481.519 204.304 483.712 202.315 486.555C201.988 487.022 201.694 487.194 201.221 487.503L202.912 487.812L201.194 488.04L182.682 488.456C187.166 483.178 196.949 479.749 203.077 476.737L220.779 467.449C234.262 459.904 273.943 433.661 287.884 432.043Z"/>
	<path fill="#9381FF" d="M46.7051 439.808C50.7957 439.731 54.2324 437.119 57.6685 435.176L88.5977 415.753C93.0009 412.962 97.6317 409.955 101.327 406.244C101.898 407.324 102.436 408.417 103.158 409.406L108.844 416.505C110.184 417.906 111.598 419.103 113.12 420.302L120.526 424.99C125.474 427.874 130.489 429.807 135.99 431.34L136.057 432.728C136.448 433.072 136.851 433.275 137.314 433.508C131.95 435.289 127.259 438.905 122.536 441.938L75.121 472.999C71.9588 475.084 69.169 478.685 65.8038 480.179C63.6905 479.187 61.6553 477.009 60.1501 475.27L55.5572 470.037C54.2509 468.563 53.2844 466.867 52.3356 465.153L49.6919 459.409C47.5918 455.502 47.2165 450.301 46.922 445.94L46.7051 439.808Z"/>
	<path fill="#B8B8FF" d="M91.7115 450.646L102.25 445.577L100.004 447.509C100.578 446.999 101.315 447.026 101.875 446.377L103.413 445.812C102.604 446.475 94.5239 451.397 93.4715 451.393C93.2601 450.645 96.2225 449.658 96.6251 448.917C95.1808 448.85 93.5865 450.5 91.9232 450.637L91.7115 450.646Z"/>
	<path fill="#F8F7FF" d="M91.7115 450.646L91.9232 450.637C93.5865 450.5 95.1808 448.85 96.6251 448.917C96.2225 449.658 93.2601 450.645 93.4715 451.393L72.9733 464.82C68.0148 468.067 63.8523 470.6 60.1501 475.27L55.5572 470.037L55.8387 469.917C58.8615 468.921 62.8588 465.305 65.9502 463.575L91.7115 450.646Z"/>
	<path fill="#F8F7FF" d="M49.6919 459.409C54.7134 458.383 86.1117 435.885 90.7697 432.278L100.432 424.597C103.35 422.059 106.095 419.229 108.844 416.505C110.184 417.906 111.598 419.103 113.12 420.302C110.218 423.077 106.801 425.381 103.675 427.915L74.1374 449.732L52.3356 465.153L49.6919 459.409Z"/>
	<path fill="#9381FF" d="M46.7051 439.808C50.7957 439.731 54.2324 437.119 57.6685 435.176L88.5977 415.753C93.0009 412.962 97.6317 409.955 101.327 406.244C101.898 407.324 102.436 408.417 103.158 409.406L108.844 416.505C106.095 419.229 103.35 422.059 100.432 424.597L90.7697 432.278C86.1117 435.885 54.7134 458.383 49.6919 459.409C47.5918 455.502 47.2165 450.301 46.922 445.94L46.7051 439.808Z"/>
	<path fill="#F8F7FF" d="M46.7051 439.808C50.7957 439.731 54.2324 437.119 57.6685 435.176L88.5977 415.753C93.0009 412.962 97.6317 409.955 101.327 406.244C101.898 407.324 102.436 408.417 103.158 409.406C101.561 411.238 99.4272 412.576 97.458 413.976L86.2164 421.61C73.3954 430.07 60.6737 438.916 46.988 445.94L46.7051 439.808Z"/>
	<path fill="#9381FF" d="M90.3532 335.13C91.0009 334.614 91.8038 334.279 92.5438 333.914L92.4512 334.861C92.4321 353.992 91.2754 373.369 96.298 392.039C97.6167 396.941 99.724 401.457 101.327 406.244C97.6317 409.955 93.0009 412.962 88.5977 415.753L57.6685 435.176C54.2324 437.119 50.7957 439.731 46.7119 439.808C46.5273 437.457 46.6657 434.978 46.6694 432.616L46.7366 405.512C46.7475 402.48 46.5883 399.296 47.0721 396.299L47.4292 390.479C47.2547 388.665 47.0311 386.586 47.4097 384.819L47.4484 379.165L47.4537 360.773L47.4443 353.768C51.4376 353.797 55.4058 351.636 58.8695 349.972L90.3532 335.13Z"/>
	<path fill="#B8B8FF" d="M90.3532 335.13C91.0009 334.614 91.8038 334.279 92.5438 333.914L92.4512 334.861L92.125 337.129C91.3695 337.322 90.7792 337.175 90.0355 337.027C90.426 336.284 90.3642 335.954 90.3532 335.13Z"/>
	<path fill="#F8F7FF" d="M47.4292 390.479L47.7871 390.4C49.7905 390.051 51.8682 388.869 53.6683 387.956L88.4354 370.71C83.66 375.572 77.6576 377.868 71.8024 381.137L56.7515 389.831C53.3848 391.786 50.4551 394.226 47.1955 396.299L47.4292 390.479Z"/>
	<path fill="#F8F7FF" d="M47.4484 379.165L60.4313 372.385C69.769 367.086 78.8182 361.295 88.9847 357.66C84.5537 361.6 79.1051 364.623 74.0585 367.72L49.8134 383.319C49.0708 383.895 48.347 384.74 47.4097 384.819L47.4484 379.165Z"/>
	<path fill="#F8F7FF" d="M90.3532 335.13C90.3642 335.954 90.426 336.284 90.0355 337.027L58.3599 354.365C55.0806 356.146 50.1494 358.078 47.5062 360.773L47.4443 353.768C51.4376 353.797 55.4058 351.636 58.8695 349.972L90.3532 335.13Z"/>
	<path fill="#9381FF" d="M158.228 233.165C163.483 230.975 178.196 231.414 183.958 231.504L184.357 231.494L201.985 231.916C205.85 232.101 210.076 232.124 213.859 232.941L221.686 233.195L240.139 233.265L236.33 234.364C235.76 235.07 234.935 235.929 234.542 236.696C233.098 238.18 231.059 239.074 229.339 240.204L217 247.966C212.63 250.574 207.251 252.727 203.812 256.625C204.129 257.177 204.457 257.328 204.994 257.634C194.786 259.227 183.566 258.73 173.934 262.782C166.358 268.309 159.743 270.553 151.781 277.886C149.768 280.373 148.378 282.804 146.943 285.645C146.827 285.873 146.291 287.115 146.144 287.203L142.611 296.736L109.677 315.806L109.981 310.87L109.908 310.369C109.056 298.932 110.55 273.415 116.811 265.385L117.067 265.357C120.369 265.248 128.838 257.953 131.696 255.625L144.74 244.852C147.194 242.83 157.762 235.765 158.228 233.165Z"/>
	<path fill="#F8F7FF" d="M109.981 310.87C113.385 309.984 116.612 307.568 119.678 305.857C126.621 301.983 137.164 297.448 142.283 291.273C143.532 289.767 144.088 287.635 146.144 287.203L142.611 296.736L109.677 315.806L109.981 310.87Z"/>
	<path fill="#F8F7FF" d="M183.958 231.529L184.357 231.494C181.377 236.925 166.415 244.227 161.088 247.483L144.788 257.321C141.619 259.172 138.677 260.981 135.34 262.531C145.747 253.734 156.852 245.841 167.971 237.975C177.684 231.104 172.543 232.705 183.649 231.563L183.958 231.529Z"/>
	<defs>
		<linearGradient id="gradient_1" gradientUnits="userSpaceOnUse" x1="168.983" y1="255.939" x2="172.52" y2="262.129">
			<stop offset="0" stop-color="#C3D0FF"/>
			<stop offset="1" stop-color="white"/>
		</linearGradient>
	</defs>
	<path fill="url(#gradient_1)" d="M213.859 232.982L221.686 233.195C220.632 235.495 196.026 247.122 192.009 249.346C190.022 250.446 188.285 251.919 186.323 253.025L179.778 256.406C177.119 257.894 174.227 259.946 171.897 261.905C163.296 266.413 158.715 269.194 150.596 274.882C149.67 275.168 148.77 275.866 147.941 276.363L143.628 278.783C136.363 282.588 129.062 286.437 121.529 289.689C125.977 285.412 131.639 282.611 136.83 279.322L165.262 259.794C166.896 258.635 168.681 257.021 170.481 256.173C171.946 254.446 174.569 252.964 176.509 251.787C183.967 247.806 191.74 245.603 199.858 241.096L213.859 232.982Z"/>
	<path fill="#B8B8FF" d="M263.105 431.962L287.884 432.032C273.943 433.661 234.262 459.904 220.779 467.449L203.077 476.737C196.949 479.749 187.166 483.178 182.682 488.529L162.465 488.393L156.29 488.436L127.364 488.454L118.303 488.457L99.3995 488.399C92.7342 488.308 86.3884 487.366 79.8669 486.046C78.058 485.706 76.2277 484.97 74.4943 484.358C71.4006 483.175 68.6415 481.909 65.8038 480.179C69.169 478.685 71.9588 475.084 75.121 472.999L122.536 441.938C127.259 438.905 131.95 435.289 137.314 433.508C138.388 433.25 139.397 433.038 140.378 432.51L147.586 433.265L163.676 434.386C170.925 434.457 178.642 434.958 185.824 434.034C186.26 433.783 187.11 433.819 187.61 433.778L191.984 433.452C194.821 433.237 197.663 432.773 200.5 432.66L215.086 432.549C217.263 432.486 219.407 432.085 221.587 432.037L263.105 431.962Z"/>
	<path fill="#F8F7FF" d="M118.303 488.457C120.104 483.018 132.027 478.142 136.626 475.568L165.5 459.74C173.896 455.512 181.943 450.715 189.805 445.56C193.486 443.147 196.79 439.785 200.644 437.678C202.666 436.572 207.868 436.088 210.25 436.127L211.66 436.168C211.998 436.014 212.139 435.9 212.375 435.627L213.409 435.631C206.44 438.67 199.978 442.963 193.676 447.17L167.902 464.732C161.137 469.098 136.221 481.406 133.033 487.064L133.188 487.669L127.364 488.452L118.303 488.457Z"/>
	<path fill="#F8F7FF" d="M156.29 488.436L144.247 487.617C149.959 482.71 157.336 479.432 164.082 476.161L225.266 445.112C233.856 440.661 239.924 437.803 249.25 435.653L249.875 435.479C251.638 435.198 253.728 434.377 255.5 434.377C256.595 433.648 257.277 434.646 258.375 434.75L259 434.5C259.318 434.261 259.698 433.904 260.062 433.751L260.5 433.625C260.738 433.517 260.942 433.342 261.175 433.224L261.365 433.398C258.079 435.533 254.283 437.034 250.764 438.762L185.756 473.596L165.998 486.626C164.057 488.021 164.951 488.086 162.465 488.304L156.29 488.436Z"/>
	<path fill="#F8F7FF" d="M163.676 434.386C170.925 434.457 178.642 434.958 185.824 434.034C184.007 435.796 181.421 436.979 179.089 438.031L170.312 441.985C163.126 445.506 133.858 458.901 130.76 465.75C130.356 466.642 130.399 467.504 129.798 468.348C124.719 475.483 113.676 482.308 110.875 486.8L110.6 487.607C110.702 487.999 110.692 487.84 110.625 488.209L99.3995 488.399C92.7342 488.308 86.3884 487.366 79.8669 486.046C80.7278 485.203 88.7974 480.416 90.125 480.705L90.625 481.687C94.2469 480.182 101.795 474.818 105.073 472.473L115.296 464.838C120.029 461.014 124.538 457.072 129.703 453.806L150.328 441.646C153.695 439.736 161.301 437.195 163.676 434.386Z"/>
	<path fill="#B8B8FF" d="M140.378 432.51L147.586 433.265L163.676 434.386C161.301 437.195 153.695 439.736 150.328 441.646L129.703 453.806C124.538 457.072 120.029 461.014 115.296 464.838L105.073 472.473C101.795 474.818 94.2469 480.182 90.625 481.687L90.125 480.705C88.7974 480.416 80.7278 485.203 79.8669 486.046C78.058 485.706 76.2277 484.97 74.4943 484.358C71.4006 483.175 68.6415 481.909 65.8038 480.179C69.169 478.685 71.9588 475.084 75.121 472.999L122.536 441.938C127.259 438.905 131.95 435.289 137.314 433.508C138.388 433.25 139.397 433.038 140.378 432.51Z"/>
	<path fill="#F8F7FF" d="M140.378 432.51L147.586 433.265C148.318 433.726 148.494 434.032 147.489 434.219L145.23 434.74C141.657 435.731 125.213 446.81 122.316 449.07C115.088 454.709 108.441 461.029 100.883 466.252L88.5516 474.324C84.0039 477.056 78.2463 478.802 74.5475 482.75L74.4943 484.358C71.4006 483.175 68.6415 481.909 65.8038 480.179C69.169 478.685 71.9588 475.084 75.121 472.999L122.536 441.938C127.259 438.905 131.95 435.289 137.314 433.508C138.388 433.25 139.397 433.038 140.378 432.51Z"/>
	<path fill="#F8F7FF" d="M346.467 265.977C352.743 265.495 359.414 265.456 365.691 265.777C368.331 265.913 371.288 266.708 373.885 266.515L415.285 262.787C420.268 262.51 424.942 261.799 429.991 262.535C445.868 264.85 457.396 275.505 461.624 290.925C461.975 292.352 462.797 294.552 462.756 295.967C464.531 302.751 465.511 310.162 464.249 317.115C465.285 318.578 465.165 320.422 464.771 322.179L464.645 322.474L464.553 345.351C464.627 347.042 465.156 348.596 465.238 350.293L465.278 362.547C465.256 369.48 465.368 376.884 463.89 383.688C463.82 384.375 463.764 386.69 463.315 387.157C461.091 410.91 453.019 414.447 431.488 420.941C424.922 422.922 425.623 421.845 419.844 422.599L391.583 425.113L371.779 425.186C369.549 425.225 367.389 425.59 365.175 425.694L255.541 425.706C253.465 425.649 251.435 425.265 249.375 425.2L224.75 424.74C199.472 423.425 169.878 411.616 160.01 386.662C156.448 377.652 155.665 367.846 154.997 358.272L154.049 336.778C153.968 316.285 152.158 295.447 167.955 279.666C177.101 270.529 192.177 266.186 204.781 264.436C208.852 263.87 213.483 264.451 217.616 264.479L248.115 264.577C250.492 264.655 252.725 265.376 255.141 265.436L313.958 265.764C317.773 265.832 320.727 265.761 324.5 265.735L345.493 265.747L346.467 265.977Z"/>
	<path fill="#64667D" d="M463.315 387.157C462.687 387.731 462.08 388.253 461.375 388.73L460.897 388.603C460.244 386.365 462.417 384.941 463.89 383.688C463.82 384.375 463.764 386.69 463.315 387.157Z"/>
	<path fill="#64667D" d="M464.249 317.115C465.285 318.578 465.165 320.422 464.771 322.179L464.645 322.474L461.944 326.111L464.249 317.115Z"/>
	<path fill="#B8B8FF" d="M345.493 266.022L346.467 265.977C343.884 268.217 340.207 269.42 337.194 270.994L328.57 275.473C326.571 276.488 322.062 278.472 326.259 276.322L330.604 274.058C334.895 271.719 338.816 268.366 343.519 266.875C344.114 266.686 344.843 266.635 345.325 266.215L345.493 266.022Z"/>
	<path fill="#2F2F3B" d="M431.43 300.297C436.059 300.01 440.395 304.305 439.06 309.094C437.837 313.48 435.85 317.875 434.213 322.141L414.506 374.53C412.539 379.861 410.861 385.513 408.4 390.626C405.015 397.659 397.686 396.959 393.939 390.229C392.024 386.792 390.67 383.03 389.26 379.365L368.49 328.751L364.785 320.612C363.254 317.328 360.163 312.189 361.143 308.423C362.972 301.398 370.943 300.313 374.878 305.953C377.805 310.147 379.793 315.608 381.871 320.293L391.788 344.238C395.095 352.762 398.239 361.344 402.168 369.608L422.185 314.453C424.046 309.101 425.016 301.863 431.43 300.297Z"/>
	<path fill="#2F2F3B" d="M320.71 299.605L327.757 300.023C335.926 301.207 349.221 309.525 339.451 316.448C332.093 321.66 329.366 314.859 323.232 313.975C308.16 311.805 300.032 329.098 312.875 333.482C315.485 334.373 318.763 334.34 321.5 334.747C360.799 340.59 359.057 390.213 327.123 396.434C322.916 397.253 318.125 396.966 313.888 396.511C309.121 395.68 304.459 394.23 300.467 391.448C290.893 384.777 294.281 373.877 304.025 373.528C306.205 373.45 307.559 375.12 309.027 376.479C324.896 391.156 343.26 372.418 332.202 357.515C326.79 350.222 319.574 350.988 311.581 349.392C280.152 343.113 285.227 301.648 320.71 299.605Z"/>
	<path fill="#2F2F3B" d="M240.748 298.348C251.812 297.742 265.877 299.033 273.042 308.655C276.038 312.678 275.26 317.952 270.875 320.53C264.872 324.059 260.383 317.867 256.048 314.875C248.531 309.687 237.081 311.629 229.731 316.006C213.17 325.869 208.729 350.063 219.028 365.875C226.665 377.602 242.597 385.499 255.886 378.472C258.331 377.18 260.587 375.425 262.904 373.91C270.621 369.945 278.544 378.563 273.468 385.335C261.12 401.812 231.313 397.745 216.686 386.197C182.555 359.25 196.757 303.165 240.748 298.348Z"/>
	<defs>
		<linearGradient id="gradient_2" gradientUnits="userSpaceOnUse" x1="59.492001" y1="364.526" x2="353.673" y2="37.152">
			<stop offset="0" stop-color="#8F80FF"/>
			<stop offset="1" stop-color="#C6CDFF"/>
		</linearGradient>
	</defs>
	<path fill="url(#gradient_2)" d="M268.636 21.5004L276.758 21.5046L298.65 21.5828C301.409 21.5895 304.831 22.0215 307.505 21.5409L318.436 22.4147C325.591 23.0459 333.285 23.9793 339.843 27.074C342.018 28.0902 344.027 29.2208 346.014 30.568C347.827 31.7782 349.663 33.1746 351.162 34.7607C352.657 36.228 355.641 38.5981 356.341 40.4968C357.636 41.8638 358.673 43.5644 359.581 45.2096L360.233 46.4247C361.066 47.8895 361.914 49.3916 362.418 51.0084C364.852 55.1283 368.702 66.9661 369.108 72.1733L370.257 80.4825L370.733 81.2461C371.348 82.2163 371.48 84.1207 371.689 85.2536L373.546 96.375C373.863 98.4816 374.297 100.638 374.323 102.77L376.413 122.746L377.035 128.12C377.586 131.872 378.014 141.065 377.761 144.913L377.928 154.129L378.617 171.538L378.749 175.828L379.433 195.156L379.757 202.963C380.347 208.214 381 214.423 380.471 219.718C380.449 221.266 380.679 223.169 380.436 224.675L381.254 235.234L381.293 236.634L383.088 257.137C376.096 258.899 369.945 258.751 362.76 258.751L277.143 258.585C277.756 257.591 278.013 256.677 278.971 256.332C280.789 254.912 283.061 253.161 285.226 252.355L298.424 243.422C300.491 241.917 302.612 240.533 304.527 238.828C305.365 237.316 306.552 235.907 307.603 234.535L310.8 234.465C312.406 234.36 314.038 234.449 315.641 234.239C318.616 234.792 333.135 234.641 334.875 232.847C336.057 231.628 335.84 229.597 335.332 228.117C334.78 227.695 314.754 226.558 310.493 226.437L272.238 226.347C269.146 226.325 266.104 225.82 263.003 225.783L174.566 225.707C149.383 225.731 127.111 226.754 110.021 249.171C105.499 255.103 102.11 261.636 98.3438 268.037L96.8565 271.545C96.5272 272.32 96.437 273.051 96.3507 273.884L92.4981 333.914C91.8038 334.279 91.0009 334.614 90.3532 335.13L58.8695 349.972C55.4058 351.636 51.4376 353.797 47.5048 353.768L47.4557 338.978L47.4765 336.074L47.4531 312.295L47.4754 309.586L47.4517 271.495L47.4747 268.947L47.6667 243.558L47.9743 240.132L47.4514 194.213C47.685 192.557 47.8655 189.844 47.5049 188.219L47.4733 179.211L47.4593 176.281C47.1856 174.578 47.2254 172.772 47.0955 171.048L46.6923 155.447L46.6882 149.758L46.709 126.771L46.7232 120.151C48.358 120.14 59.6476 114.879 62.1842 114.036C64.9354 113.122 77.5436 110.087 79.6052 107.715C82.9803 107.291 87.2103 108.378 90.7491 108.073C102.278 107.447 114.5 107.305 123.253 98.473C130.454 91.2071 129.178 81.7085 129.172 72.2437L129.169 53.7671L129.116 51.7138C129.952 51.321 130.847 51.0823 131.731 50.8223L157.315 30.5596C158.691 29.4434 160.384 28.319 161.439 26.8996C166.673 26.4497 172.168 27.1576 177.355 26.3398L180.72 25.9978C181.054 25.729 181.976 25.7752 182.407 25.7455L188.183 25.3351C189.669 25.528 192.3 25.0898 193.916 25.0141L205.712 24.4824L218.52 23.3937L222.049 23.1169L241.367 21.5547L250.642 21.5525L268.011 21.5409L268.636 21.5004ZM222.049 23.1169C221.723 24.1438 221.239 25.5439 220.49 26.3273C217.601 30.6399 213.669 35.3173 209.75 38.7309L209.016 39.402L202.875 44.2737C201.431 45.3614 199.879 46.3076 198.615 47.6078L213.21 38.5995C214.333 38.2285 215.669 37.0526 216.693 36.4266L223.734 32.3706C225.096 31.3382 226.781 30.5644 228.249 29.6717L237.69 23.852C238.938 23.1091 240.247 22.704 241.367 21.5547L222.049 23.1169Z"/>
	<path fill="#B8B8FF" d="M377.477 236.9C378.704 236.027 379.701 235.017 381.262 235.234L381.293 236.634C380.482 237.454 379.863 238.107 378.73 238.476C379.076 238.079 379.428 237.743 379.627 237.25L377.477 236.9Z"/>
	<path fill="#4A3996" d="M96.3507 273.884C96.4488 272.62 96.2526 271.754 95.8308 270.588L95.6868 270.196C96.1841 267.694 97.4986 265.784 98.9174 263.729C98.874 265.168 98.1256 266.292 98.3093 267.808L98.3438 268.037L96.8565 271.545C96.5272 272.32 96.437 273.051 96.3507 273.884Z"/>
	<path fill="#B8B8FF" d="M228.498 61.6957L228.488 61.8452C227.164 62.8282 220.669 66.8178 219.5 67.1225L218.829 66.6875C219.413 65.9722 220.36 65.4648 221.123 64.9524L226.75 61.398C227.349 61.0047 227.835 60.7858 228.512 60.5358L228.215 60.9399C227.782 61.4924 227.291 61.7044 226.685 62.0183L225.062 63.2512C225.495 63.0156 225.86 62.718 226.312 62.5012L228.498 61.6957Z"/>
	<path fill="#B8B8FF" d="M356.341 40.4968C357.636 41.8638 358.673 43.5644 359.581 45.2096C355.569 45.3981 352.577 47.3988 349.305 49.4651L353.062 46.5012C353.772 46.3806 354.02 46.1972 354.204 45.4694L354.625 45.25C354.767 44.9853 354.88 44.7631 354.953 44.4688L355 44.25C355.65 43.6001 356.511 43.2443 357.312 42.8125L357.188 42.3738C356.843 41.7018 356.55 41.5094 356.384 40.7173L356.341 40.4968Z"/>
	<path fill="#B8B8FF" d="M278.971 256.332C280.789 254.912 283.061 253.161 285.226 252.355C286.026 252.695 286.945 252.76 287.694 253.123C280.97 260.332 283.71 255.641 278.971 256.332Z"/>
	<path fill="#F8F7FF" d="M47.4747 268.947C51.0914 268.123 63.4519 262.314 65.806 262.671C62.304 264.578 50.5303 270.608 47.4663 271.495L47.4747 268.947Z"/>
	<path fill="#F8F7FF" d="M69.4281 279.875L70.0266 280.012C68.0578 281.135 65.6603 281.841 63.5438 282.682L55.1213 286.275C52.6845 287.316 50.1887 288.285 47.897 289.625L47.4561 289.488C47.3912 288.721 47.4433 288.217 47.625 287.468L69.4281 279.875Z"/>
	<path fill="#B8B8FF" d="M310.8 234.465C312.406 234.36 314.038 234.449 315.641 234.239L315.501 235.001C312.989 236.283 311.057 238.046 308.723 239.546L308.641 239.244C307.827 238.565 305.641 238.838 304.527 238.828C305.365 237.316 306.552 235.907 307.603 234.535L310.8 234.465Z"/>
	<path fill="#B8B8FF" d="M47.9743 240.132C51.3269 239.217 53.9438 237.701 57.0385 236.232L65.5859 232.447C67.104 231.785 68.8292 230.783 70.4638 230.492C64.0175 234.421 56.799 237.046 50.8038 241.726C49.8848 242.443 49.0908 243.346 47.9145 243.558L47.9743 240.132Z"/>
	<path fill="#B8B8FF" d="M47.4754 309.586C52.1195 309.253 56.6042 306.969 61.042 305.625L72.3962 302.374C72.0312 302.804 72.0828 302.812 71.5291 303.017L53.6564 309.724C51.8594 310.414 48.9279 311.064 47.4941 312.295L47.4754 309.586Z"/>
	<path fill="#F8F7FF" d="M377.477 236.9L379.627 237.25C379.428 237.743 379.076 238.079 378.73 238.476L363.776 245.503L363.248 245.254C362.77 244.884 362.674 244.746 362.026 244.541L377.477 236.9Z"/>
	<path fill="#F8F7FF" d="M304.527 238.828C305.641 238.838 307.827 238.565 308.641 239.244L308.723 239.546L294.752 248.128C292.4 249.666 289.768 251.223 287.694 253.123C286.945 252.76 286.026 252.695 285.226 252.355L298.424 243.422C300.491 241.917 302.612 240.533 304.527 238.828Z"/>
	<path fill="#F8F7FF" d="M75.0239 211.125L75.3573 211.141C74.9251 211.867 73.6065 212.481 72.8712 212.925L48.7253 227.625L48.1855 223.089C57.5772 221.103 66.1147 214.623 75.0239 211.125Z"/>
	<path fill="#B8B8FF" d="M47.4765 336.074L47.821 336.043C50.0945 335.82 52.0244 335.034 54.1314 334.203L76.9544 323.748C80.8105 321.869 84.485 319.664 88.5197 318.182C82.0515 323.763 73.5368 326.687 65.9323 330.355L51.1702 337.308C49.9878 337.822 48.7219 338.615 47.5061 338.978L47.4765 336.074Z"/>
	<path fill="#F8F7FF" d="M359.581 45.2096L360.233 46.4247C358.415 48.1088 355.069 48.782 352.839 49.9942L336.457 58.974C333.026 60.9469 329.248 64.4238 325.375 65.3256L325.261 64.5174C326.56 64.2329 328.043 62.9384 329.16 62.1722L335.695 57.8227C340.216 54.9939 344.899 52.4864 349.305 49.4651C352.577 47.3988 355.569 45.3981 359.581 45.2096Z"/>
	<defs>
		<linearGradient id="gradient_3" gradientUnits="userSpaceOnUse" x1="344.30301" y1="257.34399" x2="351.79199" y2="240.015">
			<stop offset="0" stop-color="#B8C3FF"/>
			<stop offset="1" stop-color="#FFF4FF"/>
		</linearGradient>
	</defs>
	<path fill="url(#gradient_3)" d="M362.026 244.541C362.674 244.746 362.77 244.884 363.248 245.254L363.776 245.503L351.552 250.575C350.087 251.134 348.521 251.924 346.979 252.19C345.759 252.401 334.204 253.804 333.062 253.723C333.856 252.846 335.595 252.74 332.181 252.125C337.238 249.201 344.985 249.851 350.612 248.678C354.508 247.865 358.386 246.112 362.026 244.541Z"/>
	<path fill="#F8F7FF" d="M378.749 175.828C371.225 176.94 353.063 187.92 343.82 191.042L343.877 190.911C347.873 188.147 352.334 186.211 356.614 183.936L375.345 172.635C376.253 172.054 377.311 171.195 378.375 170.975L378.682 171.538L378.749 175.828Z"/>
	<path fill="#F8F7FF" d="M47.5049 188.219L75.8942 175.394C73.4662 177.646 70.6469 179.151 67.8809 180.927L54.5659 189.451C52.2309 190.935 50.1127 192.792 47.7548 194.213C47.685 192.557 47.8655 189.844 47.5049 188.219Z"/>
	<path fill="#F8F7FF" d="M377.035 128.12L341.698 144.295C342.889 143.151 344.453 142.371 345.875 141.543L370 126.514C372.116 125.266 374.175 123.75 376.413 122.746L377.035 128.12Z"/>
	<path fill="#F8F7FF" d="M374.323 102.77C372.352 103.321 370.244 104.445 368.404 105.362L360.472 109.247C357.945 110.436 337.522 119.928 336.336 119.5C341.319 116.371 346.821 113.918 351.896 110.895L359.954 105.677C362.147 104.316 364.525 103.167 366.625 101.671L373.546 96.375C373.863 98.4816 374.297 100.638 374.323 102.77Z"/>
	<path fill="#F8F7FF" d="M380.436 224.675L380.426 226.625C378.513 227.787 375.819 228.434 373.718 229.293L366.767 232.317C359.155 235.312 351.051 237.85 343.07 239.647C343.253 238.861 354.64 234.204 355.957 233.621L369.103 227.108C373.098 224.988 376.816 222.975 379.991 219.69L380.471 219.718C380.449 221.266 380.679 223.169 380.436 224.675Z"/>
	<defs>
		<linearGradient id="gradient_4" gradientUnits="userSpaceOnUse" x1="80.399002" y1="123.264" x2="52.3979" y2="109.797">
			<stop offset="0" stop-color="#C0BFFF"/>
			<stop offset="1" stop-color="#FFFDFF"/>
		</linearGradient>
	</defs>
	<path fill="url(#gradient_4)" d="M79.6052 107.715C82.9803 107.291 87.2103 108.378 90.7491 108.073C90.1299 108.614 89.849 108.674 89.125 108.639L88.5215 108.88C87.9371 108.892 87.6642 108.975 87.125 109.127L86.2512 109.279C74.8292 111.626 57.3219 117.88 48.875 124.997C48.2011 125.565 47.5362 126.34 46.7784 126.771L46.7232 120.151C48.358 120.14 59.6476 114.879 62.1842 114.036C64.9354 113.122 77.5436 110.087 79.6052 107.715Z"/>
	<defs>
		<linearGradient id="gradient_5" gradientUnits="userSpaceOnUse" x1="91.276299" y1="141.323" x2="45.7617" y2="149.49699">
			<stop offset="0" stop-color="#C9CFFF"/>
			<stop offset="1" stop-color="white"/>
		</linearGradient>
	</defs>
	<path fill="url(#gradient_5)" d="M49.9698 148.769C60.112 145.68 82.4441 134.483 90.4572 136.438L89.25 136.5L89.3725 137.125C89.7403 137.307 89.8556 137.208 90.2473 137.135L90.5158 137.351C76.9053 140.731 64.1944 146.994 51.4341 152.688C49.9344 153.489 47.9695 154.325 46.6891 155.447L46.6882 149.758L49.9698 148.769Z"/>
	<path fill="#F8F7FF" d="M379.757 202.963C373.03 204.919 366.707 208.099 360.402 211.112L349.25 216.262C346.044 217.803 342.956 219.455 339.623 220.72C342.56 218.105 346.089 216.052 349.378 213.913L371.5 200.477C374.259 198.858 376.877 196.999 379.489 195.156L379.757 202.963Z"/>
	<defs>
		<linearGradient id="gradient_6" gradientUnits="userSpaceOnUse" x1="73.4767" y1="147.74001" x2="56.3801" y2="183.16499">
			<stop offset="0" stop-color="#B1C3FF"/>
			<stop offset="1" stop-color="white"/>
		</linearGradient>
	</defs>
	<path fill="url(#gradient_6)" d="M80.8973 151.102C80.6523 151.685 80.7895 151.654 80.1875 151.938L77.3789 153.754C76.4718 154.359 75.0563 154.78 76.875 155.127L80.25 156.439C81.3577 156.33 81.4937 157.062 82.418 155.911L83.1602 155.449C83.4492 155.16 83.3537 155.259 83.8125 155.062L77.0842 159.885L50.0675 177.34C49.2343 177.959 48.4822 178.809 47.5252 179.211L47.4593 176.281L47.4785 172.595C50.271 171.378 52.9828 169.616 55.5645 168.005L69.7268 158.665C70.6408 157.671 72.0971 156.841 73.2223 156.066L80.8973 151.102Z"/>
	<path fill="#F8F7FF" d="M250.642 21.5594L268.011 21.5409C265.253 23.4266 261.335 26.059 258.523 27.88C248.749 34.2103 237.721 34.4036 227.5 38.8782L228.114 37.973C233.538 33.7538 245.9 29.907 248.734 22.3643L248.836 22.0578C249.431 21.7173 249.976 21.6717 250.642 21.5594Z"/>
	<path fill="#F8F7FF" d="M377.928 154.129L334.013 172.952C335.687 171.243 338.496 169.952 340.584 168.791L377.75 144.913L377.928 154.129Z"/>
	<path fill="#F8F7FF" d="M369.108 72.1733L370.257 80.4825C369.361 80.6 368.23 81.3271 367.38 81.7138L331.522 99.2086C326.569 101.582 321.722 104.148 316.554 106.031C319.326 103.76 322.378 101.888 325.378 99.9363L369.108 72.1733Z"/>
	<path fill="#F8F7FF" d="M161.439 26.8996C166.673 26.4497 172.168 27.1576 177.355 26.3398L180.72 25.9978C180.205 27.2368 177.41 27.7248 176.213 28.6487C174.828 29.0826 173.529 30.048 172.25 30.7371L158.254 38.6438C149.713 43.6765 141.382 48.4342 132.303 52.4226C131.268 53.0226 130.334 53.4403 129.182 53.7671L129.116 51.7138C129.952 51.321 130.847 51.0823 131.731 50.8223L157.315 30.5596C158.691 29.4434 160.384 28.319 161.439 26.8996Z"/>
	<path fill="#B8B8FF" d="M188.183 25.3351C189.669 25.528 192.3 25.0898 193.916 25.0141L205.712 24.4824L207.308 24.6918C208.529 27.6224 195.255 32.1162 192.988 33.2966L178.996 41.3331C174.481 44.0585 170.67 47.5558 166.5 50.7417C156.144 58.654 145.726 65.5964 133.375 70.0494L132.877 68.5C133.263 67.7275 133.585 66.9258 134.127 66.25L134.377 65.9304C135.89 64.0365 137.801 62.544 139.75 61.1275L141.75 59.6275C142.707 58.9384 144.206 58.1734 144.438 58.0012L145.5 58C145.837 57.6655 145.738 57.6284 146.25 57.625L147.688 57.1875L149.188 56.4375L151.875 54.3775L152.127 54.125C152.52 53.7329 152.674 53.3788 153.25 53.375L153.127 52.875C154.205 52.3363 155.974 50.7556 156.625 49.6825L157.05 49.5374C158.006 48.5338 159.652 47.7875 160.825 47.0232L175.434 38.2678C179.27 36.1838 183.287 34.3396 186.938 31.9375L186.377 31.375L186.688 30.3125L186.377 30C186.42 29.1232 185.675 27.1338 187 27.125L187.709 25.8733L188.183 25.3351Z"/>
	<path fill="#F8F7FF" d="M276.758 21.457L298.65 21.5828C301.409 21.5895 304.831 22.0215 307.505 21.5409L306.898 22.6732L306.503 22.875C302.678 24.8842 299.856 26.4636 295.78 28.375L228.498 61.6957L226.312 62.5012C225.86 62.718 225.495 63.0156 225.062 63.2512L226.685 62.0183C227.291 61.7044 227.782 61.4924 228.215 60.9399L228.512 60.5358C238.095 55.6312 246.848 48.7762 255.77 42.7863L268.732 34.1705C270.721 32.773 272.809 31.4191 274.582 29.7469C276.011 28.7824 278.467 26.7679 279.025 25.125L278.756 24.9658C278.041 24.4292 276.895 22.762 276.79 21.8696L276.758 21.457Z"/>
	<path fill="#9381FF" d="M90.5158 137.351L90.738 137.338C93.99 137.094 97.3297 135.836 100.541 135.203L115.119 132.665C106.515 137.114 87.9326 145.233 80.8973 151.102L73.2223 156.066C72.0971 156.841 70.6408 157.671 69.7268 158.665L55.5645 168.005C52.9828 169.616 50.271 171.378 47.4785 172.595L47.4593 176.281C47.1856 174.578 47.2254 172.772 47.0955 171.048L46.6923 155.447C47.9695 154.325 49.9344 153.489 51.4341 152.688C64.1944 146.994 76.9053 140.731 90.5158 137.351Z"/>
	<path fill="#2F2F3B" d="M307.681 71.0125L320.299 70.9139C324.011 71.0986 322.345 78.9211 318.748 81.5842C314.291 82.5039 309.098 81.9026 304.532 81.8943L178.106 81.8939C176.714 81.8778 175.14 81.9048 173.819 81.4061L173.5 81.2745C167.674 78.9196 168.692 70.9271 175 70.5273C177.478 70.3703 179.947 70.7483 182.417 70.8582L250.869 71.0422L259.455 70.9832L283.341 71.0449L297.768 71.0085L307.681 71.0125Z"/>
	<path fill="#B8B8FF" d="M318.436 22.4724C325.591 23.0459 333.285 23.9793 339.843 27.074C342.018 28.0902 344.027 29.2208 346.014 30.568C347.827 31.7782 349.663 33.1746 351.162 34.7607C347.643 38.1477 343.383 40.7841 339.324 43.4831L319.285 56.4619C315.239 58.9305 310.83 61.1269 306.963 63.8599C304.402 65.203 298.714 67.9236 297.768 70.7537L283.341 71.0355L259.455 70.9944L250.869 71.0422C252.239 70.5893 253.269 70.8233 254.625 70.6275C256.072 69.2666 256.522 69.5823 258.209 69.733C260.296 69.52 261.839 67.5003 263.711 66.9041C268.192 64.0829 273.113 62.1043 277.641 59.3674C287.931 53.1468 308.587 38.687 317.054 29.5006C323.692 23.2238 320.063 24.6862 318.436 22.4724Z"/>
	<path fill="#F8F7FF" d="M283.341 71.0355L281.584 70.125C284.95 68.2117 288.134 65.9731 291.539 64.1586L320.379 48.7328C329.491 43.5969 338.665 38.0926 346.014 30.568C347.827 31.7782 349.663 33.1746 351.162 34.7607C347.643 38.1477 343.383 40.7841 339.324 43.4831L319.285 56.4619C315.239 58.9305 310.83 61.1269 306.963 63.8599C304.402 65.203 298.714 67.9236 297.768 70.7537L283.341 71.0355Z"/>
	<path fill="#F8F7FF" d="M318.436 22.4724C325.591 23.0459 333.285 23.9793 339.843 27.074C336.014 30.1172 331.26 32.6143 327.124 35.2722C313.669 43.9197 299.808 52.5764 285.26 59.2706C281.515 60.9935 277.584 62.2536 273.793 63.8562L267.25 66.4946C266.039 66.9327 264.913 67.5917 263.711 66.9041C268.192 64.0829 273.113 62.1043 277.641 59.3674C287.931 53.1468 308.587 38.687 317.054 29.5006C323.692 23.2238 320.063 24.6862 318.436 22.4724Z"/>
	<path fill="#2F2F3B" d="M176.26 112.783C181.297 113.353 186.408 113.2 191.465 113.204L308.229 113.154C311.119 113.137 314.077 112.844 316.953 112.958C320.175 113.086 323.539 123.896 312.529 124.954L175.534 125.295C167.173 125.318 166.212 114.945 176.26 112.783Z"/>
	<path fill="#2F2F3B" d="M312.614 154.975L316.75 154.989C319.789 155.412 320.019 158.728 319.56 161.172C318.497 166.836 312.961 166.431 308.537 166.429L121.321 166.55C118.198 166.677 114.421 167.641 111.329 167.076C108.763 166.708 106.124 165.834 104.141 163.998C101.18 161.258 105.759 156.244 108.883 155.926C114.052 155.4 119.681 155.831 124.897 155.825L160.003 155.756C163.094 155.717 166.087 155.097 169.157 155.066L312.614 154.975Z"/>
	<path fill="#2F2F3B" d="M315.481 194.94C316.825 194.618 318.677 194.449 319.854 195.125C321.836 199.439 319.897 205.974 314.625 206.434C311.781 206.682 308.872 206.584 306.019 206.588L107.94 206.651L107.001 206.543C100.977 205.505 100.727 197.162 107.293 196.471C111.827 195.994 116.808 196.361 121.379 196.354L155.326 196.267C157.751 196.2 160.113 195.643 162.5 195.537L315.481 194.94Z"/>
</svg>
