<?xml version="1.0" encoding="utf-8" ?>
<svg xmlns="http://www.w3.org/2000/svg" xmlns:xlink="http://www.w3.org/1999/xlink" width="512" height="512">
	<path fill="#51359B" d="M478.163 260.219C479.456 260.221 481.267 260.464 482.426 260.194C488.377 261.818 484.776 269.237 478.959 269.288L477.952 266.705C477.945 264.79 477.538 262.004 478.163 260.219Z"/>
	<path fill="#3A3A55" d="M112.749 122.61L121.269 123C123.146 123.052 125.258 122.914 127.016 123.631C127.353 126.281 128 129.738 127.571 132.386L127.504 132.75C126.253 139.674 117.455 140.553 113.597 135.38C111.145 132.094 112.225 126.441 112.749 122.61Z"/>
	<path fill="#3A3A55" d="M117.188 279.778C128.654 278.59 131.249 295.79 119.599 298.484C107.674 298.983 105.604 283.005 117.188 279.778Z"/>
	<path fill="#3A3A55" d="M117.967 240.275C129.992 239.379 131.578 255.732 121.19 259.276C114.476 260.189 109.368 254.719 110.901 247.851L110.987 247.5C111.894 243.697 114.072 241.285 117.967 240.275Z"/>
	<path fill="#3A3A55" d="M116.042 317.542C120.4 317.318 123.445 319.024 124.322 323.605C125.536 329.953 126.909 345.142 118.436 347.485C109.317 348.725 109.699 338.504 109.899 332.339C110.091 326.431 109.517 320.153 116.042 317.542Z"/>
	<path fill="#3A3A55" d="M119.162 158.781C128.215 158.348 127.221 170.967 127.204 176.885L127.171 198.984C127.34 206.68 131.315 216.244 120.328 218.33C112.391 218.207 109.684 209.532 113.088 203C114.23 200.809 113.615 198.527 113.463 196.149L112.732 172.889C112.723 166.571 112.155 161.184 119.162 158.781Z"/>
	<defs>
		<linearGradient id="gradient_0" gradientUnits="userSpaceOnUse" x1="103.559" y1="84.535797" x2="137.30701" y2="104.267">
			<stop offset="0" stop-color="#373048"/>
			<stop offset="1" stop-color="#44475C"/>
		</linearGradient>
	</defs>
	<path fill="url(#gradient_0)" d="M112.749 122.663C113.623 116.196 113.354 109.703 113.359 103.242L113.342 80.4214C113.273 76.5899 112.296 72.4862 112.951 68.6858C114.349 60.5693 125.229 61.5829 126.784 69L126.874 69.418C127.296 71.5167 127.213 73.7338 127.216 75.8653L127.186 113.164C127.168 116.438 126.696 120.429 127.209 123.631C125.258 122.914 123.146 123.052 121.269 123L112.749 122.663Z"/>
	<path fill="#3A3A55" d="M166.769 79.5645C170.383 79.1179 174.282 79.7468 177.924 79.9428L219.95 81.5405C221.986 81.5524 224.9 81.2276 226.817 81.9165C232.916 84.1077 232.686 91.5047 226.944 93.7419C223.144 94.6095 218.723 93.6574 214.836 93.5293L170.271 92.2577C162.001 91.6737 158.747 83.1017 166.769 79.5645Z"/>
	<path fill="#3A3A55" d="M108.293 366.297C115.714 365.374 117.415 371.007 117.671 377.4L120.309 403.5C121.105 410.001 125.14 427.948 116.801 429.755L115.125 429.743C107.167 429.272 107.218 420.36 106.593 414.455L103.626 384.003C103.321 380.484 102.694 376.342 103.172 372.862L103.402 371.565C104.161 368.952 105.987 367.481 108.293 366.297Z"/>
	<path fill="#3A3A55" d="M167.594 172.07L239.437 172.695C242.112 173.09 243.818 176.615 243.351 179.053L243.284 179.375C242.76 182.169 240.541 184.239 237.885 184.975C232.734 185.465 227.509 184.577 222.38 184.539L175.375 184.464C172.717 184.457 169.617 184.636 167.051 183.89L166.625 183.744C158.871 181.282 161.2 173.827 167.594 172.07Z"/>
	<defs>
		<linearGradient id="gradient_1" gradientUnits="userSpaceOnUse" x1="297.86099" y1="426.35501" x2="418.94299" y2="433.866">
			<stop offset="0" stop-color="#4D3D95"/>
			<stop offset="1" stop-color="#7F77FF"/>
		</linearGradient>
	</defs>
	<path fill="url(#gradient_1)" d="M337.523 470.208L377.199 469.234C398.349 467.418 410.276 465.453 412.663 442.875C413.438 435.546 413.249 428.239 413.257 420.877L413.277 396.629C413.281 392.487 413.02 388.101 413.523 383.999C414.677 383.113 417.332 383.482 418.764 383.529C419.587 384.571 419.125 431.19 419.027 436.305C418.833 446.339 418.137 458.17 410.532 465.47C402.287 471.467 392.927 473.284 382.947 474.296L372.526 475.269L332.911 475.984L294.43 476.723C297.009 475.501 301.197 476.019 304.041 476.003L321.186 475.885C322.58 474.802 323.001 472.272 323.882 470.788L310.79 470.526C308.466 470.533 305.888 470.772 303.597 470.377L303.376 470.335L337.523 470.208Z"/>
	<path fill="#3A3A55" d="M245.629 112.727C255.914 112.257 253.203 123.855 246.997 124.915C244.55 125.332 241.803 125.132 239.316 125.136L170.42 125.41C161.012 125.085 160.162 114.254 168.779 112.979C171.353 112.599 174.182 112.813 176.787 112.804L245.629 112.727Z"/>
	<path fill="#9381FF" d="M478.28 274.552C485.058 276.05 483.243 277.602 482.813 284.055L479.275 330.109C477.221 355.597 479.241 373.16 447.5 375.739C438.013 376.51 428.46 376.272 418.947 376.291L379.225 377.617C377.31 377.707 375.424 378.066 373.5 378.134L348.037 378.881C344.324 379.036 340.238 378.935 336.589 379.656L331.525 380.439C331.475 376.869 330.712 373.768 329.818 370.351C331.313 369.866 333.258 370.079 334.828 370.086L360.255 370.278C362.189 370.367 364.069 370.806 366.005 370.866L412.531 370.072C414.651 369.981 416.77 369.574 418.875 369.517L428.265 369.482L447.999 369.303C454.757 368.727 462.43 367.764 467.054 362.179L467.335 361.834C472.41 355.725 472.75 347.298 473.337 339.75L478.28 274.552Z"/>
	<defs>
		<linearGradient id="gradient_2" gradientUnits="userSpaceOnUse" x1="211.507" y1="413.79599" x2="313.388" y2="552.69702">
			<stop offset="0" stop-color="#6D68FE"/>
			<stop offset="1" stop-color="#CBCBFC"/>
		</linearGradient>
	</defs>
	<path fill="url(#gradient_2)" d="M410.532 465.47C412.928 467.177 414.982 469.103 415.623 472.139C417.321 480.195 408.969 482.321 402.708 483.679L394.75 485.252C386.527 486.593 378.424 487.019 370.125 487.453L359 488.005C357.396 488.107 355.829 488.381 354.215 488.432L319.308 488.527C315.16 488.541 311.105 489.136 307 489.185L275.125 489.272C272.676 489.301 270.233 489.803 267.772 489.889L250.094 490.269L106.301 491.627L261.909 477.796C266.562 476.736 277.812 477.012 283.875 476.784L294.43 476.722L332.911 475.984L372.526 475.269L382.947 474.296C392.927 473.284 402.287 471.467 410.532 465.47Z"/>
	<path fill="#3A3A55" d="M331.525 380.439C324.997 382.789 318.723 382.299 311.925 382.766L266.167 385.214L237.521 387.436C228.364 388.223 219.121 389.496 209.922 388.321C191.04 385.91 181.487 370.178 178.94 352.714C178.359 348.73 178.606 344.477 178.606 340.451L179.022 272.686C179.047 236.077 179.704 217.863 219.374 214.763C228.82 214.025 238.495 214.66 247.976 214.482C250.562 214.434 253.088 213.882 255.645 213.839L337.512 213.853L382.015 214.558C385.804 214.594 392.128 214.287 393.989 218.447L394.788 220.763C393.596 229.086 389.271 230.473 381.683 231.197C373.941 231.934 365.769 231.474 357.98 231.463L348.31 231.453C341.781 231.48 335.814 230.654 329.065 230.627L266.699 230.696C263.747 230.758 260.895 231.352 257.94 231.415L234.018 232.186C222.132 232.538 200.04 231.611 197.151 246.539C196.76 248.561 196.947 250.84 196.953 252.9L196.963 335.362C196.923 344.179 195.143 354.662 200.639 362.312C207.159 371.385 219.495 370.254 229.25 370.217L329.818 370.201C330.712 373.768 331.475 376.869 331.525 380.439Z"/>
	<path fill="#3A3A55" d="M106.301 491.133C102.585 491.888 98.6239 491.998 94.8413 492.124C74.2971 492.806 53.4321 490.306 36.7668 477.179C16.3124 461.067 18.5642 432.117 18.5597 408.753L18.5912 174.331C18.5929 171.077 18.3363 167.543 18.9144 164.338L19.1899 162.847C20.5305 157.29 25.8372 153.59 31.5756 155.013C34.3221 156.354 37.114 158.129 38.1754 161.177L38.376 161.755C38.8872 163.259 38.709 165.332 38.7099 166.919L38.6744 426.315C38.6809 441.198 38.4101 456.358 53.4167 464.226C68.3725 472.068 87.3165 473.853 103.836 471.328C105.862 470.958 108.057 470.889 110.115 470.654L143.5 468.283L218.45 468.293L250.47 469.373C252.628 469.469 254.7 470.01 256.856 470.065L303.376 470.213L303.597 470.377C305.888 470.772 308.466 470.533 310.79 470.526L323.882 470.788C323.001 472.272 322.58 474.802 321.186 475.885L304.041 476.003C301.197 476.019 297.009 475.501 294.43 476.663L283.875 476.784C277.812 477.012 266.562 476.736 261.909 478L106.301 491.133Z"/>
	<path fill="#3A3A55" d="M32.1376 126.177C21.1564 127.609 18.5819 120.273 18.5696 111.605L18.5542 100.961C18.521 76.8225 15.2063 56.0394 35.6565 37.6612C50.9543 23.9133 72.1039 18.8463 92.125 17.5293L126.818 16.1824C128.892 16.1225 130.945 15.7176 133 15.657L209.813 15.6652C212.224 15.7096 214.606 16.1253 217 16.1956L236.367 16.3617C238.577 16.4263 240.741 16.8076 242.942 16.906L264.182 17.7782C304.528 19.978 326.114 29.7842 354.994 55.7802L387.322 88.4926L402.125 106.609C410.969 117.934 419.538 129.462 427.063 141.718C430.314 147.012 432.736 150.884 432.758 157.253L430.257 195.634C430.027 199.176 430.085 205.815 424.875 205.311C423.706 204.691 423.097 203.97 422.559 202.763L422.445 202.5C420.586 198.455 422.076 189.759 422.196 185.25C422.367 178.865 422.077 172.435 422.649 166.067L345.175 164.026C339.84 163.601 334.175 163.08 329.125 161.229C305.683 152.636 306.883 126.886 308.598 106.544L314.641 49.9872C280.098 34.0851 240.752 36.3036 203.668 36.3061L141.5 36.335C138.841 36.36 136.25 36.8452 133.625 36.9207L107.072 36.9628L93.7368 37.8431C72.9162 39.6012 44.7707 45.8791 38.9842 69.25L38.8653 69.7109C38.0887 72.9137 38.6174 76.9946 38.6402 80.3116L38.6051 113.429C38.4509 119.321 37.3958 122.415 32.3914 125.989L32.1376 126.177Z"/>
	<path fill="#F8F7FF" d="M328.748 81.9098L329.729 58.8926C332.736 62.1039 336.173 64.9769 339.41 67.9511L374.374 102.788L395.951 129.573C397.052 130.988 398.504 132.524 399.36 134.087L405.728 142.307C407.131 144.136 408.299 145.939 410.019 147.504L405.586 147.265C401.458 143.614 399.123 141.346 394.44 137.833C383.964 131.921 366.586 114.16 357.544 105.675C349.691 98.3063 337.757 88.2562 328.748 81.9098Z"/>
	<path fill="#FF7AA8" d="M328.654 81.9098C337.757 88.2562 349.691 98.3063 357.544 105.675C366.586 114.16 383.964 131.921 394.44 137.833C399.123 141.346 401.458 143.614 405.586 147.265L349.976 144.695C331.557 142.751 327.243 136.786 327.328 118.992L327.576 99.0981C327.688 96.76 328.157 94.4541 328.273 92.125L328.654 81.9098Z"/>
	<path fill="#B8B8FF" d="M32.1376 126.177L32.3914 125.989C37.3958 122.415 38.4509 119.321 38.6051 113.429L38.6402 80.3116C38.6174 76.9946 38.0887 72.9137 38.8653 69.7109L38.9842 69.25C44.7707 45.8791 72.9162 39.6012 93.7368 37.8431L107.072 37.1562L106.236 88.6333L94.4937 254.066L92.4999 304.536L92.2214 322.134C92.1484 323.953 91.8035 325.746 91.7033 327.57L91.6434 355.082C91.754 357.787 92.2204 360.481 92.2973 363.226L92.2346 422.925C91.7083 437.199 86.3476 455.801 98.375 466.901C99.8569 468.268 103.184 469.56 103.836 471.328C87.3165 473.853 68.3725 472.068 53.4167 464.226C38.4101 456.358 38.6809 441.198 38.6744 426.315L38.7099 166.919C38.709 165.332 38.8872 163.259 38.376 161.755L38.1754 161.177C37.114 158.129 34.3221 156.354 31.5756 155.013C30.6209 149.075 30.7483 131.337 32.1376 126.177Z"/>
	<defs>
		<linearGradient id="gradient_3" gradientUnits="userSpaceOnUse" x1="226.256" y1="206.17999" x2="453.10901" y2="380.117">
			<stop offset="0" stop-color="#8075FD"/>
			<stop offset="1" stop-color="#A8A9FF"/>
		</linearGradient>
	</defs>
	<path fill="url(#gradient_3)" d="M394.788 220.763C409.58 216.948 423.799 214.513 439.078 213.952C466.775 212.934 482.01 214.299 484.045 245.387C484.25 248.531 484.544 251.797 483.875 254.898L483.811 255.205C483.626 255.997 483.069 256.594 482.399 257.015L482.139 257.07C480.833 257.326 478.255 256.744 477.465 257.75L478.227 260.219C477.538 262.004 477.945 264.79 477.975 266.705L478.959 269.288L478.28 274.552L473.337 339.75C472.75 347.298 472.41 355.725 467.335 361.834L467.054 362.179C462.43 367.764 454.757 368.727 447.999 369.303L428.265 369.466L418.875 369.517C416.77 369.574 414.651 369.981 412.531 370.072L366.005 370.866C364.069 370.806 362.189 370.367 360.255 370.278L334.828 370.086C333.258 370.079 331.313 369.866 329.818 370.351L229.25 370.217C219.495 370.254 207.159 371.385 200.639 362.312C195.143 354.662 196.923 344.179 196.963 335.362L196.953 252.9C196.947 250.84 196.76 248.561 197.151 246.539C200.04 231.611 222.132 232.538 234.018 232.186L257.94 231.415C260.895 231.352 263.747 230.758 266.699 230.696L329.065 230.627C335.814 230.654 341.781 231.48 348.31 231.453L357.98 231.463C365.769 231.474 373.941 231.934 381.683 231.197C389.271 230.473 393.596 229.086 394.788 220.763ZM315.876 259.333C309.782 259.436 299.956 257.929 296.611 264.411L296.455 264.699C295.772 266.143 295.642 267.924 295.529 269.499L294.764 302.521C294.76 309.519 293.274 333.529 300.796 336.613L301.395 336.866C302.376 337.282 304.101 336.822 305.055 336.381C310.003 334.091 306.992 314.294 306.645 309.115L306.662 308.6C320.933 307.664 339.817 311.266 350.515 299.046C357.105 291.52 357.582 271.781 349.247 264.845C341.82 258.664 325.717 258.691 315.876 259.333ZM403.678 257.354C392.835 258.306 381.083 261.183 373.768 269.909C361.021 285.116 361.259 317.274 377.533 330.275C389.224 339.615 419.974 343.669 429.797 330.677C433.681 325.539 435.471 306.267 435.235 300.007C425.126 298.6 413.032 300.566 403.628 298.382C402.556 296.826 400.056 290.078 398.844 294.935C397.956 298.494 397.706 302.798 397.748 306.452C397.774 307.397 397.609 308.897 398.037 309.718L424.8 309.937C422.875 315.891 423.522 322.047 416.871 325.488C410.198 328.94 399.719 329.301 392.625 327.007C380.209 322.99 377.462 312.38 377.363 300.545C377.193 280.209 384.846 267.721 405.691 267.71C418.08 267.704 420.717 268.577 425.22 279.89C427.879 286.569 438.303 281.355 434.086 269.177C430.421 258.593 416.811 257.212 407.32 257.262C406.294 257.268 404.622 257.062 403.678 257.354ZM273.982 255.516C269.125 257.51 269.619 267.826 269.571 272.241L269.538 294.077C269.543 303.393 271.031 316.665 265.071 324.564C261.755 328.958 256.311 330.521 251.163 328.35C242.288 324.607 248.803 317.475 243.5 313.291L243.117 312.973C238.404 310.093 237.333 315.537 237.18 318.804C237.001 322.637 236.921 325.981 238.21 329.656C245.055 344.407 267.468 341.981 275.83 330.01C282.015 321.153 281.478 308.318 281.497 298.003L281.498 266.123C281.494 263.895 282.024 261.11 280.652 259.182L280.388 258.801C279.088 256.944 277.523 255.914 275.25 255.582L273.982 255.516Z"/>
	<path fill="#9381FF" d="M307.248 269.043L321.264 268.992C327.389 269.007 338.425 268.478 341.93 274.888L342.082 275.178C345.511 281.518 344.677 290.164 338.863 294.708C332.554 299.087 325.733 299.283 318.345 299.283L306.514 299.189L307.248 269.043Z"/>
</svg>
