<?xml version="1.0" encoding="utf-8" ?>
<svg xmlns="http://www.w3.org/2000/svg" xmlns:xlink="http://www.w3.org/1999/xlink" width="512" height="512">
	<path fill="#413F7E" d="M198.433 95.9941C210.956 95.1967 212.089 108.538 203.091 110.625C200.58 111.207 197.927 111.375 195.366 111.653L145.68 117.71C144.479 117.741 143.229 117.836 142.044 117.603L141.75 117.54C137.989 116.786 135.607 114.407 134.617 110.667C136.226 101.888 142.564 101.887 149.818 101.18L160.25 99.981C172.935 98.4292 185.645 96.3742 198.433 95.9941Z"/>
	<path fill="#413F7E" d="M176.168 127.744C178.447 127.543 180.916 127.732 183.211 127.733L267.676 128.281C272.409 128.288 278.482 127.669 283.014 129.076C290.48 131.394 290.9 141.497 283.763 144.215L283.5 144.308C280.434 145.447 276.073 144.554 272.832 144.54L256.554 144.456C255.114 144.439 252.732 144.697 251.375 144.313L250.938 144.112C248.95 143.966 246.824 143.834 244.823 143.82L161.686 143.275C156.442 143.292 144.887 145.624 140.625 142.159C133.926 136.714 138.188 128.256 148.258 127.833L176.168 127.744Z"/>
	<path fill="#413F7E" d="M132.053 275.803C120.507 273.693 125.698 260.615 132.758 260.387L361.401 260.54C364.494 260.548 367.927 260.015 370.875 261.137L371.244 261.265C379.403 264.159 377.921 277.752 369.556 277.963L290.125 277.857C288.232 277.794 286.335 277.306 284.415 277.206L264.627 277.098L132.053 275.803Z"/>
	<path fill="#413F7E" d="M250.127 173.493L327.617 173.557C330.098 173.618 332.534 174.072 334.995 174.129L356.317 174.619C360.518 174.653 365.208 174.212 369.349 174.851C378.302 176.232 378.919 190.619 368.519 192.147C366.625 192.426 364.339 192.199 362.405 192.196L346.826 192.079C345.084 192.009 343.388 191.606 341.645 191.572L309.325 190.492L278.994 190.372L252.113 189.377L152.63 190.177C148.817 190.512 144.983 190.34 141.161 190.468C135.562 190.656 124.917 192.571 124.776 182.875C124.726 179.398 128.605 175.296 132.02 174.799C134.398 174.452 137.011 174.653 139.426 174.646L176.347 174.095C178.595 174.016 180.816 173.583 183.043 173.539L250.127 173.493Z"/>
	<path fill="#413F7E" d="M179.88 216.92L333.125 217.001C336.429 217.064 339.589 217.808 342.875 217.862L360.084 218.041C365.994 218.068 376.837 216.721 377.062 225.888C377.354 237.793 363.724 234.701 356.871 234.625L322.875 234.562L289.551 234.143C286.826 234.053 284.132 233.456 281.446 233.401L171.226 232.992C169.94 233.063 168.662 233.301 167.375 233.327L142.211 233.375C138.776 233.381 133.694 234.27 130.562 233.021C123.071 230.032 123.718 220.555 131.752 217.655L132.125 217.524C134.403 216.703 137.41 216.985 139.831 216.979L179.88 216.92Z"/>
	<path fill="#413F7E" d="M290.916 311.503C297.927 311.413 304.709 312.32 311.652 312.429L353.625 313.641L400.346 315.572C403.099 315.633 405.794 316.039 408.536 316.213L418.529 316.38C421.623 316.414 424.768 316.587 427.845 316.247L427.622 315.386C425.693 307.604 422.854 310.483 423.174 299.392L427.673 195.383C427.734 193.262 428.144 191.176 428.19 189.068L428.173 140.958C427.971 133.629 427.598 124.14 426.689 117.139C422.554 116.116 417.684 116.535 413.422 116.525L387.616 116.508C376.93 116.494 367.011 117.129 357.885 110.501L357.5 110.218C355.234 108.576 352.972 106.401 351.297 104.153L351 103.75C340.217 89.4382 344.241 67.0117 342.915 49.7783L341.747 34.7928C340.522 19.226 339.064 21.5356 322.64 20.3034L303.874 19.3209C301.648 19.2577 299.461 18.8551 297.228 18.8052L250.998 18.2833L157.675 18.8273C155.608 18.9125 153.539 19.295 151.487 19.3354L119.625 20.3041C108.639 20.5689 97.5703 20.5439 86.6725 22.2069C67.282 25.1661 66.8401 41.5018 66.7836 58.124L66.9087 107.813L68.4563 140.192L72.3116 200.728L72.9301 220.573C72.9518 222.439 73.0761 224.375 72.8076 226.225L72.7432 226.625C72.1208 230.805 66.9279 233.941 63.0375 231.9L62.75 231.742C60.617 230.59 59.0132 228.929 58.0538 226.684L57.7325 225.932C57.1112 224.367 57.1961 222.476 57.1752 220.822L57.0803 212.993C57.0456 211.651 56.7911 210.336 56.7182 209L52.7426 139.419L51.3234 106.625L51.2396 85.7347C51.2137 83.542 50.8422 81.4227 50.7721 79.25L51.3094 43.6699C52.4795 27.6461 60.8313 13.6286 76.782 8.5965C84.9972 6.0048 93.4411 6.27513 101.913 5.86082L118.052 5.07913C119.674 5.03136 121.26 4.74088 122.875 4.67241L168.208 2.9586C170.442 2.85288 172.616 2.33148 174.834 2.25012L279.704 2.26305C281.976 2.34488 284.144 2.79449 286.375 2.95404L306.125 3.71091C318.522 4.12752 335.521 3.9216 346.698 9.93379C350.525 11.9922 353.673 15.4372 356.97 18.2383L391.187 49.089C405.912 62.9465 420.213 77.6495 432.581 93.6699C443.138 107.343 445.654 112.175 446.631 129.53L446.911 192.277L445.718 223.22L442.204 279.893C442.137 280.612 443.471 281.127 443.997 281.543L448.208 285.183C475.555 309.355 475.275 318.721 475.252 351.414L475.133 375.249L471.011 432C469.047 447.449 462.485 452.88 445.792 452.993L436.709 452.891L436.972 457.875C437.276 472.125 436.084 486.715 425.616 497.496C413.409 510.069 394.621 509.92 378.373 509.891L344.651 509.916C341.748 509.874 338.882 509.278 336.006 509.27L198.394 509.28C195.576 509.32 192.856 509.886 190.049 509.931L108.074 509.954C94.6525 509.945 84.3521 508.792 73.953 498.546C61.2394 486.021 61.7488 467.393 61.7241 450.83C60.8695 450.389 59.0358 450.555 58.0335 450.476C36.6959 448.792 38.2009 429.248 37.4922 413.707L36.8832 327.579C36.9419 299.198 39.5806 288.82 61.5504 271.334L61.11 262.75C60.8335 258.385 60.3152 250.29 67.541 251.324C75.2901 252.433 73.3726 265.044 73.3848 271.107L73.3916 301.468C73.3797 303.956 73.5158 306.557 73.1179 309.011L119.593 307.729L290.916 311.503ZM171.087 314.765L144.25 314.801C140.503 314.905 137.012 315.429 132.914 315.444L114.998 315.488C100.808 315.518 67.0205 316.487 55.6957 321.843C55.3329 322.814 55.4466 324.093 55.2334 325.134L54.4328 377.625C54.3664 379.728 53.8939 381.778 53.8348 383.897L53.7674 424.748C53.7714 429.838 53.8571 437.057 60.6486 437.261L414.296 443.896C415.624 444.23 417.136 444.224 418.5 444.302L427.599 444.468C432.577 444.484 438.379 444.973 443.26 444.002C456.043 441.456 454.037 438.282 454.749 426.099L455.714 409.222C455.856 406.109 456.37 403.068 456.466 399.948L456.653 383.726C456.74 381.552 457.251 379.411 457.298 377.25L457.455 334.739C457.23 334.829 444.065 334.072 442.793 334.002L415.753 332.429L381.428 331.056C376.175 330.758 366.177 330.865 361.375 328.63C361.658 328.335 361.819 327.868 362.001 327.502L362.751 327.266C363.104 326.669 363.128 326.659 363.04 325.975L361.774 325.262C360.092 324.16 357.582 321.997 357.161 319.94L267.084 316.488C263.118 315.979 256.029 315.746 251.647 315.522L226.154 315.44C222.819 315.426 219.658 314.966 216.375 314.826L208.811 314.81L171.087 314.765ZM370.511 448.226C369.499 448.327 368.631 448.396 367.625 448.224L367.988 448.677C367.478 449.015 366.938 449.123 366.312 448.938L365.875 448.75C364.796 448.482 363.206 448.757 362.088 448.812L362.529 449.033C362.862 448.967 363.08 448.975 363.411 449.017L363.822 450.071C364.501 450.28 365.018 450.165 365.697 450.047L366.114 449.957C368.958 450.904 372.892 449.358 374.867 451.742L374.76 452.333C377.979 455.213 397.58 451.851 399.75 454L400.066 454.02C403.306 454.314 407.422 456.641 410 458.75L410.308 458.988C411.86 460.257 413.485 462.283 414.438 464.062L414.905 464.871C415.468 465.775 415.726 466.707 415.897 467.75L415.955 468.069C416.138 469.397 416.182 471.626 415.793 472.875L415.417 474.598C414.896 476.625 410.673 481.933 408.938 482.938L407.917 483.802C407.496 484.18 407.756 483.971 407.25 484.289L407.041 484.428C395.081 492.251 379.36 491.325 365.695 491.168L346.554 491.167C343.171 491.181 339.876 491.832 336.484 491.872L283.538 491.985C277.36 492.015 271.019 492.93 264.847 493.455L244.375 494.287C245.047 494.591 245.898 494.493 246.625 494.5L246.197 495.04C245.94 496.338 244.593 495.579 243.501 496.098C246.755 496.526 250.112 496.357 253.391 496.439L304.258 497.587L353.974 499.933C358.774 500.3 368.26 500.172 372.289 503.198C374.068 504.534 372.92 506.765 373.125 508.623L374.75 508.762C379.758 510.286 376.857 506.742 378.696 504.618C380.526 503.815 383.367 504.122 385.375 504.03C397.175 503.487 411.118 499.825 419.248 490.765C429.614 479.216 428.201 465.903 427.487 451.643C421.556 453.716 411.976 451.351 405.875 450.754C394.122 449.605 382.322 448.359 370.511 448.226ZM357.161 319.94C357.582 321.997 360.092 324.16 361.774 325.262L363.04 325.975C363.128 326.659 363.104 326.669 362.751 327.266L362.001 327.502C361.819 327.868 361.658 328.335 361.375 328.63C366.177 330.865 376.175 330.758 381.428 331.056L415.753 332.429L442.793 334.002C444.065 334.072 457.23 334.829 457.455 334.739C460.121 331.383 467.078 325.964 465.834 320.997L465.731 320.625C464.824 317.22 462.726 314.387 460.755 311.526C460.189 315.451 456.618 322.658 452.769 323.735L452.5 323.804C448.62 324.812 443.815 323.782 439.826 323.632L399.149 321.647L367 320.531C363.718 320.359 360.43 320.34 357.161 319.94ZM441.373 299.375C439.644 301.719 434.215 313.706 434.088 316.305C436.415 316.347 438.93 316.594 441.237 316.359L448.678 316.404C448.291 308.75 447.358 304.564 441.909 299.342L441.373 299.375Z"/>
	<path fill="#F8F7FF" d="M71.2047 450.407L71.0225 445.189C77.8012 444.385 94.0753 444.872 100.357 445.722C100.967 445.672 101.553 445.745 102.125 445.991C94.3472 450.952 80.2987 448.546 71.2047 450.407Z"/>
	<path fill="#B8B8FF" d="M358.643 40.3144C360.419 42.927 363.131 45.2669 365.448 47.5792L379.633 61.4978C391.987 73.4221 404.112 85.7572 414.658 99.3331L384.601 99.3137C373.513 99.3518 363.102 102.118 360.733 87.3512C359.713 80.9957 360.27 74.0594 359.952 67.6235L358.651 46.8231C358.597 44.7009 358.38 42.4185 358.643 40.3144Z"/>
	<defs>
		<linearGradient id="gradient_0" gradientUnits="userSpaceOnUse" x1="80.187698" y1="505.23499" x2="406.38599" y2="429.38199">
			<stop offset="0" stop-color="#B1B1FF"/>
			<stop offset="1" stop-color="#FEFBFC"/>
		</linearGradient>
	</defs>
	<path fill="url(#gradient_0)" d="M100.357 445.56L370.511 448.213C369.499 448.327 368.631 448.396 367.625 448.224L367.988 448.677C367.478 449.015 366.938 449.123 366.312 448.938L365.875 448.75C364.796 448.482 363.206 448.757 362.088 448.812L362.529 449.033C362.862 448.967 363.08 448.975 363.411 449.017L363.822 450.071C364.501 450.28 365.018 450.165 365.697 450.047L366.114 449.957C368.958 450.904 372.892 449.358 374.867 451.742L374.76 452.333C377.979 455.213 397.58 451.851 399.75 454L400.066 454.02C403.306 454.314 407.422 456.641 410 458.75L410.308 458.988C411.86 460.257 413.485 462.283 414.438 464.062L414.905 464.871C415.468 465.775 415.726 466.707 415.897 467.75L415.955 468.069C416.138 469.397 416.182 471.626 415.793 472.875L415.417 474.598C414.896 476.625 410.673 481.933 408.938 482.938L407.917 483.802C407.496 484.18 407.756 483.971 407.25 484.289L407.041 484.428C395.081 492.251 379.36 491.325 365.695 491.168L346.554 491.167C343.171 491.181 339.876 491.832 336.484 491.872L283.538 491.985C277.36 492.015 271.019 492.93 264.847 493.455L244.375 494.287C245.047 494.591 245.898 494.493 246.625 494.5L246.197 495.04C245.94 496.338 244.593 495.579 243.501 496.098C246.755 496.526 250.112 496.357 253.391 496.438L230.188 496.388C227.812 496.315 225.478 495.827 223.118 495.781L201.405 495.674C199.277 495.609 197.237 495.077 195.125 494.995L122.94 494.942C111.063 494.939 88.454 496.776 79.7266 488.099C70.1582 478.585 71.287 462.774 71.2616 450.407C80.2987 448.546 94.3472 450.952 102.125 445.991C101.553 445.745 100.967 445.672 100.357 445.56Z"/>
	<defs>
		<linearGradient id="gradient_1" gradientUnits="userSpaceOnUse" x1="225.76401" y1="483.659" x2="281.30399" y2="285.44901">
			<stop offset="0" stop-color="#7B66FF"/>
			<stop offset="1" stop-color="#BDC1FF"/>
		</linearGradient>
	</defs>
	<path fill="url(#gradient_1)" d="M171.087 314.765L208.811 314.81L216.375 314.826C219.658 314.966 222.819 315.426 226.154 315.44L251.647 315.522C256.029 315.746 263.118 315.979 267.084 316.488L357.161 319.94C357.582 321.997 360.092 324.16 361.774 325.262L363.04 325.975C363.128 326.659 363.104 326.669 362.751 327.266L362.001 327.502C361.819 327.868 361.658 328.335 361.375 328.63C366.177 330.865 376.175 330.758 381.428 331.056L415.753 332.429L442.793 334.002C444.065 334.072 457.23 334.829 457.455 334.739L457.298 377.25C457.251 379.411 456.74 381.552 456.653 383.726L456.466 399.948C456.37 403.068 455.856 406.109 455.714 409.222L454.749 426.099C454.037 438.282 456.043 441.456 443.26 444.002C438.379 444.973 432.577 444.484 427.599 444.468L418.5 444.302C417.136 444.224 415.624 444.23 414.296 443.896L60.6486 437.261C53.8571 437.057 53.7714 429.838 53.7674 424.748L53.8348 383.897C53.8939 381.778 54.3664 379.728 54.4328 377.625L55.2334 325.134C55.4466 324.093 55.3329 322.814 55.6957 321.843C67.0205 316.487 100.808 315.518 114.998 315.488L132.914 315.444C137.012 315.429 140.503 314.905 144.25 314.801L171.087 314.765ZM234.331 404.05C234.343 408.12 233.837 413.126 234.904 417.042L234.998 417.375C235.306 418.562 235.705 419.064 236.941 419.472L237.247 419.569C240.973 420.819 245.319 420.007 249.089 419.358C269.789 415.795 288.927 404.671 292.062 382.002C292.726 370.198 288.802 357.825 280.853 348.993C272.424 339.628 261.664 336.519 249.659 334.53C244.534 333.68 230.739 330.1 231.032 339.041L234.331 404.05ZM165.372 333.284C157.253 335.339 158.603 340.924 158.62 347.223L158.653 391.973C158.652 397.858 158.606 403.635 159.117 409.5C160.392 424.128 170.664 419.339 171.042 415.875C171.301 413.494 170.781 410.733 170.737 408.302L170.574 389.249C188.286 389.315 208.672 388.917 215.899 368.485C219.679 345.512 203.177 338.331 183.625 334.977C177.343 333.9 171.734 333.221 165.372 333.284ZM306.735 408.479C306.645 420.548 318.886 423.578 318.683 410.153L318.553 377.381C321.478 377.97 324.761 377.712 327.75 377.723L351.247 377.679C352.305 377.641 353.761 377.7 354.723 377.24L354.992 377.003C356.532 364.38 351.307 366.999 341.712 366.982L318.471 366.843L318.791 346.845C321.863 347.196 325.114 346.99 328.217 346.993L360.533 347.025C363.576 347.044 366.765 347.257 369.786 346.916C370.281 342.91 370.444 338.392 366.75 335.884L366.531 335.733C364.179 334.247 347.214 335.217 343.485 335.218L317.488 335.309C315.906 335.376 314.099 335.467 312.616 336.07L312.275 336.205C310.072 337.099 307.94 338.356 306.966 340.625L306.609 341.496C304.631 346.179 306.649 356.463 306.716 361.594L306.735 408.479ZM171.087 314.765L144.25 314.801C140.503 314.905 137.012 315.429 132.914 315.444L114.998 315.488C100.808 315.518 67.0205 316.487 55.6957 321.843C55.3329 322.814 55.4466 324.093 55.412 324.641L55.5577 324.869C57.4365 325.393 60.2436 324.79 62.25 324.737L117.789 321.573L161.303 321.157C162.981 320.93 164.485 320.726 166.096 320.189C166.673 320.375 170.878 319.173 171.797 318.95C175.494 318.052 179.736 318.333 183.527 318.324L199.808 318.309L228.125 318.409C230.262 318.512 232.384 318.886 234.512 319.105L247.749 320.564C248.067 320.978 248.096 320.91 248.125 321.5L249 321.75C249.351 322.013 249.686 322.273 250.062 322.499L250.312 322.312C250.771 322.509 250.676 322.411 250.965 322.698L251.375 322.5C251.715 322.62 251.964 322.691 252.227 322.952L255.375 323.123L255.812 322.312L256.875 322.623C257.211 322.252 257.582 322.019 258 321.75L258.75 321.75C259.111 322.037 258.929 321.999 259.249 321.999L260.375 321.5L262.25 320.125C262.763 320.033 263.572 319.586 264.098 319.348L265.312 318.812C265.786 318.88 266.162 318.909 266.625 318.75L267.312 318.688C268.035 318.268 268.683 318.416 269.375 318.102L271.062 317.312L271.625 317.75C272.364 316.364 269.811 317.149 268.756 316.938L268.5 316.875C267.967 316.809 267.593 316.692 267.084 316.488C263.118 315.979 256.029 315.746 251.647 315.522L226.154 315.44C222.819 315.426 219.658 314.966 216.375 314.826L208.811 314.81L171.087 314.765Z"/>
	<path fill="#9381FF" d="M170.632 344.325C179.088 343.942 190.681 345.578 197.62 350.283L198 350.545C206.767 356.515 206.735 366.086 199.097 372.767C190.627 378.868 180.592 378.462 170.671 378.515C170.46 377.512 170.583 376.306 170.585 375.277L170.632 344.325Z"/>
	<path fill="#9381FF" d="M243.118 345.041C253.888 346.136 262.812 348.35 270.669 356.26C283.627 369.307 283.443 385.48 270.423 398.189C262.441 404.426 255.345 407.535 245.265 407.888L243.118 345.041Z"/>
</svg>
