<?xml version="1.0" encoding="utf-8" ?>
<svg xmlns="http://www.w3.org/2000/svg" xmlns:xlink="http://www.w3.org/1999/xlink" width="512" height="511">
	<path fill="#262528" d="M131.174 2.04258L379.283 2.02218C410.213 2.09539 430.031 10.28 451.879 30.6484L469.098 47.7764C482.509 62.0529 509.883 89.9081 509.978 111.125L509.986 447.667C509.964 480.693 501.071 503.473 463.875 508.074C450.208 509.765 436.419 509.302 422.672 509.296L372.812 509.268L114.509 509.44C105.076 509.394 91.1197 506.086 84.625 499.41C70.9031 485.307 69.2723 455.975 69.5156 436.57L64.8161 435.39C45.0898 430.705 20.7474 424.086 9.56211 405.559C1.04187 391.447 2.03183 373.523 2.02776 357.69L2.02377 226.733C2.02499 220.695 1.49697 214.116 3.04386 208.248C8.23851 188.543 14.434 174.406 36 167.245C41.5982 165.386 45.2765 167.82 48.7852 172.22C52.7045 170.613 56.7544 169.443 60.75 168.054L69.6165 164.618C73.2042 163.179 72.6094 163.6 72.6032 159.727L71.5864 89.3875C70.598 72.1095 68.7073 54.2698 72.9751 37.25C79.5457 11.0467 97.0488 6.32388 121.999 2.67997L122.498 2.61067C125.387 2.16931 128.257 2.12569 131.174 2.04258ZM149.025 10.2903L134.335 10.7625C120.068 11.2525 105.911 12.3818 95.2595 23.1039C84.6515 33.7818 85.1561 49.4038 85.1911 63.3491L86.0653 90.875L86.1418 163.892C86.2091 166.236 86.6728 168.525 86.745 170.865L88.5485 201.737C89.0814 208.285 89.4786 214.762 90.7433 221.228C98.3423 221.857 105.9 221.411 113.5 221.693L180.057 222.252C182.744 222.207 185.398 221.719 188.107 221.681L221.453 221.547L252.95 220.434C257.926 220.201 262.793 219.455 267.798 219.366L314.537 219.751C322.865 220.308 331.058 222.273 339.386 222.288L373.508 222.221C377.071 222.11 380.603 221.485 384.165 221.289C405.495 220.11 434.312 221.132 448.779 238.328L450.212 240.136C460.824 253.774 461.441 271.946 462.219 288.484L462.769 358.004C462.786 380.819 461.205 411.479 441.375 426.948C433.97 432.724 423.346 434.547 414.25 435.67L389.234 437.671L272.625 438.275L261.253 437.775L92.3862 438.272C89.5508 438.274 86.5996 438.11 83.7796 438.375C85.2706 450.899 84.2538 461.27 86.8523 474.556C94.076 501.128 112.476 502.239 135.125 502.244L269.982 502.169L439.005 501.542C448.806 500.763 463.548 499.885 472.448 495.307C495.595 483.402 495.751 458.815 495.753 436.632L495.684 236.312C495.688 230.309 495.283 225.994 495.022 220.317L494.918 137.911C494.917 130.872 494.97 109.274 491.791 103.125C490.222 101.986 483.391 103.421 481.25 103.752L447.744 109.692C413.448 115.481 404.241 97.8486 404.227 66.8667L406.586 20.7307C406.594 20.5143 406.741 17.7269 406.705 17.6833C405.259 15.956 379.663 12.554 376.094 12.2064L367.146 11.3583L149.025 10.2903ZM58.4235 423.265C69.444 426.171 79.9871 428.281 91.4464 428.048L259.669 427.197L271.465 427.171L305.201 427.195C306.246 427.193 311.44 427.441 311.919 427.197L320.197 427.175L349.04 427.201L382.821 427.503C385.626 426.86 389.22 427.226 392.126 426.934C404.642 425.679 416.277 424.137 427.75 418.516C444.618 410.251 445.456 392.355 446.474 375.214L446.842 371.983L447.047 356.024L447.291 354.183L447.248 336.204L447.353 333.308L446.995 291.163L446.699 283.871C446.763 282.935 446.644 282.069 446.545 281.141C446.914 276.812 445.575 271.33 444.745 267.125C443.872 263.949 443.18 260.788 441.892 257.738C441.845 256.889 441.004 255.447 440.635 254.68C429.214 230.898 409.756 231.912 386.044 231.956L359.582 232.141L335.655 231.938L315.363 231.473L156.01 233.274C153.104 233.652 149.837 233.354 146.893 233.274L132.634 233.273L123.405 233.272L115.354 233.258C111.265 233.012 107.085 233.241 102.985 233.251L75.8751 233.247L45.5287 231.868C41.33 231.638 21.4792 230.108 18.2898 227.814L18.2989 322.227C18.2946 325.061 17.9252 327.83 17.8586 330.651L17.7938 350.338C17.7686 386.173 17.768 411.21 58.4235 423.265Z"/>
	<path fill="#B8B8FF" d="M41.4802 176.821L48.875 172.827C49.069 175.076 47.6153 175.279 45.7386 176.07L45.4715 176.143C44.3027 176.541 43.3096 177.664 41.9769 177.371L41.4802 176.821Z"/>
	<path fill="#EA586C" d="M476.913 80.3049L487.358 94.6622L477.802 95.4198C475.023 95.6728 463.886 97.3214 462.084 95.8851C461.651 94.656 461.509 93.8876 460.519 93.0014C461.237 91.6101 473.853 83.3783 476.913 80.3049Z"/>
	<path fill="#9381FF" d="M45.7386 176.07L72.5151 175.905L72.5366 191.009C72.5536 194.882 72.4961 198.868 73.1454 202.695C74.127 208.481 73.6539 214.849 73.7758 220.719C56.9 220.283 40.1244 219.824 23.7851 215.068C22.3152 214.641 19.8919 214.301 18.6895 213.471C19.3913 197.635 26.7669 183.409 41.4458 176.819L41.4802 176.821L41.9769 177.371C43.3096 177.664 44.3027 176.541 45.4715 176.143L45.7386 176.07Z"/>
	<path fill="#F66479" d="M460.519 93.0014C458.407 92.1431 456.97 93.03 454.834 93.6251L446.709 95.9365C442.547 97.2186 438.034 98.7601 433.625 98.2824C415.556 96.3248 419.577 59.8515 420.87 46.7891L422.263 33C422.47 31.5185 422.639 29.3762 423.875 28.4272C436.104 31.067 469.271 70.6516 476.913 80.3049C473.853 83.3783 461.237 91.6101 460.519 93.0014Z"/>
	<defs>
		<linearGradient id="gradient_0" gradientUnits="userSpaceOnUse" x1="173.853" y1="170.10201" x2="285.99399" y2="471.48401">
			<stop offset="0" stop-color="#7D69FE"/>
			<stop offset="1" stop-color="#C2C8FF"/>
		</linearGradient>
	</defs>
	<path fill="url(#gradient_0)" d="M58.4235 423.265C17.768 411.21 17.7686 386.173 17.7938 350.338L17.8586 330.651C17.9252 327.83 18.2946 325.061 18.2989 322.227L18.2898 227.814C21.4792 230.108 41.33 231.638 45.5287 231.868L75.8751 233.247L102.985 233.251C107.085 233.241 111.265 233.012 115.354 233.258L123.405 233.272L132.634 233.273L146.893 233.274C149.837 233.354 153.104 233.652 156.01 233.274L315.363 231.473L335.655 231.938L359.582 232.141L386.044 231.956C409.756 231.912 429.214 230.898 440.635 254.68C441.004 255.447 441.845 256.889 441.892 257.738C443.18 260.788 443.872 263.949 444.745 267.125C445.575 271.33 446.914 276.812 446.545 281.141C446.644 282.069 446.763 282.935 446.699 283.871L446.995 291.163L447.353 333.308L447.248 336.204L447.291 354.183L447.047 356.024L446.842 371.983L446.474 375.214C445.456 392.355 444.618 410.251 427.75 418.516C416.277 424.137 404.642 425.679 392.126 426.934C389.22 427.226 385.626 426.86 382.821 427.503L349.04 427.201L320.197 427.175L311.919 427.197C311.44 427.441 306.246 427.193 305.201 427.195L271.465 427.171L259.669 427.197L91.4464 428.048C79.9871 428.281 69.444 426.171 58.4235 423.265ZM376.822 327.248L376.79 326.793C377.46 326.969 378.065 326.953 378.75 326.939L378.751 326.749C376.724 325.317 375.981 322.436 374.559 320.344L368.915 313.246C363.787 313.666 361.856 312.95 357.964 309.639C366.805 299.215 370.632 302.992 369.211 300.375C367.169 300.4 366.43 299.651 365.55 297.728L365.46 297.519L365.758 297.431C366.821 297.004 367.931 295.877 368.857 295.175C368.266 288.33 369.757 285.058 361.888 280.8C343.953 271.096 318.03 278.46 303.831 291.592C285.343 308.691 280.119 341.6 302.516 357.944L302.884 358.215C305.364 360.027 308.238 361.421 311 362.745C337.764 375.57 356.098 372.32 378.281 351.91C379.883 350.436 381.999 349.258 383.306 347.5C386.027 343.841 388.286 340.396 391.519 337.129C395.729 332.872 398.337 329.174 392.875 324.536C388.418 323.572 382.465 330.123 376.822 327.248ZM92.9501 285.929C92.0314 286.368 90.9658 286.766 90.1815 287.419C90.7868 289.773 89.4986 293.117 91.4878 294.803L91.3252 295.004C90.2318 296.298 88.6586 297.152 87.2097 297.997L89.6122 300.946C89.1749 304.296 91.5462 323.354 92.5517 325.566L91.9391 326.745C92.7596 331.482 92.2794 336.686 92.466 341.5C92.6543 346.36 93.3893 351.168 93.4648 356.04L93.6022 364.93C93.6458 366.76 93.5753 368.683 94.089 370.456L94.2166 370.875C94.9513 373.353 97.3716 374.005 99.6383 374.572C106.486 372.571 104.566 363.926 104.531 358.396L104.392 338.753C122.987 339.033 148.731 340.324 159.771 321.805C171.735 301.734 155.356 281.401 135.562 276.305C117.595 271.68 107.259 277.546 92.9501 285.929ZM204.042 312.24C204.118 313.223 204.019 316.207 204.5 316.867L204.72 316.848C206.348 316.749 207.362 317.856 208.49 318.886C215.04 324.869 241.535 354.759 247.963 355.728L248.179 355.369C248.47 354.894 248.339 355.076 248.657 354.698C252.28 358.672 255.868 362.65 260.481 365.493C263.629 364.739 267.266 362.134 269.819 360.163C268.882 354.965 268.099 349.533 267.887 344.25L267.734 302.135C267.735 297.43 269.739 279.522 263.75 277.581C260.447 278.353 254.301 282.579 254.333 286.412L254.6 326.469L256.351 343.534L247.467 330.502C238.119 316.93 212.77 283.458 200.11 278.035C196.589 279.101 193.224 280.847 191.334 284.167L190.91 284.877C190.559 285.595 190.51 286.585 190.488 287.375L190.462 365.944C190.54 377.196 200.204 376.545 202.758 370.778L202.875 370.5C204.193 367.649 203.704 364.61 203.687 361.566L204.042 312.24ZM128.928 242.146C129.337 241.628 129.712 241.392 130.289 241.09L130.5 240.984C131.048 239.58 129.425 237.486 128.179 237.027L109.803 246.784C106.704 248.37 103.171 249.854 100.368 251.9C103.972 251.37 107.747 248.97 111.25 247.805L123.444 243.881C125.245 243.307 127.195 242.884 128.928 242.146ZM132.634 233.258C131.688 234.445 128.653 236.142 128.179 237.027C129.425 237.486 131.048 239.58 130.5 240.984L130.289 241.09C129.712 241.392 129.337 241.628 128.928 242.146C132.997 241.49 137.187 239.284 140.796 237.364L139.5 237.461C138.811 237.403 139.079 237.322 138.562 237.688L138.616 237C138.059 231.349 140.973 233.432 146.893 233.274L132.634 233.258ZM250.654 236.361L236.309 246.006C234.47 247.18 231.769 248.203 230.231 249.688C234.121 248.452 248.364 242.818 252.033 240.767L252.068 240.367C250.523 241.11 251.535 240.402 251.985 239.745L251.751 238.751C252.316 238.749 252.584 238.422 252.977 238.032L253.125 237.877C256.735 237.185 252.79 237.448 252.393 237.429L252.494 237.002C251.896 236.928 251.4 236.805 250.812 237.001L250.654 236.361ZM110.959 236.8L87.8031 247.724C90.5283 247.268 92.9813 245.853 95.5399 244.864L104.045 241.916C106.731 240.884 109.3 239.527 112.025 238.606C112.097 238.039 111.912 237.656 111.735 237.125L110.959 236.8ZM146.893 233.298C140.973 233.432 138.059 231.349 138.616 237L138.562 237.688C139.079 237.322 138.811 237.403 139.5 237.461L140.796 237.364C143.575 236.296 155.568 233.806 156.01 233.274C153.104 233.652 149.837 233.354 146.893 233.298Z"/>
	<path fill="#B8B8FF" d="M115.354 233.446L123.405 233.272C121.926 235.667 114.664 238.508 112.025 238.606C112.097 238.039 111.912 237.656 111.735 237.125L110.959 236.8L112.125 235.906C113.337 235.205 115.938 233.434 117.188 234.501L116.5 235C115.773 235.199 116.478 235.069 115.725 235.195L115.375 235.25C116.436 235.963 117.205 236.465 118.312 236.001L118.75 235.875C119.601 235.488 120.361 234.665 121.16 234.341L122.125 233.75C120.143 233.757 117.45 234.062 115.568 233.517L115.354 233.446Z"/>
	<path fill="#9381FF" d="M393.427 246.28C397.912 246.469 402.035 247.807 405.955 250.02C402.285 250.058 393.028 249.235 390.605 246.974C391.541 246.618 392.439 246.438 393.427 246.28Z"/>
	<path fill="#B8B8FF" d="M288.089 367.125L288.373 367.625C288.712 367.513 288.496 367.554 289.031 367.625L263.003 383.625L261.875 383.725C262.537 382.592 264.739 381.574 265.872 380.882L288.089 367.125Z"/>
	<path fill="#B8B8FF" d="M226.232 374.625C226.712 374.49 226.979 374.513 227.469 374.549L227.59 375.016C225.72 376.578 223.016 377.59 220.941 379.013C216.665 381.946 212.723 385.447 208.365 388.243L207.501 388C211.323 384.029 221.491 375.877 226.232 374.625Z"/>
	<path fill="#B8B8FF" d="M250.654 236.361C251.721 235.422 252.085 234.726 253.61 234.424L253.375 233.788C254.498 233.891 255.596 233.94 256.61 234.479L259.541 236.031L263.131 236.419L252.033 240.767L252.068 240.367C250.523 241.11 251.535 240.402 251.985 239.745L251.751 238.751C252.316 238.749 252.584 238.422 252.977 238.032L253.125 237.877C256.735 237.185 252.79 237.448 252.393 237.429L252.494 237.002C251.896 236.928 251.4 236.805 250.812 237.001L250.654 236.361Z"/>
	<path fill="#B8B8FF" d="M25.6017 316.103L29.9761 315.909L21.8378 321.667L18.3529 323.68L18.5118 316.585C20.6612 316.096 23.3612 316.285 25.6017 316.103Z"/>
	<path fill="#B8B8FF" d="M446.995 291.163L446.877 293.125C442.302 292.03 434.32 298.572 429.169 299.995C432.58 296.717 437.12 294.847 440.897 292.05C442.458 290.895 443.687 289.001 445.473 288.242L446.439 286.5C446.361 285.477 446.357 284.85 446.699 283.871L446.995 291.163Z"/>
	<path fill="#F8F7FF" d="M447.047 356.024C443.233 357.601 439.833 359.784 436.25 361.786L424.75 368.266C421.682 370.159 418.875 372.462 415.533 373.86L415.731 373.63C417.963 371.239 421.301 369.103 424.053 367.314L441.246 356.935C442.601 356.047 445.148 353.606 446.704 353.575L447.115 354.183L447.047 356.024Z"/>
	<defs>
		<linearGradient id="gradient_1" gradientUnits="userSpaceOnUse" x1="275.47601" y1="425.06799" x2="260.55801" y2="422.71399">
			<stop offset="0" stop-color="#B9BCFF"/>
			<stop offset="1" stop-color="#DAE9FF"/>
		</linearGradient>
	</defs>
	<path fill="url(#gradient_1)" d="M277.083 419.132L276.95 419.309C276.075 420.45 274.855 420.327 274.499 421.749L274.428 422.013C274.288 422.707 274.366 423.543 274.375 424.25L274.561 424.5C274.613 425.419 274.555 425.696 275.25 426.377L275.623 426.75C274.421 427.23 272.782 426.771 271.465 427.042L259.669 427.197C258.365 426.149 262.026 424.19 262.761 423.708C262.808 423.889 262.793 423.774 262.724 424.077L262.66 424.344C269.812 424.539 270.512 422.253 276.637 419.341L277.083 419.132Z"/>
	<path fill="#B8B8FF" d="M446.474 375.214C442.617 376.211 431.892 381.957 428.5 383.96C424.456 386.347 419.54 390.316 415.123 391.75L415.375 391.623C418.109 389.42 420.695 387.626 423.625 385.655L429.741 381.479C432.07 380.05 434.583 378.931 436.873 377.437C439.562 375.683 442.948 371.465 446.125 371.123L446.634 371.983L446.474 375.214Z"/>
	<path fill="#F8F7FF" d="M447.285 333.308L447.248 336.204C445.874 337.296 444.009 337.909 442.44 338.697L429.816 344.829C423.568 347.787 417.394 351.506 410.836 353.669C413.09 350.83 417.333 349.058 420.494 347.436L441 337.474C443.257 336.273 445.259 334.857 447.285 333.308Z"/>
	<path fill="#F8F7FF" d="M444.292 320.125C444.665 320.026 444.992 320.041 445.375 320.038L445.512 320.5C443.132 324.356 421.706 333.017 416.301 335.711C413.466 337.124 410.907 338.944 408.125 340.352L407.323 340.311C408.719 338.893 410.147 337.207 411.824 336.13L412.173 335.915C414.955 334.177 417.974 332.848 420.908 331.389L436 323.999C438.72 322.694 441.398 320.982 444.292 320.125Z"/>
	<defs>
		<linearGradient id="gradient_2" gradientUnits="userSpaceOnUse" x1="331.12299" y1="414.276" x2="334.54401" y2="422.121">
			<stop offset="0" stop-color="#FFFFFC"/>
			<stop offset="1" stop-color="#AAB5FF"/>
		</linearGradient>
	</defs>
	<path fill="url(#gradient_2)" d="M311.919 427.197L311.585 426.75C312.328 424.525 316.867 422.548 318.824 421.587C330.537 415.836 341.969 408.699 354.25 404.225L354.628 404.083C357.564 403.091 353.998 404.898 353.29 405.286L321.267 423.096L323.375 422.5L323.5 423.125C323.922 423.757 323.785 424.406 324.373 425L324.127 425.625C325.881 427.39 321.294 426.594 320.197 426.999L311.919 427.197Z"/>
	<path fill="#F8F7FF" d="M262.761 423.708C264.579 422.827 266.324 421.533 268.079 420.509L299.558 402.14L316.75 393.495C321.154 391.251 325.42 388.573 329.959 386.631C329.468 387.202 328.87 387.502 328.24 387.89L282.117 415.958C280.577 416.92 278.763 417.797 277.351 418.915L277.083 419.132L276.637 419.341C270.512 422.253 269.812 424.539 262.66 424.344L262.724 424.077C262.793 423.774 262.808 423.889 262.761 423.708Z"/>
	<path fill="#F8F7FF" d="M125.933 386.905L125.977 386.824C128.076 385.579 130.407 383.876 132.75 383.21L133.125 383.623C132.36 384.668 131.01 385.314 129.958 386.064C128.569 386.662 127.343 387.672 126.075 388.502C117.427 394.55 108.129 399.307 98.9425 404.443C92.9978 407.767 71.8093 421.286 65.875 420.377L64.6196 420.494C65.1877 420.184 65.5112 420.004 65.8311 419.412L125.933 386.905Z"/>
	<path fill="#B8B8FF" d="M441.892 257.738C443.18 260.788 443.872 263.949 444.745 267.125C445.575 271.33 446.914 276.812 446.545 281.141L446.312 283.499C446.094 282.013 445.889 279.827 445.98 278.306L445.438 278.749L445 278.811C444.901 278.826 441.409 279.069 440.986 279.086L440.25 279.119C437.79 279.848 435.376 281.348 432.895 281.916L429.625 282.613C426.558 283.425 419.272 284.033 417.132 280.875L417.625 280.627C417.855 281.313 418.047 281.572 418.75 281.189L420.375 280.377L421.25 280.5L423.375 279.627C422.701 278.94 421.561 279.163 421.062 278.501C421.691 278.252 423.132 278.786 423.723 279.182L425 280.127C427.054 281.62 428.74 281.091 431.125 280.377L431.375 280.127C431.711 280.07 431.988 280.016 432.301 279.876L432.875 279.627C433.417 279.333 433.911 279.231 434.465 278.978L437.25 277.877C438.348 277.535 439.301 277.127 440.294 276.525L440.751 276.251C441.603 275.895 442.251 274.973 443 274.377L443.5 274.689C444.082 274.34 444.48 274.652 445.125 274.75C445.678 273.927 445.303 272.176 445.106 271.238L444.5 267.875C444.162 267.877 443.843 267.879 443.508 267.827L443.287 267.787C442.402 268.622 441.005 268.783 439.875 269.106L431.25 271.978C426.474 273.646 421.92 276.034 418.203 279.498L417.938 279.749C414.414 280.489 413.404 278.43 409.794 276.925C417.428 273.701 424.602 269.142 432.459 266.408C434.118 265.831 435.523 265.462 437.062 264.602L437.251 264.501C437.461 263.446 438.985 262.493 439.891 262.041L440.25 261.877C441.067 261.474 441.783 261.406 442.625 261.127L442.501 260.938C442.5 260.542 442.411 260.36 442.25 260L442 259.125C441.847 258.516 441.817 258.388 441.892 257.738Z"/>
	<path fill="#B8B8FF" d="M388.218 244.866C389.906 243.732 391.738 242.64 393.277 241.311C385.362 235.922 375.23 240.182 367.282 242.941L344.481 250.724C340.728 251.925 336.939 252.568 333.121 253.465L325.019 255.802C322.598 256.509 318.04 257.147 315.959 258.207L315.644 258.152C315.137 258.095 315.069 258.229 314.625 258.377L314.001 258.501C313.214 258.645 312.403 258.918 311.625 259.127L310.251 259.501C309.46 259.716 308.665 259.914 307.875 260.127L307.501 260.251C307.172 260.34 306.89 260.392 306.562 260.501L303.869 261.384C303.535 261.495 303.22 261.566 302.875 261.627L302.625 261.877C302.085 261.984 301.583 262.078 301.062 262.251L299.665 262.572C297.862 262.936 303.424 260.525 303.75 260.373L305.117 259.811C305.467 259.635 305.643 259.599 305.999 259.499L307.124 259.132C307.693 258.942 308.166 258.663 308.749 258.499L316.504 255.806C318.342 254.773 321.498 254.392 323.57 253.774C331.529 251.401 339.082 248.723 346.684 245.375C352.271 242.915 357.854 239.826 363.586 237.792C364.223 237.566 365.313 237.174 365.877 236.875L367.648 236.327C369.578 235.936 371.124 235.843 373.125 235.877L373.625 236.347L376.75 236.625L377.625 236.627L379.499 238.001C379.499 238.322 379.267 238.453 379.062 238.688C380.775 238.775 382.395 238.484 384.125 238.5L384.5 238.75C386.484 238.618 388.676 239.02 390.562 239.688L390.887 239.77C392.587 240.233 394.397 241.353 392.125 242.75L390.938 243.508C390.339 243.986 389.724 244.263 389.124 244.812L389.58 245.293C390.371 245.436 390.644 245.599 391.25 246.127C392.066 246.227 392.708 245.946 393.408 246.173L393.427 246.28C392.439 246.438 391.541 246.618 390.605 246.974C380.112 250.964 371.985 258.777 360.485 260.714L388.218 244.866Z"/>
	<path fill="#B8B8FF" d="M315.363 231.728L335.655 231.938L359.582 232.141C357.144 233.275 355.131 234.516 352.79 235.67L334.603 242.847C332.901 243.414 331.173 243.847 329.5 244.509L321.138 247.934C320.181 248.293 319.285 248.833 318.251 248.912L318.032 248.625C320.201 246.266 325.917 244.052 328.78 242.673C331.464 241.381 343.077 232.394 346 235.11L345.312 235.286L347.562 235.626L349 235.627C349.473 235.312 349.469 235.377 350 235.377L350.375 235.627C351.144 235.481 351.584 235.267 352.25 234.877L352.001 232.999C351.938 232.722 351.911 232.55 351.75 232.311L351.375 232.58C350.386 231.675 341.324 232.235 339.75 232.237L339 232.24C337.846 232.362 336.804 232.359 335.642 232.322L335.125 233.5C335.641 233.844 335.883 233.774 336.488 233.812C332.721 234.489 335.009 233.105 330.634 235.485L305.361 246.67C298.47 249.538 281.057 257.856 273.911 256.033C271.982 256.031 269.975 255.57 268.108 255.102C269.882 254.654 271.757 254.538 273.556 254.175C280.601 252.753 286.697 249.042 293.249 246.314L298.25 243.245C302.742 240.224 314.204 236.953 316.158 233.047L316.251 232.812C316.4 232.495 316.502 232.421 316.5 232.061L313.04 231.938C313.693 231.724 314.662 231.772 315.363 231.728Z"/>
	<path fill="#262528" d="M204.042 312.24L203.816 311.87C204.335 309.201 202.819 301.738 204.354 299.787L204.875 299.753C207.957 302.716 210.599 306.247 213.39 309.487L235.709 337.272C239.919 342.975 243.785 349.559 248.657 354.698C248.339 355.076 248.47 354.894 248.179 355.369L247.963 355.728C241.535 354.759 215.04 324.869 208.49 318.886C207.362 317.856 206.348 316.749 204.72 316.848L204.5 316.867C204.019 316.207 204.118 313.223 204.042 312.24Z"/>
	<path fill="#B8B8FF" d="M89.6122 300.946C94.6813 308.046 95.0005 317.349 92.5517 325.566C91.5462 323.354 89.1749 304.296 89.6122 300.946Z"/>
	<path fill="#B8B8FF" d="M91.4878 294.803C89.4986 293.117 90.7868 289.773 90.1815 287.419C90.9658 286.766 92.0314 286.368 92.9501 285.929C99.4316 287.189 103.751 287.81 100.317 294.778L98.211 297.325C97.3044 296.341 96.6299 295.769 95.375 295.246L94.9449 295.061C93.9355 294.634 92.3362 293.844 91.4878 294.803Z"/>
	<path fill="#9381FF" d="M117.021 288.124C125.011 287.415 133.784 288.356 140.875 292.302C158.043 301.854 151.365 320.183 134.94 324.673C124.734 327.43 114.067 326.135 103.714 327.857L103.493 312.919C103.494 306.107 103.517 299.651 104.685 292.91C107.918 289.256 112.41 288.589 117.021 288.124Z"/>
	<path fill="#B8B8FF" d="M368.623 337.383C374.479 336.625 375.156 337.015 369.751 340.917C369.785 340.546 369.709 340.268 370 340L370.376 339.688C369.434 339.31 369.08 338.265 368.623 337.383Z"/>
	<path fill="#9381FF" d="M369.751 340.917C362.296 348.368 354.506 355.169 343.999 357.726C312.724 365.338 289.283 334.515 308.299 305.612C312.944 298.553 319.393 294.617 327.585 293.079C345.652 289.688 348.169 288.12 365.46 297.519L365.55 297.728C366.43 299.651 367.169 300.4 369.211 300.375C370.632 302.992 366.805 299.215 357.964 309.639C361.856 312.95 363.787 313.666 368.915 313.246L374.559 320.344C375.981 322.436 376.724 325.317 378.751 326.749L378.75 326.939C378.065 326.953 377.46 326.969 376.79 326.793L376.822 327.248L364.822 326.448C362.077 326.185 359.484 325.994 356.937 324.828L356.591 324.672C352.416 322.739 351.905 316.07 343.75 318.192L343.389 318.278C332.978 320.836 338.176 334.777 350.164 336.215C354.248 336.705 365.504 335.902 368.623 337.383C369.08 338.265 369.434 339.31 370.376 339.688L370 340C369.709 340.268 369.785 340.546 369.751 340.917Z"/>
	<path fill="#262528" d="M244.125 59.1009C259.308 58.0129 255.728 69.072 248.528 69.7771C244.992 70.1233 241.142 69.7583 237.57 69.7532L150.688 70.2684L150.579 70.4972C148.395 70.6668 145.306 71.1628 143.199 70.66C137.746 69.3595 142.41 62.8462 146.289 61.0216L146.608 60.875C151.91 58.3916 159.602 59.8822 165.353 59.6494L244.125 59.1009Z"/>
	<path fill="#262528" d="M345.818 97.6684L346.474 97.587C359.349 96.7382 355.543 108.144 348.255 108.863C345.706 109.114 343.062 108.997 340.5 108.998L160.791 109.097C157.435 109.169 154.174 109.81 150.813 109.89L146.164 109.965C141.747 107.76 140.669 101.855 145.708 99.4352L146.125 99.2462C150.351 97.1376 160.55 98.1955 165.392 98.1913L345.818 97.6684Z"/>
	<path fill="#262528" d="M405.421 134.297C407.737 133.977 408.788 134.391 409.91 136.688L410.056 137C415.486 148.187 376.765 147.087 371.693 147.254L314.365 147.874C312.514 147.974 310.656 148.256 308.805 148.265L181.685 148.357C179.421 148.411 177.24 148.781 175 148.918L147.721 149.587C144.764 149.837 141.858 148.624 141.735 145.138L141.734 144.875C141.673 137.909 151.686 138.574 155.966 138.566L170.74 138.533C174.354 138.519 177.848 138.064 181.426 137.944L354.917 137.871C372.133 137.866 388.503 137.795 405.421 134.297Z"/>
	<path fill="#262528" d="M415.053 176.352C420.451 175.687 423.976 181.781 420.42 186.138C417.601 189.592 413.391 188.791 409.453 188.757L166.883 188.824L149.693 190.122C141.725 190.691 136.389 178.83 154.42 177.798L383.825 177.546C394.26 177.543 404.706 177.919 415.053 176.352Z"/>
</svg>
