<?xml version="1.0" encoding="utf-8" ?>
<svg xmlns="http://www.w3.org/2000/svg" xmlns:xlink="http://www.w3.org/1999/xlink" width="512" height="512">
	<defs>
		<linearGradient id="gradient_0" gradientUnits="userSpaceOnUse" x1="195.007" y1="83.0196" x2="207" y2="82.941002">
			<stop offset="0" stop-color="#8E7FBB"/>
			<stop offset="1" stop-color="#BFBAF3"/>
		</linearGradient>
	</defs>
	<path fill="url(#gradient_0)" d="M193.362 81.8688C194.712 81.31 196.091 81.0977 197.519 80.8312C199.32 81.9275 208.24 82.3722 208.463 83.1717L207.292 83.5625C206.649 83.7173 203.384 84.2758 203.051 84.6598C202.029 84.7552 201.068 85.1335 200.098 85.4534C197.754 84.3392 195.582 83.221 193.362 81.8688Z"/>
	<path fill="#9381FF" d="M156.394 99.8428L157.625 99.2749C161.645 97.3655 171.062 75.7614 179.991 94.7623C178.482 97.8348 172.627 99.8047 169.818 101.339C168.462 102.08 166.922 101.666 165.426 101.985C164.409 102.202 162.018 102.658 161.214 103.295C159.722 102.052 157.295 101.439 156.394 99.8428Z"/>
	<path fill="#9381FF" d="M85.6949 238.14L134.482 238.072C137.147 238.073 139.876 237.958 142.532 238.15C150.501 238.728 151.767 251.501 140.787 253.023C135.34 253.678 129.625 253.36 124.14 253.364L86.0476 253.737C76.1244 254.563 75.5406 238.804 85.6949 238.14Z"/>
	<path fill="#4C3A6F" d="M109.112 361.129L130.429 361.096C132.837 361.091 139.581 360.55 141.367 361.527L141.625 361.675C149.24 365.61 147.223 376.78 138.802 377.704C136.126 377.998 133.276 377.799 130.58 377.793L115.377 377.75L95.2011 377.742C89.052 377.736 77.6174 378.88 77.2918 369.375C77.1794 366.095 80.7059 362.245 83.807 361.428C86.3279 360.763 89.8671 361.159 92.4936 361.153L109.112 361.129Z"/>
	<path fill="#4C3A6F" d="M136.622 317.606L148.664 317.571C167.925 317.556 161.68 333.164 154.372 334.306C152.542 334.593 150.452 334.434 148.593 334.434L102.625 334.412L91.3378 334.423C89.0994 334.42 86.1591 334.765 84.0705 333.889L83.75 333.747C80.4485 332.389 77.75 329.359 77.745 325.637C77.7353 318.522 84.9246 317.901 90.3196 317.714L136.622 317.606Z"/>
	<path fill="#4C3A6F" d="M378.139 212.42C381.623 211.981 386.431 211.207 389.159 213.79C394.041 218.414 393.544 228.468 385.916 229.903C383.621 230.335 381.025 230.178 378.687 230.187L320.885 230.246C307.558 232.543 302.999 218.895 311.37 213.823L311.658 213.651C314.181 212.032 317.61 212.617 320.471 212.612L378.139 212.42Z"/>
	<path fill="#4C3A6F" d="M162.657 277.631C164.794 277.263 167.284 277.043 169.299 277.918L169.625 278.069C172.337 279.285 174.788 282.625 174.879 285.571C175.17 294.994 166.19 294.786 160.061 294.754L91.4768 294.738C88.9387 294.748 85.0819 295.245 82.7142 294.399C79.6932 293.318 78.0304 286.222 79.1337 283.601L79.2917 283.25C82.0444 276.874 88.9047 277.758 94.6032 277.748L162.657 277.631Z"/>
	<path fill="#9381FF" d="M44.7498 125.786C47.5089 125.71 50.72 127.845 51.9872 130.18L52.4068 130.983C52.7762 131.806 52.877 132.726 52.8732 133.62L51.863 162.502C51.7897 164.256 51.48 166.009 51.4392 167.75L50.966 240.997C51.0454 247.125 53.7193 255.307 45.9144 257.513C43.4452 257.797 39.8645 256.463 38.7707 254.143C38.2565 248.205 38.6266 241.879 38.6097 235.899L38.205 207.375C38.1595 204.803 37.4837 202.362 37.4133 199.822L37.2731 142.337C37.2756 134.782 35.8382 128.537 44.7498 125.786Z"/>
	<path fill="#4C3A6F" d="M381.721 259.997C385.602 259.463 388.818 260.408 390.925 264.082L391.1 264.403C394.379 270.318 391.464 276.385 384.982 277.522C381.64 278.108 377.885 277.855 374.469 278.099L349.375 279.721L309 280.912C307.099 280.985 305.224 281.354 303.325 281.406L273.678 282.032C272.034 282.115 270.387 282.413 268.75 282.447L208.296 282.929L205.742 282.692C197.852 281.435 195.049 271.35 202.893 266.548L203.226 266.348C205.122 265.185 208.306 265.278 210.502 265.188L251.677 265.04L285.365 263.939C287.648 263.876 289.937 263.434 292.189 263.4L309.691 263.273C311.787 263.2 313.81 262.731 315.875 262.642C322.474 262.355 329.311 262.952 335.859 261.967C337.73 261.686 339.712 261.793 341.606 261.78L352.711 261.654C354.317 261.59 355.897 261.286 357.5 261.21L381.721 259.997Z"/>
	<path fill="#9381FF" d="M321.511 30.6963C313.266 29.6181 304.699 29.6646 296.375 29.1448L242.831 29.0643C240.61 29.1344 238.436 29.6078 236.25 29.6896L222.11 29.8531L174.642 31.8854L114.623 35.8617L83.75 40.2375C63.7452 43.6157 57.2467 43.3256 54.449 66.25C53.8294 71.3278 53.3043 76.3916 53.2847 81.5108L53.2677 88.0084C53.2201 97.6852 40.6994 96.4422 38.8298 89.3051C37.936 85.8926 38.2438 81.4913 38.236 77.9676L38.5627 63.25C38.9037 54.9726 38.7917 45.3158 43.5181 38.1137L43.7608 37.75C49.6273 28.8118 62.6295 26.6364 72.25 24.6768C86.4461 21.7851 100.889 20.1226 115.294 18.6647L152.83 15.2774L210.336 12.4701C212.284 12.3347 214.179 11.9871 216.142 11.9165L289.401 11.4819C298.057 11.8954 307.056 12.5735 315.539 14.3617L323.769 16.3891C325.768 16.9644 327.532 17.7048 329.628 17.8932L330.054 17.9291C322.935 18.3045 322.247 24.9556 321.314 30.3323L321.511 30.6963Z"/>
	<path fill="#4C3A6F" d="M193.362 81.8688L193.08 81.6669C189.275 78.8852 191.511 73.6718 195.969 73.2005C213.329 71.3654 229.51 74.6402 245.051 82.6427C272.825 96.9438 291.08 122.017 293.414 153.923C298.105 218.047 230.051 258.549 174.224 228.787C131.963 206.257 120.758 155.904 142.168 115.17C144.633 110.481 148.928 101.979 154.5 100.261C155.132 100.066 155.772 100.086 156.394 99.8428C157.295 101.439 159.722 102.052 161.214 103.295C162.898 105.459 161.928 106.431 160.701 108.707L153.568 122.066C141.795 148.009 144.965 182.095 166.554 202.165C221.048 251.287 298.388 197.868 274.293 130.832C266.227 108.392 248.461 90.9375 225.209 85.0382C223.749 84.6676 217.708 83.8019 217.076 83.1937C217.051 82.5327 217.084 82.1598 216.75 81.5643C210.219 80.7348 204.097 80.4022 197.519 80.7937C196.091 81.0977 194.712 81.31 193.362 81.8688Z"/>
	<defs>
		<linearGradient id="gradient_1" gradientUnits="userSpaceOnUse" x1="273.00101" y1="181.164" x2="179.713" y2="137.006">
			<stop offset="0" stop-color="#ADB0FF"/>
			<stop offset="1" stop-color="#E7ECFC"/>
		</linearGradient>
	</defs>
	<path fill="url(#gradient_1)" d="M197.519 80.8312C204.097 80.4022 210.219 80.7348 216.75 81.5643C217.084 82.1598 217.051 82.5327 217.076 83.1937C217.708 83.8019 223.749 84.6676 225.209 85.0382C248.461 90.9375 266.227 108.392 274.293 130.832C298.388 197.868 221.048 251.287 166.554 202.165C144.965 182.095 141.795 148.009 153.568 122.066L160.701 108.707C161.928 106.431 162.898 105.459 161.214 103.295C162.018 102.658 164.409 102.202 165.426 101.985C166.922 101.666 168.462 102.08 169.818 101.339C172.627 99.8047 178.482 97.8348 179.991 94.7623C180.346 100.336 192.135 102.951 196.638 102.71L199.986 103.086L203.567 101.897C204.89 100.823 210.233 100.346 211.949 100.044L212.582 99.6154C214.566 99.663 214.871 98.2907 215.713 96.9546L215.843 96.75C214.813 95.7618 213.313 95.4743 212.146 94.7038L211.75 94.4387C208.232 92.2576 207.369 90.4457 209.532 86.9007L209.681 86.6631C209.574 85.4881 208.196 84.2425 207.292 83.5625L208.463 83.1717C208.24 82.3722 199.32 81.9275 197.519 80.8312ZM206.28 107.833C200.909 109.139 194.335 111.287 189.921 114.65C175.513 131.734 180.545 150.648 200.196 160.765L200.196 160.845L199.95 161.5C200.976 163.424 203.026 163.648 203.713 165.997L206.742 164.832L206.783 164.842C208.327 164.357 209.407 164.223 210.495 162.933C252.077 164.175 256.79 115.937 220.002 107.182C215.452 106.1 210.762 106.677 206.28 107.833ZM210.796 172.041L206.844 172.326L201.858 172.867C192.793 174.511 185.442 176.049 177.762 181.661C178.41 181.747 179.032 181.833 179.688 181.812L179.825 181.975C180.286 182.402 181.948 183.059 182.573 183.015L184.423 182.687C184.814 182.645 185.098 182.719 185.472 182.815L186.336 182.124L188.932 182.715C190.352 182.979 192.595 182.864 193.75 183.375C193.541 185.584 191.358 187.134 191.689 189.5L192.125 189.052C193.34 182.823 197.893 182.543 203.356 182.688L213.797 183.029C217.128 183.084 220.649 182.598 223.928 183.103C222.364 181.238 221.149 179.284 219.717 177.344L219.448 177.002C218.658 175.963 217.833 175.414 216.75 174.721L218.6 173.138C219.365 172.413 219.372 172.47 219.404 171.479C216.625 171.82 213.596 172.129 210.796 172.041Z"/>
	<path fill="#E0165E" d="M227.574 185.568C231.085 188.709 234.877 193.915 228.243 195.902C228.449 194.503 229.629 193.977 230.179 192.732C231.065 190.73 228.307 187.612 227.645 185.775L227.574 185.568Z"/>
	<path fill="#FF316B" d="M192.125 189.052C193.34 182.823 197.893 182.543 203.356 182.688L213.797 183.029C217.128 183.084 220.649 182.598 223.928 183.103C225.15 183.875 226.497 184.599 227.574 185.568L227.645 185.775C228.307 187.612 231.065 190.73 230.179 192.732C229.629 193.977 228.449 194.503 228.243 195.902L227.986 196.017C225.659 196.964 222.52 196.907 220.039 196.928L202.593 196.888C200.657 196.864 198.722 196.928 196.896 196.182L196.5 196.012C193.251 194.643 192.31 192.52 192.125 189.052Z"/>
	<defs>
		<linearGradient id="gradient_2" gradientUnits="userSpaceOnUse" x1="253.30099" y1="139.14101" x2="187.44501" y2="133.651">
			<stop offset="0" stop-color="#3D2F5D"/>
			<stop offset="1" stop-color="#4E3A9D"/>
		</linearGradient>
	</defs>
	<path fill="url(#gradient_2)" d="M211.949 100.044C215.39 100.017 218.734 99.9994 222.136 100.621C259.024 107.359 267.138 159.992 224.497 170.485C222.815 170.899 221.101 171.06 219.404 171.382C216.625 171.82 213.596 172.129 210.796 171.964L206.844 172.326L201.858 172.867C202.462 172.028 202.657 171.327 203.411 170.5L203.127 169.375C202.777 168.422 202.648 167.401 203.282 166.501L203.713 165.997L206.742 164.832L206.783 164.842C208.327 164.357 209.407 164.223 210.495 162.963C252.077 164.175 256.79 115.937 220.002 107.182C215.452 106.1 210.762 106.677 206.28 107.833C200.909 109.139 194.335 111.287 189.921 114.65L189.118 112.394C192.118 108.727 196.056 105.683 199.986 103.086L203.567 101.897C204.89 100.823 210.233 100.346 211.949 100.044Z"/>
	<path fill="#6561C2" d="M205.245 168.708C206.153 170.901 209.152 170.702 210.796 172.041L206.844 172.326C204.574 172.037 204.649 170.834 205.245 168.708Z"/>
	<path fill="#9381FF" d="M201.858 172.867C202.462 172.028 202.657 171.327 203.411 170.5L203.127 169.375C202.777 168.422 202.648 167.401 203.282 166.501C203.725 167.487 204.749 167.805 205.245 168.708C204.649 170.834 204.574 172.037 206.844 172.326L201.858 172.867Z"/>
	<path fill="#6561C2" d="M205.297 162.353L210.495 162.963C209.407 164.223 208.327 164.357 206.783 164.842L206.742 164.832C206.07 164.39 204.992 164.2 204.507 163.625L205.297 162.353Z"/>
	<path fill="#9381FF" d="M200.196 160.845C201.888 161.536 203.502 161.989 205.297 162.353L204.507 163.625C204.992 164.2 206.07 164.39 206.742 164.832L203.713 165.997C203.026 163.648 200.976 163.424 199.95 161.5L200.196 160.845Z"/>
	<path fill="#4C3A6F" d="M216.376 124.261C225.306 123.82 227.217 136.159 219.416 139.584C210.616 141.253 207.5 128.395 216.376 124.261Z"/>
	<path fill="#B8B8FF" d="M179.991 94.7623C180.346 100.336 192.135 102.951 196.638 102.71L199.986 103.086C196.056 105.683 192.118 108.727 189.118 112.394L189.921 114.65C175.513 131.734 180.545 150.648 200.196 160.765L200.196 160.845L199.95 161.5C200.976 163.424 203.026 163.648 203.713 165.997L203.282 166.501C202.648 167.401 202.777 168.422 203.127 169.375L203.411 170.5C202.657 171.327 202.462 172.028 201.858 172.867C192.793 174.511 185.442 176.049 177.762 181.661C171.665 185.508 168.345 193.329 166.833 200.076L166.554 202.165C144.965 182.095 141.795 148.009 153.568 122.066L160.701 108.707C161.928 106.431 162.898 105.459 161.214 103.295C162.018 102.658 164.409 102.202 165.426 101.985C166.922 101.666 168.462 102.08 169.818 101.339C172.627 99.8047 178.482 97.8348 179.991 94.7623Z"/>
	<defs>
		<linearGradient id="gradient_3" gradientUnits="userSpaceOnUse" x1="481.55499" y1="403.61899" x2="87.031097" y2="196.995">
			<stop offset="0" stop-color="#1D1E41"/>
			<stop offset="1" stop-color="#69569E"/>
		</linearGradient>
	</defs>
	<path fill="url(#gradient_3)" d="M330.054 17.9291L330.311 17.9295C332.159 17.9197 334.318 17.949 336.061 17.3318L336.886 17.0527C339.94 18.7069 342.463 21.1018 344.939 23.5094L397.981 76.8853C406.115 85.0515 416.455 94.0063 419.881 105.403L420.386 107.229C421.326 110.656 420.775 115.182 420.74 118.766L419.664 165.345L415.35 246.537L411.163 303.25L438.25 304.931C460.995 307.267 474.849 314.442 474.773 338.725L474.679 393.506C474.626 427.848 470.831 438.193 432.951 440.931C429.498 441.181 426.195 441.544 422.715 441.576L414.323 441.637C412.874 441.646 411.205 441.485 409.782 441.746L411.21 467.768C411.595 492.276 399.337 498.896 376.166 499.573L346.158 499.513C344.267 499.44 342.42 499.077 340.535 498.961L331 498.799C329.54 498.746 328.101 498.476 326.643 498.407L315 498.265C313.318 498.201 311.66 497.906 309.973 497.857L245.241 496.791L156.914 496.359C154.571 496.341 152.265 495.894 149.91 495.846L98.0027 495.768C87.8708 495.759 77.6428 495.777 67.5642 494.576C48.9858 492.362 37.6376 478.624 37.3543 459.875L38.251 416.021L39.2156 346.334L38.6695 294.551C38.6173 292.11 38.2467 289.112 40.125 287.231C45.6185 281.73 50.937 285.237 50.9457 293.249L51.4571 323.335C51.5054 325.276 51.8822 327.184 51.9457 329.125L51.9912 342.835L53.2846 416.202L54.2268 438.109C55.4016 456.493 55.1329 472.252 76.4756 475.625C83.562 476.745 90.8975 476.651 98.0567 476.54L98.7267 476.516C97.6974 475.815 95.5599 475.305 94.2422 474.762C78.2596 468.171 74.1689 459.511 70.4156 443.287C74.0625 443.299 77.8705 442.625 81.5327 442.362L92.7249 441.579C98.1759 441.251 102.718 440.74 108.25 440.597L121.375 440C125.735 439.811 130.084 439.336 134.464 439.137L195.773 436.996C196.989 436.954 198.434 437.243 199.504 436.675C188.682 430.369 186.805 422.813 186.004 411.75L185.263 381.139C185.231 369.196 185.008 357.51 186.121 345.625C186.881 337.506 186.321 323.723 195.747 320.145C199.739 318.629 204.865 322.436 206.036 326.215C206.72 326.223 215.332 322.38 217.638 321.85C219.36 321.455 222.031 321.727 223.501 320.855C216.931 318.943 214.919 310.133 221.956 307.049L222.225 306.933C225.773 305.37 230.372 305.404 234.206 305.039L304.208 299.498L368.787 299.508L396.971 301.331L403.766 110.234L378.5 112.617C371.152 113.298 363.828 113.357 356.456 113.366C338.31 113.386 322.124 107.964 322.887 87.1081L323.07 47.9134C323.081 44.3855 324.603 31.592 321.559 30.6963L321.314 30.3323C322.247 24.9556 322.935 18.3045 330.054 17.9291ZM229.122 320.923L223.501 320.855C222.031 321.727 219.36 321.455 217.638 321.85C215.332 322.38 206.72 326.223 206.036 326.215L204.912 332.184L204.883 332.221C199.984 344.565 201.421 372.257 201.423 385.749L201.434 401.536C201.44 405.867 201.049 411.137 202.309 415.312L202.456 415.75C206.241 427.351 226.314 424.846 236.008 425.243C238.137 425.33 240.25 425.739 242.375 425.789L394.19 426.322C396.098 426.275 397.972 425.938 399.875 425.887L429.591 425.092C438.922 424.501 449.534 424.114 456.248 416.624C459.129 413.41 458.795 410.154 458.808 406.138L458.916 353.747C460.235 329.144 462.382 324.136 433.75 321.179L383.508 317.697L295.13 317.688C291.713 317.753 288.302 318.345 284.952 318.4L244.6 319.556L229.122 320.923Z"/>
	<path fill="#B8B8FF" d="M340.412 48.4671C347.065 53.1444 352.737 59.5974 358.622 65.101L389.669 94.2888L387.27 94.6794C383.242 95.4446 378.946 95.5096 374.86 95.7064L356.718 96.2479C351.192 96.2541 341.083 97.4139 339.507 90.0596L339.446 89.75C338.933 87.2552 339.239 84.2191 339.244 81.6614L340.412 48.4671Z"/>
	<path fill="#B8B8FF" d="M199.504 436.675C207.748 440.266 215.422 439.928 224.245 440.202L265.202 440.665C268.957 440.67 272.891 440.412 276.625 440.687C279.132 440.871 281.517 441.476 284.087 441.529L393.271 441.701L394.522 466.014C394.565 476.804 392.817 481.053 380.924 481.62L362.691 481.65C353.296 481.606 344.632 480.842 335.242 480.618L293.647 478.338L281.597 478.221C276.241 478.179 271.008 477.524 265.652 477.405L245.75 477.298C243.64 477.21 241.541 476.686 239.385 476.61L102.666 476.63C101.407 476.657 99.9709 476.847 98.7267 476.721C97.6974 475.815 95.5599 475.305 94.2422 474.762C78.2596 468.171 74.1689 459.511 70.4156 443.287C74.0625 443.299 77.8705 442.625 81.5327 442.362L92.7249 441.579C98.1759 441.251 102.718 440.74 108.25 440.597L121.375 440C125.735 439.811 130.084 439.336 134.464 439.137L195.773 436.996C196.989 436.954 198.434 437.243 199.504 436.675Z"/>
	<defs>
		<linearGradient id="gradient_4" gradientUnits="userSpaceOnUse" x1="454.832" y1="421.569" x2="206.20599" y2="325.71701">
			<stop offset="0" stop-color="#8073FF"/>
			<stop offset="1" stop-color="#B5B7FF"/>
		</linearGradient>
	</defs>
	<path fill="url(#gradient_4)" d="M229.122 320.923L244.6 319.556L284.952 318.4C288.302 318.345 291.713 317.753 295.13 317.688L383.508 317.697L433.75 321.179C462.382 324.136 460.235 329.144 458.916 353.747L458.808 406.138C458.795 410.154 459.129 413.41 456.248 416.624C449.534 424.114 438.922 424.501 429.591 425.092L399.875 425.887C397.972 425.938 396.098 426.275 394.19 426.322L242.375 425.789C240.25 425.739 238.137 425.33 236.008 425.243C226.314 424.846 206.241 427.351 202.456 415.75L202.309 415.312C201.049 411.137 201.44 405.867 201.434 401.536L201.423 385.749C201.421 372.257 199.984 344.565 204.883 332.221L204.912 332.184L206.036 326.215C206.72 326.223 215.332 322.38 217.638 321.85C219.36 321.455 222.031 321.727 223.501 320.855L229.122 320.923ZM316.757 344.608C314.873 344.723 310.216 344.537 308.642 345.689L310.015 372.971L310.124 393.15C310.137 397.704 309.715 402.834 310.873 407.268L310.941 407.555C311.648 410.351 314.659 413.998 317.904 412.546L318.614 412.136C320.767 410.888 322.043 409.112 322.753 406.75L322.851 406.435C323.888 402.938 323.126 391.694 322.729 387.992C324.336 387.522 326.562 387.722 328.274 387.721C333.455 387.638 338.798 387.768 343.875 386.596C359.393 383.014 368.745 365.334 355.744 353.442C348.092 346.443 336.689 344.809 326.685 344.688L316.757 344.608ZM252.345 343.824C248.403 344.558 246.572 344.953 246.311 349.243C246.071 353.173 246.253 357.225 246.251 361.169L246.278 398.814C246.29 402.8 245.333 410.827 250.231 412.627C257.399 415.26 257.77 404.721 257.789 400.728L257.886 386.631L266.576 386.484C279.72 385.79 299.193 381.674 298.396 364.676C297.486 345.302 266.291 343.346 252.434 343.793L252.345 343.824ZM403.396 344.671L385.181 344.68C378.674 344.69 369.321 343.29 372.692 353.558L372.791 353.868C372.933 354.303 373.089 354.707 373.326 355.099C379.059 355.718 385.424 354.628 390.758 355.363L390.751 387.504C390.753 392.975 390.349 398.829 390.948 404.255C391.13 405.902 391.913 407.185 392.147 408.644L393.412 410.91C396.605 415.508 402.488 411.556 402.711 406.875L402.903 355.259C406.404 355.606 410.896 355.631 414.386 355.188C419.157 354.583 423.629 344.799 409.914 344.687L403.396 344.671Z"/>
	<path fill="#9381FF" d="M257.916 354.784C260.274 355.024 262.671 355.24 264.97 355.253C273.107 355.301 288.543 354.37 286.839 366.541L286.771 367C286.367 369.803 285.064 371.562 283.128 373.528C282.212 374.208 281.376 374.921 280.348 375.437L279 376.045C275.812 377.308 272.503 377.013 269.133 377.019L257.782 377.016L257.916 354.784Z"/>
	<path fill="#9381FF" d="M321.267 355.307C328.753 355.524 343.818 353.217 348.446 361.172L348.585 361.419C351.225 365.962 349.917 370.767 346.423 374.498L345.875 374.988C340.687 379.194 327.907 378.049 321.39 377.362L321.267 355.307Z"/>
</svg>
