<?xml version="1.0" encoding="utf-8" ?>
<svg xmlns="http://www.w3.org/2000/svg" xmlns:xlink="http://www.w3.org/1999/xlink" width="512" height="512">
	<path fill="#2A2C38" d="M155.101 3.95486L307.461 4.42248C309.776 4.47372 311.969 4.97955 314.25 5.0932L347 6.73709C367.946 8.60195 391.744 9.21638 407.705 24.6202L457.379 76.2405C467.307 86.7184 477.658 96.6107 486.881 107.753C498.704 122.037 499.822 127.896 501.795 146.647L504.427 185.607L504.568 211.407C504.624 213.729 505.087 215.967 505.204 218.25L505.715 304.5L505.145 382.75L500.884 457.199C500.307 462.922 499.735 468.548 498.251 474.125C490.485 503.307 462.209 505.423 437.608 505.447L342.375 505.739L178.794 505.738C166.515 505.741 154.463 506.43 142.326 506.399C130.598 506.368 118.779 505.092 109.422 497.107L105.298 493.202C93.7002 480.47 92.3279 453.454 93.2564 436.387C84.758 436.183 76.3187 437.052 67.8727 437.867L59.5864 438.806C21.7555 441.476 12.5281 424.342 10.2352 389.25L9.3324 342.893C9.29563 340.278 8.73469 337.776 8.61708 335.185L8.48138 314.353C8.47779 303.864 7.29198 274.109 14.1325 266.957C17.1332 263.82 22.9814 261.839 27.269 262.023C29.7325 262.128 31.7265 264.015 33.6896 265.337C44.7333 272.775 60.5895 272.043 73.254 272.064L93.7933 271.994L92.6224 107.746L93.2161 95.8287C93.375 93.804 93.6741 91.8549 93.7202 89.8132L93.7306 65.8679C93.6898 20.4634 109.787 4.70084 155.101 3.95486ZM286.318 434.043C287.841 436.038 287.743 439.163 287.787 441.571C287.682 443.658 287.789 445.946 287.375 448L287.251 448.252C286.658 449.75 286.984 452.913 286 455.25L284.938 457.126C284.369 457.127 283.787 456.966 283.375 457.377L282.969 457.396C282.161 457.453 281.313 457.732 280.5 457.877L279.875 457.877C280.037 458.231 280.215 458.496 280.438 458.812L282.105 458.246C282.792 457.831 283.804 457.873 284.588 457.737C284.085 459.341 283.566 460.851 282.875 462.377L282.5 463.125C279.961 463.633 278.819 461.867 277.702 461.594C278.848 458.563 277.516 460.11 275.011 459.764L274.903 459.265C277.651 457.657 280.333 456.433 281.941 453.497L281.742 453.375C279.323 456.271 270.104 461.494 269.923 461.827C265.066 464.433 260.597 467.44 255.949 470.375L229.323 487.299C223.685 490.751 221.482 492.865 215.169 495.283L218.577 495.458L228.215 495.645L238.878 495.769C240.742 495.766 242.85 495.954 244.687 495.452L250.646 495.448L267.388 495.781C269.832 495.781 272.365 495.924 274.791 495.446L293.566 495.353L316.279 495.422L340.542 495.253L355.637 495.439L376.322 495.411L388.612 495.488C389.985 495.494 391.888 495.741 393.207 495.448L401.558 495.443L424.461 495.446L440.83 495.44C464.236 495.371 477.982 488.558 482.912 465.237C486.113 450.095 486.749 434.645 487.748 419.25L489.223 399.625L490.251 364.5C490.296 362.742 490.657 361.01 490.688 359.25L490.196 219.708C490.177 216.884 489.685 214.138 489.647 211.347L488.722 169.25L484.705 129.937L465.104 131.743C458.274 132.152 451.249 131.853 444.394 131.87C426.011 131.913 399.904 135.011 388.145 117.162C382.259 108.227 382.521 99.1705 382.508 88.9615L382.38 61.8398C382.309 59.7639 381.796 57.7945 381.692 55.75C381.421 50.3914 381.713 45.0291 381.183 39.6719C380.406 31.8209 378.517 32.6759 380.397 23.1599C355.255 15.5938 322.569 15.3857 296.56 14.3112L268.006 13.1176C265.846 13.0498 263.755 12.5712 261.625 12.4881L182.251 11.9762L163.974 12.334C149.371 12.7186 133.14 13.6692 122.161 24.6478C109.21 37.5992 110.847 58.639 110.886 75.4295L110.844 110.625C110.823 113.817 110.342 116.951 110.294 120.122L110.275 158.608L111.349 195.759L111.339 270.976C113.786 271.185 116.55 270.701 119.039 270.659L158.919 268.432L231.295 268.438C233.63 268.506 235.931 268.979 238.25 269.085L275.609 271.219C289.466 272.187 304.083 272.403 317.375 276.782C330.827 281.214 332.675 287.489 334.496 300.429L337.944 331.88C339.677 352.055 340.074 384.983 335.635 403.491C332.969 414.607 332.562 421.796 321.336 426.705C310.416 431.48 297.976 432.338 286.318 434.043ZM189.451 275.7L171.843 275.797C169.644 275.893 167.51 276.319 165.289 276.366L144.861 276.604L72.3485 281.874L54.2289 283.709C44.6614 284.91 35.8086 286.078 26.1788 284.811L26.2332 340.75C26.2705 342.346 26.5274 343.913 26.6581 345.5L28.2274 378.592C28.8036 389.072 28.9282 408.365 36.8689 416.392C44.8934 424.503 59.1076 424.009 69.625 424.509L125.5 426.708C128.01 426.84 130.501 427.281 133.05 427.361L157.875 427.52L211.719 427.396L279.875 423.767C287.944 423.247 296.166 422.915 304.096 421.215C318.449 418.137 319.171 409.763 320.267 396.375L321.526 351.083L318.908 313.787C318.098 307.011 316.977 293.81 311.907 288.932C304.233 281.55 260.927 277.11 250.661 276.57L237.625 276.325C235.81 276.246 234.04 275.844 232.207 275.781L189.451 275.7ZM172.338 495.811L186.364 495.776L218.577 495.543L215.169 495.283C221.482 492.865 223.685 490.751 229.323 487.299L255.949 470.375C260.597 467.44 265.066 464.433 269.923 461.827C270.104 461.494 279.323 456.271 281.742 453.375L281.941 453.497C280.333 456.433 277.651 457.657 274.903 459.265L275.011 459.764C277.516 460.11 278.848 458.563 277.702 461.594C278.819 461.867 279.961 463.633 282.5 463.125L282.875 462.377C283.566 460.851 284.085 459.341 284.588 457.737C283.804 457.873 282.792 457.831 282.105 458.246L280.438 458.812C280.215 458.496 280.037 458.231 279.875 457.877L280.5 457.877C281.313 457.732 282.161 457.453 282.969 457.396L283.375 457.377C283.787 456.966 284.369 457.127 284.938 457.126L286 455.25C286.984 452.913 286.658 449.75 287.251 448.252L287.375 448C287.789 445.946 287.682 443.658 287.787 441.571C287.743 439.163 287.841 436.038 286.318 434.043C271.19 436.307 255.818 436.707 240.554 437.103L220.808 437.821C218.513 437.886 216.258 438.284 213.959 438.362L203.007 438.505C201.036 438.619 199.131 438.938 197.142 438.982L110.703 438.269C112.299 452.318 111.949 481.973 123.671 491.153C131.539 497.315 144.822 495.86 154.092 495.845L172.338 495.811Z"/>
	<path fill="#B8B8FF" d="M399.234 82.9271C398.592 77.9059 398.75 72.8563 398.576 67.8248L397.723 52.66C397.479 47.0808 397.354 41.6313 396.322 36.1246L423.797 64.9332L427.359 68.4577L433.761 74.8563C429.272 79.5385 423.8 82.5341 418.518 86.222C413.363 89.8216 406.514 96.4602 400.27 97.8053L400.251 98.0997C400.216 98.5098 400.248 98.3491 400.108 98.722C399.561 95.7507 399.501 92.7953 399.47 89.7945L399.234 82.9271Z"/>
	<path fill="#B8B8FF" d="M433.761 74.8563L436.645 77.8015C439.107 80.3977 442.341 83.2821 444.306 86.285L449.414 91.7786C455.633 97.6991 472.383 111.72 475.984 119.016C476.316 119.688 476.992 120.008 477.628 120.349L440.281 120.102C422.897 120.102 405.286 126.291 400.675 102.827L400.108 98.722C400.248 98.3491 400.216 98.5098 400.251 98.0997L400.27 97.8053C406.514 96.4602 413.363 89.8216 418.518 86.222C423.8 82.5341 429.272 79.5385 433.761 74.8563Z"/>
	<path fill="#F8F7FF" d="M433.761 74.8563L436.645 77.8015C434.93 81.1194 429.638 83.3581 426.605 85.3593L413.133 94.4973C408.964 97.2059 404.553 99.7128 400.675 102.827L400.108 98.722C400.248 98.3491 400.216 98.5098 400.251 98.0997L400.27 97.8053C406.514 96.4602 413.363 89.8216 418.518 86.222C423.8 82.5341 429.272 79.5385 433.761 74.8563Z"/>
	<path fill="#F8F7FF" d="M418.245 103.08C420.203 101.551 422.899 100.395 425.056 99.0759C431.67 95.0326 438.222 91.1257 444.306 86.285L449.414 91.7786C446.751 94.5651 442.867 95.3377 439.426 96.855C432.255 100.016 425.057 103.716 417.534 105.952C414.112 107.145 411.567 108.708 407.779 108.564L407.376 108.062C406.893 108.212 406.573 108.192 406.073 108.132L418.245 103.08Z"/>
	<path fill="#B8B8FF" d="M172.338 495.811L154.092 495.845C144.822 495.86 131.539 497.315 123.671 491.153C111.949 481.973 112.299 452.318 110.703 438.269L197.142 438.982C199.131 438.938 201.036 438.619 203.007 438.505L213.959 438.362C216.258 438.284 218.513 437.886 220.808 437.821L240.554 437.103C255.818 436.707 271.19 436.307 286.318 434.043C287.841 436.038 287.743 439.163 287.787 441.571C287.682 443.658 287.789 445.946 287.375 448L287.251 448.252C286.658 449.75 286.984 452.913 286 455.25L284.938 457.126C284.369 457.127 283.787 456.966 283.375 457.377L282.969 457.396C282.161 457.453 281.313 457.732 280.5 457.877L279.875 457.877C280.037 458.231 280.215 458.496 280.438 458.812L282.105 458.246C282.792 457.831 283.804 457.873 284.588 457.737C284.085 459.341 283.566 460.851 282.875 462.377L282.5 463.125C279.961 463.633 278.819 461.867 277.702 461.594C278.848 458.563 277.516 460.11 275.011 459.764L274.903 459.265C277.651 457.657 280.333 456.433 281.941 453.497L281.742 453.375C279.323 456.271 270.104 461.494 269.923 461.827C265.066 464.433 260.597 467.44 255.949 470.375L229.323 487.299C223.685 490.751 221.482 492.865 215.169 495.283L218.577 495.543L186.364 495.776L172.338 495.811ZM169.421 493.802C165.821 493.904 162.914 495.113 159.519 495.818L169.092 495.939L172.338 495.811L186.364 495.508L197.125 495.092C199.394 490.109 206.014 486.365 210.162 483.179L228.1 469.631C230.026 468.229 242.017 461.383 239.033 459.681C236.476 458.222 230.776 462.454 228.479 463.872L192.078 487.83C188.747 489.848 184.883 492.379 181.057 493.28C177.437 494.132 173.195 493.23 169.421 493.802Z"/>
	<defs>
		<linearGradient id="gradient_0" gradientUnits="userSpaceOnUse" x1="26.706499" y1="381.172" x2="320.54199" y2="321.319">
			<stop offset="0" stop-color="#8172FF"/>
			<stop offset="1" stop-color="#B2B3FF"/>
		</linearGradient>
	</defs>
	<path fill="url(#gradient_0)" d="M189.451 275.7L232.207 275.781C234.04 275.844 235.81 276.246 237.625 276.325L250.661 276.57C260.927 277.11 304.233 281.55 311.907 288.932C316.977 293.81 318.098 307.011 318.908 313.787L321.526 351.083L320.267 396.375C319.171 409.763 318.449 418.137 304.096 421.215C296.166 422.915 287.944 423.247 279.875 423.767L211.719 427.396L157.875 427.52L133.05 427.361C130.501 427.281 128.01 426.84 125.5 426.708L69.625 424.509C59.1076 424.009 44.8934 424.503 36.8689 416.392C28.9282 408.365 28.8036 389.072 28.2274 378.592L26.6581 345.5C26.5274 343.913 26.2705 342.346 26.2332 340.75L26.1788 284.811C35.8086 286.078 44.6614 284.91 54.2289 283.709L72.3485 281.874L144.861 276.604L165.289 276.366C167.51 276.319 169.644 275.893 171.843 275.797L189.451 275.7ZM245.375 307.651C230.851 309.266 219.961 319.233 221.606 334.682C223.409 351.626 237.157 357.424 251.524 359.914C258.318 361.091 264.273 362.299 266.283 369.875L266.364 370.167C266.9 372.239 266.672 375.244 266.096 377.293L265.998 377.655C265.597 379.094 264.99 380.344 264.125 381.557L263.94 381.822C257.488 390.82 238.072 387.287 236.171 376L236.107 375.66C235.627 372.978 235.796 369.921 235.716 367.193C229.151 368.418 222.413 371.68 218.482 377.343L218.181 377.804C225.386 391.011 236.365 399.368 251.579 399.29C268.52 399.072 281.841 391.488 281.261 373.296C280.834 359.863 271.8 350.397 259.305 347.005C251.585 344.91 242.358 344.932 237.49 337.5L237.244 337.129C234.017 332.132 235.56 325.7 240.709 322.644L241.391 322.244C253.11 315.358 264.109 321.909 265.714 335.112C270.407 336.596 275.459 337.44 280.379 336.649L280.579 336.474C280.316 333.161 279.305 329.938 278.207 326.818C271.819 308.656 264.26 306.543 245.375 307.651ZM120.279 313.031C114.186 315.237 106.274 334.967 101.03 341.281L92.6776 329.052C89.457 324.481 85.5099 317.529 80.3775 315.077C75.7973 316.283 73.1084 317.814 71.6181 322.315C73.0467 325.942 75.44 328.775 77.8298 331.786L84.6215 340.742C87.5154 344.828 90.0004 349.345 93.1704 353.218C89.4134 360.864 84.4877 368.928 79.3435 375.669C76.7472 379.071 73.1688 382.282 71.0316 385.948C67.6458 391.755 78.571 397.568 83.3806 395.162L84.2937 394.658C90.6132 388.368 92.8536 378.759 98.6057 371.941C107.712 378.868 119.988 407.813 133.398 392.945C131.643 388.777 128.683 385.954 125.833 382.574L110.497 364C108.924 361.945 107.164 359.903 105.94 357.619L122.279 333.297C126.219 327.498 137.69 316.437 125.597 313.425L124.419 313.181C123.052 312.911 121.664 312.995 120.279 313.031ZM162.312 309.563C154.402 312.853 156.159 318.452 156.593 325.382L157.222 381.102C156.68 396.081 154.915 397.341 172.068 397.362L190.243 397.393C193.812 397.401 197.795 397.831 201.306 397.456C206.099 395.579 211.297 388.915 204.75 385.759L201.999 384.595C199.165 383.58 194.704 383.968 191.662 383.956L175.994 383.921C175.176 383.92 171.994 384.149 171.505 383.711L171.472 321.368C171.448 316.222 171.711 309.245 163.791 309.407L162.312 309.563Z"/>
	<path fill="#696A71" d="M442.037 222.183L443.914 225.26C443.239 226.562 442.571 227.879 441.688 229.056C441.559 226.912 441.518 224.262 442.037 222.183Z"/>
	<path fill="#B8B8FF" d="M270.961 465.063L273.789 463.814C276.368 462.935 280.11 462.784 282.541 464.04C277.026 473.303 261.428 483.057 252.75 489.22C250.151 491.066 247.786 493.262 245 494.812L244.687 495.573C242.85 495.954 240.742 495.766 238.878 495.769L228.215 495.645L228.401 495.316C229.405 493.851 231.263 492.767 232.691 491.687L247.75 481.209C255.406 475.843 262.935 469.831 270.961 465.063Z"/>
	<path fill="#B8B8FF" d="M250.646 495.448C254.461 495.158 257.232 492.654 260.213 490.473L271.539 482.375C276.568 478.493 296.012 460.875 301.885 465.615C305.095 468.206 304.131 470.633 301.721 473.332C297.903 477.607 280.566 493.042 274.819 495.113L274.791 495.552C272.365 495.924 269.832 495.781 267.388 495.781L250.646 495.448Z"/>
	<path fill="#B8B8FF" d="M401.558 495.443C403.189 495.427 410.921 495.665 411.675 495.111L410.744 494.359C411.628 492.519 414.083 490.798 415.578 489.404C427.388 478.395 448.721 459.068 464.214 453.697L470.355 451.557C467.337 454.507 465.008 458.108 462.198 461.278C454.974 469.424 447.327 477.692 439.028 484.751L431.943 490.26C429.412 492.218 426.663 493.803 424.461 495.532L401.558 495.443Z"/>
	<path fill="#B8B8FF" d="M340.542 495.253L340.345 494.375C341.461 491.457 347.321 487.276 349.645 485.226C359.201 476.795 368.889 467.245 380.301 461.311L380.731 461.081C384.402 459.169 389.283 458.198 393.279 459.477L394.087 459.771C388.265 474.323 380.746 479.298 368.473 488.375C366.054 490.164 363.445 492.403 360.669 493.566C358.907 494.304 356.778 493.351 355.637 495.232L340.542 495.253Z"/>
	<path fill="#B8B8FF" d="M376.322 495.411L376.946 495.125C376.869 494.288 376.582 493.472 376.478 492.625C380.467 488.506 384.867 485.042 389.254 481.375L407.203 467.24C413.042 463.076 418.445 459.171 425.93 459.112C431.936 459.065 430.494 464.131 427.7 467.709L427.48 467.995C424.223 472.151 419.498 475.648 415.358 478.875L401.432 489.509C399.426 491.015 394.665 494.211 393.207 495.521C391.888 495.741 389.985 495.494 388.612 495.488L376.322 495.411Z"/>
	<path fill="#2A2C38" d="M165.167 75.8727L203.956 76.0329C209.281 76.0279 214.971 75.5324 220.25 76.004C227.93 76.6901 226.273 88.2145 218.812 88.7527L170.438 88.7594C168.284 88.7802 166.019 88.9287 163.875 88.7468C155.77 88.0594 155.117 77.6372 165.167 75.8727Z"/>
	<path fill="#2A2C38" d="M380.33 299.121L439.375 299.132C445.473 299.738 446.618 308.326 441.449 311.348L441.051 311.562C440.095 312.092 439.304 312.277 438.223 312.446L382.804 312.155C380.978 312.233 379.712 312.714 378.085 311.7C371.133 307.367 373.183 300.279 380.33 299.121Z"/>
	<path fill="#2A2C38" d="M381.181 347.367L433.238 347.474C435.366 347.435 437.637 347.187 439.75 347.365C446.72 347.953 445.815 357.131 440.975 360.333L440.333 360.726C439.425 361.296 438.47 361.322 437.432 361.408C434.785 361.254 432.171 360.932 429.515 360.895L383.041 360.862C371.025 360.842 371.86 348.339 381.181 347.367Z"/>
	<path fill="#B8B8FF" d="M293.566 495.353C291.835 492.267 297.385 488.6 299.391 486.848C307.509 479.755 345.505 445.799 353.133 463.941C355.762 470.196 327.71 488.127 323.488 490.726C322.171 491.536 320.717 492.931 319.259 493.386C318.062 493.761 316.166 493.533 315.173 494.18C315.763 494.201 316.306 494.251 316.876 494.062L316.875 494.877C316.2 495.008 315.547 495.037 314.862 495.062L316.279 495.337L293.566 495.353Z"/>
	<path fill="#2A2C38" d="M164.571 123.259L338.375 123.327C345.928 123.439 347.066 134.766 338.812 136.283L173.307 136.06C170.393 136.075 167.398 136.496 164.514 136.411C157.646 136.21 155.531 125.933 164.571 123.259Z"/>
	<path fill="#2A2C38" d="M164.416 171.592C168.42 171.331 172.727 171.717 176.768 171.719L434.974 172.104C444.882 172.241 448.14 179.977 437.953 183.001C435.063 183.402 432.093 183.27 429.19 183.271L229.275 183.284L169.338 183.813C167.493 183.83 164.721 184.198 162.99 183.542C156.272 180.997 157.884 174.012 164.416 171.592Z"/>
	<defs>
		<linearGradient id="gradient_1" gradientUnits="userSpaceOnUse" x1="282.45499" y1="176.485" x2="318.71899" y2="274.84601">
			<stop offset="0" stop-color="#21252A"/>
			<stop offset="1" stop-color="#42415E"/>
		</linearGradient>
	</defs>
	<path fill="url(#gradient_1)" d="M441.673 229.056C441.317 229.628 440.068 231.007 439.412 231.227L439.056 231.29C435.678 231.931 431.803 231.581 428.358 231.58L408.795 231.573C398.621 231.569 388.21 231.113 378.069 231.721C374.174 231.954 370.35 233.117 366.504 233.316C361.401 233.58 356.38 233.116 351.281 233.63C351.852 233.18 352.657 233.4 353.375 233.335C356.343 233.066 358.381 231.862 361.021 230.773C359.179 230.602 357.242 230.723 355.391 230.728L338.19 231.506L282.915 231.617C279.931 231.649 276.997 232.143 274.034 232.167L169.699 232.234C168.179 232.233 166.559 232.344 165.056 232.097L164.75 232.043C155.799 230.624 156.897 220.224 164.821 219.562C167.844 219.31 171.017 219.493 174.056 219.491L433.407 219.561C435.738 219.584 439.467 219.23 441.264 221.125L442.037 222.183C441.518 224.262 441.559 226.912 441.673 229.056Z"/>
</svg>
