<?xml version="1.0" encoding="utf-8" ?>
<svg xmlns="http://www.w3.org/2000/svg" xmlns:xlink="http://www.w3.org/1999/xlink" width="512" height="512">
	<path fill="#241C28" d="M141.421 441.12C140.32 439.476 139.3 437.785 138.785 435.857L138.659 435.375C135.668 424.188 146.325 414.072 155.691 410.11C163.41 406.844 174.636 405.616 183.142 405.234L187.592 366.896L60.5046 373.965L42.8986 374.418C19.5649 374.465 11.4639 364.925 9.19324 343.5C8.36855 335.719 8.16955 328.207 8.16453 320.389L8.63911 217.594C8.65937 214.579 9.18812 211.617 9.22107 208.625L9.99819 98.5791C10.0565 96.5568 10.3718 94.5945 10.4975 92.5863L11.7493 66.8401C13.4646 47.0049 15.2879 20.0576 38.339 13.984C52.8136 10.1702 72.0141 12.1736 87.0068 11.6986L92.9323 11.23L141.065 10.165C143.362 10.0941 145.604 9.60634 147.875 9.5436L210.969 8.8822C212.38 8.79983 213.753 8.45797 215.172 8.44307L383.43 8.44917C385.943 8.49441 388.381 8.90358 390.875 9.03121L401.5 9.36972C405.694 9.53499 409.311 8.28066 410.46 13.3706L410.809 15.2435C409.589 21.5262 400.853 19.3703 396.614 19.3016L249.669 18.8338L201.4 19.3696C199.015 19.4873 196.703 19.9086 194.291 19.9346L147.096 20.0135C144.702 20.0741 142.348 20.598 139.937 20.657L121.212 20.7948C118.759 20.8795 116.387 21.4318 113.9 21.4655L68.2167 21.9841C55.4634 22.1675 38.3486 19.595 30.0378 31.875C25.3676 38.7757 24.1343 48.3614 23.0515 56.4332L20.9833 76.1819L19.7194 106C19.6135 107.87 19.3357 109.707 19.2936 111.587L19.1986 152.649C19.1804 155.665 18.5781 158.596 18.5475 161.625L18.2477 327.861C18.2515 341.963 18.0004 364.159 37.0727 364.467C50.455 364.683 63.7672 363.489 77.1113 362.672L156.698 357.686L230.608 354.455L275.852 351.723C281.721 351.416 287.712 351.633 293.545 350.912C301.135 349.973 311.813 350.178 320.152 349.81L377.171 349.755C379.232 349.822 381.27 350.209 383.335 350.322L422.764 351.611L460.789 352.568C486.791 352.617 486.543 333.33 487.856 312.271L488.532 304.235L491.173 240.69L492.334 184.874L492.813 177.256C492.898 175.418 493.188 173.628 493.213 171.778L493.112 81.6114C492.462 67.1012 490.728 44.5287 483.622 31.9586C475.758 18.0459 452.442 20.8601 438.852 20.5874C435.645 19.4208 434.995 18.4008 434.473 14.9951C436.685 8.97326 438.747 10.1121 444.062 10.185C478.317 10.6546 494.08 13.1412 499.702 52.909L502.276 77.8093L502.921 150.585C502.87 152.665 502.501 154.71 502.449 156.795L502.349 177.875C502.299 179.607 501.971 181.311 501.924 183.047L500.353 236.624C500.304 238.301 499.988 239.951 499.922 241.625L496.498 322C493.78 360.403 480.107 362.572 446.125 361.424L410.402 360.317C408.349 360.256 406.319 359.888 404.26 359.83L343.875 359.411L303.205 361.029L308.045 402.949C323.002 404.066 351.807 409.325 354.752 428L354.823 428.433C355.363 431.977 354.606 435.186 353.096 438.384C346.822 446.021 338.386 447.676 328.944 449.133L315.139 450.971L268.139 453.695C265.864 453.77 263.632 454.193 261.339 454.245L225.706 454.344C210.458 454.341 195.324 454.13 180.125 452.823C168.819 451.851 153.585 451.612 144.368 443.94C143.704 443.388 142.018 441.293 141.421 441.12Z"/>
	<path fill="#9381FF" d="M301.619 410.512L301.677 410.497C313.678 414.113 332.812 416.524 340.902 424.502C356.142 439.531 318.752 440.183 311.623 440.777L265.75 443.77L202.945 443.805C191.696 443.708 155.346 440.942 150.571 435.681C147.566 432.371 150.165 427.458 152.918 424.988C163.375 415.612 186.02 418.308 190.468 414.123C194.951 409.906 197.568 374.539 198.289 366.155L293.481 361.751L298.449 399.459L298.501 399.724C299.219 403.536 298.726 407.578 301.619 410.512Z"/>
	<path fill="#F8F7FF" d="M301.619 410.512C300.878 410.808 299.424 410.484 298.6 410.414C298.14 407.736 297.109 402.028 298.449 399.459L298.501 399.724C299.219 403.536 298.726 407.578 301.619 410.512Z"/>
	<defs>
		<linearGradient id="gradient_0" gradientUnits="userSpaceOnUse" x1="204.98399" y1="-13.6984" x2="297.00601" y2="390.97501">
			<stop offset="0" stop-color="#9993FF"/>
			<stop offset="1" stop-color="#B4B5FE"/>
		</linearGradient>
	</defs>
	<path fill="url(#gradient_0)" d="M410.809 15.2435C411.428 15.419 412.276 15.2539 412.924 15.22L434.473 15.001C434.995 18.4008 435.645 19.4208 438.852 20.4197C452.442 20.8601 475.758 18.0459 483.622 31.9586C490.728 44.5287 492.462 67.1012 493.112 81.6114L493.213 171.778C493.188 173.628 492.898 175.418 492.813 177.256L492.694 184.874L491.173 240.69L488.532 304.235L487.856 312.271C486.543 333.33 486.791 352.617 460.789 352.568L422.764 351.611L383.335 350.322C381.27 350.209 379.232 349.822 377.171 349.755L320.152 349.81C311.813 350.178 301.135 349.973 293.545 350.912C287.712 351.633 281.721 351.416 275.852 351.723L230.608 354.455L156.698 357.686L77.1113 362.672C63.7672 363.489 50.455 364.683 37.0727 364.467C18.0004 364.159 18.2515 341.963 18.2477 327.861L18.5475 161.625C18.5781 158.596 19.1804 155.665 19.1986 152.649L19.2936 111.587C19.3357 109.707 19.6135 107.87 19.7194 106L20.9833 76.1819L23.0515 56.4332C24.1343 48.3614 25.3676 38.7757 30.0378 31.875C38.3486 19.595 55.4634 22.1675 68.2167 21.9841L113.9 21.4655C116.387 21.4318 118.759 20.8795 121.212 20.7948L139.937 20.657C142.348 20.598 144.702 20.0741 147.096 20.0135L194.291 19.9346C196.703 19.9086 199.015 19.4873 201.4 19.3696L249.669 18.829L396.614 19.3016C400.853 19.3703 409.589 21.5262 410.809 15.2435Z"/>
	<path fill="#9381FF" d="M48.2719 319.762C47.6323 319.342 47.0679 318.762 46.5012 318.249L44.5012 315.499C44.4982 314.589 43.5469 313.539 43.2422 312.625L42.7969 311.203C42.7221 310.904 42.5914 310.84 42.3775 310.625L42.4375 310.062C42.2201 309.555 42.2763 309.767 42.1893 309.332L41.908 308.25C41.7485 307.75 41.6369 307.283 41.634 306.75L41.6846 305.875C41.1466 301.686 42.0717 297.955 42.1626 293.862L42.25 286.5C42.257 285.637 42.079 284.764 42.1949 283.906L41.9404 281.625C42.6379 279.223 42.2757 276.003 42.2752 273.45L42.0952 247.921C42.0232 245.681 41.935 243.487 41.7382 241.25C40.7489 229.999 42.0164 218.606 41.168 207.375L41.0104 204.937C40.3037 199.413 41.0003 193.456 40.8948 187.875L40.7902 178C40.7653 176.083 40.4116 173.958 40.9702 172.109L41.9976 301.262C40.7013 306.053 44.1692 317.663 48.5324 319.321L53.6511 317.95C55.7727 317.299 56.1882 327.192 55.633 328.875L56.0313 329.013C57.4636 329.537 62.8749 333.74 64.3896 334.86C80.2425 346.581 95.3668 354.342 115.465 356.875C113.998 357.269 102.661 354.849 101.188 354.312L100.121 353.996C99.6322 353.833 99.1751 353.74 98.6875 353.562L93.1094 351.738C92.6349 351.58 92.8142 351.633 92.25 351.561L89.4883 350.464C88.7484 349.729 81.1453 346.25 80.8125 346.249L80.5 346.061C80.2626 345.932 79.9831 345.888 79.7512 345.749L79.5084 345.503C79.1957 345.192 79.1241 345.22 78.75 345.061L77.7779 344.519C77.4201 344.163 77.0691 344.093 76.6875 343.812L74.5475 342.531C73.8132 341.8 72.832 341.529 72.125 340.75L68.875 338.5L67.5012 337.749L64.7512 335.749C64.3007 335.177 64.2769 335.192 63.6875 334.812L62.125 333.5L59.5012 331.999L57.7512 330.749C57.3007 330.177 57.2769 330.192 56.6875 329.812L55.75 329.311C55.3464 329.294 55.0986 329.123 54.625 329.123L52.6484 327.896C51.7351 327.287 50.7313 326.471 50.2512 325.499L50.08 325.273C49.5311 324.54 49.0503 323.61 48.7512 322.749L48.2345 321.43C47.9818 320.798 47.9899 320.349 48.2719 319.762Z"/>
	<path fill="#241C28" d="M258.417 313.764C269.123 313.073 267.506 322.556 262.223 325.206L261.875 325.373C259.492 326.537 256.598 326.45 253.994 326.468L245.205 326.493C241.807 326.326 237.772 324.336 237.625 320.448C237.379 313.96 243.168 313.847 247.75 313.837L258.417 313.764Z"/>
	<path fill="#9381FF" d="M438.852 20.4197C452.442 20.8601 475.758 18.0459 483.622 31.9586C490.728 44.5287 492.462 67.1012 493.112 81.6114L493.213 171.778C493.188 173.628 492.898 175.418 492.813 177.256L492.694 184.874C492.24 181.432 492.274 177.954 492.393 174.5L492.779 160.655C492.869 158.744 493.169 156.876 493.202 154.952L493.254 113.773C493.248 112.605 493.04 111.449 493.032 110.268L493.186 92.408C493.017 86.3057 492.576 80.1729 492.188 74.1238L491.939 73.3672C492.057 72.5531 492.009 71.6961 492 70.875L491.627 70.5C491.689 70.0616 491.828 69.7783 491.623 69.375C491.623 69.9313 491.779 70.469 491.375 70.8725L490.75 70.6225C489.43 70.295 489.102 69.2775 488.627 68.25L488.285 67.172C488.332 66.661 488.324 66.6528 488 66.25L487.75 65.1225L486.75 65.5613C486.38 65.8207 486.275 66 485.811 66L485.484 66.2923C484.845 66.8459 481.852 67.5611 481.032 67.0455L480.25 66.625L479 66.5L478.25 66.5L476.75 66L475.875 65.75C475.429 65.8987 475.61 65.8024 475.312 65.9988L473.5 65.5L473.125 65.8725L472 65.5L471.625 65.8725L471.188 64.8125C470.916 65.2514 470.857 65.5071 470.749 65.9988L470.562 66.6875C470.982 67.4486 470.681 68.0853 471.123 68.75L471.054 69.0156C470.965 69.4675 471.521 77.1188 471.54 78.5391L471.612 93.4008C471.627 94.9895 471.83 96.6098 471.811 98.2207L471.648 115.487C471.653 123.54 472.288 131.502 472.338 139.567L472.378 172.568C472.374 173.724 472.223 174.966 472.373 176.125L471.734 185.386L471.547 91.9421C471.495 89.6108 471.002 87.3667 470.938 85.0572L470.876 73.7649C470.849 71.3664 470.932 68.8908 470.156 66.5875L470.037 66.25C467.61 59.1557 460.889 60.3677 454.799 60.3458L440.023 60.2663C436.339 60.2202 432.749 59.5474 429.125 59.4773L399.564 59.3798C396.607 59.3458 393.741 58.6458 390.845 58.6141L260.43 58.5469C262.336 57.9214 264.752 58.0426 266.705 58.0675L349.709 58.1227C357.809 58.1338 365.674 58.4011 373.691 58.5196L398.625 58.75C401.887 58.5766 404.981 58.8193 408.25 58.9387C413.844 59.1431 419.377 58.9424 425 59.1887L425.875 59.25C426.847 59.2058 427.762 59.1178 428.75 59.1275L429 59.375C430.294 59.739 438.504 59.6943 440.75 59.6887L441.875 59.75C443.287 59.758 448.784 60.2257 449.251 59.7488C448.518 59.6159 447.582 59.0691 447.127 58.5L448.75 57.8775C449.251 57.5432 449.357 57.6271 449.938 57.6262L448.5 56.6225C447.879 56.256 447.113 56.1723 446.391 55.8106L446 55.6225C445.648 55.4466 445.361 55.2743 444.977 55.1777L444.75 55.1225C443.222 54.3511 441.801 54.5736 440.312 53.6875L438.439 53C435.115 51.6491 435.47 51.7356 431.688 51.4375L430.75 51.625C428.944 51.625 427.438 54.5181 426.627 51.25L427.873 50.875L427.877 50.5C426.668 50.0915 427.331 49.2764 427.625 48.6275C427.872 48.0831 427.714 46.6975 427.877 46C428.087 45.1048 429.545 43.8092 429.918 42.6914L430.312 42.3762C430.592 41.9188 430.744 41.278 431.064 40.903L431.25 40.6887C431.791 39.5635 430.91 40.9363 431.635 39.8476L431.877 39.5C431.491 38.9208 431.91 38.6917 431.751 37.9988L431.627 37.5C431.281 36.8327 431.28 36.0381 431.431 35.2728L431.501 35.0012C431.577 34.6452 431.623 34.3673 431.76 34.0234L431.877 33.75C430.904 32.29 433.235 31.3423 432.306 30.4127L432.127 30.25C432.41 29.9451 432.672 29.6538 432.911 29.313L433.404 28.6496C433.852 28.089 433.631 26.2672 433.877 25.375C434.35 25.0029 434.694 24.825 434.891 24.2342L435 23.875L437.625 23.1275L440.079 23.1491C440.777 22.9571 441.022 23.04 441.625 23.3775L442.75 22.9387C442.158 22.8603 442.191 22.8287 441.751 22.4988L441.751 22.2512C441.801 21.8491 441.929 21.6255 442.25 21.3775L440.75 21.1225C440.416 20.7917 440.319 20.8389 439.875 20.75L439.875 21.6225L439.251 21.4988C438.694 21.3453 438.671 21.0469 438.381 20.5831L438.852 20.4197Z"/>
	<path fill="#F8F7FF" d="M40.8079 172.109L40.8374 95.1155C40.8663 92.2036 41.3337 89.3483 41.3608 86.4538L41.3666 61.6166C41.3784 51.0642 40.9838 39.5795 47.0841 30.3934L51.535 30.4713C55.0542 35.2868 56.4013 41.2683 58.4876 46.7802C60.9681 53.3331 63.7941 59.7228 65.7044 66.48C61.4611 67.4371 58.1502 69.8032 55.5531 73.2574L55.312 73.5539C54.264 74.9447 54.8196 79.211 54.7008 81.0142L53.1586 117.5C53.0644 119.649 52.5594 121.713 52.5135 123.896L52.4258 188.557L51.5751 213.391L51.498 248.875L50.1994 289.181C49.6421 296.392 47.8303 291.584 44.8388 296.757C44.4329 297.869 44.0476 298.702 43.041 299.375L42.9549 299.608C42.699 300.283 42.4768 300.724 41.9976 301.262L40.8079 172.109Z"/>
	<path fill="#241C28" d="M260.43 58.5469L390.845 58.6141C393.741 58.6458 396.607 59.3458 399.564 59.3798L429.125 59.4773C432.749 59.5474 436.339 60.2202 440.023 60.2663L454.799 60.3458C460.889 60.3677 467.61 59.1557 470.037 66.25L470.156 66.5875C470.932 68.8908 470.849 71.3664 470.876 73.7649L470.938 85.0572C471.002 87.3667 471.495 89.6108 471.547 91.9421L471.633 185.386L471.542 213.758C471.487 215.944 471.023 218.096 470.949 220.291L467.481 285.089C467.213 291.696 469.188 299.066 460.144 298.679L385.837 295.125C383.462 295.032 381.154 294.59 378.75 294.548L363.181 294.393C360.873 294.288 358.608 293.728 356.25 293.66L237.354 293.571C234.996 293.624 232.76 294.374 230.375 294.424L208.012 294.543C205.754 294.594 203.528 295.098 201.25 295.154L167.726 296.357L129.5 297.72L56.251 302.413C51.5408 302.685 46.1426 302.847 44.949 297.252L44.8388 296.757C47.8303 291.584 49.6421 296.392 50.1994 289.181L51.498 248.875L51.5751 213.391L52.4258 188.557L52.5135 123.896C52.5594 121.713 53.0644 119.649 53.1586 117.5L54.7008 81.0142C54.8196 79.211 54.264 74.9447 55.312 73.5539L55.5531 73.2574C58.1502 69.8032 61.4611 67.4371 65.7044 66.48C68.8696 66.6745 72.4493 65.9807 75.625 65.6905L156.533 60.4997C164.953 59.9373 175.09 59.4745 183.584 59.4525L200.366 59.3847C203.172 59.3348 205.863 58.6722 208.629 58.6166L260.43 58.5469Z"/>
	<path fill="#F8F7FF" d="M286.071 68.7587L402.878 68.8055C405.574 68.8387 408.232 69.3284 410.902 69.3615L442.326 69.8285C445.501 69.8731 458.901 69.2946 461.333 70.6418L458.257 288.708L227.938 283.509L54.7428 292.471L55.8179 239.5C55.8497 236.832 56.4599 234.25 56.4999 231.618L56.9654 150.339C57.1016 146.527 57.3424 142.677 57.4381 138.875L58.0447 95.9417C58.2749 90.2432 57.4241 77.0288 63.8609 75.0734L64.25 74.9595C66.3675 74.3051 68.7537 74.2135 70.9626 74.0914L147.2 70.495L224.905 69.3161C226.998 69.2567 229.049 68.8626 231.125 68.8037L286.071 68.7587Z"/>
	<defs>
		<linearGradient id="gradient_1" gradientUnits="userSpaceOnUse" x1="239.453" y1="194.285" x2="231.39301" y2="101.836">
			<stop offset="0" stop-color="#201E24"/>
			<stop offset="1" stop-color="#2D1E35"/>
		</linearGradient>
	</defs>
	<path fill="url(#gradient_1)" d="M332.088 92.7914C352.132 91.0974 348.125 123.083 327.948 118.716L327.035 120.602C324.749 124.278 320.938 127.537 317.732 130.407L301.308 144.189C292.724 151.08 267.566 172.605 255.592 169.572C245.447 167.003 236.433 148.269 226.375 142.599C218.065 137.914 204.515 155.156 199.618 160.737L190.718 170.518C174.08 187.925 157.563 197.29 134.948 203.83C122.602 206.489 124.358 185.54 135.5 189.966C136.283 190.803 136.343 191.506 136.619 192.579C139.417 191.302 142.415 190.463 145.25 189.242C161.706 182.157 175.045 171.329 187.011 158.203C195.742 148.626 210.328 128.589 225.625 131.077C239.628 133.354 249.562 154.994 258.198 158.122C269.701 156.393 280.005 147.157 288.801 140.064L321.336 113.781C313.13 105.333 323.161 94.6416 332.088 92.7914Z"/>
	<path fill="#241C28" d="M350.364 142.56L349.948 142.389C345.873 140.548 346.206 133.354 353.381 131.874C365.767 129.319 378.158 129.779 390.581 131.343L396.412 131.878C402.953 139.81 402.14 144.031 402.439 153.797L402.581 180.125C402.674 185.256 403.482 190.382 403.54 195.517L403.697 246.193L418.538 246.259C420.73 246.264 423.683 245.929 425.788 246.457C431.246 247.824 430.751 255.956 424.61 256.392C422.371 256.551 420.037 256.384 417.791 256.339L380.436 254.852C375.635 254.616 370.471 255.179 365.744 254.45C362.096 253.887 358.455 254 354.773 253.993L335.5 253.93C333.297 253.849 331.107 253.378 328.875 253.308L227.625 253.274C225.553 253.335 223.483 253.816 221.376 253.887L205.829 254.047C203.102 254.098 200.468 254.551 197.751 254.638L180.363 254.838C178.224 254.909 176.15 255.374 173.993 255.443L152.125 255.56C150.305 255.623 148.498 256.071 146.653 256.16L125.569 256.316C123.48 256.348 121.432 256.741 119.344 256.841L107.32 256.992C105.012 257.007 101.862 257.491 99.7886 256.375C94.7155 253.643 97.4416 247.425 102.139 246.529C104.679 246.044 107.66 246.319 110.258 246.311L126.467 246.273L126.452 229.84C126.453 223.971 125.684 216.705 133.75 216.988L165.906 217.257C181.569 217.332 181.128 229.092 181.212 241.506C181.216 242.105 181.073 243.3 181.384 243.773L201.329 243.748L201.221 218.451C201.185 212.351 199.234 204.55 207.25 202.45C210.833 201.512 214.738 201.549 218.418 201.494L232.265 201.398C247.723 201.346 250.492 203.506 250.557 219.756L250.598 235.988C250.606 237.919 250.302 240.68 250.836 242.496L271.751 242.379L271.751 215.797C271.742 213.548 271.086 210.202 271.647 208.125L271.734 207.795C272.769 204.155 275.871 201.934 279.519 202.94L279.797 203.114C280.802 203.765 281.124 204.224 282.414 204.269C282.857 201.176 283.638 186.605 282.012 185.141C279.342 184.85 276.253 185.686 273.672 185.616C267.008 183.972 268.303 174.78 274.777 173.922C277.578 173.551 280.608 173.75 283.439 173.742L301.081 173.688C314.543 173.486 325.29 168.738 325.367 187.737L325.493 203.837C325.572 205.131 325.847 206.408 325.915 207.704L326.022 233.605C326.03 236.66 325.888 239.805 326.25 242.839L346.834 242.888L346.725 167.944C346.682 162.724 344.905 157.991 351.26 156.095L352 155.983C352.962 155.212 351.853 153.422 351.598 152.375C351.107 150.351 350.6 145.94 351.155 143.829L350.364 142.56Z"/>
	<path fill="#FF503B" d="M211.999 238.789L212.785 238.593L213.134 240.315C213.331 241.217 213.242 242.079 213.031 242.975C212.181 242.999 212.44 243.098 212.006 242.75L211.999 238.789Z"/>
	<path fill="#FF8D4E" d="M211.469 219.091L212.428 219.413C212.406 221.395 212.73 223.529 212.736 225.539L212.763 238.593L212.028 238.789L211.469 219.091Z"/>
	<path fill="#E08715" d="M211.429 219.091L211.103 212.831C211.083 212.151 210.906 211.091 211.123 210.456L227.468 210.414C230.541 210.41 237.528 209.023 238.263 212.5L239.251 219.538C236.951 219.465 234.544 219.311 232.233 219.303L219.193 219.252C216.972 219.24 214.606 218.943 212.428 219.397L211.429 219.091Z"/>
	<path fill="#9381FF" d="M136.756 227.224L157.562 227.297C160.427 227.299 167.635 226.343 169.875 228.117C171.649 232.838 172.191 239.646 171.483 244.74L170.875 244.975C160.375 246.439 145.802 244.048 137 245.937L136.756 227.224Z"/>
	<path fill="#FF3E31" d="M212.697 219.413C214.606 218.943 216.972 219.24 219.193 219.252L232.233 219.303C234.544 219.311 236.951 219.465 239.251 219.284L239.547 237.372C239.553 238.65 239.922 241.552 239.409 242.523L213.031 242.82C213.242 242.079 213.331 241.217 213.134 240.315L212.785 238.593L212.736 225.539C212.73 223.529 212.406 221.395 212.697 219.413Z"/>
	<path fill="#9381FF" d="M282.012 185.141C286.165 183.738 292.062 184.089 296.627 184.047L314.753 184.007C315.335 189.127 315.01 194.614 315.02 199.772L315.101 238.981C315.106 239.989 315.343 241.847 314.976 242.738L282.709 242.81L282.639 204.269C282.857 201.176 283.638 186.605 282.012 185.141Z"/>
	<path fill="#9381FF" d="M350.364 142.56L378.027 141.164C382.398 141.165 386.599 140.83 390.765 142.329C392.776 144.623 391.83 164.855 391.892 168.522C391.931 170.799 392.408 173.034 392.461 175.331L392.532 202.519L392.557 220.204L392.99 244.297L357.141 244.205C356.846 241.038 357.035 237.7 357.03 234.512L356.934 197.112C356.88 195.185 356.542 193.322 356.441 191.412L356.387 170.62C356.367 166.939 356.386 162.829 355.59 159.228L355.094 156.986C353.779 156.495 352.662 156.225 351.26 156.095L352 155.983C352.962 155.212 351.853 153.422 351.598 152.375C351.107 150.351 350.6 145.94 351.155 143.829L350.364 142.56Z"/>
	<path fill="#B8B8FF" d="M392.46 202.519L392.557 220.204C392.034 219.975 392.709 215.351 391.986 214.149C391.683 216.287 392.129 218.217 391.902 220.4C391.565 217.671 389.962 204.023 392.46 202.519Z"/>
</svg>
