<?xml version="1.0" encoding="utf-8" ?>
<svg xmlns="http://www.w3.org/2000/svg" xmlns:xlink="http://www.w3.org/1999/xlink" width="512" height="512">
	<path fill="#291A5C" d="M53.1136 60.1503C51.5408 59.956 45.0594 61.9366 46.021 58.3555C48.3046 49.851 70.7534 38.2157 79.2518 40.9153L79.5 41.0018C84.0487 42.5475 84.0659 44.9966 82.691 49.2272C80.2655 51.7051 64.9551 52.5403 56.7313 59.8029C55.5901 59.8635 54.311 60.0039 53.1809 60.2009L53.1136 60.1503Z"/>
	<path fill="#26184D" d="M41.0368 166.876C49.8537 168.006 48.1179 171.731 47.7371 178.359L46.6841 207.537C46.6602 211.015 46.6198 216.916 41.6324 215.968C41.6469 215.086 41.2368 214.244 40.9601 213.492L36.1122 213.498L35.7486 179.365C35.7399 171.7 33.3016 169.093 41.0368 166.876Z"/>
	<path fill="#26184D" d="M53.1136 60.1503L53.1809 60.2009C54.311 60.0039 55.5901 59.8635 56.7313 59.8029C50.7793 67.2403 50.7309 73.1377 49.9768 82.3487L48.603 121.532C47.1893 123.609 45.0707 124.372 42.7809 124.921L42.7216 125.005L41.9081 124.96C36.8091 124.359 37.351 119.091 37.4877 115.382L38.0114 104.265C38.3221 96.6916 37.486 68.9836 44.5667 64.1741C47.4538 62.2131 49.7229 61.0485 53.1136 60.1503Z"/>
	<path fill="#26184D" d="M406.481 51.9718C404.4 48.8617 405.345 43.7588 408.729 41.8102C411.777 40.0557 423.678 43.6043 427.25 44.7582C455.03 53.7321 457.234 74.4577 459.911 100.5L472.607 250.936L476.442 332.294C476.473 333.602 476.764 334.889 476.856 336.197L477.151 439.714C476.455 474.726 475.095 500.075 432.375 504.746L399.5 506.624C397.29 506.708 395.114 507.135 392.881 507.199L289.793 507.224C287.048 507.182 284.318 506.646 281.534 506.609L254.5 506.531C253.15 506.5 251.825 506.227 250.48 506.15L197 505.468C195.362 505.431 193.742 505.159 192.104 505.104L184.25 504.971C181.695 504.817 179.198 504.483 176.628 504.451L93.1367 504.39C33.3963 504.397 35.7876 474.314 35.755 427.776L35.6898 231.814C36.4078 230.602 38.4747 229.526 39.8119 229.205L40.786 228.77L41.0213 228.641C43.5707 230.08 46.9381 229.397 47.3141 233.341C47.8198 238.645 47.4396 244.349 47.4464 249.693L47.4935 430.272L48.383 460.23C51.2659 489.938 67.5847 492.456 94.2418 492.498L188.475 492.601C191.119 492.657 193.637 493.331 196.225 493.405L224.163 493.516C228.819 493.628 233.472 494.4 238.125 494.486L267 494.621C269.363 494.708 271.638 495.358 273.96 495.419L384.247 495.392C386.639 495.335 388.871 494.631 391.216 494.575C409.282 494.144 445.88 496.07 458.079 480.719C465.725 471.096 464.202 454.997 464.641 443.52C464.776 439.997 465.415 436.519 465.509 433L465.501 340.226C465.415 336.016 464.706 331.833 464.59 327.625L464.403 307.5L461.602 251.579L453.921 155.5L450.144 124.787L443.67 124.332L407.556 123.413C405.184 123.292 402.826 122.784 400.412 122.703L381.125 122.532C378.635 122.435 376.195 121.964 373.671 121.922L200.683 121.908C197.894 121.943 195.156 122.478 192.351 122.524L165.165 122.612C161.36 122.687 157.651 123.359 153.894 123.456L114.125 124.197C105.504 124.444 95.9912 126.768 87.4511 125.861L85.625 125.527C84.6425 124.628 84.7538 122.485 84.6578 121.186C84.6505 119.956 84.3504 117.42 85.1187 116.451L85.4759 116.031C88.1041 113.001 95.0014 112.77 98.8129 112.548C99.5948 112.632 101.596 112.361 102.505 112.344L112.571 112.082C114.547 111.954 116.522 111.575 118.5 111.517L146.493 111.41C148.686 111.347 150.82 110.881 152.998 110.846L214.372 109.742L277.055 108.981L448.231 112.38C447.934 109.449 447.972 106.507 447.803 103.569L446.138 87.498C444.786 78.1636 442.265 66.3529 434.018 60.5211C427.21 55.7073 415.44 55.4425 406.481 51.9718Z"/>
	<path fill="#9381FF" d="M210.225 32.8859L216.169 32.6627C217.44 20.2569 217.785 11.2632 228.875 4.60169C236.789 -0.151468 242.62 2.26762 248.261 9.69149C253.273 16.2883 255.467 24.8182 256.616 32.8925L302.125 33.5884C304.196 33.6494 306.241 34.0172 308.324 34.0633L325.214 34.5824C330.973 34.6734 339.536 32.5525 341.517 38.6312C344.217 39.0062 351.738 40.2407 354.037 40.9072C353.889 30.3342 355.511 15.5668 363.33 7.59689C373.904 -3.18218 386.979 5.27956 392.001 17.75C395.909 27.455 397.671 39.0569 397.512 49.58C402.007 48.5046 403.891 51.7354 406.481 51.9718C415.44 55.4425 427.21 55.7073 434.018 60.5211C442.265 66.3529 444.786 78.1636 446.138 87.498L447.803 103.569C447.972 106.507 447.934 109.449 448.231 112.38L277.055 108.98L214.372 109.742L152.998 110.846C150.82 110.881 148.686 111.347 146.493 111.41L118.5 111.517C116.522 111.575 114.547 111.954 112.571 112.082L102.505 112.344C101.596 112.361 99.5948 112.632 98.8129 112.242C95.0014 112.77 88.1041 113.001 85.4759 116.031L85.1187 116.451C84.3504 117.42 84.6505 119.956 84.6578 121.186L84.4399 117.517C76.9158 117.951 69.2714 117.663 61.7841 118.339C57.5839 118.718 53.4286 119.948 49.2512 120.34L48.5119 121.532L49.9768 82.3487C50.7309 73.1377 50.7793 67.2403 56.7313 59.8029C64.9551 52.5403 80.2655 51.7051 82.691 49.2272L83 49.9941C86.7749 51.093 91.5198 48.298 95.5469 48.3234C95.596 48.1128 95.3025 43.9413 95.2754 43.0884C94.9562 33.0064 95.8415 17.401 102.163 9.17847C107.162 2.67722 115.867 1.10094 122.427 6.22067C130.787 12.746 134.789 25.0195 136.08 35.1946L210.225 32.8859Z"/>
	<path fill="#F8F7FF" d="M254.481 68.6336C260.455 65.2921 269.104 69.5002 266.342 76.8137C264.333 82.1354 251.113 80.7485 246.276 80.2197C243.538 78.5837 244.387 75.3427 245.489 73C245.023 72.4315 244.851 72.0382 244.672 71.3238L244.618 71.0983L244.572 70.8996C244.492 70.0397 244.369 68.7202 244.875 67.9975L247.542 67.6829C248.288 68.7653 248.798 69.902 249.483 70.994C251.591 70.4116 252.784 70.0586 254.481 68.6336Z"/>
	<path fill="#F8F7FF" d="M98.8129 112.242L95.6696 112.125C97.2717 109.017 107.848 109.349 110.792 109.111L165.125 106.301L237.566 105.783C239.468 105.843 241.344 106.161 243.251 106.203L261.927 106.318C265.549 106.366 274.463 106.32 277.055 108.981L214.372 109.742L152.998 110.846C150.82 110.881 148.686 111.347 146.493 111.41L118.5 111.517C116.522 111.575 114.547 111.954 112.571 112.082L102.505 112.344C101.596 112.361 99.5948 112.632 98.8129 112.242Z"/>
	<defs>
		<linearGradient id="gradient_0" gradientUnits="userSpaceOnUse" x1="378.32999" y1="3.11971" x2="372.79901" y2="87.655098">
			<stop offset="0" stop-color="#221A40"/>
			<stop offset="1" stop-color="#321E8D"/>
		</linearGradient>
	</defs>
	<path fill="url(#gradient_0)" d="M354.192 40.9072C353.889 30.3342 355.511 15.5668 363.33 7.59689C373.904 -3.18218 386.979 5.27956 392.001 17.75C395.909 27.455 397.671 39.0569 397.512 49.58L396.869 61.9347C396.42 68.1576 396.029 76.6613 391.885 81.6443C381.541 94.0831 361.358 87.5874 356.079 72.875C352.728 63.5335 354.824 50.8317 354.192 40.9072Z"/>
	<path fill="#B8B8FF" d="M368.047 77.4096C365.851 75.2765 364.105 73.4205 363.278 70.3569L363.185 70C362.206 66.442 362.438 62.6987 362.437 59.0376C362.435 48.2838 362.633 20.6374 374.8 15.2245C383.205 19.4515 385.275 36.1314 386.286 44.4104C387.009 50.3344 386.553 54.0164 389.973 59.0927C393.786 68.5586 384.053 85.6926 370.625 78.8675L368.047 77.4096Z"/>
	<path fill="#26184D" d="M210.225 32.7164L216.169 32.6627C217.44 20.2569 217.785 11.2632 228.875 4.60169C236.789 -0.151468 242.62 2.26762 248.261 9.69149C253.273 16.2883 255.467 24.8182 256.616 32.8925L302.125 33.5884C304.196 33.6494 306.241 34.0172 308.324 34.0633L325.214 34.5824C330.973 34.6734 339.536 32.5525 341.517 38.6312L342.076 46.1592C338.753 46.9233 335.036 46.5463 331.632 46.5112L303.392 45.5193L256.713 45.4023C256.572 53.6855 255.739 60.5205 254.481 68.6336C252.784 70.0586 251.591 70.4116 249.483 70.994C248.798 69.902 248.288 68.7653 247.542 67.6829L244.875 67.9975C244.369 68.7202 244.492 70.0397 244.572 70.8996L244.618 71.0983L244.672 71.3238C244.851 72.0382 245.023 72.4315 245.489 73C244.387 75.3427 243.538 78.5837 246.276 80.2197C245.355 80.5294 244.687 81.5903 244.038 82.3165L243.625 82.3172C243.624 81.6948 243.65 81.1215 243.43 80.5274L243.288 80.2194L243.226 82.125C242.487 91.3076 205.641 94.9231 214.951 44.8068C216.674 43.0062 215.56 39.3072 216.517 37.1263C217.167 35.6458 216.279 34.6938 215.945 33.4054L215.877 33.125C214.053 33.1661 212.048 32.8879 210.225 32.7164Z"/>
	<path fill="#B8B8FF" d="M243.288 80.2194L243.038 79.243C241.326 77.7668 231.177 78.8442 228.182 78.2887C215.991 76.0275 225.802 22.31 227.442 15.0742C228.062 12.3372 229.472 7.53355 233.25 8.78733C241.224 11.4341 244.709 37.8774 245.32 45.2562L246.211 59.6244C246.403 62.2052 246.256 65.1085 247.434 67.4759L247.542 67.6829L244.875 67.9975C244.369 68.7202 244.492 70.0397 244.572 70.8996L244.618 71.0983L244.672 71.3238C244.851 72.0382 245.023 72.4315 245.489 73C244.387 75.3427 243.538 78.5837 246.276 80.2197C245.355 80.5294 244.687 81.5903 244.038 82.3165L243.625 82.3172C243.624 81.6948 243.65 81.1215 243.43 80.5274L243.288 80.2194Z"/>
	<path fill="#291A5C" d="M95.6709 48.3234C95.596 48.1128 95.3025 43.9413 95.2754 43.0884C94.9562 33.0064 95.8415 17.401 102.163 9.17847C107.162 2.67722 115.867 1.10094 122.427 6.22067C130.787 12.746 134.789 25.0195 136.08 35.1946L210.225 32.8859C212.048 32.8879 214.053 33.1661 215.877 33.125L215.945 33.4054C216.279 34.6938 217.167 35.6458 216.517 37.1263C215.56 39.3072 216.674 43.0062 214.951 44.8068L139.189 47.3991C140.059 57.7818 142.731 72.0293 135.362 80.7387C121.53 97.0874 97.3898 85.498 96.0156 63.3811L95.6709 48.3234Z"/>
	<path fill="#B8B8FF" d="M111.588 13.625C112.375 13.4478 113.354 13.8665 114.029 14.2511C124.472 20.1991 128.774 52.0998 129.078 62.8228C129.271 69.6079 128.959 77.2913 121.214 79.488C102.2 81.7888 103.334 60.2292 103.313 47.5683C103.299 39.1995 102.337 16.6727 111.588 13.625Z"/>
	<defs>
		<linearGradient id="gradient_1" gradientUnits="userSpaceOnUse" x1="416.88101" y1="513.35901" x2="86.270203" y2="90.526299">
			<stop offset="0" stop-color="#958BFF"/>
			<stop offset="1" stop-color="#C4C9FE"/>
		</linearGradient>
	</defs>
	<path fill="url(#gradient_1)" d="M48.5119 121.532L49.2512 120.34C53.4286 119.948 57.5839 118.718 61.7841 118.339C69.2714 117.663 76.9158 117.951 84.4399 117.517L84.6578 121.186C84.7538 122.485 84.6425 124.628 85.625 125.527L87.4511 125.875L86.5781 126.063C86.4119 133.675 85.4054 134.317 83.387 141.451C81.3783 148.551 81.2821 159.506 80.8787 167.426L80.3951 329.625L80.9027 345.375C81.0032 347.543 81.3947 349.633 81.4169 351.833L81.9298 408.174C82.1426 411.991 81.8612 415.923 82.6969 419.677C88.0627 443.778 104.411 447.405 125.832 447.981L160.484 449.133L229.525 452.389L255.717 453.173C259.015 453.269 262.498 453.034 265.767 453.333L347.851 453.701L407.568 449.978C417.475 448.927 427.533 447.947 435.904 442.067C435.967 441.783 437.337 440.586 437.606 440.296C445.237 432.038 446.37 420.583 446.402 409.896L446.444 395.603C446.527 385.181 447.268 375.107 447.278 364.424L447.335 320.194C447.387 317.632 447.984 315.162 448.027 312.623L448.107 273.137C448.138 270.541 448.578 267.991 448.61 265.401L448.68 249.673C448.745 247.54 449.254 245.488 449.307 243.357L449.319 188.246C449.147 180.204 448.548 172.879 448.615 164.655C448.64 161.556 448.29 158.077 448.646 155.034C448.914 152.737 451.608 153.974 449.466 149.522C448.498 147.51 445.327 144.751 445.451 142.435C445.71 137.579 443.036 131.766 443.67 124.342L450.144 124.787L453.921 155.5L461.602 251.579L464.403 307.5L464.59 327.625C464.706 331.833 465.415 336.016 465.501 340.226L465.509 433C465.415 436.519 464.776 439.997 464.641 443.52C464.202 454.997 465.725 471.096 458.079 480.719C445.88 496.07 409.282 494.144 391.216 494.575C388.871 494.631 386.639 495.335 384.247 495.392L273.96 495.419C271.638 495.358 269.363 494.708 267 494.621L238.125 494.486C233.472 494.4 228.819 493.628 224.163 493.516L196.225 493.405C193.637 493.331 191.119 492.657 188.475 492.601L94.2418 492.498C67.5847 492.456 51.2659 489.938 48.383 460.23L47.4935 430.272L47.4464 249.693C47.4396 244.349 47.8198 238.645 47.3141 233.341C46.9381 229.397 43.5707 230.08 41.0213 228.641L40.786 228.77C40.4825 226.162 40.5097 223.215 40.8776 220.612L41.6324 215.968C46.6198 216.916 46.6602 211.015 46.6841 207.537L47.7371 178.359C48.1179 171.731 49.8537 168.006 41.0368 166.876C41.5537 166.739 41.6586 166.79 42.0285 166.375L42.4844 155.859C42.5385 154.524 42.9334 152.832 42.4764 151.564C40.6162 150.076 37.8916 149.165 36.7801 146.875C34.6669 142.52 38.8026 139.446 42.2886 137.857C41.9603 133.711 40.7391 128.882 42.7216 125.005L42.7809 124.921C45.0707 124.372 47.1893 123.609 48.5119 121.532Z"/>
	<path fill="#291A5C" d="M42.2886 137.857C46.9134 137.546 48.7324 140.849 51.0093 144.893C49.806 146.842 45.1793 151.019 42.7104 151.541L42.4771 151.564C40.6162 150.076 37.8916 149.165 36.7801 146.875C34.6669 142.52 38.8026 139.446 42.2886 137.857Z"/>
	<path fill="#F8F7FF" d="M87.4511 125.875C95.9912 126.768 105.504 124.444 114.125 124.197L153.894 123.456C157.651 123.359 161.36 122.687 165.165 122.612L192.351 122.524C195.156 122.478 197.894 121.943 200.683 121.908L373.671 121.922C376.195 121.964 378.635 122.435 381.125 122.532L400.412 122.703C402.826 122.784 405.184 123.292 407.556 123.413L443.67 124.133C443.036 131.766 445.71 137.579 445.451 142.435C445.327 144.751 448.498 147.51 449.466 149.522C451.608 153.974 448.914 152.737 448.646 155.034C448.29 158.077 448.64 161.556 448.615 164.655C448.548 172.879 449.147 180.204 449.319 188.246L449.307 243.357C449.254 245.488 448.745 247.54 448.68 249.673L448.61 265.401C448.578 267.991 448.138 270.541 448.107 273.137L448.027 312.623C447.984 315.162 447.387 317.632 447.335 320.194L447.278 364.424C447.268 375.107 446.527 385.181 446.444 395.603L446.402 409.896C446.37 420.583 445.237 432.038 437.606 440.296C437.337 440.586 435.967 441.783 435.904 442.067C427.533 447.947 417.475 448.927 407.568 449.978L347.851 453.701L265.767 453.739C262.498 453.034 259.015 453.269 255.717 453.173L229.525 452.389L160.484 449.133L125.832 447.981C104.411 447.405 88.0627 443.778 82.6969 419.677C81.8612 415.923 82.1426 411.991 81.9298 408.174L81.4169 351.833C81.3947 349.633 81.0032 347.543 80.9027 345.375L80.3951 329.625L80.8787 167.426C81.2821 159.506 81.3783 148.551 83.387 141.451C85.4054 134.317 86.4119 133.675 86.5781 126.063L87.4511 125.875Z"/>
	<path fill="#291A5C" d="M138.448 170.414L140.557 171.685C145.362 174.622 144.544 180.473 139.501 182.2C135.062 183.721 130.078 184.319 125.513 185.553C120.27 186.97 115.228 189.293 109.839 190.029C106.811 189.51 104.711 188.186 104.315 184.829C103.272 175.993 132.433 171.154 138.448 170.414Z"/>
	<path fill="#26184D" d="M357.583 155.588L387.781 156.277C391.005 156.492 397.155 156.231 399.633 158.332C403.169 161.33 402.083 167.489 397.164 168.221C393.49 168.768 389.153 167.645 385.439 167.516L363.934 167.438C355.83 167.214 347.585 167.336 339.5 167.966L331.375 168.742C329.3 168.997 327.029 169.45 324.933 169.248C319.145 168.688 319.067 160.5 323.564 157.794L323.854 157.625C327.125 155.668 332.816 156.661 336.508 156.494L357.583 155.588Z"/>
	<path fill="#291A5C" d="M182.991 174.817C186.609 174.735 191.079 178.879 189.582 182.712C188.357 185.847 182.497 188.018 179.662 189.408L172.299 193.171C162.364 198.484 152.315 204.361 143.075 210.802L128.875 221.334C125.079 224.305 121.779 228.448 117.212 230.166C112.368 230.192 108.13 225.257 111.309 220.67C113.922 216.901 118.78 213.738 122.416 210.964C132.866 202.991 170.089 176.991 182.991 174.817Z"/>
	<path fill="#26184D" d="M352.03 182.456C363.831 182.489 390.707 184.448 398.507 190.566C403.479 194.468 401.395 202.477 395.162 201.999C393.327 201.858 391.395 200.855 389.67 200.245C373.169 194.409 356.6 193.169 339.31 194.376L355.837 209.31L363.175 217.274C365.504 219.852 369.433 223.438 369.909 227.01C370.385 230.581 363.751 235.654 360.565 232.979C358.655 231.374 357.163 229.213 355.611 227.271L350.042 220.955C345.537 216.254 340.849 211.62 335.883 207.41L325.123 198.983C307.77 185.45 344.528 182.531 352.03 182.456Z"/>
	<path fill="#26184D" d="M171.277 401.169C125.645 355.201 121.198 278.544 168.497 231.746C186.762 213.675 210.225 200.145 235.976 196.864C304.798 188.095 363.845 238.387 371.41 307.188C375.177 341.449 361.572 378.167 337.024 402.125C317.301 421.374 290.957 433.188 263.57 435.68C252.591 436.679 219.182 435.578 213.047 429.227C212.227 428.379 212.127 427.001 211.846 425.869C211.418 424.366 211.043 424.824 209.466 424.576C198.939 422.921 177.233 408.394 171.277 401.169Z"/>
	<path fill="#F8F7FF" d="M249.46 308.767C257.109 308.303 264.214 319.902 252.733 325.404C241.669 326.392 239.3 312.648 249.46 308.767Z"/>
	<path fill="#F7B082" d="M205.819 218.323L213.995 215.625C221.642 213.033 229.213 210.541 237.239 209.373L238.749 239.498L224.809 239.656L223.125 239.377L223.5 237.596C221.734 237.221 221.557 234.092 220.394 232.677C215.313 226.496 206.489 230.733 205.694 225.094C206.364 223.357 206.171 220.635 206.244 218.75L205.819 218.323Z"/>
	<path fill="#FBECA1" d="M205.694 225.094C206.489 230.733 215.313 226.496 220.394 232.677C221.557 234.092 221.734 237.221 223.5 237.596L223.125 239.377L224.809 239.698C216.719 240.842 211.192 242.891 203.973 246.12C189.429 255.27 182.809 269.429 179.05 285.942L176.409 304.56L172.322 304.939L172.336 287.875C172.356 284.082 172.197 280.251 172.422 276.465C173.533 257.79 177.868 241.27 196.252 232.676C199.868 229.806 201.968 229.084 205.694 225.094Z"/>
	<path fill="#FFDEAC" d="M205.694 225.094C206.489 230.733 215.313 226.496 220.394 232.677C221.557 234.092 221.734 237.221 223.5 237.596L223.125 239.377L224.809 239.698C216.719 240.842 211.192 242.891 203.973 246.12L208.375 243.5C208.721 243.362 208.953 243.32 209.227 243.048L210.125 242.75C210.722 242.494 211.23 242.414 211.863 242.036L212.125 241.877C212.686 241.945 212.903 241.792 213.426 241.688L214.438 241.438C215.23 241.144 216.102 240.849 216.93 240.684L219.125 240.25C219.683 240.058 220.13 240.055 220.699 239.941L222.25 239.625C222.261 238.976 222.392 237.923 222.163 237.335L222.04 237.085C219.323 230.096 216.041 230.209 209.29 228.656L208.938 228.562C207.892 228.394 207.117 228.205 206.126 227.812L205.82 227.945C205.155 228.092 204.372 228.065 203.877 227.625C202.145 229.092 198.971 232.285 196.741 232.625L196.252 232.676C199.868 229.806 201.968 229.084 205.694 225.094Z"/>
	<path fill="#F8F7FF" d="M205.819 218.323L206.244 218.75C206.171 220.635 206.364 223.357 205.694 225.094C201.968 229.084 199.868 229.806 196.252 232.676C177.868 241.27 173.533 257.79 172.422 276.465C172.197 280.251 172.356 284.082 172.336 287.875L172.265 304.939L146.762 308.451C149.011 286.376 154.274 264.281 168.652 246.826C176.206 237.655 194.803 222.461 205.819 218.323Z"/>
	<path fill="#F8F7FF" d="M270.419 310.172L269.625 310.287C265.813 306.12 265.624 303.228 259.427 299.313C255.599 296.894 257.294 298.164 256.722 292.921L248.414 207.882C256.51 207.365 264.469 208.312 272.398 209.881C315.5 218.41 350.04 252.616 357.781 296.25C358.286 299.101 358.973 302.112 359.164 305L359.416 311.32L351.81 311.479L345.997 311.317C343.994 274.577 320.479 232.451 283.422 221.875C279.561 220.773 267.504 217.786 264.321 219.723C260.86 221.83 262.067 228.213 262.149 231.565L262.484 243.507C263.028 251.507 264.179 259.507 265.536 267.407L266.986 275.06C267.542 277.625 269.011 281.648 268.422 284.204L268.358 284.462C268.513 286.346 268.882 289.175 268.409 290.991C269.39 295.77 270.063 300.55 271.303 305.283C272.623 310.315 274.431 309.341 270.419 310.172Z"/>
	<path fill="#FE97C4" d="M268.358 284.462C268.513 286.346 268.882 289.175 268.409 290.991C266.991 289.435 264.482 290.255 265.002 287C265.22 285.631 267.281 285.103 268.358 284.462Z"/>
	<path fill="#FF82C3" d="M268.358 284.462L268.422 284.204C269.011 281.648 267.542 277.625 266.986 275.06L265.536 267.407C264.179 259.507 263.028 251.507 262.484 243.507L262.149 231.565C262.067 228.213 260.86 221.83 264.321 219.723C267.504 217.786 279.561 220.773 283.422 221.875C320.479 232.451 343.994 274.577 345.997 311.317L351.81 311.424L270.419 310.285C274.431 309.341 272.623 310.315 271.303 305.283C270.063 300.55 269.39 295.77 268.409 290.991C268.882 289.175 268.513 286.346 268.358 284.462Z"/>
	<path fill="#9381FF" d="M165.86 318.282C171.532 317.137 177.689 317.109 183.472 316.792C182.649 319.518 183.016 322.17 183.297 324.976C185.876 350.7 200.146 371.639 225.93 379.164L239.427 381.921C241.526 382.379 243.762 382.372 245.902 382.413L255.747 382.445C257.815 381.749 260.403 381.879 262.56 381.762C264.147 381.728 265.587 381.761 267.139 382.125L267.523 382.21C272.74 383.436 272.791 390.478 273.811 394.678L281.281 419.834C267.945 426.175 237.452 424.512 224.315 419.859L218.527 417.49C215.743 419.295 212.671 422.256 211.9 425.61L211.846 425.869C211.418 424.366 211.043 424.824 209.466 424.576C198.939 422.921 177.233 408.394 171.277 401.169C174.599 400.276 180.426 396.004 178.35 392.198C176.984 389.695 174.485 387.313 172.657 385.116L167.302 377.98C157.014 363.209 150.934 347.201 148.379 329.405L147.645 323.509C147.542 322.519 147.316 321.334 147.491 320.357L165.86 318.282Z"/>
	<path fill="#FBECA1" d="M165.86 318.282C171.532 317.137 177.689 317.109 183.472 316.792C182.649 319.518 183.016 322.17 183.297 324.976C185.876 350.7 200.146 371.639 225.93 379.164L239.427 381.921C241.526 382.379 243.762 382.372 245.902 382.413L255.747 382.445C258.148 393.598 249.648 394.56 240.359 394.13C195.495 392.051 178.2 368.089 168.146 328.522L165.86 318.282Z"/>
	<defs>
		<linearGradient id="gradient_2" gradientUnits="userSpaceOnUse" x1="184.138" y1="313.664" x2="350.397" y2="361.12799">
			<stop offset="0" stop-color="#4BEBF5"/>
			<stop offset="1" stop-color="white"/>
		</linearGradient>
	</defs>
	<path fill="url(#gradient_2)" d="M183.472 316.761L186.423 316.728C188.012 310.528 188.573 304.193 189.659 297.898C193.828 273.743 202.297 251.503 229.854 251.303L240.197 251.429C241.327 255.279 241.437 259.861 241.799 263.862L244.428 293.875C244.598 295.111 245.042 296.595 244.948 297.826L244.566 297.982C225.323 305.942 227.597 337.587 252.11 337.166C252.455 337.161 253.176 337.025 253.447 337.134C259.659 335.894 264.273 332.612 267.792 327.331C268.661 326.026 269.18 324.362 270.128 323.17L358.758 324.303C357.735 361.711 326.281 400.663 293.171 415.385C289.297 417.107 285.27 418.413 281.281 419.834L273.811 394.678C272.791 390.478 272.74 383.436 267.523 382.21L267.139 382.125C265.587 381.761 264.147 381.728 262.56 381.712C260.403 381.879 257.815 381.749 255.747 382.38L245.902 382.413C243.762 382.372 241.526 382.379 239.427 381.921L225.93 379.164C200.146 371.639 185.876 350.7 183.297 324.976C183.016 322.17 182.649 319.518 183.472 316.761Z"/>
</svg>
