<?xml version="1.0" encoding="utf-8" ?>
<svg xmlns="http://www.w3.org/2000/svg" xmlns:xlink="http://www.w3.org/1999/xlink" width="512" height="512">
	<path fill="#2A1046" d="M355.76 493.28L391.485 493.637C406.087 493.661 423.667 495.156 434.942 483.942C448.241 470.716 448.783 447.23 448.847 429.844L448.88 421.425C448.944 408.137 459.91 409.152 462.412 415.869C462.843 417.024 462.724 418.414 462.689 419.625L462.462 425.907C461.896 453.539 460.426 492.391 429.005 502.511C417.306 506.279 404.673 506.404 392.496 506.407L358.38 506.398C356.101 506.394 352.753 506.784 350.654 505.923L350.4 505.823C347.683 504.676 347.524 499.534 347.854 497.168C349.203 493.96 352.795 493.839 355.76 493.28Z"/>
	<defs>
		<linearGradient id="gradient_0" gradientUnits="userSpaceOnUse" x1="295.35199" y1="256.07599" x2="35.528099" y2="288.186">
			<stop offset="0" stop-color="#151A12"/>
			<stop offset="1" stop-color="#5D05FF"/>
		</linearGradient>
	</defs>
	<path fill="url(#gradient_0)" d="M56.5555 32.3901C59.386 34.1667 63.3849 39.9022 66.4884 39.9321C57.7164 62.9206 60.2672 84.7787 60.4557 108.244L60.5395 144.25C60.5831 146.191 60.8572 148.167 60.9661 150.112L62.337 183.2L62.5356 197.361C62.5555 199.9 62.4531 202.581 62.8909 205.087L65.4071 254.841L65.4996 269.932C65.5264 275.196 66.1595 280.288 66.289 285.539L66.9631 331.016C67.0023 333.716 67.4555 336.4 67.4856 339.124L67.5417 392.98C67.5514 397.386 68.2526 401.784 68.2716 406.24L69.1571 446.258C70.0357 472.143 67.4949 485.728 99.0332 489.351C104.706 490.002 110.496 490.705 116.198 490.915C120.916 491.089 126.152 490.843 130.777 491.764L168.516 493.517L179.863 493.688C182.264 493.807 184.556 494.323 187 494.352L301.744 494.35C309.142 494.157 320.824 490.3 325.458 497.99C325.673 503.248 324.005 506.173 318.585 506.327L167.402 506.213L167.183 506.231C162.565 504.923 156.481 505.513 151.664 505.466L140.409 504.989C136.354 504.843 132.343 504.861 128.313 504.296L107.127 502.96C97.1257 502.196 86.0526 501.972 76.915 497.394C53.5674 485.698 57.3891 457.953 56.9439 436.152C56.8908 433.556 56.2504 430.964 56.1945 428.408L55.1447 338.134C55.0917 335.839 54.6783 333.589 54.6363 331.303L54.1506 291.836C54.0941 289.898 53.76 287.994 53.6927 286.065L53.0604 262.957L49.639 185.25L49.1034 161.245C49.0463 159.736 48.7212 158.257 48.6521 156.75L48.0449 128.659C48.0026 126.93 47.7042 125.224 47.6681 123.5L48.4496 72C49.2291 58.8769 50.4353 44.2789 56.5555 32.3901Z"/>
	<path fill="#2A1046" d="M56.5555 32.3901C66.7188 10.8195 88.4121 7.684 109.591 5.70264L124.406 4.19457L158.375 2.59579C160.565 2.49409 162.718 2.14472 164.924 2.08428L303.138 2.02623C333.963 2.03609 351.081 0.497127 375.135 20.9298L390.142 35.0052L432.025 77.3861C459.911 106.038 460.801 116.38 463.896 157.614L465.444 184.484C465.595 187.267 466.036 190.016 466.124 192.817L466.133 299C466.063 300.971 465.517 302.91 465.441 304.898L465.345 321.54C465.314 323.205 464.998 324.839 464.932 326.5L464.363 361.396C464.349 365.636 464.798 371.557 462.993 375.465C460.546 380.764 452.412 379.92 451.294 374.234L451.159 373.514C450.65 370.575 451.257 367.185 451.301 364.179L452.003 334.711C452.148 332.555 452.441 330.461 452.474 328.289L452.568 306.75C452.634 304.141 453.33 301.603 453.375 298.945L453.345 185.037C453.277 183.146 452.808 181.378 452.702 179.522L450.909 152.836C449.854 141.764 448.891 131.134 445.801 120.403L445.537 120.47C439.302 122.003 434.843 120.354 432.085 114.51C430.173 112.611 427.947 112.334 425.629 111.282L425.351 111.686C427.635 122.697 411.274 121.283 404.569 121.329C369.807 121.565 354.346 113.894 349.207 77L348.01 65.5C347.832 63.8461 347.551 62.2546 347.468 60.5811L347.292 30.9355L347.265 28.7425C347.026 28.5599 346.652 28.2526 346.499 28.0012L344.875 26.5C344.63 26.2449 344.32 25.904 343.999 25.7512L343 25.3775C342.615 25.1974 342.281 25.0042 341.874 24.8684L340.25 24.3775C339.583 24.0313 338.749 23.8775 338 23.8775L336.375 23.5679C333.81 22.8228 331.038 23.3463 328.375 23.1275C321.009 22.5221 313.602 22.1264 306.25 21.3257C304.24 21.1068 302.213 20.8941 300.188 20.8966L259.896 19.8747C258.473 19.8585 255.016 20.3528 253.794 19.7939C253.234 17.3816 245.097 15.7503 242.964 15.6709C240.332 15.5729 238.984 14.515 236.785 13.4574L236.801 12.7512C237.326 12.7492 237.482 12.4535 237.875 12.1275L237.772 11.5577L228.554 11.6094L204.017 11.5878C202.267 11.5426 199.751 10.7071 198.834 10.7277C196.56 10.7787 193.966 11.8888 191.687 12.3075C189.218 12.7614 186.689 12.8338 184.192 13.0596L113.773 17.6158C96.519 19.5665 73.9301 21.351 66.4884 39.9321C63.3849 39.9022 59.386 34.1667 56.5555 32.3901ZM237.772 11.5577L237.875 12.1275C237.482 12.4535 237.326 12.7492 236.801 12.7512L236.785 13.4574C238.984 14.515 240.332 15.5729 242.964 15.6709C245.097 15.7503 253.234 17.3816 253.794 19.7939C255.016 20.3528 258.473 19.8585 259.896 19.8747L300.188 20.8966C302.213 20.8941 304.24 21.1068 306.25 21.3257C313.602 22.1264 321.009 22.5221 328.375 23.1275C331.038 23.3463 333.81 22.8228 336.375 23.5679L338 23.8775C338.749 23.8775 339.583 24.0313 340.25 24.3775L341.874 24.8684C342.281 25.0042 342.615 25.1974 343 25.3775L343.999 25.7512C344.32 25.904 344.63 26.2449 344.875 26.5L346.499 28.0012C346.652 28.2526 347.026 28.5599 347.292 28.7425L347.346 18.4261C334.831 12.4204 304.681 12.8591 290.658 12.1155C280.055 11.5533 269.577 10.2081 258.93 10.8475C256.66 10.9839 254.431 11.4329 252.151 11.5212L237.772 11.5577Z"/>
	<path fill="#B8B8FF" d="M425.351 111.686C423.608 107.364 422.716 106.982 418.215 107.282C381.689 109.715 364.931 111.607 361.437 70.5456L360.47 26.1775C369.595 33.442 377.875 41.4579 386.193 49.6197L430.148 94.6737C446.706 112.753 436.809 104.163 432.085 114.51C430.173 112.611 427.947 112.334 425.629 111.282L425.351 111.686Z"/>
	<defs>
		<linearGradient id="gradient_1" gradientUnits="userSpaceOnUse" x1="146.745" y1="286.17801" x2="373.55899" y2="55.027901">
			<stop offset="0" stop-color="#BABAFF"/>
			<stop offset="1" stop-color="#FBFEFD"/>
		</linearGradient>
	</defs>
	<path fill="url(#gradient_1)" d="M184.192 13.0507C186.689 12.8338 189.218 12.7614 191.687 12.3075C193.966 11.8888 196.56 10.7787 198.834 10.7277C199.751 10.7071 202.267 11.5426 204.017 11.5878L228.554 11.6016L237.772 11.5977L237.875 12.1275C237.482 12.4535 237.326 12.7492 236.801 12.7512L236.785 13.4574C238.984 14.515 240.332 15.5729 242.964 15.6709C245.097 15.7503 253.234 17.3816 253.794 19.7939C255.016 20.3528 258.473 19.8585 259.896 19.8747L300.188 20.8966C302.213 20.8941 304.24 21.1068 306.25 21.3257C313.602 22.1264 321.009 22.5221 328.375 23.1275C331.038 23.3463 333.81 22.8228 336.375 23.5679L338 23.8775C338.749 23.8775 339.583 24.0313 340.25 24.3775L341.874 24.8684C342.281 25.0042 342.615 25.1974 343 25.3775L343.999 25.7512C344.32 25.904 344.63 26.2449 344.875 26.5L346.499 28.0012C346.652 28.2526 347.026 28.5599 347.265 28.7425L347.287 30.9355C347.012 32.5057 345.813 32.9818 344.499 33.4988L344.077 33.6863C343.66 33.8649 343.425 33.9017 342.999 33.9887L341.742 34.3446C339.884 34.8896 337.258 34.6184 335.305 34.6244L318.875 34.3859C311.819 34.2055 302.146 34.4378 295.375 33.3177C287.269 31.9767 278.873 32.7051 270.75 31.694C267.237 31.2567 263.304 31.8494 259.875 30.9031L258.251 30.647C254.424 30.1068 253.525 28.3439 250.5 27.2913L250.215 27.1836C248.763 26.6696 247.135 26.6377 245.607 26.5326L236.264 26.2297C220.455 25.9557 227.737 29.0331 218.134 32.0606C214.259 33.2822 208.744 32.6105 204.676 32.5929L183.785 32.5989C180.16 32.6068 176.343 32.3752 172.739 32.7028C172.748 34.8969 172.537 37.3483 172.931 39.5004L200.75 39.5924L233.234 40.7338L310.048 41.6552C316.433 42.0088 322.897 42.0771 329.249 42.832L333.271 43.5026C333.319 54.3493 334.122 65.3066 335.347 76.0803C338.885 107.22 346.175 131.54 380.421 136.169C386.965 137.054 393.456 137.483 400.053 137.535L416.806 137.579C422.356 137.589 427.555 137.577 433.049 138.468C438.512 139.354 437.863 145.822 438.525 150.06C439.738 157.812 439.942 165.579 440.532 173.386L441.779 190.353L441.762 236.071L436.452 322.802C434.166 323.008 431.247 322.591 428.875 322.547L399.641 321.509L355.814 320.721L357.017 316.01C368.373 259.204 333.504 202.404 275.502 191.09C247.642 185.656 220.727 191.933 197.275 207.737L196.375 207.515C186.119 205.188 175.975 204.619 165.515 203.638L130.395 201.754C113.241 201.468 96.2186 202.283 79.1299 203.676L69.0773 204.438C67.0479 204.585 65.0092 204.627 63.0157 205.065C62.4531 202.581 62.5555 199.9 62.5356 197.361L62.337 183.2L60.9661 150.112C60.8572 148.167 60.5831 146.191 60.5395 144.25L60.4557 108.244C60.2672 84.7787 57.7164 62.9206 66.4884 39.9321C73.9301 21.351 96.519 19.5665 113.773 17.6158L184.192 13.0507ZM184.192 13.0596C185.665 13.5902 187.555 13.2388 189.127 13.4391L189.625 13.4999C191.275 13.9523 194.771 14.589 195.125 16.862L185.875 16.9002L195.633 16.9324C210.825 16.9464 205.732 19.9499 215.353 24.778C220.81 23.1347 222.323 16.9441 226.834 14.4054L227.321 14.125C228.136 13.4716 228.386 12.6173 228.554 11.6016L204.017 11.5878C202.267 11.5426 199.751 10.7071 198.834 10.7277C196.56 10.7787 193.966 11.8888 191.687 12.3075C189.218 12.7614 186.689 12.8338 184.192 13.0596Z"/>
	<path fill="#F7011F" d="M177.913 92.9656C190.349 92.2554 187.727 106.375 180.962 107.301C178.114 107.691 174.914 107.419 172.018 107.423L134.987 107.531C132.986 107.614 131.056 108.152 129.077 108.199L101.257 109.213C89.4811 109.298 89.333 97.2079 98.1379 95.4439C102.387 94.5928 107.177 94.7122 111.504 94.5997L125.77 94.157C128.317 94.0932 130.834 93.5738 133.375 93.5119L177.913 92.9656Z"/>
	<path fill="#2A1046" d="M161.826 149.381L271.925 151.033C275.734 151.428 280.218 154.292 279.598 158.695L279.499 159.325C278.203 166.92 269.044 164.548 263.712 164.125L246 162.679C238.84 162.036 231.515 162.231 224.307 161.848L217.062 161.757L105.39 164.728C97.3397 164.026 97.563 156.838 102.875 152.721L103.625 152.161C106.083 150.777 110.51 151.344 113.229 151.237L144.615 150.008C146.077 149.9 147.551 149.588 149 149.516L161.826 149.381Z"/>
	<defs>
		<linearGradient id="gradient_2" gradientUnits="userSpaceOnUse" x1="49.847401" y1="395.207" x2="427.41599" y2="290.995">
			<stop offset="0" stop-color="#8070FF"/>
			<stop offset="1" stop-color="#C4C6FF"/>
		</linearGradient>
	</defs>
	<path fill="url(#gradient_2)" d="M197.275 207.737C220.727 191.933 247.642 185.656 275.502 191.09C333.504 202.404 368.373 259.204 357.017 316.01L355.814 320.775L399.641 321.476L428.875 322.547C431.247 322.591 434.166 323.008 436.479 322.627L434.901 359.491C434.628 363.499 434.722 367.904 434.007 371.847L432.371 402.22L431.769 451.808C429.425 483.403 396.083 487.346 370.513 490.805C366.864 491.299 358.591 491.033 355.76 493.28C352.795 493.839 349.203 493.96 347.854 497.168L332.606 497.322C330.784 497.329 327.206 496.922 325.59 497.591L325.458 497.808C320.824 490.3 309.142 494.157 301.744 494.35L187 494.352C184.556 494.323 182.264 493.807 179.863 493.688L168.516 493.581L130.777 491.775C126.152 490.843 120.916 491.089 116.198 490.915C110.496 490.705 104.706 490.002 99.0332 489.351C67.4949 485.728 70.0357 472.143 69.1571 446.258L68.2716 406.24C68.2526 401.784 67.5514 397.386 67.5417 392.98L67.4856 339.124C67.4555 336.4 67.0023 333.716 66.9631 331.016L66.289 285.539C66.1595 280.288 65.5264 275.196 65.4996 269.932L65.4071 254.841L63.0877 205.087C65.0092 204.627 67.0479 204.585 69.0773 204.438L79.1299 203.676C96.2186 202.283 113.241 201.468 130.395 201.754L165.515 203.638C175.975 204.619 186.119 205.188 196.375 207.515L197.275 207.737Z"/>
	<path fill="#2A1046" d="M401.792 406.605L402.068 406.581C412.722 405.733 413.548 418.838 405.114 419.852C399.832 420.487 391.262 420.416 385.375 420.645L368.018 420.81L329.143 422.297C327.424 422.373 325.725 422.672 324 422.702L286.815 422.783C283.694 422.803 280.633 423.27 277.538 423.346L243.654 423.374C230.659 422.852 233.448 411.03 240.195 410.674C242.468 410.554 244.793 410.728 247.071 410.745L322.868 410.63C327.029 410.45 331.173 409.717 335.361 409.617L355.353 409.445L401.792 406.605Z"/>
	<path fill="#B8B8FF" d="M84.5872 302.625L85.2533 302.539C94.5263 306.313 96.1031 319.827 96.7659 328.541L97.4431 348.514C97.472 350.832 97.851 353.077 97.922 355.375L98.2459 396.121C98.7947 420.938 100.525 452.356 130.628 458.216C135.863 459.235 141.313 459.626 146.633 459.802L162.838 459.993C169.27 460.034 175.286 460.324 181.024 463.586C185.485 466.121 188.905 471.359 181.971 472.671C177.178 473.528 172.345 473.493 167.5 473.729L144.922 474.166C127.485 473.653 110.308 471.363 97.7511 457.86C83.7626 442.817 83.6374 418.984 82.8254 399.738C82.7218 397.283 82.3191 394.822 82.2641 392.375L82.1522 316.341C82.0683 311.498 80.3258 306.303 84.5872 302.625Z"/>
	<path fill="#2A1046" d="M197.275 207.737C220.727 191.933 247.642 185.656 275.502 191.09C333.504 202.404 368.373 259.204 357.017 316.01L355.814 320.775C339.942 370.284 292.103 402.056 239.976 394.606C213.133 390.769 186.918 374.993 170.639 353.185C142.427 315.393 146.726 260.54 177.428 225.572C183.358 218.817 190.097 213.101 197.275 207.737Z"/>
	<path fill="#F8F7FF" d="M251.343 201.628C302.381 202.353 344.635 238.388 346.638 290.75C348.474 338.75 307.218 381.017 259.629 382.807C220.002 384.699 184.66 362.217 169.844 324.973C161.182 303.199 162.874 278.013 172.128 256.744C184.437 228.453 216.266 203.239 247.963 201.549C248.953 201.496 250.453 201.241 251.343 201.628Z"/>
	<path fill="#2A1046" d="M311.69 275.773C321.37 275.393 322.638 293.403 313.396 295.783C302.886 295.773 301.489 278.795 311.69 275.773Z"/>
	<path fill="#2A1046" d="M199.198 275.292C208.876 275.735 210.19 293.494 199.947 295.37C189.174 294.587 189.369 277.493 199.198 275.292Z"/>
	<path fill="#2A1046" d="M211.875 231.093C215.122 231.276 216.994 232.42 219.375 234.576L224.816 239.667C227.801 242.487 231.226 245.03 231.384 249.5C231.512 253.101 229.565 257.2 225.504 257.158C220.864 255.483 217.893 251.351 214.407 248.093C211.083 244.988 202.116 239.289 206.353 233.778C207.853 231.827 209.552 231.345 211.875 231.093Z"/>
	<path fill="#2A1046" d="M300.112 230.583L301.863 230.779C305.619 231.448 307.603 235.228 306.854 238.813L306.783 239.125C306.105 242.23 290.907 255.579 287.811 256.578C286.111 256.624 284.534 256.457 283.125 255.412C274.26 248.835 293.505 231.407 300.112 230.583Z"/>
	<path fill="#2A1046" d="M241.135 332.838L241.426 332.836C248.028 332.688 251.966 324.132 259.125 326.524C263.556 328.005 266.746 331.385 270.892 333.315L271.41 332.92C274.297 330.741 278.706 333.871 280.429 336.204C289.788 348.877 248.55 371.144 232.125 344.754C227.447 337.237 232.164 329.867 240.692 332.681L241.135 332.838Z"/>
	<path fill="#F7011F" d="M241.135 332.838L241.426 332.836C248.028 332.688 251.966 324.132 259.125 326.524C263.556 328.005 266.746 331.385 270.892 333.315C268.587 338.015 265.94 341.663 260.817 343.461C254.658 345.623 244.867 343.327 242.259 336.654C241.833 335.562 241.669 334.391 241.29 333.282L241.135 332.838Z"/>
	<path fill="#2A1046" d="M242.176 274.358C246.833 273.97 251.7 274.231 256.384 274.225L267.002 274.217C279.96 274.239 286.703 280.765 282.394 294.711C280.034 302.348 274.07 308.516 267.105 312.205C237.36 328.381 211.707 276.51 242.176 274.358Z"/>
	<path fill="#F7011F" d="M241.616 286.625C244.461 286.31 247.756 286.69 250.657 286.701L271.013 287.031C271.707 290.757 268.025 295.138 265.72 297.581C257.159 304.766 245.777 302.149 241.257 292.125C240.457 290.351 239.163 287.345 241.616 286.625Z"/>
</svg>
