<?xml version="1.0" encoding="utf-8" ?>
<svg xmlns="http://www.w3.org/2000/svg" xmlns:xlink="http://www.w3.org/1999/xlink" width="512" height="512">
	<path fill="#23232B" d="M110.257 2.14321L340.772 2.01141C359.195 2.04428 373.344 19.7935 385.551 32.0508L403.692 49.6505L447.283 88.125C449.532 90.2631 451.608 92.3798 452.974 95.2096L453.155 95.5904C458.344 106.371 455.212 120.679 445.688 127.894L446.935 153.25C447.033 155.406 447.344 157.534 447.384 159.697L447.434 175.721C447.436 177.849 447.12 180.624 447.557 182.664L451.095 182.398C454.601 181.984 458.252 182.017 461.784 181.999L473.827 182.083C497.114 183.329 504.242 194.171 506.05 215.022C506.965 225.581 506.699 235.99 506.708 246.587L506.593 311.712C506.499 316.314 505.626 320.894 505.542 325.5L505.46 369.602C505.426 372.241 504.958 374.829 504.905 377.433L503.181 413.5C501.672 426.085 498.664 441.122 486.232 447.485C478.693 451.344 468.873 450.411 460.652 450.426C453.29 450.439 451.986 448.563 448.794 455.039C436.228 480.537 438.242 501.492 405.472 508.093L397.516 509.47C392.659 510.285 387.378 509.933 382.456 509.937L115.921 509.891L59.9857 508.959C51.6888 508.965 43.4412 509.637 35.2891 507.873C18.2602 504.188 8.0566 493.244 6.49681 475.961C6.10703 471.642 6.42196 467.071 6.43305 462.719L6.53548 371.784C6.56003 369.532 6.96741 367.343 7.03125 365.125L7.38163 297.987C7.38771 291.735 6.83797 284.914 7.8211 278.748C8.33836 275.503 9.45786 268.529 8.57961 265.657C5.54037 255.715 6.48607 255.601 6.51046 245.064L6.6089 217.004C6.66744 215.256 7.01841 213.58 7.09732 211.852L7.50777 202.864C7.6088 201.061 7.63687 199.236 8.10387 197.481L8.23512 197C10.909 186.914 21.2051 180.625 29.7441 175.955C33.7039 173.789 33.0365 174.877 33.0607 170.029L33.1042 155.315C33.1337 146.211 32.7337 133.32 38.0192 125.369L38.269 125C44.7411 115.257 58.7386 111.181 69.6461 110.077L67.9429 83.7789L67.7324 56.0792C67.7022 29.8333 69.34 12.1561 99.1829 4.16499C102.838 3.18638 106.469 2.33249 110.257 2.14321ZM330.672 244.489C328.675 245.1 326.484 245.878 324.373 245.795L287.144 245.456L274.755 245.459L262.308 245.904L238.533 247.363C237.429 247.246 227.485 248.046 226.296 248.982C223.369 248.752 211.655 248.642 209.114 249.691C207.448 249.376 196.423 250.294 194.801 250.688L175.929 252.581L20.7792 263.857L21.2257 276.145L21.495 281.65L21.791 289.855C21.8118 291.821 21.5538 294.8 21.9931 296.594L22.2069 298.119L22.2522 310.918L22.7013 337.781L22.7401 351.775C22.2861 354.175 22.7445 362.452 22.2649 363.556L22.4698 375.707C22.0634 377.765 22.2331 380.037 22.2568 382.132L22.2519 397.812L22.286 401.866L22.2576 409.8L22.2678 413.67L22.2936 431.029L22.3002 437.519L22.2841 447.301L22.1823 464.25C22.026 469.719 21.2374 475.254 22.1376 480.704C24.5959 483.704 23.9666 477.412 24.1952 476.428L24.2471 476.215C23.7858 473.351 25.1557 470.337 26.2294 467.692C34.6235 464.493 36.7336 464.479 45.0087 465.958L53.1848 467.21L56.8775 468.375C58.0733 468.806 60.0075 470.08 61.2029 469.938C59.8066 468.281 58.8087 466.595 57.0942 465.199C56.2817 464.95 55.4742 464.53 54.693 464.192C50.2063 461.564 46.6457 457.397 42.1952 454.951C42.2682 453.804 43.743 453.033 44.6056 452.253C52.9263 450.127 55.4408 456.487 63.9836 456.59L108.317 455.554C110.277 455.401 112.198 454.981 114.159 454.868L127.702 454.739L165.811 454.248C167.87 454.318 170.395 454.735 172.411 454.59C179.051 455.628 196.872 455.172 203.026 454.007L215.616 454.097L263.842 453.996C264.446 453.561 265.886 453.316 266.639 453.052C268.357 446.078 265.656 447.995 276.783 447.796C274.702 447.554 272.503 447.763 270.408 447.829C288.313 439.548 291.12 433.584 303.943 421.4L305 421.204C306.588 420.953 308.049 420.026 309.498 419.351C322.963 413.074 329.372 401.157 341.36 393.791C353.719 386.197 367.033 379.975 379.868 373.221L444.799 339.078L476.027 322.359C479.315 320.598 488.298 314.608 491.369 315.133L491.994 315.172C492.283 310.91 492.169 306.553 492.177 302.28L492.171 225.383C492.154 218.992 491.051 207.266 487.473 202.133C481.372 193.382 467.556 193.577 458.055 193.589L431.211 194.256C422.2 194.582 413.145 194.481 404.16 195.342C399.09 195.827 393.65 198.109 388.625 197.861C386.415 197.752 384.73 195.862 382.572 195.494L382.25 195.446C376.997 194.593 369.292 197.112 365.52 200.892C362.807 203.61 361.267 207.757 359.268 211.022C355.892 216.535 351.948 221.679 348.291 227.003C342.428 235.54 340.646 239.995 330.672 244.489ZM84.8744 137.343L84.9234 146.967C84.2925 151.763 84.79 159.331 85.5172 163.991C86.0491 167.4 85.722 171.237 85.7251 174.705L85.7761 196.357C85.8182 198.731 86.1475 201.027 86.2619 203.375L87.463 231.552L87.6068 248.923C92.4504 248.308 97.3099 248.541 102.158 248.206L273.929 237.116L314.923 237.686C328.893 237.65 328.277 232.936 336.019 221.648L345.021 208.886C355.987 193.657 363.678 188.508 382.911 186.53C395.248 185.261 407.702 186.015 420.085 185.172L433.489 184.576C434.052 180.961 433.627 176.691 433.633 172.979L432.418 130.375C432.101 125.174 431.92 124.325 428.805 120.058C432.696 111.414 437.446 114.105 443.237 113.177C443.71 110.98 443.75 109.147 443.582 106.908C437.831 108.116 432.251 107.951 426.414 107.963L408.984 108.009C405.537 108.027 401.769 107.811 398.374 108.409C386.514 110.498 365.187 110.418 355.706 102.972C343.072 93.0511 346.59 76.5722 345.607 62.5162L341.626 18.544C340.707 9.39377 339.255 10.4676 329.352 10.4416L122.103 10.5599C109.677 11.1295 83.4847 13.6647 81.8333 28.5742C80.8892 37.0985 81.8008 46.2196 82.3276 54.7347L84.3232 93.125C84.739 99.4923 84.4776 106.027 84.4828 112.411L84.8744 137.343ZM22.1454 201.679L22.17 207.677L22.2529 209.751L23.4275 232.296L23.4794 250.717C28.1904 250.68 45.4794 251.473 49.1731 249.859C46.8471 248.905 61.5333 241.791 65.294 239.816L69.3175 237.282C70.8826 236.23 72.8223 234.454 74.75 234.5L75.2305 234.992L74.7684 219.142L74.5917 215.534L73.6895 202.53L73.5876 194.228L73.5832 179.445C67.8479 179.825 62.2638 180.779 56.5684 181.475L46.6581 182.76C40.3813 183.546 20.5149 187.703 21.3413 196.75L22.1454 201.679ZM396.789 491.897L386.008 496.135C387.085 497.536 387.837 499.787 389.052 500.966L390.029 501.15C389.661 501.234 389.414 501.309 389.086 501.482L398.086 501.279C414.8 501.765 426.693 486.415 431.627 472.017C427.836 472.919 414.844 484.652 407.519 487.828L396.789 491.897ZM72.2861 150.295L70.8803 152.565C69.298 154.628 68.2082 157.073 66.625 159.042L66.3784 159.354C63.3493 163.126 59.6457 166.46 55.6128 169.116C54.1646 170.07 51.7255 170.935 50.5907 172.165L50.9227 172.375C58.6156 171.136 66.2858 170.179 73.6645 167.481L73.4529 151.879L73.125 149.569L72.2861 150.295ZM65.294 239.816C61.5333 241.791 46.8471 248.905 49.1731 249.935C50.0083 249.536 51.7127 249.608 52.6624 249.518L62.6795 248.492C63.2994 248.291 63.8936 248.108 64.4631 247.783L65.9438 247.026C67.633 246.56 69.354 245.55 70.9283 244.783L75.1393 242.606L75.2735 239.491L75.2154 234.992L74.75 234.5C72.8223 234.454 70.8826 236.23 69.3175 237.282L65.294 239.816ZM59.3075 121.007C52.4492 123.995 47.3273 128.721 46.3501 136.302C46.6626 137.776 48.2266 136.296 48.9884 135.79C54.2851 131.89 56.1797 129.438 62.8262 125.756L68.9743 122.506C69.9443 122.011 71.1831 121.732 71.9806 121L71.982 119.515C68.795 118.263 62.274 119.925 59.3075 121.007Z"/>
	<path fill="#9381FF" d="M71.7738 246.965C73.0354 246.286 73.8936 245.535 75.3325 245.853L75.5079 247.705C74.6599 248.473 71.6282 247.979 70.3719 248.315C70.821 247.532 71.1805 247.296 71.7738 246.965Z"/>
	<path fill="#B8B8FF" d="M75.2926 239.491L75.2934 245.853C73.8936 245.535 73.0354 246.286 71.7738 246.965C71.1805 247.296 70.821 247.532 70.3719 248.061L62.6795 248.395C63.2994 248.291 63.8936 248.108 64.4631 247.783L65.9438 247.026C67.633 246.56 69.354 245.55 70.9283 244.783L75.1393 242.606L75.2926 239.491Z"/>
	<defs>
		<linearGradient id="gradient_0" gradientUnits="userSpaceOnUse" x1="379.625" y1="503.306" x2="388.77301" y2="498.30099">
			<stop offset="0" stop-color="#CAC8FF"/>
			<stop offset="1" stop-color="#EBEBFF"/>
		</linearGradient>
	</defs>
	<path fill="url(#gradient_0)" d="M378.088 502.058L378.37 500.625C380.743 498.878 383.404 497.502 386.008 496.135C387.085 497.536 387.837 499.787 389.052 500.966L390.029 501.15C389.661 501.234 389.414 501.309 389.086 501.477L382.223 501.793C380.911 501.847 379.356 501.748 378.088 502.058Z"/>
	<path fill="#9381FF" d="M71.982 119.515C72.8131 122.776 72.5117 126.808 72.4852 130.164C71.7827 130.592 71.0898 131.01 70.3233 131.338L55.249 137.154C53.8505 138.05 52.8302 139.03 51.7141 140.256C49.7798 140.301 47.8405 139.954 45.93 139.681L46.3501 136.302C46.6626 137.776 48.2266 136.296 48.9884 135.79C54.2851 131.89 56.1797 129.438 62.8262 125.756L68.9743 122.506C69.9443 122.011 71.1831 121.732 71.9806 121L71.982 119.515Z"/>
	<path fill="#B8B8FF" d="M46.3501 136.302C46.6626 137.776 48.2266 136.296 48.9884 135.79L49.3889 137.125C51.3321 137.189 53.3328 136.979 55.249 137.154C53.8505 138.05 52.8302 139.03 51.7141 140.256C49.7798 140.301 47.8405 139.954 45.93 139.681L46.3501 136.302Z"/>
	<path fill="#B8B8FF" d="M449.043 441.874C450.08 441.337 451.006 440.009 451.914 439.144L460.357 431.287C466.653 425.76 482.217 417.806 490.522 414.872C490.502 416.276 490.557 422.812 489.643 423.686C486.901 439.68 478.351 441.34 463.8 441.311L449.043 441.874Z"/>
	<path fill="#F8F7FF" d="M463.8 441.311C462.225 441.019 460.377 441.18 458.767 441.167L458.735 441.033C461.531 438.908 464.469 436.777 467.5 435.006L479.647 428.535C482.813 426.708 485.587 424.437 489.125 423.28L489.643 423.686C486.901 439.68 478.351 441.34 463.8 441.311Z"/>
	<path fill="#9381FF" d="M70.3233 131.338C71.0898 131.01 71.7827 130.592 72.4971 130.164L72.6136 132.418C73.6794 138.793 73.6656 145.417 73.5053 151.879L73.125 149.569L72.2861 150.295L70.8803 152.565C69.298 154.628 68.2082 157.073 66.625 159.042L66.3784 159.354C63.3493 163.126 59.6457 166.46 55.6128 169.116C54.1646 170.07 51.7255 170.935 50.5907 172.165L50.9227 172.375C49.2339 172.902 47.4211 172.854 45.6952 173.286L45.6835 139.681C47.8405 139.954 49.7798 140.301 51.7141 140.256C52.8302 139.03 53.8505 138.05 55.249 137.154L70.3233 131.338Z"/>
	<path fill="#B8B8FF" d="M70.8803 152.565C70.1511 152.086 69.5424 151.678 68.986 151L69.2783 150.554C70.2795 150.211 71.2437 150.279 72.2861 150.295L70.8803 152.565Z"/>
	<path fill="#F8F7FF" d="M70.3233 131.338C71.0898 131.01 71.7827 130.592 72.4971 130.164L72.6136 132.418L70.8485 134.432C66.4893 138.144 61.3418 139.29 56.772 142.39L51.7141 140.256C52.8302 139.03 53.8505 138.05 55.249 137.154L70.3233 131.338Z"/>
	<path fill="#F8F7FF" d="M405.617 443.554C408.193 438.245 421.197 429.798 426.181 426.669L445.723 415.57L487.965 394.702C488.802 394.32 489.897 393.635 490.824 393.625L491.113 394.46C491.199 396.158 491.055 397.894 491.273 399.582C491.214 402.849 491.45 406.344 491.077 409.576C490.745 411.307 490.868 413.166 490.591 414.872C482.217 417.806 466.653 425.76 460.357 431.287L451.914 439.144C451.006 440.009 450.08 441.337 449.043 441.964L424.245 443.584L408.881 443.577L405.617 443.554Z"/>
	<path fill="#B8B8FF" d="M408.881 443.577L417.984 443.112C419.062 440.909 423.348 439.115 425.486 437.745L448.925 422.278C453.385 419.163 457.466 415.492 462.231 412.821C469.923 408.51 482.967 402.412 491.02 399.582C491.214 402.849 491.45 406.344 491.077 409.576L490.625 407.603C488.761 407.726 486.189 409.363 484.478 410.199L456.678 425.169C446.022 430.603 433.079 434.641 424.364 443.152L424.245 443.55L408.881 443.577Z"/>
	<path fill="#F8F7FF" d="M424.245 443.584L424.364 443.152C433.079 434.641 446.022 430.603 456.678 425.169L484.478 410.199C486.189 409.363 488.761 407.726 490.625 407.603L490.791 409.576C490.745 411.307 490.868 413.166 490.591 414.872C482.217 417.806 466.653 425.76 460.357 431.287L451.914 439.144C451.006 440.009 450.08 441.337 449.043 441.964L424.245 443.584Z"/>
	<path fill="#B8B8FF" d="M444.35 391.9L444.5 392.669C447.413 391.881 449.701 390.461 452.297 389.013L486.947 372.117C488.199 371.578 490.406 370.956 491.212 369.877L491.22 386.294L491.052 386.575L491.113 394.46L490.824 393.625C489.897 393.635 488.802 394.32 487.965 394.702L445.723 415.57L426.181 426.669C421.197 429.798 408.193 438.245 405.617 443.554L389.181 443.578L388 443.189C387.039 443.265 386.092 443.254 385.125 443.25C385.188 439.288 399.771 427.16 402.891 425.08L404.75 423.845C414.352 417.404 422.474 414.9 430.313 405.517C434.288 400.759 437.108 398.21 441.633 394.439L442.501 393.751C443.009 393.514 443.072 393.274 443.501 393.001L443.875 392.877C443.946 392.365 444.041 391.974 444.25 391.5L444.35 391.9Z"/>
	<path fill="#F8F7FF" d="M491.052 386.575C489.613 386.929 488.211 387.568 486.824 388.092L453.46 401.792C450.31 403.063 447.15 404.762 443.915 405.75C454.307 397.47 478.112 383.319 490.934 382.143L491.029 386.294L491.052 386.575Z"/>
	<path fill="#9381FF" d="M359.616 68.7313L356.601 33.608C356.173 29.6535 356.072 25.6372 355.23 21.7478L390.743 55.6809L394.499 59.3295C401.877 66.2175 409.252 73.4267 417.063 79.8171L427.8 88.2303C431.703 91.104 435.271 93.1984 438.465 96.9049L435.083 98.0342C433.045 98.7633 429.799 98.559 427.632 98.5852L412.817 98.6602C410.883 98.7068 408.976 99.0809 407.034 99.1575L391.96 99.2618C383.655 99.2763 371.346 100.527 365.053 94.1786C364.039 92.9851 363.252 91.843 362.511 90.4624C361.536 87.9104 361.328 85.1925 361.058 82.4957L360.144 74.0876L359.616 68.7313Z"/>
	<path fill="#B8B8FF" d="M362.511 90.4624L364.516 89.5973C366.165 90.5938 368.628 90.2736 370.492 90.8735C368.482 91.8105 366.54 92.4629 365.053 94.1786C364.039 92.9851 363.252 91.843 362.511 90.4624Z"/>
	<path fill="#F8F7FF" d="M364.516 89.5973C366.317 88.6293 368.216 88.3215 370.185 87.8646L399.346 78.6068C401.766 77.8432 403.94 76.8459 406.421 76.1867C400.808 79.7782 394.865 81.8756 388.638 84.1347L370.492 90.8735C368.628 90.2736 366.165 90.5938 364.516 89.5973Z"/>
	<path fill="#9381FF" d="M22.1454 201.679L21.3413 196.75C20.5149 187.703 40.3813 183.546 46.6581 182.76L56.5684 181.475C62.2638 180.779 67.8479 179.825 73.5832 179.445L73.5876 194.228L73.6895 202.53L74.5917 215.534L74.7684 219.142L75.2305 234.992L74.75 234.5C72.8223 234.454 70.8826 236.23 69.3175 237.282L65.294 239.816C61.5333 241.791 46.8471 248.905 49.1731 249.859C45.4794 251.473 28.1904 250.68 23.4794 250.717L23.4275 232.296L22.2529 209.751L22.17 207.677L22.1454 201.679ZM56.5478 201.095L52.275 202.704C49.8321 203.549 47.3707 204.297 44.7974 204.611L44.2613 205.021C45.277 206.881 47.8331 207.419 49.8029 207.705C50.6912 207.755 51.3832 207.827 52.2141 208.155L55.3198 206.426L57.8046 205.482C63.1784 203.639 68.1098 202.38 73.6895 202.53L73.5695 194.228L56.5478 201.095Z"/>
	<path fill="#B8B8FF" d="M49.8029 207.705C50.6912 207.755 51.3832 207.827 52.2141 208.155C51.144 208.956 50.0863 209.86 48.875 210.434L48.4777 210.257C48.3186 209.799 48.2683 209.53 48.3226 209.047C48.9752 208.716 49.323 208.242 49.8029 207.705Z"/>
	<path fill="#B8B8FF" d="M74.7684 219.142C71.1202 220.957 66.5698 227.66 60.9953 220.058C63.9041 218.282 71.0583 215.014 74.6743 215.534L74.7684 219.142Z"/>
	<path fill="#F8F7FF" d="M303.943 421.4L305 421.204C306.588 420.953 308.049 420.026 309.498 419.351C322.963 413.074 329.372 401.157 341.36 393.791C353.719 386.197 367.033 379.975 379.868 373.221L444.799 339.078L476.027 322.359C479.315 320.598 488.298 314.608 491.369 315.133L491.635 315.172L491.273 348.776L491.273 354.171L491.273 364.237L491.273 369.877C490.406 370.956 488.199 371.578 486.947 372.117L452.297 389.013C449.701 390.461 447.413 391.881 444.5 392.669L444.35 391.9L444.25 391.5C444.041 391.974 443.946 392.365 443.875 392.877L443.501 393.001C443.072 393.274 443.009 393.514 442.501 393.751L441.633 394.439C437.108 398.21 434.288 400.759 430.313 405.517C422.474 414.9 414.352 417.404 404.75 423.845L402.891 425.08C399.771 427.16 385.188 439.288 385.125 443.25C386.092 443.254 387.039 443.265 388 443.189L389.181 443.529L276.783 447.889C274.702 447.554 272.503 447.763 270.408 447.829C288.313 439.548 291.12 433.584 303.943 421.4Z"/>
	<path fill="#B8B8FF" d="M410.843 451.743L436.501 450.3C435.103 455.381 434.521 468.322 431.627 472.017C427.836 472.919 414.844 484.652 407.519 487.828L396.789 491.897L386.008 496.135C383.404 497.502 380.743 498.878 378.37 500.625L378.088 501.767L355.234 502.069L343.053 502.497C337.63 502.514 331.695 502.964 326.348 502.085L190.512 502.047L180.114 501.93C177.988 501.561 175.134 502.017 172.913 502.039L127.132 501.988C124.926 501.937 122.769 501.518 120.574 501.489L59.1103 501.465C49.5257 501.455 37.8051 502.639 29.8062 496.246L29.5649 496.156C24.7404 493.427 22.9514 485.636 22.1376 480.704C24.5959 483.704 23.9666 477.412 24.1952 476.428L24.2471 476.215C23.7858 473.351 25.1557 470.337 26.2294 467.692C34.6235 464.493 36.7336 464.479 45.0087 465.958L53.1848 467.21L56.8775 468.375C58.0733 468.806 60.0075 470.08 61.2029 469.938C59.8066 468.281 58.8087 466.595 57.0942 465.199C58.9088 465.116 60.4787 464.519 62.2148 464.063C70.8941 461.786 80.0802 462.516 88.9464 461.728C95.0047 461.189 101.063 459.352 107.174 459.78C110.722 458.888 115.116 459.104 118.776 458.943C126.229 457.966 133.655 458.074 141.15 458.051L209.649 458.005C212.281 457.978 214.886 457.565 217.5 457.532L246.356 457.496L263.006 457.456L263.949 457.348L319.918 455.991L327.314 456.654L335.379 454.916C343.3 452.928 349.227 453.328 357.381 453.317C359.918 452.561 362.988 452.718 365.574 452.702L380.136 452.688L398.998 452.113L410.843 451.743Z"/>
	<path fill="#F8F7FF" d="M191.409 477.057C195.202 476.627 189.292 479.01 186.521 479.666C181.356 479.035 190.376 477.257 191.409 477.057Z"/>
	<path fill="#F8F7FF" d="M309.498 462.125C311.245 462.681 306.361 464.07 305.862 464.238C295.939 467.592 284.219 466.621 273.875 466.299L273.447 465.625C279.043 461.783 295.329 463.467 302.023 463.15C304.541 463.031 306.984 462.342 309.498 462.125Z"/>
	<path fill="#F8F7FF" d="M431.591 454.827C432.409 454.749 433.421 454.538 434.203 454.791L434.585 455.625C431.521 461.574 415.774 470.384 409.802 472.551L409.125 472.697C409.864 469.584 409.574 469.524 407.875 468.135C410.796 467.867 412.412 465.37 414.694 463.795C419.599 460.41 425.903 456.77 431.591 454.827Z"/>
	<defs>
		<linearGradient id="gradient_1" gradientUnits="userSpaceOnUse" x1="346.18201" y1="461.86499" x2="350.548" y2="449.34399">
			<stop offset="0" stop-color="#FFFFFE"/>
			<stop offset="1" stop-color="#D5D5FF"/>
		</linearGradient>
	</defs>
	<path fill="url(#gradient_1)" d="M335.379 454.916C343.3 452.928 349.227 453.328 357.381 453.317C358.748 453.288 360.016 453.459 361.377 453.332L361.876 453.312C361.674 454.258 361.132 454.856 360.501 455.562L359.308 456.981C357.61 459.234 357.304 460.411 358.461 462.728L356.069 462.742C352.427 463.085 340.312 460.162 336.565 459.029C335.927 457.686 335.631 456.373 335.379 454.916Z"/>
	<path fill="#F8F7FF" d="M343.053 502.497C342.75 502.356 342.486 502.257 342.16 502.185L341.875 502.127C343.945 499.807 347.862 499.673 350.564 498.073L363.261 490.248C371.184 485.079 379.678 478.745 388.775 475.757L389.773 475.427C390.508 475.224 395.762 474.736 395.438 476C395.239 476.775 389.552 479.826 388.539 480.39L363.295 495.275C361.31 496.56 356.808 498.937 355.698 501.132L355.234 502.238L343.053 502.497Z"/>
	<path fill="#F8F7FF" d="M107.174 459.78C110.722 458.888 115.116 459.104 118.776 458.943C117.664 462.958 101.485 473.49 97.7076 475.88L63.7624 496.335L63.8568 497.567C65.3563 498.662 66.8767 501.423 68.8074 498.991C73.3725 497.603 72.0804 495.598 79.514 495.9C85.0883 496.127 89.6262 495.348 94.7323 492.944L95.0667 494.222C96.2105 494.754 98.9136 494.042 100.102 493.634L100.203 493.588C101.787 493.357 103.191 493.197 104.785 493.47C107.05 492.94 110.431 492.503 112.325 491.165C110.885 490.803 109.335 489.923 107.941 489.731C103.84 489.165 99.9655 492.482 96.2015 491.97L104.862 486.858C111.877 482.511 115.156 482.609 123.274 482.48L123.603 484.284C120.762 486.448 117.996 488.53 114.788 490.119C115.951 490.172 117.572 489.185 118.634 488.678L126.252 485.184C127.251 484.762 128.288 484.551 129.263 484.058L131.75 483.521C132.646 483.951 133.306 484.67 134.02 485.347C133.628 490.305 131.783 492.62 129.983 497.102C138.668 497.964 142.71 496.135 149.754 491.452C160.09 484.58 167.773 480.738 180.564 479.928C177.62 482.293 174.131 483.892 171 486.008C165.242 489.9 160.14 494.184 154.936 498.758C160.774 497.94 166.911 499.112 172.625 497.447C179.235 495.521 185.54 490.508 191.511 487.2C197.38 483.95 203.833 481.847 210.037 479.328C223.221 473.975 229.752 470.353 244.411 475.649C237.643 476.632 230.827 473.547 224.141 478.078L223.891 478.252C222.314 479.266 221.623 480.99 220.287 481.894L215.5 485.05C213.012 486.55 210.569 487.451 208.273 489.33C210.327 489.461 216.129 483.827 217.956 483.914C219.887 485.143 222.107 484.218 223.5 486.875C219.718 490.068 215.655 492.239 214.001 497.251L213.868 497.634C213.756 497.971 213.719 498.29 213.627 498.625L210.875 499.035C212.78 499.818 233.276 499.43 235.583 499.25C237.436 499.217 239.18 499.159 241 498.801L241.453 498.716C242.96 498.422 243.959 497.772 244.806 496.455C250.133 488.167 252.774 487.423 262.232 484.923L270.76 482.433C275.476 481.017 284.174 476.815 289.017 477.497C287.004 478.198 247.933 492.626 264 495.291L264.388 495.358C267.609 495.881 270.91 494.703 273.926 493.688L283.282 490.691C289.271 489.032 295.115 488.14 301.316 488.147C306.37 488.152 304.434 488.57 306.298 492.375L306.086 492.339C305.623 492.301 305.195 492.444 304.75 492.554L304.427 492.875C305.431 493.224 306.536 492.786 307.662 493.148C311.306 494.317 314.456 492.578 317.581 490.939L319.431 489.965C323.262 493.745 322.271 500.201 324.175 500.976C324.999 501.311 325.58 501.563 326.237 502.156L326.348 502.24L190.512 502.047L180.114 501.93C177.988 501.561 175.134 502.017 172.913 502.039L127.132 501.988C124.926 501.937 122.769 501.518 120.574 501.489L59.1103 501.465C49.5257 501.455 37.8051 502.639 29.8062 496.246L29.5649 496.156C24.7404 493.427 22.9514 485.636 22.1376 480.704C24.5959 483.704 23.9666 477.412 24.1952 476.428L24.2471 476.215C23.7858 473.351 25.1557 470.337 26.2294 467.692C34.6235 464.493 36.7336 464.479 45.0087 465.958L53.1848 467.21L56.8775 468.375C58.0733 468.806 60.0075 470.08 61.2029 469.938C59.8066 468.281 58.8087 466.595 57.0942 465.199C58.9088 465.116 60.4787 464.519 62.2148 464.063C70.8941 461.786 80.0802 462.516 88.9464 461.728C95.0047 461.189 101.063 459.352 107.174 459.78Z"/>
	<path fill="#B8B8FF" d="M180.114 501.93L183.349 500.923C183.028 497.294 193.947 492.526 196.903 491.823L196.756 492.008C195.182 494.07 194.496 496.731 193.018 498.898C192.397 499.81 190.806 500.787 190.512 501.713L180.114 501.93Z"/>
	<defs>
		<linearGradient id="gradient_2" gradientUnits="userSpaceOnUse" x1="81.116203" y1="454.39899" x2="71.633797" y2="496.10101">
			<stop offset="0" stop-color="#8894FF"/>
			<stop offset="1" stop-color="#AFAEFF"/>
		</linearGradient>
	</defs>
	<path fill="url(#gradient_2)" d="M57.0942 465.199C58.9088 465.116 60.4787 464.519 62.2148 464.063C70.8941 461.786 80.0802 462.516 88.9464 461.728C95.0047 461.189 101.063 459.352 107.174 459.78C103.958 462.875 99.2732 464.897 95.4949 467.249C89.4144 471.034 52.1999 494.59 46.1381 490.875C48.1577 487.905 72.3621 478.45 72.0382 474.49C71.4953 474.034 71.2025 473.931 70.5061 473.818L70.4422 473.805C67.8397 472.576 64.1204 470.045 61.2029 469.938C59.8066 468.281 58.8087 466.595 57.0942 465.199Z"/>
	<path fill="#9381FF" d="M24.2471 476.215C23.7858 473.351 25.1557 470.337 26.2294 467.692C34.6235 464.493 36.7336 464.479 45.0087 465.958L53.1848 467.21L56.8775 468.375C58.0733 468.806 60.0075 470.08 61.2029 469.938C64.1204 470.045 67.8397 472.576 70.4422 473.805C63.1098 477.383 54.6558 480.216 46.7365 482.171L38.8222 483.75C36.0549 484.391 33.4481 485.262 30.7856 486.238C23.897 482.365 25.6661 482.514 24.2471 476.215Z"/>
	<path fill="#23232B" d="M262.49 208.71C257.048 209.272 246.224 209.645 241.033 208.364L237.505 207.679C232.407 206.689 221.18 202.491 216.041 200.175C188.578 187.793 172.975 155.112 178.875 125.856C187.514 83.0196 228.504 56.1373 271.325 65.4429C307.262 73.2527 337.235 113.437 329.131 150.197L328.327 154.175C321.989 181.221 297.525 201.346 271.167 207.611L265.172 208.344C264.409 208.43 263.16 208.421 262.49 208.71Z"/>
	<path fill="#F7B8DB" d="M251.183 75.1066L251.218 75.0965C267.446 73.9638 284.084 82.0704 295.888 92.7199C336.235 129.118 313.419 195.07 257.677 197.428C242.031 197.608 226.27 194.329 213.966 184.124C170.984 148.472 194.167 79.1259 251.183 75.1066Z"/>
	<path fill="#F29BDF" d="M235.57 159.769C233.623 160.528 232.319 162.291 230.419 163.048C226.987 164.416 223.51 163.57 220.058 164.279L216.457 164.779C218.01 163.372 220.233 162.392 222 161.223C224.894 159.308 229.439 154.632 233.108 154.785C233.62 156.841 234.032 158.209 235.57 159.769Z"/>
	<path fill="#F29BDF" d="M242.209 146.005C244.052 141.971 249.424 139.274 253.75 138.753L254.221 138.693C256.506 138.429 259.042 138.758 260.875 140.26L261.72 141.125C261.718 146.336 251.164 151.516 247.627 148.25L247.616 147.811C247.513 145.644 243.707 144.94 243.833 147.511C243.331 146.77 243.034 146.377 242.209 146.005Z"/>
	<path fill="#F29BDF" d="M262.631 80.3443L266.392 80.1608L270.25 83.0166C271.464 83.8705 272.622 84.4622 273.649 85.5689L257.624 90.0453L257.357 90.1175C254.773 90.7999 244.268 91.9575 248.552 86.5202C252.153 81.9498 257.193 80.9843 262.631 80.3443Z"/>
	<path fill="#261C31" d="M237.088 113.277L238.375 113.26C243.286 113.566 243.953 121.202 243.376 124.775L243.314 125.125C242.69 128.851 240.643 131.161 236.878 131.847L235.312 131.403C227.419 128.621 229.338 116.433 237.088 113.277Z"/>
	<path fill="#261C31" d="M274.334 113.547C283.698 112.935 285.337 128.007 276.17 132.143C267.193 132.927 265.172 117.786 274.334 113.547Z"/>
	<path fill="#F29BDF" d="M299.314 126.589C305.348 125.964 312.142 128.742 311.466 136C311.017 140.827 301.166 147.305 296.875 146.885C294.739 146.027 293.673 144.838 292.178 143.159C296.837 133.356 304.977 136.845 291.071 128.868C292.543 127.3 297.325 126.92 299.314 126.589Z"/>
	<path fill="#261C31" d="M242.209 146.005C243.034 146.377 243.331 146.77 243.833 147.511C245.66 151.318 247.221 154.736 251.5 156.257C264.817 160.991 267.077 144.31 273.473 146.276C277.294 147.45 278.184 152.858 277.084 156.157C275.676 160.376 270.033 163.877 266.204 165.651C255.78 170.482 243.566 167.731 235.57 159.769C234.032 158.209 233.62 156.841 233.108 154.785C234.354 149.994 237.123 147.099 242.209 146.005Z"/>
	<defs>
		<linearGradient id="gradient_3" gradientUnits="userSpaceOnUse" x1="16.983999" y1="340.189" x2="496.56601" y2="315.48001">
			<stop offset="0" stop-color="#A3A4FF"/>
			<stop offset="1" stop-color="#FFFFFE"/>
		</linearGradient>
	</defs>
	<path fill="url(#gradient_3)" d="M330.672 244.489C340.646 239.995 342.428 235.54 348.291 227.003C351.948 221.679 355.892 216.535 359.268 211.022C361.267 207.757 362.807 203.61 365.52 200.892C369.292 197.112 376.997 194.593 382.25 195.446L382.572 195.494C384.73 195.862 386.415 197.752 388.625 197.861C393.65 198.109 399.09 195.827 404.16 195.342C413.145 194.481 422.2 194.582 431.211 194.256L458.055 193.589C467.556 193.577 481.372 193.382 487.473 202.133C491.051 207.266 492.154 218.992 492.171 225.383L492.177 302.28C492.169 306.553 492.283 310.91 491.994 315.172L491.369 315.133C488.298 314.608 479.315 320.598 476.027 322.359L444.799 339.078L379.868 373.221C367.033 379.975 353.719 386.197 341.36 393.791C329.372 401.157 322.963 413.074 309.498 419.351C308.049 420.026 306.588 420.953 305 421.204L303.943 421.4C291.12 433.584 288.313 439.548 270.408 447.829C272.503 447.763 274.702 447.554 276.783 447.796C265.656 447.995 268.357 446.078 266.639 453.052C265.886 453.316 264.446 453.561 263.842 453.996L215.616 454.097L203.026 454.007C196.872 455.172 179.051 455.628 172.411 454.59C170.395 454.735 167.87 454.318 165.811 454.248L127.702 454.739L114.159 454.868C112.198 454.981 110.277 455.401 108.317 455.554L63.9836 456.59C55.4408 456.487 52.9263 450.127 44.6056 452.253C43.743 453.033 42.2682 453.804 42.1952 454.951C46.6457 457.397 50.2063 461.564 54.693 464.192C55.4742 464.53 56.2817 464.95 57.0942 465.199C58.8087 466.595 59.8066 468.281 61.2029 469.938C60.0075 470.08 58.0733 468.806 56.8775 468.375L53.1848 467.21L45.0087 465.958C36.7336 464.479 34.6235 464.493 26.2294 467.692C25.1557 470.337 23.7858 473.351 24.2471 476.215L24.1952 476.428C23.9666 477.412 24.5959 483.704 22.1376 480.704C21.2374 475.254 22.026 469.719 22.1823 464.25L22.2841 447.301L22.3002 437.519L22.2936 431.029L22.2678 413.67L22.2576 409.8L22.286 401.866L22.2519 397.812L22.2568 382.132C22.2331 380.037 22.0634 377.765 22.4698 375.707L22.2649 363.556C22.7445 362.452 22.2861 354.175 22.7401 351.775L22.7013 337.781L22.2522 310.918L22.2069 298.119L21.9931 296.594C21.5538 294.8 21.8118 291.821 21.791 289.855L21.495 281.65L21.2257 276.145L20.7792 263.857L175.929 252.581L194.801 250.688C196.423 250.294 207.448 249.376 209.114 249.691C211.655 248.642 223.369 248.752 226.296 248.982C227.485 248.046 237.429 247.246 238.533 247.363L262.308 245.904L274.755 245.459L287.144 245.456L324.373 245.795C326.484 245.878 328.675 245.1 330.672 244.489ZM216.677 274.871C208.463 278.563 204.335 281.987 197.285 286.213L197.039 286.469C195.927 287.608 194.528 288.567 193.325 289.625L187.261 295.516C167.913 316.175 162.939 341.309 170.604 367.803L173.566 375.437C182.921 393.762 195.763 408.493 214.24 418.362C215.669 419.126 217.477 419.852 218.76 420.801L225.265 423.255C246.089 429.704 271.296 427.28 291.593 420.403L311.77 409.854C327.281 399.764 338.363 385.598 343.475 367.602C344.354 364.507 344.656 361.358 345.329 358.234L345.529 357.125C348.069 337.244 340.189 315.31 328.206 299.753C314.582 282.066 290.411 270.976 268.656 268.128C247.796 267.164 236.009 269.488 216.677 274.871ZM75.5406 309.02L57.6144 319.518L33.2221 332.306C29.9201 334.017 26.1746 336.686 22.7013 337.781L22.7776 351.775C23.4476 350.624 23.4965 349.226 24.0518 348C25.8196 344.099 50.02 333.636 55.2596 331.593C57.0594 330.142 59.687 329.06 61.7152 327.875L105.75 303.549C115.517 298.172 125.64 292.8 134.67 286.237C138.537 283.426 141.562 279.85 145.268 276.909C149.104 273.865 154.218 271.582 157.456 268L157.375 267.627L154.875 269.627C154.224 270.703 152.109 271.716 151 272.375L147.875 274.5L147.5 274.125C147.973 273.967 147.795 274.072 148.184 273.762L149.375 273C150.247 272.418 149.216 272.888 149.964 272.555L151.188 271.688C152.495 270.839 150.908 272.077 151.918 271.27L155.749 268.688C156.369 268.354 156.754 267.939 157.249 267.438L157.125 267.237C147.348 274.976 136.018 279.606 124.995 285.137L75.5406 309.02ZM63.704 345.061L22.2649 363.556L22.4698 375.707C32.0222 373.419 48.2604 362.158 57.9945 357.583C58.8555 356.822 60.0435 356.267 61.0323 355.681L113.646 327.687C115.357 326.744 117.196 325.846 118.783 324.704C127.056 318.751 118.089 318.942 112.308 321.162L63.704 345.061ZM173.566 375.437L170.604 367.803C167.144 368.761 163.544 371.13 160.35 372.779L109.907 399.936C107.212 401.422 103.445 402.926 101.25 405.048C101.877 406.843 102.776 408.44 103.664 410.11L167.49 378.711C169.445 377.732 171.862 376.816 173.566 375.437Z"/>
	<path fill="#F8F7FF" d="M151.289 306.625L152.489 306.875L138.375 315.825C138.139 316.016 137.9 316.111 137.625 316.236L137.526 315.875C140.954 312.144 146.622 308.627 151.289 306.625Z"/>
	<path fill="#B8B8FF" d="M324.373 245.746C326.484 245.878 328.675 245.1 330.672 244.489C330.44 245.645 329.978 246.365 329.342 247.34L329.126 247.684C326.513 251.747 319.937 255.095 315.15 256.242L314.682 256.307C317.772 253.607 320.923 249.154 324.373 245.746Z"/>
	<path fill="#F8F7FF" d="M22.2519 397.812L22.5137 397.919C26.0919 399.291 35.7074 394.409 40.9137 393.226C37.1587 396.416 27.461 402.422 22.5836 405.098C22.5147 404.032 22.5174 402.91 22.2957 401.866L22.2519 397.812Z"/>
	<path fill="#F8F7FF" d="M22.2576 409.8L22.4599 409.888C30.7407 413.174 39.4821 405.235 47.3052 404.021C44.1107 406.185 40.7211 407.724 37.3249 409.519L22.5037 417.388C22.4708 416.202 22.5734 414.821 22.2948 413.67L22.2576 409.8Z"/>
	<path fill="#F8F7FF" d="M36.0287 292.59L41.8582 290.721C37.5174 294.778 32.2413 298.22 27.3146 301.537C19.4249 306.85 23.1808 304.743 22.0904 298.119L21.9931 296.594C26.8823 295.309 31.3079 294.789 36.0287 292.59Z"/>
	<path fill="#F8F7FF" d="M427.302 301.875L427.738 302.5C425.537 306.932 420.459 312.04 416.345 314.774L414.374 313.106C413.236 311.741 412.761 310.247 412.269 308.576C415.462 305.124 422.706 302.814 427.302 301.875Z"/>
	<path fill="#F8F7FF" d="M22.2936 431.029L23.0109 428.012C25.8545 427.961 28.2338 426.79 30.8152 425.716L37 423.482C39.0127 422.854 40.8862 422.369 43 422.787L43.1687 423.178C41.5039 425.512 38.1674 427.173 35.7844 428.74L28.7523 433.499C26.6652 434.844 24.4601 436.063 22.4516 437.519L22.2936 431.029Z"/>
	<path fill="#F8F7FF" d="M203.026 454.007L201.063 453.875C204.72 449.58 208.265 445.013 213.248 442.157L213.673 441.917C215.04 441.132 216.41 440.523 217.864 439.921C217.417 444.874 215.333 449.113 215.616 454.115L203.026 454.007Z"/>
	<path fill="#F8F7FF" d="M225.265 423.255L192.75 442.519C190.5 443.837 188.782 445.847 186.75 447.482L186.5 447.375C187.579 446.145 189.556 444.569 190.938 443.188L190.438 442.938C190.146 443.617 189.709 443.985 189.188 444.499L187.688 445.749C187.165 445.751 187.044 446.081 186.688 446.438L186.202 446.375C190.987 442.859 194.12 437.991 199.987 434.125L212.35 426.481C216.25 423.911 216.22 422.964 218.76 420.801L225.265 423.255Z"/>
	<defs>
		<linearGradient id="gradient_4" gradientUnits="userSpaceOnUse" x1="33.4981" y1="285.849" x2="29.1712" y2="276.83801">
			<stop offset="0" stop-color="#FFFFFE"/>
			<stop offset="1" stop-color="#C7CAFF"/>
		</linearGradient>
	</defs>
	<path fill="url(#gradient_4)" d="M35.0559 274.63C44.4347 274.082 45.4315 274.72 36.9629 280.637L31 285.003C27.8768 287.173 24.7644 289.09 22.375 292.123C21.875 291.666 21.9985 290.546 21.793 289.855L21.495 281.65L21.2257 276.145C25.8731 276.133 30.4685 275.288 35.0559 274.63Z"/>
	<path fill="#F8F7FF" d="M21.2257 276.145C25.8731 276.133 30.4685 275.288 35.0559 274.63L35.2801 275.037C33.4228 275.753 31.8348 277.617 29.75 277.804C23.3151 278.381 26.4375 278.75 21.495 281.65L21.2257 276.145Z"/>
	<defs>
		<linearGradient id="gradient_5" gradientUnits="userSpaceOnUse" x1="169.34599" y1="268.569" x2="189.87801" y2="247.064">
			<stop offset="0" stop-color="#FEFCFC"/>
			<stop offset="1" stop-color="#CED3FF"/>
		</linearGradient>
	</defs>
	<path fill="url(#gradient_5)" d="M175.929 252.54L194.801 250.688C193.478 254.535 186.12 257.513 182.951 259.591L175.025 264.773C171.347 267.247 168.54 269.112 164.196 270.232C166.821 263.136 171.15 258.216 175.929 252.54Z"/>
	<path fill="#9381FF" d="M57.9945 357.583L58.3665 357.815C57.956 358.008 57.739 358.267 57.375 358.5L55.875 359.25C56.1134 359.615 56.3144 359.939 56.6225 360.25L56.6623 360.454C56.7602 360.842 56.9554 361.141 57.1225 361.5L57.3725 362.125C57.7469 363.051 58.149 363.535 59.125 363.75L59.8593 363.27C60.4327 362.887 60.8547 362.412 61.5 362.125L59.7369 360.64C59.3938 360.302 59.2565 360.14 59.0625 359.688L59.25 359.377C60.237 360.394 60.9532 361.189 62.1663 361.99C59.7529 363.897 57.0036 365.382 54.375 366.974L40.9128 374.902C34.7054 378.397 29.591 382.247 22.2258 382.132C22.2331 380.037 22.0634 377.765 22.4698 375.707C32.0222 373.419 48.2604 362.158 57.9945 357.583Z"/>
	<path fill="#F8F7FF" d="M166.746 446.306C172.726 440.651 181.421 435.217 189.628 434.347C185.292 438.296 181.704 440.153 178.554 445.375L179.751 446.125C179.27 446.695 178.892 446.347 178.375 446.669C176.982 447.536 174.444 451.764 174.149 453.278L174.625 454.563C173.878 454.507 173.159 454.44 172.411 454.527C170.395 454.735 167.87 454.318 165.811 454.248L127.702 454.739L128.034 454.308C130.23 451.494 133.812 449.302 136.688 447.21L147.741 439.337L148.354 439.029C149.299 438.552 150.084 438.689 151.111 438.77C151.461 439.076 151.78 439.37 152.079 439.725L155.853 441.257C159.209 441.755 161.54 443.296 164.263 445.189L166.746 446.306Z"/>
	<path fill="#B8B8FF" d="M151.111 438.77C151.461 439.076 151.78 439.37 152.079 439.725C150.411 439.986 149.22 440.186 147.741 439.337L148.354 439.029C149.299 438.552 150.084 438.689 151.111 438.77Z"/>
	<path fill="#B8B8FF" d="M262.308 245.907L274.755 245.459C272.83 248.711 268.38 249.965 265.25 251.718C259.86 254.737 254.553 258.207 249.827 262.194L250.09 262.295C251.943 262.932 253.154 263.208 254.736 264.63C263.282 263.677 284.35 252.354 287.292 245.791C290.088 245.883 293.268 245.761 296 246.25L297.126 246.312C297.125 246.841 297.223 246.844 296.877 247.25L296.658 247.548C296.329 247.958 296.024 248.067 295.627 248.375L295.125 248.877C291.093 252.56 287.181 256.043 282.5 258.934C280.26 260.318 268.264 265.689 270.127 267.875L268.656 268.174C247.796 267.164 236.009 269.488 216.677 274.871C218.458 271.085 225.572 268.989 229.004 267.213L247.446 256.826C252.463 254.061 258.611 250.705 262.457 246.454L262.308 245.907Z"/>
	<path fill="#F8F7FF" d="M249.827 262.194L250.09 262.295C251.943 262.932 253.154 263.208 254.736 264.63C251.697 265.238 249.513 265.48 246.408 265.333C247.017 264.09 248.721 263.048 249.827 262.194Z"/>
	<path fill="#F8F7FF" d="M209.114 249.691C211.655 248.642 223.369 248.752 226.296 248.982C223.895 252.889 219.241 254.844 215.25 257.297L162.834 285.164C159.852 286.793 156.666 288.884 153.375 289.789L149.191 290.597C151.721 281.119 163.848 275.02 171.679 270.508L209.114 249.691Z"/>
	<path fill="#F8F7FF" d="M238.533 247.363L262.308 245.904L262.457 246.454C258.611 250.705 252.463 254.061 247.446 256.826L229.004 267.213C225.572 268.989 218.458 271.085 216.677 274.871C208.463 278.563 204.335 281.987 197.285 286.213L195.812 286.812C195.126 287.381 194.594 287.911 193.812 288.376L193.623 288C193.132 287.16 192.786 285.283 193.249 284.438L193.5 283C195.239 284.304 194.532 280.333 193.426 280.03L193.125 279.95C192.992 278.638 195.603 277.353 196.308 276.087C198.93 271.383 211.255 265.254 215.948 262.317C218.201 260.908 220.56 258.948 222.971 257.891C225.138 255.846 236.055 248.626 238.533 247.363Z"/>
	<path fill="#9381FF" d="M43.2564 301.644C46.7113 300.434 51.3268 298.912 50.625 299.627L50.8725 300C50.3174 303.155 51.4328 302.833 51.125 305.5L51.5423 306.508C51.6154 306.988 51.7832 307.324 51.9988 307.751L52.2103 307.79C53.1174 308.014 53.4717 308.704 54.4375 308.812L55.625 309.127C56.0365 309.239 56.1673 309.378 56.3725 309.75L56.733 310.141C57.6031 310.47 57.5998 310.37 58.5 309.75L58.8867 309.496C59.851 308.853 62.2528 306.749 63.3725 307.125C63.0437 307.396 62.7955 307.542 62.4375 307.749L60.5263 309.178C56.1275 312.341 49.6836 313.624 44.7647 315.974C41.3634 317.6 38.3735 319.947 34.966 321.625L35.7617 321.714C36.4787 321.001 37.4859 320.944 38.25 320.375L38.6275 320.375C37.9935 321.125 36.5734 321.615 35.75 322.25L34.8552 323.193C38.3076 320.729 44.0306 317.705 47.9133 315.973C52.2832 314.024 56.9809 313.279 60.374 309.63C60.6336 309.351 60.6066 309.34 61.0012 309.251L61.1875 309.251C61.1225 309.77 60.8534 310.225 60.375 310.5L58.6225 312.5C58.4461 312.83 58.2867 313.137 58.0625 313.438L58.3725 314.5C58.2205 315.037 58.3393 314.816 58.0625 315.188L58.3725 315.375L57.6225 318.5L56.9375 319.438C57.4587 319.107 57.9448 318.825 58.375 318.377L58.9492 318.215C59.4383 317.848 59.9975 317.607 60.5 317.25L64.3711 314.746C65.8822 313.739 67.5149 312.658 69.1602 311.91L75.5406 309.02L57.6144 319.518L33.2221 332.306C29.9201 334.017 26.1746 336.686 22.6473 337.781L22.2522 310.918L22.2575 310.919C22.1994 307.544 23.7616 308.908 26.7594 308.133L27.0583 308.053C32.3044 306.142 36.9069 302.915 43.1184 300.818L43.2564 301.644Z"/>
	<path fill="#F8F7FF" d="M22.2575 310.919C22.1994 307.544 23.7616 308.908 26.7594 308.133L27.0583 308.053L27.1954 309.25C27.5543 309.456 27.8348 309.583 28.2397 309.672L22.2447 314.868L22.2575 310.919Z"/>
	<defs>
		<linearGradient id="gradient_6" gradientUnits="userSpaceOnUse" x1="40.742298" y1="305.845" x2="30.2577" y2="303.905">
			<stop offset="0" stop-color="#D2D2FF"/>
			<stop offset="1" stop-color="#FEFCFF"/>
		</linearGradient>
	</defs>
	<path fill="url(#gradient_6)" d="M43.1184 300.818L43.2564 301.644L28.2397 309.672C27.8348 309.583 27.5543 309.456 27.1954 309.25L27.0583 308.053C32.3044 306.142 36.9069 302.915 43.1184 300.818Z"/>
	<defs>
		<linearGradient id="gradient_7" gradientUnits="userSpaceOnUse" x1="85.224998" y1="483.909" x2="87.329399" y2="429.34299">
			<stop offset="0" stop-color="#D6D3FF"/>
			<stop offset="1" stop-color="white"/>
		</linearGradient>
	</defs>
	<path fill="url(#gradient_7)" d="M22.2841 447.301C22.8992 447.566 23.2578 447.79 23.75 447.918C28.6757 445.403 31.1723 440.167 38.4563 437.517C43.8771 441.738 47.2835 445.386 52.2625 449.572C55.9821 448.423 59.1817 446.427 62.5806 444.586L77.9678 436.295C81.3953 434.312 84.7256 431.835 88.2709 430.117C91.3037 428.648 93.0024 430.575 90.6167 433.042C87.9764 435.773 84.1331 437.866 80.9678 439.986L74.5279 444.498C73.0491 445.587 70.0781 447.286 73.5 447.957L73.8374 448.026C78.5022 448.904 82.6786 446.679 86.7096 444.627L95.5 440.258C95.9317 440.057 101.144 437.569 100.429 439.5C99.4882 442.038 91.3891 447.516 89.1476 451.204C93.4899 451.553 97.896 451.689 102.208 450.969C105.007 450.502 107.881 448.524 110.311 450.81C111.746 450.784 113.419 450.554 114.759 451.118C121.349 447.837 127.67 444.05 133.915 440.163C137.065 438.203 150.624 427.135 151.453 434.875L150.563 436.291C150.259 437.061 150.661 437.774 150.973 438.472L151.111 438.77C150.084 438.689 149.299 438.552 148.354 439.029L147.741 439.337L136.688 447.21C133.812 449.302 130.23 451.494 128.034 454.308L127.702 454.739L114.159 454.868C112.198 454.981 110.277 455.401 108.317 455.554L63.9836 456.59C55.4408 456.487 52.9263 450.127 44.6056 452.253C43.743 453.033 42.2682 453.804 42.1952 454.951C46.6457 457.397 50.2063 461.564 54.693 464.192C55.4742 464.53 56.2817 464.95 57.0942 465.199C58.8087 466.595 59.8066 468.281 61.2029 469.938C60.0075 470.08 58.0733 468.806 56.8775 468.375L53.1848 467.21L45.0087 465.958C36.7336 464.479 34.6235 464.493 26.2294 467.692C25.1557 470.337 23.7858 473.351 24.2471 476.215L24.1952 476.428C23.9666 477.412 24.5959 483.704 22.1376 480.704C21.2374 475.254 22.026 469.719 22.1823 464.25L22.2841 447.301Z"/>
	<path fill="#B8B8FF" d="M110.311 450.81C111.746 450.784 113.419 450.554 114.759 451.118C114.514 451.626 112.146 452.892 111.617 453.183L110.311 450.81Z"/>
	<path fill="#B8B8FF" d="M42.1952 454.951L42.169 454.949C41.5469 454.52 41.1385 453.849 40.6887 453.25C39.3888 452.94 38.1063 454.414 36.875 454.108L40.696 452.697C42.0266 452.233 43.2063 452.263 44.6056 452.253C43.743 453.033 42.2682 453.804 42.1952 454.951Z"/>
	<path fill="#23232B" d="M216.677 274.871C236.009 269.488 247.796 267.164 268.656 268.128C290.411 270.976 314.582 282.066 328.206 299.753C340.189 315.31 348.069 337.244 345.529 357.125L345.329 358.234C344.656 361.358 344.354 364.507 343.475 367.602C338.363 385.598 327.281 399.764 311.77 409.854L291.593 420.403C271.296 427.28 246.089 429.704 225.265 423.255L218.76 420.801C217.477 419.852 215.669 419.126 214.24 418.362C195.763 408.493 182.921 393.762 173.566 375.437L170.604 367.803C162.939 341.309 167.913 316.175 187.261 295.516L193.325 289.625C194.528 288.567 195.927 287.608 197.039 286.469L197.285 286.213C204.335 281.987 208.463 278.563 216.677 274.871ZM251.002 274.144C242.689 274.83 234.162 275.966 226.257 278.727C201.763 287.282 182.799 313.558 179.51 338.856C176.188 364.411 189.218 390.196 208.623 406.26C223.611 418.666 242.281 422.303 261.458 420.813C280.652 420.027 298.202 413.446 311.487 398.975C331.508 377.167 339.042 350.634 328.951 322.58C315.691 285.717 287.593 272.981 251.002 274.144Z"/>
	<path fill="#9381FF" d="M251.002 274.144C287.593 272.981 315.691 285.717 328.951 322.58C339.042 350.634 331.508 377.167 311.487 398.975C298.202 413.446 280.652 420.027 261.458 420.813C242.281 422.303 223.611 418.666 208.623 406.26C189.218 390.196 176.188 364.411 179.51 338.856C182.799 313.558 201.763 287.282 226.257 278.727C234.162 275.966 242.689 274.83 251.002 274.144ZM255.361 306.555C244.209 308.545 239.963 321.284 237.912 330.939L236.903 336.519C236.532 338.698 235.913 338.223 233.872 339.057L221.733 344.182C218.014 345.881 214.343 347.569 211.528 350.624C216.369 354.011 230.671 360.721 236.948 363.179C238.462 372.9 243.451 391.378 256.837 389.162L257.416 389.022C268.102 385.729 273.369 374.372 273.274 363.863L292.524 355.107C295.485 353.652 298.65 352.322 301.033 349.974C298.005 346.759 294.399 345.197 290.414 343.455L279.122 338.832C275.338 337.369 276.493 338.121 275.375 334.088L272.213 324.123C269.844 317.385 265.763 306.888 257.25 306.526L255.361 306.555Z"/>
	<path fill="#23232B" d="M255.361 306.555L257.25 306.526C265.763 306.888 269.844 317.385 272.213 324.123L275.375 334.088C276.493 338.121 275.338 337.369 279.122 338.832L290.414 343.455C294.399 345.197 298.005 346.759 301.033 349.974C298.65 352.322 295.485 353.652 292.524 355.107L273.274 363.863C273.369 374.372 268.102 385.729 257.416 389.022L256.837 389.162C243.451 391.378 238.462 372.9 236.948 363.179C230.671 360.721 216.369 354.011 211.528 350.624C214.343 347.569 218.014 345.881 221.733 344.182L233.872 339.057C235.913 338.223 236.532 338.698 236.903 336.519L237.912 330.939C239.963 321.284 244.209 308.545 255.361 306.555ZM255.019 317.348C250.03 325.19 249.794 337.227 249.662 346.387C245.467 346.827 235.988 348.167 232.754 351.163L232.565 351.403C236.335 353.695 240.24 355.804 244.401 357.3L249.442 359.034C250.186 359.292 251.189 359.52 251.782 360.025C250.205 364.29 249.467 370.032 251.404 374.301C252.273 376.215 254.91 379.022 257.245 377.705L258.617 376.762C261.657 372.632 262.67 365.058 258.504 361.379C260.064 360.24 262.443 359.885 264.232 359.154L271.568 355.845C274.782 354.507 278.076 353.387 281.202 351.846C278.263 350.531 275.372 349.136 272.352 348.015L267.701 346.389C261.595 344.281 262.608 324.935 255.019 317.348Z"/>
</svg>
