<?xml version="1.0" encoding="utf-8" ?>
<svg xmlns="http://www.w3.org/2000/svg" xmlns:xlink="http://www.w3.org/1999/xlink" width="512" height="512">
	<path fill="#5D0284" d="M69.2936 485.266C70.2177 484.274 71.2469 483.796 72.625 483.795L335.98 500.731C335.923 501.236 335.941 501.613 335.623 502.25L335.569 502.484C335.404 503.148 335.08 503.45 334.528 503.823C331.455 503.267 324.572 503.082 320.98 502.954L289.193 502.727C287.623 502.646 286.07 502.347 284.5 502.305L249.38 502.171C247.746 502.093 246.127 501.84 244.489 501.825L144.486 500.674C141.231 500.594 138.033 500.006 134.794 499.877L104.226 498.279L87.5 495.998C81.9045 494.976 67.0263 493.325 69.2936 485.266Z"/>
	<path fill="#4B006C" d="M66.8637 482.154L66.7802 482.373C65.2806 486.06 58.409 486.325 55.3995 484.989C46.136 480.875 44.5178 447.067 44.0158 438.468L43.0139 416.625C42.9461 415.359 42.7428 414.117 42.7053 412.845L42.0532 385.5L38.3777 308.099L38.3707 189.25C38.4556 187.174 39.115 185.12 39.1907 182.959L39.2938 161.3C39.3446 132.321 41.6006 119.465 60.8921 98.1488L130.254 26.2271C139.348 16.9377 151.713 2.50289 165.705 2.04068L416.777 2.04563C421.815 2.21402 426.617 3.6384 431.201 5.72008C461.432 19.4468 462.907 43.6609 461.485 72.8989L461.301 83C461.209 85.0392 460.824 87.0102 460.786 89.0789L460.797 144.885C460.853 147.22 461.263 149.505 461.327 151.843L461.464 165.952L469.249 276.556L472.459 347.875C472.603 350.305 473.058 352.687 473.13 355.157L473.019 434.131L471.932 446.337C469.997 467.118 465.157 490.677 444.258 500.488C430.628 506.886 408.779 505.504 394.038 505.78C391.434 505.828 388.919 506.376 386.308 506.439L339.118 506.485C335.755 506.436 332.291 507.532 334.528 503.823C335.08 503.45 335.404 503.148 335.569 502.484L335.623 502.25C335.941 501.613 335.923 501.236 335.98 500.516L72.625 483.795C71.2469 483.796 70.2177 484.274 69.2936 485.266C69.0429 484.904 69.1674 484.98 68.8247 484.813L67.9536 484.375C67.1809 483.81 67.2797 482.86 67.1801 482L66.8637 482.154ZM156.524 20.4658C161.199 23.0475 178.209 21.78 183.687 21.7716L221.653 21.7938L241.031 22.964L290.25 23.0225L347.796 24.1399L372.448 24.0116C392.894 23.4588 417.787 21.0025 431.746 39.6124C438.931 49.1914 439.547 63.8315 437.839 75.426L437.789 75.7296L436.273 107.051L436.267 111.071C432.51 112.886 429.053 115.124 425.507 117.308L412.5 125.203C404.566 129.957 378.552 144.034 373.393 150.5L373.398 150.908C373.371 152.218 373.131 153.473 373.142 154.875L373.377 155.25C373.368 156.165 373.48 156.763 373.627 157.625L373.877 159.125C373.981 159.619 373.954 159.878 374.127 160.375L374.578 162.624C374.647 163.007 374.776 163.265 374.892 163.625L375.01 164.069C375.152 164.54 375.277 164.691 375.625 165.017L376.472 165.501C376.868 166.551 378.025 167.632 378.719 168.521L403.522 204.146C405.242 206.466 406.704 208.999 408.563 211.213L413.357 217.868C414.382 220.037 415.516 221.861 416.826 223.858C422.92 227.871 429.735 230.7 436.591 233.125C441.846 234.984 446.374 236.102 451.423 239.167C450.453 238.022 450.341 227.739 450.159 225.543L448.721 208.972L445.997 156.572L445.875 90.1067C445.963 84.4581 446.862 78.9608 447.04 73.2859C447.426 70.4396 447.209 67.2889 447.23 64.3946C447.513 24.3331 428.455 14.9854 390.532 12.2103C387.722 12.0047 384.909 11.5271 382.102 11.4118L247.414 10.6795C224.987 10.6752 175.574 7.56356 156.524 20.4658Z"/>
	<path fill="#4DBBFA" d="M157.885 40.5739L155.739 83.3659C152.956 119.264 146.556 122.774 109.125 123.76L59.2155 124.557C62.4291 118.427 67.0912 112.863 71.6308 107.675L95.5529 82.4365L147.955 29.4538C149.042 28.4478 150.055 27.2177 151.462 26.6836C151.799 28.4381 152.352 29.8218 153.224 31.375C154.903 34.3649 154.468 33.0891 153.315 36.0524C154.408 37.1102 155.637 37.5993 156.505 39.0204L156.669 39.343C157.064 40.2115 156.612 40.6408 157.885 40.5739Z"/>
	<path fill="#9CE4F7" d="M153.315 36.0524C154.408 37.1102 155.637 37.5993 156.505 39.0204L153.491 39.751L153.315 36.0524Z"/>
	<path fill="#9CE4F7" d="M150.83 51.125L151.389 51.0485C151.109 52.5343 149.577 54.3123 148.736 55.6193C142.582 65.1825 141.463 73.2119 140.438 84.5571L138.893 105.625L138.63 105.5C138.53 104.933 138.744 103.999 138.776 103.403L139.295 87.1524C140.111 75.1463 141.906 59.8511 150.83 51.125Z"/>
	<path fill="#B8B8FF" d="M400.995 120.24L425.133 110.686C428.817 109.278 432.328 107.573 436.273 107.051L436.267 111.071C432.51 112.886 429.053 115.124 425.507 117.308L412.5 125.203C404.566 129.957 378.552 144.034 373.393 150.5L373.398 150.908C373.371 152.218 373.131 153.473 373.142 154.875L373.377 155.25C373.368 156.165 373.48 156.763 373.627 157.625L373.877 159.125C373.981 159.619 373.954 159.878 374.127 160.375L374.578 162.624C374.647 163.007 374.776 163.265 374.892 163.625L375.01 164.069C375.152 164.54 375.277 164.691 375.625 165.017L376.472 165.501C376.868 166.551 378.025 167.632 378.719 168.521L403.522 204.146C405.242 206.466 406.704 208.999 408.563 211.213L413.357 217.868C414.382 220.037 415.516 221.861 416.826 223.858C422.92 227.871 429.735 230.7 436.591 233.125C441.846 234.984 446.374 236.102 451.106 239.167L457.116 340.733L456.875 344.319C456.601 343.183 456.741 341.845 456.75 340.676C455.265 343.41 453.439 345.639 451.688 348.189L433.723 372.193L417.587 389.442C410.347 396.797 403.063 403.926 395.204 410.625L355.455 442.124C349.419 447.004 337.103 460.211 332.251 462.251L331.883 462.439C331.242 462.761 330.439 463.058 329.751 463.251L327.869 463.884C326.737 464.261 325.69 464.8 324.525 465.04L323.17 465.345C328.568 462.182 334.895 458.457 338.249 452.999L353.499 437.805C357.151 434.091 375.918 418.294 376.381 414.562C376.624 412.608 369.693 399.599 368.195 397.289C367.423 396.1 365.608 394.591 365.219 393.392C364.846 392.069 363.889 389.088 362.786 388.258C364.773 386.246 364.945 381.342 366.238 378.727L366.682 379.298C369.171 378.905 375.358 374.623 376.714 372.875C376.764 371.05 376.451 370.086 375.453 368.557C376.506 364.458 378.514 359.851 380.364 356.041C382.672 356.541 386.221 355.895 388.5 355.254C395.815 353.198 400.988 313.979 401.464 307.358C402.971 286.363 399.972 265.648 393.203 245.766L392.576 243.936C377.445 202.205 349.762 175.313 309.73 156.585L304.006 154.161L305.125 153.44C308.367 151.318 312.141 149.907 315.463 147.811L342.481 130.343C348.435 126.247 354.185 122.285 360.875 119.5C361.264 120.298 361.484 120.508 362.253 120.952L362.661 120.626L362.994 120.698C371.885 114.074 384.48 111.195 395.061 108.939C398.33 111.936 399.187 115.849 400.802 119.778L400.995 120.24Z"/>
	<path fill="#F8F7FF" d="M362.994 120.698C371.885 114.074 384.48 111.195 395.061 108.939C398.33 111.936 399.187 115.849 400.802 119.778L400.995 120.24C393.523 123.875 386.441 128.333 379.373 132.692C375.252 135.234 370.887 138.362 366.37 140.066C359.103 136.024 358.816 130.383 361.511 123.245L361.683 122.812C358.123 123.047 356.904 124.538 354.183 126.586L323.414 146.949C319.144 149.706 313.732 152.049 310.327 155.877L309.73 156.585L304.006 154.161L305.125 153.44C308.367 151.318 312.141 149.907 315.463 147.811L342.481 130.343C348.435 126.247 354.185 122.285 360.875 119.5C361.264 120.298 361.484 120.508 362.253 120.952L362.661 120.626L362.994 120.698Z"/>
	<path fill="#B8B8FF" d="M156.524 20.4658C161.199 23.0475 178.209 21.78 183.687 21.7716L221.653 21.7938L241.031 22.964L290.25 23.0225L347.796 24.1399L372.448 24.0116C392.894 23.4588 417.787 21.0025 431.746 39.6124C438.931 49.1914 439.547 63.8315 437.839 75.426L437.789 75.7296L436.394 107.051C432.328 107.573 428.817 109.278 425.133 110.686L400.995 120.24L400.802 119.778C399.187 115.849 398.33 111.936 395.061 108.939C384.48 111.195 371.885 114.074 362.994 120.698L362.661 120.626L362.253 120.952C361.484 120.508 361.264 120.298 360.875 119.5C354.185 122.285 348.435 126.247 342.481 130.343L315.463 147.811C312.141 149.907 308.367 151.318 305.125 153.44L304.006 154.161C285.374 145.543 274.097 142.224 254.106 142.27C220.313 142.347 200.18 146.367 172.627 165.83C168.819 168.52 164.215 171.028 163.153 175.933L158.032 182.53C156.45 184.688 154.623 187.65 152.18 188.87C144.135 186.074 141.586 191.834 137.375 197.553L128.517 209.875C113.723 232.594 105.305 258.361 102.692 285.295C102.469 284.748 102.328 284.416 102.422 283.818L102.5 283.375C98.5138 283.327 80.9632 285.552 80.8747 279.764L81.4956 215.045L82.5698 178.125C82.6392 175.984 83.1094 173.859 83.1772 171.75L83.2369 137.73L108.024 137.721C128.163 137.701 150.066 137.698 162.401 118.644C172.699 102.737 170.956 78.6055 170.945 60.4367L170.905 49.1593C170.879 45.9981 170.923 42.8289 170.243 39.7242C167.072 37.7907 159.214 35.8034 157.885 40.5739C156.612 40.6408 157.064 40.2115 156.669 39.343L156.505 39.0204C155.637 37.5993 154.408 37.1102 153.315 36.0524C154.468 33.0891 154.903 34.3649 153.224 31.375C152.352 29.8218 151.799 28.4381 151.462 26.6836L151.236 25.875C151.763 23.7846 154.795 21.6388 156.524 20.4658Z"/>
	<path fill="#F8F7FF" d="M266.006 51.5721C268.063 51.7893 276.952 54.2986 276.557 57.25C276.024 61.2345 268.633 69.3452 265.426 71.8528L262.935 73.5726C261.816 74.0676 260.768 74.4416 259.581 74.7452C246.789 67.6535 255.354 54.5935 266.006 51.5721Z"/>
	<path fill="#BEFDFC" d="M156.524 20.4658C161.199 23.0475 178.209 21.78 183.687 21.7716L221.653 21.7938L241.031 22.964L290.25 23.0225L347.796 24.1399L372.448 24.0116C392.894 23.4588 417.787 21.0025 431.746 39.6124C438.931 49.1914 439.547 63.8315 437.839 75.426L437.789 75.7296L436.394 107.051C432.328 107.573 428.817 109.278 425.133 110.686L400.995 120.24L400.802 119.778C399.187 115.849 398.33 111.936 395.061 108.939C384.48 111.195 371.885 114.074 362.994 120.698L362.661 120.626C358.644 118.265 361.359 104.413 359.768 99.8086C352.281 101.878 344.648 102.966 336.884 102.972C335.695 97.2359 336.768 95.5265 341.326 91.6179C337.065 86.6086 331.18 72.6063 330.147 66.3384L316.125 74.9927C313.333 76.7137 300.603 84.5149 297.711 83.6555C295.674 83.0503 295.33 79.9515 296.056 78.3105L296.201 78C299.111 71.6337 306.813 67.1903 312.492 63.4432L322.022 57.1917C323.042 56.555 325.765 55.3302 326.256 54.375L325.752 53.2851C322.716 52.1821 321.996 52.4224 318.979 53.8725L309.439 58.7252C305.09 60.9029 300.258 63.5305 295.475 64.5506C291.965 65.2991 289.662 62.4319 286.603 62.7081C284.556 62.8929 287.093 62.2454 288.185 62.6094L292.75 64.25C294.097 64.6844 294.616 64.0296 295.681 64.1484L295.938 64.1875C296.332 63.5902 296.361 63.1097 296.42 62.419L296.92 61.877C297.141 62.2327 297.371 62.5414 297.643 62.8597L298.365 62.6169C298.42 60.3809 297.364 55.4378 299.139 56.4114L299.5 56.625C300.572 57.2193 301.053 57.852 301.81 58.8045C301.803 56.2532 300.822 55.0891 299.774 53.0385C300.719 52.6945 303.23 54.5357 304.306 54.9314L304.191 54.5576C303.142 51.5565 300.873 51.3021 298.431 50.1596L298.082 49.1254L297.173 49.5319C296.96 49.5865 290.322 51.7039 293.342 50.3312L294.125 50C295.181 49.4023 296.478 48.8747 297.625 48.4922L298.75 48.125C296.888 43.5675 294.316 43.6938 292.845 40.9209L293.172 39.6276C286.923 44.0539 282.289 45.0349 275.027 44.9955L215.314 44.8383L181.025 40.841C177.36 40.306 173.726 39.6616 170.011 39.7242C167.072 37.7907 159.214 35.8034 157.885 40.5739C156.612 40.6408 157.064 40.2115 156.669 39.343L156.505 39.0204C155.637 37.5993 154.408 37.1102 153.315 36.0524C154.468 33.0891 154.903 34.3649 153.224 31.375C152.352 29.8218 151.799 28.4381 151.462 26.6836L151.236 25.875C151.763 23.7846 154.795 21.6388 156.524 20.4658Z"/>
	<path fill="#F8F7FF" d="M341.326 91.6179C346.29 88.3592 351.685 85.7096 357.238 83.6095L381.168 74.98C383.292 77.1538 387.75 89.3325 388.709 92.9532L390.919 97.0965C392.203 99.3563 393.802 101.703 394.406 104.25L394.125 104.73C392.914 104.144 391.88 102.038 391.441 100.776L390.926 98.601C390.866 98.2594 390.776 97.9383 390.671 97.6086C389.686 96.3332 388.935 95.5322 387.568 94.6759C384.315 93.438 372.992 90.4618 369.983 91.7315C366.301 93.2851 364.028 97.6961 360.274 99.5572L359.768 99.8086C352.281 101.878 344.648 102.966 336.884 102.972C335.695 97.2359 336.768 95.5265 341.326 91.6179Z"/>
	<path fill="#F8F7FF" d="M325.752 53.2851C327.311 51.9345 329.722 51.1408 331.583 50.233L363.2 34.807C367.475 32.9448 372.442 30.7744 376.999 29.8197C374.725 32.1987 371.79 33.653 369.141 35.567L361.75 41.3318C351.164 49.7162 342.238 59.8312 330.147 66.3384L316.125 74.9927C313.333 76.7137 300.603 84.5149 297.711 83.6555C295.674 83.0503 295.33 79.9515 296.056 78.3105L296.201 78C299.111 71.6337 306.813 67.1903 312.492 63.4432L322.022 57.1917C323.042 56.555 325.765 55.3302 326.256 54.375L325.752 53.2851Z"/>
	<path fill="#9381FF" d="M66.8637 482.154C65.944 474.4 65.4867 474.787 63.1917 467.644C60.0312 457.808 58.7855 445.187 58.5454 434.68L58.3788 415.531L56.3429 362.5C56.2604 360.798 55.9204 359.125 55.8121 357.428L54.5558 332.225L54.4453 304.873C54.3945 302.317 53.7394 299.905 53.6886 297.362L53.6383 191.412C53.6803 188.85 54.4276 186.417 54.463 183.891L55.0822 138.248L83.409 137.735L83.1772 171.75C83.1094 173.859 82.6392 175.984 82.5698 178.125L81.4956 215.045L80.8747 279.764C80.9632 285.552 98.5138 283.327 102.5 283.375L102.422 283.818C102.328 284.416 102.469 284.748 102.692 285.295C100.856 322.2 109.09 357.145 130.671 387.823C151.755 417.793 177.246 434.95 212.565 442.652C219.142 444.086 226.017 445.383 232.75 445.688L245.031 445.752C257.97 445.704 269.644 443.794 282.375 441.346L300.724 437.693C318.182 433.354 335.563 424.8 348.805 412.644L356.644 404.991C360.027 401.609 364.273 398.34 365.219 393.392C365.608 394.591 367.423 396.1 368.195 397.289C369.693 399.599 376.624 412.608 376.381 414.562C375.918 418.294 357.151 434.091 353.499 437.805L338.249 452.999C334.895 458.457 328.568 462.182 323.17 465.345L324.525 465.04C325.69 464.8 326.737 464.261 327.869 463.884L329.751 463.251C330.439 463.058 331.242 462.761 331.883 462.439L332.251 462.251C337.103 460.211 349.419 447.004 355.455 442.124L395.204 410.625C403.063 403.926 410.347 396.797 417.587 389.442L433.723 372.193L451.688 348.189C453.439 345.639 455.265 343.41 456.75 340.676C456.741 341.845 456.601 343.183 456.875 344.319L457.019 340.733C457.777 348.108 457.812 357.136 458.017 364.819L457.528 434.369C456.732 450.597 455.32 469.694 444.132 482.524C435.556 492.359 423.767 494.21 411.51 495.562L367.256 498.422C356.796 498.709 346.294 498.492 335.98 500.516L72.625 483.795C71.2469 483.796 70.2177 484.274 69.2936 485.266C69.0429 484.904 69.1674 484.98 68.8247 484.813L67.9536 484.375C67.1809 483.81 67.2797 482.86 67.1801 482L66.8637 482.154Z"/>
	<path fill="#B8B8FF" d="M308.163 443.875L309.3 444.125C305.63 446.374 301.664 448.143 297.625 449.604C297.372 449.669 297.08 449.678 296.82 449.707L296.939 449.469C300.101 447.13 304.316 444.74 308.163 443.875Z"/>
	<path fill="#4B006C" d="M425.486 422.306L425.726 422.296C429.716 422.26 433.906 424.299 433.719 428.721C431.944 470.672 400.773 480.668 363.688 478.735C353.888 478.182 353.383 464.514 362.471 462.522C365.84 461.784 369.91 462.826 373.371 462.988C397.295 464.11 412.255 459.093 417.582 434.794C418.888 428.835 418.496 423.771 425.486 422.306Z"/>
	<path fill="#F8F7FF" d="M163.153 175.933C164.215 171.028 168.819 168.52 172.627 165.83C200.18 146.367 220.313 142.347 254.106 142.27C274.097 142.224 285.374 145.543 304.006 154.161L309.73 156.585C349.762 175.313 377.445 202.205 392.576 243.936L393.203 245.766C399.972 265.648 402.971 286.363 401.464 307.358C400.988 313.979 395.815 353.198 388.5 355.254C386.221 355.895 382.672 356.541 380.364 356.041C378.514 359.851 376.506 364.458 375.453 368.557C376.451 370.086 376.764 371.05 376.714 372.875C375.358 374.623 369.171 378.905 366.682 379.298L366.238 378.727C364.945 381.342 364.773 386.246 362.786 388.258C363.889 389.088 364.846 392.069 365.219 393.392C364.273 398.34 360.027 401.609 356.644 404.991L348.805 412.644C335.563 424.8 318.182 433.354 300.724 437.693L282.375 441.346C269.644 443.794 257.97 445.704 245.031 445.752L232.75 445.688C226.017 445.383 219.142 444.086 212.565 442.652C177.246 434.95 151.755 417.793 130.671 387.823C109.09 357.145 100.856 322.2 102.628 285.295C105.305 258.361 113.723 232.594 128.517 209.875L137.375 197.553C141.586 191.834 144.135 186.074 152.18 188.87C154.623 187.65 156.45 184.688 158.032 182.53L163.153 175.933Z"/>
	<path fill="#4B006C" d="M366.238 378.727C364.821 377.184 361.807 374.547 361.625 372.401C361.047 365.579 369.246 362.722 375.453 368.557C376.451 370.086 376.764 371.05 376.714 372.875C375.358 374.623 369.171 378.905 366.682 379.298L366.238 378.727Z"/>
	<path fill="#B8B8FF" d="M383.183 265.941L385.434 275.723C382.063 277.633 368.252 288.494 364.625 287.129C363.418 281.465 365.754 279.267 369.677 276.146L378.199 269.439C379.827 268.218 381.589 267.214 383.183 265.941Z"/>
	<path fill="#B8B8FF" d="M327.414 183.022C330.278 184.795 332.897 186.947 335.453 189.133C330.778 192.202 325.952 194.166 321 196.733L300.502 207.68C298.132 208.853 292.844 210.461 293.172 206.061C293.407 202.902 320.471 188.539 327.414 183.022Z"/>
	<path fill="#4B006C" d="M344.851 283.85C347.212 283.713 351.197 283.221 353.386 284.103L353.75 284.263C359.069 286.51 359.463 291.899 355.416 296.008C352.31 299.162 348.703 299.455 344.526 299.515C337.69 299.628 325.39 295.453 332.672 287.469C335.849 283.986 340.519 284.068 344.851 283.85Z"/>
	<path fill="#B8B8FF" d="M351.12 203.691L356.1 209.255C353.969 210.266 351.978 211.619 349.894 212.732L324.322 227.078C322.058 228.335 314.104 233.427 311.977 233.189C310.126 232.982 309.009 231.041 309.562 229.327C311.019 224.817 345.914 206.502 351.12 203.691Z"/>
	<path fill="#4B006C" d="M156.926 284.853L156.936 284.848C160.887 284.522 165.522 284.126 168.766 286.845C172.12 289.654 172.528 293.583 169.521 296.864C166.177 300.512 161.925 300.29 157.369 300.43C153.534 300.612 147.986 300.112 144.804 297.682C142.345 295.803 141.295 292.186 143.422 289.677C146.567 285.968 152.388 285.294 156.926 284.853Z"/>
	<path fill="#B8B8FF" d="M279.747 160.636L286.227 162.596C283.693 165.395 279.05 165.904 275.609 166.97L263.832 170.83C253.691 174.17 243.859 178.064 234.149 182.495C218.565 189.606 221.65 179.974 230.072 175.346C235.22 172.516 241.026 170.697 246.624 168.994L269.836 162.991C271.719 162.584 278.644 161.541 279.747 160.636Z"/>
	<path fill="#B8B8FF" d="M305.967 170.885L314.688 175.73L260.17 199.555C255.669 201.061 252.555 195.252 257.232 192.536C259.848 191.017 262.728 189.78 265.49 188.547L301.116 173.062C302.639 172.278 304.121 171.746 305.63 171.046L305.967 170.885Z"/>
	<path fill="#4B006C" d="M163.153 175.933C164.215 171.028 168.819 168.52 172.627 165.83C200.18 146.367 220.313 142.347 254.106 142.27C274.097 142.224 285.374 145.543 304.006 154.161L309.73 156.585C349.762 175.313 377.445 202.205 392.576 243.936L393.203 245.766C399.972 265.648 402.971 286.363 401.464 307.358C400.988 313.979 395.815 353.198 388.5 355.254C386.221 355.895 382.672 356.541 380.364 356.041L378.699 355.075C372.375 350.77 378.721 344.525 380.625 338.498C386.327 320.447 388.981 294.78 385.434 275.723L383.183 265.941C381.794 261.777 381.029 257.336 379.655 253.125C374.532 237.429 366.821 221.935 356.1 209.255L351.12 203.691L335.453 189.133C332.897 186.947 330.278 184.795 327.414 183.022L314.688 175.73L305.967 170.885L286.227 162.596L279.747 160.636C250.526 153.687 218.005 154.469 191.778 170.583L181.536 177.359C174.705 182.189 169.403 187.857 163.762 177.25L163.153 175.933Z"/>
	<path fill="#4B006C" d="M102.628 285.295C105.305 258.361 113.723 232.594 128.517 209.875L137.375 197.553C141.586 191.834 144.135 186.074 152.18 188.87C153.916 189.956 155.326 191.138 156.46 192.865C155.249 199.001 151.495 202.796 147.9 207.659L141.644 216.803C128.551 237.327 118.768 264.504 117.328 289.125L117.237 297.449C117.239 301.814 117.158 306.332 117.939 310.639L122.665 335.269C131.094 366.552 149.758 394.242 176.322 412.97C196.596 427.262 223.106 436.581 247.808 436.581L260.003 436.404C295.165 434.223 316.352 425.285 340.53 400.498L346.72 393.595C356.623 381.901 358.229 391.503 362.786 388.258C363.889 389.088 364.846 392.069 365.219 393.392C364.273 398.34 360.027 401.609 356.644 404.991L348.805 412.644C335.563 424.8 318.182 433.354 300.724 437.693L282.375 441.346C269.644 443.794 257.97 445.704 245.031 445.752L232.75 445.688C226.017 445.383 219.142 444.086 212.565 442.652C177.246 434.95 151.755 417.793 130.671 387.823C109.09 357.145 100.856 322.2 102.628 285.295Z"/>
	<path fill="#4B006C" d="M252.642 229.598C262.979 228.506 270.475 232.716 278.882 238.237C283.873 241.515 292.979 248.808 283.625 253.982C277.546 257.345 271.314 251.017 266.603 247.879C254.259 239.655 243.096 247.258 232.146 253.855C232.52 254.403 233.873 254.958 234.512 255.323L241.842 259.486C258.918 269.268 277.628 278.478 290.32 294.015C308.236 315.946 316.873 357.376 291.787 377.651C265.992 398.5 218.525 390.827 198.657 365.658C195.904 362.171 193.232 357.747 193.858 353.125C194.447 348.779 198.769 344.987 202.996 347.729C206.471 349.983 209.133 354.258 211.946 357.31C228.027 374.759 260.398 383.128 280.341 367.41C302.78 349.035 289.83 312.648 271.659 296.192C266.697 291.698 261.011 288.031 255.338 284.512L224.298 266.349C221.387 281.739 230.074 288.607 241.907 296.595C247.036 300.058 252.317 303.335 257.777 306.252C270.635 313.123 286.503 319.389 279.534 336.727C275.682 346.31 266.889 354.926 257.393 358.944C248.027 362.907 241.203 354.61 243.789 351.342C245.622 349.024 249.034 347.515 251.492 345.945C256.997 342.429 264.202 336.51 267.041 330.442C264.528 327.62 261.344 325.564 258.155 323.587L246.519 316.755C230.282 307.377 211.793 296.321 208.938 275.875L208.817 274.965C207.249 259.846 213.675 250.409 225.002 241.747C233.161 235.508 242.328 230.762 252.642 229.598Z"/>
</svg>
