<?xml version="1.0" encoding="utf-8" ?>
<svg xmlns="http://www.w3.org/2000/svg" xmlns:xlink="http://www.w3.org/1999/xlink" width="512" height="512">
	<path fill="#141019" d="M20.2524 255.881L20.3315 288.462L23.6826 329.925C25.759 345.489 28.5794 370.038 46.25 375.762C51.2621 377.386 57.0281 377.007 62.2373 376.984L73.3288 376.835C74.8564 376.744 76.3557 376.394 77.875 376.331L96.875 376.173C98.9877 376.114 101.046 375.611 103.127 375.542L150.75 374.548L189.393 374.457L251.077 373.423C254.792 373.399 258.156 372.976 259.939 377.095L260.084 377.452C264.043 387.013 246.156 385.721 241.716 385.726L223.255 385.753C218.693 385.762 214.496 386.275 210.268 386.342L168.748 386.859C158.554 387.25 146.214 386.676 136.766 387.988C131.991 388.651 126.904 388.289 122.076 388.448L72.0728 390.403L58.257 390.524C54.2277 390.539 50.015 390.763 46.0187 390.202C3.45464 384.233 6.80763 334.472 6.87302 302.25L6.96638 143.748C7.0232 141.181 7.52955 138.661 7.60178 136.125L7.66977 118.75C7.70527 116.575 8.04896 114.422 8.1097 112.25L9.38249 68.5812C9.91888 50.5879 11.9345 19.7636 26.8035 8.99563C38.3959 0.6005 54.0836 2.3784 67.5501 2.35597L109.173 2.4955L256.677 11.1153L290.925 12.0913L346.625 11.6589L377.375 9.76139L447.815 2.19337L460.423 2.00441C464.45 2.00791 468.866 1.72773 472.835 2.38722L475.625 2.84664C493.12 6.86087 498.28 19.512 501.192 34.9873L501.336 35.7009C502.238 41.3619 501.866 47.6984 501.881 53.4345L501.87 107.101C501.874 111.217 502.201 115.6 501.795 119.685C500.007 137.7 474.783 124.649 484.552 112.318L484.803 112.01C487.413 108.714 489.104 109.401 491.004 107.578L490.54 58.6504C490.303 48.341 491.871 31.9604 485.664 23.0086L484.627 21.5883C480.456 16.6511 473.278 13.3978 466.884 12.9023L466.5 12.8752C455.246 11.9544 443.673 14.2156 432.478 15.2872L355.991 22.2769L289.307 22.9184L231.353 20.303L140.75 13.9325L120.048 13.0147C111.5 12.5189 104.099 12.1344 95.4124 12.1103C84.4387 12.0799 73.6499 11.9853 62.7219 13.0808C38.2146 15.5376 28.6182 21.7726 24.5287 47.6234C22.8347 58.3313 22.3817 69.113 21.4377 79.8955L22.125 82.6275L23.7106 82.2882C25.2536 85.3353 24.3104 88.0177 27.875 93.262L29.6807 95.7216C32.9759 100.151 37.4781 102.921 42.8134 104.177L40.7474 136.697L40.5417 150.627C40.4612 152.875 39.9955 155.098 39.9204 157.366L40.4986 246.014C40.6495 248.695 40.4355 251.631 40.8705 254.263C34.4123 255.123 27.1897 256.669 20.6259 255.917L20.2524 255.881Z"/>
	<path fill="#FFC2D4" d="M20.2524 255.881L21.4954 79.8955L22.125 82.6275L23.7106 82.2882C25.2536 85.3353 24.3104 88.0177 27.875 93.262L29.6807 95.7216C32.9759 100.151 37.4781 102.921 42.8134 104.177L40.7474 136.697L40.5417 150.627C40.4612 152.875 39.9955 155.098 39.9204 157.366L40.4986 246.014C40.6495 248.695 40.4355 251.631 40.8705 254.263C34.4123 255.123 27.1897 256.669 20.6259 255.917L20.2524 255.881Z"/>
	<path fill="#141019" d="M377.035 283.01C435.993 283.889 485.426 320.65 500.506 377.872C518.452 445.973 473.606 503.988 402.238 505.747C394.688 505.759 387.117 505.808 379.705 504.08L366.654 501.054C312.709 484.878 272.672 442.425 274.61 383.114C274.843 375.987 276.399 368.72 278.232 361.839C288.656 322.703 315.407 294.493 355.823 285.289C362.774 283.706 369.895 282.748 377.035 283.01Z"/>
	<path fill="#9381FF" d="M375.889 294.649C403.306 293.52 429.841 303.907 451.018 320.997C491.207 353.429 509.807 419.23 474.61 461.9C456.778 483.517 432.614 492.246 405.702 494.852L391.738 495.326C344.338 494.909 302.206 457.215 292.219 411.389C289.391 398.41 287.418 381.158 289.727 368.297C297.412 325.487 332.321 295.999 375.889 294.649Z"/>
	<path fill="#B8B8FF" d="M340.938 332.257L341.005 332.02C341.53 330.359 343.018 329.409 344.399 328.482C356.62 320.283 370.719 317.51 385.305 317.508C402.357 317.506 414.787 321.373 428.455 331.556C440.415 340.468 450.269 351.354 456.867 364.842C466.138 383.795 470.312 409.802 463.294 430.25C456.144 451.083 434.674 464.113 413.957 468.526C393.419 472.902 371.541 468.606 353.854 457.324C336.604 446.322 327.069 428.289 320.557 409.474C327.412 410.24 338.976 411.686 344.197 405.875C343.618 402.859 337.476 403.318 335.25 402.823L320.095 400.479C319.737 397.926 318.622 394.553 319.597 392.111C319.308 389.684 318.26 385.57 315.981 384.156L313.243 384.973C313.345 383.848 313.665 382.701 313.897 381.594C315.537 362.948 319.665 351.372 333.811 337.536C335.287 336.093 338.955 332.238 340.938 332.257Z"/>
	<path fill="#F8F7FF" d="M337.214 375.569L339.456 372.74C342.323 369.104 356.162 357.759 360.867 355.006C358.886 357.465 356.452 359.474 354.561 362.004L348.73 370.331C347.591 372.007 346.368 373.615 345.432 375.419L345.337 375.681C344.8 377.125 343.724 378.392 343.624 379.938L343.745 380.191C344.118 381.238 343.743 382.398 344.125 383.5L345.461 383.187C345.79 383.121 346.067 383.008 346.375 382.877L346.68 382.931C347.296 383.031 347.93 383.052 348.534 383.2C343.592 383.728 341.231 385.692 340.155 390.594C340.015 391.022 339.915 391.396 339.856 391.846L339.812 392.245C339.771 391.711 339.721 391.224 339.798 390.692L340.062 389.062C340.224 388.589 340.381 387.63 340.627 387.25L341.062 386.812C341.506 386.093 340.992 386.617 341.48 386.129L341.688 385.938C338.488 380.749 337.623 385.498 336.139 388.058C335.953 388.379 332.436 393.696 332.406 393.719L332.25 393.5C332.647 392.926 333.06 392.364 333.199 391.668L333.25 391.375C333.695 390.011 331.823 387.897 330.989 386.731L335.562 377.501C336.041 376.672 336.472 376.187 337.214 375.569Z"/>
	<path fill="#F8F7FF" d="M313.897 381.594C315.537 362.948 319.665 351.372 333.811 337.536C335.287 336.093 338.955 332.238 340.938 332.257L341.137 332.51C343.701 335.721 350.845 342.086 352.301 345.406C342.307 352.955 333.827 365.616 328.435 376.681L324.28 385.803C323.444 387.669 322.133 392.04 319.597 392.111C319.308 389.684 318.26 385.57 315.981 384.156L313.243 384.973C313.345 383.848 313.665 382.701 313.897 381.594Z"/>
	<path fill="#141019" d="M348.534 383.2L385.384 383.256L385.246 348.048C385.195 346.68 385.021 345.234 385.245 343.879C386.136 338.463 393.032 336.37 396.629 340.512L397.432 341.592C398.015 342.453 397.933 343.871 397.93 344.881L397.902 383.336L430.817 383.289C432.302 383.293 433.919 383.194 435.375 383.515C441.757 384.922 443.678 391.669 437.625 394.973L437.255 395.178C433.226 397.327 425.583 396.152 421.067 396.154L397.834 396.012L397.871 420.42C397.878 424.129 398.295 428.447 397.767 432.1C396.782 438.92 386.273 438.779 385.378 432.248C384.884 428.641 385.311 424.352 385.325 420.671L385.396 396.275L355.841 396.221C350.988 396.219 346.195 397.018 341.568 395.256C340.629 393.531 340.215 392.619 340.155 390.594C341.231 385.692 343.592 383.728 348.534 383.2Z"/>
	<path fill="#141019" d="M42.8065 104.177L44.4652 75.1227C45.4436 54.4813 44.7363 41.5982 70.6549 40.8543L84.875 40.7004C86.7334 40.6428 88.6196 40.3373 90.4873 40.2333L132.199 39.5564C133.897 39.5097 135.578 39.2166 137.275 39.1325L243.975 38.4538C246.225 38.4356 248.563 37.8721 250.875 37.8222L271.351 37.7071C273.138 37.663 274.899 37.3782 276.682 37.3001L320 36.1198L377.595 32.6204L435.827 27.5862C445.864 26.9877 458.272 26.2054 464.211 36L464.428 36.3533C466.259 39.4041 466.935 43.8669 467.25 47.3765L468.811 75.3581L470.327 126.529L470.936 277.675C470.934 282.026 471.192 286.545 470.721 290.87C466.491 296.311 459.258 294.02 458.67 287.395L458.646 287.025L458.376 286.918C453.1 284.772 448.525 280.902 443.146 278.675C406.056 263.322 365.051 256.21 326.831 271.843C318.037 275.44 309.831 280.304 301.822 285.375C294.685 289.894 292.141 292.112 284.314 295.36C286.047 297.345 287.293 299.384 288.273 301.84C285.482 304.024 280.475 306.382 276.871 305.125L276.538 305.015C273.761 304.059 271.373 301.333 269.326 299.327C269.392 300.294 269.878 300.473 269.875 301.5L269.627 301.625C270.323 302.694 269.193 303.679 268.187 304.129L267.304 304.459C263.291 306.04 258.375 307.051 254.113 307.785L229.459 313.058C227.094 313.529 224.655 314.365 222.27 314.625L222.205 315.739C219.614 323.895 210.118 322.052 202.297 322.675L152.686 326.263L112.408 328.445C101.389 328.905 89.6445 329.193 78.5796 329.227C51.5233 329.308 47.2608 328.877 44.1874 298.5L40.9403 254.263C40.4355 251.631 40.6495 248.695 40.4986 246.014L39.9204 157.366C39.9955 155.098 40.4612 152.875 40.5417 150.627L40.7474 136.697L42.8065 104.177ZM358.889 51.4792C358.176 52.4286 357.545 53.4092 356.544 54.0765C340.443 59.6427 309.844 60.887 292.817 61.7324L252.744 63.1267C250.575 63.1767 248.423 63.6017 246.236 63.653L159.634 64.1224C154.962 64.1164 150.103 64.3568 145.457 63.8021C148.383 66.3498 149.302 81.896 148.822 86.625L148.787 86.9947C148.285 91.6414 131.463 108.225 126.847 110.167C115.903 114.771 121.82 114.704 119.738 116.707C115.039 121.225 118.299 146.199 119.999 151.522C121.167 155.18 123.8 157.271 125.538 160.492C128.811 166.554 131.47 183.543 130.922 190.044C133.515 189.128 135.736 186.868 137.809 185.097C148.018 176.372 156.666 167.247 170.75 165.496C195.396 162.433 208.144 182.417 220.347 200.234L250.091 240.409C252.107 243.073 254.319 245.74 256.176 248.507L263.983 261.357L305.321 211.565C313.442 200.923 320.891 189.627 328.035 178.311L336.609 164.981C340.667 158.798 344.444 152.567 351.265 149.102C363.259 143.01 378.448 147.526 388.677 155.222C389.918 156.156 391.005 157.293 392.526 157.753L393.377 157.883C393.12 154.685 393.42 151.274 393.445 148.048L393.487 126.43C393.424 121.262 392.547 116.126 392.075 110.984C390.818 97.286 389.984 83.354 386.334 70.0322C384.098 63.699 383.27 56.3303 379.705 50.5715C377.46 50.2406 375.198 50.3553 372.937 50.4142L358.889 51.4792ZM130.922 190.044C112.84 209.909 94.4903 229.747 79.1482 251.853L76.2829 255.978C75.959 256.463 75.299 257.219 75.1336 257.763L75.0823 258.015C74.4079 260.959 71.7301 261.574 74.375 262.377L76 262.877C77.0585 263.141 78.0076 263.378 78.8125 262.501L79.1228 262.199C79.4124 261.91 79.5839 261.679 79.7849 261.329L80.6602 261.027C81.0596 260.917 82.5985 258.774 83.0348 258.257L91.8843 248.073C110.207 228.073 128.578 207.739 148.616 189.436C174.416 165.87 189.747 176.121 207.874 201.314L244.232 250.615L265.613 276.177L350.816 163.625C355.787 157.892 362.706 154.452 370.318 156.608L370.75 156.736C375.206 158.018 378.411 160.797 381.942 163.662L403.655 182.473C403.354 180.881 401.629 178.963 400.8 177.508C398.35 173.206 392.956 163.051 392.979 157.883L392.526 157.753C391.005 157.293 389.918 156.156 388.677 155.222C378.448 147.526 363.259 143.01 351.265 149.102C344.444 152.567 340.667 158.798 336.609 164.981L328.035 178.311C320.891 189.627 313.442 200.923 305.321 211.565L263.983 261.357L256.176 248.507C254.319 245.74 252.107 243.073 250.091 240.409L220.347 200.234C208.144 182.417 195.396 162.433 170.75 165.496C156.666 167.247 148.018 176.372 137.809 185.097C135.736 186.868 133.515 189.128 130.922 190.044ZM361.702 46.552L75.742 55.2906L76.0949 61.9057C84.4412 63.2624 97.2833 62.7622 106.58 62.9664L137.66 63.0673C139.891 63.0741 142.216 62.9441 144.39 63.5052L145.457 63.8789C150.103 64.3568 154.962 64.1164 159.634 64.1224L246.236 63.653C248.423 63.6017 250.575 63.1767 252.744 63.1267L292.817 61.7324C309.844 60.887 340.443 59.6427 356.544 54.0765C357.545 53.4092 358.176 52.4286 358.889 51.4792C359.276 50.4497 359.512 49.4522 359.716 48.3726C361.309 47.2451 365.499 46.5701 361.702 46.552Z"/>
	<path fill="#B8B8FF" d="M284.314 295.36L273.185 283.585C282.401 275.085 290.527 265.327 298.625 255.78L319.097 231L351.303 184.855C354.743 179.435 358.473 171.086 364.407 167.956C375.739 171.72 407.564 202.835 416.122 211.414L440.335 237.917C444.486 242.849 457.02 257.08 458.389 263.305C458.903 265.64 458.559 268.637 458.553 271.053L458.516 287.025L458.376 286.918C453.1 284.772 448.525 280.902 443.146 278.675C406.056 263.322 365.051 256.21 326.831 271.843C318.037 275.44 309.831 280.304 301.822 285.375C294.685 289.894 292.141 292.112 284.314 295.36Z"/>
	<path fill="#9381FF" d="M361.702 46.4062L427.25 40.5991C440.718 39.4632 454.325 34.9941 455.504 52.5368L458.853 241.009C458.438 240.29 458.102 239.833 457.5 239.281L403.655 182.473C403.354 180.881 401.629 178.963 400.8 177.508C398.35 173.206 392.956 163.051 392.979 157.883C393.12 154.685 393.42 151.274 393.445 148.048L393.487 126.43C393.424 121.262 392.547 116.126 392.075 110.984C390.818 97.286 389.984 83.354 386.334 70.0322C384.098 63.699 383.27 56.3303 379.705 50.5715C377.46 50.2406 375.198 50.3553 372.937 50.4142L358.889 51.4792C359.276 50.4497 359.512 49.4522 359.716 48.3726C361.309 47.2451 365.499 46.5701 361.702 46.4062Z"/>
	<path fill="#9381FF" d="M55.8522 287.828L54.4544 275.206C54.0609 270.458 54.3402 265.451 54.334 260.675L54.4123 162.377C54.4658 160.065 54.9902 157.873 55.1033 155.596L57.169 99.4085L58.3643 82.4305C58.6078 76.9541 56.8708 62.4099 60.7209 58.1523C63.7485 54.8043 71.5311 55.4412 75.7339 55.33L76.0949 61.9057C84.4412 63.2624 97.2833 62.7622 106.58 62.9664L137.66 63.0673C139.891 63.0741 142.216 62.9441 144.39 63.5052L145.457 63.7779C148.383 66.3498 149.302 81.896 148.822 86.625L148.787 86.9947C148.285 91.6414 131.463 108.225 126.847 110.167C115.903 114.771 121.82 114.704 119.738 116.707C115.039 121.225 118.299 146.199 119.999 151.522C121.167 155.18 123.8 157.271 125.538 160.492C128.811 166.554 131.47 183.543 130.922 190.044C112.84 209.909 94.4903 229.747 79.1482 251.853L76.2829 255.978C75.959 256.463 75.299 257.219 75.1336 257.763L75.0823 258.015C74.4079 260.959 71.7301 261.574 74.375 262.377L76 262.877C77.0585 263.141 78.0076 263.378 78.8125 262.501L79.1228 262.199C79.4124 261.91 79.5839 261.679 79.7849 261.329L80.6602 261.027L56.7673 296.223L55.8522 287.828Z"/>
	<defs>
		<linearGradient id="gradient_0" gradientUnits="userSpaceOnUse" x1="62.619499" y1="280.228" x2="75.248901" y2="262.569">
			<stop offset="0" stop-color="#90B5FF"/>
			<stop offset="1" stop-color="#C7EBFF"/>
		</linearGradient>
	</defs>
	<path fill="url(#gradient_0)" d="M55.8522 287.828L56.3725 288.875C57.7378 294.811 55.2842 296.618 58.6466 292.125L59.8125 290.562C60.078 290.035 59.8678 290.242 60.1992 289.91L60.375 289.75C60.3792 289.12 61.6608 287.199 62.1992 286.66L62.8775 285.375C63.2142 285.068 63.3999 284.772 63.625 284.377L64.125 283.75C64.3098 282.994 64.3828 282.871 65 282.375C63.6792 281.851 62.6633 280.868 61.4911 280.38L61.2836 280.311C62.967 274.604 65.4546 270.925 69.0031 266.149L75.1336 257.763L75.0823 258.015C74.4079 260.959 71.7301 261.574 74.375 262.377L76 262.877C77.0585 263.141 78.0076 263.378 78.8125 262.501L79.1228 262.199C79.4124 261.91 79.5839 261.679 79.7849 261.329L80.6602 261.027L56.7673 296.223L55.8522 287.828Z"/>
	<path fill="#31B1D2" d="M222.205 315.739L221.958 314.75C220.485 310.124 219.104 309.606 214.914 309.709L178.706 312.421L131.305 315.432L108.06 316.291C106.246 316.413 104.433 316.769 102.625 316.851L82.0149 316.932C76.4393 316.957 70.629 317.343 65.0837 316.929C59.6161 316.521 61.2147 313.669 63.0323 309.93C69.3059 297.025 78.469 284.823 87.4745 273.75L126.917 229.421L148.408 207.658C154.452 201.919 163.64 190.959 172.228 189.25L172.625 189.174C174.772 188.738 177.158 189.47 178.998 190.604C188.311 194.173 200.413 213.354 206.166 221.301C217.471 236.918 228.399 253.005 240.707 267.852L266.919 296.704C267.651 297.467 268.689 298.302 269.26 299.155L269.326 299.327C269.392 300.294 269.878 300.473 269.875 301.5L269.627 301.625C270.323 302.694 269.193 303.679 268.187 304.129L267.304 304.459C263.291 306.04 258.375 307.051 254.113 307.785L229.459 313.058C227.094 313.529 224.655 314.365 222.27 314.625L222.205 315.739Z"/>
	<path fill="#B8B8FF" d="M254.113 307.785C253.312 306.641 252.521 305.509 251.41 304.643C237.345 293.688 231.802 286.427 224.066 270.43L206.903 233.253C199.629 218.878 191.278 205.953 179.963 194.516C176.982 191.504 174.96 190.597 178.548 190.607L178.998 190.604C188.311 194.173 200.413 213.354 206.166 221.301C217.471 236.918 228.399 253.005 240.707 267.852L266.919 296.704C267.651 297.467 268.689 298.302 269.26 299.155L269.326 299.327C269.392 300.294 269.878 300.473 269.875 301.5L269.627 301.625C270.323 302.694 269.193 303.679 268.187 304.129L267.304 304.459C263.291 306.04 258.375 307.051 254.113 307.785Z"/>
	<defs>
		<linearGradient id="gradient_1" gradientUnits="userSpaceOnUse" x1="286.686" y1="254.703" x2="237.269" y2="43.056499">
			<stop offset="0" stop-color="#B9B9FF"/>
			<stop offset="1" stop-color="#DDDEFF"/>
		</linearGradient>
	</defs>
	<path fill="url(#gradient_1)" d="M358.889 51.4792L372.937 50.4142C375.198 50.3553 377.46 50.2406 379.705 50.5715C383.27 56.3303 384.098 63.699 386.334 70.0322C389.984 83.354 390.818 97.286 392.075 110.984C392.547 116.126 393.424 121.262 393.487 126.43L393.445 148.048C393.42 151.274 393.12 154.685 393.377 157.883L392.526 157.753C391.005 157.293 389.918 156.156 388.677 155.222C378.448 147.526 363.259 143.01 351.265 149.102C344.444 152.567 340.667 158.798 336.609 164.981L328.035 178.311C320.891 189.627 313.442 200.923 305.321 211.565L263.983 261.357L256.176 248.507C254.319 245.74 252.107 243.073 250.091 240.409L220.347 200.234C208.144 182.417 195.396 162.433 170.75 165.496C156.666 167.247 148.018 176.372 137.809 185.097C135.736 186.868 133.515 189.128 130.922 190.044C131.47 183.543 128.811 166.554 125.538 160.492C123.8 157.271 121.167 155.18 119.999 151.522C118.299 146.199 115.039 121.225 119.738 116.707C121.82 114.704 115.903 114.771 126.847 110.167C131.463 108.225 148.285 91.6414 148.787 86.9947L148.822 86.625C149.302 81.896 148.383 66.3498 145.457 63.8021C150.103 64.3568 154.962 64.1164 159.634 64.1224L246.236 63.653C248.423 63.6017 250.575 63.1767 252.744 63.1267L292.817 61.7324C309.844 60.887 340.443 59.6427 356.544 54.0765C357.545 53.4092 358.176 52.4286 358.889 51.4792ZM254.084 82.3429C232.844 84.6985 209.417 108.861 211.854 130.477C213.155 142.019 214.369 154.608 224.129 162.361C236.719 172.361 258.581 175.273 274.063 174.897C296.514 173.598 318.058 159.237 316.448 134.75C315.902 126.455 310.847 120.128 305.948 113.788C293.417 97.5717 276.67 80.1989 254.286 82.3057L254.084 82.3429ZM225.935 80.625C225.353 80.9426 224.938 81.1789 224.767 81.875L224.665 83.375C226.186 84.925 228.345 84.2478 229.892 83.1665C234.36 79.7229 228.399 80.1746 225.935 80.625Z"/>
	<path fill="#F8F7FF" d="M188.249 87.062C191.788 86.9068 194.751 87.648 196.969 90.6776C195.894 92.8142 194.427 95.9629 192.375 97.252C186.416 98.6011 179.019 88.7515 188.249 87.062Z"/>
	<path fill="#B8B8FF" d="M358.889 51.4792L372.937 50.4142C375.198 50.3553 377.46 50.2406 379.705 50.5715C383.27 56.3303 384.098 63.699 386.334 70.0322L386.047 70.1267C383.353 70.9243 381.078 72.6762 378.297 73.2816L377.875 73.3681C375.895 73.7865 373.786 73.905 371.78 73.5929L371.375 73.5247C363.089 72.1782 356.083 62.1377 356.544 54.0765C357.545 53.4092 358.176 52.4286 358.889 51.4792Z"/>
	<path fill="#141019" d="M261.945 96.8705C285.221 96.8004 297.338 121.512 283.487 140.75L282.634 141.886C276.189 149.66 266.523 154.206 256.622 155.214C251.222 155.357 245.513 153.618 241.114 150.489L240.75 150.227C227.893 141.067 225.923 121.993 236.016 110.079C242.715 102.172 251.722 97.7565 261.945 96.8705ZM243.561 125.918L243.863 125.877C245.431 124.093 246.653 121.242 247.97 119.215C251.998 113.02 262.263 107.374 269.217 112.331C269.744 112.706 269.76 112.635 270.375 112.665L271.01 111.617C258.269 102.844 242.822 110.913 243.561 125.918Z"/>
	<path fill="#FFC911" d="M243.561 125.918L243.863 125.877C245.431 124.093 246.653 121.242 247.97 119.215C251.998 113.02 262.263 107.374 269.217 112.331C269.744 112.706 269.76 112.635 270.375 112.665L271.01 111.617C283.285 120.733 273.044 139.154 260.848 140.779C252.185 141.933 244.906 133.94 243.561 125.918Z"/>
</svg>
