<?xml version="1.0" encoding="utf-8" ?>
<svg xmlns="http://www.w3.org/2000/svg" xmlns:xlink="http://www.w3.org/1999/xlink" width="512" height="512">
	<path fill="#260B32" d="M220.172 2.0234L390.417 2.20236C394.908 2.36167 399.236 3.09701 403.721 3.32355L411.507 3.89635C429.164 5.20395 458.513 5.55593 469.402 21.8573L472.197 26.2407C476.659 34.7456 477.034 42.2021 477.034 51.6427L476.963 67.4166L463.946 279.258L462.804 310.744L462.827 350.235C462.89 351.881 463.245 353.484 463.32 355.125L464.384 396.434C464.367 428.417 457.517 439.666 426.367 442.878C416.272 443.919 406.385 443.747 396.235 443.801L396.385 460.877C396.421 472.589 397.037 484.377 388.367 493.609C379.311 503.253 366.092 504.684 353.625 505.54L291.159 508.975C289.614 510.037 285.966 509.71 284.075 509.725L146.625 509.559C144.621 509.472 142.701 509.019 140.714 508.884L86.424 504.136C78.0571 503.288 69.948 502.873 62.494 498.552C42.2173 486.799 44.5546 457.736 43.4378 437.625L41.7956 411.5L39.0827 340.381C39.0383 338.652 38.74 336.945 38.7008 335.215L36.5185 262.582C36.453 260.966 36.1964 259.364 36.1582 257.75L36.0941 236.373C36.0691 233.632 35.5918 230.904 35.5694 228.197L35.4638 177.375C35.4269 175.118 34.8806 172.911 34.8223 170.709L34.7246 139.851C34.6874 134.899 33.8461 129.326 35.1174 124.485L35.2475 124C40.7842 101.97 63.3736 103.859 81.25 102.047L81.2071 82.3172C81.1537 76.6742 80.3469 71.0501 81.7304 65.5C86.5727 46.0743 110.052 47.15 125.986 47.1171L150.354 47.0079C149.563 42.7009 149.507 38.428 149.496 34.0626C149.426 5.2643 167.94 4.49541 191.934 3.02607C194.641 2.86029 197.311 2.31011 200.03 2.16537L220.172 2.0234Z"/>
	<defs>
		<linearGradient id="gradient_0" gradientUnits="userSpaceOnUse" x1="149.44" y1="206.925" x2="463.88699" y2="227.64999">
			<stop offset="0" stop-color="#C1C4FF"/>
			<stop offset="1" stop-color="#FFFFFE"/>
		</linearGradient>
	</defs>
	<path fill="url(#gradient_0)" d="M161.703 26.3074C164.483 15.5263 181.535 15.8406 190.387 15.125L236.625 12.9072C240.973 12.6709 245.419 12.2515 249.755 12.1403L341.716 12.1272C343.654 12.1956 345.537 12.6421 347.487 12.7213L426.768 17.573C454.114 20.4425 464.818 24.5413 464.848 53.3115L464.485 72.8482L454.314 227.221L451.346 288C451.17 291.06 450.714 294.058 450.63 297.154L450.641 360.869C450.717 363.686 451.285 366.392 451.397 369.198L451.581 386.25C451.659 387.818 452.003 389.382 452.092 390.969L452.221 403.6C452.225 407.109 452.287 410.904 451.395 414.326L451.008 415.5C444.898 433.1 420.443 431.742 404.927 431.732C401.704 431.73 398.324 431.936 395.12 431.615L395.021 422.125C394.931 419.944 394.6 417.809 394.566 415.614L394.444 394.125C394.367 391.98 393.886 389.906 393.848 387.738L393.377 354.637C393.319 352.679 392.947 350.733 392.882 348.762L392.369 322.151L391.216 282.587L388.259 221.125L380.765 106.5C379.143 88.8955 376.264 64.1524 356.345 57.5336C352.729 56.3319 348.882 55.7993 345.125 55.2334L329.156 53.2811L259.289 49.0943C257.385 49.0306 255.521 48.6718 253.61 48.6158L238.305 48.5287C235.846 48.5219 232.995 48.8014 230.617 48.266L230.414 48.2644L181.166 47.5402L181.041 47.287L161.962 47.0876L161.565 37.375C161.349 33.9305 160.722 29.6433 161.703 26.3074Z"/>
	<path fill="#260B32" d="M356.426 45.3557C373.466 42.6072 385.974 61.3669 373.62 54.4862C367.359 50.9723 361.909 49.246 354.907 47.7361L348.479 46.2062L356.426 45.3557Z"/>
	<path fill="#F8F7FF" d="M424.126 222.279C430.309 221.679 429.318 223.999 429.595 229.145L433.834 307.63L436.884 368.506C436.986 370.89 437.401 373.267 437.476 375.635L437.63 408.959C437.63 410.703 437.739 412.633 437.355 414.337L437.288 414.625C436.933 416.303 436.492 416.749 435.186 417.858C431.458 419 427.787 417.773 424.272 416.546L423.502 386.159C423.43 383.355 422.952 380.594 422.853 377.83L422.676 364.066C422.598 362.257 422.233 360.481 422.202 358.671L422.109 311.779C422.058 309.218 421.561 306.726 421.514 304.172L421.487 232.254C421.491 227.563 419.828 223.636 424.126 222.279Z"/>
	<defs>
		<linearGradient id="gradient_1" gradientUnits="userSpaceOnUse" x1="280.14099" y1="54.486099" x2="191.938" y2="513.04999">
			<stop offset="0" stop-color="#A7A8FF"/>
			<stop offset="1" stop-color="#FFFFFD"/>
		</linearGradient>
	</defs>
	<path fill="url(#gradient_1)" d="M139.362 107.711L139.441 107.403C140.111 104.596 138.512 99.6395 135.249 99.0266C132.381 98.4878 128.755 99.0702 125.82 99.2491L109.93 100.234C108.027 100.35 94.1539 101.301 93.5141 101.118L93.4233 72.5393C93.3662 57.3851 110.437 59.1937 121.528 59.1633L212.604 59.2145L253.875 60.3183C255.526 60.3597 257.154 60.6614 258.802 60.712L337.016 65.8672C366.626 69.505 366.544 81.5971 368.852 106.833L373.816 178.75L375.703 213.25C375.831 215.121 376.245 216.986 376.346 218.875L376.689 231.75L378.306 259.284L379.595 307.625C379.644 309.16 379.919 310.672 379.99 312.202L380.387 330.385L380.501 363.059C380.63 367.14 381.32 371.198 381.415 375.297L381.537 396C381.607 397.827 381.997 399.662 382.076 401.509L383.272 431.875C383.403 433.612 383.676 435.305 383.73 437.054L383.836 455.346C383.867 464.981 385.827 478.157 378.261 485.674C370.947 492.94 358.636 492.627 349.092 493.315L235.894 501.296L194.738 501.367C185.196 501.249 175.522 500.034 166.014 499.22L90.3182 492.293C85.39 491.865 80.0851 491.872 75.2718 490.755C56.8683 486.484 57.148 465.098 56.2757 450.268L52.79 384.94C52.4886 378.203 51.8917 371.38 52.1443 364.631L52.1885 364.11L50.2775 305.777L49.6581 283.202L48.4774 241.139C48.4568 228.914 47.7349 217.407 47.7096 205.329L47.666 177.32L46.7089 141.999C46.6758 122.813 47.4743 116.977 70.4409 114.617L109.594 112.297C112.809 112.173 115.933 111.614 119.173 111.543L129.765 111.479C133.999 111.465 136.6 111.978 139.17 108.013L139.362 107.711Z"/>
	<path fill="#260B32" d="M368.224 457.375C374.572 454.944 374.344 465.025 373.971 468.252C372.16 483.916 356.807 486.116 343.631 484.505C340.587 483.898 339.192 482.105 337.241 480.031C340.061 480.315 342.918 480.261 345.75 480.277C361.478 480.366 367.344 476.832 367.671 461.424C367.696 460.25 367.603 458.877 368.049 457.773L368.224 457.375Z"/>
	<path fill="#260B32" d="M124.738 419.803L211.096 419.936C217.647 419.98 224.108 420.729 231.122 420.72L301.239 420.713C304.265 420.713 307.358 420.578 310.375 420.741C317.921 421.148 318.357 432.393 309.965 432.744L219.875 432.453C214.226 432.387 208.649 431.763 202.601 431.751L130.685 431.862C126.251 432.098 119.758 433.547 118.383 427.603C117.44 423.525 121.135 420.544 124.738 419.803Z"/>
	<path fill="#260B32" d="M315.311 363.846C319.257 363.411 325.629 362.507 328.662 365.337C331.868 368.327 331.431 375.305 326.375 375.584C322.483 375.799 318.502 375.636 314.601 375.639L156.201 375.663C154.18 375.678 152.193 376.021 150.174 376.077L123.375 376.174C115.796 375.898 117.204 368.498 121.676 365.085C122.996 364.045 124.34 364.095 125.922 364.019L315.311 363.846Z"/>
	<path fill="#86E09C" d="M97.8778 287.288L151.624 235.678C154.818 233.159 159.043 230.069 163.34 230.643L163.75 230.704C171.183 231.763 178.869 240.239 184.492 244.751L231.819 285.743L232.877 284.875C237.344 282.137 240.62 278.695 245.889 277.314C245.091 273.668 249.813 269.485 252.589 268C254.633 268.751 257.12 271.536 258.353 273.302C266.131 270.973 277.732 258.937 283.333 252.72C283 252.053 282.353 251.585 281.816 251.072L278.435 247.837L279.008 246.125C280.193 243.149 282.326 240.852 285.244 239.545C287.375 240.322 289.368 241.408 291.331 242.533C312.765 256.777 340.033 288.458 355.001 308.563C360.738 316.269 366.907 322.128 362.482 331.955C357.238 339.987 350.164 339.91 341.687 339.887L298.002 338.804C296.11 338.771 294.246 338.458 292.358 338.398L280.181 338.294C278.308 338.249 276.474 337.889 274.599 337.836L238.049 337.329L167.273 336.725C159.056 336.749 150.836 337.168 142.625 337.464L89.5905 340.479C86.8546 340.545 83.9934 341.015 81.2721 340.702C74.5571 339.929 68.0677 333.709 67.5519 326.883C67.0707 320.517 74.7408 313.149 78.6494 308.524C79.3256 308.323 81.672 305.252 82.2611 304.597L97.8778 287.288Z"/>
	<path fill="#260B32" d="M245.889 277.314C245.091 273.668 249.813 269.485 252.589 268C254.633 268.751 257.12 271.536 258.353 273.302C258.831 274.754 259.122 276.105 259.313 277.621C256.463 282.331 253.429 283.911 248.525 280.49L247.74 279.909C247.046 279.077 246.459 278.235 245.889 277.314Z"/>
	<path fill="#260B32" d="M97.8778 287.288L151.624 235.678C154.818 233.159 159.043 230.069 163.34 230.643L163.75 230.704C171.183 231.763 178.869 240.239 184.492 244.751L231.819 285.743C233.927 287.765 236.14 290.363 238.497 292.039C241.135 295.103 246.682 298.553 247.661 302.524C249.036 308.1 241.45 309.72 237.223 306.734C234.141 304.556 231.459 301.681 228.729 299.088L180.376 256.65C174.256 251.674 168.184 246.082 161.435 242C158.813 243.861 156.414 246.142 154.008 248.274L142.898 258.319C124.066 275.789 106.062 294.181 89.375 313.721L83.057 321.469C75.3574 331.397 86.2552 329.287 93.4826 328.727L134.35 326.13C136.69 326.019 139.009 325.645 141.354 325.585L156.033 325.438C158.471 325.37 160.824 324.811 163.245 324.761L219.875 324.804C222.14 324.881 224.382 325.369 226.625 325.458L256.186 325.577C258.157 325.641 260.05 326.126 262 326.196L292.317 326.806C302.335 327.047 312.207 327.543 322.251 327.832L340.812 328.429C350.45 328.685 356.146 329.073 348.269 318.412L343.678 312.328C333.754 299.578 299.121 259.437 284.132 252.625L283.333 252.72C283 252.053 282.353 251.585 281.816 251.072L278.435 247.837L279.008 246.125C280.193 243.149 282.326 240.852 285.244 239.545C287.375 240.322 289.368 241.408 291.331 242.533C312.765 256.777 340.033 288.458 355.001 308.563C360.738 316.269 366.907 322.128 362.482 331.955C357.238 339.987 350.164 339.91 341.687 339.887L298.002 338.804C296.11 338.771 294.246 338.458 292.358 338.398L280.181 338.294C278.308 338.249 276.474 337.889 274.599 337.836L238.049 337.329L167.273 336.725C159.056 336.749 150.836 337.168 142.625 337.464L89.5905 340.479C86.8546 340.545 83.9934 341.015 81.2721 340.702C74.5571 339.929 68.0677 333.709 67.5519 326.883C67.0707 320.517 74.7408 313.149 78.6494 308.524C79.3256 308.323 81.672 305.252 82.2611 304.597L97.8778 287.288Z"/>
	<path fill="#9381FF" d="M179.973 106.832C181.669 99.3568 186.652 99.0989 191.639 103.642C199.333 102.471 207.411 102.915 215.178 102.914C237.833 102.909 262.213 102.814 281.265 116.971C299.816 130.756 301.051 167.994 299.665 189.35L296.596 216.25C295.657 223.452 295.429 230.588 293.038 237.52C292.47 239.167 291.672 240.828 291.331 242.533C289.368 241.408 287.375 240.322 285.244 239.545C282.326 240.852 280.193 243.149 279.008 246.125L278.435 247.837L281.816 251.072C282.353 251.585 283 252.053 283.333 252.72C277.732 258.937 266.131 270.973 258.353 273.302C257.12 271.536 254.633 268.751 252.589 268C249.813 269.485 245.091 273.668 245.889 277.314C240.62 278.695 237.344 282.137 232.877 284.875L231.819 285.743L184.492 244.751C178.869 240.239 171.183 231.763 163.75 230.704L163.34 230.643C159.043 230.069 154.818 233.159 151.624 235.678L97.8778 287.288L82.2611 304.597C81.672 305.252 79.3256 308.323 78.6494 308.524L78.8775 307.5C79.0658 307.217 79.4064 306.903 79.6275 306.625L78.3775 305.625C77.7164 305.652 77.4764 305.481 76.9097 305.285L76.625 305.193C72.3437 303.756 67.6278 303.44 63.1632 303.098L50.2334 302.515C50.3853 303.456 50.283 304.423 50.2325 305.372L49.6581 283.202L48.4774 241.139C48.4568 228.914 47.7349 217.407 47.7096 205.329L47.666 177.32L46.7089 141.999C46.6758 122.813 47.4743 116.977 70.4409 114.617L109.594 112.297C112.809 112.173 115.933 111.614 119.173 111.543L129.765 111.479C133.999 111.465 136.6 111.978 139.17 108.013L139.362 107.711C142.338 108.154 145.335 108.078 148.326 108.089L161.376 108.103C165.617 108.099 176.689 109.369 179.973 106.832Z"/>
	<path fill="#F8F7FF" d="M77.8467 149.875C79.4644 151.769 78.6108 157.349 78.6149 159.75L78.5974 168.96C78.5818 171.286 78.724 173.664 77.8879 175.875L76.9501 158.307C76.9577 155.863 76.5159 151.991 77.8467 149.875Z"/>
	<path fill="#F8F7FF" d="M75.7885 207.875L76.2591 207.876C76.5777 210.334 76.4557 212.99 76.4641 215.468L76.4808 227.818C76.4822 234.935 77.8446 256.66 75.3699 262.416L75.0259 262.333C74.4912 261.116 74.6111 259.365 74.5774 258.034L74.7135 223.809L75.7885 207.875Z"/>
	<path fill="#260B32" d="M179.973 106.775C181.669 99.3568 186.652 99.0989 191.639 103.642C195.746 111.379 183.182 115.693 180.244 107.625L179.973 106.775Z"/>
	<path fill="#B8B8FF" d="M49.6581 283.202L87.6586 284.956C90.2564 285.096 92.982 285.172 95.4985 285.875L95.7725 285.944C96.6602 286.181 97.2058 286.685 97.8778 287.288L82.2611 304.597C81.672 305.252 79.3256 308.323 78.6494 308.524L78.8775 307.5C79.0658 307.217 79.4064 306.903 79.6275 306.625L78.3775 305.625C77.7164 305.652 77.4764 305.481 76.9097 305.285L76.625 305.193C72.3437 303.756 67.6278 303.44 63.1632 303.098L50.2334 302.515C50.3853 303.456 50.283 304.423 50.2325 305.372L49.6581 283.202Z"/>
	<path fill="#260B32" d="M233.33 138.198C236.548 138.108 240.063 138 243.25 138.396C281.509 143.145 297.557 187.111 274.379 215.508C266.964 224.591 253.559 232.014 241.637 233.087L235.624 233.384C232.288 233.412 228.782 233.563 225.471 233.157C205.816 230.747 188.495 214.677 184.323 195.312C177.943 165.7 203.712 138.091 233.33 138.198Z"/>
	<defs>
		<linearGradient id="gradient_2" gradientUnits="userSpaceOnUse" x1="215.058" y1="216.763" x2="253.96899" y2="153.35001">
			<stop offset="0" stop-color="#FECE39"/>
			<stop offset="1" stop-color="#FBE958"/>
		</linearGradient>
	</defs>
	<path fill="url(#gradient_2)" d="M232.494 148.853L232.802 148.811C264.997 146.176 286.068 182.17 266.276 206.228C258.889 215.208 248.8 220.39 237.311 221.486C233.5 221.822 229.314 221.891 225.538 221.206C199.23 216.43 185.891 184.482 203.335 163.709C210.815 154.802 221.01 149.903 232.494 148.853Z"/>
	<path fill="#260B32" d="M233.412 167.324C235.471 167.112 237.783 167.099 239.796 167.603L240.25 167.724C255.568 171.687 260.745 197.779 238.962 203.684C214.91 208.273 210.178 171.407 233.412 167.324Z"/>
	<path fill="#F8183E" d="M235.109 178.562C238.287 178.383 241.196 179.434 242.237 182.813L242.556 183.917C243.737 188.798 241.345 191.855 236.707 192.873C227.298 193.975 226.213 181.145 235.109 178.562Z"/>
</svg>
