<?xml version="1.0" encoding="utf-8" ?>
<svg xmlns="http://www.w3.org/2000/svg" xmlns:xlink="http://www.w3.org/1999/xlink" width="512" height="512">
	<path fill="#24232C" d="M50.5247 31.2813C54.592 30.9945 56.9856 33.365 59.974 35.7887L68.2343 42.5425C70.7 44.5934 73.4438 46.5234 75.6674 48.8326C79.9458 53.2758 75.7497 58.6801 71.0471 60.3102C66.0035 60.6607 62.9597 56.5262 59.2731 53.6066C53.6811 49.1781 33.8317 36.6175 50.5247 31.2813Z"/>
	<path fill="#24232C" d="M79.7108 17.2587C81.0618 17.2273 82.9686 16.9896 84.2457 17.4199L84.5 17.5143C89.5183 19.3209 94.8585 28.83 98.125 33.0045C100.297 35.7796 103.048 38.4709 104.942 41.4043L105.844 42.9162C107.671 46.751 105.107 50.2848 101.51 51.7971C94.1092 54.3744 87.0415 42.486 83.3419 37.7153C79.1994 32.3736 68.0829 21.3367 79.7108 17.2587Z"/>
	<path fill="#24232C" d="M159.766 12.2553C165.689 12.116 170.066 16.6796 167.001 22C164.623 26.1275 160.344 29.7061 157.262 33.375C152.775 38.7173 148.499 47.6341 141.366 49.6735C137.26 49.9674 134.342 47.7984 133.373 43.7365L133.274 43.3136C132.358 39.5238 138.327 34.1889 140.373 31.6541C145.721 25.0266 151.301 15.183 159.766 12.2553Z"/>
	<path fill="#24232C" d="M421.778 63.7016L475.328 65.6055C477.761 65.8433 480.092 66.7415 482.391 67.5259C500.678 73.7634 503.366 78.204 506.065 96.5886L508.954 126.364C509.077 128.294 509.486 130.188 509.597 132.139L509.86 322.978L502.329 431.797C501.311 442.615 499.974 444.997 502.5 455.477C509.004 482.451 491.679 501.722 465.837 504.697C461.274 505.222 456.664 505.056 452.081 505.054L378.75 504.94C376.322 504.893 373.98 504.217 371.625 504.142L122.217 504.005L95.0612 501.282C88.6981 500.569 81.1781 503.353 73.6483 503.374L49.1002 503.413C38.0588 503.416 29.5635 502.071 20.1274 495.545L17.922 493.952C10.1524 487.658 9.46994 479.078 8.70135 469.789L7.53348 448.375L7.67943 366.5L13.1471 277.475L13.116 220.459C13.0708 218.668 12.765 216.902 12.7006 215.116L11.3772 166.907L9.72519 146.25C8.0041 126.439 8.84901 96.399 21.5938 81.2198C27.5126 74.1704 34.8614 70.7237 44.1228 72.3084C46.461 72.7084 49.3274 73.8049 51.6759 73.68C55.1002 73.498 58.1366 70.8922 61.5272 70.6713C70.0526 70.1159 78.6998 70.7141 87.25 70.4695C90.2089 70.3848 93.155 69.8859 96.1147 69.8218L114.722 69.7064C117.175 69.6387 119.591 69.1513 122.032 69.1231L139.08 69.0492C145.152 69.0102 151.111 68.4528 157.173 68.4427L170.5 68.4204C173.233 68.4016 175.936 67.9454 178.634 67.9138L209.18 67.7975C211.298 67.7301 213.351 67.2002 215.447 67.159L232.052 67.1063C238.582 67.0705 244.947 66.2962 251.474 66.2755L274.392 66.1338C276.141 66.0597 277.874 65.8002 279.625 65.7695L303.375 65.7186C305.881 65.6955 308.298 65.1622 310.75 65.0865L336.237 64.9765C338.569 64.9231 340.844 64.3446 343.128 64.2974L394.607 64.2181C397.523 64.2071 400.367 63.807 403.25 63.7302L421.778 63.7016ZM420.898 76.7402L382.235 76.7799C379.65 76.8225 377.113 77.3133 374.512 77.3453L334.679 77.7778C332.106 77.8268 329.61 78.3574 327.025 78.4007L291.217 78.4811C288.471 78.5318 285.76 79.0675 282.989 79.1089L259.875 79.1602C256.872 79.2333 253.905 79.6836 250.869 79.6988L187.5 80.3372C185.411 80.4188 183.353 80.8157 181.25 80.8613L149.803 81.4431L139.696 82.3213L94.3691 82.7829C92.2907 82.8115 90.2378 83.1653 88.163 83.2479L55.7276 84.1132C47.9678 84.0671 41.6581 83.7302 35.0436 88.8032L34.7273 89.043C33.3373 90.1197 31.9871 91.533 31.0159 93L30.8511 93.2429C26.6516 99.5413 25.5607 109.327 25.3104 116.778L25.4709 153.304L28.4846 202.164L28.5675 265.599L19.8866 402.008L20.5402 445.509C21.1341 457.79 22.6006 481.789 33.75 489.207L34.1246 489.462C39.9949 493.396 47.0538 493.313 53.8426 493.85L69.0876 495.468C72.991 495.872 77.0293 496.062 80.8725 496.876C86.6132 498.092 88.2718 500.683 94.4384 499.631C102.419 497.988 110.163 495.656 118.294 494.746C132.333 493.175 148.104 493.805 162.605 493.284L217.927 492.259L263.541 491.731L439.393 491.722C452.665 491.712 468.94 492.149 480.177 484.366C487.238 479.476 489.09 468.835 490.686 460.931L492.645 451.392C493.506 446.677 493.047 441.228 493.062 436.415L493.145 402.625C493.196 400.989 493.491 399.381 493.569 397.75L493.722 389.875C493.793 388.284 494.088 386.715 494.145 385.122L494.653 357.178L497.482 298.435L498.583 265.762L498.676 249.694C498.71 247.755 499.051 245.842 499.091 243.897L498.518 192.698L492.326 105.25C489.609 81.1184 486.542 80.6748 462.248 78.1743L450.305 76.9005C445.422 76.5728 440.442 76.7381 435.546 76.7324L420.898 76.7402Z"/>
	<path fill="#24232C" d="M87.7473 452.476C91.9962 452.293 95.9842 452.912 100.25 452.803L165.178 452.785C168.415 452.789 171.545 452.694 174.75 453.24C180.754 454.262 179.176 463.33 174.147 464.868L173.667 464.986C170.57 465.772 166.855 465.682 163.664 465.697L151.847 465.741L130.557 465.829C128.481 465.902 126.433 466.323 124.375 466.397L71.5122 466.447C68.0399 466.446 64.1147 467.556 62.1595 463.941C59.736 459.46 62.579 455.85 66.625 453.935C69.5388 452.555 74.3581 453.358 77.625 453.168L87.7473 452.476Z"/>
	<path fill="#24232C" d="M191.663 413.554L192.024 413.354C200.925 413.268 199.727 425.077 192.608 425.672C188.47 426.018 184.162 425.787 180 425.793L61.4047 426.262L59.4767 426.142C53.4518 424.312 53.9376 417.377 60.0008 414.573L60.4048 414.393C63.8866 412.762 69.0392 413.708 72.7977 413.709L191.663 413.554Z"/>
	<path fill="#24232C" d="M388.564 379.089C386.856 382.338 384.629 383.456 381.103 383.621L311.283 383.803C308.796 383.888 306.387 384.432 303.917 384.456L251.941 384.544C249.422 384.581 246.956 385.123 244.48 385.177L225.513 385.283L185.528 386.916L64.0222 387.392C58.5848 387.328 59.3497 385.159 58.7119 380.335C57.9811 374.808 58.1076 369.202 58.0959 363.638L58.2058 333.4C58.2984 331.156 58.7422 328.975 58.8715 326.75L60.7573 282.184C60.83 280.36 61.2323 278.574 61.3412 276.758L61.3798 230.866C61.3186 228.326 60.7535 225.845 60.7195 223.335L60.6576 189.52L59.6456 171.69L58.9604 133.927C58.9014 125.92 57.2449 115.104 67.0862 112.245L67.625 112.089C70.0064 111.202 73.1911 111.307 75.7171 111.274L86.6846 111.115C89.5566 111.014 92.3993 110.511 95.2888 110.432L120.721 110.325C123.518 110.255 126.261 109.762 129.044 109.736L150.344 109.783C153.374 109.871 156.335 110.331 159.372 110.347L268.125 110.336C270.832 110.308 273.455 109.86 276.125 109.752L300.01 109.634C301.716 109.556 303.339 109.268 305.022 109.104L361.75 105.876L431 105.205C435.835 104.954 440.479 104.614 445.356 104.585C461 104.492 459.288 108.016 460.791 121.756L462.501 145.625C462.576 146.963 462.826 148.284 462.885 149.625L463.118 163.736C463.191 166.001 463.65 168.253 463.691 170.5L464.253 216.375L463.622 291.826L461.117 330.601C460.667 335.913 459.702 341.288 459.443 346.589L459.363 368.875C459.339 383.743 461.124 384.561 447.846 384.543L413.494 384.49C409.925 384.485 406.283 384.639 402.724 384.434C399.524 384.249 399.089 380.474 397.161 378.283L393.91 378.048C396.096 376.338 398.212 377.378 399.957 374.326C402.557 369.775 409.139 371.792 414.518 371.799L440.491 371.855C439.642 370.849 439.631 369.189 439.192 367.977C436.359 360.142 430.816 352.887 426.257 346L399.876 309.128L358.559 261.13C354.821 257.141 351.187 253.134 346.921 249.69C339.088 257.431 332.125 266.342 324.721 274.509L285.559 317.519C283.345 320.418 281.348 324.078 278.521 326.409C266.485 336.33 253.369 318.201 246.73 310.346C232.671 293.714 220.514 275.263 207.886 257.535L196.861 242.172C186.985 249.548 177.672 258.117 168.484 266.333L121.738 310.487C114.916 317.851 109.531 327.836 100.833 315.594C103.24 310.842 107.651 307.335 111.27 303.496L150.34 265.61L188.883 231.883C192.621 228.849 196.859 225.281 202.047 226.021C205.63 226.533 207.905 232.139 209.789 234.74L221.326 250.192L223.424 252.978L250.799 290.249C257.076 298.173 263.372 305.874 270.633 312.925C279.416 304.437 287.414 294.91 295.514 285.765L333.884 242.559C347.853 225.931 349.722 231.763 362.501 244.125L372.519 253.562L385.811 267.806L389.498 271.57C391.441 269.815 394.11 268.574 396.283 267.08C409.816 257.774 423.459 248.541 437.819 240.551C441.405 238.555 444.656 236.385 448.625 235.182L448.997 234.376L448.845 222.235L448.722 207.916L448.482 202.302L448.447 184.637L448.261 180.203L448.198 171.417L447.657 160.141C448.074 158.752 447.659 155.861 447.635 154.347L446.706 137.792C446.151 130.299 445.489 123.135 443.939 115.773C441.371 115.373 438.74 115.443 436.148 115.43L379.695 115.852C376.729 115.9 373.82 116.324 370.837 116.338L320.136 116.316C317.687 116.292 315.305 115.935 312.875 115.85L302.779 115.777C300.061 115.771 297.35 115.644 294.683 116.256L255.488 115.428L228.044 116.38C222.304 116.616 216.773 117.875 210.947 117.944C191.56 118.172 172.003 117.236 152.667 118.372C143.313 118.922 133.994 119.464 124.625 119.834L115.741 120.443L82.625 121.132C79.2948 121.219 75.3926 120.653 75.2472 124.39L75.2865 216.45L76.4817 243C76.5711 244.69 76.898 246.362 76.9649 248.071L77.1957 278.375C77.1355 288.693 75.5399 297.863 75.0462 307.718L73.4874 337.624L72.9149 376.364L133.959 376.225C136.856 376.2 139.753 375.678 142.69 375.655L161.7 375.598C168.151 375.58 173.526 374.899 179.764 374.75L193.392 374.67C196.189 374.643 198.872 374.099 201.659 374.047L224.047 373.954C226.354 373.908 228.632 373.415 230.948 373.316L252.375 373.158C259.22 372.836 266.745 372.056 273.429 371.894L383.268 371.941C386.999 372.091 387.613 373.153 388.565 376.761L388.564 379.089ZM448.997 234.376L448.625 235.182C444.656 236.385 441.405 238.555 437.819 240.551C423.459 248.541 409.816 257.774 396.283 267.08C394.11 268.574 391.441 269.815 389.498 271.57L396.22 279.06L401.29 284.879L409.567 294.732L411.012 296.518C412.844 296.227 414.055 295.353 415.378 294.132C419.56 292.549 423.234 290.293 427.047 287.988L439.603 280.479C442.693 278.703 445.458 277.03 448.875 275.895L449.094 274.06L449.018 264.919C449.2 264.191 449.023 262.896 449.023 262.117L448.993 255.179L448.991 248.761L448.997 234.376ZM415.378 294.132C414.055 295.353 412.844 296.227 411.012 296.518L417.244 304.553L426.656 317.3L446.49 347.396L448.75 347.377C449.923 346.593 450.186 345.752 450.486 344.441C449.114 338.194 449.171 325.019 449.033 317.554L448.993 287.365L448.991 281.929L449.155 274.06L448.875 275.895C445.458 277.03 442.693 278.703 439.603 280.479L427.047 287.988C423.234 290.293 419.56 292.549 415.378 294.132ZM450.486 344.441C450.186 345.752 449.923 346.593 448.75 347.377L446.49 347.396C447.993 349.729 449.765 352.122 451.675 354.134C451.826 350.752 451.533 347.666 450.486 344.441Z"/>
	<path fill="#B8B8FF" d="M415.378 294.132C419.56 292.549 423.234 290.293 427.047 287.988L439.603 280.479C442.693 278.703 445.458 277.03 448.875 275.895L449.155 274.06L448.991 281.929L448.993 287.365L449.033 317.554C449.171 325.019 449.114 338.194 450.486 344.441C450.186 345.752 449.923 346.593 448.75 347.377L446.49 347.396L426.656 317.3L417.244 304.553L411.012 296.518C412.844 296.227 414.055 295.353 415.378 294.132ZM418.989 303.436L419.35 303.819C421.539 304.682 428.516 300.85 430.493 299.959C436.435 297.28 442.25 294.844 448.993 293.659C448.644 291.71 448.913 289.341 448.993 287.365L448.991 281.929C445.567 286.147 440.676 287.939 436.141 290.668C429.937 294.402 424.805 299.233 418.989 303.436Z"/>
	<path fill="#B8B8FF" d="M448.997 234.376L448.991 248.761L448.993 255.179L449.023 262.117C449.023 262.896 449.2 264.191 449.018 264.919L449.094 274.06L448.875 275.895C445.458 277.03 442.693 278.703 439.603 280.479L427.047 287.988C423.234 290.293 419.56 292.549 415.378 294.132C414.055 295.353 412.844 296.227 411.012 296.518L409.567 294.732L401.29 284.879L396.22 279.06L389.498 271.57C391.441 269.815 394.11 268.574 396.283 267.08C409.816 257.774 423.459 248.541 437.819 240.551C441.405 238.555 444.656 236.385 448.625 235.182L448.997 234.376ZM449.059 255.179C444.975 256.9 441.488 259.581 437.749 261.915L405.023 282.881C403.798 283.585 402.634 284.426 401.29 284.879L409.567 294.732L411.012 296.518C412.844 296.227 414.055 295.353 415.378 294.132C419.56 292.549 423.234 290.293 427.047 287.988L439.603 280.479C442.693 278.703 445.458 277.03 448.875 275.895L449.094 274.06L449.018 264.919C449.2 264.191 449.023 262.896 449.023 262.117L449.059 255.179ZM396.22 279.06L401.29 284.879C402.634 284.426 403.798 283.585 405.023 282.881L437.749 261.915C441.488 259.581 444.975 256.9 448.993 255.179L448.967 248.761L448.329 245.216C444.892 247.481 441.002 249.05 437.528 251.305L400.284 276.559C399.056 277.324 397.155 278.009 396.22 279.06Z"/>
	<path fill="#B8B8FF" d="M449.059 255.179L449.023 262.117C449.023 262.896 449.2 264.191 449.018 264.919L449.094 274.06L448.875 275.895C445.458 277.03 442.693 278.703 439.603 280.479L427.047 287.988C423.234 290.293 419.56 292.549 415.378 294.132C414.055 295.353 412.844 296.227 411.012 296.518L409.567 294.732L401.29 284.879C402.634 284.426 403.798 283.585 405.023 282.881L437.749 261.915C441.488 259.581 444.975 256.9 449.059 255.179ZM412.58 292.684L409.567 294.732L411.012 296.518C412.844 296.227 414.055 295.353 415.378 294.132C419.56 292.549 423.234 290.293 427.047 287.988L439.603 280.479C442.693 278.703 445.458 277.03 448.875 275.895L449.094 274.06L449.059 264.919C445.857 268.455 442.125 270.462 438.243 273.125L420.599 285.7C417.822 287.774 415.326 290.857 412.58 292.684Z"/>
	<path fill="#9381FF" d="M100.833 315.594C109.531 327.836 114.916 317.851 121.738 310.487L168.484 266.333C177.672 258.117 186.985 249.548 196.861 242.172L207.886 257.535C220.514 275.263 232.671 293.714 246.73 310.346C253.369 318.201 266.485 336.33 278.521 326.409C281.348 324.078 283.345 320.418 285.559 317.519L324.721 274.509C332.125 266.342 339.088 257.431 346.921 249.69C351.187 253.134 354.821 257.141 358.559 261.13L399.876 309.128L426.257 346C430.816 352.887 436.359 360.142 439.192 367.977C439.631 369.189 439.642 370.849 440.491 371.855L414.518 371.799C409.139 371.792 402.557 369.775 399.957 374.326C398.212 377.378 396.096 376.338 393.91 378.048L392.749 377.972C391.345 378.161 389.747 378.255 388.564 379.089L388.565 376.761C387.613 373.153 386.999 372.091 383.268 371.941L273.429 371.894C266.745 372.056 259.22 372.836 252.375 373.158L230.948 373.316C228.632 373.415 226.354 373.908 224.047 373.954L201.659 374.047C198.872 374.099 196.189 374.643 193.392 374.67L179.764 374.75C173.526 374.899 168.151 375.58 161.7 375.598L142.69 375.655C139.753 375.678 136.856 376.2 133.959 376.225L72.9149 376.364L73.1415 337.624L73.512 342.349C77.0075 337.842 81.447 334.5 85.625 330.686L94.0225 322.304C96.5502 320.362 98.6174 317.863 100.833 315.594Z"/>
	<path fill="#B8B8FF" d="M242.098 328.125L242.32 328.124C241.146 330.12 234.65 333.42 232.563 335.063L232.875 335.25C234.547 333.899 236.586 332.949 238.379 331.754L238.75 331.5C239.131 331.246 239.484 331.025 239.828 330.719L210.381 349.667L203.238 353.893C202.293 354.431 201.124 354.828 200.293 355.508L200.001 355.751C199.487 356.035 199.353 356.174 198.938 356.626C199.687 353.312 211.328 347.66 214.157 345.94C223.593 340.202 233.092 334.531 242.098 328.125Z"/>
	<path fill="#B8B8FF" d="M294.683 115.909C297.35 115.644 300.061 115.771 302.779 115.777L312.875 115.85C315.305 115.935 317.687 116.292 320.136 116.316L370.837 116.338C373.82 116.324 376.729 115.9 379.695 115.852L436.148 115.43C438.74 115.443 441.371 115.373 443.939 115.773C445.489 123.135 446.151 130.299 446.706 137.792L447.598 154.347C447.659 155.861 448.074 158.752 447.585 160.141L448.426 171.417L448.388 180.203L448.483 184.637L448.48 202.302L448.49 207.916L448.993 222.235L448.993 234.376L448.625 235.182C444.656 236.385 441.405 238.555 437.819 240.551C423.459 248.541 409.816 257.774 396.283 267.08C394.11 268.574 391.441 269.815 389.498 271.57L385.811 267.806L372.519 253.562L362.501 244.125C349.722 231.763 347.853 225.931 333.884 242.559L295.514 285.765C287.414 294.91 279.416 304.437 270.633 312.925C263.372 305.874 257.076 298.173 250.799 290.249L223.424 252.978L221.326 250.192L209.789 234.74C207.905 232.139 205.63 226.533 202.047 226.021C196.859 225.281 192.621 228.849 188.883 231.883L150.34 265.61L111.27 303.496C107.651 307.335 103.24 310.842 100.833 315.594C98.6174 317.863 96.5502 320.362 94.0225 322.304L85.625 330.686C81.447 334.5 77.0075 337.842 73.512 342.349L73.4464 337.624L75.0462 307.718C75.5399 297.863 77.1355 288.693 77.1957 278.375L76.9649 248.071C76.898 246.362 76.5711 244.69 76.4817 243L75.2865 216.45L75.2472 124.39C75.3926 120.653 79.2948 121.219 82.625 121.132L115.741 120.443L124.625 119.834C133.994 119.464 143.313 118.922 152.667 118.372C172.003 117.236 191.56 118.172 210.947 117.944C216.773 117.875 222.304 116.616 228.044 116.38L255.488 115.428L294.683 115.909ZM294.683 116.256C289.93 120.01 284.63 122.259 279.565 125.438L246.372 146.41L187.828 185.388C185.264 186.77 182.474 188.252 179.731 189.209L179.739 192.053C183.184 192.717 189.109 189.02 192.009 187.144C192.97 186.837 194.101 185.984 195 185.48L248.327 150.962L265.098 141.625C269.8 139.094 274.438 136.515 279.319 134.331L310.75 121.781C313.655 120.738 316.661 119.967 319.625 119.114C321.186 119.951 321.385 122.461 320.627 123.875L320.971 123.957C321.291 124.037 321.571 124.127 321.875 124.25L323.126 124.812L322.751 125.251C322.074 125.925 321.753 125.772 320.822 125.812C323.32 126.144 324.947 124.008 327.125 124.377L299.203 145.053C295.227 147.907 291.212 151.272 286.94 153.625L287.5 153.875L287.677 154.836C289.607 153.151 292.3 152.156 294.619 151.14L303.51 147.203C310.874 143.948 317.992 140.058 325.461 137.054L355 126.213C358.682 125.022 362.423 124.317 366.1 123.058L304.983 165.313C307.53 164.532 309.743 163.198 312.218 162.308C315.886 160.988 319.552 160.065 323.157 158.502C339.437 151.446 353.012 142.366 370.071 135.716L392.329 127.197C387.704 130.638 383.676 134.825 379.037 138.197C368.211 146.065 356.544 152.933 345.138 159.927C341.28 162.292 337.351 165.564 333.253 167.388C334.146 168.265 335.06 168.323 336.123 168.98L336.536 169.182C344.927 165.066 352.717 162.528 361.322 157.669L374.809 149.48C378.828 146.876 391.544 137.115 396.487 139.875L396.831 140.062C398.678 141.11 399.786 142.971 400.9 144.707L398.125 146.952C392.911 150.638 387.244 153.61 381.826 156.989C376.747 160.156 371.988 163.757 367.125 167.233C357.872 173.847 350.552 177.868 344.424 187.588C361.709 182.708 376.539 170.744 392.568 162.876C407.808 155.395 422.703 152.255 437 142.309C439.238 140.753 442.687 137.687 445.424 137.366C450.124 142.895 433.04 151.204 430.019 153.045L396.018 173.319L373.123 188.549C369.707 190.805 366.27 193.468 362.553 195.184L362.338 196.666L373.09 192.243L408.23 174.679L435.432 159.648C439.342 157.496 443.256 155.33 447.598 154.347L446.706 137.792C446.151 130.299 445.489 123.135 443.939 115.773C441.371 115.373 438.74 115.443 436.148 115.43L379.695 115.852C376.729 115.9 373.82 116.324 370.837 116.338L320.136 116.316C317.687 116.292 315.305 115.935 312.875 115.85L302.779 115.777C300.061 115.771 297.35 115.644 294.683 116.256ZM368.872 214.896C363.38 218.341 357.497 221.754 352.482 225.865C353.675 225.567 354.515 225.209 355.554 224.563L364.989 218.806C366.554 217.9 368.673 217.076 370.051 215.938L447.875 173.652L448.426 171.417L447.687 160.141L447.344 158.125C444.599 162.56 439.195 164.905 434.952 167.635L379.681 206.673C375.982 209.308 372.632 212.347 368.872 214.896ZM380.068 228.852L372.516 233.718C373.212 233.026 376.602 231.002 377.438 230.999L375.376 232.438C375.008 232.603 374.836 232.813 374.5 233L373.877 233.125C373.404 233.292 373.515 233.282 373.312 233.732C375.443 233.369 378.474 231.29 380.453 230.206L380.457 230.192C397.34 222.7 413.436 213.692 429.679 204.926L437.97 200.423C441.216 198.554 444.391 196.34 447.995 195.216L448.483 184.637L448.261 180.203C445.054 183.142 441.44 185.131 437.923 187.624L389.914 221.767C386.856 224.129 383.551 227.184 380.068 228.852ZM377.275 251.128C378.274 251.236 379.456 250.426 380.375 250L380.376 250.688C380.06 250.994 379.818 251.233 379.41 251.418L377.877 252.125C379.452 252.369 383.939 248.99 385.71 248.128L408.867 237.466L437.979 220.325C441.596 218.274 444.213 216.565 448.406 216.138L448.49 207.916L448.464 202.302C448.134 202.39 448.013 202.347 447.807 202.631C445.206 206.214 440.43 208.502 436.823 210.902L391.405 241.98C386.693 245.127 382.368 248.584 377.275 251.128ZM385.811 267.806L389.498 271.57C391.441 269.815 394.11 268.574 396.283 267.08C409.816 257.774 423.459 248.541 437.819 240.551C441.405 238.555 444.656 236.385 448.625 235.182L448.993 234.376L448.744 222.235L447.813 223.059C446.211 226.357 441.696 228.403 438.75 230.25L429.981 235.979L390.113 265.018C388.763 266.034 387.043 266.721 385.811 267.806Z"/>
	<defs>
		<linearGradient id="gradient_0" gradientUnits="userSpaceOnUse" x1="353.85599" y1="201.58099" x2="360.51901" y2="194.79201">
			<stop offset="0" stop-color="#CDCEFA"/>
			<stop offset="1" stop-color="#EFECFC"/>
		</linearGradient>
	</defs>
	<path fill="url(#gradient_0)" d="M362.338 196.666C358.062 199.073 353.432 200.768 348.782 202.298C350.265 200.781 352.708 199.916 354.619 199.005L362.553 195.184L362.338 196.666Z"/>
	<defs>
		<linearGradient id="gradient_1" gradientUnits="userSpaceOnUse" x1="250.401" y1="227.99001" x2="255.192" y2="234.188">
			<stop offset="0" stop-color="#E9DCF3"/>
			<stop offset="1" stop-color="#CBD0FF"/>
		</linearGradient>
	</defs>
	<path fill="url(#gradient_1)" d="M221.326 250.192C223.575 248.66 227.431 247.327 230.309 245.473L266.855 221.081C271.987 217.785 279.363 211.311 285.766 211.257C280.296 215.866 273.532 218.662 267.491 222.375L242.012 239.125C238.976 241.067 235.921 243.174 233.117 245.439L227.302 250.248C226.189 251.148 225.069 252.181 223.774 252.801L223.424 252.978L221.326 250.192Z"/>
	<defs>
		<linearGradient id="gradient_2" gradientUnits="userSpaceOnUse" x1="68.656601" y1="321.45801" x2="88.359802" y2="331.29401">
			<stop offset="0" stop-color="#FFFFFC"/>
			<stop offset="1" stop-color="#C4C6FF"/>
		</linearGradient>
	</defs>
	<path fill="url(#gradient_2)" d="M75.0462 307.718L75.9137 307.625C77.427 309.756 78.0515 326.358 77.6253 329.047L77.406 330.188C78.8394 329.589 80.4653 329.149 81.8106 328.388C86.0818 325.969 88.4429 322.452 94.0225 322.304L85.625 330.686C81.447 334.5 77.0075 337.842 73.512 342.349L73.4464 337.624L75.0462 307.718Z"/>
	<defs>
		<linearGradient id="gradient_3" gradientUnits="userSpaceOnUse" x1="167.18201" y1="219.106" x2="107.682" y2="161.276">
			<stop offset="0" stop-color="#262424"/>
			<stop offset="1" stop-color="#222332"/>
		</linearGradient>
	</defs>
	<path fill="url(#gradient_3)" d="M179.739 192.053C177.841 211.508 164.135 229.904 143.693 231.656C132.075 232.652 118.526 229.544 109.521 221.834C92.3979 207.173 91.9668 178.594 106.492 162.031C127.184 138.434 173.668 149.184 179.166 182.207C179.548 184.506 179.597 186.882 179.71 189.209L179.739 192.053Z"/>
	<path fill="#FFDB6E" d="M135.853 162.353C142.083 161.794 150.125 164.812 155.153 168.291C175.415 182.312 167.242 216.112 142.304 220.204C105.836 223.353 99.4871 165.569 135.853 162.353Z"/>
</svg>
